<?xml version="1.0" encoding="utf-8"?>
<!-- Generator: Adobe Illustrator 23.0.1, SVG Export Plug-In . SVG Version: 6.00 Build 0)  -->
<svg version="1.1" xmlns="http://www.w3.org/2000/svg" xmlns:xlink="http://www.w3.org/1999/xlink" x="0px" y="0px" width="864px"
	 height="432px" viewBox="0 0 864 432" style="enable-background:new 0 0 864 432;" xml:space="preserve">
<style type="text/css">
	.st0{fill:#D1D3D4;}
	.st1{fill:#EC008C;}
	.st2{fill:#010101;}
</style>
<g id="Layer_2_copy_2">
	<path class="st0" d="M838,41.7c0-13.1-10.6-23.7-23.7-23.7H33.7C20.6,18,10,28.6,10,41.7v127.5c0,13.1,10.6,23.7,23.7,23.7h780.7
		c13.1,0,23.7-10.6,23.7-23.7V41.7z"/>
	<path class="st1" d="M33.4,176c-3.7,0-6.6-3-6.6-6.6s3-6.6,6.6-6.6s6.6,3,6.6,6.6S37.1,176,33.4,176z"/>
	<circle class="st1" cx="33.4" cy="41.4" r="6.6"/>
	<path class="st1" d="M814.6,48c-3.7,0-6.6-3-6.6-6.6s3-6.6,6.6-6.6s6.6,3,6.6,6.6S818.3,48,814.6,48z"/>
	<path class="st1" d="M814.6,176c-3.7,0-6.6-3-6.6-6.6s3-6.6,6.6-6.6s6.6,3,6.6,6.6S818.3,176,814.6,176z"/>
</g>
<g id="Layer_6_copy">
	<g>
		<path class="st2" d="M92.5,33.9h1.6c1.5,0,1.9,0.8,1.9,2.2v2.8c0,1.1-0.2,2.4-1.9,2.4h-1.6V33.9z M93.6,40.3H94
			c0.7,0,0.9-0.5,0.9-1.2V36c0-0.7-0.1-1.1-0.9-1.1h-0.4V40.3z"/>
		<path class="st2" d="M98.5,33.9v7.3h-1.1v-7.3H98.5z"/>
		<path class="st2" d="M103.2,39.1v0.3c0,0.8-0.1,2-1.7,2c-1.4,0-1.6-0.9-1.6-2v-3.7c0-1.1,0.5-1.9,1.7-1.9c1.4,0,1.6,0.9,1.6,1.9
			v0.3H102v-0.5c0-0.5-0.1-0.8-0.5-0.8c-0.4,0-0.5,0.3-0.5,0.8v3.9c0,0.5,0.1,0.9,0.5,0.9c0.4,0,0.5-0.3,0.5-0.9v-0.4H103.2z"/>
		<path class="st2" d="M107.1,37.9h-1.6v2.3h1.8l-0.1,1h-2.8v-7.3h2.8V35h-1.7v1.9h1.6V37.9z"/>
		<path class="st2" d="M155,41.3h-0.9c0-0.1-0.1-0.4-0.1-0.6c-0.2,0.5-0.6,0.7-1.1,0.7c-1.1,0-1.4-0.8-1.4-2v-3.5
			c0-1.2,0.5-2.1,1.7-2.1c1.5,0,1.7,1.1,1.7,1.9V36h-1.1v-0.3c0-0.4-0.1-0.8-0.6-0.8c-0.4,0-0.6,0.3-0.6,0.9v3.8
			c0,0.6,0.2,0.9,0.6,0.9c0.5,0,0.6-0.4,0.6-1.2v-1.1h-0.6v-1h1.8V41.3z"/>
		<path class="st2" d="M156.5,33.9h1.1v6.3h1.8l-0.1,1h-2.9V33.9z"/>
		<path class="st2" d="M161.7,39.3l-0.3,2h-1.1l1.2-7.3h1.6l1.2,7.3h-1.2l-0.3-2H161.7z M162.7,38.3c-0.2-1.2-0.3-2.4-0.4-3.3h0
			c0,0.6-0.3,2.2-0.4,3.3H162.7z"/>
		<path class="st2" d="M165.4,41.3v-7.3h1.3c0.3,1,1.2,4.7,1.2,5.1h0c-0.1-0.9-0.1-1.9-0.1-3.1v-1.9h1v7.3h-1.3
			c-0.2-0.9-1.2-4.9-1.3-5.2h0c0.1,0.9,0,1.9,0,3.2v2H165.4z"/>
		<path class="st2" d="M173.6,39.1v0.3c0,0.8-0.1,2-1.7,2c-1.4,0-1.6-0.9-1.6-2v-3.7c0-1.1,0.5-1.9,1.7-1.9c1.4,0,1.6,0.9,1.6,1.9
			v0.3h-1.1v-0.5c0-0.5-0.1-0.8-0.5-0.8c-0.4,0-0.5,0.3-0.5,0.8v3.9c0,0.5,0.1,0.9,0.5,0.9c0.4,0,0.5-0.3,0.5-0.9v-0.4H173.6z"/>
		<path class="st2" d="M177.5,37.9h-1.6v2.3h1.8l-0.1,1h-2.8v-7.3h2.8V35h-1.7v1.9h1.6V37.9z"/>
		<path class="st2" d="M220.5,39.1v0.5c0,0.5,0.2,0.9,0.6,0.9c0.4,0,0.6-0.4,0.6-0.9c0-0.8-0.2-1-1-1.7c-0.8-0.6-1.2-1-1.2-2.1
			c0-1,0.3-1.9,1.6-1.9c1.3,0,1.6,1,1.6,1.8V36h-1.1v-0.4c0-0.5-0.1-0.8-0.5-0.8c-0.4,0-0.5,0.3-0.5,0.8c0,0.5,0.1,0.8,0.7,1.2
			c1.1,0.8,1.4,1.3,1.4,2.5c0,1-0.4,2-1.7,2c-1.4,0-1.7-0.9-1.7-1.8v-0.4H220.5z"/>
		<path class="st2" d="M227.6,35.9v3.4c0,1.4-0.6,2.1-1.8,2.1c-1.2,0-1.7-0.7-1.7-2.1v-3.5c0-1.4,0.7-2,1.8-2
			C226.9,33.8,227.6,34.5,227.6,35.9z M225.1,35.8v3.7c0,0.6,0.2,0.9,0.6,0.9c0.4,0,0.6-0.3,0.6-0.9v-3.7c0-0.6-0.2-0.9-0.6-0.9
			C225.4,34.9,225.1,35.2,225.1,35.8z"/>
		<path class="st2" d="M228.9,33.9h1.1v6.3h1.8l-0.1,1h-2.9V33.9z"/>
		<path class="st2" d="M234,33.9v7.3h-1.1v-7.3H234z"/>
		<path class="st2" d="M235.6,33.9h1.6c1.5,0,1.9,0.8,1.9,2.2v2.8c0,1.1-0.2,2.4-1.9,2.4h-1.6V33.9z M236.7,40.3h0.4
			c0.7,0,0.9-0.5,0.9-1.2V36c0-0.7-0.1-1.1-0.9-1.1h-0.4V40.3z"/>
		<path class="st2" d="M290.2,39.1v0.3c0,0.8-0.1,2-1.7,2c-1.4,0-1.6-0.9-1.6-2v-3.7c0-1.1,0.5-1.9,1.7-1.9c1.4,0,1.6,0.9,1.6,1.9
			v0.3H289v-0.5c0-0.5-0.1-0.8-0.5-0.8c-0.4,0-0.5,0.3-0.5,0.8v3.9c0,0.5,0.1,0.9,0.5,0.9c0.4,0,0.5-0.3,0.5-0.9v-0.4H290.2z"/>
		<path class="st2" d="M292.5,38v3.3h-1.1v-7.3h1.6c1.1,0,1.8,0.4,1.8,1.8V36c0,1.1-0.5,1.4-0.7,1.5c0.4,0.2,0.7,0.5,0.7,1.5
			c0,0.6,0,1.8,0.1,2.3h-1.1c-0.1-0.4-0.1-1.7-0.1-2.2c0-0.9-0.1-1.1-0.8-1.1H292.5z M292.5,37.1h0.3c0.6,0,0.8-0.2,0.8-1v-0.3
			c0-0.6-0.1-0.9-0.8-0.9h-0.3V37.1z"/>
		<path class="st2" d="M297.2,33.9v7.3h-1.1v-7.3H297.2z"/>
		<path class="st2" d="M299.4,35h-1.2v-1.1h3.5V35h-1.2v6.3h-1.1V35z"/>
		<path class="st2" d="M349.3,39.1v0.3c0,0.8-0.1,2-1.7,2c-1.4,0-1.6-0.9-1.6-2v-3.7c0-1.1,0.5-1.9,1.7-1.9c1.4,0,1.6,0.9,1.6,1.9
			v0.3h-1.1v-0.5c0-0.5-0.1-0.8-0.5-0.8c-0.4,0-0.5,0.3-0.5,0.8v3.9c0,0.5,0.1,0.9,0.5,0.9c0.4,0,0.5-0.3,0.5-0.9v-0.4H349.3z"/>
		<path class="st2" d="M351.6,38v3.3h-1.1v-7.3h1.6c1.1,0,1.8,0.4,1.8,1.8V36c0,1.1-0.5,1.4-0.7,1.5c0.4,0.2,0.7,0.5,0.7,1.5
			c0,0.6,0,1.8,0.1,2.3h-1.1c-0.1-0.4-0.1-1.7-0.1-2.2c0-0.9-0.1-1.1-0.8-1.1H351.6z M351.6,37.1h0.3c0.6,0,0.8-0.2,0.8-1v-0.3
			c0-0.6-0.1-0.9-0.8-0.9h-0.3V37.1z"/>
		<path class="st2" d="M356.4,33.9v7.3h-1.1v-7.3H356.4z"/>
		<path class="st2" d="M358.6,35h-1.2v-1.1h3.5V35h-1.2v6.3h-1.1V35z"/>
		<path class="st2" d="M365,38v3.3h-1.1v-7.3h1.6c1.1,0,1.8,0.4,1.8,1.8V36c0,1.1-0.5,1.4-0.7,1.5c0.4,0.2,0.7,0.5,0.7,1.5
			c0,0.6,0,1.8,0.1,2.3h-1.1c-0.1-0.4-0.1-1.7-0.1-2.2c0-0.9-0.1-1.1-0.8-1.1H365z M365,37.1h0.3c0.6,0,0.8-0.2,0.8-1v-0.3
			c0-0.6-0.1-0.9-0.8-0.9H365V37.1z"/>
		<path class="st2" d="M369.7,38v3.3h-1.1v-7.3h1.6c1.1,0,1.8,0.4,1.8,1.8V36c0,1.1-0.5,1.4-0.7,1.5c0.4,0.2,0.7,0.5,0.7,1.5
			c0,0.6,0,1.8,0.1,2.3h-1.1c-0.1-0.4-0.1-1.7-0.1-2.2c0-0.9-0.1-1.1-0.8-1.1H369.7z M369.7,37.1h0.3c0.6,0,0.8-0.2,0.8-1v-0.3
			c0-0.6-0.1-0.9-0.8-0.9h-0.3V37.1z"/>
		<path class="st2" d="M421.1,41.3v-6c-0.2,0-0.5,0-0.7,0v-0.9c0.5,0,0.8-0.3,1-0.5h0.8v7.4H421.1z"/>
		<path class="st2" d="M424.7,39.1v0.5c0,0.5,0.2,0.9,0.6,0.9c0.4,0,0.6-0.4,0.6-0.9c0-0.8-0.2-1-1-1.7c-0.8-0.6-1.2-1-1.2-2.1
			c0-1,0.3-1.9,1.6-1.9c1.3,0,1.6,1,1.6,1.8V36h-1.1v-0.4c0-0.5-0.1-0.8-0.5-0.8c-0.4,0-0.5,0.3-0.5,0.8c0,0.5,0.1,0.8,0.7,1.2
			c1.1,0.8,1.4,1.3,1.4,2.5c0,1-0.4,2-1.7,2c-1.3,0-1.7-0.9-1.7-1.8v-0.4H424.7z"/>
		<path class="st2" d="M484.7,41.3L484.7,41.3c0-1.6,0.5-2.2,1.3-3.5c0.6-0.9,0.8-1.3,0.8-2c0-0.6-0.1-1-0.5-1
			c-0.4,0-0.5,0.3-0.5,0.8V36h-1.1v-0.4c0-0.8,0.3-1.8,1.6-1.8c1.3,0,1.6,0.9,1.6,1.9c0,1.2-0.3,1.6-1,2.6c-0.5,0.7-0.9,1.4-1,2h2.1
			l-0.2,1H484.7z"/>
		<path class="st2" d="M490,39.1v0.5c0,0.5,0.2,0.9,0.6,0.9c0.4,0,0.6-0.4,0.6-0.9c0-0.8-0.2-1-1-1.7c-0.8-0.6-1.2-1-1.2-2.1
			c0-1,0.3-1.9,1.6-1.9c1.3,0,1.6,1,1.6,1.8V36h-1.1v-0.4c0-0.5-0.1-0.8-0.5-0.8c-0.4,0-0.5,0.3-0.5,0.8c0,0.5,0.1,0.8,0.7,1.2
			c1.1,0.8,1.4,1.3,1.4,2.5c0,1-0.4,2-1.7,2c-1.4,0-1.7-0.9-1.7-1.8v-0.4H490z"/>
		<path class="st2" d="M549,39.6c0,1-0.1,1.8-1.4,1.8c-0.2,0-0.4,0-0.6-0.1v-1c0.1,0,0.2,0,0.3,0c0.4,0,0.5-0.1,0.5-0.6v-5.8h1.1
			V39.6z"/>
		<path class="st2" d="M553.1,36.3v1.9h1.7V39h-1.7v1.9h-0.9V39h-1.7v-0.8h1.7v-1.9H553.1z"/>
		<path class="st2" d="M557.1,39.1v0.5c0,0.5,0.2,0.9,0.6,0.9c0.4,0,0.6-0.4,0.6-0.9c0-0.8-0.2-1-1-1.7c-0.8-0.6-1.2-1-1.2-2.1
			c0-1,0.3-1.9,1.6-1.9c1.3,0,1.6,1,1.6,1.8V36h-1.1v-0.4c0-0.5-0.1-0.8-0.5-0.8c-0.4,0-0.5,0.3-0.5,0.8c0,0.5,0.1,0.8,0.7,1.2
			c1.1,0.8,1.4,1.3,1.4,2.5c0,1-0.4,2-1.7,2c-1.4,0-1.7-0.9-1.7-1.8v-0.4H557.1z"/>
		<path class="st2" d="M618.9,39.6c0,1-0.1,1.8-1.4,1.8c-0.2,0-0.4,0-0.6-0.1v-1c0.1,0,0.2,0,0.3,0c0.4,0,0.5-0.1,0.5-0.6v-5.8h1.1
			V39.6z"/>
		<path class="st2" d="M679.8,41.3L679.8,41.3c0-1.6,0.5-2.2,1.3-3.5c0.6-0.9,0.8-1.3,0.8-2c0-0.6-0.1-1-0.5-1
			c-0.4,0-0.5,0.3-0.5,0.8V36h-1.1v-0.4c0-0.8,0.3-1.8,1.6-1.8c1.3,0,1.6,0.9,1.6,1.9c0,1.2-0.3,1.6-1,2.6c-0.5,0.7-0.9,1.4-1,2h2.1
			l-0.2,1H679.8z"/>
		<path class="st2" d="M685.8,39.6c0,1-0.1,1.8-1.4,1.8c-0.2,0-0.4,0-0.6-0.1v-1c0.1,0,0.2,0,0.3,0c0.4,0,0.5-0.1,0.5-0.6v-5.8h1.1
			V39.6z"/>
		<path class="st2" d="M744.6,35.9v-0.2c0-1,0.3-1.8,1.6-1.8c1,0,1.6,0.6,1.6,1.7v0.2c0,0.8-0.2,1.2-0.7,1.4v0
			c0.5,0.2,0.8,0.6,0.8,1.6v0.7c0,1.1-0.4,1.9-1.7,1.9c-1.2,0-1.7-0.6-1.7-1.8v-0.3h1v0.3c0,0.4,0.1,0.8,0.6,0.8
			c0.5,0,0.6-0.3,0.6-0.9v-0.7c0-0.7-0.1-0.9-0.8-0.9h-0.3v-1h0.3c0.6,0,0.7-0.2,0.7-0.8v-0.4c0-0.5-0.1-0.7-0.5-0.7
			c-0.4,0-0.5,0.3-0.5,0.8v0.3H744.6z"/>
		<path class="st2" d="M750.8,39.6c0,1-0.1,1.8-1.4,1.8c-0.2,0-0.4,0-0.6-0.1v-1c0.1,0,0.2,0,0.3,0c0.4,0,0.5-0.1,0.5-0.6v-5.8h1.1
			V39.6z"/>
		<path class="st2" d="M99.5,54.8v-6.2c-0.2,0.1-0.6,0.2-0.8,0.2v-0.6c0.4-0.1,0.9-0.4,1-0.6h0.6v7.2H99.5z"/>
		<path class="st2" d="M160.7,48.3H159c0,0.6-0.1,1.6-0.2,2.1c0.1-0.2,0.5-0.4,0.9-0.4c0.9,0,1.3,0.7,1.3,1.9v0.8
			c0,1.2-0.3,2.1-1.5,2.1c-1.1,0-1.5-0.8-1.5-1.7V53h0.8v0.2c0,0.5,0.2,1,0.7,1c0.6,0,0.7-0.5,0.7-1.3V52c0-0.8-0.1-1.2-0.7-1.2
			c-0.5,0-0.6,0.3-0.8,0.8l-0.7-0.1c0.1-1,0.2-3.1,0.3-3.8h2.5L160.7,48.3z"/>
		<path class="st2" d="M165.1,49.4V53c0,1.2-0.5,1.8-1.5,1.8c-1,0-1.5-0.6-1.5-1.8v-3.6c0-1.3,0.6-1.9,1.5-1.9
			C164.5,47.6,165.1,48.1,165.1,49.4z M162.9,49.3v3.8c0,0.7,0.2,1.1,0.7,1.1c0.5,0,0.7-0.3,0.7-1.1v-3.7c0-0.8-0.3-1.1-0.7-1.1
			C163.2,48.3,162.9,48.5,162.9,49.3z"/>
		<path class="st2" d="M166.3,54.8v-1.5h0.8v1.5H166.3z"/>
		<path class="st2" d="M171.2,49.4V53c0,1.2-0.5,1.8-1.5,1.8c-1,0-1.5-0.6-1.5-1.8v-3.6c0-1.3,0.6-1.9,1.5-1.9
			C170.6,47.6,171.2,48.1,171.2,49.4z M169,49.3v3.8c0,0.7,0.2,1.1,0.7,1.1c0.5,0,0.7-0.3,0.7-1.1v-3.7c0-0.8-0.3-1.1-0.7-1.1
			C169.3,48.3,169,48.5,169,49.3z"/>
		<path class="st2" d="M230.8,51.6v0.7H228v-0.7H230.8z"/>
		<path class="st2" d="M295.6,51.6v0.7h-2.8v-0.7H295.6z"/>
		<path class="st2" d="M360.4,51.6v0.7h-2.8v-0.7H360.4z"/>
		<path class="st2" d="M418.6,54.8v-6.2c-0.2,0.1-0.6,0.2-0.8,0.2v-0.6c0.4-0.1,0.9-0.4,1-0.6h0.6v7.2H418.6z"/>
		<path class="st2" d="M423,49.2L423,49.2c0-0.4-0.1-1-0.7-1c-0.6,0-0.7,0.4-0.7,1.3v1.1c0.2-0.3,0.4-0.6,1-0.6
			c0.9,0,1.2,0.7,1.2,1.6V53c0,1.1-0.3,1.9-1.5,1.9c-1.2,0-1.5-0.9-1.5-1.9v-3.4c0-1.2,0.3-2,1.5-2c1.2,0,1.4,0.8,1.4,1.6v0H423z
			 M423.1,53.1v-1.3c0-0.6-0.1-1-0.7-1c-0.6,0-0.8,0.5-0.8,1.2v1.1c0,0.6,0.1,1.1,0.7,1.1C422.8,54.2,423.1,53.9,423.1,53.1z"/>
		<path class="st2" d="M424.9,54.8v-1.5h0.8v1.5H424.9z"/>
		<path class="st2" d="M429.7,47.6v0.6c-0.9,1.8-1.6,3.9-1.9,6.6h-0.8c0.2-2.3,1-4.8,1.9-6.5h-2.1v-0.7H429.7z"/>
		<path class="st2" d="M490,51.6v0.7h-2.8v-0.7H490z"/>
		<path class="st2" d="M554.8,51.6v0.7H552v-0.7H554.8z"/>
		<path class="st2" d="M613,54.8v-6.2c-0.2,0.1-0.6,0.2-0.8,0.2v-0.6c0.4-0.1,0.9-0.4,1-0.6h0.6v7.2H613z"/>
		<path class="st2" d="M617.4,49.2L617.4,49.2c0-0.4-0.1-1-0.6-1c-0.6,0-0.7,0.4-0.7,1.3v1.1c0.2-0.3,0.4-0.6,1-0.6
			c0.9,0,1.2,0.7,1.2,1.6V53c0,1.1-0.3,1.9-1.5,1.9c-1.2,0-1.5-0.9-1.5-1.9v-3.4c0-1.2,0.3-2,1.5-2c1.2,0,1.4,0.8,1.4,1.6v0H617.4z
			 M617.4,53.1v-1.3c0-0.6-0.1-1-0.7-1c-0.6,0-0.8,0.5-0.8,1.2v1.1c0,0.6,0.1,1.1,0.7,1.1C617.2,54.2,617.4,53.9,617.4,53.1z"/>
		<path class="st2" d="M619.3,54.8v-1.5h0.8v1.5H619.3z"/>
		<path class="st2" d="M624.1,47.6v0.6c-0.9,1.8-1.6,3.9-1.9,6.6h-0.8c0.2-2.3,1-4.8,1.9-6.5h-2.1v-0.7H624.1z"/>
		<path class="st2" d="M684.4,51.6v0.7h-2.8v-0.7H684.4z"/>
		<path class="st2" d="M749.2,51.6v0.7h-2.8v-0.7H749.2z"/>
		<path class="st2" d="M98.2,68.3v-0.1c0-1.1,0.5-2,1.4-3.2c0.6-0.8,0.7-1.2,0.7-2c0-0.9-0.1-1.2-0.6-1.2c-0.5,0-0.7,0.4-0.7,1v0.3
			h-0.7v-0.4c0-0.8,0.2-1.6,1.4-1.6c1.1,0,1.4,0.8,1.4,1.9c0,1.1-0.3,1.6-0.9,2.4c-0.7,1-1.1,1.7-1.2,2.3h2.2l-0.1,0.7H98.2z"/>
		<path class="st2" d="M161,61.1v0.6c-0.9,1.8-1.6,3.9-1.9,6.6h-0.8c0.2-2.3,1-4.8,1.9-6.5H158v-0.7H161z"/>
		<path class="st2" d="M164.6,61.8h-1.8c0,0.6-0.1,1.6-0.2,2.1c0.1-0.2,0.5-0.4,0.9-0.4c0.9,0,1.3,0.7,1.3,1.9v0.8
			c0,1.2-0.3,2.1-1.5,2.1c-1.1,0-1.5-0.8-1.5-1.7v-0.1h0.8v0.2c0,0.5,0.2,1,0.7,1c0.6,0,0.7-0.5,0.7-1.3v-0.9c0-0.8-0.1-1.2-0.7-1.2
			c-0.5,0-0.6,0.3-0.8,0.8l-0.7-0.1c0.1-1,0.2-3.1,0.3-3.8h2.5L164.6,61.8z"/>
		<path class="st2" d="M165.9,68.3v-1.5h0.8v1.5H165.9z"/>
		<path class="st2" d="M170.8,62.9v3.7c0,1.2-0.5,1.8-1.5,1.8c-1,0-1.5-0.6-1.5-1.8v-3.6c0-1.3,0.6-1.9,1.5-1.9
			C170.2,61.1,170.8,61.6,170.8,62.9z M168.6,62.8v3.8c0,0.7,0.2,1.1,0.7,1.1c0.5,0,0.7-0.3,0.7-1.1v-3.7c0-0.8-0.3-1.1-0.7-1.1
			C168.9,61.8,168.6,62,168.6,62.8z"/>
		<path class="st2" d="M222.7,68.3v-0.1c0-1.1,0.5-2,1.4-3.2c0.6-0.8,0.7-1.2,0.7-2c0-0.9-0.1-1.2-0.6-1.2c-0.5,0-0.7,0.4-0.7,1v0.3
			h-0.7v-0.4c0-0.8,0.2-1.6,1.4-1.6c1.1,0,1.4,0.8,1.4,1.9c0,1.1-0.3,1.6-0.9,2.4c-0.7,1-1.1,1.7-1.1,2.3h2.2l-0.1,0.7H222.7z"/>
		<path class="st2" d="M229.6,61.8h-1.8c0,0.6-0.1,1.6-0.2,2.1c0.1-0.2,0.5-0.4,0.9-0.4c0.9,0,1.3,0.7,1.3,1.9v0.8
			c0,1.2-0.3,2.1-1.5,2.1c-1.1,0-1.5-0.8-1.5-1.7v-0.1h0.8v0.2c0,0.5,0.2,1,0.7,1c0.6,0,0.7-0.5,0.7-1.3v-0.9c0-0.8-0.1-1.2-0.7-1.2
			c-0.5,0-0.6,0.3-0.8,0.8l-0.7-0.1c0.1-1,0.2-3.1,0.3-3.8h2.5L229.6,61.8z"/>
		<path class="st2" d="M230.9,68.3v-1.5h0.8v1.5H230.9z"/>
		<path class="st2" d="M235.8,62.9v3.7c0,1.2-0.5,1.8-1.5,1.8c-1,0-1.5-0.6-1.5-1.8v-3.6c0-1.3,0.6-1.9,1.5-1.9
			C235.2,61.1,235.8,61.6,235.8,62.9z M233.6,62.8v3.8c0,0.7,0.2,1.1,0.7,1.1c0.5,0,0.7-0.3,0.7-1.1v-3.7c0-0.8-0.3-1.1-0.7-1.1
			C233.9,61.8,233.6,62,233.6,62.8z"/>
		<path class="st2" d="M295.6,65.1v0.7h-2.8v-0.7H295.6z"/>
		<path class="st2" d="M360.4,65.1v0.7h-2.8v-0.7H360.4z"/>
		<path class="st2" d="M420,68.3v-1.9h-2v-0.6l1.7-4.6h1v4.6h0.6l-0.1,0.7h-0.5v1.9H420z M420,64c0-0.7,0-1.4,0-2h0
			c-0.4,1.2-0.8,2.5-1.3,3.8h1.3V64z"/>
		<path class="st2" d="M422.7,68.3v-6.2c-0.2,0.1-0.6,0.2-0.8,0.2v-0.6c0.4-0.1,0.8-0.4,1-0.6h0.6v7.2H422.7z"/>
		<path class="st2" d="M424.9,68.3v-1.5h0.8v1.5H424.9z"/>
		<path class="st2" d="M429.7,61.1v0.6c-0.9,1.8-1.6,3.9-1.9,6.6H427c0.2-2.3,1-4.8,1.9-6.5h-2.1v-0.7H429.7z"/>
		<path class="st2" d="M484,66.7v-0.8c0-0.9,0.4-1.2,0.7-1.4c-0.4-0.2-0.6-0.6-0.6-1.3v-0.4c0-1,0.5-1.6,1.5-1.6
			c0.9,0,1.4,0.5,1.4,1.6v0.4c0,0.9-0.3,1.2-0.6,1.4c0.4,0.2,0.7,0.6,0.7,1.4v0.8c0,1.2-0.5,1.8-1.5,1.8
			C484.6,68.4,484,67.9,484,66.7z M486.3,66.7v-0.9c0-0.7-0.2-1-0.7-1c-0.5,0-0.7,0.3-0.7,1v0.9c0,0.6,0.2,1,0.7,1
			C486.1,67.7,486.3,67.3,486.3,66.7z M484.9,62.6v0.6c0,0.5,0.2,0.9,0.7,0.9c0.4,0,0.7-0.3,0.7-0.9v-0.6c0-0.5-0.1-0.9-0.7-0.9
			C485.1,61.7,484.9,62.1,484.9,62.6z"/>
		<path class="st2" d="M488.2,68.3v-1.5h0.8v1.5H488.2z"/>
		<path class="st2" d="M490.2,62.8v-0.2c0-0.7,0.2-1.6,1.4-1.6c1,0,1.4,0.6,1.4,1.6V63c0,0.8-0.3,1.2-0.7,1.4v0
			c0.5,0.2,0.8,0.6,0.8,1.5v0.6c0,1.1-0.3,1.9-1.5,1.9c-1.1,0-1.5-0.7-1.5-1.6v-0.2h0.7v0.2c0,0.5,0.2,1,0.8,1
			c0.6,0,0.8-0.4,0.8-1.2v-0.7c0-0.9-0.3-1.1-0.9-1.1h-0.3V64h0.3c0.5,0,0.8-0.2,0.8-1v-0.4c0-0.5-0.1-1-0.6-1
			c-0.5,0-0.7,0.4-0.7,0.9v0.2H490.2z"/>
		<path class="st2" d="M548.8,66.7v-0.8c0-0.9,0.4-1.2,0.7-1.4c-0.4-0.2-0.6-0.6-0.6-1.3v-0.4c0-1,0.5-1.6,1.5-1.6
			c0.9,0,1.4,0.5,1.4,1.6v0.4c0,0.9-0.3,1.2-0.6,1.4c0.4,0.2,0.7,0.6,0.7,1.4v0.8c0,1.2-0.5,1.8-1.5,1.8
			C549.4,68.4,548.8,67.9,548.8,66.7z M551.1,66.7v-0.9c0-0.7-0.2-1-0.7-1c-0.5,0-0.7,0.3-0.7,1v0.9c0,0.6,0.2,1,0.7,1
			C550.9,67.7,551.1,67.3,551.1,66.7z M549.7,62.6v0.6c0,0.5,0.2,0.9,0.7,0.9c0.4,0,0.7-0.3,0.7-0.9v-0.6c0-0.5-0.1-0.9-0.7-0.9
			C549.9,61.7,549.7,62.1,549.7,62.6z"/>
		<path class="st2" d="M553,68.3v-1.5h0.8v1.5H553z"/>
		<path class="st2" d="M555,62.8v-0.2c0-0.7,0.2-1.6,1.4-1.6c1,0,1.4,0.6,1.4,1.6V63c0,0.8-0.3,1.2-0.7,1.4v0
			c0.5,0.2,0.8,0.6,0.8,1.5v0.6c0,1.1-0.3,1.9-1.5,1.9c-1.1,0-1.5-0.7-1.5-1.6v-0.2h0.7v0.2c0,0.5,0.2,1,0.8,1s0.8-0.4,0.8-1.2v-0.7
			c0-0.9-0.3-1.1-0.9-1.1h-0.3V64h0.3c0.5,0,0.8-0.2,0.8-1v-0.4c0-0.5-0.1-1-0.6-1c-0.5,0-0.6,0.4-0.6,0.9v0.2H555z"/>
		<path class="st2" d="M611.7,62.8v-0.2c0-0.7,0.2-1.6,1.4-1.6c1,0,1.4,0.6,1.4,1.6V63c0,0.8-0.3,1.2-0.7,1.4v0
			c0.5,0.2,0.8,0.6,0.8,1.5v0.6c0,1.1-0.3,1.9-1.5,1.9c-1.1,0-1.5-0.7-1.5-1.6v-0.2h0.7v0.2c0,0.5,0.2,1,0.8,1s0.8-0.4,0.8-1.2v-0.7
			c0-0.9-0.3-1.1-0.9-1.1h-0.3V64h0.3c0.5,0,0.8-0.2,0.8-1v-0.4c0-0.5-0.1-1-0.6-1c-0.5,0-0.6,0.4-0.6,0.9v0.2H611.7z"/>
		<path class="st2" d="M618.7,62.9v3.7c0,1.2-0.5,1.8-1.5,1.8c-1,0-1.5-0.6-1.5-1.8v-3.6c0-1.3,0.6-1.9,1.5-1.9
			C618.1,61.1,618.7,61.6,618.7,62.9z M616.5,62.8v3.8c0,0.7,0.2,1.1,0.7,1.1c0.5,0,0.7-0.3,0.7-1.1v-3.7c0-0.8-0.3-1.1-0.7-1.1
			C616.8,61.8,616.5,62,616.5,62.8z"/>
		<path class="st2" d="M619.9,68.3v-1.5h0.8v1.5H619.9z"/>
		<path class="st2" d="M623.9,62.7L623.9,62.7c0-0.4-0.1-1-0.6-1c-0.6,0-0.7,0.4-0.7,1.3v1.1c0.2-0.3,0.4-0.6,1-0.6
			c0.9,0,1.2,0.7,1.2,1.6v1.3c0,1.1-0.3,1.9-1.5,1.9c-1.2,0-1.5-0.9-1.5-1.9v-3.4c0-1.2,0.3-2,1.5-2c1.2,0,1.4,0.8,1.4,1.6v0H623.9z
			 M624,66.6v-1.3c0-0.6-0.1-1-0.7-1c-0.6,0-0.8,0.5-0.8,1.2v1.1c0,0.6,0.1,1.1,0.7,1.1C623.8,67.7,624,67.4,624,66.6z"/>
		<path class="st2" d="M678.4,68.3v-0.1c0-1.1,0.5-2,1.4-3.2c0.6-0.8,0.7-1.2,0.7-2c0-0.9-0.1-1.2-0.6-1.2c-0.5,0-0.7,0.4-0.7,1v0.3
			h-0.7v-0.4c0-0.8,0.2-1.6,1.4-1.6c1.1,0,1.4,0.8,1.4,1.9c0,1.1-0.3,1.6-0.9,2.4c-0.7,1-1.1,1.7-1.2,2.3h2.2l-0.1,0.7H678.4z"/>
		<path class="st2" d="M682.5,68.3v-1.5h0.8v1.5H682.5z"/>
		<path class="st2" d="M684.4,66.7v-0.8c0-0.9,0.4-1.2,0.7-1.4c-0.4-0.2-0.6-0.6-0.6-1.3v-0.4c0-1,0.5-1.6,1.5-1.6
			c0.9,0,1.4,0.5,1.4,1.6v0.4c0,0.9-0.3,1.2-0.6,1.4c0.4,0.2,0.7,0.6,0.7,1.4v0.8c0,1.2-0.5,1.8-1.5,1.8
			C685,68.4,684.4,67.9,684.4,66.7z M686.7,66.7v-0.9c0-0.7-0.2-1-0.7-1c-0.5,0-0.7,0.3-0.7,1v0.9c0,0.6,0.2,1,0.7,1
			C686.5,67.7,686.7,67.3,686.7,66.7z M685.3,62.6v0.6c0,0.5,0.2,0.9,0.7,0.9c0.4,0,0.7-0.3,0.7-0.9v-0.6c0-0.5-0.1-0.9-0.7-0.9
			C685.4,61.7,685.3,62.1,685.3,62.6z"/>
		<path class="st2" d="M749.2,65.1v0.7h-2.8v-0.7H749.2z"/>
		<path class="st2" d="M98.3,76.3v-0.2c0-0.7,0.2-1.6,1.4-1.6c1,0,1.4,0.6,1.4,1.6v0.3c0,0.8-0.3,1.2-0.7,1.4v0
			c0.5,0.2,0.8,0.6,0.8,1.5v0.6c0,1.1-0.3,1.9-1.5,1.9c-1.1,0-1.5-0.7-1.5-1.6v-0.2H99v0.2c0,0.5,0.2,1,0.8,1c0.6,0,0.8-0.4,0.8-1.2
			v-0.7c0-0.9-0.3-1.1-0.9-1.1h-0.3v-0.7h0.3c0.5,0,0.8-0.2,0.8-1v-0.4c0-0.5-0.1-1-0.6-1c-0.5,0-0.6,0.4-0.6,0.9v0.2H98.3z"/>
		<path class="st2" d="M158.8,80.2v-0.8c0-0.9,0.4-1.2,0.7-1.4c-0.4-0.2-0.6-0.6-0.6-1.3v-0.4c0-1,0.5-1.6,1.5-1.6
			c0.9,0,1.4,0.5,1.4,1.6v0.4c0,0.9-0.3,1.2-0.6,1.4c0.4,0.2,0.7,0.6,0.7,1.4v0.8c0,1.2-0.5,1.8-1.5,1.8
			C159.3,81.9,158.8,81.4,158.8,80.2z M161,80.2v-0.9c0-0.7-0.2-1-0.7-1s-0.7,0.3-0.7,1v0.9c0,0.6,0.2,1,0.7,1
			C160.8,81.2,161,80.8,161,80.2z M159.6,76.1v0.6c0,0.5,0.2,0.9,0.7,0.9c0.4,0,0.7-0.3,0.7-0.9v-0.6c0-0.5-0.1-0.9-0.7-0.9
			C159.8,75.2,159.6,75.6,159.6,76.1z"/>
		<path class="st2" d="M165.6,74.6v0.6c-0.9,1.8-1.6,3.9-1.9,6.6H163c0.2-2.3,1-4.8,1.9-6.5h-2.1v-0.7H165.6z"/>
		<path class="st2" d="M165.5,81.8v-1.5h0.8v1.5H165.5z"/>
		<path class="st2" d="M170.2,75.3h-1.8c0,0.6-0.1,1.6-0.2,2.1c0.1-0.2,0.5-0.4,0.9-0.4c0.9,0,1.3,0.7,1.3,1.9v0.8
			c0,1.2-0.3,2.1-1.5,2.1c-1.1,0-1.5-0.8-1.5-1.7V80h0.8v0.2c0,0.5,0.2,1,0.7,1c0.6,0,0.7-0.5,0.7-1.3V79c0-0.8-0.1-1.2-0.7-1.2
			c-0.5,0-0.6,0.3-0.8,0.8l-0.7-0.1c0.1-1,0.2-3.1,0.3-3.8h2.5L170.2,75.3z"/>
		<path class="st2" d="M225.5,75.3h-1.8c0,0.6-0.1,1.6-0.2,2.1c0.1-0.2,0.5-0.4,0.9-0.4c0.9,0,1.3,0.7,1.3,1.9v0.8
			c0,1.2-0.3,2.1-1.5,2.1c-1.1,0-1.5-0.8-1.5-1.7V80h0.8v0.2c0,0.5,0.2,1,0.7,1c0.6,0,0.7-0.5,0.7-1.3V79c0-0.8-0.1-1.2-0.7-1.2
			c-0.5,0-0.6,0.3-0.8,0.8l-0.7-0.1c0.1-1,0.2-3.1,0.3-3.8h2.5L225.5,75.3z"/>
		<path class="st2" d="M229.9,76.4V80c0,1.2-0.5,1.8-1.5,1.8c-1,0-1.5-0.6-1.5-1.8v-3.6c0-1.3,0.6-1.9,1.5-1.9
			C229.3,74.6,229.9,75.1,229.9,76.4z M227.7,76.3v3.8c0,0.7,0.2,1.1,0.7,1.1c0.5,0,0.7-0.3,0.7-1.1v-3.7c0-0.8-0.3-1.1-0.7-1.1
			C228,75.3,227.7,75.5,227.7,76.3z"/>
		<path class="st2" d="M231.1,81.8v-1.5h0.8v1.5H231.1z"/>
		<path class="st2" d="M236,76.4V80c0,1.2-0.5,1.8-1.5,1.8c-1,0-1.5-0.6-1.5-1.8v-3.6c0-1.3,0.6-1.9,1.5-1.9
			C235.4,74.6,236,75.1,236,76.4z M233.8,76.3v3.8c0,0.7,0.2,1.1,0.7,1.1c0.5,0,0.7-0.3,0.7-1.1v-3.7c0-0.8-0.3-1.1-0.7-1.1
			C234.1,75.3,233.8,75.5,233.8,76.3z"/>
		<path class="st2" d="M288.9,81.8v-6.2c-0.2,0.1-0.6,0.2-0.8,0.2v-0.6c0.4-0.1,0.9-0.4,1-0.6h0.6v7.2H288.9z"/>
		<path class="st2" d="M290.9,81.8v-0.1c0-1.1,0.5-2,1.4-3.2c0.6-0.8,0.7-1.2,0.7-2c0-0.9-0.1-1.2-0.6-1.2c-0.5,0-0.7,0.4-0.7,1v0.3
			H291v-0.4c0-0.8,0.2-1.6,1.4-1.6c1.1,0,1.4,0.8,1.4,1.9c0,1.1-0.3,1.6-0.9,2.4c-0.7,1-1.1,1.7-1.1,2.3h2.2l-0.1,0.7H290.9z"/>
		<path class="st2" d="M295.1,81.8v-1.5h0.8v1.5H295.1z"/>
		<path class="st2" d="M299.8,75.3H298c0,0.6-0.1,1.6-0.2,2.1c0.1-0.2,0.5-0.4,0.9-0.4c0.9,0,1.3,0.7,1.3,1.9v0.8
			c0,1.2-0.3,2.1-1.5,2.1c-1.1,0-1.5-0.8-1.5-1.7V80h0.8v0.2c0,0.5,0.2,1,0.7,1c0.6,0,0.7-0.5,0.7-1.3V79c0-0.8-0.1-1.2-0.7-1.2
			c-0.5,0-0.6,0.3-0.8,0.8l-0.7-0.1c0.1-1,0.2-3.1,0.3-3.8h2.5L299.8,75.3z"/>
		<path class="st2" d="M352.5,81.8v-0.1c0-1.1,0.5-2,1.4-3.2c0.6-0.8,0.7-1.2,0.7-2c0-0.9-0.1-1.2-0.6-1.2c-0.5,0-0.7,0.4-0.7,1v0.3
			h-0.7v-0.4c0-0.8,0.2-1.6,1.4-1.6c1.1,0,1.4,0.8,1.4,1.9c0,1.1-0.3,1.6-0.9,2.4c-0.7,1-1.1,1.7-1.1,2.3h2.2l-0.1,0.7H352.5z"/>
		<path class="st2" d="M356.6,76.3v-0.2c0-0.7,0.2-1.6,1.4-1.6c1,0,1.4,0.6,1.4,1.6v0.3c0,0.8-0.3,1.2-0.7,1.4v0
			c0.5,0.2,0.8,0.6,0.8,1.5v0.6c0,1.1-0.3,1.9-1.5,1.9c-1.1,0-1.5-0.7-1.5-1.6v-0.2h0.7v0.2c0,0.5,0.2,1,0.8,1
			c0.6,0,0.8-0.4,0.8-1.2v-0.7c0-0.9-0.3-1.1-0.9-1.1h-0.3v-0.7h0.3c0.5,0,0.8-0.2,0.8-1v-0.4c0-0.5-0.1-1-0.6-1
			c-0.5,0-0.6,0.4-0.6,0.9v0.2H356.6z"/>
		<path class="st2" d="M360.6,81.8v-1.5h0.8v1.5H360.6z"/>
		<path class="st2" d="M364.3,81.8v-1.9h-2v-0.6l1.7-4.6h1v4.6h0.6l-0.1,0.7H365v1.9H364.3z M364.3,77.5c0-0.7,0-1.4,0-2h0
			c-0.4,1.2-0.8,2.5-1.3,3.8h1.3V77.5z"/>
		<path class="st2" d="M420.1,76.2L420.1,76.2c0-0.4-0.1-1-0.7-1c-0.6,0-0.7,0.4-0.7,1.3v1.1c0.2-0.3,0.4-0.6,1-0.6
			c0.9,0,1.2,0.7,1.2,1.6V80c0,1.1-0.3,1.9-1.5,1.9c-1.2,0-1.5-0.9-1.5-1.9v-3.4c0-1.2,0.3-2,1.5-2c1.2,0,1.4,0.8,1.4,1.6v0H420.1z
			 M420.2,80.1v-1.3c0-0.6-0.1-1-0.7-1c-0.6,0-0.8,0.5-0.8,1.2v1.1c0,0.6,0.1,1.1,0.7,1.1C419.9,81.2,420.2,80.9,420.2,80.1z"/>
		<path class="st2" d="M422.6,81.8v-6.2c-0.2,0.1-0.6,0.2-0.8,0.2v-0.6c0.4-0.1,0.8-0.4,1-0.6h0.6v7.2H422.6z"/>
		<path class="st2" d="M424.8,81.8v-1.5h0.8v1.5H424.8z"/>
		<path class="st2" d="M428.9,76.2L428.9,76.2c0-0.4-0.1-1-0.7-1c-0.6,0-0.7,0.4-0.7,1.3v1.1c0.2-0.3,0.4-0.6,1-0.6
			c0.9,0,1.2,0.7,1.2,1.6V80c0,1.1-0.3,1.9-1.5,1.9c-1.2,0-1.5-0.9-1.5-1.9v-3.4c0-1.2,0.3-2,1.5-2c1.2,0,1.4,0.8,1.4,1.6v0H428.9z
			 M428.9,80.1v-1.3c0-0.6-0.1-1-0.7-1c-0.6,0-0.8,0.5-0.8,1.2v1.1c0,0.6,0.1,1.1,0.7,1.1C428.7,81.2,428.9,80.9,428.9,80.1z"/>
		<path class="st2" d="M482.2,81.8v-0.1c0-1.1,0.5-2,1.4-3.2c0.6-0.8,0.7-1.2,0.7-2c0-0.9-0.1-1.2-0.6-1.2c-0.5,0-0.7,0.4-0.7,1v0.3
			h-0.7v-0.4c0-0.8,0.2-1.6,1.4-1.6c1.1,0,1.4,0.8,1.4,1.9c0,1.1-0.3,1.6-0.9,2.4c-0.7,1-1.1,1.7-1.2,2.3h2.2l-0.1,0.7H482.2z"/>
		<path class="st2" d="M486.1,81.8v-0.1c0-1.1,0.5-2,1.4-3.2c0.6-0.8,0.7-1.2,0.7-2c0-0.9-0.1-1.2-0.6-1.2c-0.5,0-0.7,0.4-0.7,1v0.3
			h-0.7v-0.4c0-0.8,0.2-1.6,1.4-1.6c1.1,0,1.4,0.8,1.4,1.9c0,1.1-0.3,1.6-0.9,2.4c-0.7,1-1.1,1.7-1.2,2.3h2.2l-0.1,0.7H486.1z"/>
		<path class="st2" d="M490.3,81.8v-1.5h0.8v1.5H490.3z"/>
		<path class="st2" d="M495.1,74.6v0.6c-0.9,1.8-1.6,3.9-1.9,6.6h-0.8c0.2-2.3,1-4.8,1.9-6.5h-2.1v-0.7H495.1z"/>
		<path class="st2" d="M548.2,81.8v-6.2c-0.2,0.1-0.6,0.2-0.8,0.2v-0.6c0.4-0.1,0.9-0.4,1-0.6h0.6v7.2H548.2z"/>
		<path class="st2" d="M551.1,80.2L551.1,80.2c0,0.7,0.2,1,0.6,1c0.5,0,0.7-0.3,0.7-1.5v-1.3c-0.2,0.3-0.4,0.5-0.9,0.5
			c-0.9,0-1.2-0.7-1.2-1.7v-1c0-1.1,0.5-1.7,1.5-1.7c0.9,0,1.5,0.6,1.5,1.8v3.2c0,1.4-0.1,2.4-1.5,2.4c-1.1,0-1.4-0.8-1.4-1.6v0
			H551.1z M551,76.2v1.1c0,0.5,0.1,1,0.7,1c0.6,0,0.7-0.5,0.7-1.3v-0.8c0-0.7-0.2-1-0.7-1C551.3,75.2,551,75.5,551,76.2z"/>
		<path class="st2" d="M554.3,81.8v-1.5h0.8v1.5H554.3z"/>
		<path class="st2" d="M557,80.2L557,80.2c0,0.7,0.2,1,0.6,1c0.5,0,0.7-0.3,0.7-1.5v-1.3c-0.2,0.3-0.4,0.5-0.9,0.5
			c-0.9,0-1.2-0.7-1.2-1.7v-1c0-1.1,0.5-1.7,1.5-1.7c0.9,0,1.5,0.6,1.5,1.8v3.2c0,1.4-0.1,2.4-1.5,2.4c-1.1,0-1.4-0.8-1.4-1.6v0H557
			z M556.9,76.2v1.1c0,0.5,0.1,1,0.7,1c0.6,0,0.7-0.5,0.7-1.3v-0.8c0-0.7-0.2-1-0.7-1C557.2,75.2,556.9,75.5,556.9,76.2z"/>
		<path class="st2" d="M614.3,81.8v-1.9h-2v-0.6l1.7-4.6h1v4.6h0.6l-0.1,0.7h-0.5v1.9H614.3z M614.3,77.5c0-0.7,0-1.4,0-2h0
			c-0.4,1.2-0.8,2.5-1.3,3.8h1.3V77.5z"/>
		<path class="st2" d="M616.4,81.8v-0.1c0-1.1,0.5-2,1.4-3.2c0.6-0.8,0.7-1.2,0.7-2c0-0.9-0.1-1.2-0.6-1.2c-0.5,0-0.7,0.4-0.7,1v0.3
			h-0.7v-0.4c0-0.8,0.2-1.6,1.4-1.6c1.1,0,1.4,0.8,1.4,1.9c0,1.1-0.3,1.6-0.9,2.4c-0.7,1-1.1,1.7-1.2,2.3h2.2l-0.1,0.7H616.4z"/>
		<path class="st2" d="M620.6,81.8v-1.5h0.8v1.5H620.6z"/>
		<path class="st2" d="M622.8,81.8v-6.2c-0.2,0.1-0.6,0.2-0.8,0.2v-0.6c0.4-0.1,0.9-0.4,1-0.6h0.6v7.2H622.8z"/>
		<path class="st2" d="M682,74.6v0.6c-0.9,1.8-1.6,3.9-1.9,6.6h-0.8c0.2-2.3,1-4.8,1.9-6.5h-2.1v-0.7H682z"/>
		<path class="st2" d="M681.9,81.8v-1.5h0.8v1.5H681.9z"/>
		<path class="st2" d="M685.5,81.8v-1.9h-2v-0.6l1.7-4.6h1v4.6h0.6l-0.1,0.7h-0.5v1.9H685.5z M685.5,77.5c0-0.7,0-1.4,0-2h0
			c-0.4,1.2-0.8,2.5-1.3,3.8h1.3V77.5z"/>
		<path class="st2" d="M746.3,76.4V80c0,1.2-0.5,1.8-1.5,1.8c-1,0-1.5-0.6-1.5-1.8v-3.6c0-1.3,0.6-1.9,1.5-1.9
			C745.7,74.6,746.3,75.1,746.3,76.4z M744,76.3v3.8c0,0.7,0.2,1.1,0.7,1.1c0.5,0,0.7-0.3,0.7-1.1v-3.7c0-0.8-0.3-1.1-0.7-1.1
			C744.3,75.3,744,75.5,744,76.3z"/>
		<path class="st2" d="M747.4,81.8v-1.5h0.8v1.5H747.4z"/>
		<path class="st2" d="M752.1,75.3h-1.8c0,0.6-0.1,1.6-0.2,2.1c0.1-0.2,0.5-0.4,0.9-0.4c0.9,0,1.3,0.7,1.3,1.9v0.8
			c0,1.2-0.3,2.1-1.5,2.1c-1.1,0-1.5-0.8-1.5-1.7V80h0.8v0.2c0,0.5,0.2,1,0.7,1c0.6,0,0.7-0.5,0.7-1.3V79c0-0.8-0.1-1.2-0.7-1.2
			c-0.5,0-0.6,0.3-0.8,0.8l-0.7-0.1c0.1-1,0.2-3.1,0.3-3.8h2.5L752.1,75.3z"/>
		<path class="st2" d="M100.2,95.3v-1.9h-2v-0.6l1.7-4.6h1v4.6h0.6l-0.1,0.7h-0.5v1.9H100.2z M100.2,91c0-0.7,0-1.4,0-2h0
			c-0.4,1.2-0.8,2.5-1.3,3.8h1.3V91z"/>
		<path class="st2" d="M159.1,93.7L159.1,93.7c0,0.7,0.2,1,0.6,1c0.5,0,0.7-0.3,0.7-1.5v-1.3c-0.2,0.3-0.4,0.5-0.9,0.5
			c-0.9,0-1.2-0.7-1.2-1.7v-1c0-1.1,0.5-1.7,1.5-1.7c0.9,0,1.5,0.6,1.5,1.8V93c0,1.4-0.1,2.4-1.5,2.4c-1.1,0-1.4-0.8-1.4-1.6v0
			H159.1z M159,89.7v1.1c0,0.5,0.1,1,0.7,1c0.6,0,0.7-0.5,0.7-1.3v-0.8c0-0.7-0.2-1-0.7-1C159.2,88.7,159,89,159,89.7z"/>
		<path class="st2" d="M162.3,89.8v-0.2c0-0.7,0.2-1.6,1.4-1.6c1,0,1.4,0.6,1.4,1.6V90c0,0.8-0.3,1.2-0.7,1.4v0
			c0.5,0.2,0.8,0.6,0.8,1.5v0.6c0,1.1-0.3,1.9-1.5,1.9c-1.1,0-1.5-0.7-1.5-1.6v-0.2h0.7v0.2c0,0.5,0.2,1,0.8,1
			c0.6,0,0.8-0.4,0.8-1.2v-0.7c0-0.9-0.3-1.1-0.9-1.1h-0.3V91h0.3c0.5,0,0.8-0.2,0.8-1v-0.4c0-0.5-0.1-1-0.6-1
			c-0.5,0-0.6,0.4-0.6,0.9v0.2H162.3z"/>
		<path class="st2" d="M166.4,95.3v-1.5h0.8v1.5H166.4z"/>
		<path class="st2" d="M171.2,88.1v0.6c-0.9,1.8-1.6,3.9-1.9,6.6h-0.8c0.2-2.3,1-4.8,1.9-6.5h-2.1v-0.7H171.2z"/>
		<path class="st2" d="M225.2,89.7L225.2,89.7c0-0.4-0.1-1-0.6-1c-0.6,0-0.7,0.4-0.7,1.3v1.1c0.2-0.3,0.4-0.6,1-0.6
			c0.9,0,1.2,0.7,1.2,1.6v1.3c0,1.1-0.3,1.9-1.5,1.9c-1.2,0-1.5-0.9-1.5-1.9v-3.4c0-1.2,0.3-2,1.5-2c1.2,0,1.4,0.8,1.4,1.6v0H225.2z
			 M225.2,93.6v-1.3c0-0.6-0.1-1-0.7-1c-0.6,0-0.8,0.5-0.8,1.2v1.1c0,0.6,0.1,1.1,0.7,1.1C225,94.7,225.2,94.4,225.2,93.6z"/>
		<path class="st2" d="M227.1,93.7v-0.8c0-0.9,0.4-1.2,0.7-1.4c-0.4-0.2-0.6-0.6-0.6-1.3v-0.4c0-1,0.5-1.6,1.5-1.6
			c0.9,0,1.4,0.5,1.4,1.6v0.4c0,0.9-0.3,1.2-0.6,1.4c0.4,0.2,0.7,0.6,0.7,1.4v0.8c0,1.2-0.5,1.8-1.5,1.8
			C227.7,95.4,227.1,94.9,227.1,93.7z M229.3,93.7v-0.9c0-0.7-0.2-1-0.7-1s-0.7,0.3-0.7,1v0.9c0,0.6,0.2,1,0.7,1
			C229.2,94.7,229.3,94.3,229.3,93.7z M227.9,89.6v0.6c0,0.5,0.2,0.9,0.7,0.9c0.4,0,0.7-0.3,0.7-0.9v-0.6c0-0.5-0.1-0.9-0.7-0.9
			C228.1,88.7,227.9,89.1,227.9,89.6z"/>
		<path class="st2" d="M231.2,95.3v-1.5h0.8v1.5H231.2z"/>
		<path class="st2" d="M236.1,88.1v0.6c-0.9,1.8-1.6,3.9-1.9,6.6h-0.8c0.2-2.3,1-4.8,1.9-6.5h-2.1v-0.7H236.1z"/>
		<path class="st2" d="M288.4,89.8v-0.2c0-0.7,0.2-1.6,1.4-1.6c1,0,1.4,0.6,1.4,1.6V90c0,0.8-0.3,1.2-0.7,1.4v0
			c0.5,0.2,0.8,0.6,0.8,1.5v0.6c0,1.1-0.3,1.9-1.5,1.9c-1.1,0-1.5-0.7-1.5-1.6v-0.2h0.7v0.2c0,0.5,0.2,1,0.8,1
			c0.6,0,0.8-0.4,0.8-1.2v-0.7c0-0.9-0.3-1.1-0.9-1.1h-0.3V91h0.3c0.5,0,0.8-0.2,0.8-1v-0.4c0-0.5-0.1-1-0.6-1
			c-0.5,0-0.6,0.4-0.6,0.9v0.2H288.4z"/>
		<path class="st2" d="M292.9,95.3v-6.2c-0.2,0.1-0.6,0.2-0.8,0.2v-0.6c0.4-0.1,0.9-0.4,1-0.6h0.6v7.2H292.9z"/>
		<path class="st2" d="M295.1,95.3v-1.5h0.8v1.5H295.1z"/>
		<path class="st2" d="M297.1,89.8v-0.2c0-0.7,0.2-1.6,1.4-1.6c1,0,1.4,0.6,1.4,1.6V90c0,0.8-0.3,1.2-0.7,1.4v0
			c0.5,0.2,0.8,0.6,0.8,1.5v0.6c0,1.1-0.3,1.9-1.5,1.9c-1.1,0-1.5-0.7-1.5-1.6v-0.2h0.7v0.2c0,0.5,0.2,1,0.8,1
			c0.6,0,0.8-0.4,0.8-1.2v-0.7c0-0.9-0.3-1.1-0.9-1.1H298V91h0.3c0.5,0,0.8-0.2,0.8-1v-0.4c0-0.5-0.1-1-0.6-1
			c-0.5,0-0.6,0.4-0.6,0.9v0.2H297.1z"/>
		<path class="st2" d="M355.4,88.8h-1.8c0,0.6-0.1,1.6-0.2,2.1c0.1-0.2,0.5-0.4,0.9-0.4c0.9,0,1.3,0.7,1.3,1.9v0.8
			c0,1.2-0.3,2.1-1.5,2.1c-1.1,0-1.5-0.8-1.5-1.7v-0.1h0.8v0.2c0,0.5,0.2,1,0.7,1c0.6,0,0.7-0.5,0.7-1.3v-0.9c0-0.8-0.1-1.2-0.7-1.2
			c-0.5,0-0.6,0.3-0.8,0.8l-0.7-0.1c0.1-1,0.2-3.1,0.3-3.8h2.5L355.4,88.8z"/>
		<path class="st2" d="M356.6,95.3v-0.1c0-1.1,0.5-2,1.4-3.2c0.6-0.8,0.7-1.2,0.7-2c0-0.9-0.1-1.2-0.6-1.2c-0.5,0-0.7,0.4-0.7,1v0.3
			h-0.7v-0.4c0-0.8,0.2-1.6,1.4-1.6c1.1,0,1.4,0.8,1.4,1.9c0,1.1-0.3,1.6-0.9,2.4c-0.7,1-1.1,1.7-1.1,2.3h2.2l-0.1,0.7H356.6z"/>
		<path class="st2" d="M360.8,95.3v-1.5h0.8v1.5H360.8z"/>
		<path class="st2" d="M365.6,88.1v0.6c-0.9,1.8-1.6,3.9-1.9,6.6h-0.8c0.2-2.3,1-4.8,1.9-6.5h-2.1v-0.7H365.6z"/>
		<path class="st2" d="M420.2,88.1v0.6c-0.9,1.8-1.6,3.9-1.9,6.6h-0.8c0.2-2.3,1-4.8,1.9-6.5h-2.1v-0.7H420.2z"/>
		<path class="st2" d="M423.8,88.8h-1.8c0,0.6-0.1,1.6-0.2,2.1c0.1-0.2,0.5-0.4,0.9-0.4c0.9,0,1.3,0.7,1.3,1.9v0.8
			c0,1.2-0.3,2.1-1.5,2.1c-1.1,0-1.5-0.8-1.5-1.7v-0.1h0.8v0.2c0,0.5,0.2,1,0.7,1c0.6,0,0.7-0.5,0.7-1.3v-0.9c0-0.8-0.1-1.2-0.7-1.2
			c-0.5,0-0.6,0.3-0.8,0.8l-0.7-0.1c0.1-1,0.2-3.1,0.3-3.8h2.5L423.8,88.8z"/>
		<path class="st2" d="M425.2,95.3v-1.5h0.8v1.5H425.2z"/>
		<path class="st2" d="M427,95.3v-0.1c0-1.1,0.5-2,1.4-3.2c0.6-0.8,0.7-1.2,0.7-2c0-0.9-0.1-1.2-0.6-1.2c-0.5,0-0.7,0.4-0.7,1v0.3
			h-0.7v-0.4c0-0.8,0.2-1.6,1.4-1.6c1.1,0,1.4,0.8,1.4,1.9c0,1.1-0.3,1.6-0.9,2.4c-0.7,1-1.1,1.7-1.2,2.3h2.2l-0.1,0.7H427z"/>
		<path class="st2" d="M482.1,89.8v-0.2c0-0.7,0.2-1.6,1.4-1.6c1,0,1.4,0.6,1.4,1.6V90c0,0.8-0.3,1.2-0.7,1.4v0
			c0.5,0.2,0.8,0.6,0.8,1.5v0.6c0,1.1-0.3,1.9-1.5,1.9c-1.1,0-1.5-0.7-1.5-1.6v-0.2h0.7v0.2c0,0.5,0.2,1,0.8,1
			c0.6,0,0.8-0.4,0.8-1.2v-0.7c0-0.9-0.3-1.1-0.9-1.1H483V91h0.3c0.5,0,0.8-0.2,0.8-1v-0.4c0-0.5-0.1-1-0.6-1
			c-0.5,0-0.6,0.4-0.6,0.9v0.2H482.1z"/>
		<path class="st2" d="M486.1,93.7v-0.8c0-0.9,0.4-1.2,0.7-1.4c-0.4-0.2-0.6-0.6-0.6-1.3v-0.4c0-1,0.5-1.6,1.5-1.6
			c0.9,0,1.4,0.5,1.4,1.6v0.4c0,0.9-0.3,1.2-0.6,1.4c0.4,0.2,0.7,0.6,0.7,1.4v0.8c0,1.2-0.5,1.8-1.5,1.8
			C486.7,95.4,486.1,94.9,486.1,93.7z M488.4,93.7v-0.9c0-0.7-0.2-1-0.7-1c-0.5,0-0.7,0.3-0.7,1v0.9c0,0.6,0.2,1,0.7,1
			C488.2,94.7,488.4,94.3,488.4,93.7z M487,89.6v0.6c0,0.5,0.2,0.9,0.7,0.9c0.4,0,0.7-0.3,0.7-0.9v-0.6c0-0.5-0.1-0.9-0.7-0.9
			C487.2,88.7,487,89.1,487,89.6z"/>
		<path class="st2" d="M490.3,95.3v-1.5h0.8v1.5H490.3z"/>
		<path class="st2" d="M492.1,95.3v-0.1c0-1.1,0.5-2,1.4-3.2c0.6-0.8,0.7-1.2,0.7-2c0-0.9-0.1-1.2-0.6-1.2c-0.5,0-0.7,0.4-0.7,1v0.3
			h-0.7v-0.4c0-0.8,0.2-1.6,1.4-1.6c1.1,0,1.4,0.8,1.4,1.9c0,1.1-0.3,1.6-0.9,2.4c-0.7,1-1.1,1.7-1.2,2.3h2.2l-0.1,0.7H492.1z"/>
		<path class="st2" d="M550,89.8v-0.2c0-0.7,0.2-1.6,1.4-1.6c1,0,1.4,0.6,1.4,1.6V90c0,0.8-0.3,1.2-0.7,1.4v0
			c0.5,0.2,0.8,0.6,0.8,1.5v0.6c0,1.1-0.3,1.9-1.5,1.9c-1.1,0-1.5-0.7-1.5-1.6v-0.2h0.7v0.2c0,0.5,0.2,1,0.8,1s0.8-0.4,0.8-1.2v-0.7
			c0-0.9-0.3-1.1-0.9-1.1h-0.3V91h0.3c0.5,0,0.8-0.2,0.8-1v-0.4c0-0.5-0.1-1-0.6-1c-0.5,0-0.6,0.4-0.6,0.9v0.2H550z"/>
		<path class="st2" d="M553.8,95.3v-0.1c0-1.1,0.5-2,1.4-3.2c0.6-0.8,0.7-1.2,0.7-2c0-0.9-0.1-1.2-0.6-1.2c-0.5,0-0.7,0.4-0.7,1v0.3
			h-0.7v-0.4c0-0.8,0.2-1.6,1.4-1.6c1.1,0,1.4,0.8,1.4,1.9c0,1.1-0.3,1.6-0.9,2.4c-0.7,1-1.1,1.7-1.2,2.3h2.2l-0.1,0.7H553.8z"/>
		<path class="st2" d="M615.2,88.8h-1.8c0,0.6-0.1,1.6-0.2,2.1c0.1-0.2,0.5-0.4,0.9-0.4c0.9,0,1.3,0.7,1.3,1.9v0.8
			c0,1.2-0.3,2.1-1.5,2.1c-1.1,0-1.5-0.8-1.5-1.7v-0.1h0.8v0.2c0,0.5,0.2,1,0.7,1c0.6,0,0.7-0.5,0.7-1.3v-0.9c0-0.8-0.1-1.2-0.7-1.2
			c-0.5,0-0.6,0.3-0.8,0.8l-0.7-0.1c0.1-1,0.2-3.1,0.3-3.8h2.5L615.2,88.8z"/>
		<path class="st2" d="M617,95.3v-6.2c-0.2,0.1-0.6,0.2-0.8,0.2v-0.6c0.4-0.1,0.9-0.4,1-0.6h0.6v7.2H617z"/>
		<path class="st2" d="M619.1,95.3v-1.5h0.8v1.5H619.1z"/>
		<path class="st2" d="M621,93.7v-0.8c0-0.9,0.4-1.2,0.7-1.4c-0.4-0.2-0.6-0.6-0.6-1.3v-0.4c0-1,0.5-1.6,1.5-1.6
			c0.9,0,1.4,0.5,1.4,1.6v0.4c0,0.9-0.3,1.2-0.6,1.4c0.4,0.2,0.7,0.6,0.7,1.4v0.8c0,1.2-0.5,1.8-1.5,1.8
			C621.6,95.4,621,94.9,621,93.7z M623.3,93.7v-0.9c0-0.7-0.2-1-0.7-1c-0.5,0-0.7,0.3-0.7,1v0.9c0,0.6,0.2,1,0.7,1
			C623.1,94.7,623.3,94.3,623.3,93.7z M621.8,89.6v0.6c0,0.5,0.2,0.9,0.7,0.9c0.4,0,0.7-0.3,0.7-0.9v-0.6c0-0.5-0.1-0.9-0.7-0.9
			C622,88.7,621.8,89.1,621.8,89.6z"/>
		<path class="st2" d="M677.8,95.3v-6.2c-0.2,0.1-0.6,0.2-0.8,0.2v-0.6c0.4-0.1,0.9-0.4,1-0.6h0.6v7.2H677.8z"/>
		<path class="st2" d="M679.9,89.8v-0.2c0-0.7,0.2-1.6,1.4-1.6c1,0,1.4,0.6,1.4,1.6V90c0,0.8-0.3,1.2-0.7,1.4v0
			c0.5,0.2,0.8,0.6,0.8,1.5v0.6c0,1.1-0.3,1.9-1.5,1.9c-1.1,0-1.5-0.7-1.5-1.6v-0.2h0.7v0.2c0,0.5,0.2,1,0.8,1s0.8-0.4,0.8-1.2v-0.7
			c0-0.9-0.3-1.1-0.9-1.1h-0.3V91h0.3c0.5,0,0.8-0.2,0.8-1v-0.4c0-0.5-0.1-1-0.6-1c-0.5,0-0.6,0.4-0.6,0.9v0.2H679.9z"/>
		<path class="st2" d="M683.9,95.3v-1.5h0.8v1.5H683.9z"/>
		<path class="st2" d="M685.8,95.3v-0.1c0-1.1,0.5-2,1.4-3.2c0.6-0.8,0.7-1.2,0.7-2c0-0.9-0.1-1.2-0.6-1.2c-0.5,0-0.7,0.4-0.7,1v0.3
			h-0.7v-0.4c0-0.8,0.2-1.6,1.4-1.6c1.1,0,1.4,0.8,1.4,1.9c0,1.1-0.3,1.6-0.9,2.4c-0.7,1-1.1,1.7-1.2,2.3h2.2l-0.1,0.7H685.8z"/>
		<path class="st2" d="M744.5,95.3v-6.2c-0.2,0.1-0.6,0.2-0.8,0.2v-0.6c0.4-0.1,0.9-0.4,1-0.6h0.6v7.2H744.5z"/>
		<path class="st2" d="M746.7,95.3v-1.5h0.8v1.5H746.7z"/>
		<path class="st2" d="M750.8,89.7L750.8,89.7c0-0.4-0.1-1-0.6-1c-0.6,0-0.7,0.4-0.7,1.3v1.1c0.2-0.3,0.4-0.6,1-0.6
			c0.9,0,1.2,0.7,1.2,1.6v1.3c0,1.1-0.3,1.9-1.5,1.9c-1.2,0-1.5-0.9-1.5-1.9v-3.4c0-1.2,0.3-2,1.5-2c1.2,0,1.4,0.8,1.4,1.6v0H750.8z
			 M750.8,93.6v-1.3c0-0.6-0.1-1-0.7-1c-0.6,0-0.8,0.5-0.8,1.2v1.1c0,0.6,0.1,1.1,0.7,1.1C750.6,94.7,750.8,94.4,750.8,93.6z"/>
		<path class="st2" d="M101.1,102.3h-1.8c0,0.6-0.1,1.6-0.2,2.1c0.1-0.2,0.5-0.4,0.9-0.4c0.9,0,1.3,0.7,1.3,1.9v0.8
			c0,1.2-0.3,2.1-1.5,2.1c-1.1,0-1.5-0.8-1.5-1.7V107H99v0.2c0,0.5,0.2,1,0.7,1c0.6,0,0.7-0.5,0.7-1.3V106c0-0.8-0.1-1.2-0.7-1.2
			c-0.5,0-0.6,0.3-0.8,0.8l-0.7-0.1c0.1-1,0.2-3.1,0.3-3.8h2.5L101.1,102.3z"/>
		<path class="st2" d="M158.9,107.2L158.9,107.2c0,0.7,0.2,1,0.6,1c0.5,0,0.7-0.3,0.7-1.5v-1.3c-0.2,0.3-0.4,0.5-0.9,0.5
			c-0.9,0-1.2-0.7-1.2-1.7v-1c0-1.1,0.5-1.7,1.5-1.7c0.9,0,1.5,0.6,1.5,1.8v3.2c0,1.4-0.1,2.4-1.5,2.4c-1.1,0-1.4-0.8-1.4-1.6v0
			H158.9z M158.8,103.2v1.1c0,0.5,0.1,1,0.7,1c0.6,0,0.7-0.5,0.7-1.3v-0.8c0-0.7-0.2-1-0.7-1C159.1,102.2,158.8,102.5,158.8,103.2z"
			/>
		<path class="st2" d="M164.3,103.2L164.3,103.2c0-0.4-0.1-1-0.6-1c-0.6,0-0.7,0.4-0.7,1.3v1.1c0.2-0.3,0.4-0.6,1-0.6
			c0.9,0,1.2,0.7,1.2,1.6v1.3c0,1.1-0.3,1.9-1.5,1.9c-1.2,0-1.5-0.9-1.5-1.9v-3.4c0-1.2,0.3-2,1.5-2c1.2,0,1.4,0.8,1.4,1.6v0H164.3z
			 M164.4,107.1v-1.3c0-0.6-0.1-1-0.7-1c-0.6,0-0.8,0.5-0.8,1.2v1.1c0,0.6,0.1,1.1,0.7,1.1C164.2,108.2,164.4,107.9,164.4,107.1z"/>
		<path class="st2" d="M166.2,108.8v-1.5h0.8v1.5H166.2z"/>
		<path class="st2" d="M169,107.2L169,107.2c0,0.7,0.2,1,0.6,1c0.5,0,0.7-0.3,0.7-1.5v-1.3c-0.2,0.3-0.4,0.5-0.9,0.5
			c-0.9,0-1.2-0.7-1.2-1.7v-1c0-1.1,0.5-1.7,1.5-1.7c0.9,0,1.5,0.6,1.5,1.8v3.2c0,1.4-0.1,2.4-1.5,2.4c-1.1,0-1.4-0.8-1.4-1.6v0H169
			z M168.9,103.2v1.1c0,0.5,0.1,1,0.7,1c0.6,0,0.7-0.5,0.7-1.3v-0.8c0-0.7-0.2-1-0.7-1C169.1,102.2,168.9,102.5,168.9,103.2z"/>
		<path class="st2" d="M223.6,107.2v-0.8c0-0.9,0.4-1.2,0.7-1.4c-0.4-0.2-0.6-0.6-0.6-1.3v-0.4c0-1,0.5-1.6,1.5-1.6
			c0.9,0,1.4,0.5,1.4,1.6v0.4c0,0.9-0.3,1.2-0.6,1.4c0.4,0.2,0.7,0.6,0.7,1.4v0.8c0,1.2-0.5,1.8-1.5,1.8
			C224.1,108.9,223.6,108.4,223.6,107.2z M225.8,107.2v-0.9c0-0.7-0.2-1-0.7-1s-0.7,0.3-0.7,1v0.9c0,0.6,0.2,1,0.7,1
			C225.6,108.2,225.8,107.8,225.8,107.2z M224.4,103.1v0.6c0,0.5,0.2,0.9,0.7,0.9c0.4,0,0.7-0.3,0.7-0.9v-0.6c0-0.5-0.1-0.9-0.7-0.9
			C224.6,102.2,224.4,102.6,224.4,103.1z"/>
		<path class="st2" d="M228.3,108.8v-6.2c-0.2,0.1-0.6,0.2-0.8,0.2v-0.6c0.4-0.1,0.9-0.4,1-0.6h0.6v7.2H228.3z"/>
		<path class="st2" d="M230.4,108.8v-1.5h0.8v1.5H230.4z"/>
		<path class="st2" d="M232.2,108.8v-0.1c0-1.1,0.5-2,1.4-3.2c0.6-0.8,0.7-1.2,0.7-2c0-0.9-0.1-1.2-0.6-1.2c-0.5,0-0.7,0.4-0.7,1
			v0.3h-0.7v-0.4c0-0.8,0.2-1.6,1.4-1.6c1.1,0,1.4,0.8,1.4,1.9c0,1.1-0.3,1.6-0.9,2.4c-0.7,1-1.1,1.7-1.2,2.3h2.2l-0.1,0.7H232.2z"
			/>
		<path class="st2" d="M290.3,102.3h-1.8c0,0.6-0.1,1.6-0.2,2.1c0.1-0.2,0.5-0.4,0.9-0.4c0.9,0,1.3,0.7,1.3,1.9v0.8
			c0,1.2-0.3,2.1-1.5,2.1c-1.1,0-1.5-0.8-1.5-1.7V107h0.8v0.2c0,0.5,0.2,1,0.7,1c0.6,0,0.7-0.5,0.7-1.3V106c0-0.8-0.1-1.2-0.7-1.2
			c-0.5,0-0.6,0.3-0.8,0.8l-0.7-0.1c0.1-1,0.2-3.1,0.3-3.8h2.5L290.3,102.3z"/>
		<path class="st2" d="M294.7,103.4v3.7c0,1.2-0.5,1.8-1.5,1.8c-1,0-1.5-0.6-1.5-1.8v-3.6c0-1.3,0.6-1.9,1.5-1.9
			C294.1,101.6,294.7,102.1,294.7,103.4z M292.5,103.3v3.8c0,0.7,0.2,1.1,0.7,1.1c0.5,0,0.7-0.3,0.7-1.1v-3.7c0-0.8-0.3-1.1-0.7-1.1
			C292.8,102.3,292.5,102.5,292.5,103.3z"/>
		<path class="st2" d="M295.9,108.8v-1.5h0.8v1.5H295.9z"/>
		<path class="st2" d="M300.8,103.4v3.7c0,1.2-0.5,1.8-1.5,1.8c-1,0-1.5-0.6-1.5-1.8v-3.6c0-1.3,0.6-1.9,1.5-1.9
			C300.2,101.6,300.8,102.1,300.8,103.4z M298.6,103.3v3.8c0,0.7,0.2,1.1,0.7,1.1c0.5,0,0.7-0.3,0.7-1.1v-3.7c0-0.8-0.3-1.1-0.7-1.1
			C298.9,102.3,298.6,102.5,298.6,103.3z"/>
		<path class="st2" d="M355.4,101.6v0.6c-0.9,1.8-1.6,3.9-1.9,6.6h-0.8c0.2-2.3,1-4.8,1.9-6.5h-2.1v-0.7H355.4z"/>
		<path class="st2" d="M359,102.3h-1.8c0,0.6-0.1,1.6-0.2,2.1c0.1-0.2,0.5-0.4,0.9-0.4c0.9,0,1.3,0.7,1.3,1.9v0.8
			c0,1.2-0.3,2.1-1.5,2.1c-1.1,0-1.5-0.8-1.5-1.7V107h0.8v0.2c0,0.5,0.2,1,0.7,1c0.6,0,0.7-0.5,0.7-1.3V106c0-0.8-0.1-1.2-0.7-1.2
			c-0.5,0-0.6,0.3-0.8,0.8l-0.7-0.1c0.1-1,0.2-3.1,0.3-3.8h2.5L359,102.3z"/>
		<path class="st2" d="M360.3,108.8v-1.5h0.8v1.5H360.3z"/>
		<path class="st2" d="M365.2,103.4v3.7c0,1.2-0.5,1.8-1.5,1.8c-1,0-1.5-0.6-1.5-1.8v-3.6c0-1.3,0.6-1.9,1.5-1.9
			C364.6,101.6,365.2,102.1,365.2,103.4z M363,103.3v3.8c0,0.7,0.2,1.1,0.7,1.1c0.5,0,0.7-0.3,0.7-1.1v-3.7c0-0.8-0.3-1.1-0.7-1.1
			C363.3,102.3,363,102.5,363,103.3z"/>
		<path class="st2" d="M418,107.2v-0.8c0-0.9,0.4-1.2,0.7-1.4c-0.4-0.2-0.6-0.6-0.6-1.3v-0.4c0-1,0.5-1.6,1.5-1.6
			c0.9,0,1.4,0.5,1.4,1.6v0.4c0,0.9-0.3,1.2-0.6,1.4c0.4,0.2,0.7,0.6,0.7,1.4v0.8c0,1.2-0.5,1.8-1.5,1.8
			C418.6,108.9,418,108.4,418,107.2z M420.3,107.2v-0.9c0-0.7-0.2-1-0.7-1c-0.5,0-0.7,0.3-0.7,1v0.9c0,0.6,0.2,1,0.7,1
			C420.1,108.2,420.3,107.8,420.3,107.2z M418.9,103.1v0.6c0,0.5,0.2,0.9,0.7,0.9c0.4,0,0.7-0.3,0.7-0.9v-0.6c0-0.5-0.1-0.9-0.7-0.9
			C419,102.2,418.9,102.6,418.9,103.1z"/>
		<path class="st2" d="M424.1,108.8v-1.9h-2v-0.6l1.7-4.6h1v4.6h0.6l-0.1,0.7h-0.5v1.9H424.1z M424.1,104.5c0-0.7,0-1.4,0-2h0
			c-0.4,1.2-0.8,2.5-1.3,3.8h1.3V104.5z"/>
		<path class="st2" d="M426.2,108.8v-1.5h0.8v1.5H426.2z"/>
		<path class="st2" d="M428.5,108.8v-6.2c-0.2,0.1-0.6,0.2-0.8,0.2v-0.6c0.4-0.1,0.8-0.4,1-0.6h0.6v7.2H428.5z"/>
		<path class="st2" d="M484.9,102.3h-1.8c0,0.6-0.1,1.6-0.2,2.1c0.1-0.2,0.5-0.4,0.9-0.4c0.9,0,1.3,0.7,1.3,1.9v0.8
			c0,1.2-0.3,2.1-1.5,2.1c-1.1,0-1.5-0.8-1.5-1.7V107h0.8v0.2c0,0.5,0.2,1,0.7,1c0.6,0,0.7-0.5,0.7-1.3V106c0-0.8-0.1-1.2-0.7-1.2
			c-0.5,0-0.6,0.3-0.8,0.8l-0.7-0.1c0.1-1,0.2-3.1,0.3-3.8h2.5L484.9,102.3z"/>
		<path class="st2" d="M486.1,108.8v-0.1c0-1.1,0.5-2,1.4-3.2c0.6-0.8,0.7-1.2,0.7-2c0-0.9-0.1-1.2-0.6-1.2c-0.5,0-0.7,0.4-0.7,1
			v0.3h-0.7v-0.4c0-0.8,0.2-1.6,1.4-1.6c1.1,0,1.4,0.8,1.4,1.9c0,1.1-0.3,1.6-0.9,2.4c-0.7,1-1.1,1.7-1.2,2.3h2.2l-0.1,0.7H486.1z"
			/>
		<path class="st2" d="M490.2,108.8v-1.5h0.8v1.5H490.2z"/>
		<path class="st2" d="M492.1,108.8v-0.1c0-1.1,0.5-2,1.4-3.2c0.6-0.8,0.7-1.2,0.7-2c0-0.9-0.1-1.2-0.6-1.2c-0.5,0-0.7,0.4-0.7,1
			v0.3h-0.7v-0.4c0-0.8,0.2-1.6,1.4-1.6c1.1,0,1.4,0.8,1.4,1.9c0,1.1-0.3,1.6-0.9,2.4c-0.7,1-1.1,1.7-1.2,2.3h2.2l-0.1,0.7H492.1z"
			/>
		<path class="st2" d="M548.8,108.8v-1.9h-2v-0.6l1.7-4.6h1v4.6h0.6l-0.1,0.7h-0.5v1.9H548.8z M548.8,104.5c0-0.7,0-1.4,0-2h0
			c-0.4,1.2-0.8,2.5-1.3,3.8h1.3V104.5z"/>
		<path class="st2" d="M551.1,103.3v-0.2c0-0.7,0.2-1.6,1.4-1.6c1,0,1.4,0.6,1.4,1.6v0.3c0,0.8-0.3,1.2-0.7,1.4v0
			c0.5,0.2,0.8,0.6,0.8,1.5v0.6c0,1.1-0.3,1.9-1.5,1.9c-1.1,0-1.5-0.7-1.5-1.6v-0.2h0.7v0.2c0,0.5,0.2,1,0.8,1s0.8-0.4,0.8-1.2v-0.7
			c0-0.9-0.3-1.1-0.9-1.1H552v-0.7h0.3c0.5,0,0.8-0.2,0.8-1v-0.4c0-0.5-0.1-1-0.6-1c-0.5,0-0.6,0.4-0.6,0.9v0.2H551.1z"/>
		<path class="st2" d="M555.1,108.8v-1.5h0.8v1.5H555.1z"/>
		<path class="st2" d="M558.8,108.8v-1.9h-2v-0.6l1.7-4.6h1v4.6h0.6l-0.1,0.7h-0.5v1.9H558.8z M558.8,104.5c0-0.7,0-1.4,0-2h0
			c-0.4,1.2-0.8,2.5-1.3,3.8h1.3V104.5z"/>
		<path class="st2" d="M614.5,102.3h-1.8c0,0.6-0.1,1.6-0.2,2.1c0.1-0.2,0.5-0.4,0.9-0.4c0.9,0,1.3,0.7,1.3,1.9v0.8
			c0,1.2-0.3,2.1-1.5,2.1c-1.1,0-1.5-0.8-1.5-1.7V107h0.8v0.2c0,0.5,0.2,1,0.7,1c0.6,0,0.7-0.5,0.7-1.3V106c0-0.8-0.1-1.2-0.7-1.2
			c-0.5,0-0.6,0.3-0.8,0.8l-0.7-0.1c0.1-1,0.2-3.1,0.3-3.8h2.5L614.5,102.3z"/>
		<path class="st2" d="M616.6,107.2L616.6,107.2c0,0.7,0.2,1,0.6,1c0.5,0,0.7-0.3,0.7-1.5v-1.3c-0.2,0.3-0.4,0.5-0.9,0.5
			c-0.9,0-1.2-0.7-1.2-1.7v-1c0-1.1,0.5-1.7,1.5-1.7c0.9,0,1.5,0.6,1.5,1.8v3.2c0,1.4-0.1,2.4-1.5,2.4c-1.1,0-1.4-0.8-1.4-1.6v0
			H616.6z M616.5,103.2v1.1c0,0.5,0.1,1,0.7,1c0.6,0,0.7-0.5,0.7-1.3v-0.8c0-0.7-0.2-1-0.7-1C616.8,102.2,616.5,102.5,616.5,103.2z"
			/>
		<path class="st2" d="M619.8,108.8v-1.5h0.8v1.5H619.8z"/>
		<path class="st2" d="M621.6,107.2v-0.8c0-0.9,0.4-1.2,0.7-1.4c-0.4-0.2-0.6-0.6-0.6-1.3v-0.4c0-1,0.5-1.6,1.5-1.6
			c0.9,0,1.4,0.5,1.4,1.6v0.4c0,0.9-0.3,1.2-0.6,1.4c0.4,0.2,0.7,0.6,0.7,1.4v0.8c0,1.2-0.5,1.8-1.5,1.8
			C622.2,108.9,621.6,108.4,621.6,107.2z M623.9,107.2v-0.9c0-0.7-0.2-1-0.7-1c-0.5,0-0.7,0.3-0.7,1v0.9c0,0.6,0.2,1,0.7,1
			C623.7,108.2,623.9,107.8,623.9,107.2z M622.5,103.1v0.6c0,0.5,0.2,0.9,0.7,0.9c0.4,0,0.7-0.3,0.7-0.9v-0.6c0-0.5-0.1-0.9-0.7-0.9
			C622.6,102.2,622.5,102.6,622.5,103.1z"/>
		<path class="st2" d="M677.8,108.8v-6.2c-0.2,0.1-0.6,0.2-0.8,0.2v-0.6c0.4-0.1,0.9-0.4,1-0.6h0.6v7.2H677.8z"/>
		<path class="st2" d="M680.7,107.2L680.7,107.2c0,0.7,0.2,1,0.6,1c0.5,0,0.7-0.3,0.7-1.5v-1.3c-0.2,0.3-0.4,0.5-0.9,0.5
			c-0.9,0-1.2-0.7-1.2-1.7v-1c0-1.1,0.5-1.7,1.5-1.7c0.9,0,1.5,0.6,1.5,1.8v3.2c0,1.4-0.1,2.4-1.5,2.4c-1.1,0-1.4-0.8-1.4-1.6v0
			H680.7z M680.6,103.2v1.1c0,0.5,0.1,1,0.7,1c0.6,0,0.7-0.5,0.7-1.3v-0.8c0-0.7-0.2-1-0.7-1C680.9,102.2,680.6,102.5,680.6,103.2z"
			/>
		<path class="st2" d="M683.9,108.8v-1.5h0.8v1.5H683.9z"/>
		<path class="st2" d="M687.9,103.2L687.9,103.2c0-0.4-0.1-1-0.6-1c-0.6,0-0.7,0.4-0.7,1.3v1.1c0.2-0.3,0.4-0.6,1-0.6
			c0.9,0,1.2,0.7,1.2,1.6v1.3c0,1.1-0.3,1.9-1.5,1.9c-1.2,0-1.5-0.9-1.5-1.9v-3.4c0-1.2,0.3-2,1.5-2c1.2,0,1.4,0.8,1.4,1.6v0H687.9z
			 M688,107.1v-1.3c0-0.6-0.1-1-0.7-1c-0.6,0-0.8,0.5-0.8,1.2v1.1c0,0.6,0.1,1.1,0.7,1.1C687.8,108.2,688,107.9,688,107.1z"/>
		<path class="st2" d="M743.3,103.3v-0.2c0-0.7,0.2-1.6,1.4-1.6c1,0,1.4,0.6,1.4,1.6v0.3c0,0.8-0.3,1.2-0.7,1.4v0
			c0.5,0.2,0.8,0.6,0.8,1.5v0.6c0,1.1-0.3,1.9-1.5,1.9c-1.1,0-1.5-0.7-1.5-1.6v-0.2h0.7v0.2c0,0.5,0.2,1,0.8,1s0.8-0.4,0.8-1.2v-0.7
			c0-0.9-0.3-1.1-0.9-1.1h-0.3v-0.7h0.3c0.5,0,0.8-0.2,0.8-1v-0.4c0-0.5-0.1-1-0.6-1c-0.5,0-0.6,0.4-0.6,0.9v0.2H743.3z"/>
		<path class="st2" d="M747.3,108.8v-1.5h0.8v1.5H747.3z"/>
		<path class="st2" d="M752.1,102.3h-1.8c0,0.6-0.1,1.6-0.2,2.1c0.1-0.2,0.5-0.4,0.9-0.4c0.9,0,1.3,0.7,1.3,1.9v0.8
			c0,1.2-0.3,2.1-1.5,2.1c-1.1,0-1.5-0.8-1.5-1.7V107h0.8v0.2c0,0.5,0.2,1,0.7,1c0.6,0,0.7-0.5,0.7-1.3V106c0-0.8-0.1-1.2-0.7-1.2
			c-0.5,0-0.6,0.3-0.8,0.8l-0.7-0.1c0.1-1,0.2-3.1,0.3-3.8h2.5L752.1,102.3z"/>
		<path class="st2" d="M100.5,116.7L100.5,116.7c0-0.4-0.1-1-0.6-1c-0.6,0-0.7,0.4-0.7,1.3v1.1c0.2-0.3,0.4-0.6,1-0.6
			c0.9,0,1.2,0.7,1.2,1.6v1.3c0,1.1-0.3,1.9-1.5,1.9c-1.2,0-1.5-0.9-1.5-1.9v-3.4c0-1.2,0.3-2,1.5-2c1.2,0,1.4,0.8,1.4,1.6v0H100.5z
			 M100.5,120.6v-1.3c0-0.6-0.1-1-0.7-1c-0.6,0-0.8,0.5-0.8,1.2v1.1c0,0.6,0.1,1.1,0.7,1.1C100.3,121.7,100.5,121.4,100.5,120.6z"/>
		<path class="st2" d="M158.9,120.7L158.9,120.7c0,0.7,0.2,1,0.6,1c0.5,0,0.7-0.3,0.7-1.5v-1.3c-0.2,0.3-0.4,0.5-0.9,0.5
			c-0.9,0-1.2-0.7-1.2-1.7v-1c0-1.1,0.5-1.7,1.5-1.7c0.9,0,1.5,0.6,1.5,1.8v3.2c0,1.4-0.1,2.4-1.5,2.4c-1.1,0-1.4-0.8-1.4-1.6v0
			H158.9z M158.9,116.7v1.1c0,0.5,0.1,1,0.7,1c0.6,0,0.7-0.5,0.7-1.3v-0.8c0-0.7-0.2-1-0.7-1C159.1,115.7,158.9,116,158.9,116.7z"/>
		<path class="st2" d="M162.2,120.7v-0.8c0-0.9,0.4-1.2,0.7-1.4c-0.4-0.2-0.6-0.6-0.6-1.3v-0.4c0-1,0.5-1.6,1.5-1.6
			c0.9,0,1.4,0.5,1.4,1.6v0.4c0,0.9-0.3,1.2-0.6,1.4c0.4,0.2,0.7,0.6,0.7,1.4v0.8c0,1.2-0.5,1.8-1.5,1.8
			C162.8,122.4,162.2,121.9,162.2,120.7z M164.5,120.7v-0.9c0-0.7-0.2-1-0.7-1s-0.7,0.3-0.7,1v0.9c0,0.6,0.2,1,0.7,1
			C164.3,121.7,164.5,121.3,164.5,120.7z M163,116.6v0.6c0,0.5,0.2,0.9,0.7,0.9c0.4,0,0.7-0.3,0.7-0.9v-0.6c0-0.5-0.1-0.9-0.7-0.9
			C163.2,115.7,163,116.1,163,116.6z"/>
		<path class="st2" d="M166.4,122.3v-1.5h0.8v1.5H166.4z"/>
		<path class="st2" d="M170,122.3v-1.9h-2v-0.6l1.7-4.6h1v4.6h0.6l-0.1,0.7h-0.5v1.9H170z M170,118c0-0.7,0-1.4,0-2h0
			c-0.4,1.2-0.8,2.5-1.3,3.8h1.3V118z"/>
		<path class="st2" d="M223.7,120.7v-0.8c0-0.9,0.4-1.2,0.7-1.4c-0.4-0.2-0.6-0.6-0.6-1.3v-0.4c0-1,0.5-1.6,1.5-1.6
			c0.9,0,1.4,0.5,1.4,1.6v0.4c0,0.9-0.3,1.2-0.6,1.4c0.4,0.2,0.7,0.6,0.7,1.4v0.8c0,1.2-0.5,1.8-1.5,1.8
			C224.3,122.4,223.7,121.9,223.7,120.7z M225.9,120.7v-0.9c0-0.7-0.2-1-0.7-1s-0.7,0.3-0.7,1v0.9c0,0.6,0.2,1,0.7,1
			C225.8,121.7,225.9,121.3,225.9,120.7z M224.5,116.6v0.6c0,0.5,0.2,0.9,0.7,0.9c0.4,0,0.7-0.3,0.7-0.9v-0.6c0-0.5-0.1-0.9-0.7-0.9
			C224.7,115.7,224.5,116.1,224.5,116.6z"/>
		<path class="st2" d="M228.6,120.7L228.6,120.7c0,0.7,0.2,1,0.6,1c0.5,0,0.7-0.3,0.7-1.5v-1.3c-0.2,0.3-0.4,0.5-0.9,0.5
			c-0.9,0-1.2-0.7-1.2-1.7v-1c0-1.1,0.5-1.7,1.5-1.7c0.9,0,1.5,0.6,1.5,1.8v3.2c0,1.4-0.1,2.4-1.5,2.4c-1.1,0-1.4-0.8-1.4-1.6v0
			H228.6z M228.6,116.7v1.1c0,0.5,0.1,1,0.7,1c0.6,0,0.7-0.5,0.7-1.3v-0.8c0-0.7-0.2-1-0.7-1C228.8,115.7,228.6,116,228.6,116.7z"/>
		<path class="st2" d="M231.8,122.3v-1.5h0.8v1.5H231.8z"/>
		<path class="st2" d="M234,122.3v-6.2c-0.2,0.1-0.6,0.2-0.8,0.2v-0.6c0.4-0.1,0.9-0.4,1-0.6h0.6v7.2H234z"/>
		<path class="st2" d="M289.8,116.7L289.8,116.7c0-0.4-0.1-1-0.6-1c-0.6,0-0.7,0.4-0.7,1.3v1.1c0.2-0.3,0.4-0.6,1-0.6
			c0.9,0,1.2,0.7,1.2,1.6v1.3c0,1.1-0.3,1.9-1.5,1.9c-1.2,0-1.5-0.9-1.5-1.9v-3.4c0-1.2,0.3-2,1.5-2c1.2,0,1.4,0.8,1.4,1.6v0H289.8z
			 M289.9,120.6v-1.3c0-0.6-0.1-1-0.7-1c-0.6,0-0.8,0.5-0.8,1.2v1.1c0,0.6,0.1,1.1,0.7,1.1C289.6,121.7,289.9,121.4,289.9,120.6z"/>
		<path class="st2" d="M294.5,115.8h-1.8c0,0.6-0.1,1.6-0.2,2.1c0.1-0.2,0.5-0.4,0.9-0.4c0.9,0,1.3,0.7,1.3,1.9v0.8
			c0,1.2-0.3,2.1-1.5,2.1c-1.1,0-1.5-0.8-1.5-1.7v-0.1h0.8v0.2c0,0.5,0.2,1,0.7,1c0.6,0,0.7-0.5,0.7-1.3v-0.9c0-0.8-0.1-1.2-0.7-1.2
			c-0.5,0-0.6,0.3-0.8,0.8l-0.7-0.1c0.1-1,0.2-3.1,0.3-3.8h2.5L294.5,115.8z"/>
		<path class="st2" d="M295.9,122.3v-1.5h0.8v1.5H295.9z"/>
		<path class="st2" d="M300,116.7L300,116.7c0-0.4-0.1-1-0.6-1c-0.6,0-0.7,0.4-0.7,1.3v1.1c0.2-0.3,0.4-0.6,1-0.6
			c0.9,0,1.2,0.7,1.2,1.6v1.3c0,1.1-0.3,1.9-1.5,1.9c-1.2,0-1.5-0.9-1.5-1.9v-3.4c0-1.2,0.3-2,1.5-2c1.2,0,1.4,0.8,1.4,1.6v0H300z
			 M300,120.6v-1.3c0-0.6-0.1-1-0.7-1c-0.6,0-0.8,0.5-0.8,1.2v1.1c0,0.6,0.1,1.1,0.7,1.1C299.8,121.7,300,121.4,300,120.6z"/>
		<path class="st2" d="M352.4,120.7v-0.8c0-0.9,0.4-1.2,0.7-1.4c-0.4-0.2-0.6-0.6-0.6-1.3v-0.4c0-1,0.5-1.6,1.5-1.6
			c0.9,0,1.4,0.5,1.4,1.6v0.4c0,0.9-0.3,1.2-0.6,1.4c0.4,0.2,0.7,0.6,0.7,1.4v0.8c0,1.2-0.5,1.8-1.5,1.8
			C353,122.4,352.4,121.9,352.4,120.7z M354.7,120.7v-0.9c0-0.7-0.2-1-0.7-1s-0.7,0.3-0.7,1v0.9c0,0.6,0.2,1,0.7,1
			C354.5,121.7,354.7,121.3,354.7,120.7z M353.3,116.6v0.6c0,0.5,0.2,0.9,0.7,0.9c0.4,0,0.7-0.3,0.7-0.9v-0.6c0-0.5-0.1-0.9-0.7-0.9
			C353.5,115.7,353.3,116.1,353.3,116.6z"/>
		<path class="st2" d="M356.6,120.7v-0.8c0-0.9,0.4-1.2,0.7-1.4c-0.4-0.2-0.6-0.6-0.6-1.3v-0.4c0-1,0.5-1.6,1.5-1.6
			c0.9,0,1.4,0.5,1.4,1.6v0.4c0,0.9-0.3,1.2-0.6,1.4c0.4,0.2,0.7,0.6,0.7,1.4v0.8c0,1.2-0.5,1.8-1.5,1.8
			C357.1,122.4,356.6,121.9,356.6,120.7z M358.8,120.7v-0.9c0-0.7-0.2-1-0.7-1s-0.7,0.3-0.7,1v0.9c0,0.6,0.2,1,0.7,1
			C358.6,121.7,358.8,121.3,358.8,120.7z M357.4,116.6v0.6c0,0.5,0.2,0.9,0.7,0.9c0.4,0,0.7-0.3,0.7-0.9v-0.6c0-0.5-0.1-0.9-0.7-0.9
			C357.6,115.7,357.4,116.1,357.4,116.6z"/>
		<path class="st2" d="M360.7,122.3v-1.5h0.8v1.5H360.7z"/>
		<path class="st2" d="M362.5,122.3v-0.1c0-1.1,0.5-2,1.4-3.2c0.6-0.8,0.7-1.2,0.7-2c0-0.9-0.1-1.2-0.6-1.2c-0.5,0-0.7,0.4-0.7,1
			v0.3h-0.7v-0.4c0-0.8,0.2-1.6,1.4-1.6c1.1,0,1.4,0.8,1.4,1.9c0,1.1-0.3,1.6-0.9,2.4c-0.7,1-1.1,1.7-1.2,2.3h2.2l-0.1,0.7H362.5z"
			/>
		<path class="st2" d="M417.3,120.7v-0.8c0-0.9,0.4-1.2,0.7-1.4c-0.4-0.2-0.6-0.6-0.6-1.3v-0.4c0-1,0.5-1.6,1.5-1.6
			c0.8,0,1.4,0.5,1.4,1.6v0.4c0,0.9-0.3,1.2-0.6,1.4c0.4,0.2,0.7,0.6,0.7,1.4v0.8c0,1.2-0.5,1.8-1.5,1.8
			C417.9,122.4,417.3,121.9,417.3,120.7z M419.5,120.7v-0.9c0-0.7-0.2-1-0.7-1c-0.5,0-0.7,0.3-0.7,1v0.9c0,0.6,0.2,1,0.7,1
			C419.4,121.7,419.5,121.3,419.5,120.7z M418.1,116.6v0.6c0,0.5,0.2,0.9,0.7,0.9c0.4,0,0.7-0.3,0.7-0.9v-0.6c0-0.5-0.1-0.9-0.7-0.9
			C418.3,115.7,418.1,116.1,418.1,116.6z"/>
		<path class="st2" d="M422.2,120.7L422.2,120.7c0,0.7,0.2,1,0.6,1c0.5,0,0.7-0.3,0.7-1.5v-1.3c-0.2,0.3-0.4,0.5-0.9,0.5
			c-0.9,0-1.2-0.7-1.2-1.7v-1c0-1.1,0.5-1.7,1.5-1.7c0.9,0,1.5,0.6,1.5,1.8v3.2c0,1.4-0.1,2.4-1.5,2.4c-1.1,0-1.4-0.8-1.4-1.6v0
			H422.2z M422.2,116.7v1.1c0,0.5,0.1,1,0.7,1c0.6,0,0.7-0.5,0.7-1.3v-0.8c0-0.7-0.2-1-0.7-1C422.4,115.7,422.2,116,422.2,116.7z"/>
		<path class="st2" d="M425.4,122.3v-1.5h0.8v1.5H425.4z"/>
		<path class="st2" d="M427.3,120.7v-0.8c0-0.9,0.4-1.2,0.7-1.4c-0.4-0.2-0.6-0.6-0.6-1.3v-0.4c0-1,0.5-1.6,1.5-1.6
			c0.9,0,1.4,0.5,1.4,1.6v0.4c0,0.9-0.3,1.2-0.6,1.4c0.4,0.2,0.7,0.6,0.7,1.4v0.8c0,1.2-0.5,1.8-1.5,1.8
			C427.8,122.4,427.3,121.9,427.3,120.7z M429.5,120.7v-0.9c0-0.7-0.2-1-0.7-1c-0.5,0-0.7,0.3-0.7,1v0.9c0,0.6,0.2,1,0.7,1
			C429.3,121.7,429.5,121.3,429.5,120.7z M428.1,116.6v0.6c0,0.5,0.2,0.9,0.7,0.9c0.4,0,0.7-0.3,0.7-0.9v-0.6c0-0.5-0.1-0.9-0.7-0.9
			C428.3,115.7,428.1,116.1,428.1,116.6z"/>
		<path class="st2" d="M484.2,116.7L484.2,116.7c0-0.4-0.1-1-0.7-1c-0.6,0-0.7,0.4-0.7,1.3v1.1c0.2-0.3,0.4-0.6,1-0.6
			c0.9,0,1.2,0.7,1.2,1.6v1.3c0,1.1-0.3,1.9-1.5,1.9c-1.2,0-1.5-0.9-1.5-1.9v-3.4c0-1.2,0.3-2,1.5-2c1.2,0,1.4,0.8,1.4,1.6v0H484.2z
			 M484.3,120.6v-1.3c0-0.6-0.1-1-0.7-1c-0.6,0-0.8,0.5-0.8,1.2v1.1c0,0.6,0.1,1.1,0.7,1.1C484.1,121.7,484.3,121.4,484.3,120.6z"/>
		<path class="st2" d="M486.2,116.8v-0.2c0-0.7,0.2-1.6,1.4-1.6c1,0,1.4,0.6,1.4,1.6v0.3c0,0.8-0.3,1.2-0.7,1.4v0
			c0.5,0.2,0.8,0.6,0.8,1.5v0.6c0,1.1-0.3,1.9-1.5,1.9c-1.1,0-1.5-0.7-1.5-1.6v-0.2h0.7v0.2c0,0.5,0.2,1,0.8,1
			c0.6,0,0.8-0.4,0.8-1.2v-0.7c0-0.9-0.3-1.1-0.9-1.1h-0.3V118h0.3c0.5,0,0.8-0.2,0.8-1v-0.4c0-0.5-0.1-1-0.6-1
			c-0.5,0-0.7,0.4-0.7,0.9v0.2H486.2z"/>
		<path class="st2" d="M490.3,122.3v-1.5h0.8v1.5H490.3z"/>
		<path class="st2" d="M493,120.7L493,120.7c0,0.7,0.2,1,0.6,1c0.5,0,0.7-0.3,0.7-1.5v-1.3c-0.2,0.3-0.4,0.5-0.9,0.5
			c-0.9,0-1.2-0.7-1.2-1.7v-1c0-1.1,0.5-1.7,1.5-1.7c0.9,0,1.5,0.6,1.5,1.8v3.2c0,1.4-0.1,2.4-1.5,2.4c-1.1,0-1.4-0.8-1.4-1.6v0H493
			z M492.9,116.7v1.1c0,0.5,0.1,1,0.7,1c0.6,0,0.7-0.5,0.7-1.3v-0.8c0-0.7-0.2-1-0.7-1C493.2,115.7,492.9,116,492.9,116.7z"/>
		<path class="st2" d="M549.6,115.8h-1.8c0,0.6-0.1,1.6-0.2,2.1c0.1-0.2,0.5-0.4,0.9-0.4c0.9,0,1.3,0.7,1.3,1.9v0.8
			c0,1.2-0.3,2.1-1.5,2.1c-1.1,0-1.5-0.8-1.5-1.7v-0.1h0.8v0.2c0,0.5,0.2,1,0.7,1c0.6,0,0.7-0.5,0.7-1.3v-0.9c0-0.8-0.1-1.2-0.7-1.2
			c-0.5,0-0.6,0.3-0.8,0.8l-0.7-0.1c0.1-1,0.2-3.1,0.3-3.8h2.5L549.6,115.8z"/>
		<path class="st2" d="M551,116.8v-0.2c0-0.7,0.2-1.6,1.4-1.6c1,0,1.4,0.6,1.4,1.6v0.3c0,0.8-0.3,1.2-0.7,1.4v0
			c0.5,0.2,0.8,0.6,0.8,1.5v0.6c0,1.1-0.3,1.9-1.5,1.9c-1.1,0-1.5-0.7-1.5-1.6v-0.2h0.7v0.2c0,0.5,0.2,1,0.8,1s0.8-0.4,0.8-1.2v-0.7
			c0-0.9-0.3-1.1-0.9-1.1h-0.3V118h0.3c0.5,0,0.8-0.2,0.8-1v-0.4c0-0.5-0.1-1-0.6-1c-0.5,0-0.6,0.4-0.6,0.9v0.2H551z"/>
		<path class="st2" d="M555,122.3v-1.5h0.8v1.5H555z"/>
		<path class="st2" d="M557,116.8v-0.2c0-0.7,0.2-1.6,1.4-1.6c1,0,1.4,0.6,1.4,1.6v0.3c0,0.8-0.3,1.2-0.7,1.4v0
			c0.5,0.2,0.8,0.6,0.8,1.5v0.6c0,1.1-0.3,1.9-1.5,1.9c-1.1,0-1.5-0.7-1.5-1.6v-0.2h0.7v0.2c0,0.5,0.2,1,0.8,1s0.8-0.4,0.8-1.2v-0.7
			c0-0.9-0.3-1.1-0.9-1.1h-0.3V118h0.3c0.5,0,0.8-0.2,0.8-1v-0.4c0-0.5-0.1-1-0.6-1c-0.5,0-0.6,0.4-0.6,0.9v0.2H557z"/>
		<path class="st2" d="M613.8,116.7L613.8,116.7c0-0.4-0.1-1-0.6-1c-0.6,0-0.7,0.4-0.7,1.3v1.1c0.2-0.3,0.4-0.6,1-0.6
			c0.9,0,1.2,0.7,1.2,1.6v1.3c0,1.1-0.3,1.9-1.5,1.9c-1.2,0-1.5-0.9-1.5-1.9v-3.4c0-1.2,0.3-2,1.5-2c1.2,0,1.4,0.8,1.4,1.6v0H613.8z
			 M613.9,120.6v-1.3c0-0.6-0.1-1-0.7-1c-0.6,0-0.8,0.5-0.8,1.2v1.1c0,0.6,0.1,1.1,0.7,1.1C613.6,121.7,613.9,121.4,613.9,120.6z"/>
		<path class="st2" d="M617.9,116.7L617.9,116.7c0-0.4-0.1-1-0.6-1c-0.6,0-0.7,0.4-0.7,1.3v1.1c0.2-0.3,0.4-0.6,1-0.6
			c0.9,0,1.2,0.7,1.2,1.6v1.3c0,1.1-0.3,1.9-1.5,1.9c-1.2,0-1.5-0.9-1.5-1.9v-3.4c0-1.2,0.3-2,1.5-2c1.2,0,1.4,0.8,1.4,1.6v0H617.9z
			 M618,120.6v-1.3c0-0.6-0.1-1-0.7-1c-0.6,0-0.8,0.5-0.8,1.2v1.1c0,0.6,0.1,1.1,0.7,1.1C617.7,121.7,618,121.4,618,120.6z"/>
		<path class="st2" d="M619.8,122.3v-1.5h0.8v1.5H619.8z"/>
		<path class="st2" d="M624.5,115.8h-1.8c0,0.6-0.1,1.6-0.2,2.1c0.1-0.2,0.5-0.4,0.9-0.4c0.9,0,1.3,0.7,1.3,1.9v0.8
			c0,1.2-0.3,2.1-1.5,2.1c-1.1,0-1.5-0.8-1.5-1.7v-0.1h0.8v0.2c0,0.5,0.2,1,0.7,1c0.6,0,0.7-0.5,0.7-1.3v-0.9c0-0.8-0.1-1.2-0.7-1.2
			c-0.5,0-0.6,0.3-0.8,0.8l-0.7-0.1c0.1-1,0.2-3.1,0.3-3.8h2.5L624.5,115.8z"/>
		<path class="st2" d="M676.4,122.3v-0.1c0-1.1,0.5-2,1.4-3.2c0.6-0.8,0.7-1.2,0.7-2c0-0.9-0.1-1.2-0.6-1.2c-0.5,0-0.7,0.4-0.7,1
			v0.3h-0.7v-0.4c0-0.8,0.2-1.6,1.4-1.6c1.1,0,1.4,0.8,1.4,1.9c0,1.1-0.3,1.6-0.9,2.4c-0.7,1-1.1,1.7-1.2,2.3h2.2l-0.1,0.7H676.4z"
			/>
		<path class="st2" d="M682.6,116.7L682.6,116.7c0-0.4-0.1-1-0.6-1c-0.6,0-0.7,0.4-0.7,1.3v1.1c0.2-0.3,0.4-0.6,1-0.6
			c0.9,0,1.2,0.7,1.2,1.6v1.3c0,1.1-0.3,1.9-1.5,1.9c-1.2,0-1.5-0.9-1.5-1.9v-3.4c0-1.2,0.3-2,1.5-2c1.2,0,1.4,0.8,1.4,1.6v0H682.6z
			 M682.6,120.6v-1.3c0-0.6-0.1-1-0.7-1c-0.6,0-0.8,0.5-0.8,1.2v1.1c0,0.6,0.1,1.1,0.7,1.1C682.4,121.7,682.6,121.4,682.6,120.6z"/>
		<path class="st2" d="M684.5,122.3v-1.5h0.8v1.5H684.5z"/>
		<path class="st2" d="M686.5,116.8v-0.2c0-0.7,0.2-1.6,1.4-1.6c1,0,1.4,0.6,1.4,1.6v0.3c0,0.8-0.3,1.2-0.7,1.4v0
			c0.5,0.2,0.8,0.6,0.8,1.5v0.6c0,1.1-0.3,1.9-1.5,1.9c-1.1,0-1.5-0.7-1.5-1.6v-0.2h0.7v0.2c0,0.5,0.2,1,0.8,1s0.8-0.4,0.8-1.2v-0.7
			c0-0.9-0.3-1.1-0.9-1.1h-0.3V118h0.3c0.5,0,0.8-0.2,0.8-1v-0.4c0-0.5-0.1-1-0.6-1c-0.5,0-0.6,0.4-0.6,0.9v0.2H686.5z"/>
		<path class="st2" d="M745.5,116.7L745.5,116.7c0-0.4-0.1-1-0.6-1c-0.6,0-0.7,0.4-0.7,1.3v1.1c0.2-0.3,0.4-0.6,1-0.6
			c0.9,0,1.2,0.7,1.2,1.6v1.3c0,1.1-0.3,1.9-1.5,1.9c-1.2,0-1.5-0.9-1.5-1.9v-3.4c0-1.2,0.3-2,1.5-2c1.2,0,1.4,0.8,1.4,1.6v0H745.5z
			 M745.6,120.6v-1.3c0-0.6-0.1-1-0.7-1c-0.6,0-0.8,0.5-0.8,1.2v1.1c0,0.6,0.1,1.1,0.7,1.1C745.3,121.7,745.6,121.4,745.6,120.6z"/>
		<path class="st2" d="M747.4,122.3v-1.5h0.8v1.5H747.4z"/>
		<path class="st2" d="M749.3,122.3v-0.1c0-1.1,0.5-2,1.4-3.2c0.6-0.8,0.7-1.2,0.7-2c0-0.9-0.1-1.2-0.6-1.2c-0.5,0-0.7,0.4-0.7,1
			v0.3h-0.7v-0.4c0-0.8,0.2-1.6,1.4-1.6c1.1,0,1.4,0.8,1.4,1.9c0,1.1-0.3,1.6-0.9,2.4c-0.7,1-1.1,1.7-1.2,2.3h2.2l-0.1,0.7H749.3z"
			/>
		<path class="st2" d="M101.2,128.6v0.6c-0.9,1.8-1.6,3.9-1.9,6.6h-0.8c0.2-2.3,1-4.8,1.9-6.5h-2.1v-0.7H101.2z"/>
		<path class="st2" d="M159,134.2L159,134.2c0,0.7,0.2,1,0.6,1c0.5,0,0.7-0.3,0.7-1.5v-1.3c-0.2,0.3-0.4,0.5-0.9,0.5
			c-0.9,0-1.2-0.7-1.2-1.7v-1c0-1.1,0.5-1.7,1.5-1.7c0.9,0,1.5,0.6,1.5,1.8v3.2c0,1.4-0.1,2.4-1.5,2.4c-1.1,0-1.4-0.8-1.4-1.6v0H159
			z M158.9,130.2v1.1c0,0.5,0.1,1,0.7,1c0.6,0,0.7-0.5,0.7-1.3v-0.8c0-0.7-0.2-1-0.7-1C159.1,129.2,158.9,129.5,158.9,130.2z"/>
		<path class="st2" d="M163,134.2L163,134.2c0,0.7,0.2,1,0.6,1c0.5,0,0.7-0.3,0.7-1.5v-1.3c-0.2,0.3-0.4,0.5-0.9,0.5
			c-0.9,0-1.2-0.7-1.2-1.7v-1c0-1.1,0.5-1.7,1.5-1.7c0.9,0,1.5,0.6,1.5,1.8v3.2c0,1.4-0.1,2.4-1.5,2.4c-1.1,0-1.4-0.8-1.4-1.6v0H163
			z M163,130.2v1.1c0,0.5,0.1,1,0.7,1c0.6,0,0.7-0.5,0.7-1.3v-0.8c0-0.7-0.2-1-0.7-1C163.2,129.2,163,129.5,163,130.2z"/>
		<path class="st2" d="M166.2,135.8v-1.5h0.8v1.5H166.2z"/>
		<path class="st2" d="M168,135.8v-0.1c0-1.1,0.5-2,1.4-3.2c0.6-0.8,0.7-1.2,0.7-2c0-0.9-0.1-1.2-0.6-1.2c-0.5,0-0.7,0.4-0.7,1v0.3
			h-0.7v-0.4c0-0.8,0.2-1.6,1.4-1.6c1.1,0,1.4,0.8,1.4,1.9c0,1.1-0.3,1.6-0.9,2.4c-0.7,1-1.1,1.7-1.2,2.3h2.2l-0.1,0.7H168z"/>
		<path class="st2" d="M223.7,134.2L223.7,134.2c0,0.7,0.2,1,0.6,1c0.5,0,0.7-0.3,0.7-1.5v-1.3c-0.2,0.3-0.4,0.5-0.9,0.5
			c-0.9,0-1.2-0.7-1.2-1.7v-1c0-1.1,0.5-1.7,1.5-1.7c0.9,0,1.5,0.6,1.5,1.8v3.2c0,1.4-0.1,2.4-1.5,2.4c-1.1,0-1.4-0.8-1.4-1.6v0
			H223.7z M223.6,130.2v1.1c0,0.5,0.1,1,0.7,1c0.6,0,0.7-0.5,0.7-1.3v-0.8c0-0.7-0.2-1-0.7-1C223.9,129.2,223.6,129.5,223.6,130.2z"
			/>
		<path class="st2" d="M227,130.3v-0.2c0-0.7,0.2-1.6,1.4-1.6c1,0,1.4,0.6,1.4,1.6v0.3c0,0.8-0.3,1.2-0.7,1.4v0
			c0.5,0.2,0.8,0.6,0.8,1.5v0.6c0,1.1-0.3,1.9-1.5,1.9c-1.1,0-1.5-0.7-1.5-1.6v-0.2h0.7v0.2c0,0.5,0.2,1,0.8,1
			c0.6,0,0.8-0.4,0.8-1.2v-0.7c0-0.9-0.3-1.1-0.9-1.1h-0.3v-0.7h0.3c0.5,0,0.8-0.2,0.8-1v-0.4c0-0.5-0.1-1-0.6-1
			c-0.5,0-0.6,0.4-0.6,0.9v0.2H227z"/>
		<path class="st2" d="M231,135.8v-1.5h0.8v1.5H231z"/>
		<path class="st2" d="M232.9,134.2v-0.8c0-0.9,0.4-1.2,0.7-1.4c-0.4-0.2-0.6-0.6-0.6-1.3v-0.4c0-1,0.5-1.6,1.5-1.6
			c0.9,0,1.4,0.5,1.4,1.6v0.4c0,0.9-0.3,1.2-0.6,1.4c0.4,0.2,0.7,0.6,0.7,1.4v0.8c0,1.2-0.5,1.8-1.5,1.8
			C233.4,135.9,232.9,135.4,232.9,134.2z M235.1,134.2v-0.9c0-0.7-0.2-1-0.7-1s-0.7,0.3-0.7,1v0.9c0,0.6,0.2,1,0.7,1
			C234.9,135.2,235.1,134.8,235.1,134.2z M233.7,130.1v0.6c0,0.5,0.2,0.9,0.7,0.9c0.4,0,0.7-0.3,0.7-0.9v-0.6c0-0.5-0.1-0.9-0.7-0.9
			C233.9,129.2,233.7,129.6,233.7,130.1z"/>
		<path class="st2" d="M291.2,128.6v0.6c-0.9,1.8-1.6,3.9-1.9,6.6h-0.8c0.2-2.3,1-4.8,1.9-6.5h-2.1v-0.7H291.2z"/>
		<path class="st2" d="M295.1,128.6v0.6c-0.9,1.8-1.6,3.9-1.9,6.6h-0.8c0.2-2.3,1-4.8,1.9-6.5h-2.1v-0.7H295.1z"/>
		<path class="st2" d="M294.9,135.8v-1.5h0.8v1.5H294.9z"/>
		<path class="st2" d="M296.9,130.3v-0.2c0-0.7,0.2-1.6,1.4-1.6c1,0,1.4,0.6,1.4,1.6v0.3c0,0.8-0.3,1.2-0.7,1.4v0
			c0.5,0.2,0.8,0.6,0.8,1.5v0.6c0,1.1-0.3,1.9-1.5,1.9c-1.1,0-1.5-0.7-1.5-1.6v-0.2h0.7v0.2c0,0.5,0.2,1,0.8,1
			c0.6,0,0.8-0.4,0.8-1.2v-0.7c0-0.9-0.3-1.1-0.9-1.1h-0.3v-0.7h0.3c0.5,0,0.8-0.2,0.8-1v-0.4c0-0.5-0.1-1-0.6-1
			c-0.5,0-0.6,0.4-0.6,0.9v0.2H296.9z"/>
		<path class="st2" d="M353.3,134.2L353.3,134.2c0,0.7,0.2,1,0.6,1c0.5,0,0.7-0.3,0.7-1.5v-1.3c-0.2,0.3-0.4,0.5-0.9,0.5
			c-0.9,0-1.2-0.7-1.2-1.7v-1c0-1.1,0.5-1.7,1.5-1.7c0.9,0,1.5,0.6,1.5,1.8v3.2c0,1.4-0.1,2.4-1.5,2.4c-1.1,0-1.4-0.8-1.4-1.6v0
			H353.3z M353.2,130.2v1.1c0,0.5,0.1,1,0.7,1c0.6,0,0.7-0.5,0.7-1.3v-0.8c0-0.7-0.2-1-0.7-1C353.4,129.2,353.2,129.5,353.2,130.2z"
			/>
		<path class="st2" d="M358.5,135.8v-1.9h-2v-0.6l1.7-4.6h1v4.6h0.6l-0.1,0.7h-0.5v1.9H358.5z M358.5,131.5c0-0.7,0-1.4,0-2h0
			c-0.4,1.2-0.8,2.5-1.3,3.8h1.3V131.5z"/>
		<path class="st2" d="M360.7,135.8v-1.5h0.8v1.5H360.7z"/>
		<path class="st2" d="M363.4,134.2L363.4,134.2c0,0.7,0.2,1,0.6,1c0.5,0,0.7-0.3,0.7-1.5v-1.3c-0.2,0.3-0.4,0.5-0.9,0.5
			c-0.9,0-1.2-0.7-1.2-1.7v-1c0-1.1,0.5-1.7,1.5-1.7c0.9,0,1.5,0.6,1.5,1.8v3.2c0,1.4-0.1,2.4-1.5,2.4c-1.1,0-1.4-0.8-1.4-1.6v0
			H363.4z M363.3,130.2v1.1c0,0.5,0.1,1,0.7,1c0.6,0,0.7-0.5,0.7-1.3v-0.8c0-0.7-0.2-1-0.7-1C363.6,129.2,363.3,129.5,363.3,130.2z"
			/>
		<path class="st2" d="M418.2,134.2L418.2,134.2c0,0.7,0.2,1,0.6,1c0.5,0,0.7-0.3,0.7-1.5v-1.3c-0.2,0.3-0.4,0.5-0.9,0.5
			c-0.9,0-1.2-0.7-1.2-1.7v-1c0-1.1,0.5-1.7,1.5-1.7c0.9,0,1.5,0.6,1.5,1.8v3.2c0,1.4-0.1,2.4-1.5,2.4c-1.1,0-1.4-0.8-1.4-1.6v0
			H418.2z M418.1,130.2v1.1c0,0.5,0.1,1,0.7,1c0.6,0,0.7-0.5,0.7-1.3v-0.8c0-0.7-0.2-1-0.7-1C418.4,129.2,418.1,129.5,418.1,130.2z"
			/>
		<path class="st2" d="M421.5,130.3v-0.2c0-0.7,0.2-1.6,1.4-1.6c1,0,1.4,0.6,1.4,1.6v0.3c0,0.8-0.3,1.2-0.7,1.4v0
			c0.5,0.2,0.8,0.6,0.8,1.5v0.6c0,1.1-0.3,1.9-1.5,1.9c-1.1,0-1.5-0.7-1.5-1.6v-0.2h0.7v0.2c0,0.5,0.2,1,0.8,1
			c0.6,0,0.8-0.4,0.8-1.2v-0.7c0-0.9-0.3-1.1-0.9-1.1h-0.3v-0.7h0.3c0.5,0,0.8-0.2,0.8-1v-0.4c0-0.5-0.1-1-0.6-1
			c-0.5,0-0.6,0.4-0.6,0.9v0.2H421.5z"/>
		<path class="st2" d="M425.5,135.8v-1.5h0.8v1.5H425.5z"/>
		<path class="st2" d="M429.1,135.8v-1.9h-2v-0.6l1.7-4.6h1v4.6h0.6l-0.1,0.7h-0.5v1.9H429.1z M429.1,131.5c0-0.7,0-1.4,0-2h0
			c-0.4,1.2-0.8,2.5-1.3,3.8h1.3V131.5z"/>
		<path class="st2" d="M485.8,128.6v0.6c-0.9,1.8-1.6,3.9-1.9,6.6h-0.8c0.2-2.3,1-4.8,1.9-6.5h-2.1v-0.7H485.8z"/>
		<path class="st2" d="M486.7,130.3v-0.2c0-0.7,0.2-1.6,1.4-1.6c1,0,1.4,0.6,1.4,1.6v0.3c0,0.8-0.3,1.2-0.7,1.4v0
			c0.5,0.2,0.8,0.6,0.8,1.5v0.6c0,1.1-0.3,1.9-1.5,1.9c-1.1,0-1.5-0.7-1.5-1.6v-0.2h0.7v0.2c0,0.5,0.2,1,0.8,1
			c0.6,0,0.8-0.4,0.8-1.2v-0.7c0-0.9-0.3-1.1-0.9-1.1h-0.3v-0.7h0.3c0.5,0,0.8-0.2,0.8-1v-0.4c0-0.5-0.1-1-0.6-1
			c-0.5,0-0.6,0.4-0.6,0.9v0.2H486.7z"/>
		<path class="st2" d="M490.8,135.8v-1.5h0.8v1.5H490.8z"/>
		<path class="st2" d="M493,135.8v-6.2c-0.2,0.1-0.6,0.2-0.8,0.2v-0.6c0.4-0.1,0.9-0.4,1-0.6h0.6v7.2H493z"/>
		<path class="st2" d="M549.7,130.2L549.7,130.2c0-0.4-0.1-1-0.6-1c-0.6,0-0.7,0.4-0.7,1.3v1.1c0.2-0.3,0.4-0.6,1-0.6
			c0.9,0,1.2,0.7,1.2,1.6v1.3c0,1.1-0.3,1.9-1.5,1.9c-1.2,0-1.5-0.9-1.5-1.9v-3.4c0-1.2,0.3-2,1.5-2c1.2,0,1.4,0.8,1.4,1.6v0H549.7z
			 M549.8,134.1v-1.3c0-0.6-0.1-1-0.7-1c-0.6,0-0.8,0.5-0.8,1.2v1.1c0,0.6,0.1,1.1,0.7,1.1C549.5,135.2,549.8,134.9,549.8,134.1z"/>
		<path class="st2" d="M552.2,135.8v-6.2c-0.2,0.1-0.6,0.2-0.8,0.2v-0.6c0.4-0.1,0.9-0.4,1-0.6h0.6v7.2H552.2z"/>
		<path class="st2" d="M554.4,135.8v-1.5h0.8v1.5H554.4z"/>
		<path class="st2" d="M557.1,134.2L557.1,134.2c0,0.7,0.2,1,0.6,1c0.5,0,0.7-0.3,0.7-1.5v-1.3c-0.2,0.3-0.4,0.5-0.9,0.5
			c-0.9,0-1.2-0.7-1.2-1.7v-1c0-1.1,0.5-1.7,1.5-1.7c0.9,0,1.5,0.6,1.5,1.8v3.2c0,1.4-0.1,2.4-1.5,2.4c-1.1,0-1.4-0.8-1.4-1.6v0
			H557.1z M557,130.2v1.1c0,0.5,0.1,1,0.7,1c0.6,0,0.7-0.5,0.7-1.3v-0.8c0-0.7-0.2-1-0.7-1C557.3,129.2,557,129.5,557,130.2z"/>
		<path class="st2" d="M615.3,128.6v0.6c-0.9,1.8-1.6,3.9-1.9,6.6h-0.8c0.2-2.3,1-4.8,1.9-6.5h-2.1v-0.7H615.3z"/>
		<path class="st2" d="M616.2,135.8v-0.1c0-1.1,0.5-2,1.4-3.2c0.6-0.8,0.7-1.2,0.7-2c0-0.9-0.1-1.2-0.6-1.2c-0.5,0-0.7,0.4-0.7,1
			v0.3h-0.7v-0.4c0-0.8,0.2-1.6,1.4-1.6c1.1,0,1.4,0.8,1.4,1.9c0,1.1-0.3,1.6-0.9,2.4c-0.7,1-1.1,1.7-1.2,2.3h2.2l-0.1,0.7H616.2z"
			/>
		<path class="st2" d="M620.4,135.8v-1.5h0.8v1.5H620.4z"/>
		<path class="st2" d="M622.6,135.8v-6.2c-0.2,0.1-0.6,0.2-0.8,0.2v-0.6c0.4-0.1,0.9-0.4,1-0.6h0.6v7.2H622.6z"/>
		<path class="st2" d="M676.5,130.3v-0.2c0-0.7,0.2-1.6,1.4-1.6c1,0,1.4,0.6,1.4,1.6v0.3c0,0.8-0.3,1.2-0.7,1.4v0
			c0.5,0.2,0.8,0.6,0.8,1.5v0.6c0,1.1-0.3,1.9-1.5,1.9c-1.1,0-1.5-0.7-1.5-1.6v-0.2h0.7v0.2c0,0.5,0.2,1,0.8,1s0.8-0.4,0.8-1.2v-0.7
			c0-0.9-0.3-1.1-0.9-1.1h-0.3v-0.7h0.3c0.5,0,0.8-0.2,0.8-1v-0.4c0-0.5-0.1-1-0.6-1c-0.5,0-0.6,0.4-0.6,0.9v0.2H676.5z"/>
		<path class="st2" d="M680.5,130.3v-0.2c0-0.7,0.2-1.6,1.4-1.6c1,0,1.4,0.6,1.4,1.6v0.3c0,0.8-0.3,1.2-0.7,1.4v0
			c0.5,0.2,0.8,0.6,0.8,1.5v0.6c0,1.1-0.3,1.9-1.5,1.9c-1.1,0-1.5-0.7-1.5-1.6v-0.2h0.7v0.2c0,0.5,0.2,1,0.8,1s0.8-0.4,0.8-1.2v-0.7
			c0-0.9-0.3-1.1-0.9-1.1h-0.3v-0.7h0.3c0.5,0,0.8-0.2,0.8-1v-0.4c0-0.5-0.1-1-0.6-1c-0.5,0-0.6,0.4-0.6,0.9v0.2H680.5z"/>
		<path class="st2" d="M684.5,135.8v-1.5h0.8v1.5H684.5z"/>
		<path class="st2" d="M689.5,130.4v3.7c0,1.2-0.5,1.8-1.5,1.8c-1,0-1.5-0.6-1.5-1.8v-3.6c0-1.3,0.6-1.9,1.5-1.9
			C688.9,128.6,689.5,129.1,689.5,130.4z M687.2,130.3v3.8c0,0.7,0.2,1.1,0.7,1.1c0.5,0,0.7-0.3,0.7-1.1v-3.7c0-0.8-0.3-1.1-0.7-1.1
			C687.5,129.3,687.2,129.5,687.2,130.3z"/>
		<path class="st2" d="M744.2,134.2L744.2,134.2c0,0.7,0.2,1,0.6,1c0.5,0,0.7-0.3,0.7-1.5v-1.3c-0.2,0.3-0.4,0.5-0.9,0.5
			c-0.9,0-1.2-0.7-1.2-1.7v-1c0-1.1,0.5-1.7,1.5-1.7c0.9,0,1.5,0.6,1.5,1.8v3.2c0,1.4-0.1,2.4-1.5,2.4c-1.1,0-1.4-0.8-1.4-1.6v0
			H744.2z M744.1,130.2v1.1c0,0.5,0.1,1,0.7,1c0.6,0,0.7-0.5,0.7-1.3v-0.8c0-0.7-0.2-1-0.7-1C744.3,129.2,744.1,129.5,744.1,130.2z"
			/>
		<path class="st2" d="M747.3,135.8v-1.5h0.8v1.5H747.3z"/>
		<path class="st2" d="M751.4,130.2L751.4,130.2c0-0.4-0.1-1-0.6-1c-0.6,0-0.7,0.4-0.7,1.3v1.1c0.2-0.3,0.4-0.6,1-0.6
			c0.9,0,1.2,0.7,1.2,1.6v1.3c0,1.1-0.3,1.9-1.5,1.9c-1.2,0-1.5-0.9-1.5-1.9v-3.4c0-1.2,0.3-2,1.5-2c1.2,0,1.4,0.8,1.4,1.6v0H751.4z
			 M751.5,134.1v-1.3c0-0.6-0.1-1-0.7-1c-0.6,0-0.8,0.5-0.8,1.2v1.1c0,0.6,0.1,1.1,0.7,1.1C751.2,135.2,751.5,134.9,751.5,134.1z"/>
		<path class="st2" d="M98.3,147.7v-0.8c0-0.9,0.4-1.2,0.7-1.4c-0.4-0.2-0.6-0.6-0.6-1.3v-0.4c0-1,0.5-1.6,1.5-1.6
			c0.9,0,1.4,0.5,1.4,1.6v0.4c0,0.9-0.3,1.2-0.6,1.4c0.4,0.2,0.7,0.6,0.7,1.4v0.8c0,1.2-0.5,1.8-1.5,1.8
			C98.8,149.4,98.3,148.9,98.3,147.7z M100.5,147.7v-0.9c0-0.7-0.2-1-0.7-1s-0.7,0.3-0.7,1v0.9c0,0.6,0.2,1,0.7,1
			C100.4,148.7,100.5,148.3,100.5,147.7z M99.1,143.6v0.6c0,0.5,0.2,0.9,0.7,0.9c0.4,0,0.7-0.3,0.7-0.9v-0.6c0-0.5-0.1-0.9-0.7-0.9
			C99.3,142.7,99.1,143.1,99.1,143.6z"/>
		<path class="st2" d="M158.9,147.7L158.9,147.7c0,0.7,0.2,1,0.6,1c0.5,0,0.7-0.3,0.7-1.5v-1.3c-0.2,0.3-0.4,0.5-0.9,0.5
			c-0.9,0-1.2-0.7-1.2-1.7v-1c0-1.1,0.5-1.7,1.5-1.7c0.9,0,1.5,0.6,1.5,1.8v3.2c0,1.4-0.1,2.4-1.5,2.4c-1.1,0-1.4-0.8-1.4-1.6v0
			H158.9z M158.9,143.7v1.1c0,0.5,0.1,1,0.7,1c0.6,0,0.7-0.5,0.7-1.3v-0.8c0-0.7-0.2-1-0.7-1C159.1,142.7,158.9,143,158.9,143.7z"/>
		<path class="st2" d="M163,147.7L163,147.7c0,0.7,0.2,1,0.6,1c0.5,0,0.7-0.3,0.7-1.5v-1.3c-0.2,0.3-0.4,0.5-0.9,0.5
			c-0.9,0-1.2-0.7-1.2-1.7v-1c0-1.1,0.5-1.7,1.5-1.7c0.9,0,1.5,0.6,1.5,1.8v3.2c0,1.4-0.1,2.4-1.5,2.4c-1.1,0-1.4-0.8-1.4-1.6v0H163
			z M162.9,143.7v1.1c0,0.5,0.1,1,0.7,1c0.6,0,0.7-0.5,0.7-1.3v-0.8c0-0.7-0.2-1-0.7-1C163.2,142.7,162.9,143,162.9,143.7z"/>
		<path class="st2" d="M166.2,149.3v-1.5h0.8v1.5H166.2z"/>
		<path class="st2" d="M170.2,143.7L170.2,143.7c0-0.4-0.1-1-0.6-1c-0.6,0-0.7,0.4-0.7,1.3v1.1c0.2-0.3,0.4-0.6,1-0.6
			c0.9,0,1.2,0.7,1.2,1.6v1.3c0,1.1-0.3,1.9-1.5,1.9c-1.2,0-1.5-0.9-1.5-1.9v-3.4c0-1.2,0.3-2,1.5-2c1.2,0,1.4,0.8,1.4,1.6v0H170.2z
			 M170.3,147.6v-1.3c0-0.6-0.1-1-0.7-1c-0.6,0-0.8,0.5-0.8,1.2v1.1c0,0.6,0.1,1.1,0.7,1.1C170.1,148.7,170.3,148.4,170.3,147.6z"/>
		<path class="st2" d="M223.6,147.7L223.6,147.7c0,0.7,0.2,1,0.6,1c0.5,0,0.7-0.3,0.7-1.5v-1.3c-0.2,0.3-0.4,0.5-0.9,0.5
			c-0.9,0-1.2-0.7-1.2-1.7v-1c0-1.1,0.5-1.7,1.5-1.7c0.9,0,1.5,0.6,1.5,1.8v3.2c0,1.4-0.1,2.4-1.5,2.4c-1.1,0-1.4-0.8-1.4-1.6v0
			H223.6z M223.6,143.7v1.1c0,0.5,0.1,1,0.7,1c0.6,0,0.7-0.5,0.7-1.3v-0.8c0-0.7-0.2-1-0.7-1C223.8,142.7,223.6,143,223.6,143.7z"/>
		<path class="st2" d="M229.1,143.7L229.1,143.7c0-0.4-0.1-1-0.6-1c-0.6,0-0.7,0.4-0.7,1.3v1.1c0.2-0.3,0.4-0.6,1-0.6
			c0.9,0,1.2,0.7,1.2,1.6v1.3c0,1.1-0.3,1.9-1.5,1.9c-1.2,0-1.5-0.9-1.5-1.9v-3.4c0-1.2,0.3-2,1.5-2c1.2,0,1.4,0.8,1.4,1.6v0H229.1z
			 M229.1,147.6v-1.3c0-0.6-0.1-1-0.7-1c-0.6,0-0.8,0.5-0.8,1.2v1.1c0,0.6,0.1,1.1,0.7,1.1C228.9,148.7,229.1,148.4,229.1,147.6z"/>
		<path class="st2" d="M231,149.3v-1.5h0.8v1.5H231z"/>
		<path class="st2" d="M235.7,142.8H234c0,0.6-0.1,1.6-0.2,2.1c0.1-0.2,0.5-0.4,0.9-0.4c0.9,0,1.3,0.7,1.3,1.9v0.8
			c0,1.2-0.3,2.1-1.5,2.1c-1.1,0-1.5-0.8-1.5-1.7v-0.1h0.8v0.2c0,0.5,0.2,1,0.7,1c0.6,0,0.7-0.5,0.7-1.3v-0.9c0-0.8-0.1-1.2-0.7-1.2
			c-0.5,0-0.6,0.3-0.8,0.8l-0.7-0.1c0.1-1,0.2-3.1,0.3-3.8h2.5L235.7,142.8z"/>
		<path class="st2" d="M287.6,147.7v-0.8c0-0.9,0.4-1.2,0.7-1.4c-0.4-0.2-0.6-0.6-0.6-1.3v-0.4c0-1,0.5-1.6,1.5-1.6
			c0.9,0,1.4,0.5,1.4,1.6v0.4c0,0.9-0.3,1.2-0.6,1.4c0.4,0.2,0.7,0.6,0.7,1.4v0.8c0,1.2-0.5,1.8-1.5,1.8
			C288.1,149.4,287.6,148.9,287.6,147.7z M289.8,147.7v-0.9c0-0.7-0.2-1-0.7-1s-0.7,0.3-0.7,1v0.9c0,0.6,0.2,1,0.7,1
			C289.7,148.7,289.8,148.3,289.8,147.7z M288.4,143.6v0.6c0,0.5,0.2,0.9,0.7,0.9c0.4,0,0.7-0.3,0.7-0.9v-0.6c0-0.5-0.1-0.9-0.7-0.9
			C288.6,142.7,288.4,143.1,288.4,143.6z"/>
		<path class="st2" d="M294.5,142.8h-1.8c0,0.6-0.1,1.6-0.2,2.1c0.1-0.2,0.5-0.4,0.9-0.4c0.9,0,1.3,0.7,1.3,1.9v0.8
			c0,1.2-0.3,2.1-1.5,2.1c-1.1,0-1.5-0.8-1.5-1.7v-0.1h0.8v0.2c0,0.5,0.2,1,0.7,1c0.6,0,0.7-0.5,0.7-1.3v-0.9c0-0.8-0.1-1.2-0.7-1.2
			c-0.5,0-0.6,0.3-0.8,0.8l-0.7-0.1c0.1-1,0.2-3.1,0.3-3.8h2.5L294.5,142.8z"/>
		<path class="st2" d="M295.9,149.3v-1.5h0.8v1.5H295.9z"/>
		<path class="st2" d="M300.6,142.8h-1.8c0,0.6-0.1,1.6-0.2,2.1c0.1-0.2,0.5-0.4,0.9-0.4c0.9,0,1.3,0.7,1.3,1.9v0.8
			c0,1.2-0.3,2.1-1.5,2.1c-1.1,0-1.5-0.8-1.5-1.7v-0.1h0.8v0.2c0,0.5,0.2,1,0.7,1c0.6,0,0.7-0.5,0.7-1.3v-0.9c0-0.8-0.1-1.2-0.7-1.2
			c-0.5,0-0.6,0.3-0.8,0.8l-0.7-0.1c0.1-1,0.2-3.1,0.3-3.8h2.5L300.6,142.8z"/>
		<path class="st2" d="M354,147.7L354,147.7c0,0.7,0.2,1,0.6,1c0.5,0,0.7-0.3,0.7-1.5v-1.3c-0.2,0.3-0.4,0.5-0.9,0.5
			c-0.9,0-1.2-0.7-1.2-1.7v-1c0-1.1,0.5-1.7,1.5-1.7c0.9,0,1.5,0.6,1.5,1.8v3.2c0,1.4-0.1,2.4-1.5,2.4c-1.1,0-1.4-0.8-1.4-1.6v0H354
			z M354,143.7v1.1c0,0.5,0.1,1,0.7,1c0.6,0,0.7-0.5,0.7-1.3v-0.8c0-0.7-0.2-1-0.7-1C354.2,142.7,354,143,354,143.7z"/>
		<path class="st2" d="M360,142.1v0.6c-0.9,1.8-1.6,3.9-1.9,6.6h-0.8c0.2-2.3,1-4.8,1.9-6.5h-2.1v-0.7H360z"/>
		<path class="st2" d="M359.9,149.3v-1.5h0.8v1.5H359.9z"/>
		<path class="st2" d="M362.6,147.7L362.6,147.7c0,0.7,0.2,1,0.6,1c0.5,0,0.7-0.3,0.7-1.5v-1.3c-0.2,0.3-0.4,0.5-0.9,0.5
			c-0.9,0-1.2-0.7-1.2-1.7v-1c0-1.1,0.5-1.7,1.5-1.7c0.9,0,1.5,0.6,1.5,1.8v3.2c0,1.4-0.1,2.4-1.5,2.4c-1.1,0-1.4-0.8-1.4-1.6v0
			H362.6z M362.6,143.7v1.1c0,0.5,0.1,1,0.7,1c0.6,0,0.7-0.5,0.7-1.3v-0.8c0-0.7-0.2-1-0.7-1C362.8,142.7,362.6,143,362.6,143.7z"/>
		<path class="st2" d="M418.2,147.7L418.2,147.7c0,0.7,0.2,1,0.6,1c0.5,0,0.7-0.3,0.7-1.5v-1.3c-0.2,0.3-0.4,0.5-0.9,0.5
			c-0.9,0-1.2-0.7-1.2-1.7v-1c0-1.1,0.5-1.7,1.5-1.7c0.9,0,1.5,0.6,1.5,1.8v3.2c0,1.4-0.1,2.4-1.5,2.4c-1.1,0-1.4-0.8-1.4-1.6v0
			H418.2z M418.1,143.7v1.1c0,0.5,0.1,1,0.7,1c0.6,0,0.7-0.5,0.7-1.3v-0.8c0-0.7-0.2-1-0.7-1C418.4,142.7,418.1,143,418.1,143.7z"/>
		<path class="st2" d="M424.3,142.8h-1.8c0,0.6-0.1,1.6-0.2,2.1c0.1-0.2,0.5-0.4,0.9-0.4c0.9,0,1.3,0.7,1.3,1.9v0.8
			c0,1.2-0.3,2.1-1.5,2.1c-1.1,0-1.5-0.8-1.5-1.7v-0.1h0.8v0.2c0,0.5,0.2,1,0.7,1c0.6,0,0.7-0.5,0.7-1.3v-0.9c0-0.8-0.1-1.2-0.7-1.2
			c-0.5,0-0.6,0.3-0.8,0.8l-0.7-0.1c0.1-1,0.2-3.1,0.3-3.8h2.5L424.3,142.8z"/>
		<path class="st2" d="M425.6,149.3v-1.5h0.8v1.5H425.6z"/>
		<path class="st2" d="M430.4,142.1v0.6c-0.9,1.8-1.6,3.9-1.9,6.6h-0.8c0.2-2.3,1-4.8,1.9-6.5h-2.1v-0.7H430.4z"/>
		<path class="st2" d="M482,147.7v-0.8c0-0.9,0.4-1.2,0.7-1.4c-0.4-0.2-0.6-0.6-0.6-1.3v-0.4c0-1,0.5-1.6,1.5-1.6
			c0.8,0,1.4,0.5,1.4,1.6v0.4c0,0.9-0.3,1.2-0.6,1.4c0.4,0.2,0.7,0.6,0.7,1.4v0.8c0,1.2-0.5,1.8-1.5,1.8
			C482.6,149.4,482,148.9,482,147.7z M484.3,147.7v-0.9c0-0.7-0.2-1-0.7-1c-0.5,0-0.7,0.3-0.7,1v0.9c0,0.6,0.2,1,0.7,1
			C484.1,148.7,484.3,148.3,484.3,147.7z M482.9,143.6v0.6c0,0.5,0.2,0.9,0.7,0.9c0.4,0,0.7-0.3,0.7-0.9v-0.6c0-0.5-0.1-0.9-0.7-0.9
			C483,142.7,482.9,143.1,482.9,143.6z"/>
		<path class="st2" d="M489.2,143.9v3.7c0,1.2-0.5,1.8-1.5,1.8c-1,0-1.5-0.6-1.5-1.8v-3.6c0-1.3,0.6-1.9,1.5-1.9
			C488.6,142.1,489.2,142.6,489.2,143.9z M487,143.8v3.8c0,0.7,0.2,1.1,0.7,1.1c0.5,0,0.7-0.3,0.7-1.1v-3.7c0-0.8-0.3-1.1-0.7-1.1
			C487.3,142.8,487,143,487,143.8z"/>
		<path class="st2" d="M490.4,149.3v-1.5h0.8v1.5H490.4z"/>
		<path class="st2" d="M492.2,149.3v-0.1c0-1.1,0.5-2,1.4-3.2c0.6-0.8,0.7-1.2,0.7-2c0-0.9-0.1-1.2-0.6-1.2c-0.5,0-0.7,0.4-0.7,1
			v0.3h-0.7v-0.4c0-0.8,0.2-1.6,1.4-1.6c1.1,0,1.4,0.8,1.4,1.9c0,1.1-0.3,1.6-0.9,2.4c-0.7,1-1.1,1.7-1.2,2.3h2.2l-0.1,0.7H492.2z"
			/>
		<path class="st2" d="M549,143.7L549,143.7c0-0.4-0.1-1-0.6-1c-0.6,0-0.7,0.4-0.7,1.3v1.1c0.2-0.3,0.4-0.6,1-0.6
			c0.9,0,1.2,0.7,1.2,1.6v1.3c0,1.1-0.3,1.9-1.5,1.9c-1.2,0-1.5-0.9-1.5-1.9v-3.4c0-1.2,0.3-2,1.5-2c1.2,0,1.4,0.8,1.4,1.6v0H549z
			 M549.1,147.6v-1.3c0-0.6-0.1-1-0.7-1c-0.6,0-0.8,0.5-0.8,1.2v1.1c0,0.6,0.1,1.1,0.7,1.1C548.8,148.7,549.1,148.4,549.1,147.6z"/>
		<path class="st2" d="M550.9,147.7v-0.8c0-0.9,0.4-1.2,0.7-1.4c-0.4-0.2-0.6-0.6-0.6-1.3v-0.4c0-1,0.5-1.6,1.5-1.6
			c0.9,0,1.4,0.5,1.4,1.6v0.4c0,0.9-0.3,1.2-0.6,1.4c0.4,0.2,0.7,0.6,0.7,1.4v0.8c0,1.2-0.5,1.8-1.5,1.8
			C551.5,149.4,550.9,148.9,550.9,147.7z M553.2,147.7v-0.9c0-0.7-0.2-1-0.7-1c-0.5,0-0.7,0.3-0.7,1v0.9c0,0.6,0.2,1,0.7,1
			C553,148.7,553.2,148.3,553.2,147.7z M551.8,143.6v0.6c0,0.5,0.2,0.9,0.7,0.9c0.4,0,0.7-0.3,0.7-0.9v-0.6c0-0.5-0.1-0.9-0.7-0.9
			C552,142.7,551.8,143.1,551.8,143.6z"/>
		<path class="st2" d="M555.1,149.3v-1.5h0.8v1.5H555.1z"/>
		<path class="st2" d="M557.8,147.7L557.8,147.7c0,0.7,0.2,1,0.6,1c0.5,0,0.7-0.3,0.7-1.5v-1.3c-0.2,0.3-0.4,0.5-0.9,0.5
			c-0.9,0-1.2-0.7-1.2-1.7v-1c0-1.1,0.5-1.7,1.5-1.7c0.9,0,1.5,0.6,1.5,1.8v3.2c0,1.4-0.1,2.4-1.5,2.4c-1.1,0-1.4-0.8-1.4-1.6v0
			H557.8z M557.7,143.7v1.1c0,0.5,0.1,1,0.7,1c0.6,0,0.7-0.5,0.7-1.3v-0.8c0-0.7-0.2-1-0.7-1C558,142.7,557.7,143,557.7,143.7z"/>
		<path class="st2" d="M614.7,142.1v0.6c-0.9,1.8-1.6,3.9-1.9,6.6h-0.8c0.2-2.3,1-4.8,1.9-6.5h-2.1v-0.7H614.7z"/>
		<path class="st2" d="M617.8,143.7L617.8,143.7c0-0.4-0.1-1-0.6-1c-0.6,0-0.7,0.4-0.7,1.3v1.1c0.2-0.3,0.4-0.6,1-0.6
			c0.9,0,1.2,0.7,1.2,1.6v1.3c0,1.1-0.3,1.9-1.5,1.9c-1.2,0-1.5-0.9-1.5-1.9v-3.4c0-1.2,0.3-2,1.5-2c1.2,0,1.4,0.8,1.4,1.6v0H617.8z
			 M617.9,147.6v-1.3c0-0.6-0.1-1-0.7-1c-0.6,0-0.8,0.5-0.8,1.2v1.1c0,0.6,0.1,1.1,0.7,1.1C617.7,148.7,617.9,148.4,617.9,147.6z"/>
		<path class="st2" d="M619.7,149.3v-1.5h0.8v1.5H619.7z"/>
		<path class="st2" d="M624.6,142.1v0.6c-0.9,1.8-1.6,3.9-1.9,6.6h-0.8c0.2-2.3,1-4.8,1.9-6.5h-2.1v-0.7H624.6z"/>
		<path class="st2" d="M676.5,143.8v-0.2c0-0.7,0.2-1.6,1.4-1.6c1,0,1.4,0.6,1.4,1.6v0.3c0,0.8-0.3,1.2-0.7,1.4v0
			c0.5,0.2,0.8,0.6,0.8,1.5v0.6c0,1.1-0.3,1.9-1.5,1.9c-1.1,0-1.5-0.7-1.5-1.6v-0.2h0.7v0.2c0,0.5,0.2,1,0.8,1s0.8-0.4,0.8-1.2v-0.7
			c0-0.9-0.3-1.1-0.9-1.1h-0.3V145h0.3c0.5,0,0.8-0.2,0.8-1v-0.4c0-0.5-0.1-1-0.6-1c-0.5,0-0.6,0.4-0.6,0.9v0.2H676.5z"/>
		<path class="st2" d="M681.3,147.7L681.3,147.7c0,0.7,0.2,1,0.6,1c0.5,0,0.7-0.3,0.7-1.5v-1.3c-0.2,0.3-0.4,0.5-0.9,0.5
			c-0.9,0-1.2-0.7-1.2-1.7v-1c0-1.1,0.5-1.7,1.5-1.7c0.9,0,1.5,0.6,1.5,1.8v3.2c0,1.4-0.1,2.4-1.5,2.4c-1.1,0-1.4-0.8-1.4-1.6v0
			H681.3z M681.3,143.7v1.1c0,0.5,0.1,1,0.7,1c0.6,0,0.7-0.5,0.7-1.3v-0.8c0-0.7-0.2-1-0.7-1C681.5,142.7,681.3,143,681.3,143.7z"/>
		<path class="st2" d="M684.5,149.3v-1.5h0.8v1.5H684.5z"/>
		<path class="st2" d="M689.2,142.8h-1.8c0,0.6-0.1,1.6-0.2,2.1c0.1-0.2,0.5-0.4,0.9-0.4c0.9,0,1.3,0.7,1.3,1.9v0.8
			c0,1.2-0.3,2.1-1.5,2.1c-1.1,0-1.5-0.8-1.5-1.7v-0.1h0.8v0.2c0,0.5,0.2,1,0.7,1c0.6,0,0.7-0.5,0.7-1.3v-0.9c0-0.8-0.1-1.2-0.7-1.2
			c-0.5,0-0.6,0.3-0.8,0.8l-0.7-0.1c0.1-1,0.2-3.1,0.3-3.8h2.5L689.2,142.8z"/>
		<path class="st2" d="M742.5,149.3v-6.2c-0.2,0.1-0.6,0.2-0.8,0.2v-0.6c0.4-0.1,0.9-0.4,1-0.6h0.6v7.2H742.5z"/>
		<path class="st2" d="M744.6,143.8v-0.2c0-0.7,0.2-1.6,1.4-1.6c1,0,1.4,0.6,1.4,1.6v0.3c0,0.8-0.3,1.2-0.7,1.4v0
			c0.5,0.2,0.8,0.6,0.8,1.5v0.6c0,1.1-0.3,1.9-1.5,1.9c-1.1,0-1.5-0.7-1.5-1.6v-0.2h0.7v0.2c0,0.5,0.2,1,0.8,1s0.8-0.4,0.8-1.2v-0.7
			c0-0.9-0.3-1.1-0.9-1.1h-0.3V145h0.3c0.5,0,0.8-0.2,0.8-1v-0.4c0-0.5-0.1-1-0.6-1c-0.5,0-0.6,0.4-0.6,0.9v0.2H744.6z"/>
		<path class="st2" d="M748.7,149.3v-1.5h0.8v1.5H748.7z"/>
		<path class="st2" d="M753.4,142.8h-1.8c0,0.6-0.1,1.6-0.2,2.1c0.1-0.2,0.5-0.4,0.9-0.4c0.9,0,1.3,0.7,1.3,1.9v0.8
			c0,1.2-0.3,2.1-1.5,2.1c-1.1,0-1.5-0.8-1.5-1.7v-0.1h0.8v0.2c0,0.5,0.2,1,0.7,1c0.6,0,0.7-0.5,0.7-1.3v-0.9c0-0.8-0.1-1.2-0.7-1.2
			c-0.5,0-0.6,0.3-0.8,0.8l-0.7-0.1c0.1-1,0.2-3.1,0.3-3.8h2.5L753.4,142.8z"/>
		<path class="st2" d="M99.1,161.2L99.1,161.2c0,0.7,0.2,1,0.6,1c0.5,0,0.7-0.3,0.7-1.5v-1.3c-0.2,0.3-0.4,0.5-0.9,0.5
			c-0.9,0-1.2-0.7-1.2-1.7v-1c0-1.1,0.5-1.7,1.5-1.7c0.9,0,1.5,0.6,1.5,1.8v3.2c0,1.4-0.1,2.4-1.5,2.4c-1.1,0-1.4-0.8-1.4-1.6v0
			H99.1z M99.1,157.2v1.1c0,0.5,0.1,1,0.7,1c0.6,0,0.7-0.5,0.7-1.3v-0.8c0-0.7-0.2-1-0.7-1C99.3,156.2,99.1,156.5,99.1,157.2z"/>
		<path class="st2" d="M158.9,161.2L158.9,161.2c0,0.7,0.2,1,0.6,1c0.5,0,0.7-0.3,0.7-1.5v-1.3c-0.2,0.3-0.4,0.5-0.9,0.5
			c-0.9,0-1.2-0.7-1.2-1.7v-1c0-1.1,0.5-1.7,1.5-1.7c0.9,0,1.5,0.6,1.5,1.8v3.2c0,1.4-0.1,2.4-1.5,2.4c-1.1,0-1.4-0.8-1.4-1.6v0
			H158.9z M158.9,157.2v1.1c0,0.5,0.1,1,0.7,1c0.6,0,0.7-0.5,0.7-1.3v-0.8c0-0.7-0.2-1-0.7-1C159.1,156.2,158.9,156.5,158.9,157.2z"
			/>
		<path class="st2" d="M163,161.2L163,161.2c0,0.7,0.2,1,0.6,1c0.5,0,0.7-0.3,0.7-1.5v-1.3c-0.2,0.3-0.4,0.5-0.9,0.5
			c-0.9,0-1.2-0.7-1.2-1.7v-1c0-1.1,0.5-1.7,1.5-1.7c0.9,0,1.5,0.6,1.5,1.8v3.2c0,1.4-0.1,2.4-1.5,2.4c-1.1,0-1.4-0.8-1.4-1.6v0H163
			z M162.9,157.2v1.1c0,0.5,0.1,1,0.7,1c0.6,0,0.7-0.5,0.7-1.3v-0.8c0-0.7-0.2-1-0.7-1C163.2,156.2,162.9,156.5,162.9,157.2z"/>
		<path class="st2" d="M166.2,162.8v-1.5h0.8v1.5H166.2z"/>
		<path class="st2" d="M168,161.2v-0.8c0-0.9,0.4-1.2,0.7-1.4c-0.4-0.2-0.6-0.6-0.6-1.3v-0.4c0-1,0.5-1.6,1.5-1.6
			c0.9,0,1.4,0.5,1.4,1.6v0.4c0,0.9-0.3,1.2-0.6,1.4c0.4,0.2,0.7,0.6,0.7,1.4v0.8c0,1.2-0.5,1.8-1.5,1.8
			C168.6,162.9,168,162.4,168,161.2z M170.3,161.2v-0.9c0-0.7-0.2-1-0.7-1s-0.7,0.3-0.7,1v0.9c0,0.6,0.2,1,0.7,1
			C170.1,162.2,170.3,161.8,170.3,161.2z M168.9,157.1v0.6c0,0.5,0.2,0.9,0.7,0.9c0.4,0,0.7-0.3,0.7-0.9v-0.6c0-0.5-0.1-0.9-0.7-0.9
			C169,156.2,168.9,156.6,168.9,157.1z"/>
		<path class="st2" d="M223.6,161.2L223.6,161.2c0,0.7,0.2,1,0.6,1c0.5,0,0.7-0.3,0.7-1.5v-1.3c-0.2,0.3-0.4,0.5-0.9,0.5
			c-0.9,0-1.2-0.7-1.2-1.7v-1c0-1.1,0.5-1.7,1.5-1.7c0.9,0,1.5,0.6,1.5,1.8v3.2c0,1.4-0.1,2.4-1.5,2.4c-1.1,0-1.4-0.8-1.4-1.6v0
			H223.6z M223.5,157.2v1.1c0,0.5,0.1,1,0.7,1c0.6,0,0.7-0.5,0.7-1.3v-0.8c0-0.7-0.2-1-0.7-1C223.8,156.2,223.5,156.5,223.5,157.2z"
			/>
		<path class="st2" d="M226.9,161.2v-0.8c0-0.9,0.4-1.2,0.7-1.4c-0.4-0.2-0.6-0.6-0.6-1.3v-0.4c0-1,0.5-1.6,1.5-1.6
			c0.9,0,1.4,0.5,1.4,1.6v0.4c0,0.9-0.3,1.2-0.6,1.4c0.4,0.2,0.7,0.6,0.7,1.4v0.8c0,1.2-0.5,1.8-1.5,1.8
			C227.4,162.9,226.9,162.4,226.9,161.2z M229.1,161.2v-0.9c0-0.7-0.2-1-0.7-1s-0.7,0.3-0.7,1v0.9c0,0.6,0.2,1,0.7,1
			C228.9,162.2,229.1,161.8,229.1,161.2z M227.7,157.1v0.6c0,0.5,0.2,0.9,0.7,0.9c0.4,0,0.7-0.3,0.7-0.9v-0.6c0-0.5-0.1-0.9-0.7-0.9
			C227.9,156.2,227.7,156.6,227.7,157.1z"/>
		<path class="st2" d="M231,162.8v-1.5h0.8v1.5H231z"/>
		<path class="st2" d="M235.9,157.4v3.7c0,1.2-0.5,1.8-1.5,1.8c-1,0-1.5-0.6-1.5-1.8v-3.6c0-1.3,0.6-1.9,1.5-1.9
			C235.3,155.6,235.9,156.1,235.9,157.4z M233.7,157.3v3.8c0,0.7,0.2,1.1,0.7,1.1c0.5,0,0.7-0.3,0.7-1.1v-3.7c0-0.8-0.3-1.1-0.7-1.1
			C234,156.3,233.7,156.5,233.7,157.3z"/>
		<path class="st2" d="M289.1,161.2L289.1,161.2c0,0.7,0.2,1,0.6,1c0.5,0,0.7-0.3,0.7-1.5v-1.3c-0.2,0.3-0.4,0.5-0.9,0.5
			c-0.9,0-1.2-0.7-1.2-1.7v-1c0-1.1,0.5-1.7,1.5-1.7c0.9,0,1.5,0.6,1.5,1.8v3.2c0,1.4-0.1,2.4-1.5,2.4c-1.1,0-1.4-0.8-1.4-1.6v0
			H289.1z M289.1,157.2v1.1c0,0.5,0.1,1,0.7,1c0.6,0,0.7-0.5,0.7-1.3v-0.8c0-0.7-0.2-1-0.7-1C289.3,156.2,289.1,156.5,289.1,157.2z"
			/>
		<path class="st2" d="M292.9,162.8v-6.2c-0.2,0.1-0.6,0.2-0.8,0.2v-0.6c0.4-0.1,0.9-0.4,1-0.6h0.6v7.2H292.9z"/>
		<path class="st2" d="M295.1,162.8v-1.5h0.8v1.5H295.1z"/>
		<path class="st2" d="M300,157.4v3.7c0,1.2-0.5,1.8-1.5,1.8c-1,0-1.5-0.6-1.5-1.8v-3.6c0-1.3,0.6-1.9,1.5-1.9
			C299.4,155.6,300,156.1,300,157.4z M297.8,157.3v3.8c0,0.7,0.2,1.1,0.7,1.1c0.5,0,0.7-0.3,0.7-1.1v-3.7c0-0.8-0.3-1.1-0.7-1.1
			C298.1,156.3,297.8,156.5,297.8,157.3z"/>
		<path class="st2" d="M353.4,161.2L353.4,161.2c0,0.7,0.2,1,0.6,1c0.5,0,0.7-0.3,0.7-1.5v-1.3c-0.2,0.3-0.4,0.5-0.9,0.5
			c-0.9,0-1.2-0.7-1.2-1.7v-1c0-1.1,0.5-1.7,1.5-1.7c0.9,0,1.5,0.6,1.5,1.8v3.2c0,1.4-0.1,2.4-1.5,2.4c-1.1,0-1.4-0.8-1.4-1.6v0
			H353.4z M353.3,157.2v1.1c0,0.5,0.1,1,0.7,1c0.6,0,0.7-0.5,0.7-1.3v-0.8c0-0.7-0.2-1-0.7-1C353.5,156.2,353.3,156.5,353.3,157.2z"
			/>
		<path class="st2" d="M357.4,161.2L357.4,161.2c0,0.7,0.2,1,0.6,1c0.5,0,0.7-0.3,0.7-1.5v-1.3c-0.2,0.3-0.4,0.5-0.9,0.5
			c-0.9,0-1.2-0.7-1.2-1.7v-1c0-1.1,0.5-1.7,1.5-1.7c0.9,0,1.5,0.6,1.5,1.8v3.2c0,1.4-0.1,2.4-1.5,2.4c-1.1,0-1.4-0.8-1.4-1.6v0
			H357.4z M357.4,157.2v1.1c0,0.5,0.1,1,0.7,1c0.6,0,0.7-0.5,0.7-1.3v-0.8c0-0.7-0.2-1-0.7-1C357.6,156.2,357.4,156.5,357.4,157.2z"
			/>
		<path class="st2" d="M360.6,162.8v-1.5h0.8v1.5H360.6z"/>
		<path class="st2" d="M362.4,162.8v-0.1c0-1.1,0.5-2,1.4-3.2c0.6-0.8,0.7-1.2,0.7-2c0-0.9-0.1-1.2-0.6-1.2c-0.5,0-0.7,0.4-0.7,1
			v0.3h-0.7v-0.4c0-0.8,0.2-1.6,1.4-1.6c1.1,0,1.4,0.8,1.4,1.9c0,1.1-0.3,1.6-0.9,2.4c-0.7,1-1.1,1.7-1.2,2.3h2.2l-0.1,0.7H362.4z"
			/>
		<path class="st2" d="M418.8,161.2L418.8,161.2c0,0.7,0.2,1,0.6,1c0.5,0,0.7-0.3,0.7-1.5v-1.3c-0.2,0.3-0.4,0.5-0.9,0.5
			c-0.9,0-1.2-0.7-1.2-1.7v-1c0-1.1,0.5-1.7,1.5-1.7c0.9,0,1.5,0.6,1.5,1.8v3.2c0,1.4-0.1,2.4-1.5,2.4c-1.1,0-1.4-0.8-1.4-1.6v0
			H418.8z M418.8,157.2v1.1c0,0.5,0.1,1,0.7,1c0.6,0,0.7-0.5,0.7-1.3v-0.8c0-0.7-0.2-1-0.7-1C419,156.2,418.8,156.5,418.8,157.2z"/>
		<path class="st2" d="M424.9,155.6v0.6c-0.9,1.8-1.6,3.9-1.9,6.6h-0.8c0.2-2.3,1-4.8,1.9-6.5h-2.1v-0.7H424.9z"/>
		<path class="st2" d="M424.7,162.8v-1.5h0.8v1.5H424.7z"/>
		<path class="st2" d="M426.6,162.8v-0.1c0-1.1,0.5-2,1.4-3.2c0.6-0.8,0.7-1.2,0.7-2c0-0.9-0.1-1.2-0.6-1.2c-0.5,0-0.7,0.4-0.7,1
			v0.3h-0.7v-0.4c0-0.8,0.2-1.6,1.4-1.6c1.1,0,1.4,0.8,1.4,1.9c0,1.1-0.3,1.6-0.9,2.4c-0.7,1-1.1,1.7-1.2,2.3h2.2l-0.1,0.7H426.6z"
			/>
		<path class="st2" d="M482,161.2v-0.8c0-0.9,0.4-1.2,0.7-1.4c-0.4-0.2-0.6-0.6-0.6-1.3v-0.4c0-1,0.5-1.6,1.5-1.6
			c0.9,0,1.4,0.5,1.4,1.6v0.4c0,0.9-0.3,1.2-0.6,1.4c0.4,0.2,0.7,0.6,0.7,1.4v0.8c0,1.2-0.5,1.8-1.5,1.8
			C482.5,162.9,482,162.4,482,161.2z M484.2,161.2v-0.9c0-0.7-0.2-1-0.7-1c-0.5,0-0.7,0.3-0.7,1v0.9c0,0.6,0.2,1,0.7,1
			C484.1,162.2,484.2,161.8,484.2,161.2z M482.8,157.1v0.6c0,0.5,0.2,0.9,0.7,0.9c0.4,0,0.7-0.3,0.7-0.9v-0.6c0-0.5-0.1-0.9-0.7-0.9
			C483,156.2,482.8,156.6,482.8,157.1z"/>
		<path class="st2" d="M488.9,156.3h-1.8c0,0.6-0.1,1.6-0.2,2.1c0.1-0.2,0.5-0.4,0.9-0.4c0.9,0,1.3,0.7,1.3,1.9v0.8
			c0,1.2-0.3,2.1-1.5,2.1c-1.1,0-1.5-0.8-1.5-1.7V161h0.8v0.2c0,0.5,0.2,1,0.7,1c0.6,0,0.7-0.5,0.7-1.3V160c0-0.8-0.1-1.2-0.7-1.2
			c-0.5,0-0.6,0.3-0.8,0.8l-0.7-0.1c0.1-1,0.2-3.1,0.3-3.8h2.5L488.9,156.3z"/>
		<path class="st2" d="M490.3,162.8v-1.5h0.8v1.5H490.3z"/>
		<path class="st2" d="M495,156.3h-1.8c0,0.6-0.1,1.6-0.2,2.1c0.1-0.2,0.5-0.4,0.9-0.4c0.9,0,1.3,0.7,1.3,1.9v0.8
			c0,1.2-0.3,2.1-1.5,2.1c-1.1,0-1.5-0.8-1.5-1.7V161h0.8v0.2c0,0.5,0.2,1,0.7,1c0.6,0,0.7-0.5,0.7-1.3V160c0-0.8-0.1-1.2-0.7-1.2
			c-0.5,0-0.6,0.3-0.8,0.8l-0.7-0.1c0.1-1,0.2-3.1,0.3-3.8h2.5L495,156.3z"/>
		<path class="st2" d="M550,155.6v0.6c-0.9,1.8-1.6,3.9-1.9,6.6h-0.8c0.2-2.3,1-4.8,1.9-6.5h-2.1v-0.7H550z"/>
		<path class="st2" d="M552.3,162.8v-1.9h-2v-0.6l1.7-4.6h1v4.6h0.6l-0.1,0.7H553v1.9H552.3z M552.3,158.5c0-0.7,0-1.4,0-2h0
			c-0.4,1.2-0.8,2.5-1.3,3.8h1.3V158.5z"/>
		<path class="st2" d="M554.5,162.8v-1.5h0.8v1.5H554.5z"/>
		<path class="st2" d="M556.4,161.2v-0.8c0-0.9,0.4-1.2,0.7-1.4c-0.4-0.2-0.6-0.6-0.6-1.3v-0.4c0-1,0.5-1.6,1.5-1.6
			c0.9,0,1.4,0.5,1.4,1.6v0.4c0,0.9-0.3,1.2-0.6,1.4c0.4,0.2,0.7,0.6,0.7,1.4v0.8c0,1.2-0.5,1.8-1.5,1.8
			C556.9,162.9,556.4,162.4,556.4,161.2z M558.6,161.2v-0.9c0-0.7-0.2-1-0.7-1c-0.5,0-0.7,0.3-0.7,1v0.9c0,0.6,0.2,1,0.7,1
			C558.4,162.2,558.6,161.8,558.6,161.2z M557.2,157.1v0.6c0,0.5,0.2,0.9,0.7,0.9c0.4,0,0.7-0.3,0.7-0.9v-0.6c0-0.5-0.1-0.9-0.7-0.9
			C557.4,156.2,557.2,156.6,557.2,157.1z"/>
		<path class="st2" d="M611.6,161.2v-0.8c0-0.9,0.4-1.2,0.7-1.4c-0.4-0.2-0.6-0.6-0.6-1.3v-0.4c0-1,0.5-1.6,1.5-1.6
			c0.9,0,1.4,0.5,1.4,1.6v0.4c0,0.9-0.3,1.2-0.6,1.4c0.4,0.2,0.7,0.6,0.7,1.4v0.8c0,1.2-0.5,1.8-1.5,1.8
			C612.1,162.9,611.6,162.4,611.6,161.2z M613.8,161.2v-0.9c0-0.7-0.2-1-0.7-1c-0.5,0-0.7,0.3-0.7,1v0.9c0,0.6,0.2,1,0.7,1
			C613.7,162.2,613.8,161.8,613.8,161.2z M612.4,157.1v0.6c0,0.5,0.2,0.9,0.7,0.9c0.4,0,0.7-0.3,0.7-0.9v-0.6c0-0.5-0.1-0.9-0.7-0.9
			C612.6,156.2,612.4,156.6,612.4,157.1z"/>
		<path class="st2" d="M618.8,157.4v3.7c0,1.2-0.5,1.8-1.5,1.8c-1,0-1.5-0.6-1.5-1.8v-3.6c0-1.3,0.6-1.9,1.5-1.9
			C618.2,155.6,618.8,156.1,618.8,157.4z M616.6,157.3v3.8c0,0.7,0.2,1.1,0.7,1.1c0.5,0,0.7-0.3,0.7-1.1v-3.7c0-0.8-0.3-1.1-0.7-1.1
			C616.8,156.3,616.6,156.5,616.6,157.3z"/>
		<path class="st2" d="M619.9,162.8v-1.5h0.8v1.5H619.9z"/>
		<path class="st2" d="M624,157.2L624,157.2c0-0.4-0.1-1-0.6-1c-0.6,0-0.7,0.4-0.7,1.3v1.1c0.2-0.3,0.4-0.6,1-0.6
			c0.9,0,1.2,0.7,1.2,1.6v1.3c0,1.1-0.3,1.9-1.5,1.9c-1.2,0-1.5-0.9-1.5-1.9v-3.4c0-1.2,0.3-2,1.5-2c1.2,0,1.4,0.8,1.4,1.6v0H624z
			 M624,161.1v-1.3c0-0.6-0.1-1-0.7-1c-0.6,0-0.8,0.5-0.8,1.2v1.1c0,0.6,0.1,1.1,0.7,1.1C623.8,162.2,624,161.9,624,161.1z"/>
		<path class="st2" d="M678.5,162.8v-1.9h-2v-0.6l1.7-4.6h1v4.6h0.6l-0.1,0.7h-0.5v1.9H678.5z M678.5,158.5c0-0.7,0-1.4,0-2h0
			c-0.4,1.2-0.8,2.5-1.3,3.8h1.3V158.5z"/>
		<path class="st2" d="M683.4,156.3h-1.8c0,0.6-0.1,1.6-0.2,2.1c0.1-0.2,0.5-0.4,0.9-0.4c0.9,0,1.3,0.7,1.3,1.9v0.8
			c0,1.2-0.3,2.1-1.5,2.1c-1.1,0-1.5-0.8-1.5-1.7V161h0.8v0.2c0,0.5,0.2,1,0.7,1c0.6,0,0.7-0.5,0.7-1.3V160c0-0.8-0.1-1.2-0.7-1.2
			c-0.5,0-0.6,0.3-0.8,0.8l-0.7-0.1c0.1-1,0.2-3.1,0.3-3.8h2.5L683.4,156.3z"/>
		<path class="st2" d="M684.8,162.8v-1.5h0.8v1.5H684.8z"/>
		<path class="st2" d="M689.6,155.6v0.6c-0.9,1.8-1.6,3.9-1.9,6.6h-0.8c0.2-2.3,1-4.8,1.9-6.5h-2.1v-0.7H689.6z"/>
		<path class="st2" d="M743.2,162.8v-6.2c-0.2,0.1-0.6,0.2-0.8,0.2v-0.6c0.4-0.1,0.9-0.4,1-0.6h0.6v7.2H743.2z"/>
		<path class="st2" d="M748.2,155.6v0.6c-0.9,1.8-1.6,3.9-1.9,6.6h-0.8c0.2-2.3,1-4.8,1.9-6.5h-2.1v-0.7H748.2z"/>
		<path class="st2" d="M748,162.8v-1.5h0.8v1.5H748z"/>
		<path class="st2" d="M749.9,161.2v-0.8c0-0.9,0.4-1.2,0.7-1.4c-0.4-0.2-0.6-0.6-0.6-1.3v-0.4c0-1,0.5-1.6,1.5-1.6
			c0.9,0,1.4,0.5,1.4,1.6v0.4c0,0.9-0.3,1.2-0.6,1.4c0.4,0.2,0.7,0.6,0.7,1.4v0.8c0,1.2-0.5,1.8-1.5,1.8
			C750.4,162.9,749.9,162.4,749.9,161.2z M752.1,161.2v-0.9c0-0.7-0.2-1-0.7-1c-0.5,0-0.7,0.3-0.7,1v0.9c0,0.6,0.2,1,0.7,1
			C752,162.2,752.1,161.8,752.1,161.2z M750.7,157.1v0.6c0,0.5,0.2,0.9,0.7,0.9c0.4,0,0.7-0.3,0.7-0.9v-0.6c0-0.5-0.1-0.9-0.7-0.9
			C750.9,156.2,750.7,156.6,750.7,157.1z"/>
		<path class="st2" d="M97.4,176.3v-6.2c-0.2,0.1-0.6,0.2-0.8,0.2v-0.6c0.4-0.1,0.9-0.4,1-0.6h0.6v7.2H97.4z"/>
		<path class="st2" d="M102.7,170.9v3.7c0,1.2-0.5,1.8-1.5,1.8c-1,0-1.5-0.6-1.5-1.8v-3.6c0-1.3,0.6-1.9,1.5-1.9
			C102.1,169.1,102.7,169.6,102.7,170.9z M100.4,170.8v3.8c0,0.7,0.2,1.1,0.7,1.1c0.5,0,0.7-0.3,0.7-1.1v-3.7c0-0.8-0.3-1.1-0.7-1.1
			C100.7,169.8,100.4,170,100.4,170.8z"/>
		<path class="st2" d="M158.9,174.7L158.9,174.7c0,0.7,0.2,1,0.6,1c0.5,0,0.7-0.3,0.7-1.5v-1.3c-0.2,0.3-0.4,0.5-0.9,0.5
			c-0.9,0-1.2-0.7-1.2-1.7v-1c0-1.1,0.5-1.7,1.5-1.7c0.9,0,1.5,0.6,1.5,1.8v3.2c0,1.4-0.1,2.4-1.5,2.4c-1.1,0-1.4-0.8-1.4-1.6v0
			H158.9z M158.9,170.7v1.1c0,0.5,0.1,1,0.7,1c0.6,0,0.7-0.5,0.7-1.3v-0.8c0-0.7-0.2-1-0.7-1C159.1,169.7,158.9,170,158.9,170.7z"/>
		<path class="st2" d="M163,174.7L163,174.7c0,0.7,0.2,1,0.6,1c0.5,0,0.7-0.3,0.7-1.5v-1.3c-0.2,0.3-0.4,0.5-0.9,0.5
			c-0.9,0-1.2-0.7-1.2-1.7v-1c0-1.1,0.5-1.7,1.5-1.7c0.9,0,1.5,0.6,1.5,1.8v3.2c0,1.4-0.1,2.4-1.5,2.4c-1.1,0-1.4-0.8-1.4-1.6v0H163
			z M162.9,170.7v1.1c0,0.5,0.1,1,0.7,1c0.6,0,0.7-0.5,0.7-1.3v-0.8c0-0.7-0.2-1-0.7-1C163.2,169.7,162.9,170,162.9,170.7z"/>
		<path class="st2" d="M166.2,176.3v-1.5h0.8v1.5H166.2z"/>
		<path class="st2" d="M168.9,174.7L168.9,174.7c0,0.7,0.2,1,0.6,1c0.5,0,0.7-0.3,0.7-1.5v-1.3c-0.2,0.3-0.4,0.5-0.9,0.5
			c-0.9,0-1.2-0.7-1.2-1.7v-1c0-1.1,0.5-1.7,1.5-1.7c0.9,0,1.5,0.6,1.5,1.8v3.2c0,1.4-0.1,2.4-1.5,2.4c-1.1,0-1.4-0.8-1.4-1.6v0
			H168.9z M168.8,170.7v1.1c0,0.5,0.1,1,0.7,1c0.6,0,0.7-0.5,0.7-1.3v-0.8c0-0.7-0.2-1-0.7-1C169.1,169.7,168.8,170,168.8,170.7z"/>
		<path class="st2" d="M223.7,174.7L223.7,174.7c0,0.7,0.2,1,0.6,1c0.5,0,0.7-0.3,0.7-1.5v-1.3c-0.2,0.3-0.4,0.5-0.9,0.5
			c-0.9,0-1.2-0.7-1.2-1.7v-1c0-1.1,0.5-1.7,1.5-1.7c0.9,0,1.5,0.6,1.5,1.8v3.2c0,1.4-0.1,2.4-1.5,2.4c-1.1,0-1.4-0.8-1.4-1.6v0
			H223.7z M223.6,170.7v1.1c0,0.5,0.1,1,0.7,1c0.6,0,0.7-0.5,0.7-1.3v-0.8c0-0.7-0.2-1-0.7-1C223.8,169.7,223.6,170,223.6,170.7z"/>
		<path class="st2" d="M226.9,174.7v-0.8c0-0.9,0.4-1.2,0.7-1.4c-0.4-0.2-0.6-0.6-0.6-1.3v-0.4c0-1,0.5-1.6,1.5-1.6
			c0.9,0,1.4,0.5,1.4,1.6v0.4c0,0.9-0.3,1.2-0.6,1.4c0.4,0.2,0.7,0.6,0.7,1.4v0.8c0,1.2-0.5,1.8-1.5,1.8
			C227.5,176.4,226.9,175.9,226.9,174.7z M229.2,174.7v-0.9c0-0.7-0.2-1-0.7-1s-0.7,0.3-0.7,1v0.9c0,0.6,0.2,1,0.7,1
			C229,175.7,229.2,175.3,229.2,174.7z M227.8,170.6v0.6c0,0.5,0.2,0.9,0.7,0.9c0.4,0,0.7-0.3,0.7-0.9v-0.6c0-0.5-0.1-0.9-0.7-0.9
			C227.9,169.7,227.8,170.1,227.8,170.6z"/>
		<path class="st2" d="M231.1,176.3v-1.5h0.8v1.5H231.1z"/>
		<path class="st2" d="M233.8,174.7L233.8,174.7c0,0.7,0.2,1,0.6,1c0.5,0,0.7-0.3,0.7-1.5v-1.3c-0.2,0.3-0.4,0.5-0.9,0.5
			c-0.9,0-1.2-0.7-1.2-1.7v-1c0-1.1,0.5-1.7,1.5-1.7c0.9,0,1.5,0.6,1.5,1.8v3.2c0,1.4-0.1,2.4-1.5,2.4c-1.1,0-1.4-0.8-1.4-1.6v0
			H233.8z M233.7,170.7v1.1c0,0.5,0.1,1,0.7,1c0.6,0,0.7-0.5,0.7-1.3v-0.8c0-0.7-0.2-1-0.7-1C234,169.7,233.7,170,233.7,170.7z"/>
		<path class="st2" d="M288.4,174.7L288.4,174.7c0,0.7,0.2,1,0.6,1c0.5,0,0.7-0.3,0.7-1.5v-1.3c-0.2,0.3-0.4,0.5-0.9,0.5
			c-0.9,0-1.2-0.7-1.2-1.7v-1c0-1.1,0.5-1.7,1.5-1.7c0.9,0,1.5,0.6,1.5,1.8v3.2c0,1.4-0.1,2.4-1.5,2.4c-1.1,0-1.4-0.8-1.4-1.6v0
			H288.4z M288.4,170.7v1.1c0,0.5,0.1,1,0.7,1c0.6,0,0.7-0.5,0.7-1.3v-0.8c0-0.7-0.2-1-0.7-1C288.6,169.7,288.4,170,288.4,170.7z"/>
		<path class="st2" d="M293.6,176.3v-1.9h-2v-0.6l1.7-4.6h1v4.6h0.6l-0.1,0.7h-0.5v1.9H293.6z M293.6,172c0-0.7,0-1.4,0-2h0
			c-0.4,1.2-0.8,2.5-1.3,3.8h1.3V172z"/>
		<path class="st2" d="M295.8,176.3v-1.5h0.8v1.5H295.8z"/>
		<path class="st2" d="M300.5,169.8h-1.8c0,0.6-0.1,1.6-0.2,2.1c0.1-0.2,0.5-0.4,0.9-0.4c0.9,0,1.3,0.7,1.3,1.9v0.8
			c0,1.2-0.3,2.1-1.5,2.1c-1.1,0-1.5-0.8-1.5-1.7v-0.1h0.8v0.2c0,0.5,0.2,1,0.7,1c0.6,0,0.7-0.5,0.7-1.3v-0.9c0-0.8-0.1-1.2-0.7-1.2
			c-0.5,0-0.6,0.3-0.8,0.8l-0.7-0.1c0.1-1,0.2-3.1,0.3-3.8h2.5L300.5,169.8z"/>
		<path class="st2" d="M353.5,174.7L353.5,174.7c0,0.7,0.2,1,0.6,1c0.5,0,0.7-0.3,0.7-1.5v-1.3c-0.2,0.3-0.4,0.5-0.9,0.5
			c-0.9,0-1.2-0.7-1.2-1.7v-1c0-1.1,0.5-1.7,1.5-1.7c0.9,0,1.5,0.6,1.5,1.8v3.2c0,1.4-0.1,2.4-1.5,2.4c-1.1,0-1.4-0.8-1.4-1.6v0
			H353.5z M353.4,170.7v1.1c0,0.5,0.1,1,0.7,1c0.6,0,0.7-0.5,0.7-1.3v-0.8c0-0.7-0.2-1-0.7-1C353.7,169.7,353.4,170,353.4,170.7z"/>
		<path class="st2" d="M357.6,174.7L357.6,174.7c0,0.7,0.2,1,0.6,1c0.5,0,0.7-0.3,0.7-1.5v-1.3c-0.2,0.3-0.4,0.5-0.9,0.5
			c-0.9,0-1.2-0.7-1.2-1.7v-1c0-1.1,0.5-1.7,1.5-1.7c0.9,0,1.5,0.6,1.5,1.8v3.2c0,1.4-0.1,2.4-1.5,2.4c-1.1,0-1.4-0.8-1.4-1.6v0
			H357.6z M357.5,170.7v1.1c0,0.5,0.1,1,0.7,1c0.6,0,0.7-0.5,0.7-1.3v-0.8c0-0.7-0.2-1-0.7-1C357.7,169.7,357.5,170,357.5,170.7z"/>
		<path class="st2" d="M360.7,176.3v-1.5h0.8v1.5H360.7z"/>
		<path class="st2" d="M365.5,169.1v0.6c-0.9,1.8-1.6,3.9-1.9,6.6h-0.8c0.2-2.3,1-4.8,1.9-6.5h-2.1v-0.7H365.5z"/>
		<path class="st2" d="M418.1,174.7L418.1,174.7c0,0.7,0.2,1,0.6,1c0.5,0,0.7-0.3,0.7-1.5v-1.3c-0.2,0.3-0.4,0.5-0.9,0.5
			c-0.9,0-1.2-0.7-1.2-1.7v-1c0-1.1,0.5-1.7,1.5-1.7c0.9,0,1.5,0.6,1.5,1.8v3.2c0,1.4-0.1,2.4-1.5,2.4c-1.1,0-1.4-0.8-1.4-1.6v0
			H418.1z M418,170.7v1.1c0,0.5,0.1,1,0.7,1c0.6,0,0.7-0.5,0.7-1.3v-0.8c0-0.7-0.2-1-0.7-1C418.3,169.7,418,170,418,170.7z"/>
		<path class="st2" d="M421.3,174.7v-0.8c0-0.9,0.4-1.2,0.7-1.4c-0.4-0.2-0.6-0.6-0.6-1.3v-0.4c0-1,0.5-1.6,1.5-1.6
			c0.8,0,1.4,0.5,1.4,1.6v0.4c0,0.9-0.3,1.2-0.6,1.4c0.4,0.2,0.7,0.6,0.7,1.4v0.8c0,1.2-0.5,1.8-1.5,1.8
			C421.9,176.4,421.3,175.9,421.3,174.7z M423.6,174.7v-0.9c0-0.7-0.2-1-0.7-1c-0.5,0-0.7,0.3-0.7,1v0.9c0,0.6,0.2,1,0.7,1
			C423.4,175.7,423.6,175.3,423.6,174.7z M422.2,170.6v0.6c0,0.5,0.2,0.9,0.7,0.9c0.4,0,0.7-0.3,0.7-0.9v-0.6c0-0.5-0.1-0.9-0.7-0.9
			C422.4,169.7,422.2,170.1,422.2,170.6z"/>
		<path class="st2" d="M425.5,176.3v-1.5h0.8v1.5H425.5z"/>
		<path class="st2" d="M427.3,176.3v-0.1c0-1.1,0.5-2,1.4-3.2c0.6-0.8,0.7-1.2,0.7-2c0-0.9-0.1-1.2-0.6-1.2c-0.5,0-0.7,0.4-0.7,1
			v0.3h-0.7v-0.4c0-0.8,0.2-1.6,1.4-1.6c1.1,0,1.4,0.8,1.4,1.9c0,1.1-0.3,1.6-0.9,2.4c-0.7,1-1.1,1.7-1.2,2.3h2.2l-0.1,0.7H427.3z"
			/>
		<path class="st2" d="M482.1,174.7v-0.8c0-0.9,0.4-1.2,0.7-1.4c-0.4-0.2-0.6-0.6-0.6-1.3v-0.4c0-1,0.5-1.6,1.5-1.6
			c0.8,0,1.4,0.5,1.4,1.6v0.4c0,0.9-0.3,1.2-0.6,1.4c0.4,0.2,0.7,0.6,0.7,1.4v0.8c0,1.2-0.5,1.8-1.5,1.8
			C482.6,176.4,482.1,175.9,482.1,174.7z M484.3,174.7v-0.9c0-0.7-0.2-1-0.7-1c-0.5,0-0.7,0.3-0.7,1v0.9c0,0.6,0.2,1,0.7,1
			C484.1,175.7,484.3,175.3,484.3,174.7z M482.9,170.6v0.6c0,0.5,0.2,0.9,0.7,0.9c0.4,0,0.7-0.3,0.7-0.9v-0.6c0-0.5-0.1-0.9-0.7-0.9
			C483.1,169.7,482.9,170.1,482.9,170.6z"/>
		<path class="st2" d="M487,174.7L487,174.7c0,0.7,0.2,1,0.6,1c0.5,0,0.7-0.3,0.7-1.5v-1.3c-0.2,0.3-0.4,0.5-0.9,0.5
			c-0.9,0-1.2-0.7-1.2-1.7v-1c0-1.1,0.5-1.7,1.5-1.7c0.9,0,1.5,0.6,1.5,1.8v3.2c0,1.4-0.1,2.4-1.5,2.4c-1.1,0-1.4-0.8-1.4-1.6v0H487
			z M486.9,170.7v1.1c0,0.5,0.1,1,0.7,1c0.6,0,0.7-0.5,0.7-1.3v-0.8c0-0.7-0.2-1-0.7-1C487.2,169.7,486.9,170,486.9,170.7z"/>
		<path class="st2" d="M490.2,176.3v-1.5h0.8v1.5H490.2z"/>
		<path class="st2" d="M494.9,169.8h-1.8c0,0.6-0.1,1.6-0.2,2.1c0.1-0.2,0.5-0.4,0.9-0.4c0.9,0,1.3,0.7,1.3,1.9v0.8
			c0,1.2-0.3,2.1-1.5,2.1c-1.1,0-1.5-0.8-1.5-1.7v-0.1h0.8v0.2c0,0.5,0.2,1,0.7,1c0.6,0,0.7-0.5,0.7-1.3v-0.9c0-0.8-0.1-1.2-0.7-1.2
			c-0.5,0-0.6,0.3-0.8,0.8l-0.7-0.1c0.1-1,0.2-3.1,0.3-3.8h2.5L494.9,169.8z"/>
		<path class="st2" d="M549.8,169.1v0.6c-0.9,1.8-1.6,3.9-1.9,6.6h-0.8c0.2-2.3,1-4.8,1.9-6.5h-2.1v-0.7H549.8z"/>
		<path class="st2" d="M551.6,174.7L551.6,174.7c0,0.7,0.2,1,0.6,1c0.5,0,0.7-0.3,0.7-1.5v-1.3c-0.2,0.3-0.4,0.5-0.9,0.5
			c-0.9,0-1.2-0.7-1.2-1.7v-1c0-1.1,0.5-1.7,1.5-1.7c0.9,0,1.5,0.6,1.5,1.8v3.2c0,1.4-0.1,2.4-1.5,2.4c-1.1,0-1.4-0.8-1.4-1.6v0
			H551.6z M551.5,170.7v1.1c0,0.5,0.1,1,0.7,1c0.6,0,0.7-0.5,0.7-1.3v-0.8c0-0.7-0.2-1-0.7-1C551.7,169.7,551.5,170,551.5,170.7z"/>
		<path class="st2" d="M554.7,176.3v-1.5h0.8v1.5H554.7z"/>
		<path class="st2" d="M559.4,169.8h-1.8c0,0.6-0.1,1.6-0.2,2.1c0.1-0.2,0.5-0.4,0.9-0.4c0.9,0,1.3,0.7,1.3,1.9v0.8
			c0,1.2-0.3,2.1-1.5,2.1c-1.1,0-1.5-0.8-1.5-1.7v-0.1h0.8v0.2c0,0.5,0.2,1,0.7,1c0.6,0,0.7-0.5,0.7-1.3v-0.9c0-0.8-0.1-1.2-0.7-1.2
			c-0.5,0-0.6,0.3-0.8,0.8l-0.7-0.1c0.1-1,0.2-3.1,0.3-3.8h2.5L559.4,169.8z"/>
		<path class="st2" d="M611.6,174.7v-0.8c0-0.9,0.4-1.2,0.7-1.4c-0.4-0.2-0.6-0.6-0.6-1.3v-0.4c0-1,0.5-1.6,1.5-1.6
			c0.9,0,1.4,0.5,1.4,1.6v0.4c0,0.9-0.3,1.2-0.6,1.4c0.4,0.2,0.7,0.6,0.7,1.4v0.8c0,1.2-0.5,1.8-1.5,1.8
			C612.2,176.4,611.6,175.9,611.6,174.7z M613.9,174.7v-0.9c0-0.7-0.2-1-0.7-1c-0.5,0-0.7,0.3-0.7,1v0.9c0,0.6,0.2,1,0.7,1
			C613.7,175.7,613.9,175.3,613.9,174.7z M612.5,170.6v0.6c0,0.5,0.2,0.9,0.7,0.9c0.4,0,0.7-0.3,0.7-0.9v-0.6c0-0.5-0.1-0.9-0.7-0.9
			C612.6,169.7,612.5,170.1,612.5,170.6z"/>
		<path class="st2" d="M615.8,170.8v-0.2c0-0.7,0.2-1.6,1.4-1.6c1,0,1.4,0.6,1.4,1.6v0.3c0,0.8-0.3,1.2-0.7,1.4v0
			c0.5,0.2,0.8,0.6,0.8,1.5v0.6c0,1.1-0.3,1.9-1.5,1.9c-1.1,0-1.5-0.7-1.5-1.6v-0.2h0.7v0.2c0,0.5,0.2,1,0.8,1s0.8-0.4,0.8-1.2v-0.7
			c0-0.9-0.3-1.1-0.9-1.1h-0.3V172h0.3c0.5,0,0.8-0.2,0.8-1v-0.4c0-0.5-0.1-1-0.6-1c-0.5,0-0.6,0.4-0.6,0.9v0.2H615.8z"/>
		<path class="st2" d="M619.9,176.3v-1.5h0.8v1.5H619.9z"/>
		<path class="st2" d="M622.6,174.7L622.6,174.7c0,0.7,0.2,1,0.6,1c0.5,0,0.7-0.3,0.7-1.5v-1.3c-0.2,0.3-0.4,0.5-0.9,0.5
			c-0.9,0-1.2-0.7-1.2-1.7v-1c0-1.1,0.5-1.7,1.5-1.7c0.9,0,1.5,0.6,1.5,1.8v3.2c0,1.4-0.1,2.4-1.5,2.4c-1.1,0-1.4-0.8-1.4-1.6v0
			H622.6z M622.5,170.7v1.1c0,0.5,0.1,1,0.7,1c0.6,0,0.7-0.5,0.7-1.3v-0.8c0-0.7-0.2-1-0.7-1C622.8,169.7,622.5,170,622.5,170.7z"/>
		<path class="st2" d="M679.9,169.8h-1.8c0,0.6-0.1,1.6-0.2,2.1c0.1-0.2,0.5-0.4,0.9-0.4c0.9,0,1.3,0.7,1.3,1.9v0.8
			c0,1.2-0.3,2.1-1.5,2.1c-1.1,0-1.5-0.8-1.5-1.7v-0.1h0.8v0.2c0,0.5,0.2,1,0.7,1c0.6,0,0.7-0.5,0.7-1.3v-0.9c0-0.8-0.1-1.2-0.7-1.2
			c-0.5,0-0.6,0.3-0.8,0.8l-0.7-0.1c0.1-1,0.2-3.1,0.3-3.8h2.5L679.9,169.8z"/>
		<path class="st2" d="M681.8,176.3v-6.2c-0.2,0.1-0.6,0.2-0.8,0.2v-0.6c0.4-0.1,0.9-0.4,1-0.6h0.6v7.2H681.8z"/>
		<path class="st2" d="M683.9,176.3v-1.5h0.8v1.5H683.9z"/>
		<path class="st2" d="M688.6,169.8h-1.8c0,0.6-0.1,1.6-0.2,2.1c0.1-0.2,0.5-0.4,0.9-0.4c0.9,0,1.3,0.7,1.3,1.9v0.8
			c0,1.2-0.3,2.1-1.5,2.1c-1.1,0-1.5-0.8-1.5-1.7v-0.1h0.8v0.2c0,0.5,0.2,1,0.7,1c0.6,0,0.7-0.5,0.7-1.3v-0.9c0-0.8-0.1-1.2-0.7-1.2
			c-0.5,0-0.6,0.3-0.8,0.8l-0.7-0.1c0.1-1,0.2-3.1,0.3-3.8h2.5L688.6,169.8z"/>
		<path class="st2" d="M741.2,176.3v-0.1c0-1.1,0.5-2,1.4-3.2c0.6-0.8,0.7-1.2,0.7-2c0-0.9-0.1-1.2-0.6-1.2c-0.5,0-0.7,0.4-0.7,1
			v0.3h-0.7v-0.4c0-0.8,0.2-1.6,1.4-1.6c1.1,0,1.4,0.8,1.4,1.9c0,1.1-0.3,1.6-0.9,2.4c-0.7,1-1.1,1.7-1.2,2.3h2.2l-0.1,0.7H741.2z"
			/>
		<path class="st2" d="M745.1,176.3v-0.1c0-1.1,0.5-2,1.4-3.2c0.6-0.8,0.7-1.2,0.7-2c0-0.9-0.1-1.2-0.6-1.2c-0.5,0-0.7,0.4-0.7,1
			v0.3h-0.7v-0.4c0-0.8,0.2-1.6,1.4-1.6c1.1,0,1.4,0.8,1.4,1.9c0,1.1-0.3,1.6-0.9,2.4c-0.7,1-1.1,1.7-1.2,2.3h2.2l-0.1,0.7H745.1z"
			/>
		<path class="st2" d="M749.3,176.3v-1.5h0.8v1.5H749.3z"/>
		<path class="st2" d="M754,169.8h-1.8c0,0.6-0.1,1.6-0.2,2.1c0.1-0.2,0.5-0.4,0.9-0.4c0.9,0,1.3,0.7,1.3,1.9v0.8
			c0,1.2-0.3,2.1-1.5,2.1c-1.1,0-1.5-0.8-1.5-1.7v-0.1h0.8v0.2c0,0.5,0.2,1,0.7,1c0.6,0,0.7-0.5,0.7-1.3v-0.9c0-0.8-0.1-1.2-0.7-1.2
			c-0.5,0-0.6,0.3-0.8,0.8l-0.7-0.1c0.1-1,0.2-3.1,0.3-3.8h2.5L754,169.8z"/>
	</g>
</g>
</svg>
