<?xml version="1.0" encoding="utf-8"?>
<!-- Generator: Adobe Illustrator 23.0.1, SVG Export Plug-In . SVG Version: 6.00 Build 0)  -->
<svg version="1.1" id="Layer_2_copy_2" xmlns="http://www.w3.org/2000/svg" xmlns:xlink="http://www.w3.org/1999/xlink" x="0px"
	 y="0px" width="864px" height="432px" viewBox="0 0 864 432" style="enable-background:new 0 0 864 432;" xml:space="preserve">
<style type="text/css">
	.st0{fill:#D1D3D4;}
	.st1{fill:#EC008C;}
</style>
<path class="st0" d="M838,41.7c0-13.1-10.6-23.7-23.7-23.7H33.7C20.6,18,10,28.6,10,41.7v127.5c0,13.1,10.6,23.7,23.7,23.7h780.7
	c13.1,0,23.7-10.6,23.7-23.7V41.7z"/>
<path class="st1" d="M33.4,176c-3.7,0-6.6-3-6.6-6.6s3-6.6,6.6-6.6s6.6,3,6.6,6.6S37.1,176,33.4,176z"/>
<circle class="st1" cx="33.4" cy="41.4" r="6.6"/>
<path class="st1" d="M814.6,48c-3.7,0-6.6-3-6.6-6.6s3-6.6,6.6-6.6s6.6,3,6.6,6.6S818.3,48,814.6,48z"/>
<path class="st1" d="M814.6,176c-3.7,0-6.6-3-6.6-6.6s3-6.6,6.6-6.6s6.6,3,6.6,6.6S818.3,176,814.6,176z"/>
</svg>
