<?xml version="1.0" encoding="utf-8"?>
<!-- Generator: Adobe Illustrator 23.0.1, SVG Export Plug-In . SVG Version: 6.00 Build 0)  -->
<svg version="1.1" xmlns="http://www.w3.org/2000/svg" xmlns:xlink="http://www.w3.org/1999/xlink" x="0px" y="0px" width="1440px"
	 height="864px" viewBox="0 0 1440 864" style="enable-background:new 0 0 1440 864;" xml:space="preserve">
<style type="text/css">
	.st0{fill:#BCBEC0;}
	.st1{fill:#EC008C;}
	.st2{fill:#EF4136;}
</style>
<g id="Bottom">
	<path class="st0" d="M1080,612H36c-19.9,0-36-16.1-36-36V36C0,16.1,16.1,0,36,0h1044c19.9,0,36,16.1,36,36v540
		C1116,595.9,1099.9,612,1080,612z"/>
	<circle class="st1" cx="36" cy="36" r="6.6"/>
	<circle class="st1" cx="36" cy="576" r="6.6"/>
	<circle class="st1" cx="1080" cy="576" r="6.6"/>
	<circle class="st1" cx="1080" cy="36" r="6.6"/>
</g>
<g id="Layer_4">
	<g>
		<circle class="st2" cx="108.3" cy="108.3" r="72.3"/>
		<circle class="st2" cx="108.3" cy="503.7" r="72.3"/>
		<circle class="st2" cx="108.3" cy="306" r="72.3"/>
	</g>
	<g>
		<circle class="st2" cx="288.2" cy="108.3" r="72.3"/>
		<circle class="st2" cx="288.2" cy="503.7" r="72.3"/>
		<circle class="st2" cx="288.2" cy="306" r="72.3"/>
	</g>
	<g>
		<circle class="st2" cx="468.1" cy="108.3" r="72.3"/>
		<circle class="st2" cx="468.1" cy="503.7" r="72.3"/>
		<circle class="st2" cx="468.1" cy="306" r="72.3"/>
	</g>
	<g>
		<circle class="st2" cx="647.9" cy="108.3" r="72.3"/>
		<circle class="st2" cx="647.9" cy="503.7" r="72.3"/>
		<circle class="st2" cx="647.9" cy="306" r="72.3"/>
	</g>
	<g>
		<circle class="st2" cx="827.8" cy="108.3" r="72.3"/>
		<circle class="st2" cx="827.8" cy="503.7" r="72.3"/>
		<circle class="st2" cx="827.8" cy="306" r="72.3"/>
	</g>
	<g>
		<circle class="st2" cx="1007.7" cy="108.3" r="72.3"/>
		<circle class="st2" cx="1007.7" cy="503.7" r="72.3"/>
		<circle class="st2" cx="1007.7" cy="306" r="72.3"/>
	</g>
</g>
</svg>
