<?xml version="1.0" encoding="utf-8"?>
<!-- Generator: Adobe Illustrator 23.0.1, SVG Export Plug-In . SVG Version: 6.00 Build 0)  -->
<svg version="1.1" id="Layer_1" xmlns="http://www.w3.org/2000/svg" xmlns:xlink="http://www.w3.org/1999/xlink" x="0px" y="0px"
	 width="1440px" height="864px" viewBox="0 0 1440 864" style="enable-background:new 0 0 1440 864;" xml:space="preserve">
<style type="text/css">
	.st0{fill:#9B8579;}
	.st1{fill:none;stroke:#231F20;stroke-width:0.75;stroke-linecap:round;stroke-linejoin:round;stroke-miterlimit:10;}
</style>
<path class="st0" d="M720,395.8c-19.7,0-35.6,16-35.6,35.6s16,35.6,35.6,35.6c19.7,0,35.6-16,35.6-35.6S739.7,395.8,720,395.8z
	 M711.7,435.2h-5.3v-7.5h5.3V435.2z M723.1,435.2h-5.3v-7.5h5.3V435.2z M734.5,435.2h-5.3v-7.5h5.3V435.2z"/>
<g>
	<line class="st1" x1="720" y1="423.2" x2="720" y2="408.8"/>
	<line class="st1" x1="720" y1="404.5" x2="720" y2="403"/>
	<line class="st1" x1="719.3" y1="423.2" x2="718.1" y2="408.9"/>
	<line class="st1" x1="717.7" y1="404.6" x2="717.6" y2="403.2"/>
	<polyline class="st1" points="718.6,423.2 716.1,409.1 715.8,407.7 	"/>
	<polyline class="st1" points="715.6,406.3 715.3,404.9 715.1,403.5 	"/>
	<line class="st1" x1="722" y1="408.9" x2="720.8" y2="423.2"/>
	<line class="st1" x1="722.5" y1="403.2" x2="722.4" y2="404.6"/>
	<polyline class="st1" points="721.5,423.2 724,409.1 724.2,407.7 	"/>
	<polyline class="st1" points="724.5,406.3 724.7,404.9 725,403.5 	"/>
	<polyline class="st1" points="717.8,423.2 714.2,409.6 713.8,408.2 	"/>
	<polyline class="st1" points="712.7,404 713,405.4 713.4,406.8 	"/>
	<polyline class="st1" points="722.2,423.2 725.9,409.6 726.3,408.2 	"/>
	<polyline class="st1" points="726.7,406.8 727,405.4 727.4,404 	"/>
	<polyline class="st1" points="710.3,404.8 710.8,406.1 711.3,407.5 711.8,408.8 712.3,410.2 717,423.2 	"/>
	<polyline class="st1" points="729.8,404.7 729.3,406.1 728.8,407.5 728.3,408.8 727.8,410.2 727.8,410.2 723,423.2 	"/>
	<polyline class="st1" points="716.2,423.2 710.5,410.9 709.8,409.6 709.2,408.3 708.6,407 708,405.7 	"/>
	<polyline class="st1" points="715.3,423.2 708.7,411.8 708,410.6 	"/>
	<polyline class="st1" points="707.3,409.4 706.5,408.1 705.8,406.9 	"/>
	<polyline class="st1" points="732,405.7 731.4,407 730.8,408.3 730.2,409.6 729.6,410.9 723.9,423.2 	"/>
	<polyline class="st1" points="734.3,406.9 733.5,408.1 732.8,409.4 	"/>
	<polyline class="st1" points="732.1,410.6 731.4,411.8 724.8,423.2 	"/>
	<polyline class="st1" points="736.3,408.2 735.5,409.4 734.7,410.6 	"/>
	<polyline class="st1" points="725.8,423.2 733,412.9 733.9,411.7 	"/>
	<line class="st1" x1="734.6" y1="414.1" x2="727" y2="423.2"/>
	<line class="st1" x1="738.3" y1="409.7" x2="737.4" y2="410.8"/>
	<polyline class="st1" points="714.2,423.2 707,412.9 706.2,411.7 	"/>
	<polyline class="st1" points="705.4,410.6 704.6,409.4 703.7,408.2 	"/>
	<line class="st1" x1="702.7" y1="410.8" x2="701.8" y2="409.7"/>
	<line class="st1" x1="713.1" y1="423.2" x2="705.5" y2="414.1"/>
	<line class="st1" x1="740.2" y1="411.4" x2="739.1" y2="412.4"/>
	<line class="st1" x1="736.1" y1="415.4" x2="728.3" y2="423.2"/>
	<line class="st1" x1="737.4" y1="416.9" x2="729.9" y2="423.2"/>
	<line class="st1" x1="741.8" y1="413.2" x2="740.7" y2="414.1"/>
	<polyline class="st1" points="731.8,423.2 738.6,418.5 739.8,417.6 	"/>
	<polyline class="st1" points="743.3,415.2 742.2,416 741,416.8 	"/>
	<polyline class="st1" points="744.7,417.3 743.4,418 742.2,418.7 	"/>
	<polyline class="st1" points="740.9,419.4 739.7,420.1 734.4,423.2 	"/>
	<polyline class="st1" points="737.8,423.2 740.6,421.9 741.9,421.3 743.2,420.7 744.5,420.1 745.8,419.5 	"/>
	<polyline class="st1" points="742.7,423.2 742.8,423.2 744.1,422.7 745.4,422.2 746.8,421.7 	"/>
	<line class="st1" x1="711.8" y1="423.2" x2="704" y2="415.4"/>
	<line class="st1" x1="701" y1="412.4" x2="699.9" y2="411.4"/>
	<polyline class="st1" points="710.2,423.2 702.7,416.9 702.7,416.9 	"/>
	<line class="st1" x1="699.4" y1="414.1" x2="698.2" y2="413.2"/>
	<polyline class="st1" points="700.3,417.6 701.5,418.5 708.2,423.2 	"/>
	<polyline class="st1" points="696.8,415.2 697.9,416 699.1,416.8 	"/>
	<polyline class="st1" points="699.2,419.4 700.4,420.1 705.7,423.2 	"/>
	<polyline class="st1" points="695.4,417.3 696.7,418 697.9,418.7 	"/>
	<polyline class="st1" points="694.3,419.5 695.6,420.1 696.9,420.7 698.2,421.3 699.5,421.9 702.3,423.2 	"/>
	<polyline class="st1" points="693.3,421.7 694.7,422.2 696,422.7 697.3,423.2 697.4,423.2 	"/>
	<line class="st1" x1="720" y1="439.8" x2="720" y2="454.2"/>
	<line class="st1" x1="720" y1="458.5" x2="720" y2="459.9"/>
	<line class="st1" x1="720.8" y1="439.8" x2="722" y2="454.1"/>
	<line class="st1" x1="722.4" y1="458.4" x2="722.5" y2="459.8"/>
	<polyline class="st1" points="721.5,439.8 724,453.8 724.2,455.2 	"/>
	<polyline class="st1" points="724.5,456.6 724.7,458.1 725,459.5 	"/>
	<line class="st1" x1="718.1" y1="454.1" x2="719.3" y2="439.8"/>
	<line class="st1" x1="717.6" y1="459.8" x2="717.7" y2="458.4"/>
	<polyline class="st1" points="718.6,439.8 716.1,453.8 715.8,455.2 	"/>
	<polyline class="st1" points="715.6,456.6 715.3,458.1 715.1,459.5 	"/>
	<polyline class="st1" points="722.3,439.8 725.9,453.4 726.3,454.8 	"/>
	<polyline class="st1" points="727.4,459 727,457.6 726.7,456.2 	"/>
	<polyline class="st1" points="717.8,439.8 714.2,453.4 713.8,454.8 	"/>
	<polyline class="st1" points="713.4,456.2 713,457.6 712.7,459 	"/>
	<polyline class="st1" points="729.8,458.2 729.3,456.9 728.8,455.5 728.3,454.2 727.8,452.8 723.1,439.8 	"/>
	<polyline class="st1" points="710.3,458.2 710.8,456.9 711.3,455.5 711.8,454.2 712.3,452.8 712.3,452.8 717,439.8 	"/>
	<polyline class="st1" points="723.9,439.8 729.6,452 730.2,453.3 730.8,454.6 731.4,455.9 732.1,457.3 	"/>
	<polyline class="st1" points="724.8,439.8 731.4,451.1 732.1,452.4 	"/>
	<polyline class="st1" points="732.8,453.6 733.5,454.9 734.3,456.1 	"/>
	<polyline class="st1" points="708,457.3 708.6,455.9 709.2,454.6 709.8,453.3 710.5,452 716.2,439.8 	"/>
	<polyline class="st1" points="705.8,456.1 706.5,454.9 707.3,453.6 	"/>
	<polyline class="st1" points="708,452.4 708.7,451.1 715.3,439.8 	"/>
	<polyline class="st1" points="703.7,454.8 704.6,453.6 705.4,452.4 	"/>
	<polyline class="st1" points="714.2,439.8 707,450.1 706.2,451.2 	"/>
	<line class="st1" x1="705.5" y1="448.9" x2="713.1" y2="439.8"/>
	<line class="st1" x1="701.8" y1="453.3" x2="702.7" y2="452.2"/>
	<polyline class="st1" points="725.8,439.8 733,450.1 733.9,451.2 	"/>
	<polyline class="st1" points="734.7,452.4 735.5,453.6 736.3,454.8 	"/>
	<line class="st1" x1="737.4" y1="452.2" x2="738.3" y2="453.3"/>
	<line class="st1" x1="727" y1="439.8" x2="734.6" y2="448.9"/>
	<line class="st1" x1="699.9" y1="451.6" x2="700.9" y2="450.6"/>
	<line class="st1" x1="704" y1="447.5" x2="711.8" y2="439.8"/>
	<line class="st1" x1="702.7" y1="446.1" x2="710.2" y2="439.8"/>
	<line class="st1" x1="698.3" y1="449.8" x2="699.4" y2="448.8"/>
	<polyline class="st1" points="708.2,439.8 701.5,444.5 700.3,445.3 	"/>
	<polyline class="st1" points="696.7,447.8 697.9,447 699.1,446.1 	"/>
	<polyline class="st1" points="695.4,445.7 696.7,445 697.9,444.3 	"/>
	<polyline class="st1" points="699.1,443.5 700.4,442.8 705.7,439.8 	"/>
	<polyline class="st1" points="702.3,439.8 699.5,441.1 698.2,441.7 696.9,442.3 695.6,442.9 694.3,443.5 	"/>
	<polyline class="st1" points="697.4,439.7 697.3,439.8 696,440.2 694.7,440.7 693.3,441.2 	"/>
	<line class="st1" x1="728.3" y1="439.8" x2="736.1" y2="447.5"/>
	<line class="st1" x1="739.1" y1="450.6" x2="740.1" y2="451.6"/>
	<polyline class="st1" points="729.9,439.8 737.4,446 737.4,446 	"/>
	<line class="st1" x1="740.7" y1="448.8" x2="741.8" y2="449.8"/>
	<polyline class="st1" points="739.8,445.3 738.6,444.5 731.9,439.8 	"/>
	<polyline class="st1" points="743.3,447.8 742.1,447 741,446.1 	"/>
	<polyline class="st1" points="740.9,443.5 739.7,442.8 734.4,439.8 	"/>
	<polyline class="st1" points="744.7,445.7 743.4,445 742.2,444.3 	"/>
	<polyline class="st1" points="745.8,443.5 744.5,442.9 743.2,442.3 741.9,441.7 740.6,441.1 737.8,439.8 	"/>
	<polyline class="st1" points="746.8,441.2 745.4,440.7 744.1,440.2 742.8,439.8 742.7,439.7 	"/>
</g>
</svg>
