<?xml version="1.0" encoding="utf-8"?>
<!-- Generator: Adobe Illustrator 23.0.1, SVG Export Plug-In . SVG Version: 6.00 Build 0)  -->
<svg version="1.1" id="Layer_1" xmlns="http://www.w3.org/2000/svg" xmlns:xlink="http://www.w3.org/1999/xlink" x="0px" y="0px"
	 width="1440px" height="864px" viewBox="0 0 1440 864" style="enable-background:new 0 0 1440 864;" xml:space="preserve">
<path d="M720,401.8c-12.6,0-22.8,10.2-22.8,22.8v27.2h0.4c1.7,0,3.1-1.4,3.1-3.1c0-1.4,1.2-2.6,2.6-2.6c1.4,0,2.6,1.2,2.6,2.6V461
	h6.1v-12.2c0-1.4,1.2-2.6,2.6-2.6c1.4,0,2.6,1.2,2.6,2.6V461h6.1l0-12.2c0-1.4,1.2-2.6,2.6-2.6c1.4,0,2.6,1.2,2.6,2.7V461h6.1
	l0-12.2c0-1.4,1.2-2.6,2.6-2.6s2.6,1.2,2.6,2.6c0,1.3,1,2.6,2.4,2.9l0.3,0.1v-27.1C742.8,412,732.6,401.8,720,401.8z M712.6,429.9
	c-2.7,0-4.8-2.2-4.8-4.8s2.2-4.8,4.8-4.8s4.8,2.2,4.8,4.8S715.2,429.9,712.6,429.9z M728.6,429.9c-2.7,0-4.8-2.2-4.8-4.8
	s2.2-4.8,4.8-4.8s4.8,2.2,4.8,4.8S731.3,429.9,728.6,429.9z"/>
<path d="M772.1,401.8c-12.6,0-22.8,10.2-22.8,22.8v27.2h0.4c1.7,0,3.1-1.4,3.1-3.1c0-1.4,1.2-2.6,2.6-2.6c1.4,0,2.6,1.2,2.6,2.6V461
	h6.1v-12.2c0-1.4,1.2-2.6,2.6-2.6c1.4,0,2.6,1.2,2.6,2.6V461h6.1l0-12.2c0-1.4,1.2-2.6,2.6-2.6c1.4,0,2.6,1.2,2.6,2.7V461h6.1
	l0-12.2c0-1.4,1.2-2.6,2.6-2.6s2.6,1.2,2.6,2.6c0,1.3,1,2.6,2.4,2.9l0.3,0.1v-27.1C794.9,412,784.7,401.8,772.1,401.8z M764.6,429.9
	c-2.7,0-4.8-2.2-4.8-4.8s2.2-4.8,4.8-4.8s4.8,2.2,4.8,4.8S767.3,429.9,764.6,429.9z M780.6,429.9c-2.7,0-4.8-2.2-4.8-4.8
	s2.2-4.8,4.8-4.8s4.8,2.2,4.8,4.8S783.3,429.9,780.6,429.9z"/>
<path d="M824.1,401.8c-12.6,0-22.8,10.2-22.8,22.8v27.2h0.4c1.7,0,3.1-1.4,3.1-3.1c0-1.4,1.2-2.6,2.6-2.6c1.4,0,2.6,1.2,2.6,2.6V461
	h6.1v-12.2c0-1.4,1.2-2.6,2.6-2.6c1.4,0,2.6,1.2,2.6,2.6V461h6.1l0-12.2c0-1.4,1.2-2.6,2.6-2.6c1.4,0,2.6,1.2,2.6,2.7V461h6.1
	l0-12.2c0-1.4,1.2-2.6,2.6-2.6s2.6,1.2,2.6,2.6c0,1.3,1,2.6,2.4,2.9l0.3,0.1v-27.1C846.9,412,836.7,401.8,824.1,401.8z M816.7,429.9
	c-2.7,0-4.8-2.2-4.8-4.8s2.2-4.8,4.8-4.8s4.8,2.2,4.8,4.8S819.3,429.9,816.7,429.9z M832.7,429.9c-2.7,0-4.8-2.2-4.8-4.8
	s2.2-4.8,4.8-4.8s4.8,2.2,4.8,4.8S835.3,429.9,832.7,429.9z"/>
<path d="M876.2,401.8c-12.6,0-22.8,10.2-22.8,22.8v27.2h0.4c1.7,0,3.1-1.4,3.1-3.1c0-1.4,1.2-2.6,2.6-2.6c1.4,0,2.6,1.2,2.6,2.6V461
	h6.1v-12.2c0-1.4,1.2-2.6,2.6-2.6c1.4,0,2.6,1.2,2.6,2.6V461h6.1l0-12.2c0-1.4,1.2-2.6,2.6-2.6c1.4,0,2.6,1.2,2.6,2.7V461h6.1
	l0-12.2c0-1.4,1.2-2.6,2.6-2.6s2.6,1.2,2.6,2.6c0,1.3,1,2.6,2.4,2.9l0.3,0.1v-27.1C899,412,888.7,401.8,876.2,401.8z M868.7,429.9
	c-2.7,0-4.8-2.2-4.8-4.8s2.2-4.8,4.8-4.8s4.8,2.2,4.8,4.8S871.4,429.9,868.7,429.9z M884.7,429.9c-2.7,0-4.8-2.2-4.8-4.8
	s2.2-4.8,4.8-4.8s4.8,2.2,4.8,4.8S887.4,429.9,884.7,429.9z"/>
<path d="M928.2,401.8c-12.6,0-22.8,10.2-22.8,22.8v27.2h0.4c1.7,0,3.1-1.4,3.1-3.1c0-1.4,1.2-2.6,2.6-2.6c1.4,0,2.6,1.2,2.6,2.6V461
	h6.1v-12.2c0-1.4,1.2-2.6,2.6-2.6c1.4,0,2.6,1.2,2.6,2.6V461h6.1l0-12.2c0-1.4,1.2-2.6,2.6-2.6c1.4,0,2.6,1.2,2.6,2.7V461h6.1
	l0-12.2c0-1.4,1.2-2.6,2.6-2.6s2.6,1.2,2.6,2.6c0,1.3,1,2.6,2.4,2.9l0.3,0.1v-27.1C951,412,940.8,401.8,928.2,401.8z M920.7,429.9
	c-2.7,0-4.8-2.2-4.8-4.8s2.2-4.8,4.8-4.8s4.8,2.2,4.8,4.8S923.4,429.9,920.7,429.9z M936.8,429.9c-2.7,0-4.8-2.2-4.8-4.8
	s2.2-4.8,4.8-4.8s4.8,2.2,4.8,4.8S939.4,429.9,936.8,429.9z"/>
</svg>
