0
SECTION
2
HEADER
9
$INSUNITS
70
1
9
$ACADVER
1
AC1014
9
$HANDSEED
5
FFFF
0
ENDSEC
0
SECTION
2
TABLES
0
TABLE
2
VPORT
5
8
100
AcDbSymbolTable
0
ENDTAB
0
TABLE
2
LTYPE
5
5
100
AcDbSymbolTable
0
LTYPE
5
14
100
AcDbSymbolTableRecord
100
AcDbLinetypeTableRecord
2
BYBLOCK
70
0
0
LTYPE
5
15
100
AcDbSymbolTableRecord
100
AcDbLinetypeTableRecord
2
BYLAYER
70
0
0
ENDTAB
0
TABLE
2
LAYER
5
2
100
AcDbSymbolTable
70
2
0
LAYER
5
50
100
AcDbSymbolTableRecord
100
AcDbLayerTableRecord
2
0
70
0
6
CONTINUOUS
0
ENDTAB
0
TABLE
2
STYLE
5
3
100
AcDbSymbolTable
70
1
0
STYLE
5
11
100
AcDbSymbolTableRecord
100
AcDbTextStyleTableRecord
2
STANDARD
70
0
0
ENDTAB
0
TABLE
2
VIEW
5
6
100
AcDbSymbolTable
70
0
0
ENDTAB
0
TABLE
2
UCS
5
7
100
AcDbSymbolTable
70
0
0
ENDTAB
0
TABLE
2
APPID
5
9
100
AcDbSymbolTable
70
2
0
APPID
5
12
100
AcDbSymbolTableRecord
100
AcDbRegAppTableRecord
2
ACAD
70
0
0
ENDTAB
0
TABLE
2
DIMSTYLE
5
A
100
AcDbSymbolTable
70
1
0
ENDTAB
0
TABLE
2
BLOCK_RECORD
5
1
100
AcDbSymbolTable
70
1
0
BLOCK_RECORD
5
1F
100
AcDbSymbolTableRecord
100
AcDbBlockTableRecord
2
*MODEL_SPACE
0
BLOCK_RECORD
5
1B
100
AcDbSymbolTableRecord
100
AcDbBlockTableRecord
2
*PAPER_SPACE
0
ENDTAB
0
ENDSEC
0
SECTION
2
BLOCKS
0
BLOCK
5
20
100
AcDbEntity
100
AcDbBlockBegin
2
*MODEL_SPACE
0
ENDBLK
5
21
100
AcDbEntity
100
AcDbBlockEnd
0
BLOCK
5
1C
100
AcDbEntity
100
AcDbBlockBegin
2
*PAPER_SPACE
0
ENDBLK
5
1D
100
AcDbEntity
100
AcDbBlockEnd
0
ENDSEC
0
SECTION
2
ENTITIES
0
LWPOLYLINE
5
100
100
AcDbEntity
8
0
100
AcDbPolyline
90
4
70
1
43
0.0
10
1.8539539649595
20
2.7686605551287844
10
1.8975253611663676
20
2.6345615863311678
10
2.848581877461521
20
2.9435785807061157
10
2.8050104812546541
20
3.0776775495037323
0
LWPOLYLINE
5
101
100
AcDbEntity
8
0
100
AcDbPolyline
90
4
70
1
43
0.0
10
2.1616681531672639
20
8.1550818714866775
10
1.2106116368721109
20
7.8460648771117301
10
1.2564253140409505
20
7.7050648771117292
10
2.2074818303361039
20
8.0140818714866793
0
LWPOLYLINE
5
102
100
AcDbEntity
8
0
100
AcDbPolyline
90
4
70
1
43
0.0
10
0.6481411090087067
20
6.4395616688806134
10
0.95715810338365359
20
5.4885051525854616
10
1.0912570721812702
20
5.5320765487923289
10
0.78224007780632299
20
6.4831330650874825
0
LWPOLYLINE
5
103
100
AcDbEntity
8
0
100
AcDbPolyline
90
4
70
1
43
0.0
10
1.2914834370960948
20
1.36215734689767
10
1.600500431471042
20
0.41110083060251651
10
1.7345994002686589
20
0.45467222680938424
10
1.4255824058937117
20
1.4057287431045375
0
LWPOLYLINE
5
104
100
AcDbEntity
8
0
100
AcDbPolyline
90
4
70
1
43
0.0
10
1.103911241850017
20
3.944430904096011
10
0.9698122730524007
20
3.9008595078891415
10
1.2788292674273478
20
2.9498029915939896
10
1.4129282362249647
20
2.9933743878008565
0
LWPOLYLINE
5
105
100
AcDbEntity
8
0
100
AcDbPolyline
90
4
70
1
43
0.0
10
0.76958590813757555
20
8.0707787097838022
10
0.46056891376262793
20
9.0218352260789558
10
0.32646994496501158
20
8.9782638298720876
10
0.63487523349141073
20
8.0290899505966049
0
LWPOLYLINE
5
106
100
AcDbEntity
8
0
100
AcDbPolyline
90
4
70
1
43
0.0
10
1.5758541971226729
20
5.1732637473226397
10
2.5269107134178261
20
5.4822807416975881
10
2.4833393172109592
20
5.6163797104952051
10
1.5322828009158056
20
5.3073627161202559
0
LWPOLYLINE
5
107
100
AcDbEntity
8
0
100
AcDbPolyline
90
4
70
1
43
0.0
10
2.2191965252100618
20
0.095859425339695103
10
3.1702530415052155
20
0.40487641971464239
10
3.1266816452983477
20
0.53897538851225935
10
2.1756251290031945
20
0.22995839413731176
0
LWPOLYLINE
5
108
100
AcDbEntity
8
0
100
AcDbPolyline
90
15
70
1
43
0.0
10
3.9101055052165608
20
0.30607311288921352
42
-0.69051663165445176
10
3.7941536226206689
20
1.9669305554382694e-16
10
0.99999999999999978
20
1.3112870369588462e-16
42
-0.41421356237309442
10
0.84999999999999987
20
0.15000000000000008
10
0.84999999999999987
20
2.0999999999999996
10
0.15000000000000002
20
2.0999999999999996
42
-0.41421356237309509
10
9.1848509936051303e-18
20
2.2499999999999996
10
5.2451481478353848e-16
20
9.2999999999999972
42
-0.41421356237309481
10
0.30000000000000043
20
9.5999999999999979
10
0.63017809036377481
20
9.5999999999999996
42
-0.17898707827765939
10
1.2808329820932765
20
9.3593735654264432
10
2.3370437321720732
20
8.4543793405483054
42
-0.1861863585225895
10
2.5760329487171987
20
8.0108091752814818
10
3.4834290368970406
20
0.84943237986421605
42
0.18209865219919316
10
3.6481719728771904
20
0.53778872198909566
0
ENDSEC
0
SECTION
2
OBJECTS
0
DICTIONARY
5
C
100
AcDbDictionary
3
ACAD_GROUP
350
D
3
ACAD_MLINESTYLE
350
17
0
DICTIONARY
5
D
100
AcDbDictionary
0
DICTIONARY
5
1A
330
C
100
AcDbDictionary
0
DICTIONARY
5
17
100
AcDbDictionary
0
ENDSEC
0
EOF
