<?xml version="1.0" encoding="utf-8"?>
<!-- Generator: Adobe Illustrator 23.0.1, SVG Export Plug-In . SVG Version: 6.00 Build 0)  -->
<svg version="1.1" id="_x30_" xmlns="http://www.w3.org/2000/svg" xmlns:xlink="http://www.w3.org/1999/xlink" x="0px" y="0px"
	 width="1440px" height="792px" viewBox="0 0 1440 792" style="enable-background:new 0 0 1440 792;" xml:space="preserve">
<path d="M297.6,737.6l-18.9-16.7c-6.5-5.8-10.8-13.8-11.9-22.4l-65.3-515.6c-1.6-12.4-7.7-23.8-17.2-31.9l-76-65.2
	c-13-11.2-29.7-17.3-46.8-17.3H37.7c-11.9,0-21.6,9.7-21.6,21.6v507.6c0,6,4.8,10.8,10.8,10.8h50.4v140.4c0,6,4.8,10.8,10.8,10.8
	h201.2c7,0,12.6-5.6,12.6-12.6C301.9,743.4,300.3,740,297.6,737.6z M194.9,355.2l3.1,9.7l-68.5,22.2l-3.1-9.7L194.9,355.2z
	 M171.7,172.4l3.3,10.2l-68.5,22.2l-3.3-10.2L171.7,172.4z M39.6,113.2l9.7-3.1l22.2,68.5l-9.7,3L39.6,113.2z M62.7,296l9.7-3.1
	l22.2,68.5l-9.7,3.1L62.7,296z M85.9,478.7l9.7-3.1l22.2,68.5l-9.7,3.1L85.9,478.7z M131.3,730l-22.2-68.5l9.7-3.1l22.2,68.5
	L131.3,730z M149.6,560.3L218,538l3.1,9.7l-68.5,22.2L149.6,560.3z M175.9,752.7l-3.1-9.7l68.5-22.2l3.1,9.7L175.9,752.7z"/>
<g id="LWPOLYLINE">
	<path d="M1209.2,197.7v64.8c0,2-1.6,3.6-3.6,3.6h-6.6v9c0,2-1.6,3.6-3.6,3.6H356.6c-2,0-3.6-1.6-3.6-3.6v-9h-6.6
		c-2,0-3.6-1.6-3.6-3.6v-64.8c0-2,1.6-3.6,3.6-3.6h6.6v-9c0-2,1.6-3.6,3.6-3.6h838.8c2,0,3.6,1.6,3.6,3.6v9h6.6
		C1207.5,194.1,1209.2,195.7,1209.2,197.7z"/>
</g>
</svg>
