<?xml version="1.0" encoding="utf-8"?>
<!-- Generator: Adobe Illustrator 23.0.1, SVG Export Plug-In . SVG Version: 6.00 Build 0)  -->
<svg version="1.1" xmlns="http://www.w3.org/2000/svg" xmlns:xlink="http://www.w3.org/1999/xlink" x="0px" y="0px" width="864px"
	 height="432px" viewBox="0 0 864 432" enable-background="new 0 0 864 432" xml:space="preserve">
<g id="Layer_2">
	<path fill="#D1D3D4" d="M821.647,271.645c-4.455-2.572-7.2-7.326-7.2-12.471v-86.349c0-5.145,2.745-9.898,7.2-12.471l12.761-7.367
		c2.228-1.286,3.6-3.663,3.6-6.235V41.659c0-13.066-10.592-23.659-23.659-23.659H33.667C20.6,18,10.008,28.592,10.008,41.659
		v348.683C10.008,403.408,20.6,414,33.667,414h780.683c13.066,0,23.659-10.592,23.659-23.659V285.248c0-2.572-1.372-4.949-3.6-6.235
		L821.647,271.645z"/>
	<path fill="#EC008C" d="M33.408,397.225c-3.652,0-6.624-2.973-6.624-6.625s2.972-6.624,6.624-6.624s6.624,2.972,6.624,6.624
		S37.06,397.225,33.408,397.225z"/>
	<circle fill="#EC008C" cx="33.408" cy="41.4" r="6.624"/>
	<path fill="#EC008C" d="M814.608,48.024c-3.652,0-6.624-2.972-6.624-6.624s2.972-6.624,6.624-6.624s6.625,2.972,6.625,6.624
		S818.26,48.024,814.608,48.024z"/>
	<path fill="#EC008C" d="M814.608,397.225c-3.652,0-6.624-2.973-6.624-6.625s2.972-6.624,6.624-6.624s6.625,2.972,6.625,6.624
		S818.26,397.225,814.608,397.225z"/>
</g>
<g id="Layer_1">
	<path d="M643.608,288.267c-2.124,0-3.852-1.728-3.852-3.852v-28.8c0-2.124,1.728-3.853,3.852-3.853h136.801
		c2.124,0,3.852,1.729,3.852,3.853v28.8c0,2.124-1.728,3.852-3.852,3.852H643.608z"/>
	<g>
		<path fill="#00AEEF" d="M754.689,275.678l-0.696,0.289l-5.615-4.272c-0.992-0.735-1.828-1.284-2.509-1.644
			c-0.68-0.361-1.292-0.541-1.836-0.541c-0.495,0-0.892,0.18-1.188,0.541c-0.296,0.359-0.444,0.859-0.444,1.5
			c0,0.607,0.108,1.176,0.324,1.703c0.216,0.528,0.444,1,0.684,1.416c-0.56,0.256-1.128,0.48-1.704,0.672
			c-0.575,0.192-1.167,0.305-1.775,0.336c-0.304-0.543-0.568-1.207-0.792-1.992c-0.224-0.783-0.336-1.672-0.336-2.664
			c0-0.815,0.096-1.571,0.288-2.268c0.191-0.695,0.483-1.299,0.876-1.812c0.392-0.512,0.884-0.911,1.476-1.199
			s1.296-0.432,2.112-0.432c0.576,0,1.12,0.072,1.632,0.215c0.512,0.145,1,0.328,1.464,0.553s0.904,0.477,1.32,0.756
			c0.416,0.28,0.815,0.557,1.2,0.828l1.92,1.368v-4.2c0.672-0.145,1.256-0.216,1.752-0.216c0.56,0,1.176,0.071,1.848,0.216V275.678z
			"/>
	</g>
	<g>
		<path fill="#00AEEF" d="M669.33,264.351l0.696-0.288l5.615,4.272c0.992,0.735,1.828,1.284,2.509,1.644
			c0.68,0.36,1.292,0.54,1.836,0.54c0.495,0,0.892-0.18,1.188-0.54c0.296-0.359,0.444-0.859,0.444-1.5
			c0-0.607-0.108-1.176-0.324-1.703c-0.216-0.528-0.444-1.001-0.684-1.416c0.56-0.257,1.128-0.48,1.704-0.673
			c0.575-0.191,1.167-0.304,1.775-0.336c0.304,0.544,0.568,1.208,0.792,1.992s0.336,1.672,0.336,2.664
			c0,0.816-0.096,1.572-0.288,2.269c-0.191,0.695-0.483,1.299-0.876,1.812c-0.392,0.512-0.884,0.912-1.476,1.2
			s-1.296,0.432-2.112,0.432c-0.576,0-1.12-0.072-1.632-0.216s-1-0.328-1.464-0.552c-0.464-0.225-0.904-0.477-1.32-0.756
			c-0.416-0.28-0.815-0.557-1.2-0.828l-1.92-1.368v4.2c-0.672,0.144-1.256,0.216-1.752,0.216c-0.56,0-1.176-0.072-1.848-0.216
			V264.351z"/>
	</g>
	<path d="M571.608,234.266c-2.124,0-3.852-1.728-3.852-3.852v-28.801c0-2.124,1.728-3.852,3.852-3.852h208.801
		c2.124,0,3.852,1.728,3.852,3.852v28.801c0,2.124-1.728,3.852-3.852,3.852H571.608z"/>
	<g>
		<path fill="#00AEEF" d="M742.639,220.131c-0.624,0.144-1.232,0.215-1.824,0.215c-0.576,0-1.176-0.071-1.8-0.215v-10.152
			l0.672-0.432l5.88,3.407c0.208-1.151,0.708-2.048,1.5-2.688c0.792-0.639,1.812-0.959,3.061-0.959c0.992,0,1.871,0.18,2.64,0.539
			c0.768,0.36,1.412,0.856,1.932,1.488c0.521,0.633,0.912,1.377,1.177,2.232c0.264,0.855,0.396,1.771,0.396,2.748
			c0,0.447-0.012,0.863-0.036,1.248c-0.023,0.384-0.072,0.764-0.144,1.14c-0.072,0.376-0.16,0.753-0.265,1.128
			c-0.104,0.377-0.244,0.78-0.42,1.212c-0.592-0.032-1.191-0.147-1.8-0.348c-0.607-0.2-1.152-0.437-1.632-0.708
			c0.208-0.607,0.38-1.191,0.516-1.752c0.137-0.561,0.204-1.152,0.204-1.776c0-0.944-0.191-1.692-0.576-2.243
			c-0.384-0.553-0.968-0.828-1.752-0.828c-0.336,0-0.632,0.071-0.888,0.215c-0.256,0.145-0.468,0.336-0.636,0.576
			s-0.296,0.513-0.384,0.816c-0.088,0.305-0.133,0.624-0.133,0.96c0,0.257,0.013,0.524,0.036,0.804
			c0.024,0.281,0.084,0.604,0.181,0.973l-0.792,0.527l-5.112-2.951V220.131z"/>
	</g>
	<g>
		<path fill="#00AEEF" d="M609.378,211.898c0.624-0.145,1.232-0.216,1.824-0.216c0.576,0,1.176,0.071,1.8,0.216v10.152l-0.672,0.432
			l-5.88-3.408c-0.208,1.152-0.708,2.048-1.5,2.688c-0.792,0.64-1.812,0.96-3.061,0.96c-0.992,0-1.871-0.181-2.64-0.54
			c-0.768-0.36-1.412-0.856-1.932-1.488c-0.521-0.632-0.912-1.376-1.177-2.232c-0.264-0.855-0.396-1.771-0.396-2.748
			c0-0.447,0.012-0.863,0.036-1.247c0.023-0.385,0.072-0.765,0.144-1.141c0.072-0.376,0.16-0.752,0.265-1.128
			c0.104-0.376,0.244-0.78,0.42-1.212c0.592,0.032,1.191,0.147,1.8,0.348c0.607,0.2,1.152,0.437,1.632,0.708
			c-0.208,0.608-0.38,1.192-0.516,1.752c-0.137,0.561-0.204,1.152-0.204,1.776c0,0.944,0.191,1.692,0.576,2.244
			c0.384,0.552,0.968,0.828,1.752,0.828c0.336,0,0.632-0.072,0.888-0.216c0.256-0.145,0.468-0.336,0.636-0.576
			s0.296-0.513,0.384-0.816s0.133-0.624,0.133-0.96c0-0.256-0.013-0.524-0.036-0.804c-0.024-0.28-0.084-0.604-0.181-0.973
			l0.792-0.527l5.112,2.952V211.898z"/>
	</g>
	<path d="M67.608,72.268c-2.124,0-3.852-1.728-3.852-3.852v-28.8c0-2.124,1.728-3.852,3.852-3.852h280.8
		c2.124,0,3.852,1.728,3.852,3.852v28.8c0,2.124-1.728,3.852-3.852,3.852H67.608z"/>
	<g>
		<path fill="#00AEEF" d="M317.623,47.644c0.624-0.144,1.217-0.216,1.776-0.216c0.561,0,1.152,0.072,1.776,0.216v1.272h2.832
			c0.079,0.336,0.132,0.668,0.155,0.996c0.024,0.328,0.036,0.644,0.036,0.948c0,0.32-0.012,0.645-0.036,0.972
			c-0.023,0.328-0.076,0.668-0.155,1.02h-2.832v7.632l-0.721,0.408l-13.823-6.456c0.08-0.624,0.22-1.236,0.42-1.836
			s0.516-1.18,0.947-1.74l9.624,4.368v-2.376h-2.688c-0.08-0.352-0.132-0.692-0.156-1.02c-0.023-0.328-0.036-0.652-0.036-0.972
			c0-0.304,0.013-0.62,0.036-0.948c0.024-0.328,0.076-0.66,0.156-0.996h2.688V47.644z"/>
	</g>
	<g>
		<path fill="#00AEEF" d="M98.394,60.388c-0.624,0.144-1.217,0.216-1.776,0.216c-0.561,0-1.152-0.072-1.776-0.216v-1.272h-2.832
			c-0.079-0.336-0.132-0.668-0.155-0.996c-0.024-0.328-0.036-0.644-0.036-0.948c0-0.32,0.012-0.645,0.036-0.972
			c0.023-0.328,0.076-0.668,0.155-1.02h2.832v-7.632l0.721-0.408l13.823,6.456c-0.08,0.624-0.22,1.236-0.42,1.836
			s-0.516,1.18-0.947,1.74l-9.624-4.368v2.376h2.688c0.08,0.352,0.132,0.692,0.156,1.02c0.023,0.328,0.036,0.652,0.036,0.972
			c0,0.304-0.013,0.62-0.036,0.948c-0.024,0.328-0.076,0.66-0.156,0.996h-2.688V60.388z"/>
	</g>
	<path d="M49.608,126.266c-2.124,0-3.852-1.728-3.852-3.852v-28.8c0-2.124,1.728-3.852,3.852-3.852h352.8
		c2.124,0,3.852,1.728,3.852,3.852v28.8c0,2.124-1.728,3.852-3.852,3.852H49.608z"/>
	<g>
		<path fill="#00AEEF" d="M361.015,103.707c0.672-0.144,1.256-0.216,1.752-0.216c0.561,0,1.176,0.072,1.848,0.216v5.064l2.496,0.048
			c-0.031-0.144-0.048-0.28-0.048-0.408s0-0.28,0-0.456c0-0.784,0.112-1.504,0.336-2.16c0.225-0.656,0.552-1.216,0.984-1.68
			c0.432-0.464,0.968-0.824,1.607-1.08c0.641-0.255,1.377-0.384,2.208-0.384c0.992,0,1.864,0.168,2.616,0.504
			s1.384,0.82,1.896,1.452c0.512,0.632,0.896,1.396,1.151,2.292s0.384,1.896,0.384,3c0,0.208-0.016,0.468-0.048,0.78
			s-0.076,0.66-0.132,1.044c-0.056,0.384-0.136,0.788-0.24,1.212c-0.104,0.424-0.228,0.836-0.372,1.236
			c-0.304-0.016-0.62-0.06-0.947-0.132c-0.328-0.072-0.648-0.156-0.96-0.252c-0.312-0.096-0.608-0.196-0.889-0.3
			c-0.279-0.104-0.531-0.212-0.756-0.324c0.225-0.624,0.396-1.192,0.517-1.704c0.119-0.512,0.18-1.008,0.18-1.488
			c0-0.576-0.063-1.063-0.192-1.464c-0.128-0.4-0.291-0.72-0.492-0.96c-0.199-0.24-0.432-0.412-0.695-0.516
			c-0.265-0.104-0.54-0.156-0.828-0.156c-0.608,0-1.096,0.216-1.464,0.648s-0.552,1.12-0.552,2.064c0,0.384,0.044,0.796,0.132,1.236
			c0.088,0.44,0.244,0.9,0.468,1.38l-0.408,0.624l-9.552-0.36V103.707z"/>
	</g>
	<g>
		<path fill="#00AEEF" d="M91,112.322c-0.672,0.144-1.256,0.216-1.752,0.216c-0.561,0-1.176-0.072-1.848-0.216v-5.064l-2.496-0.048
			c0.031,0.144,0.048,0.28,0.048,0.408s0,0.28,0,0.456c0,0.784-0.112,1.504-0.336,2.16c-0.225,0.656-0.552,1.216-0.984,1.68
			c-0.432,0.464-0.968,0.824-1.607,1.08c-0.641,0.255-1.377,0.384-2.208,0.384c-0.992,0-1.864-0.168-2.616-0.504
			s-1.384-0.82-1.896-1.452c-0.512-0.632-0.896-1.396-1.151-2.292s-0.384-1.896-0.384-3c0-0.208,0.016-0.468,0.048-0.78
			s0.076-0.66,0.132-1.044c0.056-0.384,0.136-0.788,0.24-1.212c0.104-0.424,0.228-0.836,0.372-1.236
			c0.304,0.016,0.62,0.06,0.947,0.132c0.328,0.072,0.648,0.156,0.96,0.252c0.312,0.096,0.608,0.196,0.889,0.3
			c0.279,0.104,0.531,0.212,0.756,0.324c-0.225,0.624-0.396,1.192-0.517,1.704c-0.119,0.512-0.18,1.008-0.18,1.488
			c0,0.576,0.063,1.063,0.192,1.464c0.128,0.4,0.291,0.72,0.492,0.96c0.199,0.24,0.432,0.412,0.695,0.516
			c0.265,0.104,0.54,0.156,0.828,0.156c0.608,0,1.096-0.216,1.464-0.648s0.552-1.12,0.552-2.064c0-0.384-0.044-0.796-0.132-1.236
			c-0.088-0.44-0.244-0.9-0.468-1.38l0.408-0.624l9.552,0.36V112.322z"/>
	</g>
	<path d="M49.608,180.263c-2.124,0-3.852-1.728-3.852-3.852v-28.8c0-2.124,1.728-3.852,3.852-3.852h424.8
		c2.124,0,3.852,1.728,3.852,3.852v28.8c0,2.124-1.728,3.852-3.852,3.852H49.608z"/>
	<g>
		<path fill="#00AEEF" d="M431.239,158.411c0.129-0.128,0.356-0.248,0.685-0.36s0.724-0.168,1.188-0.168
			c0.384,0,0.729,0.024,1.032,0.072s0.552,0.112,0.744,0.192c0.048,0.624,0.164,1.216,0.348,1.776
			c0.185,0.561,0.429,1.072,0.732,1.536c0.304,0.464,0.656,0.868,1.056,1.212c0.4,0.344,0.849,0.604,1.344,0.78l0.048-0.072
			c-0.224-0.176-0.432-0.5-0.624-0.972c-0.191-0.472-0.287-1.044-0.287-1.716c0-0.688,0.104-1.332,0.312-1.932
			c0.208-0.6,0.532-1.128,0.972-1.584c0.44-0.456,1.005-0.816,1.692-1.08c0.688-0.264,1.521-0.396,2.496-0.396s1.836,0.16,2.58,0.48
			c0.744,0.32,1.368,0.756,1.872,1.308c0.504,0.552,0.884,1.196,1.14,1.932c0.256,0.736,0.384,1.521,0.384,2.352
			c0,2.016-0.575,3.552-1.728,4.608c-1.152,1.056-2.896,1.584-5.232,1.584c-1.344,0-2.628-0.184-3.852-0.552
			c-1.225-0.368-2.324-0.94-3.3-1.716c-0.977-0.776-1.784-1.768-2.425-2.976C431.776,161.511,431.384,160.075,431.239,158.411z
			 M440.695,161.747c0,0.608,0.2,1.104,0.601,1.488c0.399,0.384,0.983,0.576,1.752,0.576c0.848,0,1.487-0.184,1.92-0.552
			c0.432-0.368,0.647-0.84,0.647-1.416c0-0.576-0.199-1.064-0.6-1.464c-0.399-0.399-1.016-0.6-1.848-0.6
			c-0.864,0-1.492,0.188-1.885,0.564C440.892,160.719,440.695,161.187,440.695,161.747z"/>
	</g>
	<g>
		<path fill="#00AEEF" d="M92.899,165.611c-0.129,0.128-0.356,0.248-0.685,0.36s-0.724,0.168-1.188,0.168
			c-0.384,0-0.729-0.024-1.032-0.072s-0.552-0.112-0.744-0.192c-0.048-0.624-0.164-1.216-0.348-1.776
			c-0.185-0.561-0.429-1.072-0.732-1.536c-0.304-0.464-0.656-0.868-1.056-1.212c-0.4-0.344-0.849-0.604-1.344-0.78l-0.048,0.072
			c0.224,0.176,0.432,0.5,0.624,0.972c0.191,0.472,0.287,1.044,0.287,1.716c0,0.688-0.104,1.332-0.312,1.932
			c-0.208,0.6-0.532,1.128-0.972,1.584c-0.44,0.456-1.005,0.816-1.692,1.08c-0.688,0.264-1.521,0.396-2.496,0.396
			s-1.836-0.16-2.58-0.48c-0.744-0.32-1.368-0.756-1.872-1.308c-0.504-0.552-0.884-1.196-1.14-1.932
			c-0.256-0.736-0.384-1.521-0.384-2.352c0-2.016,0.575-3.552,1.728-4.608c1.152-1.056,2.896-1.584,5.232-1.584
			c1.344,0,2.628,0.184,3.852,0.552c1.225,0.368,2.324,0.94,3.3,1.716c0.977,0.776,1.784,1.768,2.425,2.976
			C92.362,162.511,92.754,163.947,92.899,165.611z M83.443,162.275c0-0.608-0.2-1.104-0.601-1.488
			c-0.399-0.384-0.983-0.576-1.752-0.576c-0.848,0-1.487,0.184-1.92,0.552c-0.432,0.368-0.647,0.84-0.647,1.416
			c0,0.576,0.199,1.064,0.6,1.464c0.399,0.399,1.016,0.6,1.848,0.6c0.864,0,1.492-0.188,1.885-0.564
			C83.246,163.303,83.443,162.835,83.443,162.275z"/>
	</g>
	<path d="M49.608,234.267c-2.124,0-3.852-1.729-3.852-3.853v-28.8c0-2.124,1.728-3.852,3.852-3.852h496.8
		c2.124,0,3.852,1.728,3.852,3.852v28.8c0,2.124-1.728,3.853-3.852,3.853H49.608z"/>
	<g>
		<path fill="#00AEEF" d="M508.64,221.799c-0.336,0.08-0.664,0.136-0.984,0.168c-0.319,0.031-0.615,0.047-0.888,0.047
			c-0.496,0-1.08-0.071-1.752-0.215v-11.664l0.647-0.36l16.776,6.84c-0.16,0.672-0.344,1.292-0.552,1.86s-0.528,1.172-0.96,1.812
			l-12.288-5.04V221.799z"/>
	</g>
	<g>
		<path fill="#00AEEF" d="M87.377,210.23c0.336-0.08,0.664-0.137,0.984-0.168c0.319-0.032,0.615-0.048,0.888-0.048
			c0.496,0,1.08,0.071,1.752,0.216v11.664l-0.647,0.359l-16.776-6.84c0.16-0.672,0.344-1.292,0.552-1.859
			c0.208-0.568,0.528-1.173,0.96-1.812l12.288,5.04V210.23z"/>
	</g>
	<path d="M49.608,287.767c-2.124,0-3.852-1.729-3.852-3.853v-28.8c0-2.124,1.728-3.852,3.852-3.852h568.8
		c2.124,0,3.852,1.728,3.852,3.852v28.8c0,2.124-1.728,3.853-3.852,3.853H49.608z"/>
	<g>
		<path fill="#00AEEF" d="M580.064,264.15c0.72,0,1.376,0.164,1.968,0.492c0.593,0.328,1.097,0.796,1.513,1.404
			c0.399-0.736,0.964-1.356,1.691-1.86c0.729-0.505,1.62-0.757,2.676-0.757c0.896,0,1.66,0.173,2.292,0.517
			c0.633,0.345,1.152,0.804,1.561,1.38s0.708,1.229,0.899,1.956c0.192,0.729,0.288,1.476,0.288,2.244s-0.096,1.517-0.288,2.244
			c-0.191,0.728-0.491,1.376-0.899,1.944c-0.408,0.567-0.928,1.023-1.561,1.367c-0.632,0.345-1.396,0.516-2.292,0.516
			c-1.056,0-1.943-0.247-2.664-0.743c-0.72-0.496-1.287-1.104-1.703-1.824c-0.416,0.624-0.92,1.093-1.513,1.404
			c-0.592,0.312-1.248,0.468-1.968,0.468c-0.688,0-1.315-0.14-1.884-0.42c-0.568-0.279-1.057-0.66-1.464-1.141
			c-0.408-0.479-0.724-1.047-0.948-1.703c-0.224-0.656-0.336-1.359-0.336-2.112c0-0.769,0.112-1.479,0.336-2.136
			c0.225-0.656,0.54-1.225,0.948-1.704c0.407-0.479,0.896-0.856,1.464-1.128S579.376,264.15,580.064,264.15z M580.039,271.11
			c0.496,0,0.917-0.147,1.261-0.444c0.344-0.295,0.604-0.676,0.779-1.14c-0.176-0.495-0.432-0.888-0.768-1.177
			c-0.336-0.287-0.76-0.432-1.272-0.432c-0.399,0-0.747,0.133-1.044,0.396c-0.296,0.264-0.443,0.66-0.443,1.188
			c0,0.528,0.147,0.929,0.443,1.2C579.292,270.975,579.64,271.11,580.039,271.11z M587.743,267.438c-0.607,0-1.119,0.2-1.536,0.6
			c-0.415,0.4-0.728,0.904-0.936,1.513c0.208,0.607,0.521,1.1,0.936,1.476c0.417,0.376,0.929,0.563,1.536,0.563
			c0.561,0,1.024-0.176,1.393-0.527s0.552-0.864,0.552-1.536c0-0.704-0.184-1.228-0.552-1.572
			C588.768,267.61,588.304,267.438,587.743,267.438z"/>
	</g>
	<g>
		<path fill="#00AEEF" d="M87.953,274.878c-0.72,0-1.376-0.164-1.968-0.491c-0.593-0.328-1.097-0.797-1.513-1.404
			c-0.399,0.735-0.964,1.355-1.691,1.859c-0.729,0.505-1.62,0.757-2.676,0.757c-0.896,0-1.66-0.173-2.292-0.517
			c-0.633-0.344-1.152-0.804-1.561-1.38s-0.708-1.229-0.899-1.956c-0.192-0.729-0.288-1.476-0.288-2.244
			c0-0.768,0.096-1.516,0.288-2.244c0.191-0.728,0.491-1.376,0.899-1.943c0.408-0.568,0.928-1.024,1.561-1.368
			c0.632-0.345,1.396-0.516,2.292-0.516c1.056,0,1.943,0.247,2.664,0.743c0.72,0.496,1.287,1.104,1.703,1.824
			c0.416-0.624,0.92-1.092,1.513-1.404c0.592-0.312,1.248-0.468,1.968-0.468c0.688,0,1.315,0.14,1.884,0.42s1.057,0.66,1.464,1.141
			c0.408,0.479,0.724,1.048,0.948,1.704c0.224,0.655,0.336,1.359,0.336,2.111c0,0.769-0.112,1.48-0.336,2.137
			c-0.225,0.655-0.54,1.224-0.948,1.703c-0.407,0.48-0.896,0.856-1.464,1.129C89.269,274.742,88.641,274.878,87.953,274.878z
			 M80.274,271.59c0.607,0,1.119-0.2,1.536-0.6c0.415-0.4,0.728-0.904,0.936-1.512c-0.208-0.608-0.521-1.101-0.936-1.477
			c-0.417-0.376-0.929-0.563-1.536-0.563c-0.561,0-1.024,0.176-1.393,0.527c-0.368,0.353-0.552,0.864-0.552,1.536
			c0,0.704,0.184,1.229,0.552,1.572S79.713,271.59,80.274,271.59z M87.978,267.918c-0.496,0-0.917,0.148-1.261,0.444
			s-0.604,0.676-0.779,1.14c0.176,0.496,0.432,0.889,0.768,1.177c0.336,0.287,0.76,0.432,1.272,0.432
			c0.399,0,0.747-0.132,1.044-0.396c0.296-0.264,0.443-0.659,0.443-1.188s-0.147-0.929-0.443-1.2
			C88.725,268.054,88.377,267.918,87.978,267.918z"/>
	</g>
	<path d="M49.608,341.768c-2.124,0-3.852-1.729-3.852-3.853v-28.8c0-2.124,1.728-3.852,3.852-3.852h640.8
		c2.124,0,3.852,1.728,3.852,3.852v28.8c0,2.124-1.728,3.853-3.852,3.853H49.608z"/>
	<g>
		<path fill="#00AEEF" d="M666.488,327.092c-0.128,0.128-0.356,0.248-0.684,0.359c-0.328,0.112-0.725,0.168-1.188,0.168
			c-0.384,0-0.728-0.023-1.031-0.072c-0.305-0.047-0.553-0.111-0.744-0.191c-0.049-0.624-0.164-1.216-0.349-1.775
			c-0.184-0.561-0.424-1.072-0.72-1.537c-0.296-0.463-0.648-0.867-1.056-1.211c-0.408-0.344-0.86-0.604-1.356-0.781l-0.048,0.072
			c0.225,0.177,0.432,0.5,0.624,0.973c0.192,0.472,0.288,1.044,0.288,1.716c0,0.688-0.104,1.332-0.312,1.933
			c-0.207,0.6-0.531,1.127-0.972,1.584c-0.439,0.455-1.004,0.815-1.692,1.08c-0.688,0.264-1.52,0.396-2.495,0.396
			c-0.977,0-1.837-0.16-2.58-0.48c-0.744-0.319-1.368-0.756-1.872-1.308c-0.504-0.553-0.884-1.195-1.141-1.932
			c-0.256-0.736-0.384-1.521-0.384-2.353c0-2.017,0.576-3.552,1.729-4.608c1.151-1.056,2.896-1.584,5.231-1.584
			c1.344,0,2.632,0.185,3.864,0.553s2.332,0.939,3.3,1.716c0.969,0.776,1.772,1.769,2.412,2.976
			C665.952,323.992,666.345,325.428,666.488,327.092z M657.032,323.756c0-0.608-0.199-1.104-0.6-1.488
			c-0.399-0.385-0.984-0.576-1.752-0.576c-0.848,0-1.488,0.184-1.92,0.553c-0.433,0.367-0.648,0.84-0.648,1.416
			c0,0.575,0.2,1.063,0.601,1.463c0.399,0.4,1.016,0.601,1.848,0.601c0.864,0,1.492-0.188,1.884-0.563
			C656.837,324.783,657.032,324.316,657.032,323.756z"/>
	</g>
	<g>
		<path fill="#00AEEF" d="M73.529,319.94c0.128-0.129,0.356-0.249,0.684-0.36c0.328-0.112,0.725-0.168,1.188-0.168
			c0.384,0,0.728,0.023,1.031,0.072c0.305,0.048,0.553,0.111,0.744,0.191c0.049,0.624,0.164,1.216,0.349,1.776
			c0.184,0.56,0.424,1.071,0.72,1.536c0.296,0.464,0.648,0.867,1.056,1.212c0.408,0.344,0.86,0.604,1.356,0.78l0.048-0.072
			c-0.225-0.177-0.432-0.5-0.624-0.973c-0.192-0.472-0.288-1.044-0.288-1.716c0-0.688,0.104-1.332,0.312-1.932
			c0.207-0.6,0.531-1.128,0.972-1.584c0.439-0.456,1.004-0.816,1.692-1.08c0.688-0.264,1.52-0.396,2.495-0.396
			c0.977,0,1.837,0.16,2.58,0.48c0.744,0.32,1.368,0.756,1.872,1.308c0.504,0.553,0.884,1.196,1.141,1.933
			c0.256,0.735,0.384,1.52,0.384,2.352c0,2.017-0.576,3.552-1.729,4.608c-1.151,1.056-2.896,1.584-5.231,1.584
			c-1.344,0-2.632-0.185-3.864-0.552c-1.232-0.369-2.332-0.94-3.3-1.717c-0.969-0.775-1.772-1.768-2.412-2.976
			S73.672,321.604,73.529,319.94z M82.985,323.276c0,0.607,0.199,1.104,0.6,1.487c0.399,0.385,0.984,0.576,1.752,0.576
			c0.848,0,1.488-0.184,1.92-0.552c0.433-0.368,0.648-0.84,0.648-1.416s-0.2-1.064-0.601-1.464c-0.399-0.4-1.016-0.601-1.848-0.601
			c-0.864,0-1.492,0.188-1.884,0.564C83.18,322.248,82.985,322.716,82.985,323.276z"/>
	</g>
	<path d="M67.608,396.267c-2.124,0-3.852-1.729-3.852-3.853v-28.8c0-2.124,1.728-3.852,3.852-3.852h712.8
		c2.124,0,3.852,1.728,3.852,3.852v28.8c0,2.124-1.728,3.853-3.852,3.853H67.608z"/>
	<g>
		<path fill="#00AEEF" d="M745.279,388.598c-0.209,0.144-0.447,0.287-0.721,0.432c-0.271,0.145-0.551,0.28-0.84,0.408
			c-0.287,0.128-0.58,0.24-0.875,0.336c-0.297,0.096-0.58,0.168-0.854,0.216l-3-7.032v-1.031h12.098v-3.072
			c0.623-0.145,1.215-0.217,1.775-0.217c0.592,0,1.199,0.072,1.824,0.217v10.271c-0.625,0.145-1.232,0.217-1.824,0.217
			c-0.561,0-1.152-0.072-1.775-0.217v-3.119h-6.816L745.279,388.598z"/>
		<path fill="#00AEEF" d="M738.799,372.254c0-1.072,0.209-2,0.625-2.784s0.988-1.433,1.715-1.944
			c0.729-0.512,1.588-0.888,2.58-1.128c0.992-0.239,2.064-0.36,3.217-0.36s2.215,0.129,3.191,0.385s1.824,0.64,2.545,1.152
			c0.719,0.512,1.283,1.168,1.691,1.967c0.408,0.801,0.611,1.736,0.611,2.809s-0.203,2-0.611,2.783
			c-0.408,0.785-0.973,1.429-1.691,1.933c-0.721,0.504-1.568,0.88-2.545,1.128s-2.039,0.372-3.191,0.372s-2.225-0.128-3.217-0.384
			s-1.852-0.64-2.58-1.152c-0.727-0.512-1.299-1.164-1.715-1.955C739.008,374.281,738.799,373.342,738.799,372.254z
			 M742.424,372.302c0,0.64,0.375,1.136,1.127,1.487c0.752,0.353,1.881,0.528,3.385,0.528c1.488,0,2.607-0.18,3.359-0.54
			c0.752-0.359,1.129-0.852,1.129-1.476c0-0.608-0.377-1.088-1.129-1.44c-0.752-0.352-1.871-0.527-3.359-0.527
			c-1.504,0-2.633,0.176-3.385,0.527C742.799,371.214,742.424,371.693,742.424,372.302z"/>
	</g>
	<g>
		<path fill="#00AEEF" d="M102.737,367.432c0.208-0.144,0.447-0.288,0.72-0.432c0.271-0.145,0.552-0.28,0.84-0.408
			s0.58-0.24,0.876-0.336s0.58-0.168,0.853-0.216l3,7.031v1.032H96.929v3.072c-0.624,0.144-1.216,0.216-1.775,0.216
			c-0.593,0-1.2-0.072-1.824-0.216v-10.272c0.624-0.144,1.231-0.216,1.824-0.216c0.56,0,1.151,0.072,1.775,0.216v3.12h6.816
			L102.737,367.432z"/>
		<path fill="#00AEEF" d="M109.217,383.775c0,1.072-0.208,2-0.624,2.784s-0.988,1.432-1.716,1.944
			c-0.729,0.512-1.588,0.888-2.58,1.128c-0.992,0.239-2.063,0.359-3.216,0.359s-2.216-0.128-3.192-0.384
			c-0.976-0.256-1.823-0.64-2.544-1.152c-0.72-0.512-1.283-1.168-1.691-1.968s-0.612-1.736-0.612-2.808c0-1.072,0.204-2,0.612-2.784
			s0.972-1.428,1.691-1.932c0.721-0.504,1.568-0.881,2.544-1.128c0.977-0.249,2.04-0.372,3.192-0.372s2.224,0.128,3.216,0.384
			s1.852,0.64,2.58,1.152c0.728,0.512,1.3,1.163,1.716,1.955S109.217,382.688,109.217,383.775z M105.593,383.728
			c0-0.641-0.376-1.137-1.128-1.488s-1.88-0.527-3.384-0.527c-1.488,0-2.608,0.18-3.36,0.54c-0.752,0.359-1.128,0.852-1.128,1.476
			c0,0.607,0.376,1.088,1.128,1.44c0.752,0.352,1.872,0.527,3.36,0.527c1.504,0,2.632-0.176,3.384-0.527
			C105.217,384.815,105.593,384.335,105.593,383.728z"/>
	</g>
	<path d="M571.608,180.252c-2.124,0-3.852-1.728-3.852-3.852v-12.359c0-3.742-0.989-7.433-2.859-10.674l-19.885-34.441
		c-3.802-6.584-10.886-10.674-18.488-10.674h-99.229c-1.951,0-3.538-1.587-3.538-3.538V39.286c0-1.951,1.587-3.538,3.538-3.538
		h353.428c1.951,0,3.538,1.587,3.538,3.538V176.4c0,2.124-1.728,3.852-3.852,3.852H571.608z"/>
	<g>
		<path fill="#00A651" d="M609.707,65.994c-0.144-0.672-0.216-1.256-0.216-1.752c0-0.561,0.072-1.176,0.216-1.848h5.064l0.048-2.496
			c-0.144,0.031-0.28,0.048-0.407,0.048c-0.129,0-0.28,0-0.457,0c-0.783,0-1.504-0.112-2.16-0.336
			c-0.655-0.225-1.215-0.552-1.68-0.984c-0.464-0.432-0.824-0.968-1.08-1.607c-0.256-0.641-0.384-1.377-0.384-2.208
			c0-0.992,0.168-1.864,0.504-2.616s0.82-1.384,1.452-1.896c0.633-0.512,1.396-0.896,2.292-1.151s1.896-0.384,3-0.384
			c0.208,0,0.468,0.016,0.78,0.048c0.312,0.032,0.66,0.076,1.044,0.132s0.788,0.136,1.212,0.24c0.424,0.104,0.836,0.228,1.236,0.372
			c-0.016,0.304-0.061,0.62-0.133,0.947c-0.072,0.328-0.156,0.648-0.252,0.96c-0.096,0.312-0.195,0.608-0.3,0.889
			c-0.104,0.279-0.212,0.531-0.323,0.756c-0.625-0.225-1.192-0.396-1.705-0.517c-0.512-0.119-1.008-0.18-1.488-0.18
			c-0.575,0-1.062,0.063-1.463,0.192c-0.4,0.128-0.721,0.291-0.961,0.492c-0.239,0.199-0.411,0.432-0.516,0.695
			c-0.104,0.265-0.156,0.54-0.156,0.828c0,0.608,0.217,1.096,0.648,1.464s1.12,0.552,2.064,0.552c0.383,0,0.795-0.044,1.235-0.132
			s0.9-0.244,1.38-0.468l0.625,0.408l-0.361,9.552H609.707z"/>
	</g>
	<g>
		<path fill="#00A651" d="M670.691,153.629c-0.144-0.624-0.216-1.232-0.216-1.824c0-0.576,0.072-1.176,0.216-1.8h10.152l0.432,0.672
			l-3.407,5.88c1.151,0.208,2.048,0.708,2.688,1.5s0.96,1.812,0.96,3.061c0,0.992-0.18,1.871-0.54,2.64
			c-0.359,0.768-0.855,1.412-1.487,1.932c-0.633,0.521-1.377,0.912-2.232,1.177c-0.856,0.264-1.772,0.396-2.748,0.396
			c-0.448,0-0.864-0.012-1.248-0.036c-0.384-0.023-0.765-0.072-1.14-0.144c-0.376-0.072-0.753-0.16-1.128-0.265
			c-0.377-0.104-0.78-0.244-1.212-0.42c0.031-0.592,0.147-1.191,0.348-1.8c0.2-0.607,0.436-1.152,0.708-1.632
			c0.607,0.208,1.191,0.38,1.752,0.516c0.56,0.137,1.152,0.204,1.776,0.204c0.943,0,1.691-0.191,2.243-0.576
			c0.553-0.384,0.828-0.968,0.828-1.752c0-0.336-0.071-0.632-0.216-0.888c-0.144-0.256-0.336-0.468-0.576-0.636
			s-0.512-0.296-0.815-0.384c-0.305-0.088-0.624-0.133-0.96-0.133c-0.257,0-0.524,0.013-0.805,0.036
			c-0.28,0.024-0.604,0.084-0.972,0.181l-0.528-0.792l2.952-5.112H670.691z"/>
	</g>
	<g>
		<path fill="#00A651" d="M447.737,67.872c0.208-0.144,0.447-0.288,0.72-0.432c0.271-0.144,0.552-0.28,0.84-0.408
			s0.58-0.24,0.876-0.336c0.296-0.096,0.58-0.168,0.853-0.216l3,7.032v1.032h-12.097v3.072c-0.624,0.144-1.216,0.216-1.775,0.216
			c-0.593,0-1.2-0.072-1.824-0.216V67.344c0.624-0.144,1.231-0.216,1.824-0.216c0.56,0,1.151,0.072,1.775,0.216v3.12h6.816
			L447.737,67.872z"/>
	</g>
	<g>
		<path fill="#00A651" d="M769.685,113.665l-0.696,0.288l-5.615-4.272c-0.992-0.736-1.828-1.284-2.509-1.644
			c-0.68-0.36-1.292-0.54-1.836-0.54c-0.495,0-0.892,0.18-1.188,0.54c-0.296,0.36-0.444,0.86-0.444,1.5
			c0,0.608,0.108,1.176,0.324,1.704c0.216,0.528,0.444,1,0.684,1.416c-0.56,0.256-1.128,0.48-1.704,0.672
			c-0.575,0.192-1.167,0.304-1.775,0.336c-0.304-0.544-0.568-1.208-0.792-1.992c-0.224-0.784-0.336-1.672-0.336-2.664
			c0-0.816,0.096-1.572,0.288-2.268c0.191-0.696,0.483-1.299,0.876-1.812c0.392-0.512,0.884-0.912,1.476-1.2
			s1.296-0.432,2.112-0.432c0.576,0,1.12,0.072,1.632,0.216c0.512,0.144,1,0.328,1.464,0.552s0.904,0.476,1.32,0.756
			c0.416,0.28,0.815,0.556,1.2,0.828l1.92,1.368v-4.2c0.672-0.144,1.256-0.216,1.752-0.216c0.56,0,1.176,0.072,1.848,0.216V113.665z
			"/>
	</g>
</g>
</svg>
