<?xml version="1.0" encoding="utf-8"?>
<!-- Generator: Adobe Illustrator 23.0.1, SVG Export Plug-In . SVG Version: 6.00 Build 0)  -->
<svg version="1.1" xmlns="http://www.w3.org/2000/svg" xmlns:xlink="http://www.w3.org/1999/xlink" x="0px" y="0px" width="864px"
	 height="432px" viewBox="0 0 864 432" style="enable-background:new 0 0 864 432;" xml:space="preserve">
<style type="text/css">
	.st0{fill:#D1D3D4;}
	.st1{fill:#EC008C;}
	.st2{display:none;}
	.st3{display:inline;}
	.st4{fill:#00AEEF;}
	.st5{fill:#FBB040;}
	.st6{display:inline;fill:none;stroke:#FFF200;stroke-miterlimit:10;}
	.st7{fill:#00A651;}
	.st8{display:inline;fill:#00A651;}
	.st9{font-family:'MyriadPro-Regular';}
	.st10{font-size:12px;}
</style>
<g id="Layer_2">
	<path class="st0" d="M838,41.7c0-13.1-10.6-23.7-23.7-23.7H33.7C20.6,18,10,28.6,10,41.7v348.7c0,13.1,10.6,23.7,23.7,23.7h780.7
		c13.1,0,23.7-10.6,23.7-23.7V41.7z"/>
	<path class="st1" d="M33.4,397.2c-3.7,0-6.6-3-6.6-6.6s3-6.6,6.6-6.6s6.6,3,6.6,6.6S37.1,397.2,33.4,397.2z"/>
	<circle class="st1" cx="33.4" cy="41.4" r="6.6"/>
	<path class="st1" d="M814.6,48c-3.7,0-6.6-3-6.6-6.6s3-6.6,6.6-6.6s6.6,3,6.6,6.6S818.3,48,814.6,48z"/>
	<path class="st1" d="M814.6,397.2c-3.7,0-6.6-3-6.6-6.6s3-6.6,6.6-6.6s6.6,3,6.6,6.6S818.3,397.2,814.6,397.2z"/>
</g>
<g id="Layer_4" class="st2">
	<g class="st3">
		<polygon points="577.3,126.3 432.8,126.3 432.8,89.8 432.8,89.8 577.3,89.8 		"/>
		<g>
			<path class="st4" d="M547.7,113.7L547,114l-5.6-4.3c-1-0.7-1.8-1.3-2.5-1.6c-0.7-0.4-1.3-0.5-1.8-0.5c-0.5,0-0.9,0.2-1.2,0.5
				c-0.3,0.4-0.4,0.9-0.4,1.5c0,0.6,0.1,1.2,0.3,1.7c0.2,0.5,0.4,1,0.7,1.4c-0.6,0.3-1.1,0.5-1.7,0.7c-0.6,0.2-1.2,0.3-1.8,0.3
				c-0.3-0.5-0.6-1.2-0.8-2c-0.2-0.8-0.3-1.7-0.3-2.7c0-0.8,0.1-1.6,0.3-2.3c0.2-0.7,0.5-1.3,0.9-1.8c0.4-0.5,0.9-0.9,1.5-1.2
				s1.3-0.4,2.1-0.4c0.6,0,1.1,0.1,1.6,0.2c0.5,0.1,1,0.3,1.5,0.6s0.9,0.5,1.3,0.8c0.4,0.3,0.8,0.6,1.2,0.8l1.9,1.4v-4.2
				c0.7-0.1,1.3-0.2,1.8-0.2c0.6,0,1.2,0.1,1.8,0.2V113.7z"/>
		</g>
		<g>
			<path class="st4" d="M462.3,102.4l0.7-0.3l5.6,4.3c1,0.7,1.8,1.3,2.5,1.6c0.7,0.4,1.3,0.5,1.8,0.5c0.5,0,0.9-0.2,1.2-0.5
				c0.3-0.4,0.4-0.9,0.4-1.5c0-0.6-0.1-1.2-0.3-1.7c-0.2-0.5-0.4-1-0.7-1.4c0.6-0.3,1.1-0.5,1.7-0.7c0.6-0.2,1.2-0.3,1.8-0.3
				c0.3,0.5,0.6,1.2,0.8,2s0.3,1.7,0.3,2.7c0,0.8-0.1,1.6-0.3,2.3c-0.2,0.7-0.5,1.3-0.9,1.8c-0.4,0.5-0.9,0.9-1.5,1.2
				s-1.3,0.4-2.1,0.4c-0.6,0-1.1-0.1-1.6-0.2s-1-0.3-1.5-0.6c-0.5-0.2-0.9-0.5-1.3-0.8c-0.4-0.3-0.8-0.6-1.2-0.8l-1.9-1.4v4.2
				c-0.7,0.1-1.3,0.2-1.8,0.2c-0.6,0-1.2-0.1-1.8-0.2V102.4z"/>
		</g>
	</g>
	<g class="st3">
		<rect x="387.8" y="35.9" width="216.5" height="36.5"/>
		<g>
			<path class="st4" d="M562.7,58.3c-0.6,0.1-1.2,0.2-1.8,0.2c-0.6,0-1.2-0.1-1.8-0.2V48.1l0.7-0.4l5.9,3.4c0.2-1.2,0.7-2,1.5-2.7
				c0.8-0.6,1.8-1,3.1-1c1,0,1.9,0.2,2.6,0.5c0.8,0.4,1.4,0.9,1.9,1.5c0.5,0.6,0.9,1.4,1.2,2.2c0.3,0.9,0.4,1.8,0.4,2.7
				c0,0.4,0,0.9,0,1.2c0,0.4-0.1,0.8-0.1,1.1c-0.1,0.4-0.2,0.8-0.3,1.1c-0.1,0.4-0.2,0.8-0.4,1.2c-0.6,0-1.2-0.1-1.8-0.3
				c-0.6-0.2-1.2-0.4-1.6-0.7c0.2-0.6,0.4-1.2,0.5-1.8c0.1-0.6,0.2-1.2,0.2-1.8c0-0.9-0.2-1.7-0.6-2.2c-0.4-0.6-1-0.8-1.8-0.8
				c-0.3,0-0.6,0.1-0.9,0.2c-0.3,0.1-0.5,0.3-0.6,0.6s-0.3,0.5-0.4,0.8c-0.1,0.3-0.1,0.6-0.1,1c0,0.3,0,0.5,0,0.8
				c0,0.3,0.1,0.6,0.2,1l-0.8,0.5l-5.1-3V58.3z"/>
		</g>
		<g>
			<path class="st4" d="M429.4,50c0.6-0.1,1.2-0.2,1.8-0.2c0.6,0,1.2,0.1,1.8,0.2v10.2l-0.7,0.4l-5.9-3.4c-0.2,1.2-0.7,2-1.5,2.7
				c-0.8,0.6-1.8,1-3.1,1c-1,0-1.9-0.2-2.6-0.5c-0.8-0.4-1.4-0.9-1.9-1.5c-0.5-0.6-0.9-1.4-1.2-2.2c-0.3-0.9-0.4-1.8-0.4-2.7
				c0-0.4,0-0.9,0-1.2c0-0.4,0.1-0.8,0.1-1.1c0.1-0.4,0.2-0.8,0.3-1.1c0.1-0.4,0.2-0.8,0.4-1.2c0.6,0,1.2,0.1,1.8,0.3
				c0.6,0.2,1.2,0.4,1.6,0.7c-0.2,0.6-0.4,1.2-0.5,1.8c-0.1,0.6-0.2,1.2-0.2,1.8c0,0.9,0.2,1.7,0.6,2.2c0.4,0.6,1,0.8,1.8,0.8
				c0.3,0,0.6-0.1,0.9-0.2c0.3-0.1,0.5-0.3,0.6-0.6s0.3-0.5,0.4-0.8s0.1-0.6,0.1-1c0-0.3,0-0.5,0-0.8c0-0.3-0.1-0.6-0.2-1l0.8-0.5
				l5.1,3V50z"/>
		</g>
	</g>
	<polygon class="st3" points="63.8,72.3 63.8,72.3 63.8,35.8 63.8,35.8 352.3,35.8 352.3,35.8 352.3,72.3 	"/>
	<g class="st3">
		<path class="st4" d="M317.6,47.6c0.6-0.1,1.2-0.2,1.8-0.2c0.6,0,1.2,0.1,1.8,0.2v1.3h2.8c0.1,0.3,0.1,0.7,0.2,1c0,0.3,0,0.6,0,0.9
			c0,0.3,0,0.6,0,1c0,0.3-0.1,0.7-0.2,1h-2.8v7.6l-0.7,0.4l-13.8-6.5c0.1-0.6,0.2-1.2,0.4-1.8s0.5-1.2,0.9-1.7l9.6,4.4v-2.4h-2.7
			c-0.1-0.4-0.1-0.7-0.2-1c0-0.3,0-0.7,0-1c0-0.3,0-0.6,0-0.9c0-0.3,0.1-0.7,0.2-1h2.7V47.6z"/>
	</g>
	<g class="st3">
		<path class="st4" d="M98.4,60.4c-0.6,0.1-1.2,0.2-1.8,0.2c-0.6,0-1.2-0.1-1.8-0.2v-1.3H92c-0.1-0.3-0.1-0.7-0.2-1
			c0-0.3,0-0.6,0-0.9c0-0.3,0-0.6,0-1c0-0.3,0.1-0.7,0.2-1h2.8v-7.6l0.7-0.4l13.8,6.5c-0.1,0.6-0.2,1.2-0.4,1.8s-0.5,1.2-0.9,1.7
			l-9.6-4.4v2.4h2.7c0.1,0.4,0.1,0.7,0.2,1c0,0.3,0,0.7,0,1c0,0.3,0,0.6,0,0.9c0,0.3-0.1,0.7-0.2,1h-2.7V60.4z"/>
	</g>
	<rect x="36.7" y="89.8" class="st3" width="360.5" height="36.5"/>
	<g class="st3">
		<path class="st4" d="M352,103.7c0.7-0.1,1.3-0.2,1.8-0.2c0.6,0,1.2,0.1,1.8,0.2v5.1l2.5,0c0-0.1,0-0.3,0-0.4s0-0.3,0-0.5
			c0-0.8,0.1-1.5,0.3-2.2c0.2-0.7,0.6-1.2,1-1.7c0.4-0.5,1-0.8,1.6-1.1c0.6-0.3,1.4-0.4,2.2-0.4c1,0,1.9,0.2,2.6,0.5
			s1.4,0.8,1.9,1.5c0.5,0.6,0.9,1.4,1.2,2.3s0.4,1.9,0.4,3c0,0.2,0,0.5,0,0.8s-0.1,0.7-0.1,1c-0.1,0.4-0.1,0.8-0.2,1.2
			c-0.1,0.4-0.2,0.8-0.4,1.2c-0.3,0-0.6-0.1-0.9-0.1c-0.3-0.1-0.6-0.2-1-0.3c-0.3-0.1-0.6-0.2-0.9-0.3c-0.3-0.1-0.5-0.2-0.8-0.3
			c0.2-0.6,0.4-1.2,0.5-1.7c0.1-0.5,0.2-1,0.2-1.5c0-0.6-0.1-1.1-0.2-1.5c-0.1-0.4-0.3-0.7-0.5-1c-0.2-0.2-0.4-0.4-0.7-0.5
			c-0.3-0.1-0.5-0.2-0.8-0.2c-0.6,0-1.1,0.2-1.5,0.6s-0.6,1.1-0.6,2.1c0,0.4,0,0.8,0.1,1.2c0.1,0.4,0.2,0.9,0.5,1.4l-0.4,0.6
			l-9.6-0.4V103.7z"/>
	</g>
	<g class="st3">
		<path class="st4" d="M82,112.3c-0.7,0.1-1.3,0.2-1.8,0.2c-0.6,0-1.2-0.1-1.8-0.2v-5.1l-2.5,0c0,0.1,0,0.3,0,0.4s0,0.3,0,0.5
			c0,0.8-0.1,1.5-0.3,2.2c-0.2,0.7-0.6,1.2-1,1.7c-0.4,0.5-1,0.8-1.6,1.1c-0.6,0.3-1.4,0.4-2.2,0.4c-1,0-1.9-0.2-2.6-0.5
			s-1.4-0.8-1.9-1.5c-0.5-0.6-0.9-1.4-1.2-2.3s-0.4-1.9-0.4-3c0-0.2,0-0.5,0-0.8s0.1-0.7,0.1-1c0.1-0.4,0.1-0.8,0.2-1.2
			c0.1-0.4,0.2-0.8,0.4-1.2c0.3,0,0.6,0.1,0.9,0.1c0.3,0.1,0.6,0.2,1,0.3c0.3,0.1,0.6,0.2,0.9,0.3c0.3,0.1,0.5,0.2,0.8,0.3
			c-0.2,0.6-0.4,1.2-0.5,1.7c-0.1,0.5-0.2,1-0.2,1.5c0,0.6,0.1,1.1,0.2,1.5c0.1,0.4,0.3,0.7,0.5,1c0.2,0.2,0.4,0.4,0.7,0.5
			c0.3,0.1,0.5,0.2,0.8,0.2c0.6,0,1.1-0.2,1.5-0.6s0.6-1.1,0.6-2.1c0-0.4,0-0.8-0.1-1.2c-0.1-0.4-0.2-0.9-0.5-1.4l0.4-0.6l9.6,0.4
			V112.3z"/>
	</g>
	<rect x="36.7" y="143.8" class="st3" width="432.5" height="36.5"/>
	<g class="st3">
		<path class="st4" d="M422.2,158.4c0.1-0.1,0.4-0.2,0.7-0.4s0.7-0.2,1.2-0.2c0.4,0,0.7,0,1,0.1s0.6,0.1,0.7,0.2
			c0,0.6,0.2,1.2,0.3,1.8c0.2,0.6,0.4,1.1,0.7,1.5c0.3,0.5,0.7,0.9,1.1,1.2c0.4,0.3,0.8,0.6,1.3,0.8l0-0.1c-0.2-0.2-0.4-0.5-0.6-1
			c-0.2-0.5-0.3-1-0.3-1.7c0-0.7,0.1-1.3,0.3-1.9c0.2-0.6,0.5-1.1,1-1.6c0.4-0.5,1-0.8,1.7-1.1c0.7-0.3,1.5-0.4,2.5-0.4
			s1.8,0.2,2.6,0.5c0.7,0.3,1.4,0.8,1.9,1.3c0.5,0.6,0.9,1.2,1.1,1.9c0.3,0.7,0.4,1.5,0.4,2.4c0,2-0.6,3.6-1.7,4.6
			c-1.2,1.1-2.9,1.6-5.2,1.6c-1.3,0-2.6-0.2-3.9-0.6c-1.2-0.4-2.3-0.9-3.3-1.7c-1-0.8-1.8-1.8-2.4-3
			C422.7,161.5,422.3,160.1,422.2,158.4z M431.7,161.7c0,0.6,0.2,1.1,0.6,1.5c0.4,0.4,1,0.6,1.8,0.6c0.8,0,1.5-0.2,1.9-0.6
			c0.4-0.4,0.6-0.8,0.6-1.4c0-0.6-0.2-1.1-0.6-1.5c-0.4-0.4-1-0.6-1.8-0.6c-0.9,0-1.5,0.2-1.9,0.6
			C431.9,160.7,431.7,161.2,431.7,161.7z"/>
	</g>
	<g class="st3">
		<path class="st4" d="M83.9,165.6c-0.1,0.1-0.4,0.2-0.7,0.4s-0.7,0.2-1.2,0.2c-0.4,0-0.7,0-1-0.1s-0.6-0.1-0.7-0.2
			c0-0.6-0.2-1.2-0.3-1.8c-0.2-0.6-0.4-1.1-0.7-1.5c-0.3-0.5-0.7-0.9-1.1-1.2c-0.4-0.3-0.8-0.6-1.3-0.8l0,0.1c0.2,0.2,0.4,0.5,0.6,1
			c0.2,0.5,0.3,1,0.3,1.7c0,0.7-0.1,1.3-0.3,1.9c-0.2,0.6-0.5,1.1-1,1.6c-0.4,0.5-1,0.8-1.7,1.1c-0.7,0.3-1.5,0.4-2.5,0.4
			s-1.8-0.2-2.6-0.5c-0.7-0.3-1.4-0.8-1.9-1.3c-0.5-0.6-0.9-1.2-1.1-1.9c-0.3-0.7-0.4-1.5-0.4-2.4c0-2,0.6-3.6,1.7-4.6
			c1.2-1.1,2.9-1.6,5.2-1.6c1.3,0,2.6,0.2,3.9,0.6c1.2,0.4,2.3,0.9,3.3,1.7c1,0.8,1.8,1.8,2.4,3C83.3,162.5,83.7,163.9,83.9,165.6z
			 M74.4,162.3c0-0.6-0.2-1.1-0.6-1.5c-0.4-0.4-1-0.6-1.8-0.6c-0.8,0-1.5,0.2-1.9,0.6c-0.4,0.4-0.6,0.8-0.6,1.4
			c0,0.6,0.2,1.1,0.6,1.5c0.4,0.4,1,0.6,1.8,0.6c0.9,0,1.5-0.2,1.9-0.6C74.2,163.3,74.4,162.8,74.4,162.3z"/>
	</g>
	<rect x="36.7" y="197.8" class="st3" width="504.5" height="36.5"/>
	<g class="st3">
		<path class="st4" d="M499.6,221.8c-0.3,0.1-0.7,0.1-1,0.2c-0.3,0-0.6,0-0.9,0c-0.5,0-1.1-0.1-1.8-0.2v-11.7l0.6-0.4l16.8,6.8
			c-0.2,0.7-0.3,1.3-0.6,1.9s-0.5,1.2-1,1.8l-12.3-5V221.8z"/>
	</g>
	<g class="st3">
		<path class="st4" d="M78.3,210.2c0.3-0.1,0.7-0.1,1-0.2c0.3,0,0.6,0,0.9,0c0.5,0,1.1,0.1,1.8,0.2v11.7l-0.6,0.4l-16.8-6.8
			c0.2-0.7,0.3-1.3,0.6-1.9c0.2-0.6,0.5-1.2,1-1.8l12.3,5V210.2z"/>
	</g>
	<rect x="36.7" y="251.3" class="st3" width="576.5" height="36.5"/>
	<g class="st3">
		<path class="st4" d="M571,264.2c0.7,0,1.4,0.2,2,0.5c0.6,0.3,1.1,0.8,1.5,1.4c0.4-0.7,1-1.4,1.7-1.9c0.7-0.5,1.6-0.8,2.7-0.8
			c0.9,0,1.7,0.2,2.3,0.5c0.6,0.3,1.2,0.8,1.6,1.4s0.7,1.2,0.9,2c0.2,0.7,0.3,1.5,0.3,2.2s-0.1,1.5-0.3,2.2
			c-0.2,0.7-0.5,1.4-0.9,1.9c-0.4,0.6-0.9,1-1.6,1.4c-0.6,0.3-1.4,0.5-2.3,0.5c-1.1,0-1.9-0.2-2.7-0.7c-0.7-0.5-1.3-1.1-1.7-1.8
			c-0.4,0.6-0.9,1.1-1.5,1.4c-0.6,0.3-1.2,0.5-2,0.5c-0.7,0-1.3-0.1-1.9-0.4c-0.6-0.3-1.1-0.7-1.5-1.1c-0.4-0.5-0.7-1-0.9-1.7
			c-0.2-0.7-0.3-1.4-0.3-2.1c0-0.8,0.1-1.5,0.3-2.1c0.2-0.7,0.5-1.2,0.9-1.7c0.4-0.5,0.9-0.9,1.5-1.1S570.3,264.2,571,264.2z
			 M571,271.1c0.5,0,0.9-0.1,1.3-0.4c0.3-0.3,0.6-0.7,0.8-1.1c-0.2-0.5-0.4-0.9-0.8-1.2c-0.3-0.3-0.8-0.4-1.3-0.4
			c-0.4,0-0.7,0.1-1,0.4c-0.3,0.3-0.4,0.7-0.4,1.2c0,0.5,0.1,0.9,0.4,1.2C570.3,271,570.6,271.1,571,271.1z M578.7,267.4
			c-0.6,0-1.1,0.2-1.5,0.6c-0.4,0.4-0.7,0.9-0.9,1.5c0.2,0.6,0.5,1.1,0.9,1.5c0.4,0.4,0.9,0.6,1.5,0.6c0.6,0,1-0.2,1.4-0.5
			s0.6-0.9,0.6-1.5c0-0.7-0.2-1.2-0.6-1.6C579.7,267.6,579.3,267.4,578.7,267.4z"/>
	</g>
	<g class="st3">
		<path class="st4" d="M78.9,274.9c-0.7,0-1.4-0.2-2-0.5c-0.6-0.3-1.1-0.8-1.5-1.4c-0.4,0.7-1,1.4-1.7,1.9c-0.7,0.5-1.6,0.8-2.7,0.8
			c-0.9,0-1.7-0.2-2.3-0.5c-0.6-0.3-1.2-0.8-1.6-1.4s-0.7-1.2-0.9-2c-0.2-0.7-0.3-1.5-0.3-2.2c0-0.8,0.1-1.5,0.3-2.2
			c0.2-0.7,0.5-1.4,0.9-1.9c0.4-0.6,0.9-1,1.6-1.4c0.6-0.3,1.4-0.5,2.3-0.5c1.1,0,1.9,0.2,2.7,0.7c0.7,0.5,1.3,1.1,1.7,1.8
			c0.4-0.6,0.9-1.1,1.5-1.4c0.6-0.3,1.2-0.5,2-0.5c0.7,0,1.3,0.1,1.9,0.4s1.1,0.7,1.5,1.1c0.4,0.5,0.7,1,0.9,1.7
			c0.2,0.7,0.3,1.4,0.3,2.1c0,0.8-0.1,1.5-0.3,2.1c-0.2,0.7-0.5,1.2-0.9,1.7c-0.4,0.5-0.9,0.9-1.5,1.1
			C80.2,274.7,79.6,274.9,78.9,274.9z M71.2,271.6c0.6,0,1.1-0.2,1.5-0.6c0.4-0.4,0.7-0.9,0.9-1.5c-0.2-0.6-0.5-1.1-0.9-1.5
			c-0.4-0.4-0.9-0.6-1.5-0.6c-0.6,0-1,0.2-1.4,0.5c-0.4,0.4-0.6,0.9-0.6,1.5c0,0.7,0.2,1.2,0.6,1.6S70.7,271.6,71.2,271.6z
			 M78.9,267.9c-0.5,0-0.9,0.1-1.3,0.4s-0.6,0.7-0.8,1.1c0.2,0.5,0.4,0.9,0.8,1.2c0.3,0.3,0.8,0.4,1.3,0.4c0.4,0,0.7-0.1,1-0.4
			c0.3-0.3,0.4-0.7,0.4-1.2s-0.1-0.9-0.4-1.2C79.7,268.1,79.3,267.9,78.9,267.9z"/>
	</g>
	<rect x="36.7" y="305.3" class="st3" width="648.5" height="36.5"/>
	<g class="st3">
		<path class="st4" d="M656.5,327.1c-0.1,0.1-0.4,0.2-0.7,0.4c-0.3,0.1-0.7,0.2-1.2,0.2c-0.4,0-0.7,0-1-0.1c-0.3,0-0.6-0.1-0.7-0.2
			c0-0.6-0.2-1.2-0.3-1.8c-0.2-0.6-0.4-1.1-0.7-1.5c-0.3-0.5-0.6-0.9-1.1-1.2c-0.4-0.3-0.9-0.6-1.4-0.8l0,0.1c0.2,0.2,0.4,0.5,0.6,1
			c0.2,0.5,0.3,1,0.3,1.7c0,0.7-0.1,1.3-0.3,1.9c-0.2,0.6-0.5,1.1-1,1.6c-0.4,0.5-1,0.8-1.7,1.1c-0.7,0.3-1.5,0.4-2.5,0.4
			c-1,0-1.8-0.2-2.6-0.5c-0.7-0.3-1.4-0.8-1.9-1.3c-0.5-0.6-0.9-1.2-1.1-1.9c-0.3-0.7-0.4-1.5-0.4-2.4c0-2,0.6-3.6,1.7-4.6
			c1.2-1.1,2.9-1.6,5.2-1.6c1.3,0,2.6,0.2,3.9,0.6s2.3,0.9,3.3,1.7c1,0.8,1.8,1.8,2.4,3C655.9,324,656.3,325.4,656.5,327.1z
			 M647,323.8c0-0.6-0.2-1.1-0.6-1.5c-0.4-0.4-1-0.6-1.8-0.6c-0.8,0-1.5,0.2-1.9,0.6c-0.4,0.4-0.6,0.8-0.6,1.4
			c0,0.6,0.2,1.1,0.6,1.5c0.4,0.4,1,0.6,1.8,0.6c0.9,0,1.5-0.2,1.9-0.6C646.8,324.8,647,324.3,647,323.8z"/>
	</g>
	<g class="st3">
		<path class="st4" d="M65.5,319.9c0.1-0.1,0.4-0.2,0.7-0.4c0.3-0.1,0.7-0.2,1.2-0.2c0.4,0,0.7,0,1,0.1c0.3,0,0.6,0.1,0.7,0.2
			c0,0.6,0.2,1.2,0.3,1.8c0.2,0.6,0.4,1.1,0.7,1.5c0.3,0.5,0.6,0.9,1.1,1.2c0.4,0.3,0.9,0.6,1.4,0.8l0-0.1c-0.2-0.2-0.4-0.5-0.6-1
			c-0.2-0.5-0.3-1-0.3-1.7c0-0.7,0.1-1.3,0.3-1.9c0.2-0.6,0.5-1.1,1-1.6c0.4-0.5,1-0.8,1.7-1.1c0.7-0.3,1.5-0.4,2.5-0.4
			c1,0,1.8,0.2,2.6,0.5c0.7,0.3,1.4,0.8,1.9,1.3c0.5,0.6,0.9,1.2,1.1,1.9c0.3,0.7,0.4,1.5,0.4,2.4c0,2-0.6,3.6-1.7,4.6
			c-1.2,1.1-2.9,1.6-5.2,1.6c-1.3,0-2.6-0.2-3.9-0.6c-1.2-0.4-2.3-0.9-3.3-1.7c-1-0.8-1.8-1.8-2.4-3S65.6,321.6,65.5,319.9z
			 M74.9,323.3c0,0.6,0.2,1.1,0.6,1.5c0.4,0.4,1,0.6,1.8,0.6c0.8,0,1.5-0.2,1.9-0.6c0.4-0.4,0.6-0.8,0.6-1.4s-0.2-1.1-0.6-1.5
			c-0.4-0.4-1-0.6-1.8-0.6c-0.9,0-1.5,0.2-1.9,0.6C75.1,322.2,74.9,322.7,74.9,323.3z"/>
	</g>
	<rect x="63.8" y="359.8" class="st3" width="720.5" height="36.5"/>
	<g class="st3">
		<path class="st4" d="M745.3,388.6c-0.2,0.1-0.4,0.3-0.7,0.4c-0.3,0.1-0.6,0.3-0.8,0.4c-0.3,0.1-0.6,0.2-0.9,0.3
			c-0.3,0.1-0.6,0.2-0.9,0.2l-3-7v-1h12.1v-3.1c0.6-0.1,1.2-0.2,1.8-0.2c0.6,0,1.2,0.1,1.8,0.2v10.3c-0.6,0.1-1.2,0.2-1.8,0.2
			c-0.6,0-1.2-0.1-1.8-0.2V386h-6.8L745.3,388.6z"/>
		<path class="st4" d="M738.8,372.3c0-1.1,0.2-2,0.6-2.8s1-1.4,1.7-1.9c0.7-0.5,1.6-0.9,2.6-1.1c1-0.2,2.1-0.4,3.2-0.4
			s2.2,0.1,3.2,0.4s1.8,0.6,2.5,1.2c0.7,0.5,1.3,1.2,1.7,2c0.4,0.8,0.6,1.7,0.6,2.8s-0.2,2-0.6,2.8c-0.4,0.8-1,1.4-1.7,1.9
			c-0.7,0.5-1.6,0.9-2.5,1.1s-2,0.4-3.2,0.4s-2.2-0.1-3.2-0.4s-1.9-0.6-2.6-1.2c-0.7-0.5-1.3-1.2-1.7-2
			C739,374.3,738.8,373.3,738.8,372.3z M742.4,372.3c0,0.6,0.4,1.1,1.1,1.5c0.8,0.4,1.9,0.5,3.4,0.5c1.5,0,2.6-0.2,3.4-0.5
			c0.8-0.4,1.1-0.9,1.1-1.5c0-0.6-0.4-1.1-1.1-1.4c-0.8-0.4-1.9-0.5-3.4-0.5c-1.5,0-2.6,0.2-3.4,0.5
			C742.8,371.2,742.4,371.7,742.4,372.3z"/>
	</g>
	<g class="st3">
		<path class="st4" d="M102.7,367.4c0.2-0.1,0.4-0.3,0.7-0.4c0.3-0.1,0.6-0.3,0.8-0.4s0.6-0.2,0.9-0.3s0.6-0.2,0.9-0.2l3,7v1H96.9
			v3.1c-0.6,0.1-1.2,0.2-1.8,0.2c-0.6,0-1.2-0.1-1.8-0.2v-10.3c0.6-0.1,1.2-0.2,1.8-0.2c0.6,0,1.2,0.1,1.8,0.2v3.1h6.8L102.7,367.4z
			"/>
		<path class="st4" d="M109.2,383.8c0,1.1-0.2,2-0.6,2.8s-1,1.4-1.7,1.9c-0.7,0.5-1.6,0.9-2.6,1.1c-1,0.2-2.1,0.4-3.2,0.4
			s-2.2-0.1-3.2-0.4c-1-0.3-1.8-0.6-2.5-1.2c-0.7-0.5-1.3-1.2-1.7-2s-0.6-1.7-0.6-2.8c0-1.1,0.2-2,0.6-2.8s1-1.4,1.7-1.9
			c0.7-0.5,1.6-0.9,2.5-1.1c1-0.2,2-0.4,3.2-0.4s2.2,0.1,3.2,0.4s1.9,0.6,2.6,1.2c0.7,0.5,1.3,1.2,1.7,2S109.2,382.7,109.2,383.8z
			 M105.6,383.7c0-0.6-0.4-1.1-1.1-1.5s-1.9-0.5-3.4-0.5c-1.5,0-2.6,0.2-3.4,0.5c-0.8,0.4-1.1,0.9-1.1,1.5c0,0.6,0.4,1.1,1.1,1.4
			c0.8,0.4,1.9,0.5,3.4,0.5c1.5,0,2.6-0.2,3.4-0.5C105.2,384.8,105.6,384.3,105.6,383.7z"/>
	</g>
	<g class="st3">
		<polygon points="504.8,180.3 504.8,143.8 504.8,143.8 577.3,143.8 577.3,180.3 		"/>
		<g>
			<path class="st4" d="M542.6,157.9c0.2-0.1,0.4-0.3,0.7-0.4c0.3-0.1,0.6-0.3,0.8-0.4s0.6-0.2,0.9-0.3s0.6-0.2,0.9-0.2l3,7v1h-12.1
				v3.1c-0.6,0.1-1.2,0.2-1.8,0.2c-0.6,0-1.2-0.1-1.8-0.2v-10.3c0.6-0.1,1.2-0.2,1.8-0.2c0.6,0,1.2,0.1,1.8,0.2v3.1h6.8L542.6,157.9
				z"/>
		</g>
	</g>
	<g class="st3">
		<path d="M721,333V179.6c0-5-1.3-10-3.8-14.3l-23.8-41.2c-2.5-4.4-7.2-7.1-12.3-7.1H649V44.6h144.4V333H721z"/>
	</g>
	<path class="st3" d="M601,144.9l24.8-4.8c1.9-0.4,3.1-2.1,2.9-4c-1.4-10-0.7-20.2,2.1-30c0.5-1.8-0.5-3.8-2.3-4.4l-23.9-8.2
		c-1.9-0.7-4,0.4-4.6,2.4c-4.6,15.1-5.6,30.8-3.2,46.1C597.1,143.9,599,145.3,601,144.9z"/>
	<path class="st3" d="M637.4,204.4l15.6-19.9c1.2-1.5,1-3.7-0.5-4.9c-7.6-6.6-13.8-14.8-18.1-24c-0.8-1.7-2.8-2.5-4.6-1.8l-23.4,9.5
		c-1.9,0.8-2.8,3-1.9,4.8c6.4,14.4,16,26.9,27.8,36.9C633.8,206.3,636.2,206,637.4,204.4z"/>
	<path class="st3" d="M690,248.1l-22.9-10.7c-1.7-0.8-3.8-0.1-4.7,1.6c-4.7,8.9-11.3,16.8-19.3,23c-1.5,1.2-1.8,3.3-0.7,4.9
		l14.5,20.7c1.2,1.7,3.5,2,5.1,0.8c12.6-9.5,22.7-21.7,29.7-35.4C692.6,251.2,691.8,248.9,690,248.1z"/>
	<path class="st3" d="M695.4,178.5l-24.3,7c-1.8,0.5-2.9,2.4-2.5,4.3c2.3,9.8,2.5,20.1,0.5,30c-0.4,1.9,0.8,3.7,2.7,4.2l24.5,6.1
		c2,0.5,4-0.8,4.4-2.8c3.3-15.4,2.9-31.2-0.8-46.2C699.4,179.1,697.4,177.9,695.4,178.5z"/>
	<g class="st3">
		<path class="st5" d="M695.7,210.1c-0.1,0.5-0.2,0.7-0.4,0.9c-0.1,0.1-0.4,0.2-0.9,0.2l-0.6,0l0,0.5c0,0.2,0,0.4,0.1,0.4
			c0,0.1,0.2,0.1,0.4,0.1s0.4,0,0.4,0c0.1,0,0.1,0.2,0.2,0.4c0.1,0.1,0.1,0.3,0.2,0.4c0,0.1,0,0.1,0,0.2c-0.7,0-1.4,0-1.8,0
			c-0.5,0-0.9-0.1-1.2-0.1c-3.3-0.4-6-1.7-8.1-3.8c-0.2-0.2-0.2-0.3-0.2-0.3c0,0,0.2-0.1,0.6-0.3c0.3-0.2,0.6-0.3,0.8-0.1
			c0.2,0.2,0.4,0.1,0.6-0.1c0.2-0.3,0.2-0.5,0.1-0.6c-0.5-0.6-0.8-1-0.9-1.2c-0.7-1.1-1.1-1.1-1.5,0c-0.1,0.3-0.1,0.4-0.2,0.4
			c-0.1-0.1-0.1-0.2-0.2-0.3c-0.2-0.6-0.5-1-1-1c-0.5,0-1,0.2-1.6,0.8c-0.6,0.6-0.9,1.2-0.9,1.6c-0.2,1.1-0.5,1.7-0.8,1.8
			c-0.2,0.1-0.4-0.1-0.6-0.4c-0.2-0.3-0.3-0.9-0.4-1.6c-0.1-0.7-0.2-1.7-0.2-2.9c-0.1-3.8,0.1-5.9,0.7-6.1c0.2-0.1,0.4-0.1,0.6,0.2
			c0.2,0.2,0.3,0.6,0.5,1.2c0,0.3,0,0.5,0.1,0.6c0,0.3,0.3,0.7,0.9,1.2c0.6,0.6,1.2,0.9,1.7,0.8c0.5-0.1,0.9-0.4,1-1.1
			c0.1-0.2,0.1-0.2,0.2,0c0.4,1.3,0.9,1.4,1.6,0.2c0.3-0.5,0.5-0.8,0.8-1.1c0.2-0.2,0.1-0.4-0.1-0.7c-0.2-0.2-0.4-0.2-0.6,0
			c-0.1,0.1-0.4,0.1-0.8-0.1l-0.5-0.2l0.4-0.5c2.1-2.1,4.7-3.4,7.6-3.9c0.6-0.1,1.3-0.2,2.1-0.2c0.7,0,1.1,0,1.1,0.2
			c0,0.1,0,0.4-0.2,0.9c0,0.1-0.2,0.1-0.5,0.1c-0.2,0-0.4,0-0.4,0.1c0,0,0,0.2,0,0.4l0,0.6l0.6,0c0.6,0,0.9,0.1,1,0.3
			c0.5,0.6,0.8,2.1,0.9,4.7C696.4,205.8,696.3,208.4,695.7,210.1z M692.5,197.4l0-0.5c0-0.3,0-0.5-0.1-0.5c0-0.1-0.2-0.1-0.4,0
			c-2.2,0.3-4.1,1.1-5.7,2.3c-0.2,0.1-0.3,0.2-0.3,0.3c0,0.1,0.1,0.2,0.4,0.4l0.3,0.3l0.4-0.3c1.2-0.9,2.8-1.5,4.6-1.9
			C692.2,197.6,692.4,197.5,692.5,197.4z M692.7,212c0-0.1,0-0.2,0-0.5s0-0.4-0.1-0.5c0-0.1-0.2-0.1-0.4-0.2c-1.9-0.3-3.6-0.8-5-1.7
			l-0.4-0.3l-0.3,0.3c-0.2,0.2-0.3,0.4-0.3,0.4c0,0.1,0.3,0.2,0.7,0.5c1.6,1.1,3.4,1.7,5.5,2C692.6,212.1,692.7,212.1,692.7,212z
			 M695.4,204.3c0-1.3,0-2.1,0-2.4c-0.2-2.2-0.4-3.5-0.7-3.7c0-0.1-0.1,0.5-0.4,1.8c-0.1,1.6-0.2,3.4-0.1,5.5c0.1,2,0.3,3.5,0.6,4.3
			l0.2,0.2c0.2-0.5,0.4-1.6,0.5-3.3C695.5,206.4,695.5,205.6,695.4,204.3z"/>
	</g>
	<path class="st3" d="M612.1,225.1l-8.2-23.9c-0.6-1.8-2.6-2.8-4.4-2.3c-9.7,2.8-19.9,3.6-30,2.1c-1.9-0.3-3.7,1-4,2.9l-4.8,24.8
		c-0.4,2,1,3.9,3,4.3c15.6,2.4,31.3,1.2,46.1-3.2C611.7,229.1,612.8,227,612.1,225.1z"/>
	<g class="st3">
		<path class="st5" d="M603.5,113.4c0.1-0.4,0.3-0.7,0.4-0.8c0.2-0.1,0.5-0.1,0.9-0.1l0.6,0l0-0.5c0-0.2,0-0.4,0-0.4
			c0-0.1-0.2-0.1-0.4-0.1c-0.2,0-0.4,0-0.4-0.1c-0.1,0-0.1-0.2-0.1-0.4c0-0.1-0.1-0.3-0.1-0.4c0-0.1,0-0.1,0-0.2
			c0.7,0.1,1.4,0.1,1.8,0.2c0.5,0.1,0.9,0.1,1.2,0.2c3.2,0.7,5.8,2.2,7.7,4.5c0.2,0.2,0.2,0.3,0.2,0.3c0,0-0.2,0.1-0.6,0.3
			c-0.4,0.2-0.6,0.2-0.8,0c-0.2-0.2-0.4-0.2-0.6,0c-0.2,0.3-0.3,0.5-0.1,0.6c0.4,0.6,0.7,1,0.8,1.3c0.6,1.1,1,1.2,1.5,0.1
			c0.1-0.3,0.1-0.4,0.2-0.4c0,0.1,0.1,0.2,0.2,0.3c0.1,0.6,0.4,1,0.9,1.1c0.5,0.1,1-0.1,1.6-0.6c0.6-0.6,1-1.1,1.1-1.5
			c0.3-1.1,0.6-1.6,1-1.7c0.2,0,0.4,0.1,0.6,0.5c0.1,0.4,0.2,0.9,0.3,1.7c0,0.7,0,1.7-0.1,2.9c-0.2,3.8-0.6,5.8-1.3,6
			c-0.2,0.1-0.4,0-0.6-0.2c-0.2-0.2-0.3-0.6-0.3-1.2c0-0.3,0-0.5,0-0.6c0-0.3-0.2-0.8-0.8-1.3c-0.6-0.7-1.1-1-1.7-1
			c-0.5,0-0.9,0.4-1.1,1c-0.1,0.2-0.1,0.2-0.2,0c-0.3-1.3-0.8-1.5-1.5-0.4c-0.3,0.4-0.6,0.8-0.8,1.1c-0.2,0.2-0.2,0.4,0,0.7
			c0.2,0.2,0.4,0.2,0.6,0.1c0.2-0.1,0.4-0.1,0.8,0.2l0.5,0.3l-0.5,0.5c-2.3,1.9-4.9,3-7.9,3.2c-0.6,0.1-1.3,0.1-2.1,0
			c-0.7-0.1-1.1-0.1-1.1-0.2c0-0.1,0.1-0.4,0.2-0.8c0-0.1,0.2-0.1,0.5-0.1c0.2,0,0.4,0,0.4,0c0,0,0.1-0.2,0.1-0.4l0-0.6l-0.6,0
			c-0.6,0-0.9-0.2-1-0.4c-0.4-0.6-0.6-2.2-0.5-4.8C602.4,117.6,602.8,115,603.5,113.4z M603.2,119.2c-0.1,1.3-0.1,2.1-0.2,2.4
			c0,2.2,0.1,3.5,0.3,3.7c0,0.1,0.2-0.5,0.6-1.8c0.3-1.6,0.5-3.4,0.5-5.4c0.1-2,0-3.5-0.2-4.4l-0.2-0.2c-0.3,0.5-0.5,1.6-0.7,3.2
			C603.4,117.1,603.3,117.9,603.2,119.2z M605.6,126.3l0,0.5c0,0.3,0,0.5,0,0.5c0,0.1,0.2,0.1,0.4,0c2.2-0.1,4.2-0.7,5.9-1.8
			c0.2-0.1,0.3-0.2,0.3-0.2c0-0.1-0.1-0.2-0.3-0.5l-0.2-0.4l-0.4,0.2c-1.3,0.8-2.9,1.3-4.8,1.5C605.9,126.2,605.6,126.3,605.6,126.3
			z M606.6,111.8c0,0.1-0.1,0.2-0.1,0.5c0,0.3,0,0.4,0,0.5c0,0.1,0.2,0.1,0.4,0.2c1.9,0.4,3.5,1.1,4.8,2.1l0.4,0.4l0.3-0.3
			c0.2-0.2,0.4-0.3,0.3-0.4s-0.3-0.2-0.7-0.6c-1.5-1.2-3.2-2-5.3-2.4C606.7,111.7,606.7,111.7,606.6,111.8z"/>
	</g>
	<g class="st3">
		<path class="st5" d="M618.7,179c-0.2-0.4-0.3-0.7-0.2-0.9c0-0.2,0.3-0.4,0.6-0.7l0.5-0.4l-0.3-0.4c-0.1-0.2-0.2-0.3-0.3-0.3
			c-0.1,0-0.2,0-0.4,0.2c-0.2,0.1-0.3,0.2-0.4,0.2c-0.1,0-0.2-0.1-0.4-0.2c-0.1-0.1-0.2-0.1-0.4-0.2c0,0-0.1-0.1-0.1-0.1
			c0.6-0.4,1.1-0.8,1.5-1.1c0.4-0.3,0.8-0.5,1.1-0.6c2.9-1.6,5.8-2.2,8.8-1.7c0.2,0,0.4,0.1,0.4,0.1c0,0-0.1,0.2-0.3,0.6
			c-0.1,0.4-0.3,0.6-0.6,0.5c-0.2,0-0.4,0.1-0.4,0.4c0,0.4,0.1,0.5,0.3,0.5c0.7,0.2,1.2,0.3,1.4,0.4c1.2,0.5,1.5,0.2,1.2-0.9
			c-0.1-0.3-0.2-0.4-0.1-0.4c0.1,0.1,0.2,0.1,0.3,0.1c0.5,0.4,1,0.5,1.4,0.2c0.4-0.3,0.7-0.8,0.8-1.5c0.1-0.8,0-1.5-0.2-1.8
			c-0.5-1-0.6-1.7-0.4-2c0.1-0.2,0.4-0.2,0.7,0c0.3,0.2,0.8,0.5,1.3,1.1c0.5,0.5,1.1,1.3,1.9,2.3c2.4,3,3.4,4.8,3,5.4
			c-0.1,0.2-0.3,0.3-0.6,0.2c-0.3-0.1-0.6-0.3-1.1-0.7c-0.2-0.2-0.3-0.4-0.4-0.4c-0.2-0.3-0.7-0.4-1.4-0.4c-0.9-0.1-1.5,0-1.9,0.3
			c-0.4,0.4-0.4,0.9-0.2,1.5c0.1,0.2,0,0.2-0.1,0.1c-1.1-0.8-1.6-0.6-1.4,0.7c0,0.5,0.1,1,0.1,1.4c0,0.2,0.1,0.4,0.5,0.5
			c0.3,0,0.4-0.1,0.5-0.3c0-0.2,0.3-0.3,0.7-0.4l0.6-0.1l0,0.7c-0.5,3-1.8,5.5-3.8,7.6c-0.4,0.5-0.9,0.9-1.5,1.4
			c-0.6,0.4-0.9,0.6-1,0.5c-0.1-0.1-0.2-0.4-0.4-0.8c0,0,0.1-0.2,0.4-0.4c0.2-0.1,0.3-0.2,0.3-0.3c0,0-0.1-0.2-0.2-0.3l-0.4-0.5
			l-0.5,0.4c-0.5,0.3-0.8,0.5-1,0.3c-0.7-0.2-1.9-1.3-3.5-3.3C620.6,182.9,619.2,180.7,618.7,179z M622.3,183.5
			c0.8,1,1.3,1.7,1.4,1.9c1.5,1.7,2.4,2.5,2.7,2.6c0.1,0.1-0.2-0.5-0.7-1.7c-0.8-1.4-1.9-2.9-3.2-4.5c-1.3-1.6-2.3-2.6-3-3.2l-0.2,0
			c0.1,0.5,0.6,1.5,1.6,2.9C621.1,181.9,621.5,182.5,622.3,183.5z M620,175.7c0,0.1,0.1,0.2,0.2,0.4c0.2,0.2,0.3,0.3,0.3,0.4
			c0.1,0,0.2,0,0.4-0.1c1.7-0.9,3.4-1.4,5.1-1.6l0.6,0l0-0.4c0-0.3,0-0.5,0-0.5c-0.1,0-0.4,0-0.9,0c-1.9,0.1-3.7,0.6-5.6,1.6
			C620,175.5,620,175.6,620,175.7z M628.8,187.4l0.3,0.4c0.2,0.2,0.3,0.4,0.3,0.4s0.2,0,0.3-0.2c1.6-1.6,2.7-3.3,3.2-5.3
			c0.1-0.2,0.1-0.3,0.1-0.4c0,0-0.2-0.1-0.5-0.1l-0.4-0.1l-0.2,0.5c-0.5,1.4-1.4,2.9-2.6,4.2C628.9,187.1,628.8,187.3,628.8,187.4z"
			/>
	</g>
	<g class="st3">
		<path class="st5" d="M669.5,272.1c-0.4,0.3-0.7,0.4-0.8,0.4c-0.2,0-0.5-0.2-0.8-0.4l-0.5-0.4l-0.3,0.4c-0.1,0.2-0.2,0.3-0.2,0.4
			c0,0.1,0.1,0.2,0.2,0.3c0.2,0.1,0.3,0.2,0.3,0.3s0,0.2-0.1,0.4c0,0.1-0.1,0.3-0.1,0.4c0,0-0.1,0.1-0.1,0.1c-0.6-0.5-1-0.9-1.4-1.2
			c-0.4-0.3-0.6-0.6-0.9-0.9c-2.2-2.4-3.4-5.2-3.6-8.2c0-0.2,0-0.4,0-0.4c0,0,0.2,0,0.6,0.1c0.4,0,0.6,0.2,0.6,0.4
			c0,0.2,0.2,0.3,0.5,0.3c0.4-0.1,0.5-0.2,0.5-0.4c0-0.7,0.1-1.2,0.1-1.5c0.2-1.2-0.2-1.6-1.1-0.9c-0.2,0.2-0.4,0.3-0.4,0.2
			c0-0.1,0-0.2,0-0.3c0.3-0.6,0.2-1.1-0.1-1.4c-0.4-0.3-0.9-0.5-1.7-0.5c-0.8,0.1-1.4,0.3-1.7,0.6c-0.9,0.7-1.5,1-1.8,0.8
			c-0.2-0.1-0.3-0.3-0.2-0.7c0.1-0.4,0.3-0.9,0.8-1.5c0.4-0.6,1-1.4,1.8-2.3c2.4-3,3.9-4.4,4.6-4.1c0.2,0.1,0.4,0.2,0.3,0.5
			c0,0.3-0.2,0.7-0.4,1.2c-0.2,0.2-0.3,0.4-0.3,0.5c-0.2,0.3-0.3,0.8-0.1,1.5c0.1,0.9,0.3,1.5,0.8,1.8s0.9,0.2,1.5-0.2
			c0.2-0.1,0.2-0.1,0.1,0.1c-0.5,1.3-0.2,1.7,1,1.2c0.5-0.2,1-0.3,1.3-0.4c0.2,0,0.4-0.2,0.4-0.6c-0.1-0.3-0.2-0.4-0.4-0.4
			c-0.2,0-0.4-0.2-0.5-0.6l-0.2-0.5l0.7-0.1c3-0.2,5.8,0.5,8.3,2c0.6,0.3,1.1,0.7,1.7,1.2c0.6,0.5,0.8,0.8,0.7,0.8
			c-0.1,0.1-0.3,0.3-0.7,0.5c0,0-0.2,0-0.5-0.3c-0.2-0.1-0.3-0.2-0.3-0.2c0,0-0.1,0.1-0.3,0.3l-0.4,0.5l0.5,0.4
			c0.4,0.4,0.6,0.7,0.6,0.9c0,0.7-0.8,2.1-2.4,4.2C672.8,269.3,671,271.2,669.5,272.1z M665.9,271.6c0.1,0,0.2-0.1,0.3-0.3
			c0.2-0.2,0.3-0.3,0.3-0.4c0-0.1,0-0.2-0.2-0.4c-1.3-1.4-2.2-3-2.7-4.6l-0.1-0.5l-0.4,0.1c-0.3,0-0.5,0.1-0.5,0.1
			c0,0.1,0.1,0.3,0.2,0.9c0.5,1.8,1.4,3.5,2.8,5.1C665.8,271.6,665.9,271.6,665.9,271.6z M673.1,267.5c0.8-1,1.3-1.6,1.5-1.8
			c1.3-1.8,1.9-2.9,1.9-3.2c0.1-0.1-0.4,0.3-1.5,1.1c-1.2,1.1-2.4,2.5-3.6,4.1s-2.1,2.8-2.4,3.7l0,0.2c0.5-0.2,1.3-1,2.5-2.2
			C671.7,269.2,672.2,268.5,673.1,267.5z M675.3,260.4l0.3-0.4c0.2-0.2,0.3-0.4,0.3-0.4c0-0.1-0.1-0.1-0.3-0.2
			c-1.9-1.2-3.8-1.9-5.8-2c-0.2,0-0.3,0-0.4,0c0,0,0,0.2,0,0.5l0,0.4l0.5,0.1c1.5,0.2,3.1,0.7,4.7,1.6
			C675,260.3,675.3,260.4,675.3,260.4z"/>
	</g>
	<g class="st3">
		<path class="st5" d="M580.6,227.1c-0.5-0.1-0.8-0.2-0.9-0.3c-0.1-0.1-0.2-0.4-0.2-0.9l0-0.6l-0.5,0c-0.2,0-0.4,0-0.4,0.1
			s-0.1,0.2-0.1,0.4c0,0.2,0,0.4,0,0.4c0,0.1-0.1,0.1-0.4,0.2c-0.1,0.1-0.2,0.1-0.4,0.2c-0.1,0-0.1,0-0.2,0
			c-0.1-0.7-0.1-1.4-0.1-1.8c0-0.5,0-0.9,0-1.3c0.2-3.3,1.4-6,3.4-8.3c0.2-0.2,0.3-0.3,0.3-0.2c0,0,0.1,0.2,0.3,0.5
			c0.3,0.3,0.3,0.6,0.1,0.8c-0.2,0.2-0.1,0.4,0.1,0.6c0.3,0.2,0.5,0.2,0.6,0c0.5-0.5,0.9-0.8,1.1-0.9c1-0.7,1-1.2-0.1-1.5
			c-0.3,0-0.4-0.1-0.4-0.1c0.1-0.1,0.2-0.1,0.2-0.2c0.6-0.2,0.9-0.6,0.9-1.1c0-0.5-0.3-1-0.8-1.5c-0.7-0.5-1.2-0.8-1.6-0.8
			c-1.1-0.2-1.7-0.4-1.9-0.7c-0.1-0.2,0.1-0.4,0.4-0.6c0.3-0.2,0.9-0.4,1.6-0.5c0.7-0.1,1.7-0.2,2.9-0.3c3.8-0.3,5.9-0.2,6.1,0.4
			c0.1,0.2,0.1,0.4-0.1,0.6c-0.2,0.2-0.6,0.4-1.2,0.5c-0.3,0-0.5,0.1-0.6,0.1c-0.3,0-0.7,0.3-1.1,0.9c-0.6,0.7-0.8,1.3-0.7,1.8
			c0.1,0.5,0.5,0.8,1.2,1c0.2,0,0.2,0.1,0,0.2c-1.3,0.5-1.3,1-0.1,1.6c0.5,0.3,0.9,0.5,1.2,0.7c0.2,0.2,0.4,0.1,0.7-0.1
			c0.2-0.2,0.2-0.4,0-0.6c-0.2-0.1-0.1-0.4,0.1-0.8l0.2-0.5l0.5,0.4c2.2,2,3.6,4.5,4.3,7.4c0.2,0.6,0.3,1.3,0.3,2
			c0.1,0.7,0,1.1-0.1,1.1c-0.1,0-0.4,0-0.9-0.1c-0.1,0-0.1-0.2-0.1-0.5c0-0.2,0-0.4-0.1-0.4c0,0-0.2,0-0.4,0l-0.6,0l0,0.6
			c0,0.6,0,0.9-0.3,1.1c-0.5,0.5-2.1,0.9-4.7,1.2C584.9,227.5,582.3,227.5,580.6,227.1z M578.5,224.1c0.1,0,0.2,0,0.5,0
			s0.4,0,0.5-0.1c0.1,0,0.1-0.2,0.1-0.4c0.2-1.9,0.6-3.6,1.4-5.1l0.3-0.5l-0.4-0.2c-0.2-0.2-0.4-0.3-0.5-0.3c-0.1,0-0.2,0.3-0.5,0.8
			c-1,1.6-1.5,3.5-1.7,5.5C578.4,224.1,578.5,224.1,578.5,224.1z M586.4,226.5c1.3-0.1,2.1-0.1,2.4-0.2c2.2-0.3,3.4-0.6,3.6-0.9
			c0.1,0-0.5-0.1-1.8-0.3c-1.6-0.1-3.4,0-5.5,0.2c-2,0.2-3.5,0.5-4.3,0.8l-0.2,0.2c0.5,0.2,1.6,0.3,3.3,0.3
			C584.3,226.6,585.1,226.6,586.4,226.5z M593.1,223.2l0.5,0c0.3,0,0.5,0,0.5-0.1c0.1,0,0-0.2,0-0.4c-0.4-2.2-1.3-4.1-2.6-5.6
			c-0.1-0.2-0.2-0.2-0.3-0.2c-0.1,0-0.2,0.1-0.4,0.4l-0.3,0.3l0.3,0.4c0.9,1.2,1.7,2.7,2.1,4.5C593,222.8,593,223.1,593.1,223.2z"/>
	</g>
	<line class="st6" x1="61.7" y1="157.2" x2="61.7" y2="166.9"/>
	<line class="st6" x1="61.7" y1="318.7" x2="61.7" y2="328.4"/>
	<line class="st6" x1="660.2" y1="318.7" x2="660.2" y2="328.4"/>
	<line class="st6" x1="444.2" y1="157.2" x2="444.2" y2="166.9"/>
</g>
<g id="Layer_5" class="st2">
	<g class="st3">
		<path class="st7" d="M760.4,216.2c0,0.4,0,0.8,0,1.2c0,0.4,0.2,1.4,0,1.8c-0.2,0.3-0.9,0.1-1.2,0.1c-2.5,0-5.1,0-7.6,0
			c-0.9,0-1.9,0-2.8,0c-0.1,0-0.4,0-0.4,0c-0.1,0.1,0,0.9,0,1.1c0.2,0.8,0.7,1.7,1,2.4c0.5,1.2,1,2.4,1.5,3.6c0.1,0.2,0.2,0.9,0.4,1
			c0.5,0.3,2.1-0.7,2.6-0.9c0.9-0.5,0.7-0.6,0.3-1.5c-0.2-0.5-0.4-1-0.6-1.6c1.7,0,3.4,0,5,0c0.3,0,1.6-0.2,1.8,0c0.3,0.3,0,2,0,2.4
			c0,0.4-0.1,0.6,0.2,0.8c0.6,0.4,2.4,0.3,3,0c0.6-0.2,0.3,0,0.4-0.3c0.1-0.2,0-0.6,0-0.9c0-2,0-4.1,0-6.1c0-0.8,0.1-1.8,0-2.6
			c0-0.1,0.1-0.4,0-0.4c-0.2-0.3-1.5-0.2-1.8-0.2C761.6,216,761,216.1,760.4,216.2z"/>
		<path class="st7" d="M760.4,182.8c0,1.4,0,2.8,0,4.2c-2.7-1.9-6.1-5-9.6-3.3c-2.3,1.1-2.8,4-2.6,6.4c0.1,1,0.3,2.4,0.9,3.2
			c0.3,0.4,0.1,0.3,0.6,0.3c0.3,0,0.7-0.1,1.1-0.2c0.7-0.2,1.4-0.5,2-0.8c-0.7-1.2-2-4.3,0.1-5.1c1.6-0.6,3.7,1.2,4.9,2.1
			c1.5,1.1,2.9,2.2,4.4,3.3c0.5,0.4,1,1,1.6,0.8c0.5-0.2,0.3-0.5,0.3-1.1c0-2.2,0-4.4,0-6.6c0-0.9,0.2-2,0-2.9
			c-0.1-0.4,0.1-0.3-0.3-0.4C762.7,182.4,761.4,182.6,760.4,182.8z"/>
		<path class="st7" d="M765.5,151.3c0-0.2,0-0.9-0.2-1c-0.1,0-0.3,0-0.4,0c-0.4-0.1-1,0-1.4,0c-0.2,0-0.9,0.1-1,0
			c-0.1-0.1,0-0.8,0-1c-0.1-0.4,0.3-0.1-0.4-0.4c-0.4-0.2-1-0.1-1.4-0.1c-0.4,0-1,0-1.4,0.1c-0.6,0.2-0.2-0.1-0.4,0.4
			c-0.1,0.2,0.1,0.9,0,1c-0.1,0.1-0.8,0-0.9,0c-0.4,0-0.9-0.1-1.3,0c-0.1,0-0.3,0-0.4,0c-0.1,0.1-0.2,0.8-0.2,1
			c-0.1,0.7-0.2,1.9,0.1,2.6c0.2,0.5,0.2,0.3,0.8,0.3c0.4,0,1.8-0.2,2,0.1c0.3,0.4,0,1.8,0,2.3c-2.7-1.2-5.3-2.4-8-3.6
			c-0.4-0.2-1-0.6-1.5-0.7c-0.8,0-1.2,1.9-1.4,2.6c-0.2,0.9-0.3,0.8,0.3,1.1c0.5,0.3,1,0.5,1.5,0.7c3.2,1.5,6.4,3,9.6,4.5
			c0.6,0.3,1.1,0.5,1.7,0.8c0.1,0.1,0.4,0.3,0.6,0.3c1.2-0.1,0.7-2.2,0.7-3c0-1.1,0-2.1,0-3.2c0-0.3-0.2-1.6,0-1.9
			c0.2-0.2,1.6,0,2,0c0.1,0,0.7,0.1,0.8,0c0.2-0.2,0.2-1.3,0.2-1.5C765.5,152.2,765.5,151.7,765.5,151.3z"/>
		<path class="st7" d="M751.9,208.9c0.3,0.4,1.7,2.1,2.3,2c0.3-0.1,0.7-0.7,0.9-0.9c0.7-0.7,1.4-1.4,2.1-2.1
			c0.5,0.5,0.9,0.9,1.4,1.4c0.3,0.3,1.1,1.4,1.5,1.5c0.5,0.1,2.7-2.2,2.8-2.7c0.1-0.4-0.8-1-1.2-1.4c-0.3-0.3-0.7-0.7-1-1
			c-0.1-0.1-0.6-0.5-0.6-0.6c0-0.2,0.9-0.9,1.1-1.1c0.3-0.3,0.6-0.6,1-1c0.2-0.2,0.7-0.5,0.7-0.7c0.2-0.6-1.6-2.1-2.2-2.5
			c-0.5-0.4-0.4-0.5-0.8-0.2c-0.4,0.2-0.7,0.7-1,1c-0.6,0.6-1.1,1.1-1.7,1.7c-0.4-0.4-0.8-0.8-1.2-1.2c-0.4-0.4-1.1-1.5-1.6-1.6
			c-0.7-0.2-2.2,1.6-2.6,2.2c-0.3,0.4-0.4,0.4-0.2,0.7c0.1,0.2,0.5,0.5,0.7,0.7c0.6,0.6,1.2,1.2,1.7,1.7c0.4,0.4,0.4,0.3,0,0.7
			c-0.6,0.6-1.2,1.2-1.8,1.8c-0.2,0.2-0.6,0.5-0.7,0.7C751.3,208.3,751.6,208.6,751.9,208.9z"/>
		<path class="st7" d="M751.9,175.9c0.3,0.4,1.7,2.1,2.3,2c0.3-0.1,0.7-0.7,0.9-0.9c0.7-0.7,1.4-1.4,2.1-2.1c0.9,0.9,1.7,2,2.7,2.7
			c0.3,0.2,0.1,0.2,0.5,0.1c0.5-0.2,1-0.8,1.4-1.2c0.3-0.3,1.1-1,1.1-1.4c0-0.3,0-0.2-0.2-0.5c-0.5-0.6-1.1-1.1-1.6-1.6
			c-0.2-0.2-1-0.8-1-1c0-0.2,1-1,1.2-1.2c0.4-0.4,1.3-1,1.6-1.6c0.1-0.3,0.2-0.1-0.1-0.5c-0.4-0.6-0.9-1.1-1.3-1.5
			c-0.2-0.2-1-1-1.3-1c-0.1,0-0.3,0.3-0.4,0.4c-0.6,0.6-1.1,1.1-1.7,1.7c-0.2,0.2-0.7,0.8-0.9,0.8c-0.3,0-1-1-1.2-1.2
			c-0.4-0.4-1-1.3-1.5-1.5c-0.3-0.1-0.2-0.2-0.6,0.1c-0.6,0.5-1.2,1-1.7,1.6c-0.2,0.2-0.7,0.8-0.7,1c0,0.2,0.4,0.4,0.5,0.5
			c0.6,0.6,1.3,1.3,1.9,1.9c0.4,0.4,0.6,0.4,0.2,0.8c-0.5,0.6-1.2,1.2-1.8,1.8c-0.2,0.2-0.6,0.5-0.8,0.8
			C751.3,175.3,751.6,175.5,751.9,175.9z"/>
		<path class="st7" d="M609.9,131c-0.3,0-1.4,0-1.5,0.3c-0.1,0.1,0.1,0.7,0.1,0.8c0.1,0.7,0.1,1.3,0.2,2c-1.3,0.1-2.7,0.2-4,0.4
			c-0.3,0-1.3-0.1-1.5,0.1c-0.3,0.3,0,2.4,0.3,2.5c0.4,0.1,1.2-0.1,1.5-0.1c0.8-0.1,1.7-0.1,2.5-0.2c1.2-0.1,2.4-0.2,3.6-0.3
			c-0.1-1-0.2-1.9-0.3-2.9c-0.1-0.6-0.1-1.2-0.2-1.8C610.5,131.1,610.7,131,609.9,131z"/>
		<path class="st7" d="M603.7,130c1.2,1,3.1,1.2,4.5,0.7c1.6-0.5,2.3-1.9,2.3-3.5c0-0.8-0.1-1.6-0.3-2.4c-0.2-0.6-0.2-0.7-0.8-0.6
			c-0.3,0.1-1,0.1-1.2,0.4c-0.3,0.1-0.4,0.2-0.1,0.5c0,0.1,0.1,0.2,0.1,0.4c0.1,0.4,0.2,0.9,0.2,1.3c0,0.8-0.3,1.5-1.1,1.7
			c0-0.7,0-1.5,0-2.2c0-0.5,0-1,0-1.6c0-0.1,0.1-0.7,0-0.8c-0.3-0.3-1.8-0.1-2.2,0c-0.9,0.2-1.7,0.7-2.2,1.5
			C602.1,126.7,602.4,128.9,603.7,130z M604.7,126.3c0.2-0.2,0.6-0.3,0.9-0.3c0,0.8,0,1.6,0,2.4
			C604.7,128.3,603.8,127.1,604.7,126.3z"/>
		<path class="st7" d="M610.5,121c0.2-0.5,0.5-2,0.2-2.4c-0.1-0.1-0.4-0.2-0.5-0.2c-0.9-0.4-1.7-0.8-2.6-1.2c-1.5-0.7-3-1.4-4.5-2.1
			c-0.1,0.5-0.2,1-0.2,1.5c0,0.2-0.1,0.8,0,1.1c0.1,0.3,0.3,0.3,0.7,0.4c1.3,0.5,2.6,0.9,3.9,1.4c-1.1,0.2-2.2,0.5-3.3,0.7
			c-0.3,0.1-1.2,0.1-1.4,0.3c-0.4,0.4-0.3,2.2-0.2,2.8C605.2,122.5,607.9,121.8,610.5,121z"/>
		<path class="st7" d="M610.5,109.1c-0.2,0-0.5,0-0.7,0.1c-0.4,0.2-0.2,0.1-0.2,0.5c0,0.5,0.1,1,0,1.6c-0.1,0.8-0.5,1.5-1.4,1.6
			c0.2-1.3,0.4-2.6,0.6-3.9c0-0.1,0.1-0.5,0.1-0.6c-0.2-0.2-1.4-0.3-1.6-0.4c-1.5-0.1-3,0.6-3.5,2.1c-1.1,3.2,1.7,5.6,4.8,5.2
			c1.4-0.2,2.4-1.1,2.9-2.5c0.2-0.8,0.3-1.6,0.3-2.4c0-0.3,0-0.8-0.1-1c0.1-0.3-0.1-0.5-0.4-0.4C611,109,610.7,109,610.5,109.1z
			 M606.5,112.6c-1.5-0.4-1.3-2.5,0.4-2.4C606.8,111,606.7,111.8,606.5,112.6z"/>
		<path class="st7" d="M612.4,102.4c-0.3-0.1-0.9-0.3-1.1,0c-0.1,0.2-0.2,0.7-0.2,0.9c-0.1,0.6-0.3,1.2-0.4,1.8
			c-1.3-0.3-2.6-0.6-3.9-0.9c-0.3-0.1-1.2-0.5-1.5-0.4c-0.4,0.1-0.8,2.3-0.5,2.5c0.3,0.2,1.1,0.3,1.5,0.4c0.8,0.2,1.6,0.4,2.5,0.6
			c1.2,0.3,2.3,0.6,3.5,0.8c0.2-1,0.5-2,0.7-3c0.1-0.6,0.4-1.2,0.4-1.8c0-0.1,0.1-0.3,0.1-0.4C613.3,102.6,612.6,102.4,612.4,102.4z
			"/>
		<path class="st7" d="M619.8,127.1c2.2-0.9,1.9-4,1.5-5.9c-0.2-0.7-0.1-0.5-0.6-0.6c-0.5-0.1-1.2,0-1.7,0c-1.3,0-2.7-0.1-4-0.1
			c-0.3,0-0.9-0.1-1.1,0c-0.3,0.2-0.4,1.8-0.2,2.2c0.2,0.5,0.2,0.3,0.8,0.3c0.7,0,1.4,0,2,0c0.6,0,1.2,0,1.9,0c0.2,0,0.9-0.1,1.1,0
			c0.2,0.1,0,1-0.1,1.1c-0.2,0.4-0.5,0.5-0.9,0.6c-0.4,0.1-1,0-1.4,0c-0.7,0-1.4,0-2,0c-0.2,0-1.1-0.2-1.3,0c-0.4,0.3-0.3,2.4,0,2.5
			c0.4,0.2,1.3,0,1.8,0C616.8,127.3,618.6,127.6,619.8,127.1z"/>
		<path class="st7" d="M621.8,119c0.1-0.4,0.2-1,0.1-1.4c-0.1-0.5,0-0.3-0.4-0.4c-0.4-0.1-1-0.1-1.5-0.2c1.1-2.7-1.8-5.5-4.4-4.1
			c-1.3,0.7-1.6,2.4-1.7,3.7c0,0.3-0.3,1.9-0.1,2.1c0.1,0.1,0.3,0,0.3,0c0.5,0.2,1.3,0.2,1.8,0.2c0.8,0.1,1.7,0.2,2.5,0.3
			c0.7,0.1,1.4,0.2,2.2,0.3C621.5,119.6,621.6,119.8,621.8,119z M618.2,116.5c-0.1,0.3-0.7,0.1-1,0.1c-0.2,0-1.2,0-1.3-0.2
			c-0.4-0.5,0.6-1.4,1-1.4C617.9,114.9,618.4,115.7,618.2,116.5z"/>
		<path class="st7" d="M635.1,188c-0.2,0.2-1,0.9-1,1.2c0,0.1,0.5,0.5,0.6,0.6c0.5,0.5,1,0.9,1.4,1.4c-0.9,1-1.9,1.9-2.8,2.9
			c-0.2,0.2-1,0.8-1.1,1.1c-0.1,0.4,1.6,1.8,1.9,1.7c0.4-0.1,0.8-0.8,1.1-1.1c0.6-0.6,1.2-1.2,1.8-1.8c0.8-0.9,1.7-1.7,2.5-2.6
			c-0.7-0.7-1.4-1.3-2.1-2c-0.4-0.4-0.9-0.8-1.3-1.3C635.6,187.7,635.6,187.5,635.1,188z"/>
		<path class="st7" d="M633.6,188.9c1.3-2.1-0.4-5-2.6-5.9c-0.4-0.2-0.3-0.2-0.6,0c-0.2,0.1-0.4,0.5-0.5,0.7
			c-0.1,0.1-0.5,0.8-0.4,0.9c0,0.1,0.7,0.4,0.7,0.4c0.9,0.6,2,1.7,1.2,2.8c-0.7-0.7-1.3-1.5-2-2.2c-0.2-0.2-0.7-1-1-1.1
			c-0.4-0.1-1.2,0.7-1.5,1.1c-1.5,1.8-0.9,4.2,1,5.3C630,192,632.5,190.7,633.6,188.9z M629.2,189.2c-1.1-0.1-1.4-1.4-0.6-2.1
			c0.5,0.6,1.1,1.2,1.6,1.8C629.9,189.1,629.5,189.2,629.2,189.2z"/>
		<path class="st7" d="M628.7,179.6c-0.2-0.4-0.8-1.4-1.2-1.4c-0.2,0-0.5,0.1-0.6,0.2c-0.9,0.3-1.8,0.5-2.7,0.8
			c-1.5,0.4-3,0.9-4.5,1.3c0.2,0.4,0.5,0.9,0.8,1.3c0.2,0.2,0.3,0.4,0.5,0.6c0.3,0.4,0.3,0.4,0.8,0.2c1.3-0.5,2.7-1.1,4-1.6
			c-0.7,0.9-1.4,1.9-2.1,2.8c-0.2,0.2-0.8,0.8-0.8,1.1c0,0.6,1.3,1.9,1.7,2.2c0.8-1.2,1.5-2.4,2.3-3.6c0.5-0.8,1-1.6,1.5-2.4
			C628.8,180.4,629.1,180.2,628.7,179.6z"/>
		<path class="st7" d="M621.2,178.6c1.4-0.4,2.8-1.4,3.3-2.7c0.5-1.5-0.2-3-1.1-4.1c-0.3-0.4-1.1-1.4-1.5-1.3
			c-0.5,0.1-1.3,1.3-1.2,1.6c0.1,0.2,0.6,0.5,0.7,0.6c0.3,0.3,0.5,0.6,0.7,0.9c0.4,0.7,0.4,1.3-0.1,1.9c-0.4-0.7-0.8-1.3-1.3-2
			c-0.3-0.4-0.6-0.9-0.8-1.3c-0.2-0.4-0.2-0.5-0.5-0.4c-0.7,0.1-1.5,0.9-1.9,1.3c-0.7,0.8-0.9,1.8-0.7,2.7
			C617.1,177.8,619.1,179.2,621.2,178.6z M618.8,176c-0.4-0.6-0.1-1.3,0.4-1.6c0.4,0.7,0.9,1.4,1.3,2
			C619.9,176.7,619.2,176.6,618.8,176z"/>
		<path class="st7" d="M619.2,164.4c-0.4,0.1-1.8,0.5-1.9,1c0,0.1,0.3,0.5,0.3,0.6c0.3,0.6,0.7,1.3,1,1.9c-1.2,0.6-2.4,1.3-3.6,1.9
			c-0.3,0.1-1.2,0.4-1.4,0.7c-0.2,0.4,0.9,2.2,1.2,2.2c0.4,0,1-0.5,1.4-0.7c0.7-0.4,1.5-0.8,2.2-1.2c1.1-0.6,2.1-1.1,3.2-1.7
			C620.9,167.6,620,166,619.2,164.4z"/>
		<path class="st7" d="M639.1,174.8c-0.3-0.4-1.8-2-2.3-2c-0.1,0-0.5,0.4-0.6,0.5c-1,0.8-1.9,1.6-2.9,2.4c-0.5,0.4-1,0.8-1.5,1.2
			c-0.2,0.1-0.7,0.4-0.8,0.6c-0.1,0.3,1.2,2,1.6,2c0.2,0,0.6-0.5,0.7-0.6c1-0.8,2-1.7,3.1-2.5c0.1-0.1,0.5-0.5,0.6-0.5
			c0.2,0,0.6,0.7,0.7,0.9c0.2,0.5-0.1,0.9-0.5,1.2c-0.8,0.8-1.7,1.5-2.6,2.2c-0.2,0.2-0.8,0.5-0.9,0.7c-0.1,0.4,1.4,2,1.6,1.9
			c0.3,0,1-0.8,1.3-1.1c0.6-0.5,1.1-0.9,1.7-1.4c0.6-0.5,1.2-1,1.6-1.6C640.8,177.3,640,175.9,639.1,174.8z"/>
		<path class="st7" d="M628.3,173.9c0.3,0.4,1.4,2.2,1.8,2.2c0.2,0,0.7-0.5,0.9-0.6c1.1-0.8,2.3-1.5,3.4-2.3c0.5-0.3,1-0.7,1.5-1
			c0.1-0.1,0.6-0.3,0.6-0.4c0.1-0.2-0.6-1.1-0.7-1.3c-0.2-0.3-0.4-0.7-0.8-0.7c-0.4,0.1-1,0.7-1.4,0.9c-0.5-1.8-2.8-2.7-4.4-1.9
			C627,170,627.1,172.1,628.3,173.9z M630.1,171.2c0.3-0.2,0.7-0.3,1.1-0.2c0.2,0.1,0.7,0.5,0.7,0.7c0,0.3-0.6,0.5-0.9,0.7
			c-0.1,0.1-0.8,0.7-0.9,0.6c-0.2,0-0.4-0.7-0.5-0.9C629.6,171.8,629.8,171.4,630.1,171.2z"/>
		<path class="st7" d="M674.1,253.6c0.3,0.3,1.4,1.2,1.8,1.1c0.1,0,0.3-0.5,0.3-0.6c0.4-0.6,0.7-1.2,1.1-1.9
			c1.2,0.7,2.3,1.4,3.5,2.1c0.3,0.2,1,0.8,1.3,0.8c0.4,0,1.4-1.9,1.2-2.2c-0.2-0.3-1-0.6-1.3-0.8c-0.7-0.4-1.4-0.9-2.2-1.3
			c-1-0.6-2-1.2-3.1-1.8C675.9,250.6,675,252.1,674.1,253.6z"/>
		<path class="st7" d="M678.3,257.1c-0.9-1.2-2.5-2.2-4.1-2c-1.4,0.2-2.4,1.3-3.1,2.5c-0.3,0.5-0.9,1.6-0.7,2
			c0.1,0.2,1.6,0.8,1.9,0.7c0.1-0.1,0.3-1,0.4-1.2c0.2-0.3,0.3-0.7,0.6-1c0.5-0.5,1-0.7,1.7-0.5c-0.5,0.6-0.9,1.3-1.4,1.9
			c-0.3,0.4-0.6,0.9-0.9,1.3c-0.3,0.4-0.4,0.3-0.2,0.7c0.3,0.6,1.4,1.1,2,1.2c0.9,0.3,2,0.2,2.8-0.4
			C679.1,261.3,679.6,258.8,678.3,257.1z M676.8,260.4c-0.4,0.6-1.1,0.6-1.7,0.2c0.5-0.7,0.9-1.3,1.4-2
			C677,259.1,677.2,259.8,676.8,260.4z"/>
		<path class="st7" d="M667.8,262.2c-0.3,0.3-1.2,1.1-1.1,1.5c0,0.2,0.2,0.4,0.3,0.6c0.5,0.8,0.9,1.7,1.4,2.5
			c0.8,1.4,1.5,2.8,2.3,4.1c0.4-0.3,0.7-0.7,1-1.1c0.2-0.2,0.6-0.6,0.6-0.9c0.1-0.3-0.1-0.4-0.3-0.7c-0.8-1.1-1.6-2.3-2.3-3.4
			c1.1,0.5,2.1,0.9,3.2,1.4c0.2,0.1,1,0.6,1.2,0.5c0.6-0.1,1.5-1.7,1.8-2.1c-1.4-0.5-2.7-1-4.1-1.4c-0.9-0.3-1.8-0.6-2.7-1
			C668.6,261.9,668.3,261.6,667.8,262.2z"/>
		<path class="st7" d="M667.6,268.4c-2.3-2.3-5.1-1.2-6.7,1.3c-0.1,0.2-0.4,0.6-0.5,0.8c-0.1,0.4,0,0.4,0.3,0.7
			c0.3,0.2,0.6,0.4,1,0.5c0.5,0.1,0.4,0.2,0.7-0.3c0.6-1,1.6-2.4,2.9-1.6c-0.6,0.6-1.3,1.3-1.9,1.9c-0.3,0.3-0.8,0.7-1.1,1.1
			c0,0.1-0.2,0.2-0.2,0.2c0,0.2,0.5,0.7,0.6,0.8c1.4,1.5,3.6,1.9,5.1,0.3C669.5,272.4,669.2,270,667.6,268.4z M666.5,272.6
			c-0.5,0.5-1.2,0.4-1.7,0c0.6-0.6,1.1-1.1,1.7-1.7C666.9,271.4,667,272.1,666.5,272.6z"/>
		<path class="st7" d="M655.1,274.8c0.2,0.3,0.9,1.6,1.4,1.6c0.1,0,0.4-0.4,0.5-0.4c0.5-0.5,1.1-0.9,1.6-1.4c0.9,1,1.8,2.1,2.6,3.1
			c0.2,0.2,0.7,1.1,1,1.2c0.4,0.1,2-1.4,1.9-1.7c-0.1-0.4-0.8-0.9-1-1.2c-0.5-0.6-1.1-1.3-1.6-1.9c-0.8-0.9-1.6-1.8-2.3-2.7
			C657.8,272.5,656.5,273.6,655.1,274.8z"/>
		<path class="st7" d="M665.7,259.9c0.4-0.4,1.2-1.2,0.9-1.7c-0.2-0.4-0.9-0.7-1.2-0.9c-0.5-0.4-1-0.8-1.5-1.2
			c-0.4-0.3-1.1-0.6-1.4-1c0,0-0.2-0.1-0.2-0.2c0-0.2,0.6-0.8,0.7-0.9c0.6-0.4,1.2,0.1,1.7,0.5c0.9,0.7,1.8,1.7,2.9,2.2
			c0.1,0,0.2,0.2,0.3,0.2c0.2,0,0.8-0.8,0.9-0.9c0.5-0.6,0.9-0.9,0.3-1.4c-1-0.7-2-1.5-2.9-2.2c-0.6-0.4-1.1-0.8-1.8-1
			c-1.4-0.3-2.4,0.5-3.2,1.5c-0.6,0.7-1.1,1.6-1.5,2.5c-0.3,0.6-0.3,0.6,0.2,0.9c1.1,0.8,2.2,1.7,3.3,2.5c0.5,0.4,1,0.8,1.6,1.2
			C665.2,260.3,665.2,260.5,665.7,259.9z"/>
		<path class="st7" d="M657.7,259.9c-1.2,1.3-1.5,3-0.3,4.3c1.2,1.3,2.9,1.4,4.3,0.3c0.5-0.4,2.7-2.4,2.4-3c-0.2-0.4-1-0.9-1.3-1.2
			c-1.3-1.2-2.6-2.4-3.9-3.6c-0.1-0.1-0.3-0.3-0.4-0.3c-0.3,0-1.1,1-1.3,1.2c-0.5,0.6-0.4,0.6,0.1,1.1c0.3,0.3,0.5,0.5,0.8,0.8
			C658,259.5,657.8,259.7,657.7,259.9z M659.2,261c0.4-0.4,0.5-0.1,0.8,0.2c0.2,0.2,1,0.7,1,1c0.1,0.4-0.9,0.8-1.3,0.8
			C658.8,262.7,658.6,261.6,659.2,261z"/>
		<path class="st7" d="M687.7,193.1c0.3,0,1.4-0.1,1.5-0.4c0.1-0.1-0.1-0.7-0.1-0.8c-0.1-0.7-0.2-1.3-0.4-2c1.3-0.2,2.7-0.5,4-0.7
			c0.3-0.1,1.3-0.1,1.5-0.3c0.3-0.3-0.2-2.4-0.5-2.5c-0.4-0.1-1.2,0.2-1.5,0.3c-0.8,0.1-1.7,0.3-2.5,0.4c-1.2,0.2-2.4,0.4-3.5,0.6
			c0.2,0.9,0.3,1.9,0.5,2.8c0.1,0.6,0.2,1.2,0.3,1.8C687.1,193.1,687,193.2,687.7,193.1z"/>
		<path class="st7" d="M692.6,193c-1.4-0.3-3.1,0-4.2,1c-1.1,1-1.2,2.6-0.9,3.9c0.1,0.4,0.3,1.9,0.7,2.1c0.2,0.1,1.9-0.5,2-0.8
			c0-0.1-0.4-0.8-0.4-1c-0.1-0.4-0.2-0.8-0.2-1.3c0-0.7,0.3-1.2,1-1.5c0.1,0.8,0.2,1.6,0.3,2.5c0.1,0.5,0.1,1.1,0.2,1.6
			c0.1,0.6,0,0.5,0.7,0.5c1.8,0,3.6-0.9,3.8-2.9C695.7,195.3,694.5,193.4,692.6,193z M693.3,197.3c-0.2,0.2-0.5,0.4-0.8,0.4
			c-0.1-0.8-0.2-1.6-0.2-2.4C693.1,195.3,694.1,196.5,693.3,197.3z"/>
		<path class="st7" d="M695.8,205.6c-1.6-0.4-3.1-0.8-4.7-1.2c1.1-0.3,2.2-0.7,3.2-1c0.3-0.1,1.1-0.2,1.4-0.4c0.4-0.4,0.1-2.2,0-2.8
			c-2.4,0.9-4.7,1.9-7.1,2.8c-0.5,0.2-0.6,0.2-0.7,0.8c-0.1,0.7-0.2,1.6,0.4,2c0.5,0.3,1.1,0.4,1.6,0.6c0.8,0.3,1.5,0.5,2.3,0.8
			c1.2,0.4,2.4,0.9,3.6,1.3C695.9,207.5,696,206.4,695.8,205.6z"/>
		<path class="st7" d="M694.7,209.7c-1.1-1.1-3-1.4-4.5-1c-1.5,0.4-2.4,1.6-2.6,3.1c-0.1,0.9-0.1,1.7,0.1,2.6c0.1,0.6,0,0.6,0.6,0.7
			c0.3,0,1.2-0.1,1.4-0.3c0.3,0,0.4-0.2,0.2-0.5c-0.1-0.2-0.1-0.5-0.1-0.7c0-0.3-0.1-0.7,0-1c0.1-0.8,0.4-1.4,1.2-1.6
			c0,0.7-0.1,1.5-0.1,2.2c0,0.5-0.1,1-0.1,1.5c0,0.1-0.1,0.7-0.1,0.8c0.2,0.3,1.5,0.2,1.9,0.2c0.9-0.1,1.8-0.4,2.4-1.1
			C696.1,213.4,696,211,694.7,209.7z M693.4,213.3c-0.3,0.2-0.6,0.3-0.9,0.3c0.1-0.8,0.1-1.6,0.2-2.4
			C693.6,211.3,694.4,212.6,693.4,213.3z"/>
		<path class="st7" d="M687.4,216.3c-0.1,0.7-0.2,1.4-0.3,2.1c-0.1,0.6-0.2,1.1-0.2,1.7c-0.1,0.4-0.2,0.9-0.2,1.3
			c0.1,0.4,0.2,0.4,0.8,0.5c0.3,0,0.9,0.2,1.2,0.1c0.3-0.1,0,0,0.2-0.3c0.3-0.6,0.3-1.8,0.4-2.6c1.3,0.2,2.7,0.4,4,0.6
			c0.3,0,1.2,0.4,1.5,0.2c0.4-0.2,0.6-2.3,0.3-2.5c-0.3-0.2-1.2-0.2-1.5-0.2c-0.8-0.1-1.7-0.2-2.5-0.4
			C689.8,216.6,688.6,216.4,687.4,216.3z"/>
		<path class="st7" d="M676.8,202.3c0.1,0.5,0.3,1.9,0.7,2.1c0.2,0.1,0.9-0.1,1.1-0.1c1.4-0.1,2.7-0.2,4.1-0.3c0.5,0,1-0.1,1.5-0.1
			c0.5,0,0.6,0.1,0.7-0.5c0-0.5,0.1-1.9-0.4-2c-0.4-0.1-1.1,0.1-1.5,0.1c-0.7,0-1.4,0.1-2,0.1c-0.5,0-1.2,0.2-1.8,0.1
			c0,0-0.3,0.1-0.3,0c-0.1-0.1-0.1-0.7-0.1-0.9c0.1-0.9,0.9-1,1.6-1c1.2-0.1,2.3-0.1,3.5-0.2c0.8-0.1,0.6-0.5,0.6-1.3
			c0-0.8,0.1-1.3-0.7-1.2c-1.3,0.1-2.5,0.1-3.8,0.2c-0.9,0.1-1.9,0.2-2.6,0.9C676.5,199.4,676.6,201.1,676.8,202.3z"/>
		<path class="st7" d="M684.8,205.7c-2-0.1-4-0.1-6-0.2c-0.4,0-0.9-0.1-1.3,0c-0.5,0.1-0.4,0.1-0.5,0.8c0,0.4-0.1,0.9,0,1.3
			c0.2,0.5-0.1,0.3,0.3,0.4c0.4,0.1,1.1,0,1.6,0c-0.3,0.9,0,2.3,0.5,3c0.7,1,2,1.3,3.2,1.1C685.4,211.5,685,207.8,684.8,205.7z
			 M683,208.5c0,0.8-0.8,1.3-1.6,1.1c-0.4-0.1-1.1-1.2-0.6-1.5c0.2-0.1,1.1,0,1.4,0C682.7,208.1,683,207.9,683,208.5z"/>
		<path class="st7" d="M597,217.5c0,0.4,0.1,1.9,0.5,2.1c0.1,0.1,0.5-0.1,0.7-0.2c0.7-0.2,1.4-0.3,2.1-0.5c0.3,1.3,0.6,2.6,0.9,4
			c0.1,0.3,0.1,1.3,0.3,1.5c0.3,0.3,2.4-0.3,2.5-0.6c0.1-0.4-0.3-1.1-0.3-1.5c-0.2-0.8-0.4-1.6-0.6-2.5c-0.3-1.2-0.5-2.3-0.8-3.5
			C600.5,216.7,598.8,217.1,597,217.5z"/>
		<path class="st7" d="M597,219.8c-1.2-2.4-4.2-2.1-6.3-1.1c-0.4,0.2-0.4,0.2-0.4,0.5c0,0.2,0.2,0.6,0.3,0.8
			c0.1,0.2,0.3,0.8,0.5,0.9c0.1,0,0.7-0.4,0.8-0.4c1-0.4,2.4-0.7,2.9,0.5c-1,0.2-1.9,0.3-2.9,0.5c-0.3,0-1.2,0-1.5,0.2
			c-0.3,0.3,0,1.4,0.1,1.9c0.6,2.2,3,3.1,5,2.1C597.7,224.6,597.9,221.8,597,219.8z M594.9,223.7c-0.7,0.9-1.9,0.4-2.1-0.6
			c0.8-0.1,1.6-0.2,2.4-0.4C595.1,223.1,595.1,223.5,594.9,223.7z"/>
		<path class="st7" d="M586.5,218.9c-0.4,0-1.6-0.1-1.9,0.3c-0.1,0.1-0.1,0.5-0.2,0.6c-0.3,0.9-0.5,1.8-0.8,2.7
			c-0.5,1.5-0.9,3-1.4,4.5c0.5,0.1,1,0,1.5,0c0.2,0,0.8,0,1.1-0.1c0.3-0.2,0.2-0.3,0.3-0.7c0.3-1.4,0.5-2.7,0.8-4.1
			c0.4,1.1,0.8,2.1,1.2,3.2c0.1,0.3,0.3,1.1,0.5,1.3c0.5,0.4,2.2,0,2.8-0.2c-0.6-1.3-1.2-2.6-1.8-3.9c-0.4-0.9-0.8-1.7-1.2-2.6
			C587.3,219.3,587.3,218.9,586.5,218.9z"/>
		<path class="st7" d="M581,220.2c-0.7-0.8-1.7-1.1-2.7-1.2c-0.6,0-1.2,0-1.7,0.1c-0.3,0-0.6,0.1-0.8,0.2c-0.4,0.1-0.4,0.1-0.5,0.4
			c-0.1,0.4,0.2,1.2,0.4,1.5c0.2,0.3,0.1,0.2,0.5,0.2c0.3,0,0.6-0.2,0.9-0.2c1-0.2,2.2-0.1,2.5,1.1c-1,0-2.1,0-3.1,0
			c-0.2,0-1.2-0.2-1.4,0c-0.4,0.3-0.1,2.1,0,2.6c0.7,2.3,3.6,3,5.5,1.7C582.2,225.2,582.5,221.9,581,220.2z M578.9,225
			c-0.9,0.7-1.9,0.1-2-1c0.8,0,1.6,0,2.4,0C579.3,224.4,579.2,224.7,578.9,225z"/>
		<path class="st7" d="M568.5,219.1c-0.1,0.3-0.3,1.3,0,1.6c0.1,0.1,0.7,0.1,0.8,0.1c0.7,0.1,1.3,0.1,2,0.2c-0.1,1.3-0.3,2.7-0.4,4
			c0,0.3-0.3,1.3-0.1,1.5c0.2,0.4,2.4,0.4,2.5,0.2c0.2-0.3,0.1-1.2,0.1-1.5c0.1-0.8,0.2-1.7,0.2-2.5c0.1-1.2,0.2-2.4,0.3-3.6
			c-1-0.1-1.9-0.2-2.9-0.3c-0.6-0.1-1.2-0.1-1.8-0.2C568.7,218.6,568.6,218.5,568.5,219.1z"/>
		<path class="st7" d="M586.7,215.8c0.6,0,1.7,0,1.8-0.5c0.1-0.4-0.1-1.1-0.2-1.6c-0.1-0.7-0.2-1.4-0.2-2c0-0.4-0.3-1.2-0.2-1.6
			c0,0-0.1-0.2,0-0.2c0.1-0.2,1-0.1,1.1-0.1c0.7,0.2,0.8,1,0.9,1.6c0.1,1.1,0.1,2.5,0.4,3.5c0,0.1,0,0.3,0,0.4c0.2,0.2,1.2,0,1.4,0
			c0.9-0.1,1.1-0.1,1-0.9c-0.1-1.2-0.3-2.4-0.4-3.6c-0.3-2.1-1.3-3.3-3.5-3.3c-1.1,0-2.1,0.3-3.1,0.7c-0.6,0.2-0.6,0.2-0.5,0.8
			c0.2,1.4,0.3,2.8,0.5,4.1c0.1,0.7,0.2,1.3,0.2,2C586.1,215.7,585.9,215.9,586.7,215.8z"/>
		<path class="st7" d="M579,215.6c1.2,0.7,2.7,0.6,3.9,0.5c0.2,0,1.3,0,1.4-0.2c0-0.1,0-0.3,0-0.4c0.2-1.3-0.1-2.8-0.1-4.1
			c0-0.7,0-1.4,0-2.1c0-0.2,0.1-1,0-1.1c-0.2-0.3-2.3-0.2-2.5,0.1c-0.2,0.3,0,1.4,0,1.8c-1.3-0.4-3.1,0.4-3.7,1.7
			C577.5,213,577.8,214.8,579,215.6z M580.6,212.2c0.2-0.2,0.9-0.5,1.1-0.3c0.1,0.1,0,0.1,0.1,0.3c0.1,0.4,0.1,1.2,0,1.6
			c0,0.1,0.1,0.3,0,0.4c-0.2,0.2-0.8,0-1-0.1C580.2,213.8,580,212.7,580.6,212.2z"/>
	</g>
</g>
<g id="Layer_1" class="st2">
	<g class="st3">
		<polygon points="640.3,180.3 495.8,180.3 495.8,143.8 495.8,143.8 640.3,143.8 		"/>
		<g>
			<path class="st4" d="M610.7,167.7L610,168l-5.6-4.3c-1-0.7-1.8-1.3-2.5-1.6c-0.7-0.4-1.3-0.5-1.8-0.5c-0.5,0-0.9,0.2-1.2,0.5
				c-0.3,0.4-0.4,0.9-0.4,1.5c0,0.6,0.1,1.2,0.3,1.7c0.2,0.5,0.4,1,0.7,1.4c-0.6,0.3-1.1,0.5-1.7,0.7c-0.6,0.2-1.2,0.3-1.8,0.3
				c-0.3-0.5-0.6-1.2-0.8-2c-0.2-0.8-0.3-1.7-0.3-2.7c0-0.8,0.1-1.6,0.3-2.3c0.2-0.7,0.5-1.3,0.9-1.8c0.4-0.5,0.9-0.9,1.5-1.2
				s1.3-0.4,2.1-0.4c0.6,0,1.1,0.1,1.6,0.2c0.5,0.1,1,0.3,1.5,0.6s0.9,0.5,1.3,0.8c0.4,0.3,0.8,0.6,1.2,0.8l1.9,1.4v-4.2
				c0.7-0.1,1.3-0.2,1.8-0.2c0.6,0,1.2,0.1,1.8,0.2V167.7z"/>
		</g>
		<g>
			<path class="st4" d="M525.4,156.3l0.7-0.3l5.6,4.3c1,0.7,1.8,1.3,2.5,1.6c0.7,0.4,1.3,0.5,1.8,0.5c0.5,0,0.9-0.2,1.2-0.5
				c0.3-0.4,0.4-0.9,0.4-1.5c0-0.6-0.1-1.2-0.3-1.7c-0.2-0.5-0.4-1-0.7-1.4c0.6-0.3,1.1-0.5,1.7-0.7c0.6-0.2,1.2-0.3,1.8-0.3
				c0.3,0.5,0.6,1.2,0.8,2s0.3,1.7,0.3,2.7c0,0.8-0.1,1.6-0.3,2.3c-0.2,0.7-0.5,1.3-0.9,1.8c-0.4,0.5-0.9,0.9-1.5,1.2
				s-1.3,0.4-2.1,0.4c-0.6,0-1.1-0.1-1.6-0.2s-1-0.3-1.5-0.6c-0.5-0.2-0.9-0.5-1.3-0.8c-0.4-0.3-0.8-0.6-1.2-0.8L529,163v4.2
				c-0.7,0.1-1.3,0.2-1.8,0.2c-0.6,0-1.2-0.1-1.8-0.2V156.3z"/>
		</g>
	</g>
	<rect x="567.8" y="197.8" class="st3" width="216.5" height="36.5"/>
	<g class="st3">
		<path class="st4" d="M742.6,220.1c-0.6,0.1-1.2,0.2-1.8,0.2c-0.6,0-1.2-0.1-1.8-0.2V210l0.7-0.4l5.9,3.4c0.2-1.2,0.7-2,1.5-2.7
			c0.8-0.6,1.8-1,3.1-1c1,0,1.9,0.2,2.6,0.5c0.8,0.4,1.4,0.9,1.9,1.5c0.5,0.6,0.9,1.4,1.2,2.2c0.3,0.9,0.4,1.8,0.4,2.7
			c0,0.4,0,0.9,0,1.2c0,0.4-0.1,0.8-0.1,1.1c-0.1,0.4-0.2,0.8-0.3,1.1c-0.1,0.4-0.2,0.8-0.4,1.2c-0.6,0-1.2-0.1-1.8-0.3
			c-0.6-0.2-1.2-0.4-1.6-0.7c0.2-0.6,0.4-1.2,0.5-1.8c0.1-0.6,0.2-1.2,0.2-1.8c0-0.9-0.2-1.7-0.6-2.2c-0.4-0.6-1-0.8-1.8-0.8
			c-0.3,0-0.6,0.1-0.9,0.2c-0.3,0.1-0.5,0.3-0.6,0.6s-0.3,0.5-0.4,0.8c-0.1,0.3-0.1,0.6-0.1,1c0,0.3,0,0.5,0,0.8
			c0,0.3,0.1,0.6,0.2,1l-0.8,0.5l-5.1-3V220.1z"/>
	</g>
	<g class="st3">
		<path class="st4" d="M609.4,211.9c0.6-0.1,1.2-0.2,1.8-0.2c0.6,0,1.2,0.1,1.8,0.2v10.2l-0.7,0.4l-5.9-3.4c-0.2,1.2-0.7,2-1.5,2.7
			c-0.8,0.6-1.8,1-3.1,1c-1,0-1.9-0.2-2.6-0.5c-0.8-0.4-1.4-0.9-1.9-1.5c-0.5-0.6-0.9-1.4-1.2-2.2c-0.3-0.9-0.4-1.8-0.4-2.7
			c0-0.4,0-0.9,0-1.2c0-0.4,0.1-0.8,0.1-1.1c0.1-0.4,0.2-0.8,0.3-1.1c0.1-0.4,0.2-0.8,0.4-1.2c0.6,0,1.2,0.1,1.8,0.3
			c0.6,0.2,1.2,0.4,1.6,0.7c-0.2,0.6-0.4,1.2-0.5,1.8c-0.1,0.6-0.2,1.2-0.2,1.8c0,0.9,0.2,1.7,0.6,2.2c0.4,0.6,1,0.8,1.8,0.8
			c0.3,0,0.6-0.1,0.9-0.2c0.3-0.1,0.5-0.3,0.6-0.6s0.3-0.5,0.4-0.8s0.1-0.6,0.1-1c0-0.3,0-0.5,0-0.8c0-0.3-0.1-0.6-0.2-1l0.8-0.5
			l5.1,3V211.9z"/>
	</g>
	<polygon class="st3" points="63.8,72.3 63.8,72.3 63.8,35.8 63.8,35.8 352.3,35.8 352.3,35.8 352.3,72.3 	"/>
	<g class="st3">
		<path class="st4" d="M317.6,47.6c0.6-0.1,1.2-0.2,1.8-0.2c0.6,0,1.2,0.1,1.8,0.2v1.3h2.8c0.1,0.3,0.1,0.7,0.2,1c0,0.3,0,0.6,0,0.9
			c0,0.3,0,0.6,0,1c0,0.3-0.1,0.7-0.2,1h-2.8v7.6l-0.7,0.4l-13.8-6.5c0.1-0.6,0.2-1.2,0.4-1.8s0.5-1.2,0.9-1.7l9.6,4.4v-2.4h-2.7
			c-0.1-0.4-0.1-0.7-0.2-1c0-0.3,0-0.7,0-1c0-0.3,0-0.6,0-0.9c0-0.3,0.1-0.7,0.2-1h2.7V47.6z"/>
	</g>
	<g class="st3">
		<path class="st4" d="M98.4,60.4c-0.6,0.1-1.2,0.2-1.8,0.2c-0.6,0-1.2-0.1-1.8-0.2v-1.3H92c-0.1-0.3-0.1-0.7-0.2-1
			c0-0.3,0-0.6,0-0.9c0-0.3,0-0.6,0-1c0-0.3,0.1-0.7,0.2-1h2.8v-7.6l0.7-0.4l13.8,6.5c-0.1,0.6-0.2,1.2-0.4,1.8s-0.5,1.2-0.9,1.7
			l-9.6-4.4v2.4h2.7c0.1,0.4,0.1,0.7,0.2,1c0,0.3,0,0.7,0,1c0,0.3,0,0.6,0,0.9c0,0.3-0.1,0.7-0.2,1h-2.7V60.4z"/>
	</g>
	<rect x="45.8" y="89.8" class="st3" width="360.5" height="36.5"/>
	<g class="st3">
		<path class="st4" d="M361,103.7c0.7-0.1,1.3-0.2,1.8-0.2c0.6,0,1.2,0.1,1.8,0.2v5.1l2.5,0c0-0.1,0-0.3,0-0.4s0-0.3,0-0.5
			c0-0.8,0.1-1.5,0.3-2.2c0.2-0.7,0.6-1.2,1-1.7c0.4-0.5,1-0.8,1.6-1.1c0.6-0.3,1.4-0.4,2.2-0.4c1,0,1.9,0.2,2.6,0.5
			s1.4,0.8,1.9,1.5c0.5,0.6,0.9,1.4,1.2,2.3s0.4,1.9,0.4,3c0,0.2,0,0.5,0,0.8s-0.1,0.7-0.1,1c-0.1,0.4-0.1,0.8-0.2,1.2
			c-0.1,0.4-0.2,0.8-0.4,1.2c-0.3,0-0.6-0.1-0.9-0.1c-0.3-0.1-0.6-0.2-1-0.3c-0.3-0.1-0.6-0.2-0.9-0.3c-0.3-0.1-0.5-0.2-0.8-0.3
			c0.2-0.6,0.4-1.2,0.5-1.7c0.1-0.5,0.2-1,0.2-1.5c0-0.6-0.1-1.1-0.2-1.5c-0.1-0.4-0.3-0.7-0.5-1c-0.2-0.2-0.4-0.4-0.7-0.5
			c-0.3-0.1-0.5-0.2-0.8-0.2c-0.6,0-1.1,0.2-1.5,0.6s-0.6,1.1-0.6,2.1c0,0.4,0,0.8,0.1,1.2c0.1,0.4,0.2,0.9,0.5,1.4l-0.4,0.6
			l-9.6-0.4V103.7z"/>
	</g>
	<g class="st3">
		<path class="st4" d="M91,112.3c-0.7,0.1-1.3,0.2-1.8,0.2c-0.6,0-1.2-0.1-1.8-0.2v-5.1l-2.5,0c0,0.1,0,0.3,0,0.4s0,0.3,0,0.5
			c0,0.8-0.1,1.5-0.3,2.2c-0.2,0.7-0.6,1.2-1,1.7c-0.4,0.5-1,0.8-1.6,1.1c-0.6,0.3-1.4,0.4-2.2,0.4c-1,0-1.9-0.2-2.6-0.5
			s-1.4-0.8-1.9-1.5c-0.5-0.6-0.9-1.4-1.2-2.3s-0.4-1.9-0.4-3c0-0.2,0-0.5,0-0.8s0.1-0.7,0.1-1c0.1-0.4,0.1-0.8,0.2-1.2
			c0.1-0.4,0.2-0.8,0.4-1.2c0.3,0,0.6,0.1,0.9,0.1c0.3,0.1,0.6,0.2,1,0.3c0.3,0.1,0.6,0.2,0.9,0.3c0.3,0.1,0.5,0.2,0.8,0.3
			c-0.2,0.6-0.4,1.2-0.5,1.7c-0.1,0.5-0.2,1-0.2,1.5c0,0.6,0.1,1.1,0.2,1.5c0.1,0.4,0.3,0.7,0.5,1c0.2,0.2,0.4,0.4,0.7,0.5
			c0.3,0.1,0.5,0.2,0.8,0.2c0.6,0,1.1-0.2,1.5-0.6s0.6-1.1,0.6-2.1c0-0.4,0-0.8-0.1-1.2c-0.1-0.4-0.2-0.9-0.5-1.4l0.4-0.6l9.6,0.4
			V112.3z"/>
	</g>
	<rect x="45.8" y="143.8" class="st3" width="432.5" height="36.5"/>
	<g class="st3">
		<path class="st4" d="M431.2,158.4c0.1-0.1,0.4-0.2,0.7-0.4s0.7-0.2,1.2-0.2c0.4,0,0.7,0,1,0.1s0.6,0.1,0.7,0.2
			c0,0.6,0.2,1.2,0.3,1.8c0.2,0.6,0.4,1.1,0.7,1.5c0.3,0.5,0.7,0.9,1.1,1.2c0.4,0.3,0.8,0.6,1.3,0.8l0-0.1c-0.2-0.2-0.4-0.5-0.6-1
			c-0.2-0.5-0.3-1-0.3-1.7c0-0.7,0.1-1.3,0.3-1.9c0.2-0.6,0.5-1.1,1-1.6c0.4-0.5,1-0.8,1.7-1.1c0.7-0.3,1.5-0.4,2.5-0.4
			s1.8,0.2,2.6,0.5c0.7,0.3,1.4,0.8,1.9,1.3c0.5,0.6,0.9,1.2,1.1,1.9c0.3,0.7,0.4,1.5,0.4,2.4c0,2-0.6,3.6-1.7,4.6
			c-1.2,1.1-2.9,1.6-5.2,1.6c-1.3,0-2.6-0.2-3.9-0.6c-1.2-0.4-2.3-0.9-3.3-1.7c-1-0.8-1.8-1.8-2.4-3
			C431.8,161.5,431.4,160.1,431.2,158.4z M440.7,161.7c0,0.6,0.2,1.1,0.6,1.5c0.4,0.4,1,0.6,1.8,0.6c0.8,0,1.5-0.2,1.9-0.6
			c0.4-0.4,0.6-0.8,0.6-1.4c0-0.6-0.2-1.1-0.6-1.5c-0.4-0.4-1-0.6-1.8-0.6c-0.9,0-1.5,0.2-1.9,0.6
			C440.9,160.7,440.7,161.2,440.7,161.7z"/>
	</g>
	<g class="st3">
		<path class="st4" d="M92.9,165.6c-0.1,0.1-0.4,0.2-0.7,0.4s-0.7,0.2-1.2,0.2c-0.4,0-0.7,0-1-0.1s-0.6-0.1-0.7-0.2
			c0-0.6-0.2-1.2-0.3-1.8c-0.2-0.6-0.4-1.1-0.7-1.5c-0.3-0.5-0.7-0.9-1.1-1.2c-0.4-0.3-0.8-0.6-1.3-0.8l0,0.1c0.2,0.2,0.4,0.5,0.6,1
			c0.2,0.5,0.3,1,0.3,1.7c0,0.7-0.1,1.3-0.3,1.9c-0.2,0.6-0.5,1.1-1,1.6c-0.4,0.5-1,0.8-1.7,1.1c-0.7,0.3-1.5,0.4-2.5,0.4
			s-1.8-0.2-2.6-0.5c-0.7-0.3-1.4-0.8-1.9-1.3c-0.5-0.6-0.9-1.2-1.1-1.9c-0.3-0.7-0.4-1.5-0.4-2.4c0-2,0.6-3.6,1.7-4.6
			c1.2-1.1,2.9-1.6,5.2-1.6c1.3,0,2.6,0.2,3.9,0.6c1.2,0.4,2.3,0.9,3.3,1.7c1,0.8,1.8,1.8,2.4,3C92.4,162.5,92.8,163.9,92.9,165.6z
			 M83.4,162.3c0-0.6-0.2-1.1-0.6-1.5c-0.4-0.4-1-0.6-1.8-0.6c-0.8,0-1.5,0.2-1.9,0.6c-0.4,0.4-0.6,0.8-0.6,1.4
			c0,0.6,0.2,1.1,0.6,1.5c0.4,0.4,1,0.6,1.8,0.6c0.9,0,1.5-0.2,1.9-0.6C83.2,163.3,83.4,162.8,83.4,162.3z"/>
	</g>
	<rect x="45.8" y="197.8" class="st3" width="504.5" height="36.5"/>
	<g class="st3">
		<path class="st4" d="M508.6,221.8c-0.3,0.1-0.7,0.1-1,0.2c-0.3,0-0.6,0-0.9,0c-0.5,0-1.1-0.1-1.8-0.2v-11.7l0.6-0.4l16.8,6.8
			c-0.2,0.7-0.3,1.3-0.6,1.9s-0.5,1.2-1,1.8l-12.3-5V221.8z"/>
	</g>
	<g class="st3">
		<path class="st4" d="M87.4,210.2c0.3-0.1,0.7-0.1,1-0.2c0.3,0,0.6,0,0.9,0c0.5,0,1.1,0.1,1.8,0.2v11.7l-0.6,0.4l-16.8-6.8
			c0.2-0.7,0.3-1.3,0.6-1.9c0.2-0.6,0.5-1.2,1-1.8l12.3,5V210.2z"/>
	</g>
	<rect x="45.8" y="251.3" class="st3" width="576.5" height="36.5"/>
	<g class="st3">
		<path class="st4" d="M580.1,264.2c0.7,0,1.4,0.2,2,0.5c0.6,0.3,1.1,0.8,1.5,1.4c0.4-0.7,1-1.4,1.7-1.9c0.7-0.5,1.6-0.8,2.7-0.8
			c0.9,0,1.7,0.2,2.3,0.5c0.6,0.3,1.2,0.8,1.6,1.4s0.7,1.2,0.9,2c0.2,0.7,0.3,1.5,0.3,2.2s-0.1,1.5-0.3,2.2
			c-0.2,0.7-0.5,1.4-0.9,1.9c-0.4,0.6-0.9,1-1.6,1.4c-0.6,0.3-1.4,0.5-2.3,0.5c-1.1,0-1.9-0.2-2.7-0.7c-0.7-0.5-1.3-1.1-1.7-1.8
			c-0.4,0.6-0.9,1.1-1.5,1.4c-0.6,0.3-1.2,0.5-2,0.5c-0.7,0-1.3-0.1-1.9-0.4c-0.6-0.3-1.1-0.7-1.5-1.1c-0.4-0.5-0.7-1-0.9-1.7
			c-0.2-0.7-0.3-1.4-0.3-2.1c0-0.8,0.1-1.5,0.3-2.1c0.2-0.7,0.5-1.2,0.9-1.7c0.4-0.5,0.9-0.9,1.5-1.1S579.4,264.2,580.1,264.2z
			 M580,271.1c0.5,0,0.9-0.1,1.3-0.4c0.3-0.3,0.6-0.7,0.8-1.1c-0.2-0.5-0.4-0.9-0.8-1.2c-0.3-0.3-0.8-0.4-1.3-0.4
			c-0.4,0-0.7,0.1-1,0.4c-0.3,0.3-0.4,0.7-0.4,1.2c0,0.5,0.1,0.9,0.4,1.2C579.3,271,579.6,271.1,580,271.1z M587.7,267.4
			c-0.6,0-1.1,0.2-1.5,0.6c-0.4,0.4-0.7,0.9-0.9,1.5c0.2,0.6,0.5,1.1,0.9,1.5c0.4,0.4,0.9,0.6,1.5,0.6c0.6,0,1-0.2,1.4-0.5
			s0.6-0.9,0.6-1.5c0-0.7-0.2-1.2-0.6-1.6C588.8,267.6,588.3,267.4,587.7,267.4z"/>
	</g>
	<g class="st3">
		<path class="st4" d="M88,274.9c-0.7,0-1.4-0.2-2-0.5c-0.6-0.3-1.1-0.8-1.5-1.4c-0.4,0.7-1,1.4-1.7,1.9c-0.7,0.5-1.6,0.8-2.7,0.8
			c-0.9,0-1.7-0.2-2.3-0.5c-0.6-0.3-1.2-0.8-1.6-1.4s-0.7-1.2-0.9-2c-0.2-0.7-0.3-1.5-0.3-2.2c0-0.8,0.1-1.5,0.3-2.2
			c0.2-0.7,0.5-1.4,0.9-1.9c0.4-0.6,0.9-1,1.6-1.4c0.6-0.3,1.4-0.5,2.3-0.5c1.1,0,1.9,0.2,2.7,0.7c0.7,0.5,1.3,1.1,1.7,1.8
			c0.4-0.6,0.9-1.1,1.5-1.4c0.6-0.3,1.2-0.5,2-0.5c0.7,0,1.3,0.1,1.9,0.4s1.1,0.7,1.5,1.1c0.4,0.5,0.7,1,0.9,1.7
			c0.2,0.7,0.3,1.4,0.3,2.1c0,0.8-0.1,1.5-0.3,2.1c-0.2,0.7-0.5,1.2-0.9,1.7c-0.4,0.5-0.9,0.9-1.5,1.1
			C89.3,274.7,88.6,274.9,88,274.9z M80.3,271.6c0.6,0,1.1-0.2,1.5-0.6c0.4-0.4,0.7-0.9,0.9-1.5c-0.2-0.6-0.5-1.1-0.9-1.5
			c-0.4-0.4-0.9-0.6-1.5-0.6c-0.6,0-1,0.2-1.4,0.5c-0.4,0.4-0.6,0.9-0.6,1.5c0,0.7,0.2,1.2,0.6,1.6S79.7,271.6,80.3,271.6z
			 M88,267.9c-0.5,0-0.9,0.1-1.3,0.4s-0.6,0.7-0.8,1.1c0.2,0.5,0.4,0.9,0.8,1.2c0.3,0.3,0.8,0.4,1.3,0.4c0.4,0,0.7-0.1,1-0.4
			c0.3-0.3,0.4-0.7,0.4-1.2s-0.1-0.9-0.4-1.2C88.7,268.1,88.4,267.9,88,267.9z"/>
	</g>
	<rect x="45.8" y="305.3" class="st3" width="648.5" height="36.5"/>
	<g class="st3">
		<path class="st4" d="M666.5,327.1c-0.1,0.1-0.4,0.2-0.7,0.4c-0.3,0.1-0.7,0.2-1.2,0.2c-0.4,0-0.7,0-1-0.1c-0.3,0-0.6-0.1-0.7-0.2
			c0-0.6-0.2-1.2-0.3-1.8c-0.2-0.6-0.4-1.1-0.7-1.5c-0.3-0.5-0.6-0.9-1.1-1.2c-0.4-0.3-0.9-0.6-1.4-0.8l0,0.1c0.2,0.2,0.4,0.5,0.6,1
			c0.2,0.5,0.3,1,0.3,1.7c0,0.7-0.1,1.3-0.3,1.9c-0.2,0.6-0.5,1.1-1,1.6c-0.4,0.5-1,0.8-1.7,1.1c-0.7,0.3-1.5,0.4-2.5,0.4
			c-1,0-1.8-0.2-2.6-0.5c-0.7-0.3-1.4-0.8-1.9-1.3c-0.5-0.6-0.9-1.2-1.1-1.9c-0.3-0.7-0.4-1.5-0.4-2.4c0-2,0.6-3.6,1.7-4.6
			c1.2-1.1,2.9-1.6,5.2-1.6c1.3,0,2.6,0.2,3.9,0.6s2.3,0.9,3.3,1.7c1,0.8,1.8,1.8,2.4,3C666,324,666.3,325.4,666.5,327.1z
			 M657,323.8c0-0.6-0.2-1.1-0.6-1.5c-0.4-0.4-1-0.6-1.8-0.6c-0.8,0-1.5,0.2-1.9,0.6c-0.4,0.4-0.6,0.8-0.6,1.4
			c0,0.6,0.2,1.1,0.6,1.5c0.4,0.4,1,0.6,1.8,0.6c0.9,0,1.5-0.2,1.9-0.6C656.8,324.8,657,324.3,657,323.8z"/>
	</g>
	<g class="st3">
		<path class="st4" d="M73.5,319.9c0.1-0.1,0.4-0.2,0.7-0.4c0.3-0.1,0.7-0.2,1.2-0.2c0.4,0,0.7,0,1,0.1c0.3,0,0.6,0.1,0.7,0.2
			c0,0.6,0.2,1.2,0.3,1.8c0.2,0.6,0.4,1.1,0.7,1.5c0.3,0.5,0.6,0.9,1.1,1.2c0.4,0.3,0.9,0.6,1.4,0.8l0-0.1c-0.2-0.2-0.4-0.5-0.6-1
			c-0.2-0.5-0.3-1-0.3-1.7c0-0.7,0.1-1.3,0.3-1.9c0.2-0.6,0.5-1.1,1-1.6c0.4-0.5,1-0.8,1.7-1.1c0.7-0.3,1.5-0.4,2.5-0.4
			c1,0,1.8,0.2,2.6,0.5c0.7,0.3,1.4,0.8,1.9,1.3c0.5,0.6,0.9,1.2,1.1,1.9c0.3,0.7,0.4,1.5,0.4,2.4c0,2-0.6,3.6-1.7,4.6
			c-1.2,1.1-2.9,1.6-5.2,1.6c-1.3,0-2.6-0.2-3.9-0.6c-1.2-0.4-2.3-0.9-3.3-1.7c-1-0.8-1.8-1.8-2.4-3S73.7,321.6,73.5,319.9z
			 M83,323.3c0,0.6,0.2,1.1,0.6,1.5c0.4,0.4,1,0.6,1.8,0.6c0.8,0,1.5-0.2,1.9-0.6c0.4-0.4,0.6-0.8,0.6-1.4s-0.2-1.1-0.6-1.5
			c-0.4-0.4-1-0.6-1.8-0.6c-0.9,0-1.5,0.2-1.9,0.6C83.2,322.2,83,322.7,83,323.3z"/>
	</g>
	<rect x="63.8" y="359.8" class="st3" width="720.5" height="36.5"/>
	<g class="st3">
		<path class="st4" d="M745.3,388.6c-0.2,0.1-0.4,0.3-0.7,0.4c-0.3,0.1-0.6,0.3-0.8,0.4c-0.3,0.1-0.6,0.2-0.9,0.3
			c-0.3,0.1-0.6,0.2-0.9,0.2l-3-7v-1h12.1v-3.1c0.6-0.1,1.2-0.2,1.8-0.2c0.6,0,1.2,0.1,1.8,0.2v10.3c-0.6,0.1-1.2,0.2-1.8,0.2
			c-0.6,0-1.2-0.1-1.8-0.2V386h-6.8L745.3,388.6z"/>
		<path class="st4" d="M738.8,372.3c0-1.1,0.2-2,0.6-2.8s1-1.4,1.7-1.9c0.7-0.5,1.6-0.9,2.6-1.1c1-0.2,2.1-0.4,3.2-0.4
			s2.2,0.1,3.2,0.4s1.8,0.6,2.5,1.2c0.7,0.5,1.3,1.2,1.7,2c0.4,0.8,0.6,1.7,0.6,2.8s-0.2,2-0.6,2.8c-0.4,0.8-1,1.4-1.7,1.9
			c-0.7,0.5-1.6,0.9-2.5,1.1s-2,0.4-3.2,0.4s-2.2-0.1-3.2-0.4s-1.9-0.6-2.6-1.2c-0.7-0.5-1.3-1.2-1.7-2
			C739,374.3,738.8,373.3,738.8,372.3z M742.4,372.3c0,0.6,0.4,1.1,1.1,1.5c0.8,0.4,1.9,0.5,3.4,0.5c1.5,0,2.6-0.2,3.4-0.5
			c0.8-0.4,1.1-0.9,1.1-1.5c0-0.6-0.4-1.1-1.1-1.4c-0.8-0.4-1.9-0.5-3.4-0.5c-1.5,0-2.6,0.2-3.4,0.5
			C742.8,371.2,742.4,371.7,742.4,372.3z"/>
	</g>
	<g class="st3">
		<path class="st4" d="M102.7,367.4c0.2-0.1,0.4-0.3,0.7-0.4c0.3-0.1,0.6-0.3,0.8-0.4s0.6-0.2,0.9-0.3s0.6-0.2,0.9-0.2l3,7v1H96.9
			v3.1c-0.6,0.1-1.2,0.2-1.8,0.2c-0.6,0-1.2-0.1-1.8-0.2v-10.3c0.6-0.1,1.2-0.2,1.8-0.2c0.6,0,1.2,0.1,1.8,0.2v3.1h6.8L102.7,367.4z
			"/>
		<path class="st4" d="M109.2,383.8c0,1.1-0.2,2-0.6,2.8s-1,1.4-1.7,1.9c-0.7,0.5-1.6,0.9-2.6,1.1c-1,0.2-2.1,0.4-3.2,0.4
			s-2.2-0.1-3.2-0.4c-1-0.3-1.8-0.6-2.5-1.2c-0.7-0.5-1.3-1.2-1.7-2s-0.6-1.7-0.6-2.8c0-1.1,0.2-2,0.6-2.8s1-1.4,1.7-1.9
			c0.7-0.5,1.6-0.9,2.5-1.1c1-0.2,2-0.4,3.2-0.4s2.2,0.1,3.2,0.4s1.9,0.6,2.6,1.2c0.7,0.5,1.3,1.2,1.7,2S109.2,382.7,109.2,383.8z
			 M105.6,383.7c0-0.6-0.4-1.1-1.1-1.5s-1.9-0.5-3.4-0.5c-1.5,0-2.6,0.2-3.4,0.5c-0.8,0.4-1.1,0.9-1.1,1.5c0,0.6,0.4,1.1,1.1,1.4
			c0.8,0.4,1.9,0.5,3.4,0.5c1.5,0,2.6-0.2,3.4-0.5C105.2,384.8,105.6,384.3,105.6,383.7z"/>
	</g>
	<path class="st3" d="M784.5,180H712v-38.4c0-5.7-2.3-11.1-6.3-15.1l-12.2-12.2c-4-4-9.4-6.3-15.1-6.3H424.1V35.5h360.4V180z"/>
	<path class="st8" d="M453,67.6c0.2-0.1,0.4-0.3,0.7-0.4c0.3-0.1,0.6-0.3,0.8-0.4s0.6-0.2,0.9-0.3c0.3-0.1,0.6-0.2,0.9-0.2l3,7v1
		h-12.1v3.1c-0.6,0.1-1.2,0.2-1.8,0.2c-0.6,0-1.2-0.1-1.8-0.2V67.1c0.6-0.1,1.2-0.2,1.8-0.2c0.6,0,1.2,0.1,1.8,0.2v3.1h6.8L453,67.6
		z"/>
	<path class="st8" d="M600,70.7c-0.1-0.7-0.2-1.3-0.2-1.8c0-0.6,0.1-1.2,0.2-1.8h5.1l0-2.5c-0.1,0-0.3,0-0.4,0s-0.3,0-0.5,0
		c-0.8,0-1.5-0.1-2.2-0.3c-0.7-0.2-1.2-0.6-1.7-1c-0.5-0.4-0.8-1-1.1-1.6c-0.3-0.6-0.4-1.4-0.4-2.2c0-1,0.2-1.9,0.5-2.6
		s0.8-1.4,1.5-1.9c0.6-0.5,1.4-0.9,2.3-1.2c0.9-0.3,1.9-0.4,3-0.4c0.2,0,0.5,0,0.8,0s0.7,0.1,1,0.1c0.4,0.1,0.8,0.1,1.2,0.2
		c0.4,0.1,0.8,0.2,1.2,0.4c0,0.3-0.1,0.6-0.1,0.9c-0.1,0.3-0.2,0.6-0.3,1c-0.1,0.3-0.2,0.6-0.3,0.9c-0.1,0.3-0.2,0.5-0.3,0.8
		c-0.6-0.2-1.2-0.4-1.7-0.5c-0.5-0.1-1-0.2-1.5-0.2c-0.6,0-1.1,0.1-1.5,0.2c-0.4,0.1-0.7,0.3-1,0.5c-0.2,0.2-0.4,0.4-0.5,0.7
		c-0.1,0.3-0.2,0.5-0.2,0.8c0,0.6,0.2,1.1,0.6,1.5c0.4,0.4,1.1,0.6,2.1,0.6c0.4,0,0.8,0,1.2-0.1c0.4-0.1,0.9-0.2,1.4-0.5l0.6,0.4
		l-0.4,9.6H600z"/>
	<path class="st8" d="M764.9,113.4l-0.7,0.3l-5.6-4.3c-1-0.7-1.8-1.3-2.5-1.6c-0.7-0.4-1.3-0.5-1.8-0.5c-0.5,0-0.9,0.2-1.2,0.5
		c-0.3,0.4-0.4,0.9-0.4,1.5c0,0.6,0.1,1.2,0.3,1.7c0.2,0.5,0.4,1,0.7,1.4c-0.6,0.3-1.1,0.5-1.7,0.7c-0.6,0.2-1.2,0.3-1.8,0.3
		c-0.3-0.5-0.6-1.2-0.8-2c-0.2-0.8-0.3-1.7-0.3-2.7c0-0.8,0.1-1.6,0.3-2.3c0.2-0.7,0.5-1.3,0.9-1.8c0.4-0.5,0.9-0.9,1.5-1.2
		s1.3-0.4,2.1-0.4c0.6,0,1.1,0.1,1.6,0.2c0.5,0.1,1,0.3,1.5,0.6s0.9,0.5,1.3,0.8c0.4,0.3,0.8,0.6,1.2,0.8l1.9,1.4v-4.2
		c0.7-0.1,1.3-0.2,1.8-0.2c0.6,0,1.2,0.1,1.8,0.2V113.4z"/>
	<rect x="415.6" y="-234.5" style="display:inline;fill:none;" width="56" height="36"/>
	
		<text transform="matrix(0 1 -1 0 444.9082 -222.9384)" style="display:inline;fill:#00AEEF; font-family:'AllerDisplay'; font-size:24px;">1</text>
	<rect x="581.5" y="-316.5" style="display:inline;fill:none;" width="36" height="56"/>
	
		<text transform="matrix(-1 0 0 -1 606.0132 -287.1973)" style="display:inline;fill:#00AEEF; font-family:'AllerDisplay'; font-size:24px;">5</text>
	<rect x="733.5" y="-252.5" style="display:inline;fill:none;" width="56" height="36"/>
	
		<text transform="matrix(0 -1 1 0 760.2112 -228.1729)" style="display:inline;fill:#00AEEF; font-family:'AllerDisplay'; font-size:24px;">2</text>
	<circle class="st3" cx="759.7" cy="303" r="35.7"/>
	<g class="st3">
		<path class="st4" d="M746.9-102.3l-0.7,0.3l-5.6-4.3c-1-0.7-1.8-1.3-2.5-1.6c-0.7-0.4-1.3-0.5-1.8-0.5c-0.5,0-0.9,0.2-1.2,0.5
			c-0.3,0.4-0.4,0.9-0.4,1.5c0,0.6,0.1,1.2,0.3,1.7c0.2,0.5,0.4,1,0.7,1.4c-0.6,0.3-1.1,0.5-1.7,0.7c-0.6,0.2-1.2,0.3-1.8,0.3
			c-0.3-0.5-0.6-1.2-0.8-2c-0.2-0.8-0.3-1.7-0.3-2.7c0-0.8,0.1-1.6,0.3-2.3c0.2-0.7,0.5-1.3,0.9-1.8c0.4-0.5,0.9-0.9,1.5-1.2
			s1.3-0.4,2.1-0.4c0.6,0,1.1,0.1,1.6,0.2c0.5,0.1,1,0.3,1.5,0.6s0.9,0.5,1.3,0.8c0.4,0.3,0.8,0.6,1.2,0.8l1.9,1.4v-4.2
			c0.7-0.1,1.3-0.2,1.8-0.2c0.6,0,1.2,0.1,1.8,0.2V-102.3z"/>
	</g>
	<g class="st3">
		<path class="st4" d="M661.5-113.7l0.7-0.3l5.6,4.3c1,0.7,1.8,1.3,2.5,1.6c0.7,0.4,1.3,0.5,1.8,0.5c0.5,0,0.9-0.2,1.2-0.5
			c0.3-0.4,0.4-0.9,0.4-1.5c0-0.6-0.1-1.2-0.3-1.7c-0.2-0.5-0.4-1-0.7-1.4c0.6-0.3,1.1-0.5,1.7-0.7c0.6-0.2,1.2-0.3,1.8-0.3
			c0.3,0.5,0.6,1.2,0.8,2s0.3,1.7,0.3,2.7c0,0.8-0.1,1.6-0.3,2.3c-0.2,0.7-0.5,1.3-0.9,1.8c-0.4,0.5-0.9,0.9-1.5,1.2
			s-1.3,0.4-2.1,0.4c-0.6,0-1.1-0.1-1.6-0.2s-1-0.3-1.5-0.6c-0.5-0.2-0.9-0.5-1.3-0.8c-0.4-0.3-0.8-0.6-1.2-0.8l-1.9-1.4v4.2
			c-0.7,0.1-1.3,0.2-1.8,0.2c-0.6,0-1.2-0.1-1.8-0.2V-113.7z"/>
	</g>
	<g class="st3">
		<polygon points="639.8,287.8 639.8,251.3 639.8,251.3 712.3,251.3 712.3,287.8 		"/>
		<g>
			<path class="st4" d="M677.6,265.4c0.2-0.1,0.4-0.3,0.7-0.4c0.3-0.1,0.6-0.3,0.8-0.4s0.6-0.2,0.9-0.3s0.6-0.2,0.9-0.2l3,7v1h-12.1
				v3.1c-0.6,0.1-1.2,0.2-1.8,0.2c-0.6,0-1.2-0.1-1.8-0.2v-10.3c0.6-0.1,1.2-0.2,1.8-0.2c0.6,0,1.2,0.1,1.8,0.2v3.1h6.8L677.6,265.4
				z"/>
		</g>
	</g>
</g>
<g id="Layer_3" class="st2">
	<rect x="64" y="359.2" class="st3" width="720" height="36"/>
	<rect x="28.8" y="305.5" class="st3" width="648" height="36"/>
	<rect x="28.8" y="251.7" class="st3" width="576" height="36"/>
	<rect x="28.8" y="198" class="st3" width="504" height="36"/>
	<rect x="28.8" y="144.3" class="st3" width="432" height="36"/>
	<rect x="64" y="36.8" class="st3" width="288" height="36"/>
	<rect x="496" y="34.8" class="st3" width="288" height="72"/>
	<rect x="988.7" y="77" class="st3" width="72" height="216"/>
	<rect x="891.2" y="67.2" class="st3" width="72" height="144"/>
	<text transform="matrix(1 0 0 0 720 421.9561)" class="st3 st9 st10">0.5 in</text>
	<rect x="28.8" y="90.5" class="st3" width="360" height="36"/>
</g>
</svg>
