<?xml version="1.0" encoding="utf-8"?>
<!-- Generator: Adobe Illustrator 23.0.1, SVG Export Plug-In . SVG Version: 6.00 Build 0)  -->
<svg version="1.1" xmlns="http://www.w3.org/2000/svg" xmlns:xlink="http://www.w3.org/1999/xlink" x="0px" y="0px" width="864px"
	 height="432px" viewBox="0 0 864 432" style="enable-background:new 0 0 864 432;" xml:space="preserve">
<style type="text/css">
	.st0{display:none;}
	.st1{display:inline;fill:#D1D3D4;}
	.st2{display:inline;fill:#EC008C;}
	.st3{display:inline;}
	.st4{fill:#00AEEF;}
	.st5{fill:none;}
	.st6{fill:#EF4136;}
	.st7{font-family:'AllerDisplay';}
	.st8{font-size:23.9085px;}
	.st9{letter-spacing:-2;}
	.st10{letter-spacing:-1;}
	.st11{font-size:24px;}
	.st12{display:inline;fill:#EF4136;}
	.st13{fill:#29AAE1;}
	.st14{display:inline;fill:none;}
	.st15{display:inline;fill:#FBB040;}
	.st16{font-family:'rpg-icons';}
	.st17{font-size:22px;}
	.st18{display:inline;fill:none;stroke:#FFF200;stroke-width:0.25;stroke-miterlimit:10;}
	.st19{display:inline;fill:#00A651;}
	.st20{font-family:'MyriadPro-Regular';}
	.st21{font-size:12px;}
	.st22{fill:#D1D3D4;}
	.st23{fill:#EC008C;}
	.st24{fill:#A7A9AC;}
	.st25{fill:none;stroke:#FFF200;stroke-miterlimit:10;}
</style>
<g id="Layer_2" class="st0">
	<path class="st1" d="M821.6,271.6c-4.5-2.6-7.2-7.3-7.2-12.5v-86.3c0-5.1,2.7-9.9,7.2-12.5l12.8-7.4c2.2-1.3,3.6-3.7,3.6-6.2V41.7
		c0-13.1-10.6-23.7-23.7-23.7H33.7C20.6,18,10,28.6,10,41.7v348.7c0,13.1,10.6,23.7,23.7,23.7h780.7c13.1,0,23.7-10.6,23.7-23.7
		V285.2c0-2.6-1.4-4.9-3.6-6.2L821.6,271.6z"/>
	<path class="st2" d="M33.4,397.2c-3.7,0-6.6-3-6.6-6.6s3-6.6,6.6-6.6s6.6,3,6.6,6.6S37.1,397.2,33.4,397.2z"/>
	<circle class="st2" cx="33.4" cy="41.4" r="6.6"/>
	<path class="st2" d="M814.6,48c-3.7,0-6.6-3-6.6-6.6s3-6.6,6.6-6.6s6.6,3,6.6,6.6S818.3,48,814.6,48z"/>
	<path class="st2" d="M814.6,397.2c-3.7,0-6.6-3-6.6-6.6s3-6.6,6.6-6.6s6.6,3,6.6,6.6S818.3,397.2,814.6,397.2z"/>
</g>
<g id="Layer_4" class="st0">
	<g class="st3">
		<polygon points="577.3,126.3 432.8,126.3 432.8,89.8 432.8,89.8 577.3,89.8 		"/>
		<g>
			<path class="st4" d="M547.7,113.7L547,114l-5.6-4.3c-1-0.7-1.8-1.3-2.5-1.6c-0.7-0.4-1.3-0.5-1.8-0.5c-0.5,0-0.9,0.2-1.2,0.5
				c-0.3,0.4-0.4,0.9-0.4,1.5c0,0.6,0.1,1.2,0.3,1.7c0.2,0.5,0.4,1,0.7,1.4c-0.6,0.3-1.1,0.5-1.7,0.7c-0.6,0.2-1.2,0.3-1.8,0.3
				c-0.3-0.5-0.6-1.2-0.8-2c-0.2-0.8-0.3-1.7-0.3-2.7c0-0.8,0.1-1.6,0.3-2.3c0.2-0.7,0.5-1.3,0.9-1.8c0.4-0.5,0.9-0.9,1.5-1.2
				s1.3-0.4,2.1-0.4c0.6,0,1.1,0.1,1.6,0.2c0.5,0.1,1,0.3,1.5,0.6s0.9,0.5,1.3,0.8c0.4,0.3,0.8,0.6,1.2,0.8l1.9,1.4v-4.2
				c0.7-0.1,1.3-0.2,1.8-0.2c0.6,0,1.2,0.1,1.8,0.2V113.7z"/>
		</g>
		<g>
			<path class="st4" d="M462.3,102.4l0.7-0.3l5.6,4.3c1,0.7,1.8,1.3,2.5,1.6c0.7,0.4,1.3,0.5,1.8,0.5c0.5,0,0.9-0.2,1.2-0.5
				c0.3-0.4,0.4-0.9,0.4-1.5c0-0.6-0.1-1.2-0.3-1.7c-0.2-0.5-0.4-1-0.7-1.4c0.6-0.3,1.1-0.5,1.7-0.7c0.6-0.2,1.2-0.3,1.8-0.3
				c0.3,0.5,0.6,1.2,0.8,2s0.3,1.7,0.3,2.7c0,0.8-0.1,1.6-0.3,2.3c-0.2,0.7-0.5,1.3-0.9,1.8c-0.4,0.5-0.9,0.9-1.5,1.2
				s-1.3,0.4-2.1,0.4c-0.6,0-1.1-0.1-1.6-0.2s-1-0.3-1.5-0.6c-0.5-0.2-0.9-0.5-1.3-0.8c-0.4-0.3-0.8-0.6-1.2-0.8l-1.9-1.4v4.2
				c-0.7,0.1-1.3,0.2-1.8,0.2c-0.6,0-1.2-0.1-1.8-0.2V102.4z"/>
		</g>
	</g>
	<g class="st3">
		<rect x="387.8" y="35.9" width="216.5" height="36.5"/>
		<g>
			<path class="st4" d="M562.7,58.3c-0.6,0.1-1.2,0.2-1.8,0.2c-0.6,0-1.2-0.1-1.8-0.2V48.1l0.7-0.4l5.9,3.4c0.2-1.2,0.7-2,1.5-2.7
				c0.8-0.6,1.8-1,3.1-1c1,0,1.9,0.2,2.6,0.5c0.8,0.4,1.4,0.9,1.9,1.5c0.5,0.6,0.9,1.4,1.2,2.2c0.3,0.9,0.4,1.8,0.4,2.7
				c0,0.4,0,0.9,0,1.2c0,0.4-0.1,0.8-0.1,1.1c-0.1,0.4-0.2,0.8-0.3,1.1c-0.1,0.4-0.2,0.8-0.4,1.2c-0.6,0-1.2-0.1-1.8-0.3
				c-0.6-0.2-1.2-0.4-1.6-0.7c0.2-0.6,0.4-1.2,0.5-1.8c0.1-0.6,0.2-1.2,0.2-1.8c0-0.9-0.2-1.7-0.6-2.2c-0.4-0.6-1-0.8-1.8-0.8
				c-0.3,0-0.6,0.1-0.9,0.2c-0.3,0.1-0.5,0.3-0.6,0.6s-0.3,0.5-0.4,0.8c-0.1,0.3-0.1,0.6-0.1,1c0,0.3,0,0.5,0,0.8
				c0,0.3,0.1,0.6,0.2,1l-0.8,0.5l-5.1-3V58.3z"/>
		</g>
		<g>
			<path class="st4" d="M429.4,50c0.6-0.1,1.2-0.2,1.8-0.2c0.6,0,1.2,0.1,1.8,0.2v10.2l-0.7,0.4l-5.9-3.4c-0.2,1.2-0.7,2-1.5,2.7
				c-0.8,0.6-1.8,1-3.1,1c-1,0-1.9-0.2-2.6-0.5c-0.8-0.4-1.4-0.9-1.9-1.5c-0.5-0.6-0.9-1.4-1.2-2.2c-0.3-0.9-0.4-1.8-0.4-2.7
				c0-0.4,0-0.9,0-1.2c0-0.4,0.1-0.8,0.1-1.1c0.1-0.4,0.2-0.8,0.3-1.1c0.1-0.4,0.2-0.8,0.4-1.2c0.6,0,1.2,0.1,1.8,0.3
				c0.6,0.2,1.2,0.4,1.6,0.7c-0.2,0.6-0.4,1.2-0.5,1.8c-0.1,0.6-0.2,1.2-0.2,1.8c0,0.9,0.2,1.7,0.6,2.2c0.4,0.6,1,0.8,1.8,0.8
				c0.3,0,0.6-0.1,0.9-0.2c0.3-0.1,0.5-0.3,0.6-0.6s0.3-0.5,0.4-0.8s0.1-0.6,0.1-1c0-0.3,0-0.5,0-0.8c0-0.3-0.1-0.6-0.2-1l0.8-0.5
				l5.1,3V50z"/>
		</g>
	</g>
	<polygon class="st3" points="63.8,72.3 63.8,72.3 63.8,35.8 63.8,35.8 352.3,35.8 352.3,35.8 352.3,72.3 	"/>
	<g class="st3">
		<path class="st4" d="M317.6,47.6c0.6-0.1,1.2-0.2,1.8-0.2c0.6,0,1.2,0.1,1.8,0.2v1.3h2.8c0.1,0.3,0.1,0.7,0.2,1c0,0.3,0,0.6,0,0.9
			c0,0.3,0,0.6,0,1c0,0.3-0.1,0.7-0.2,1h-2.8v7.6l-0.7,0.4l-13.8-6.5c0.1-0.6,0.2-1.2,0.4-1.8s0.5-1.2,0.9-1.7l9.6,4.4v-2.4h-2.7
			c-0.1-0.4-0.1-0.7-0.2-1c0-0.3,0-0.7,0-1c0-0.3,0-0.6,0-0.9c0-0.3,0.1-0.7,0.2-1h2.7V47.6z"/>
	</g>
	<g class="st3">
		<path class="st4" d="M98.4,60.4c-0.6,0.1-1.2,0.2-1.8,0.2c-0.6,0-1.2-0.1-1.8-0.2v-1.3H92c-0.1-0.3-0.1-0.7-0.2-1
			c0-0.3,0-0.6,0-0.9c0-0.3,0-0.6,0-1c0-0.3,0.1-0.7,0.2-1h2.8v-7.6l0.7-0.4l13.8,6.5c-0.1,0.6-0.2,1.2-0.4,1.8s-0.5,1.2-0.9,1.7
			l-9.6-4.4v2.4h2.7c0.1,0.4,0.1,0.7,0.2,1c0,0.3,0,0.7,0,1c0,0.3,0,0.6,0,0.9c0,0.3-0.1,0.7-0.2,1h-2.7V60.4z"/>
	</g>
	<rect x="36.7" y="89.8" class="st3" width="360.5" height="36.5"/>
	<g class="st3">
		<path class="st4" d="M352,103.7c0.7-0.1,1.3-0.2,1.8-0.2c0.6,0,1.2,0.1,1.8,0.2v5.1l2.5,0c0-0.1,0-0.3,0-0.4s0-0.3,0-0.5
			c0-0.8,0.1-1.5,0.3-2.2c0.2-0.7,0.6-1.2,1-1.7c0.4-0.5,1-0.8,1.6-1.1c0.6-0.3,1.4-0.4,2.2-0.4c1,0,1.9,0.2,2.6,0.5
			s1.4,0.8,1.9,1.5c0.5,0.6,0.9,1.4,1.2,2.3s0.4,1.9,0.4,3c0,0.2,0,0.5,0,0.8s-0.1,0.7-0.1,1c-0.1,0.4-0.1,0.8-0.2,1.2
			c-0.1,0.4-0.2,0.8-0.4,1.2c-0.3,0-0.6-0.1-0.9-0.1c-0.3-0.1-0.6-0.2-1-0.3c-0.3-0.1-0.6-0.2-0.9-0.3c-0.3-0.1-0.5-0.2-0.8-0.3
			c0.2-0.6,0.4-1.2,0.5-1.7c0.1-0.5,0.2-1,0.2-1.5c0-0.6-0.1-1.1-0.2-1.5c-0.1-0.4-0.3-0.7-0.5-1c-0.2-0.2-0.4-0.4-0.7-0.5
			c-0.3-0.1-0.5-0.2-0.8-0.2c-0.6,0-1.1,0.2-1.5,0.6s-0.6,1.1-0.6,2.1c0,0.4,0,0.8,0.1,1.2c0.1,0.4,0.2,0.9,0.5,1.4l-0.4,0.6
			l-9.6-0.4V103.7z"/>
	</g>
	<g class="st3">
		<path class="st4" d="M82,112.3c-0.7,0.1-1.3,0.2-1.8,0.2c-0.6,0-1.2-0.1-1.8-0.2v-5.1l-2.5,0c0,0.1,0,0.3,0,0.4s0,0.3,0,0.5
			c0,0.8-0.1,1.5-0.3,2.2c-0.2,0.7-0.6,1.2-1,1.7c-0.4,0.5-1,0.8-1.6,1.1c-0.6,0.3-1.4,0.4-2.2,0.4c-1,0-1.9-0.2-2.6-0.5
			s-1.4-0.8-1.9-1.5c-0.5-0.6-0.9-1.4-1.2-2.3s-0.4-1.9-0.4-3c0-0.2,0-0.5,0-0.8s0.1-0.7,0.1-1c0.1-0.4,0.1-0.8,0.2-1.2
			c0.1-0.4,0.2-0.8,0.4-1.2c0.3,0,0.6,0.1,0.9,0.1c0.3,0.1,0.6,0.2,1,0.3c0.3,0.1,0.6,0.2,0.9,0.3c0.3,0.1,0.5,0.2,0.8,0.3
			c-0.2,0.6-0.4,1.2-0.5,1.7c-0.1,0.5-0.2,1-0.2,1.5c0,0.6,0.1,1.1,0.2,1.5c0.1,0.4,0.3,0.7,0.5,1c0.2,0.2,0.4,0.4,0.7,0.5
			c0.3,0.1,0.5,0.2,0.8,0.2c0.6,0,1.1-0.2,1.5-0.6s0.6-1.1,0.6-2.1c0-0.4,0-0.8-0.1-1.2c-0.1-0.4-0.2-0.9-0.5-1.4l0.4-0.6l9.6,0.4
			V112.3z"/>
	</g>
	<rect x="36.7" y="143.8" class="st3" width="432.5" height="36.5"/>
	<g class="st3">
		<path class="st4" d="M422.2,158.4c0.1-0.1,0.4-0.2,0.7-0.4s0.7-0.2,1.2-0.2c0.4,0,0.7,0,1,0.1s0.6,0.1,0.7,0.2
			c0,0.6,0.2,1.2,0.3,1.8c0.2,0.6,0.4,1.1,0.7,1.5c0.3,0.5,0.7,0.9,1.1,1.2c0.4,0.3,0.8,0.6,1.3,0.8l0-0.1c-0.2-0.2-0.4-0.5-0.6-1
			c-0.2-0.5-0.3-1-0.3-1.7c0-0.7,0.1-1.3,0.3-1.9c0.2-0.6,0.5-1.1,1-1.6c0.4-0.5,1-0.8,1.7-1.1c0.7-0.3,1.5-0.4,2.5-0.4
			s1.8,0.2,2.6,0.5c0.7,0.3,1.4,0.8,1.9,1.3c0.5,0.6,0.9,1.2,1.1,1.9c0.3,0.7,0.4,1.5,0.4,2.4c0,2-0.6,3.6-1.7,4.6
			c-1.2,1.1-2.9,1.6-5.2,1.6c-1.3,0-2.6-0.2-3.9-0.6c-1.2-0.4-2.3-0.9-3.3-1.7c-1-0.8-1.8-1.8-2.4-3
			C422.7,161.5,422.3,160.1,422.2,158.4z M431.7,161.7c0,0.6,0.2,1.1,0.6,1.5c0.4,0.4,1,0.6,1.8,0.6c0.8,0,1.5-0.2,1.9-0.6
			c0.4-0.4,0.6-0.8,0.6-1.4c0-0.6-0.2-1.1-0.6-1.5c-0.4-0.4-1-0.6-1.8-0.6c-0.9,0-1.5,0.2-1.9,0.6
			C431.9,160.7,431.7,161.2,431.7,161.7z"/>
	</g>
	<g class="st3">
		<path class="st4" d="M83.9,165.6c-0.1,0.1-0.4,0.2-0.7,0.4s-0.7,0.2-1.2,0.2c-0.4,0-0.7,0-1-0.1s-0.6-0.1-0.7-0.2
			c0-0.6-0.2-1.2-0.3-1.8c-0.2-0.6-0.4-1.1-0.7-1.5c-0.3-0.5-0.7-0.9-1.1-1.2c-0.4-0.3-0.8-0.6-1.3-0.8l0,0.1c0.2,0.2,0.4,0.5,0.6,1
			c0.2,0.5,0.3,1,0.3,1.7c0,0.7-0.1,1.3-0.3,1.9c-0.2,0.6-0.5,1.1-1,1.6c-0.4,0.5-1,0.8-1.7,1.1c-0.7,0.3-1.5,0.4-2.5,0.4
			s-1.8-0.2-2.6-0.5c-0.7-0.3-1.4-0.8-1.9-1.3c-0.5-0.6-0.9-1.2-1.1-1.9c-0.3-0.7-0.4-1.5-0.4-2.4c0-2,0.6-3.6,1.7-4.6
			c1.2-1.1,2.9-1.6,5.2-1.6c1.3,0,2.6,0.2,3.9,0.6c1.2,0.4,2.3,0.9,3.3,1.7c1,0.8,1.8,1.8,2.4,3C83.3,162.5,83.7,163.9,83.9,165.6z
			 M74.4,162.3c0-0.6-0.2-1.1-0.6-1.5c-0.4-0.4-1-0.6-1.8-0.6c-0.8,0-1.5,0.2-1.9,0.6c-0.4,0.4-0.6,0.8-0.6,1.4
			c0,0.6,0.2,1.1,0.6,1.5c0.4,0.4,1,0.6,1.8,0.6c0.9,0,1.5-0.2,1.9-0.6C74.2,163.3,74.4,162.8,74.4,162.3z"/>
	</g>
	<rect x="36.7" y="197.8" class="st3" width="504.5" height="36.5"/>
	<g class="st3">
		<path class="st4" d="M499.6,221.8c-0.3,0.1-0.7,0.1-1,0.2c-0.3,0-0.6,0-0.9,0c-0.5,0-1.1-0.1-1.8-0.2v-11.7l0.6-0.4l16.8,6.8
			c-0.2,0.7-0.3,1.3-0.6,1.9s-0.5,1.2-1,1.8l-12.3-5V221.8z"/>
	</g>
	<g class="st3">
		<path class="st4" d="M78.3,210.2c0.3-0.1,0.7-0.1,1-0.2c0.3,0,0.6,0,0.9,0c0.5,0,1.1,0.1,1.8,0.2v11.7l-0.6,0.4l-16.8-6.8
			c0.2-0.7,0.3-1.3,0.6-1.9c0.2-0.6,0.5-1.2,1-1.8l12.3,5V210.2z"/>
	</g>
	<rect x="36.7" y="251.3" class="st3" width="576.5" height="36.5"/>
	<g class="st3">
		<path class="st4" d="M571,264.2c0.7,0,1.4,0.2,2,0.5c0.6,0.3,1.1,0.8,1.5,1.4c0.4-0.7,1-1.4,1.7-1.9c0.7-0.5,1.6-0.8,2.7-0.8
			c0.9,0,1.7,0.2,2.3,0.5c0.6,0.3,1.2,0.8,1.6,1.4s0.7,1.2,0.9,2c0.2,0.7,0.3,1.5,0.3,2.2s-0.1,1.5-0.3,2.2
			c-0.2,0.7-0.5,1.4-0.9,1.9c-0.4,0.6-0.9,1-1.6,1.4c-0.6,0.3-1.4,0.5-2.3,0.5c-1.1,0-1.9-0.2-2.7-0.7c-0.7-0.5-1.3-1.1-1.7-1.8
			c-0.4,0.6-0.9,1.1-1.5,1.4c-0.6,0.3-1.2,0.5-2,0.5c-0.7,0-1.3-0.1-1.9-0.4c-0.6-0.3-1.1-0.7-1.5-1.1c-0.4-0.5-0.7-1-0.9-1.7
			c-0.2-0.7-0.3-1.4-0.3-2.1c0-0.8,0.1-1.5,0.3-2.1c0.2-0.7,0.5-1.2,0.9-1.7c0.4-0.5,0.9-0.9,1.5-1.1S570.3,264.2,571,264.2z
			 M571,271.1c0.5,0,0.9-0.1,1.3-0.4c0.3-0.3,0.6-0.7,0.8-1.1c-0.2-0.5-0.4-0.9-0.8-1.2c-0.3-0.3-0.8-0.4-1.3-0.4
			c-0.4,0-0.7,0.1-1,0.4c-0.3,0.3-0.4,0.7-0.4,1.2c0,0.5,0.1,0.9,0.4,1.2C570.3,271,570.6,271.1,571,271.1z M578.7,267.4
			c-0.6,0-1.1,0.2-1.5,0.6c-0.4,0.4-0.7,0.9-0.9,1.5c0.2,0.6,0.5,1.1,0.9,1.5c0.4,0.4,0.9,0.6,1.5,0.6c0.6,0,1-0.2,1.4-0.5
			s0.6-0.9,0.6-1.5c0-0.7-0.2-1.2-0.6-1.6C579.7,267.6,579.3,267.4,578.7,267.4z"/>
	</g>
	<g class="st3">
		<path class="st4" d="M78.9,274.9c-0.7,0-1.4-0.2-2-0.5c-0.6-0.3-1.1-0.8-1.5-1.4c-0.4,0.7-1,1.4-1.7,1.9c-0.7,0.5-1.6,0.8-2.7,0.8
			c-0.9,0-1.7-0.2-2.3-0.5c-0.6-0.3-1.2-0.8-1.6-1.4s-0.7-1.2-0.9-2c-0.2-0.7-0.3-1.5-0.3-2.2c0-0.8,0.1-1.5,0.3-2.2
			c0.2-0.7,0.5-1.4,0.9-1.9c0.4-0.6,0.9-1,1.6-1.4c0.6-0.3,1.4-0.5,2.3-0.5c1.1,0,1.9,0.2,2.7,0.7c0.7,0.5,1.3,1.1,1.7,1.8
			c0.4-0.6,0.9-1.1,1.5-1.4c0.6-0.3,1.2-0.5,2-0.5c0.7,0,1.3,0.1,1.9,0.4s1.1,0.7,1.5,1.1c0.4,0.5,0.7,1,0.9,1.7
			c0.2,0.7,0.3,1.4,0.3,2.1c0,0.8-0.1,1.5-0.3,2.1c-0.2,0.7-0.5,1.2-0.9,1.7c-0.4,0.5-0.9,0.9-1.5,1.1
			C80.2,274.7,79.6,274.9,78.9,274.9z M71.2,271.6c0.6,0,1.1-0.2,1.5-0.6c0.4-0.4,0.7-0.9,0.9-1.5c-0.2-0.6-0.5-1.1-0.9-1.5
			c-0.4-0.4-0.9-0.6-1.5-0.6c-0.6,0-1,0.2-1.4,0.5c-0.4,0.4-0.6,0.9-0.6,1.5c0,0.7,0.2,1.2,0.6,1.6S70.7,271.6,71.2,271.6z
			 M78.9,267.9c-0.5,0-0.9,0.1-1.3,0.4s-0.6,0.7-0.8,1.1c0.2,0.5,0.4,0.9,0.8,1.2c0.3,0.3,0.8,0.4,1.3,0.4c0.4,0,0.7-0.1,1-0.4
			c0.3-0.3,0.4-0.7,0.4-1.2s-0.1-0.9-0.4-1.2C79.7,268.1,79.3,267.9,78.9,267.9z"/>
	</g>
	<rect x="36.7" y="305.3" class="st3" width="648.5" height="36.5"/>
	<g class="st3">
		<path class="st4" d="M656.5,327.1c-0.1,0.1-0.4,0.2-0.7,0.4c-0.3,0.1-0.7,0.2-1.2,0.2c-0.4,0-0.7,0-1-0.1c-0.3,0-0.6-0.1-0.7-0.2
			c0-0.6-0.2-1.2-0.3-1.8c-0.2-0.6-0.4-1.1-0.7-1.5c-0.3-0.5-0.6-0.9-1.1-1.2c-0.4-0.3-0.9-0.6-1.4-0.8l0,0.1c0.2,0.2,0.4,0.5,0.6,1
			c0.2,0.5,0.3,1,0.3,1.7c0,0.7-0.1,1.3-0.3,1.9c-0.2,0.6-0.5,1.1-1,1.6c-0.4,0.5-1,0.8-1.7,1.1c-0.7,0.3-1.5,0.4-2.5,0.4
			c-1,0-1.8-0.2-2.6-0.5c-0.7-0.3-1.4-0.8-1.9-1.3c-0.5-0.6-0.9-1.2-1.1-1.9c-0.3-0.7-0.4-1.5-0.4-2.4c0-2,0.6-3.6,1.7-4.6
			c1.2-1.1,2.9-1.6,5.2-1.6c1.3,0,2.6,0.2,3.9,0.6s2.3,0.9,3.3,1.7c1,0.8,1.8,1.8,2.4,3C655.9,324,656.3,325.4,656.5,327.1z
			 M647,323.8c0-0.6-0.2-1.1-0.6-1.5c-0.4-0.4-1-0.6-1.8-0.6c-0.8,0-1.5,0.2-1.9,0.6c-0.4,0.4-0.6,0.8-0.6,1.4
			c0,0.6,0.2,1.1,0.6,1.5c0.4,0.4,1,0.6,1.8,0.6c0.9,0,1.5-0.2,1.9-0.6C646.8,324.8,647,324.3,647,323.8z"/>
	</g>
	<g class="st3">
		<path class="st4" d="M65.5,319.9c0.1-0.1,0.4-0.2,0.7-0.4c0.3-0.1,0.7-0.2,1.2-0.2c0.4,0,0.7,0,1,0.1c0.3,0,0.6,0.1,0.7,0.2
			c0,0.6,0.2,1.2,0.3,1.8c0.2,0.6,0.4,1.1,0.7,1.5c0.3,0.5,0.6,0.9,1.1,1.2c0.4,0.3,0.9,0.6,1.4,0.8l0-0.1c-0.2-0.2-0.4-0.5-0.6-1
			c-0.2-0.5-0.3-1-0.3-1.7c0-0.7,0.1-1.3,0.3-1.9c0.2-0.6,0.5-1.1,1-1.6c0.4-0.5,1-0.8,1.7-1.1c0.7-0.3,1.5-0.4,2.5-0.4
			c1,0,1.8,0.2,2.6,0.5c0.7,0.3,1.4,0.8,1.9,1.3c0.5,0.6,0.9,1.2,1.1,1.9c0.3,0.7,0.4,1.5,0.4,2.4c0,2-0.6,3.6-1.7,4.6
			c-1.2,1.1-2.9,1.6-5.2,1.6c-1.3,0-2.6-0.2-3.9-0.6c-1.2-0.4-2.3-0.9-3.3-1.7c-1-0.8-1.8-1.8-2.4-3S65.6,321.6,65.5,319.9z
			 M74.9,323.3c0,0.6,0.2,1.1,0.6,1.5c0.4,0.4,1,0.6,1.8,0.6c0.8,0,1.5-0.2,1.9-0.6c0.4-0.4,0.6-0.8,0.6-1.4s-0.2-1.1-0.6-1.5
			c-0.4-0.4-1-0.6-1.8-0.6c-0.9,0-1.5,0.2-1.9,0.6C75.1,322.2,74.9,322.7,74.9,323.3z"/>
	</g>
	<rect x="63.8" y="359.8" class="st3" width="720.5" height="36.5"/>
	<g class="st3">
		<path class="st4" d="M745.3,388.6c-0.2,0.1-0.4,0.3-0.7,0.4c-0.3,0.1-0.6,0.3-0.8,0.4c-0.3,0.1-0.6,0.2-0.9,0.3
			c-0.3,0.1-0.6,0.2-0.9,0.2l-3-7v-1h12.1v-3.1c0.6-0.1,1.2-0.2,1.8-0.2c0.6,0,1.2,0.1,1.8,0.2v10.3c-0.6,0.1-1.2,0.2-1.8,0.2
			c-0.6,0-1.2-0.1-1.8-0.2V386h-6.8L745.3,388.6z"/>
		<path class="st4" d="M738.8,372.3c0-1.1,0.2-2,0.6-2.8s1-1.4,1.7-1.9c0.7-0.5,1.6-0.9,2.6-1.1c1-0.2,2.1-0.4,3.2-0.4
			s2.2,0.1,3.2,0.4s1.8,0.6,2.5,1.2c0.7,0.5,1.3,1.2,1.7,2c0.4,0.8,0.6,1.7,0.6,2.8s-0.2,2-0.6,2.8c-0.4,0.8-1,1.4-1.7,1.9
			c-0.7,0.5-1.6,0.9-2.5,1.1s-2,0.4-3.2,0.4s-2.2-0.1-3.2-0.4s-1.9-0.6-2.6-1.2c-0.7-0.5-1.3-1.2-1.7-2
			C739,374.3,738.8,373.3,738.8,372.3z M742.4,372.3c0,0.6,0.4,1.1,1.1,1.5c0.8,0.4,1.9,0.5,3.4,0.5c1.5,0,2.6-0.2,3.4-0.5
			c0.8-0.4,1.1-0.9,1.1-1.5c0-0.6-0.4-1.1-1.1-1.4c-0.8-0.4-1.9-0.5-3.4-0.5c-1.5,0-2.6,0.2-3.4,0.5
			C742.8,371.2,742.4,371.7,742.4,372.3z"/>
	</g>
	<g class="st3">
		<path class="st4" d="M102.7,367.4c0.2-0.1,0.4-0.3,0.7-0.4c0.3-0.1,0.6-0.3,0.8-0.4s0.6-0.2,0.9-0.3s0.6-0.2,0.9-0.2l3,7v1H96.9
			v3.1c-0.6,0.1-1.2,0.2-1.8,0.2c-0.6,0-1.2-0.1-1.8-0.2v-10.3c0.6-0.1,1.2-0.2,1.8-0.2c0.6,0,1.2,0.1,1.8,0.2v3.1h6.8L102.7,367.4z
			"/>
		<path class="st4" d="M109.2,383.8c0,1.1-0.2,2-0.6,2.8s-1,1.4-1.7,1.9c-0.7,0.5-1.6,0.9-2.6,1.1c-1,0.2-2.1,0.4-3.2,0.4
			s-2.2-0.1-3.2-0.4c-1-0.3-1.8-0.6-2.5-1.2c-0.7-0.5-1.3-1.2-1.7-2s-0.6-1.7-0.6-2.8c0-1.1,0.2-2,0.6-2.8s1-1.4,1.7-1.9
			c0.7-0.5,1.6-0.9,2.5-1.1c1-0.2,2-0.4,3.2-0.4s2.2,0.1,3.2,0.4s1.9,0.6,2.6,1.2c0.7,0.5,1.3,1.2,1.7,2S109.2,382.7,109.2,383.8z
			 M105.6,383.7c0-0.6-0.4-1.1-1.1-1.5s-1.9-0.5-3.4-0.5c-1.5,0-2.6,0.2-3.4,0.5c-0.8,0.4-1.1,0.9-1.1,1.5c0,0.6,0.4,1.1,1.1,1.4
			c0.8,0.4,1.9,0.5,3.4,0.5c1.5,0,2.6-0.2,3.4-0.5C105.2,384.8,105.6,384.3,105.6,383.7z"/>
	</g>
	<circle class="st3" cx="1016.4" cy="82.8" r="35.7"/>
	<g class="st3">
		<polygon points="504.8,180.3 504.8,143.8 504.8,143.8 577.3,143.8 577.3,180.3 		"/>
		<g>
			<path class="st4" d="M542.6,157.9c0.2-0.1,0.4-0.3,0.7-0.4c0.3-0.1,0.6-0.3,0.8-0.4s0.6-0.2,0.9-0.3s0.6-0.2,0.9-0.2l3,7v1h-12.1
				v3.1c-0.6,0.1-1.2,0.2-1.8,0.2c-0.6,0-1.2-0.1-1.8-0.2v-10.3c0.6-0.1,1.2-0.2,1.8-0.2c0.6,0,1.2,0.1,1.8,0.2v3.1h6.8L542.6,157.9
				z"/>
		</g>
	</g>
	<path class="st3" d="M925.4-593.2h-216v72h153.2c5.1,0,10,1.3,14.4,3.9l41.2,23.8c4.5,2.6,7.2,7.3,7.2,12.5v31.9h72v-72v-72H925.4z
		"/>
	<rect x="709.4" y="-575.2" class="st14" width="56" height="36"/>
	<text transform="matrix(0 1 -1 0 738.7695 -563.6384)" class="st7 st11" style="display:inline;fill:#00AEEF;">1</text>
	<rect x="835.4" y="-593.2" class="st14" width="36" height="56"/>
	<text transform="matrix(-1 0 0 -1 860.9717 -563.9131)" class="st7 st11" style="display:inline;fill:#00AEEF;">4</text>
	<rect x="941.4" y="-539.2" class="st14" width="56" height="36"/>
	<text transform="matrix(0 -1 1 0 968.1272 -514.8965)" class="st7 st11" style="display:inline;fill:#00AEEF;">2</text>
	<g class="st3">
		<path d="M721,333V179.6c0-5-1.3-10-3.8-14.3l-23.8-41.2c-2.5-4.4-7.2-7.1-12.3-7.1H649V44.6h144.4V333H721z"/>
	</g>
	<g class="st3">
		<rect x="737.4" y="130.3" class="st5" width="39.6" height="117"/>
		<text transform="matrix(0 -1.0038 1 0 763.9832 228.2749)"><tspan x="0" y="0" class="st6 st7 st8">1    2   </tspan><tspan x="62.3" y="0" class="st6 st7 st8 st9"> </tspan><tspan x="65.1" y="0" class="st6 st7 st8 st10">4</tspan></text>
		<g>
			
				<rect x="737.6" y="193.1" transform="matrix(0.7071 -0.7071 0.7071 0.7071 74.446 594.4913)" class="st5" width="34.6" height="28.5"/>
			<text transform="matrix(-0.7071 -0.7071 0.7071 -0.7071 763.8791 203.1078)" class="st6 st7 st11">i</text>
			
				<rect x="740.6" y="185.5" transform="matrix(0.7071 -0.7071 0.7071 0.7071 77.6889 593.148)" class="st5" width="28.5" height="34.6"/>
			<text transform="matrix(0.7071 -0.7071 0.7071 0.7071 759.1108 211.8381)" class="st6 st7 st11">i</text>
		</g>
		<g>
			
				<rect x="737.6" y="160.1" transform="matrix(0.7071 -0.7071 0.7071 0.7071 97.7992 584.8181)" class="st5" width="34.6" height="28.5"/>
			<text transform="matrix(-0.7071 -0.7071 0.7071 -0.7071 763.8794 170.08)" class="st6 st7 st11">i</text>
			
				<rect x="740.6" y="152.5" transform="matrix(0.7071 -0.7071 0.7071 0.7071 101.0421 583.4748)" class="st5" width="28.5" height="34.6"/>
			<text transform="matrix(0.7071 -0.7071 0.7071 0.7071 759.1111 178.8114)" class="st6 st7 st11">i</text>
		</g>
	</g>
	<path class="st12" d="M482.1-78.3l7.6,7.6c1.4,1.4,3.7,1.4,5.1,0l5.1-5.1c2.8-2.8,7.4-2.8,10.2,0l5.1,5.1c1.4,1.4,3.7,1.4,5.1,0
		l7.6-7.6c1.4-1.4,1.4-3.7,0-5.1l-20.4-20.4c-1.4-1.4-3.7-1.4-5.1,0l-20.4,20.4C480.7-82,480.7-79.7,482.1-78.3z"/>
	<path class="st12" d="M482.1-98.3l7.6,7.6c1.4,1.4,3.7,1.4,5.1,0l5.1-5.1c2.8-2.8,7.4-2.8,10.2,0l5.1,5.1c1.4,1.4,3.7,1.4,5.1,0
		l7.6-7.6c1.4-1.4,1.4-3.7,0-5.1l-20.4-20.4c-1.4-1.4-3.7-1.4-5.1,0l-20.4,20.4C480.7-102,480.7-99.7,482.1-98.3z"/>
	<path class="st12" d="M681.9-146.1l7.5-7.5c1.4-1.4,1.4-3.7,0-5.1L669-179c-1.4-1.4-3.7-1.4-5.1,0l-20.4,20.4
		c-1.4,1.4-1.4,3.7,0,5.1l7.5,7.5l-7.5,7.5c-1.4,1.4-1.4,3.7,0,5.1l7.6,7.6c1.4,1.4,3.7,1.4,5.1,0l5.1-5.1c2.8-2.8,7.4-2.8,10.2,0
		l5.1,5.1c1.4,1.4,3.7,1.4,5.1,0l7.6-7.6c1.4-1.4,1.4-3.7,0-5.1L681.9-146.1z"/>
	<g class="st3">
		<path class="st13" d="M181.9-107.2c0-9.7-1.3-19-3.8-27.9c-1.1-4.1-5.5-6.3-9.4-4.9l-17,6.2c-3.5,1.3-5.5,5-4.5,8.5
			c1.5,5.8,2.3,11.8,2.3,18c0,6.2-0.8,12.3-2.3,18c-0.9,3.6,1,7.3,4.5,8.5l17,6.2c4,1.4,8.3-0.8,9.4-4.9
			C180.6-88.2,181.9-97.5,181.9-107.2z"/>
		<path id="SVGID_x5F_1_x5F__1_" class="st5" d="M172.2-150.9c4.5,9.6,7.5,20,8.9,31.1c2.5,20-1,39.3-8.9,56.2"/>
		<text>		<textPath  xlink:href="#SVGID_x5F_1_x5F__1_" startOffset="0%">
<tspan  style="fill:#BE202E; font-family:'GL-Nummernschild-Eng'; font-size:15px; letter-spacing:20;">activated</tspan>		</textPath>
</text>
		<path id="SVGID_x5F_2_x5F__1_" class="st5" d="M172.2-150.9c4.5,9.6,7.5,20,8.9,31.1c2.5,20-1,39.3-8.9,56.2"/>
		<text>		<textPath  xlink:href="#SVGID_x5F_2_x5F__1_" startOffset="0%">
<tspan  style="fill:#292562; font-family:'GL-Nummernschild-Eng'; font-size:15px; letter-spacing:20;">activated</tspan>		</textPath>
</text>
	</g>
	<g class="st3">
		<path class="st13" d="M276.1-124.8c0,9.7,1.3,19,3.8,27.9c1.1,4.1,5.5,6.3,9.4,4.9l17-6.2c3.5-1.3,5.5-5,4.5-8.5
			c-1.5-5.8-2.3-11.8-2.3-18c0-6.2,0.8-12.3,2.3-18c0.9-3.6-1-7.3-4.5-8.5l-17-6.2c-4-1.4-8.3,0.8-9.4,4.9
			C277.4-143.8,276.1-134.5,276.1-124.8z"/>
		<path id="SVGID_x5F_3_x5F__1_" class="st5" d="M285.8-81.2c-4.5-9.6-7.5-20-8.9-31.1c-2.5-20,1-39.3,8.9-56.2"/>
		<text>		<textPath  xlink:href="#SVGID_x5F_3_x5F__1_" startOffset="0%">
<tspan  style="fill:#BE202E; font-family:'GL-Nummernschild-Eng'; font-size:15px; letter-spacing:20;">activated</tspan>		</textPath>
</text>
		<path id="SVGID_x5F_4_x5F__1_" class="st5" d="M285.8-81.2c-4.5-9.6-7.5-20-8.9-31.1c-2.5-20,1-39.3,8.9-56.2"/>
		<text>		<textPath  xlink:href="#SVGID_x5F_4_x5F__1_" startOffset="0%">
<tspan  style="fill:#292562; font-family:'GL-Nummernschild-Eng'; font-size:15px; letter-spacing:20;">activated</tspan>		</textPath>
</text>
	</g>
	<path class="st3" d="M601,144.9l24.8-4.8c1.9-0.4,3.1-2.1,2.9-4c-1.4-10-0.7-20.2,2.1-30c0.5-1.8-0.5-3.8-2.3-4.4l-23.9-8.2
		c-1.9-0.7-4,0.4-4.6,2.4c-4.6,15.1-5.6,30.8-3.2,46.1C597.1,143.9,599,145.3,601,144.9z"/>
	<path class="st3" d="M637.4,204.4l15.6-19.9c1.2-1.5,1-3.7-0.5-4.9c-7.6-6.6-13.8-14.8-18.1-24c-0.8-1.7-2.8-2.5-4.6-1.8l-23.4,9.5
		c-1.9,0.8-2.8,3-1.9,4.8c6.4,14.4,16,26.9,27.8,36.9C633.8,206.3,636.2,206,637.4,204.4z"/>
	<path class="st3" d="M690,248.1l-22.9-10.7c-1.7-0.8-3.8-0.1-4.7,1.6c-4.7,8.9-11.3,16.8-19.3,23c-1.5,1.2-1.8,3.3-0.7,4.9
		l14.5,20.7c1.2,1.7,3.5,2,5.1,0.8c12.6-9.5,22.7-21.7,29.7-35.4C692.6,251.2,691.8,248.9,690,248.1z"/>
	<path class="st3" d="M695.4,178.5l-24.3,7c-1.8,0.5-2.9,2.4-2.5,4.3c2.3,9.8,2.5,20.1,0.5,30c-0.4,1.9,0.8,3.7,2.7,4.2l24.5,6.1
		c2,0.5,4-0.8,4.4-2.8c3.3-15.4,2.9-31.2-0.8-46.2C699.4,179.1,697.4,177.9,695.4,178.5z"/>
	<path id="SVGID_x5F_5_x5F__1_" class="st14" d="M702.4,216.8c0.9-8.5,0.7-16.9-0.4-25.2"/>
	<text class="st15 st16 st17">	<textPath  xlink:href="#SVGID_x5F_5_x5F__1_" startOffset="0%">
	</textPath>
</text>
	<path class="st3" d="M612.1,225.1l-8.2-23.9c-0.6-1.8-2.6-2.8-4.4-2.3c-9.7,2.8-19.9,3.6-30,2.1c-1.9-0.3-3.7,1-4,2.9l-4.8,24.8
		c-0.4,2,1,3.9,3,4.3c15.6,2.4,31.3,1.2,46.1-3.2C611.7,229.1,612.8,227,612.1,225.1z"/>
	<path id="SVGID_x5F_6_x5F__1_" class="st14" d="M597.4,106.2c-1.6,8.3-2.2,16.8-1.7,25.1"/>
	<text class="st15 st16 st17">	<textPath  xlink:href="#SVGID_x5F_6_x5F__1_" startOffset="0%">
	</textPath>
</text>
	<path id="SVGID_x5F_7_x5F__1_" class="st14" d="M609.3,177.5c4.3,7.4,9.4,14.1,15.2,20.1"/>
	<text class="st15 st16 st17">	<textPath  xlink:href="#SVGID_x5F_7_x5F__1_" startOffset="0%">
	</textPath>
</text>
	<path id="SVGID_x5F_8_x5F__1_" class="st14" d="M670.1,281.5c6.2-5.8,11.6-12.3,16.2-19.3"/>
	<text class="st15 st16 st17">	<textPath  xlink:href="#SVGID_x5F_8_x5F__1_" startOffset="0%">
	</textPath>
</text>
	<path id="SVGID_x5F_9_x5F__1_" class="st14" d="M574.3,234.1c8.5,0.4,16.9-0.2,25.1-1.8"/>
	<text class="st15 st16 st17">	<textPath  xlink:href="#SVGID_x5F_9_x5F__1_" startOffset="0%">
	</textPath>
</text>
	<line class="st18" x1="61.7" y1="157.2" x2="61.7" y2="166.9"/>
	<line class="st18" x1="61.7" y1="318.7" x2="61.7" y2="328.4"/>
	<line class="st18" x1="660.2" y1="318.7" x2="660.2" y2="328.4"/>
	<line class="st18" x1="444.2" y1="157.2" x2="444.2" y2="166.9"/>
</g>
<g id="Layer_5" class="st0">
	<g class="st3">
		<path id="SVGID_x5F_10_x5F__1_" class="st5" d="M602.3,162.9c-3.8-9.9-6.1-20.5-6.7-31.6c-1.1-20.1,3.7-39.1,12.8-55.5"/>
		<text>		<textPath  xlink:href="#SVGID_x5F_10_x5F__1_" startOffset="0%">
<tspan  class="st7" style="fill:#00A651; font-size:15px;">level</tspan>		</textPath>
</text>
		<path id="SVGID_x5F_11_x5F__1_" class="st5" d="M602.3,162.9c-3.8-9.9-6.1-20.5-6.7-31.6c-1.1-20.1,3.7-39.1,12.8-55.5"/>
		<text>		<textPath  xlink:href="#SVGID_x5F_11_x5F__1_" startOffset="0%">
<tspan  class="st7" style="fill:#00A651; font-size:15px; letter-spacing:60;">up</tspan>		</textPath>
</text>
	</g>
	<g class="st3">
		<path id="SVGID_x5F_12_x5F__1_" class="st5" d="M650.3,217.1c-9.3-5-18.1-11.5-25.8-19.5c-14-14.5-22.9-32-26.7-50.3"/>
		<text>		<textPath  xlink:href="#SVGID_x5F_12_x5F__1_" startOffset="0%">
<tspan  class="st7" style="fill:#00A651; font-size:15px;">level</tspan>		</textPath>
</text>
		<path id="SVGID_x5F_13_x5F__1_" class="st5" d="M650.3,217.1c-9.3-5-18.1-11.5-25.8-19.5c-14-14.5-22.9-32-26.7-50.3"/>
		<text>		<textPath  xlink:href="#SVGID_x5F_13_x5F__1_" startOffset="0%">
<tspan  class="st7" style="fill:#00A651; font-size:15px; letter-spacing:60;">up</tspan>		</textPath>
</text>
	</g>
	<g class="st3">
		<path id="SVGID_x5F_14_x5F__1_" class="st5" d="M699.5,232.7c-2.7,10.2-7.1,20.2-13.2,29.5c-11,16.9-26,29.5-43,37.4"/>
		<text>		<textPath  xlink:href="#SVGID_x5F_14_x5F__1_" startOffset="0%">
<tspan  class="st7" style="fill:#00A651; font-size:15px;">level</tspan>		</textPath>
</text>
		<path id="SVGID_x5F_15_x5F__1_" class="st5" d="M699.5,232.7c-2.7,10.2-7.1,20.2-13.2,29.5c-11,16.9-26,29.5-43,37.4"/>
		<text>		<textPath  xlink:href="#SVGID_x5F_15_x5F__1_" startOffset="0%">
<tspan  class="st7" style="fill:#00A651; font-size:15px; letter-spacing:60;">up</tspan>		</textPath>
</text>
	</g>
	<g class="st3">
		<path id="SVGID_x5F_16_x5F_" class="st5" d="M692.5,160.7c4.6,9.5,7.9,19.9,9.4,30.9c2.8,19.9-0.3,39.3-7.9,56.4"/>
		<text>		<textPath  xlink:href="#SVGID_x5F_16_x5F_" startOffset="0%">
<tspan  class="st7" style="fill:#00A651; font-size:15px;">level</tspan>		</textPath>
</text>
		<path id="SVGID_x5F_17_x5F_" class="st5" d="M692.5,160.7c4.6,9.5,7.9,19.9,9.4,30.9c2.8,19.9-0.3,39.3-7.9,56.4"/>
		<text>		<textPath  xlink:href="#SVGID_x5F_17_x5F_" startOffset="0%">
<tspan  class="st7" style="fill:#00A651; font-size:15px; letter-spacing:60;">up</tspan>		</textPath>
</text>
	</g>
	<g class="st3">
		<path id="SVGID_x5F_18_x5F_" class="st5" d="M629.8,221.3c-9.2,5.1-19.4,8.9-30.4,11c-19.7,3.8-39.2,1.8-56.7-5"/>
		<text>		<textPath  xlink:href="#SVGID_x5F_18_x5F_" startOffset="0%">
<tspan  class="st7" style="fill:#00A651; font-size:15px;">level</tspan>		</textPath>
</text>
		<path id="SVGID_x5F_19_x5F_" class="st5" d="M629.8,221.3c-9.2,5.1-19.4,8.9-30.4,11c-19.7,3.8-39.2,1.8-56.7-5"/>
		<text>		<textPath  xlink:href="#SVGID_x5F_19_x5F_" startOffset="0%">
<tspan  class="st7" style="fill:#00A651; font-size:15px; letter-spacing:60;">up</tspan>		</textPath>
</text>
	</g>
</g>
<g id="Layer_1" class="st0">
	<g class="st3">
		<polygon points="640.3,180.3 495.8,180.3 495.8,143.8 495.8,143.8 640.3,143.8 		"/>
		<g>
			<path class="st4" d="M610.7,167.7L610,168l-5.6-4.3c-1-0.7-1.8-1.3-2.5-1.6c-0.7-0.4-1.3-0.5-1.8-0.5c-0.5,0-0.9,0.2-1.2,0.5
				c-0.3,0.4-0.4,0.9-0.4,1.5c0,0.6,0.1,1.2,0.3,1.7c0.2,0.5,0.4,1,0.7,1.4c-0.6,0.3-1.1,0.5-1.7,0.7c-0.6,0.2-1.2,0.3-1.8,0.3
				c-0.3-0.5-0.6-1.2-0.8-2c-0.2-0.8-0.3-1.7-0.3-2.7c0-0.8,0.1-1.6,0.3-2.3c0.2-0.7,0.5-1.3,0.9-1.8c0.4-0.5,0.9-0.9,1.5-1.2
				s1.3-0.4,2.1-0.4c0.6,0,1.1,0.1,1.6,0.2c0.5,0.1,1,0.3,1.5,0.6s0.9,0.5,1.3,0.8c0.4,0.3,0.8,0.6,1.2,0.8l1.9,1.4v-4.2
				c0.7-0.1,1.3-0.2,1.8-0.2c0.6,0,1.2,0.1,1.8,0.2V167.7z"/>
		</g>
		<g>
			<path class="st4" d="M525.4,156.3l0.7-0.3l5.6,4.3c1,0.7,1.8,1.3,2.5,1.6c0.7,0.4,1.3,0.5,1.8,0.5c0.5,0,0.9-0.2,1.2-0.5
				c0.3-0.4,0.4-0.9,0.4-1.5c0-0.6-0.1-1.2-0.3-1.7c-0.2-0.5-0.4-1-0.7-1.4c0.6-0.3,1.1-0.5,1.7-0.7c0.6-0.2,1.2-0.3,1.8-0.3
				c0.3,0.5,0.6,1.2,0.8,2s0.3,1.7,0.3,2.7c0,0.8-0.1,1.6-0.3,2.3c-0.2,0.7-0.5,1.3-0.9,1.8c-0.4,0.5-0.9,0.9-1.5,1.2
				s-1.3,0.4-2.1,0.4c-0.6,0-1.1-0.1-1.6-0.2s-1-0.3-1.5-0.6c-0.5-0.2-0.9-0.5-1.3-0.8c-0.4-0.3-0.8-0.6-1.2-0.8L529,163v4.2
				c-0.7,0.1-1.3,0.2-1.8,0.2c-0.6,0-1.2-0.1-1.8-0.2V156.3z"/>
		</g>
	</g>
	<rect x="567.8" y="197.8" class="st3" width="216.5" height="36.5"/>
	<g class="st3">
		<path class="st4" d="M742.6,220.1c-0.6,0.1-1.2,0.2-1.8,0.2c-0.6,0-1.2-0.1-1.8-0.2V210l0.7-0.4l5.9,3.4c0.2-1.2,0.7-2,1.5-2.7
			c0.8-0.6,1.8-1,3.1-1c1,0,1.9,0.2,2.6,0.5c0.8,0.4,1.4,0.9,1.9,1.5c0.5,0.6,0.9,1.4,1.2,2.2c0.3,0.9,0.4,1.8,0.4,2.7
			c0,0.4,0,0.9,0,1.2c0,0.4-0.1,0.8-0.1,1.1c-0.1,0.4-0.2,0.8-0.3,1.1c-0.1,0.4-0.2,0.8-0.4,1.2c-0.6,0-1.2-0.1-1.8-0.3
			c-0.6-0.2-1.2-0.4-1.6-0.7c0.2-0.6,0.4-1.2,0.5-1.8c0.1-0.6,0.2-1.2,0.2-1.8c0-0.9-0.2-1.7-0.6-2.2c-0.4-0.6-1-0.8-1.8-0.8
			c-0.3,0-0.6,0.1-0.9,0.2c-0.3,0.1-0.5,0.3-0.6,0.6s-0.3,0.5-0.4,0.8c-0.1,0.3-0.1,0.6-0.1,1c0,0.3,0,0.5,0,0.8
			c0,0.3,0.1,0.6,0.2,1l-0.8,0.5l-5.1-3V220.1z"/>
	</g>
	<g class="st3">
		<path class="st4" d="M609.4,211.9c0.6-0.1,1.2-0.2,1.8-0.2c0.6,0,1.2,0.1,1.8,0.2v10.2l-0.7,0.4l-5.9-3.4c-0.2,1.2-0.7,2-1.5,2.7
			c-0.8,0.6-1.8,1-3.1,1c-1,0-1.9-0.2-2.6-0.5c-0.8-0.4-1.4-0.9-1.9-1.5c-0.5-0.6-0.9-1.4-1.2-2.2c-0.3-0.9-0.4-1.8-0.4-2.7
			c0-0.4,0-0.9,0-1.2c0-0.4,0.1-0.8,0.1-1.1c0.1-0.4,0.2-0.8,0.3-1.1c0.1-0.4,0.2-0.8,0.4-1.2c0.6,0,1.2,0.1,1.8,0.3
			c0.6,0.2,1.2,0.4,1.6,0.7c-0.2,0.6-0.4,1.2-0.5,1.8c-0.1,0.6-0.2,1.2-0.2,1.8c0,0.9,0.2,1.7,0.6,2.2c0.4,0.6,1,0.8,1.8,0.8
			c0.3,0,0.6-0.1,0.9-0.2c0.3-0.1,0.5-0.3,0.6-0.6s0.3-0.5,0.4-0.8s0.1-0.6,0.1-1c0-0.3,0-0.5,0-0.8c0-0.3-0.1-0.6-0.2-1l0.8-0.5
			l5.1,3V211.9z"/>
	</g>
	<polygon class="st3" points="63.8,72.3 63.8,72.3 63.8,35.8 63.8,35.8 352.3,35.8 352.3,35.8 352.3,72.3 	"/>
	<g class="st3">
		<path class="st4" d="M317.6,47.6c0.6-0.1,1.2-0.2,1.8-0.2c0.6,0,1.2,0.1,1.8,0.2v1.3h2.8c0.1,0.3,0.1,0.7,0.2,1c0,0.3,0,0.6,0,0.9
			c0,0.3,0,0.6,0,1c0,0.3-0.1,0.7-0.2,1h-2.8v7.6l-0.7,0.4l-13.8-6.5c0.1-0.6,0.2-1.2,0.4-1.8s0.5-1.2,0.9-1.7l9.6,4.4v-2.4h-2.7
			c-0.1-0.4-0.1-0.7-0.2-1c0-0.3,0-0.7,0-1c0-0.3,0-0.6,0-0.9c0-0.3,0.1-0.7,0.2-1h2.7V47.6z"/>
	</g>
	<g class="st3">
		<path class="st4" d="M98.4,60.4c-0.6,0.1-1.2,0.2-1.8,0.2c-0.6,0-1.2-0.1-1.8-0.2v-1.3H92c-0.1-0.3-0.1-0.7-0.2-1
			c0-0.3,0-0.6,0-0.9c0-0.3,0-0.6,0-1c0-0.3,0.1-0.7,0.2-1h2.8v-7.6l0.7-0.4l13.8,6.5c-0.1,0.6-0.2,1.2-0.4,1.8s-0.5,1.2-0.9,1.7
			l-9.6-4.4v2.4h2.7c0.1,0.4,0.1,0.7,0.2,1c0,0.3,0,0.7,0,1c0,0.3,0,0.6,0,0.9c0,0.3-0.1,0.7-0.2,1h-2.7V60.4z"/>
	</g>
	<rect x="45.8" y="89.8" class="st3" width="360.5" height="36.5"/>
	<g class="st3">
		<path class="st4" d="M361,103.7c0.7-0.1,1.3-0.2,1.8-0.2c0.6,0,1.2,0.1,1.8,0.2v5.1l2.5,0c0-0.1,0-0.3,0-0.4s0-0.3,0-0.5
			c0-0.8,0.1-1.5,0.3-2.2c0.2-0.7,0.6-1.2,1-1.7c0.4-0.5,1-0.8,1.6-1.1c0.6-0.3,1.4-0.4,2.2-0.4c1,0,1.9,0.2,2.6,0.5
			s1.4,0.8,1.9,1.5c0.5,0.6,0.9,1.4,1.2,2.3s0.4,1.9,0.4,3c0,0.2,0,0.5,0,0.8s-0.1,0.7-0.1,1c-0.1,0.4-0.1,0.8-0.2,1.2
			c-0.1,0.4-0.2,0.8-0.4,1.2c-0.3,0-0.6-0.1-0.9-0.1c-0.3-0.1-0.6-0.2-1-0.3c-0.3-0.1-0.6-0.2-0.9-0.3c-0.3-0.1-0.5-0.2-0.8-0.3
			c0.2-0.6,0.4-1.2,0.5-1.7c0.1-0.5,0.2-1,0.2-1.5c0-0.6-0.1-1.1-0.2-1.5c-0.1-0.4-0.3-0.7-0.5-1c-0.2-0.2-0.4-0.4-0.7-0.5
			c-0.3-0.1-0.5-0.2-0.8-0.2c-0.6,0-1.1,0.2-1.5,0.6s-0.6,1.1-0.6,2.1c0,0.4,0,0.8,0.1,1.2c0.1,0.4,0.2,0.9,0.5,1.4l-0.4,0.6
			l-9.6-0.4V103.7z"/>
	</g>
	<g class="st3">
		<path class="st4" d="M91,112.3c-0.7,0.1-1.3,0.2-1.8,0.2c-0.6,0-1.2-0.1-1.8-0.2v-5.1l-2.5,0c0,0.1,0,0.3,0,0.4s0,0.3,0,0.5
			c0,0.8-0.1,1.5-0.3,2.2c-0.2,0.7-0.6,1.2-1,1.7c-0.4,0.5-1,0.8-1.6,1.1c-0.6,0.3-1.4,0.4-2.2,0.4c-1,0-1.9-0.2-2.6-0.5
			s-1.4-0.8-1.9-1.5c-0.5-0.6-0.9-1.4-1.2-2.3s-0.4-1.9-0.4-3c0-0.2,0-0.5,0-0.8s0.1-0.7,0.1-1c0.1-0.4,0.1-0.8,0.2-1.2
			c0.1-0.4,0.2-0.8,0.4-1.2c0.3,0,0.6,0.1,0.9,0.1c0.3,0.1,0.6,0.2,1,0.3c0.3,0.1,0.6,0.2,0.9,0.3c0.3,0.1,0.5,0.2,0.8,0.3
			c-0.2,0.6-0.4,1.2-0.5,1.7c-0.1,0.5-0.2,1-0.2,1.5c0,0.6,0.1,1.1,0.2,1.5c0.1,0.4,0.3,0.7,0.5,1c0.2,0.2,0.4,0.4,0.7,0.5
			c0.3,0.1,0.5,0.2,0.8,0.2c0.6,0,1.1-0.2,1.5-0.6s0.6-1.1,0.6-2.1c0-0.4,0-0.8-0.1-1.2c-0.1-0.4-0.2-0.9-0.5-1.4l0.4-0.6l9.6,0.4
			V112.3z"/>
	</g>
	<rect x="45.8" y="143.8" class="st3" width="432.5" height="36.5"/>
	<g class="st3">
		<path class="st4" d="M431.2,158.4c0.1-0.1,0.4-0.2,0.7-0.4s0.7-0.2,1.2-0.2c0.4,0,0.7,0,1,0.1s0.6,0.1,0.7,0.2
			c0,0.6,0.2,1.2,0.3,1.8c0.2,0.6,0.4,1.1,0.7,1.5c0.3,0.5,0.7,0.9,1.1,1.2c0.4,0.3,0.8,0.6,1.3,0.8l0-0.1c-0.2-0.2-0.4-0.5-0.6-1
			c-0.2-0.5-0.3-1-0.3-1.7c0-0.7,0.1-1.3,0.3-1.9c0.2-0.6,0.5-1.1,1-1.6c0.4-0.5,1-0.8,1.7-1.1c0.7-0.3,1.5-0.4,2.5-0.4
			s1.8,0.2,2.6,0.5c0.7,0.3,1.4,0.8,1.9,1.3c0.5,0.6,0.9,1.2,1.1,1.9c0.3,0.7,0.4,1.5,0.4,2.4c0,2-0.6,3.6-1.7,4.6
			c-1.2,1.1-2.9,1.6-5.2,1.6c-1.3,0-2.6-0.2-3.9-0.6c-1.2-0.4-2.3-0.9-3.3-1.7c-1-0.8-1.8-1.8-2.4-3
			C431.8,161.5,431.4,160.1,431.2,158.4z M440.7,161.7c0,0.6,0.2,1.1,0.6,1.5c0.4,0.4,1,0.6,1.8,0.6c0.8,0,1.5-0.2,1.9-0.6
			c0.4-0.4,0.6-0.8,0.6-1.4c0-0.6-0.2-1.1-0.6-1.5c-0.4-0.4-1-0.6-1.8-0.6c-0.9,0-1.5,0.2-1.9,0.6
			C440.9,160.7,440.7,161.2,440.7,161.7z"/>
	</g>
	<g class="st3">
		<path class="st4" d="M92.9,165.6c-0.1,0.1-0.4,0.2-0.7,0.4s-0.7,0.2-1.2,0.2c-0.4,0-0.7,0-1-0.1s-0.6-0.1-0.7-0.2
			c0-0.6-0.2-1.2-0.3-1.8c-0.2-0.6-0.4-1.1-0.7-1.5c-0.3-0.5-0.7-0.9-1.1-1.2c-0.4-0.3-0.8-0.6-1.3-0.8l0,0.1c0.2,0.2,0.4,0.5,0.6,1
			c0.2,0.5,0.3,1,0.3,1.7c0,0.7-0.1,1.3-0.3,1.9c-0.2,0.6-0.5,1.1-1,1.6c-0.4,0.5-1,0.8-1.7,1.1c-0.7,0.3-1.5,0.4-2.5,0.4
			s-1.8-0.2-2.6-0.5c-0.7-0.3-1.4-0.8-1.9-1.3c-0.5-0.6-0.9-1.2-1.1-1.9c-0.3-0.7-0.4-1.5-0.4-2.4c0-2,0.6-3.6,1.7-4.6
			c1.2-1.1,2.9-1.6,5.2-1.6c1.3,0,2.6,0.2,3.9,0.6c1.2,0.4,2.3,0.9,3.3,1.7c1,0.8,1.8,1.8,2.4,3C92.4,162.5,92.8,163.9,92.9,165.6z
			 M83.4,162.3c0-0.6-0.2-1.1-0.6-1.5c-0.4-0.4-1-0.6-1.8-0.6c-0.8,0-1.5,0.2-1.9,0.6c-0.4,0.4-0.6,0.8-0.6,1.4
			c0,0.6,0.2,1.1,0.6,1.5c0.4,0.4,1,0.6,1.8,0.6c0.9,0,1.5-0.2,1.9-0.6C83.2,163.3,83.4,162.8,83.4,162.3z"/>
	</g>
	<rect x="45.8" y="197.8" class="st3" width="504.5" height="36.5"/>
	<g class="st3">
		<path class="st4" d="M508.6,221.8c-0.3,0.1-0.7,0.1-1,0.2c-0.3,0-0.6,0-0.9,0c-0.5,0-1.1-0.1-1.8-0.2v-11.7l0.6-0.4l16.8,6.8
			c-0.2,0.7-0.3,1.3-0.6,1.9s-0.5,1.2-1,1.8l-12.3-5V221.8z"/>
	</g>
	<g class="st3">
		<path class="st4" d="M87.4,210.2c0.3-0.1,0.7-0.1,1-0.2c0.3,0,0.6,0,0.9,0c0.5,0,1.1,0.1,1.8,0.2v11.7l-0.6,0.4l-16.8-6.8
			c0.2-0.7,0.3-1.3,0.6-1.9c0.2-0.6,0.5-1.2,1-1.8l12.3,5V210.2z"/>
	</g>
	<rect x="45.8" y="251.3" class="st3" width="576.5" height="36.5"/>
	<g class="st3">
		<path class="st4" d="M580.1,264.2c0.7,0,1.4,0.2,2,0.5c0.6,0.3,1.1,0.8,1.5,1.4c0.4-0.7,1-1.4,1.7-1.9c0.7-0.5,1.6-0.8,2.7-0.8
			c0.9,0,1.7,0.2,2.3,0.5c0.6,0.3,1.2,0.8,1.6,1.4s0.7,1.2,0.9,2c0.2,0.7,0.3,1.5,0.3,2.2s-0.1,1.5-0.3,2.2
			c-0.2,0.7-0.5,1.4-0.9,1.9c-0.4,0.6-0.9,1-1.6,1.4c-0.6,0.3-1.4,0.5-2.3,0.5c-1.1,0-1.9-0.2-2.7-0.7c-0.7-0.5-1.3-1.1-1.7-1.8
			c-0.4,0.6-0.9,1.1-1.5,1.4c-0.6,0.3-1.2,0.5-2,0.5c-0.7,0-1.3-0.1-1.9-0.4c-0.6-0.3-1.1-0.7-1.5-1.1c-0.4-0.5-0.7-1-0.9-1.7
			c-0.2-0.7-0.3-1.4-0.3-2.1c0-0.8,0.1-1.5,0.3-2.1c0.2-0.7,0.5-1.2,0.9-1.7c0.4-0.5,0.9-0.9,1.5-1.1S579.4,264.2,580.1,264.2z
			 M580,271.1c0.5,0,0.9-0.1,1.3-0.4c0.3-0.3,0.6-0.7,0.8-1.1c-0.2-0.5-0.4-0.9-0.8-1.2c-0.3-0.3-0.8-0.4-1.3-0.4
			c-0.4,0-0.7,0.1-1,0.4c-0.3,0.3-0.4,0.7-0.4,1.2c0,0.5,0.1,0.9,0.4,1.2C579.3,271,579.6,271.1,580,271.1z M587.7,267.4
			c-0.6,0-1.1,0.2-1.5,0.6c-0.4,0.4-0.7,0.9-0.9,1.5c0.2,0.6,0.5,1.1,0.9,1.5c0.4,0.4,0.9,0.6,1.5,0.6c0.6,0,1-0.2,1.4-0.5
			s0.6-0.9,0.6-1.5c0-0.7-0.2-1.2-0.6-1.6C588.8,267.6,588.3,267.4,587.7,267.4z"/>
	</g>
	<g class="st3">
		<path class="st4" d="M88,274.9c-0.7,0-1.4-0.2-2-0.5c-0.6-0.3-1.1-0.8-1.5-1.4c-0.4,0.7-1,1.4-1.7,1.9c-0.7,0.5-1.6,0.8-2.7,0.8
			c-0.9,0-1.7-0.2-2.3-0.5c-0.6-0.3-1.2-0.8-1.6-1.4s-0.7-1.2-0.9-2c-0.2-0.7-0.3-1.5-0.3-2.2c0-0.8,0.1-1.5,0.3-2.2
			c0.2-0.7,0.5-1.4,0.9-1.9c0.4-0.6,0.9-1,1.6-1.4c0.6-0.3,1.4-0.5,2.3-0.5c1.1,0,1.9,0.2,2.7,0.7c0.7,0.5,1.3,1.1,1.7,1.8
			c0.4-0.6,0.9-1.1,1.5-1.4c0.6-0.3,1.2-0.5,2-0.5c0.7,0,1.3,0.1,1.9,0.4s1.1,0.7,1.5,1.1c0.4,0.5,0.7,1,0.9,1.7
			c0.2,0.7,0.3,1.4,0.3,2.1c0,0.8-0.1,1.5-0.3,2.1c-0.2,0.7-0.5,1.2-0.9,1.7c-0.4,0.5-0.9,0.9-1.5,1.1
			C89.3,274.7,88.6,274.9,88,274.9z M80.3,271.6c0.6,0,1.1-0.2,1.5-0.6c0.4-0.4,0.7-0.9,0.9-1.5c-0.2-0.6-0.5-1.1-0.9-1.5
			c-0.4-0.4-0.9-0.6-1.5-0.6c-0.6,0-1,0.2-1.4,0.5c-0.4,0.4-0.6,0.9-0.6,1.5c0,0.7,0.2,1.2,0.6,1.6S79.7,271.6,80.3,271.6z
			 M88,267.9c-0.5,0-0.9,0.1-1.3,0.4s-0.6,0.7-0.8,1.1c0.2,0.5,0.4,0.9,0.8,1.2c0.3,0.3,0.8,0.4,1.3,0.4c0.4,0,0.7-0.1,1-0.4
			c0.3-0.3,0.4-0.7,0.4-1.2s-0.1-0.9-0.4-1.2C88.7,268.1,88.4,267.9,88,267.9z"/>
	</g>
	<rect x="45.8" y="305.3" class="st3" width="648.5" height="36.5"/>
	<g class="st3">
		<path class="st4" d="M666.5,327.1c-0.1,0.1-0.4,0.2-0.7,0.4c-0.3,0.1-0.7,0.2-1.2,0.2c-0.4,0-0.7,0-1-0.1c-0.3,0-0.6-0.1-0.7-0.2
			c0-0.6-0.2-1.2-0.3-1.8c-0.2-0.6-0.4-1.1-0.7-1.5c-0.3-0.5-0.6-0.9-1.1-1.2c-0.4-0.3-0.9-0.6-1.4-0.8l0,0.1c0.2,0.2,0.4,0.5,0.6,1
			c0.2,0.5,0.3,1,0.3,1.7c0,0.7-0.1,1.3-0.3,1.9c-0.2,0.6-0.5,1.1-1,1.6c-0.4,0.5-1,0.8-1.7,1.1c-0.7,0.3-1.5,0.4-2.5,0.4
			c-1,0-1.8-0.2-2.6-0.5c-0.7-0.3-1.4-0.8-1.9-1.3c-0.5-0.6-0.9-1.2-1.1-1.9c-0.3-0.7-0.4-1.5-0.4-2.4c0-2,0.6-3.6,1.7-4.6
			c1.2-1.1,2.9-1.6,5.2-1.6c1.3,0,2.6,0.2,3.9,0.6s2.3,0.9,3.3,1.7c1,0.8,1.8,1.8,2.4,3C666,324,666.3,325.4,666.5,327.1z
			 M657,323.8c0-0.6-0.2-1.1-0.6-1.5c-0.4-0.4-1-0.6-1.8-0.6c-0.8,0-1.5,0.2-1.9,0.6c-0.4,0.4-0.6,0.8-0.6,1.4
			c0,0.6,0.2,1.1,0.6,1.5c0.4,0.4,1,0.6,1.8,0.6c0.9,0,1.5-0.2,1.9-0.6C656.8,324.8,657,324.3,657,323.8z"/>
	</g>
	<g class="st3">
		<path class="st4" d="M73.5,319.9c0.1-0.1,0.4-0.2,0.7-0.4c0.3-0.1,0.7-0.2,1.2-0.2c0.4,0,0.7,0,1,0.1c0.3,0,0.6,0.1,0.7,0.2
			c0,0.6,0.2,1.2,0.3,1.8c0.2,0.6,0.4,1.1,0.7,1.5c0.3,0.5,0.6,0.9,1.1,1.2c0.4,0.3,0.9,0.6,1.4,0.8l0-0.1c-0.2-0.2-0.4-0.5-0.6-1
			c-0.2-0.5-0.3-1-0.3-1.7c0-0.7,0.1-1.3,0.3-1.9c0.2-0.6,0.5-1.1,1-1.6c0.4-0.5,1-0.8,1.7-1.1c0.7-0.3,1.5-0.4,2.5-0.4
			c1,0,1.8,0.2,2.6,0.5c0.7,0.3,1.4,0.8,1.9,1.3c0.5,0.6,0.9,1.2,1.1,1.9c0.3,0.7,0.4,1.5,0.4,2.4c0,2-0.6,3.6-1.7,4.6
			c-1.2,1.1-2.9,1.6-5.2,1.6c-1.3,0-2.6-0.2-3.9-0.6c-1.2-0.4-2.3-0.9-3.3-1.7c-1-0.8-1.8-1.8-2.4-3S73.7,321.6,73.5,319.9z
			 M83,323.3c0,0.6,0.2,1.1,0.6,1.5c0.4,0.4,1,0.6,1.8,0.6c0.8,0,1.5-0.2,1.9-0.6c0.4-0.4,0.6-0.8,0.6-1.4s-0.2-1.1-0.6-1.5
			c-0.4-0.4-1-0.6-1.8-0.6c-0.9,0-1.5,0.2-1.9,0.6C83.2,322.2,83,322.7,83,323.3z"/>
	</g>
	<rect x="63.8" y="359.8" class="st3" width="720.5" height="36.5"/>
	<g class="st3">
		<path class="st4" d="M745.3,388.6c-0.2,0.1-0.4,0.3-0.7,0.4c-0.3,0.1-0.6,0.3-0.8,0.4c-0.3,0.1-0.6,0.2-0.9,0.3
			c-0.3,0.1-0.6,0.2-0.9,0.2l-3-7v-1h12.1v-3.1c0.6-0.1,1.2-0.2,1.8-0.2c0.6,0,1.2,0.1,1.8,0.2v10.3c-0.6,0.1-1.2,0.2-1.8,0.2
			c-0.6,0-1.2-0.1-1.8-0.2V386h-6.8L745.3,388.6z"/>
		<path class="st4" d="M738.8,372.3c0-1.1,0.2-2,0.6-2.8s1-1.4,1.7-1.9c0.7-0.5,1.6-0.9,2.6-1.1c1-0.2,2.1-0.4,3.2-0.4
			s2.2,0.1,3.2,0.4s1.8,0.6,2.5,1.2c0.7,0.5,1.3,1.2,1.7,2c0.4,0.8,0.6,1.7,0.6,2.8s-0.2,2-0.6,2.8c-0.4,0.8-1,1.4-1.7,1.9
			c-0.7,0.5-1.6,0.9-2.5,1.1s-2,0.4-3.2,0.4s-2.2-0.1-3.2-0.4s-1.9-0.6-2.6-1.2c-0.7-0.5-1.3-1.2-1.7-2
			C739,374.3,738.8,373.3,738.8,372.3z M742.4,372.3c0,0.6,0.4,1.1,1.1,1.5c0.8,0.4,1.9,0.5,3.4,0.5c1.5,0,2.6-0.2,3.4-0.5
			c0.8-0.4,1.1-0.9,1.1-1.5c0-0.6-0.4-1.1-1.1-1.4c-0.8-0.4-1.9-0.5-3.4-0.5c-1.5,0-2.6,0.2-3.4,0.5
			C742.8,371.2,742.4,371.7,742.4,372.3z"/>
	</g>
	<g class="st3">
		<path class="st4" d="M102.7,367.4c0.2-0.1,0.4-0.3,0.7-0.4c0.3-0.1,0.6-0.3,0.8-0.4s0.6-0.2,0.9-0.3s0.6-0.2,0.9-0.2l3,7v1H96.9
			v3.1c-0.6,0.1-1.2,0.2-1.8,0.2c-0.6,0-1.2-0.1-1.8-0.2v-10.3c0.6-0.1,1.2-0.2,1.8-0.2c0.6,0,1.2,0.1,1.8,0.2v3.1h6.8L102.7,367.4z
			"/>
		<path class="st4" d="M109.2,383.8c0,1.1-0.2,2-0.6,2.8s-1,1.4-1.7,1.9c-0.7,0.5-1.6,0.9-2.6,1.1c-1,0.2-2.1,0.4-3.2,0.4
			s-2.2-0.1-3.2-0.4c-1-0.3-1.8-0.6-2.5-1.2c-0.7-0.5-1.3-1.2-1.7-2s-0.6-1.7-0.6-2.8c0-1.1,0.2-2,0.6-2.8s1-1.4,1.7-1.9
			c0.7-0.5,1.6-0.9,2.5-1.1c1-0.2,2-0.4,3.2-0.4s2.2,0.1,3.2,0.4s1.9,0.6,2.6,1.2c0.7,0.5,1.3,1.2,1.7,2S109.2,382.7,109.2,383.8z
			 M105.6,383.7c0-0.6-0.4-1.1-1.1-1.5s-1.9-0.5-3.4-0.5c-1.5,0-2.6,0.2-3.4,0.5c-0.8,0.4-1.1,0.9-1.1,1.5c0,0.6,0.4,1.1,1.1,1.4
			c0.8,0.4,1.9,0.5,3.4,0.5c1.5,0,2.6-0.2,3.4-0.5C105.2,384.8,105.6,384.3,105.6,383.7z"/>
	</g>
	<path class="st3" d="M784.5,180H712v-38.4c0-5.7-2.3-11.1-6.3-15.1l-12.2-12.2c-4-4-9.4-6.3-15.1-6.3H424.1V35.5h360.4V180z"/>
	<path class="st19" d="M453,67.6c0.2-0.1,0.4-0.3,0.7-0.4c0.3-0.1,0.6-0.3,0.8-0.4s0.6-0.2,0.9-0.3c0.3-0.1,0.6-0.2,0.9-0.2l3,7v1
		h-12.1v3.1c-0.6,0.1-1.2,0.2-1.8,0.2c-0.6,0-1.2-0.1-1.8-0.2V67.1c0.6-0.1,1.2-0.2,1.8-0.2c0.6,0,1.2,0.1,1.8,0.2v3.1h6.8L453,67.6
		z"/>
	<path class="st19" d="M600,70.7c-0.1-0.7-0.2-1.3-0.2-1.8c0-0.6,0.1-1.2,0.2-1.8h5.1l0-2.5c-0.1,0-0.3,0-0.4,0s-0.3,0-0.5,0
		c-0.8,0-1.5-0.1-2.2-0.3c-0.7-0.2-1.2-0.6-1.7-1c-0.5-0.4-0.8-1-1.1-1.6c-0.3-0.6-0.4-1.4-0.4-2.2c0-1,0.2-1.9,0.5-2.6
		s0.8-1.4,1.5-1.9c0.6-0.5,1.4-0.9,2.3-1.2c0.9-0.3,1.9-0.4,3-0.4c0.2,0,0.5,0,0.8,0s0.7,0.1,1,0.1c0.4,0.1,0.8,0.1,1.2,0.2
		c0.4,0.1,0.8,0.2,1.2,0.4c0,0.3-0.1,0.6-0.1,0.9c-0.1,0.3-0.2,0.6-0.3,1c-0.1,0.3-0.2,0.6-0.3,0.9c-0.1,0.3-0.2,0.5-0.3,0.8
		c-0.6-0.2-1.2-0.4-1.7-0.5c-0.5-0.1-1-0.2-1.5-0.2c-0.6,0-1.1,0.1-1.5,0.2c-0.4,0.1-0.7,0.3-1,0.5c-0.2,0.2-0.4,0.4-0.5,0.7
		c-0.1,0.3-0.2,0.5-0.2,0.8c0,0.6,0.2,1.1,0.6,1.5c0.4,0.4,1.1,0.6,2.1,0.6c0.4,0,0.8,0,1.2-0.1c0.4-0.1,0.9-0.2,1.4-0.5l0.6,0.4
		l-0.4,9.6H600z"/>
	<path class="st19" d="M764.9,113.4l-0.7,0.3l-5.6-4.3c-1-0.7-1.8-1.3-2.5-1.6c-0.7-0.4-1.3-0.5-1.8-0.5c-0.5,0-0.9,0.2-1.2,0.5
		c-0.3,0.4-0.4,0.9-0.4,1.5c0,0.6,0.1,1.2,0.3,1.7c0.2,0.5,0.4,1,0.7,1.4c-0.6,0.3-1.1,0.5-1.7,0.7c-0.6,0.2-1.2,0.3-1.8,0.3
		c-0.3-0.5-0.6-1.2-0.8-2c-0.2-0.8-0.3-1.7-0.3-2.7c0-0.8,0.1-1.6,0.3-2.3c0.2-0.7,0.5-1.3,0.9-1.8c0.4-0.5,0.9-0.9,1.5-1.2
		s1.3-0.4,2.1-0.4c0.6,0,1.1,0.1,1.6,0.2c0.5,0.1,1,0.3,1.5,0.6s0.9,0.5,1.3,0.8c0.4,0.3,0.8,0.6,1.2,0.8l1.9,1.4v-4.2
		c0.7-0.1,1.3-0.2,1.8-0.2c0.6,0,1.2,0.1,1.8,0.2V113.4z"/>
	<rect x="415.6" y="-234.5" class="st14" width="56" height="36"/>
	<text transform="matrix(0 1 -1 0 444.9082 -222.9384)" class="st7 st11" style="display:inline;fill:#00AEEF;">1</text>
	<rect x="581.5" y="-316.5" class="st14" width="36" height="56"/>
	<text transform="matrix(-1 0 0 -1 606.0132 -287.1973)" class="st7 st11" style="display:inline;fill:#00AEEF;">5</text>
	<rect x="733.5" y="-252.5" class="st14" width="56" height="36"/>
	<text transform="matrix(0 -1 1 0 760.2112 -228.1729)" class="st7 st11" style="display:inline;fill:#00AEEF;">2</text>
	<circle class="st3" cx="759.7" cy="303" r="35.7"/>
	<g class="st3">
		<path class="st4" d="M746.9-102.3l-0.7,0.3l-5.6-4.3c-1-0.7-1.8-1.3-2.5-1.6c-0.7-0.4-1.3-0.5-1.8-0.5c-0.5,0-0.9,0.2-1.2,0.5
			c-0.3,0.4-0.4,0.9-0.4,1.5c0,0.6,0.1,1.2,0.3,1.7c0.2,0.5,0.4,1,0.7,1.4c-0.6,0.3-1.1,0.5-1.7,0.7c-0.6,0.2-1.2,0.3-1.8,0.3
			c-0.3-0.5-0.6-1.2-0.8-2c-0.2-0.8-0.3-1.7-0.3-2.7c0-0.8,0.1-1.6,0.3-2.3c0.2-0.7,0.5-1.3,0.9-1.8c0.4-0.5,0.9-0.9,1.5-1.2
			s1.3-0.4,2.1-0.4c0.6,0,1.1,0.1,1.6,0.2c0.5,0.1,1,0.3,1.5,0.6s0.9,0.5,1.3,0.8c0.4,0.3,0.8,0.6,1.2,0.8l1.9,1.4v-4.2
			c0.7-0.1,1.3-0.2,1.8-0.2c0.6,0,1.2,0.1,1.8,0.2V-102.3z"/>
	</g>
	<g class="st3">
		<path class="st4" d="M661.5-113.7l0.7-0.3l5.6,4.3c1,0.7,1.8,1.3,2.5,1.6c0.7,0.4,1.3,0.5,1.8,0.5c0.5,0,0.9-0.2,1.2-0.5
			c0.3-0.4,0.4-0.9,0.4-1.5c0-0.6-0.1-1.2-0.3-1.7c-0.2-0.5-0.4-1-0.7-1.4c0.6-0.3,1.1-0.5,1.7-0.7c0.6-0.2,1.2-0.3,1.8-0.3
			c0.3,0.5,0.6,1.2,0.8,2s0.3,1.7,0.3,2.7c0,0.8-0.1,1.6-0.3,2.3c-0.2,0.7-0.5,1.3-0.9,1.8c-0.4,0.5-0.9,0.9-1.5,1.2
			s-1.3,0.4-2.1,0.4c-0.6,0-1.1-0.1-1.6-0.2s-1-0.3-1.5-0.6c-0.5-0.2-0.9-0.5-1.3-0.8c-0.4-0.3-0.8-0.6-1.2-0.8l-1.9-1.4v4.2
			c-0.7,0.1-1.3,0.2-1.8,0.2c-0.6,0-1.2-0.1-1.8-0.2V-113.7z"/>
	</g>
	<g class="st3">
		<polygon points="639.8,287.8 639.8,251.3 639.8,251.3 712.3,251.3 712.3,287.8 		"/>
		<g>
			<path class="st4" d="M677.6,265.4c0.2-0.1,0.4-0.3,0.7-0.4c0.3-0.1,0.6-0.3,0.8-0.4s0.6-0.2,0.9-0.3s0.6-0.2,0.9-0.2l3,7v1h-12.1
				v3.1c-0.6,0.1-1.2,0.2-1.8,0.2c-0.6,0-1.2-0.1-1.8-0.2v-10.3c0.6-0.1,1.2-0.2,1.8-0.2c0.6,0,1.2,0.1,1.8,0.2v3.1h6.8L677.6,265.4
				z"/>
		</g>
	</g>
</g>
<g id="Layer_3" class="st0">
	<rect x="64" y="359.2" class="st3" width="720" height="36"/>
	<rect x="28.8" y="305.5" class="st3" width="648" height="36"/>
	<rect x="28.8" y="251.7" class="st3" width="576" height="36"/>
	<rect x="28.8" y="198" class="st3" width="504" height="36"/>
	<rect x="28.8" y="144.3" class="st3" width="432" height="36"/>
	<rect x="64" y="36.8" class="st3" width="288" height="36"/>
	<rect x="496" y="34.8" class="st3" width="288" height="72"/>
	<rect x="988.7" y="77" class="st3" width="72" height="216"/>
	<rect x="891.2" y="67.2" class="st3" width="72" height="144"/>
	<text transform="matrix(1 0 0 0 720 421.9561)" class="st3 st20 st21">0.5 in</text>
	<rect x="28.8" y="90.5" class="st3" width="360" height="36"/>
</g>
<g id="Layer_6">
	<path class="st22" d="M838,41.7c0-13.1-10.6-23.7-23.7-23.7H33.7C20.6,18,10,28.6,10,41.7v348.7c0,13.1,10.6,23.7,23.7,23.7h780.7
		c13.1,0,23.7-10.6,23.7-23.7V41.7z"/>
	<path class="st23" d="M33.4,397.2c-3.7,0-6.6-3-6.6-6.6s3-6.6,6.6-6.6s6.6,3,6.6,6.6S37.1,397.2,33.4,397.2z"/>
	<circle class="st23" cx="33.4" cy="41.4" r="6.6"/>
	<path class="st23" d="M814.6,48c-3.7,0-6.6-3-6.6-6.6s3-6.6,6.6-6.6s6.6,3,6.6,6.6S818.3,48,814.6,48z"/>
	<path class="st23" d="M814.6,397.2c-3.7,0-6.6-3-6.6-6.6s3-6.6,6.6-6.6s6.6,3,6.6,6.6S818.3,397.2,814.6,397.2z"/>
	<circle class="st24" cx="99.1" cy="107.1" r="72.3"/>
	<circle class="st24" cx="315.7" cy="107.1" r="72.3"/>
	<circle class="st24" cx="532.3" cy="107.1" r="72.3"/>
	<circle class="st24" cx="748.9" cy="107.1" r="72.3"/>
	<circle class="st24" cx="99.1" cy="324.9" r="72.3"/>
	<circle class="st24" cx="315.7" cy="324.9" r="72.3"/>
	<circle class="st24" cx="532.3" cy="324.9" r="72.3"/>
	<circle class="st24" cx="748.9" cy="324.9" r="72.3"/>
	<circle class="st24" cx="207.4" cy="216" r="72.3"/>
	<circle class="st24" cx="424" cy="216" r="72.3"/>
	<circle class="st24" cx="640.6" cy="216" r="72.3"/>
	<path class="st25" d="M126.3,32.4c30.4,11.2,52.2,40.4,52.2,74.7c0,14.7-4,28.4-10.9,40.2c11.7-6.8,25.3-10.7,39.8-10.7
		c14.5,0,28.1,3.9,39.8,10.7c-6.9-11.8-10.9-25.5-10.9-40.2c0-34.2,21.8-63.5,52.2-74.7 M343,32.4c30.4,11.2,52.2,40.4,52.2,74.7
		c0,14.7-4,28.4-10.9,40.2c11.7-6.8,25.3-10.7,39.8-10.7c14.5,0,28.1,3.9,39.8,10.7c-6.9-11.8-10.9-25.5-10.9-40.2
		c0-34.2,21.8-63.5,52.2-74.7 M559.6,32.4c30.4,11.2,52.2,40.4,52.2,74.7c0,14.7-4,28.4-10.9,40.2c11.7-6.8,25.3-10.7,39.8-10.7
		c14.5,0,28.1,3.9,39.8,10.7c-6.9-11.8-10.9-25.5-10.9-40.2c0-34.2,21.8-63.5,52.2-74.7 M823.6,79.8c-3.6-10-9.2-19-16.3-26.7l0,0
		c-1.4-1.5-2.9-3-4.4-4.4l0,0c-7.7-7.1-16.7-12.7-26.7-16.3 M823.6,297.7c-11.1-30.4-40.4-52.2-74.7-52.2
		c-14.5,0-28.1,3.9-39.8,10.7c6.9-11.8,10.9-25.5,10.9-40.2c0-14.6-4-28.4-10.9-40.2c11.7,6.8,25.3,10.7,39.8,10.7
		c34.2,0,63.5-21.8,74.7-52.2 M776.2,399.6c10-3.7,19-9.3,26.6-16.3l0,0c1.5-1.4,3-2.9,4.4-4.4l0,0c7.1-7.6,12.7-16.7,16.3-26.7
		 M559.6,399.6c30.4-11.2,52.2-40.4,52.2-74.7c0-14.6-4-28.4-10.9-40.2c11.7,6.8,25.3,10.7,39.8,10.7c14.5,0,28.1-3.9,39.8-10.7
		c-6.9,11.8-10.9,25.5-10.9,40.2c0,34.2,21.8,63.5,52.2,74.7 M343,399.6c30.4-11.2,52.2-40.4,52.2-74.7c0-14.6-4-28.4-10.9-40.2
		c11.7,6.8,25.3,10.7,39.8,10.7c14.5,0,28.1-3.9,39.8-10.7c-6.9,11.8-10.9,25.5-10.9,40.2c0,34.2,21.8,63.5,52.2,74.7 M126.4,399.6
		c30.4-11.2,52.2-40.4,52.2-74.7c0-14.6-4-28.4-10.9-40.2c11.7,6.8,25.3,10.7,39.8,10.7c14.5,0,28.1-3.9,39.8-10.7
		c-6.9,11.8-10.9,25.5-10.9,40.2c0,34.2,21.8,63.5,52.2,74.7 M24.4,352.2c3.7,10,9.3,19,16.4,26.7l0,0c1.4,1.5,2.8,2.9,4.3,4.3l0,0
		c7.7,7.1,16.7,12.7,26.7,16.4 M24.4,134.4c11.2,30.4,40.4,52.2,74.7,52.2c14.5,0,28.1-3.9,39.8-10.7c-6.9,11.8-10.9,25.5-10.9,40.2
		c0,14.6,4,28.4,10.9,40.2c-11.7-6.8-25.3-10.7-39.8-10.7c-34.2,0-63.5,21.8-74.7,52.2 M71.8,32.4c-10,3.7-19,9.3-26.7,16.3l0,0
		c-1.5,1.4-3,2.8-4.4,4.4l0,0c-7.1,7.6-12.7,16.7-16.3,26.6 M572.1,175.8c-11.7,6.8-25.3,10.7-39.8,10.7s-28.1-3.9-39.8-10.7
		c6.9,11.8,10.9,25.5,10.9,40.2c0,14.6-4,28.4-10.9,40.2c11.7-6.8,25.3-10.7,39.8-10.7s28.1,3.9,39.8,10.7
		c-6.9-11.8-10.9-25.5-10.9-40.2C561.2,201.4,565.2,187.6,572.1,175.8z M355.5,175.8c-11.7,6.8-25.3,10.7-39.8,10.7
		c-14.5,0-28.1-3.9-39.8-10.7c6.9,11.8,10.9,25.5,10.9,40.2c0,14.6-4,28.4-10.9,40.2c11.7-6.8,25.3-10.7,39.8-10.7
		c14.5,0,28.1,3.9,39.8,10.7c-6.9-11.8-10.9-25.5-10.9-40.2C344.5,201.4,348.5,187.6,355.5,175.8z"/>
	<path class="st25" d="M823.6,368.9c-1.7,2.9-3.5,5.6-5.6,8.3 M801.2,38L801.2,38c-2.6-2-5.4-3.9-8.3-5.6 M823.6,63.1
		c-1.7-2.9-3.5-5.6-5.5-8.3h0 M823.6,151.1c-15.1,25.5-42.9,42.7-74.7,42.7c-8.9,0-17.5-1.4-25.7-3.9c2.6,8.2,4,17,4,26.1
		c0,9.1-1.4,17.9-4,26.1c8.1-2.5,16.7-3.9,25.7-3.9c31.8,0,59.6,17.2,74.7,42.7 M576.3,399.6c25.5-15.1,42.7-42.9,42.7-74.7
		c0-9.1-1.4-17.9-4-26.1c8.1,2.5,16.7,3.9,25.7,3.9s17.5-1.4,25.6-3.9c-2.6,8.2-4,17-4,26.1c0,31.7,17.1,59.6,42.7,74.7
		 M359.7,399.6c25.5-15.1,42.7-42.9,42.7-74.7c0-9.1-1.4-17.9-4-26.1c8.1,2.5,16.7,3.9,25.7,3.9c8.9,0,17.5-1.4,25.7-3.9
		c-2.6,8.2-4,17-4,26.1c0,31.8,17.1,59.6,42.7,74.7 M55.1,399.6c-2.9-1.7-5.6-3.5-8.3-5.5 M30,54.8c-2,2.6-3.9,5.4-5.5,8.3
		 M55.1,32.4c-2.9,1.7-5.6,3.6-8.3,5.6 M558,189.9c-8.1,2.5-16.7,3.9-25.7,3.9s-17.5-1.4-25.7-3.9c2.6,8.2,4,17,4,26.1
		c0,9.1-1.4,17.9-4,26.1c8.1-2.5,16.7-3.9,25.7-3.9s17.5,1.4,25.7,3.9c-2.6-8.2-4-17-4-26.1C554,206.9,555.4,198.1,558,189.9z
		 M341.3,189.9c-8.1,2.5-16.7,3.9-25.7,3.9s-17.5-1.4-25.7-3.9c2.6,8.2,4,17,4,26.1c0,9.1-1.4,17.9-4,26.1
		c8.1-2.5,16.7-3.9,25.7-3.9c8.9,0,17.5,1.4,25.7,3.9c-2.6-8.2-4-17-4-26.1C337.3,206.9,338.7,198.1,341.3,189.9z M24.4,151.1
		c15.1,25.5,42.9,42.7,74.7,42.7c8.9,0,17.6-1.4,25.7-3.9c-2.6,8.2-4,17-4,26.1c0,9.1,1.4,17.9,4,26.1c-8.1-2.5-16.7-3.9-25.7-3.9
		c-31.8,0-59.6,17.2-74.7,42.7 M30,377.2c-2-2.6-3.9-5.4-5.5-8.3 M143.1,399.6c25.5-15.1,42.7-42.9,42.7-74.7c0-9.1-1.4-17.9-4-26.1
		c8.1,2.5,16.7,3.9,25.7,3.9c8.9,0,17.5-1.4,25.7-3.9c-2.6,8.2-4,17-4,26.1c0,31.8,17.2,59.6,42.7,74.7 M576.3,32.4
		c25.5,15.1,42.7,42.9,42.7,74.7c0,9.1-1.4,17.9-4,26.1c8.1-2.5,16.7-3.9,25.7-3.9s17.5,1.4,25.6,3.9c-2.6-8.3-4-17-4-26.1
		c0-31.8,17.1-59.6,42.7-74.7 M359.7,32.4c25.5,15.1,42.7,42.9,42.7,74.7c0,9.1-1.4,17.9-4,26.1c8.1-2.5,16.7-3.9,25.7-3.9
		c8.9,0,17.5,1.4,25.7,3.9c-2.6-8.2-4-17-4-26.1c0-31.8,17.2-59.6,42.7-74.7"/>
	<path class="st25" d="M143.1,32.4c25.5,15.1,42.7,42.9,42.7,74.7c0,9.1-1.4,17.9-4,26.1c8.1-2.5,16.7-3.9,25.7-3.9
		c8.9,0,17.5,1.4,25.7,3.9c-2.6-8.3-4-17-4-26.1c0-31.8,17.2-59.6,42.7-74.7"/>
	<path class="st25" d="M801.2,394c-2.6,2-5.4,3.9-8.3,5.5"/>
</g>
</svg>
