<?xml version="1.0" encoding="UTF-8"?>
<!DOCTYPE svg PUBLIC "-//W3C//DTD SVG 1.1//EN" "http://www.w3.org/Graphics/SVG/1.1/DTD/svg11.dtd">
<!-- Creator: CorelDRAW X5 -->
<svg xmlns="http://www.w3.org/2000/svg" xml:space="preserve" width="0.850953in" height="1.00996in" style="shape-rendering:geometricPrecision; text-rendering:geometricPrecision; image-rendering:optimizeQuality; fill-rule:evenodd; clip-rule:evenodd"
viewBox="0 0 0.853607 1.01311"
 xmlns:xlink="http://www.w3.org/1999/xlink">
 <defs>
  <style type="text/css">
   <![CDATA[
    .str0 {stroke:blue;stroke-width:0.00300936;stroke-linecap:round;stroke-linejoin:round}
    .fil1 {fill:none}
    .fil0 {fill:black;fill-rule:nonzero}
   ]]>
  </style>
 </defs>
 <g id="Layer_x0020_1">
  <metadata id="CorelCorpID_0Corel-Layer"/>
  <g id="_899242472">
   <path id="_896156040" class="fil0" d="M0.689909 0.252359c-0.00588049,0 -0.0104696,-0.00221555 -0.0137475,-0.00662295 -0.00327791,-0.0044232 -0.00490896,-0.00987322 -0.00490896,-0.0163619 0,-0.00644918 0.00174164,-0.0118439 0.00522096,-0.0161763 0.00348722,-0.00434027 0.00808419,-0.00651237 0.0137909,-0.00651237 0.00575806,0 0.0102997,0.00217211 0.0136448,0.00651237 0.00334899,0.00433237 0.00501954,0.00975869 0.00501954,0.016275 0,0.00683227 -0.00173769,0.0123613 -0.00520516,0.0165712 -0.00347932,0.00420994 -0.00807629,0.00631491 -0.0138146,0.00631491zm6.71379e-005 -0.00643734c0.00287903,0 0.00530389,-0.00118479 0.00729828,-0.00356621 0.00199439,-0.00238142 0.00299356,-0.00669009 0.00299356,-0.0129497 0,-0.00508668 -0.000833299,-0.00907151 -0.00247225,-0.0119545 -0.00163895,-0.00289088 -0.00419809,-0.00432842 -0.00765372,-0.00432842 -0.00684806,0 -0.0102602,0.00550531 -0.0102602,0.0165159 0,0.00533944 0.000864894,0.0093914 0.00261443,0.012152 0.00174164,0.0027566 0.00423364,0.00413095 0.00747995,0.00413095zm0.0598396 0.00575016l-0.00775245 0 -0.0168161 -0.0283045c-0.000256704,-0.000430472 -0.000675328,-0.0011295 -0.00126377,-0.00210497 -0.000252754,-0.000430472 -0.00066348,-0.00111765 -0.00119663,-0.00204968l0 0.0324592 -0.00643734 0 0 -0.0442991 0.0088306 0 0.0155207 0.026089c0.000122428,0.00022116 0.00106236,0.00181667 0.00282374,0.00477469l0 -0.0308637 0.00629121 0 0 0.0442991z"/>
   <path id="_895922960" class="fil0" d="M0.0626594 0.251672l-0.00822241 0 0 -0.0442991 0.0280162 0 0 0.00684411 -0.0197938 0 0 0.0121085 0.015576 0 0 0.00664665 -0.015576 0 0 0.0186999zm0.0405987 0.000687176c-0.00588049,0 -0.0104696,-0.00221555 -0.0137475,-0.00662295 -0.00327791,-0.0044232 -0.00490896,-0.00987322 -0.00490896,-0.0163619 0,-0.00644918 0.00174164,-0.0118439 0.00522096,-0.0161763 0.00348722,-0.00434027 0.00808419,-0.00651237 0.0137909,-0.00651237 0.00575806,0 0.0102997,0.00217211 0.0136448,0.00651237 0.00334899,0.00433237 0.00501954,0.00975869 0.00501954,0.016275 0,0.00683227 -0.00173769,0.0123613 -0.00520516,0.0165712 -0.00347932,0.00420994 -0.00807629,0.00631491 -0.0138146,0.00631491zm6.71379e-005 -0.00643734c0.00287903,0 0.00530389,-0.00118479 0.00729828,-0.00356621 0.00199439,-0.00238142 0.00299356,-0.00669009 0.00299356,-0.0129497 0,-0.00508668 -0.000833299,-0.00907151 -0.00247225,-0.0119545 -0.00163895,-0.00289088 -0.00419809,-0.00432842 -0.00765372,-0.00432842 -0.00684806,0 -0.0102602,0.00550531 -0.0102602,0.0165159 0,0.00533944 0.000864894,0.0093914 0.00261443,0.012152 0.00174164,0.0027566 0.00423364,0.00413095 0.00747995,0.00413095zm0.0609138 0.00575016l-0.00843963 0 -0.00687966 -0.0182102 -0.0112318 0 0 0.0182102 -0.00798941 0 0 -0.0442991 0.0192212 0c0.00533944,0 0.00927292,0.00120848 0.0117768,0.0036215 0.0025157,0.00240512 0.00376367,0.005529 0.00376367,0.00935981 0,0.00569487 -0.00265787,0.00960466 -0.00798546,0.0117452l0.0077643 0.0195727zm-0.0265511 -0.0246041l0.0099364 0c0.00286718,0 0.00501954,-0.000596342 0.00642549,-0.00181667 0.00140595,-0.00120848 0.00210497,-0.00287903 0.00210497,-0.00499585 0,-0.00195095 -0.000687176,-0.00352276 -0.00207338,-0.0047194 -0.00138225,-0.00120848 -0.00332135,-0.00180482 -0.00581335,-0.00180482l-0.0105801 0 0 0.0133367zm0.067825 0.00195095l0 0.0226531 -0.00354251 0 -0.00242881 -0.00597132c-0.00257888,0.0044311 -0.00656766,0.0066585 -0.0119742,0.0066585 -0.00603451,0 -0.0105446,-0.00230638 -0.0135263,-0.0068915 -0.00296591,-0.00458512 -0.00446269,-0.00989296 -0.00446269,-0.0159275 0,-0.00638205 0.00166265,-0.0117886 0.004984,-0.0162079 0.0033253,-0.0044311 0.00796571,-0.00664665 0.013937,-0.00664665 0.00446269,0 0.00813158,0.00129537 0.0110106,0.0038861 0.00287113,0.00258283 0.0046878,0.0057936 0.00545002,0.00965206l-0.00694679 0.00122823c-0.00129537,-0.00540657 -0.0044074,-0.00810789 -0.00931637,-0.00810789 -0.00313178,0 -0.00569092,0.00127167 -0.00767346,0.00383081 -0.00198649,0.00254729 -0.00296986,0.00648078 -0.00296986,0.0117768 0,0.0111883 0.00351092,0.0167845 0.010513,0.0167845 0.00272501,0 0.004984,-0.000943879 0.00676908,-0.00282769 0.00178113,-0.00188381 0.00267762,-0.00437581 0.00267762,-0.00746415l-0.0091505 0 0 -0.00642549 0.0166502 0zm0.037846 0.0226531l-0.0287942 0 0 -0.0442991 0.0285059 0 0 0.00659136 -0.0205165 0 0 0.0120058 0.0164843 0 0 0.00642549 -0.0164843 0 0 0.0123968 0.0208048 0 0 0.00687966z"/>
   <path id="_896143080" class="fil1 str0" d="M0.536159 0.298013l0.315943 0 0 -0.119592c0,-0.011994 -0.00545791,-0.0233482 -0.0148256,-0.03084 -0.118131,-0.094538 -0.265171,-0.146076 -0.416519,-0.146076 -0.145816,0 -0.287642,0.0477903 -0.403661,0.136045 -0.00982977,0.00747995 -0.0155918,0.0191066 -0.0155918,0.0314363 0,4.73914e-005 0,0.000106631 0,0.000154022l0 0.128873 0.315943 0"/>
   <path id="_896143608" class="fil1 str0" d="M0.307041 0.229181c0.00607795,0.0224517 0.00957307,0.0455432 0.0104064,0.0688321 -0.000971524,0.04875 -0.00219185,0.0987282 -0.00219185,0.148098 0,0.04937 0.00122033,0.0993404 0.00243671,0.148102 0.0066348,0.134793 0.0179811,0.275459 0.0304569,0.410457"/>
   <path id="_895921232" class="fil1 str0" d="M0.30244 0.184641c-0.0124442,-3.94929e-006 -0.0225386,0.0100904 -0.0225386,0.0225386 0,0 0,0 0,0 0,0.0124482 0.0100944,0.0225425 0.0225425,0.0225425 0.0124482,0 0.0225425,-0.0100944 0.0225425,-0.0225425 0,0 0,0 0,0 0,-0.0124482 -0.0100944,-0.0225425 -0.0225425,-0.0225425"/>
   <path id="_895923008" class="fil1 str0" d="M0.425168 0.133162c-0.00626752,0 -0.0113463,0.188211 -0.0113463,0.420382 0,0.232171 0.00507878,0.420382 0.0113463,0.420382 0.00626752,0 0.0113463,-0.188211 0.0113463,-0.420382 0,-0.232171 -0.00507878,-0.420382 -0.0113463,-0.420382"/>
   <path id="_899237384" class="fil1 str0" d="M0.549263 0.18382c0,0 0,0 0,0 -0.0124482,0 -0.0225425,0.0100944 -0.0225425,0.0225425 0,0.0124482 0.0100944,0.0225425 0.0225425,0.0225425 0,0 0,0 0,0 0.0124482,0 0.0225425,-0.0100944 0.0225425,-0.0225425 0,-0.0124482 -0.0100944,-0.0225425 -0.0225425,-0.0225425"/>
   <path id="_895924016" class="fil1 str0" d="M0.546696 0.228707c-0.00616089,0.0226057 -0.00969945,0.0458631 -0.0105367,0.069306 0.000975474,0.04875 0.0021958,0.0987282 0.0021958,0.148098 0,0.04937 -0.00122033,0.0993404 -0.00243671,0.148102 -0.0066348,0.134793 -0.0179811,0.275459 -0.0304569,0.410457"/>
   <path id="_895919120" class="fil1 str0" d="M0.347818 1.00478c0.0260061,0.00447059 0.0525532,0.00682832 0.0789857,0.00682832 0.0264365,0 0.0529836,-0.00235772 0.0789699,-0.00684806"/>
   <path id="_895917992" class="fil0" d="M0.234832 0.144291l-0.0127641 0.00490106 -0.0253031 -0.0259863 -0.00624777 0.0203704 0.00593183 0.0154496 -0.0114213 0.00438371 -0.0234588 -0.0611113 0.0114213 -0.00438371 0.0123257 0.0321037c0.000616089,-0.0027408 0.0010821,-0.00465621 0.00141384,-0.00573041l0.0104498 -0.0356621 0.0115477 -0.0044311 -0.00731803 0.0258678 0.0334228 0.0342285zm0.0506891 -0.0167292l-0.0419414 0.013625 -0.0202282 -0.0622566 0.0415228 -0.0134908 0.00300936 0.00926503 -0.0298882 0.0097113 0.00548161 0.0168714 0.0240117 -0.00779984 0.00293827 0.00902807 -0.0240117 0.00780379 0.00565538 0.0174203 0.0303068 -0.00984557 0.00314363 0.00966785zm0.0525729 -0.013238l-0.0427866 0.010671 -0.0158327 -0.0635164 0.04236 -0.0105604 0.00235772 0.00945064 -0.0304924 0.00760238 0.00428893 0.0172149 0.0245014 -0.00610955 0.00229454 0.00921369 -0.0244974 0.0061056 0.0044311 0.0177757 0.030915 -0.00770901 0.00246041 0.00986137zm0.0220765 -0.00500375l-0.0121125 0.00170214 -0.009111 -0.0648196 0.0275186 -0.0038703c0.00785118,-0.00110185 0.0139331,-3.94929e-006 0.0182694,0.00327396 0.00430867,0.00327791 0.00684411,0.00751549 0.00757473,0.0127009 0.000833299,0.00593183 -0.000541052,0.0110185 -0.004127,0.01526 -0.00358595,0.00425338 -0.00853441,0.00682042 -0.0148375,0.00770506l-0.0167845 0.00235772 0.00360965 0.0256901zm-0.00501954 -0.0357094l0.014332 -0.00201414c0.00373208,-0.000525255 0.00646498,-0.00181667 0.00818292,-0.00385845 0.00172979,-0.00206153 0.00237352,-0.00454958 0.00195885,-0.0074997 -0.000371233,-0.00265787 -0.00159946,-0.00480233 -0.00368073,-0.00645708 -0.00210102,-0.00163895 -0.0055211,-0.00211682 -0.01028,-0.00144939l-0.013238 0.00186406 0.00272501 0.0194147zm0.119802 0.0115991l0.0111054 0.00258283c-0.00152442,0.00640969 -0.00479048,0.011449 -0.00980608,0.0150902 -0.00499585,0.00365704 -0.0111488,0.00504324 -0.018459,0.00414675 -0.00614114,-0.000754314 -0.0109435,-0.00285928 -0.0144188,-0.00632281 -0.00347537,-0.00343983 -0.00592393,-0.00784723 -0.00736937,-0.0132222 -0.00144544,-0.00535523 -0.00178113,-0.0111212 -0.00102287,-0.0172742 0.00121243,-0.00989691 0.00462856,-0.0176573 0.0102563,-0.0232692 0.00563168,-0.00560404 0.0127128,-0.00788278 0.0212314,-0.00683621 0.00667429,0.000817502 0.0119861,0.00349512 0.0159472,0.00800915 0.00394534,0.00450614 0.00604241,0.0105169 0.00629911,0.0180522l-0.0113937 -0.000229059c-0.000868843,-0.0100667 -0.00484972,-0.0155167 -0.0119229,-0.0163856 -0.00453378,-0.0005529 -0.0083172,0.00104261 -0.0113305,0.00481023 -0.00300146,0.00376762 -0.0049919,0.00952963 -0.00594368,0.0172623 -0.000967575,0.00787883 -0.000351486,0.0139765 0.00185616,0.0183168 0.00219975,0.00436001 0.0055211,0.00679672 0.009968,0.00734172 0.00355436,0.000438371 0.00673353,-0.000541052 0.00957702,-0.00293037 0.00281979,-0.00238932 0.00462856,-0.00543422 0.00542632,-0.0091426zm0.0687768 0.0385411l-0.0127286 -0.00293827 -0.00178508 -0.0164053 -0.0254334 -0.00587259 -0.00867658 0.0139923 -0.0101655 -0.00234983 0.0366652 -0.058714 0.0146598 0.00338454 0.00746415 0.0689032zm-0.0155799 -0.02928l-0.0030686 -0.0306781 -0.0162118 0.0262272 0.0192804 0.00445085zm0.0636151 0.0455669l-0.039718 -0.0129063 0.0202322 -0.0622566 0.0122428 0.00398088 -0.0169227 0.0520911 0.0274673 0.00892539 -0.0033016 0.0101655zm0.0699972 0.0270289l-0.0116425 -0.00446664 0.0205363 -0.053497 -0.0380751 0.0467635 -0.00598712 -0.00229848 0.00289088 -0.0602701 -0.0205363 0.053497 -0.00933216 -0.003582 0.0234588 -0.0611113 0.0178705 0.00685991 -0.00183247 0.0444453 0.0281584 -0.034339 0.0179495 0.00688756 -0.0234588 0.0611113z"/>
   <path id="_895918184" class="fil1" d="M0.178397 0.167288c0,0 0.145168,-0.0650487 0.24698,-0.0635124 0.101813,0.00153232 0.248568,0.0695114 0.248568,0.0695114"/>
   <path id="_895918952" class="fil0" d="M0.342822 0.350598l0.00838434 -0.00114529c0.000209312,0.00535918 0.00122428,0.00903597 0.00300541,0.0110146 0.00179693,0.00197859 0.00426523,0.00295802 0.00742071,0.00295802 0.00233403,0 0.00434422,-0.000521306 0.00603056,-0.00159946 0.00169819,-0.00106236 0.00285928,-0.00251964 0.00349512,-0.00434816 0.000639784,-0.00184827 0.000963626,-0.00477074 0.000963626,-0.00879111l0 -0.048359 0.00928477 0 0 0.0478338c0,0.00586864 -0.000702973,0.0104261 -0.00212472,0.0136448 -0.00142174,0.00322262 -0.00367679,0.00567118 -0.00674933,0.00737332 -0.00308834,0.0016824 -0.00670194,0.00253149 -0.0108526,0.00253149 -0.00616089,0 -0.0108684,-0.00176533 -0.0141503,-0.00531179 -0.00327001,-0.00354646 -0.00483788,-0.00880691 -0.00470755,-0.0158011z"/>
   <path id="_895921208" class="fil0" d="M0.464527 0.346732l0.00838434 -0.00114529c0.000209312,0.00535918 0.00122428,0.00903597 0.00300541,0.0110146 0.00179693,0.00197859 0.00426523,0.00295802 0.00742071,0.00295802 0.00233403,0 0.00434422,-0.000521306 0.00603056,-0.00159946 0.00169819,-0.00106236 0.00285928,-0.00251964 0.00349512,-0.00434816 0.000639784,-0.00184827 0.000963626,-0.00477074 0.000963626,-0.00879111l0 -0.048359 0.00928477 0 0 0.0478338c0,0.00586864 -0.000702973,0.0104261 -0.00212472,0.0136448 -0.00142174,0.00322262 -0.00367679,0.00567118 -0.00674933,0.00737332 -0.00308834,0.0016824 -0.00670194,0.00253149 -0.0108526,0.00253149 -0.00616089,0 -0.0108684,-0.00176533 -0.0141503,-0.00531179 -0.00327001,-0.00354646 -0.00483788,-0.00880691 -0.00470755,-0.0158011z"/>
  </g>
 </g>
</svg>
