<?xml version="1.0" encoding="utf-8"?>
<!-- Generator: Adobe Illustrator 23.0.1, SVG Export Plug-In . SVG Version: 6.00 Build 0)  -->
<svg version="1.1" id="Layer_1" xmlns="http://www.w3.org/2000/svg" xmlns:xlink="http://www.w3.org/1999/xlink" x="0px" y="0px"
	 width="61.269px" height="72.717px" viewBox="0 0 61.269 72.717" enable-background="new 0 0 61.269 72.717" xml:space="preserve">
<g id="Layer_x0020_1">
	<g id="_899242472">
		<path id="_896143080" fill="none" stroke="#0000FF" stroke-miterlimit="10" d="M38.483,21.39h22.677v-8.584
			c0-0.861-0.392-1.676-1.064-2.214C51.617,3.807,41.064,0.108,30.2,0.108c-10.466,0-20.646,3.43-28.973,9.765
			c-0.706,0.537-1.119,1.371-1.119,2.256c0,0.003,0,0.008,0,0.011v9.25h22.677"/>
		<path id="_896143608" fill="none" stroke="#0000FF" stroke-miterlimit="10" d="M22.038,16.45c0.436,1.611,0.687,3.269,0.747,4.941
			c-0.07,3.499-0.157,7.086-0.157,10.63c0,3.544,0.088,7.13,0.175,10.63c0.476,9.675,1.291,19.771,2.186,29.461"/>
		<path id="_895921232" fill="none" stroke="#0000FF" stroke-miterlimit="10" d="M21.708,13.253c-0.893,0-1.618,0.724-1.618,1.618
			l0,0c0,0.893,0.725,1.618,1.618,1.618c0.893,0,1.618-0.725,1.618-1.618l0,0C23.326,13.977,22.602,13.253,21.708,13.253"/>
		<path id="_895923008" fill="none" stroke="#0000FF" stroke-miterlimit="10" d="M30.517,9.558c-0.45,0-0.814,13.509-0.814,30.173
			s0.365,30.173,0.814,30.173c0.45,0,0.814-13.509,0.814-30.173S30.967,9.558,30.517,9.558"/>
		<path id="_899237384" fill="none" stroke="#0000FF" stroke-miterlimit="10" d="M39.424,13.194L39.424,13.194
			c-0.893,0-1.618,0.725-1.618,1.618c0,0.893,0.725,1.618,1.618,1.618l0,0c0.893,0,1.618-0.725,1.618-1.618
			C41.042,13.918,40.317,13.194,39.424,13.194"/>
		<path id="_895924016" fill="none" stroke="#0000FF" stroke-miterlimit="10" d="M39.24,16.416
			c-0.442,1.623-0.696,3.292-0.756,4.975c0.07,3.499,0.158,7.086,0.158,10.63c0,3.544-0.088,7.13-0.175,10.63
			c-0.476,9.675-1.291,19.771-2.186,29.461"/>
		<path id="_895919120" fill="none" stroke="#0000FF" stroke-miterlimit="10" d="M24.965,72.119c1.867,0.321,3.772,0.49,5.669,0.49
			c1.898,0,3.803-0.169,5.668-0.492"/>
	</g>
</g>
</svg>
