<?xml version="1.0" encoding="utf-8"?>
<!-- Generator: Adobe Illustrator 23.0.1, SVG Export Plug-In . SVG Version: 6.00 Build 0)  -->
<svg version="1.1" xmlns="http://www.w3.org/2000/svg" xmlns:xlink="http://www.w3.org/1999/xlink" x="0px" y="0px" width="1116px"
	 height="576px" viewBox="0 0 1116 576" style="enable-background:new 0 0 1116 576;" xml:space="preserve">
<style type="text/css">
	.st0{fill:#BCBEC0;}
	.st1{fill:#EC008C;}
	.st2{fill:#010101;}
</style>
<g id="Layer_9">
	<path class="st0" d="M0,531c0,24.8,20.2,45,45,45h1026c24.8,0,45-20.2,45-45V45c0-24.8-20.2-45-45-45H45C20.2,0,0,20.2,0,45V531z"
		/>
	<circle class="st1" cx="45" cy="45" r="8.9"/>
	<circle class="st1" cx="45" cy="531" r="8.9"/>
	<circle class="st1" cx="1071" cy="531" r="8.9"/>
	<circle class="st1" cx="1071" cy="45" r="8.9"/>
</g>
<g id="Probability_table">
	<path class="st2" d="M193.8,153.1h1.7c1.7,0,2.1,0.9,2.1,2.4v3.1c0,1.2-0.2,2.6-2.1,2.6h-1.7V153.1z M195,160h0.4
		c0.8,0,0.9-0.5,0.9-1.4v-3.3c0-0.7-0.1-1.2-0.9-1.2H195V160z"/>
	<path class="st2" d="M200.4,153.1v8h-1.2v-8H200.4z"/>
	<path class="st2" d="M205.5,158.7v0.3c0,0.9-0.2,2.2-1.8,2.2c-1.5,0-1.8-0.9-1.8-2.1v-4c0-1.2,0.6-2.1,1.8-2.1c1.5,0,1.8,1,1.8,2.1
		v0.4h-1.2v-0.5c0-0.5-0.1-0.8-0.6-0.8c-0.4,0-0.6,0.3-0.6,0.8v4.2c0,0.5,0.1,0.9,0.6,0.9c0.4,0,0.6-0.4,0.6-0.9v-0.4H205.5z"/>
	<path class="st2" d="M209.8,157.4H208v2.5h2l-0.2,1.1h-3.1v-8h3.1v1.1H208v2.1h1.8V157.4z"/>
	<g>
		<path class="st2" d="M262.8,161.1h-1c0-0.1-0.1-0.4-0.1-0.6c-0.2,0.5-0.7,0.7-1.2,0.7c-1.2,0-1.5-0.9-1.5-2.2v-3.8
			c0-1.3,0.5-2.3,1.9-2.3c1.7,0,1.8,1.2,1.8,2.1v0.3h-1.2V155c0-0.4-0.1-0.9-0.6-0.9c-0.4,0-0.6,0.3-0.6,1v4.1c0,0.6,0.2,1,0.6,1
			c0.5,0,0.7-0.4,0.7-1.3v-1.2h-0.7v-1.1h1.9V161.1z"/>
		<path class="st2" d="M264.4,153.1h1.2v6.9h2l-0.1,1.1h-3.1V153.1z"/>
		<path class="st2" d="M270.1,158.9l-0.3,2.1h-1.2l1.3-8h1.7l1.3,8h-1.3l-0.3-2.1H270.1z M271.2,157.8c-0.2-1.4-0.4-2.7-0.4-3.6h0
			c0,0.7-0.3,2.4-0.4,3.6H271.2z"/>
		<path class="st2" d="M274.1,161.1v-8h1.4c0.3,1.1,1.3,5.1,1.4,5.5h0c-0.1-1-0.1-2.1-0.1-3.4v-2.1h1.1v8h-1.4
			c-0.3-1-1.3-5.4-1.4-5.7h0c0.1,1,0.1,2.1,0.1,3.5v2.2H274.1z"/>
		<path class="st2" d="M283.1,158.7v0.3c0,0.9-0.2,2.2-1.8,2.2c-1.5,0-1.8-0.9-1.8-2.1v-4c0-1.2,0.6-2.1,1.8-2.1
			c1.5,0,1.8,1,1.8,2.1v0.4h-1.2v-0.5c0-0.5-0.1-0.8-0.6-0.8c-0.4,0-0.6,0.3-0.6,0.8v4.2c0,0.5,0.1,0.9,0.6,0.9
			c0.4,0,0.6-0.4,0.6-0.9v-0.4H283.1z"/>
		<path class="st2" d="M287.4,157.4h-1.8v2.5h2l-0.2,1.1h-3.1v-8h3.1v1.1h-1.8v2.1h1.8V157.4z"/>
	</g>
	<g>
		<path class="st2" d="M335.1,158.7v0.5c0,0.6,0.2,0.9,0.6,0.9c0.5,0,0.6-0.5,0.6-1c0-0.9-0.2-1.1-1-1.8c-0.9-0.7-1.3-1.1-1.3-2.3
			c0-1.1,0.3-2.1,1.8-2.1c1.5,0,1.7,1.1,1.7,1.9v0.4h-1.2v-0.4c0-0.6-0.1-0.9-0.5-0.9c-0.4,0-0.5,0.3-0.5,0.9c0,0.6,0.1,0.8,0.8,1.4
			c1.2,0.9,1.6,1.4,1.6,2.7c0,1.1-0.4,2.2-1.9,2.2c-1.5,0-1.8-0.9-1.8-2v-0.5H335.1z"/>
		<path class="st2" d="M342.8,155.2v3.7c0,1.5-0.6,2.3-2,2.3c-1.3,0-1.9-0.7-1.9-2.2v-3.8c0-1.5,0.8-2.2,2-2.2
			C342.1,152.9,342.8,153.6,342.8,155.2z M340.2,155.1v4c0,0.7,0.2,1,0.7,1c0.5,0,0.7-0.3,0.7-1v-4c0-0.6-0.2-1-0.7-1
			C340.4,154.1,340.2,154.4,340.2,155.1z"/>
		<path class="st2" d="M344.3,153.1h1.2v6.9h2l-0.1,1.1h-3.1V153.1z"/>
		<path class="st2" d="M349.9,153.1v8h-1.2v-8H349.9z"/>
		<path class="st2" d="M351.5,153.1h1.7c1.7,0,2.1,0.9,2.1,2.4v3.1c0,1.2-0.2,2.6-2.1,2.6h-1.7V153.1z M352.8,160h0.4
			c0.8,0,0.9-0.5,0.9-1.4v-3.3c0-0.7-0.1-1.2-0.9-1.2h-0.4V160z"/>
	</g>
	<g>
		<path class="st2" d="M411.9,158.7v0.3c0,0.9-0.2,2.2-1.8,2.2c-1.5,0-1.8-0.9-1.8-2.1v-4c0-1.2,0.6-2.1,1.8-2.1
			c1.5,0,1.8,1,1.8,2.1v0.4h-1.2v-0.5c0-0.5-0.1-0.8-0.6-0.8c-0.4,0-0.6,0.3-0.6,0.8v4.2c0,0.5,0.1,0.9,0.6,0.9
			c0.4,0,0.6-0.4,0.6-0.9v-0.4H411.9z"/>
		<path class="st2" d="M414.5,157.5v3.6h-1.2v-8h1.7c1.2,0,1.9,0.5,1.9,1.9v0.3c0,1.2-0.5,1.5-0.8,1.7c0.5,0.2,0.7,0.6,0.7,1.6
			c0,0.7,0,2,0.1,2.5h-1.2c-0.1-0.5-0.1-1.8-0.1-2.4c0-1-0.1-1.2-0.8-1.2H414.5z M414.5,156.5h0.3c0.6,0,0.9-0.2,0.9-1.1v-0.3
			c0-0.6-0.1-1-0.8-1h-0.3V156.5z"/>
		<path class="st2" d="M419.6,153.1v8h-1.2v-8H419.6z"/>
		<path class="st2" d="M422,154.2h-1.3v-1.1h3.8v1.1h-1.3v6.9H422V154.2z"/>
	</g>
	<path class="st2" d="M477.3,158.7v0.3c0,0.9-0.2,2.2-1.8,2.2c-1.5,0-1.8-0.9-1.8-2.1v-4c0-1.2,0.6-2.1,1.8-2.1c1.5,0,1.8,1,1.8,2.1
		v0.4H476v-0.5c0-0.5-0.1-0.8-0.6-0.8c-0.4,0-0.6,0.3-0.6,0.8v4.2c0,0.5,0.1,0.9,0.6,0.9c0.4,0,0.6-0.4,0.6-0.9v-0.4H477.3z"/>
	<path class="st2" d="M479.8,157.5v3.6h-1.2v-8h1.7c1.2,0,1.9,0.5,1.9,1.9v0.3c0,1.2-0.5,1.5-0.8,1.7c0.5,0.2,0.7,0.6,0.7,1.6
		c0,0.7,0,2,0.1,2.5H481c-0.1-0.5-0.1-1.8-0.1-2.4c0-1-0.1-1.2-0.8-1.2H479.8z M479.8,156.5h0.3c0.6,0,0.9-0.2,0.9-1.1v-0.3
		c0-0.6-0.1-1-0.8-1h-0.3V156.5z"/>
	<path class="st2" d="M484.9,153.1v8h-1.2v-8H484.9z"/>
	<path class="st2" d="M487.4,154.2h-1.3v-1.1h3.8v1.1h-1.3v6.9h-1.2V154.2z"/>
	<path class="st2" d="M494.4,157.5v3.6h-1.2v-8h1.7c1.2,0,1.9,0.5,1.9,1.9v0.3c0,1.2-0.5,1.5-0.8,1.7c0.5,0.2,0.7,0.6,0.7,1.6
		c0,0.7,0,2,0.1,2.5h-1.2c-0.1-0.5-0.1-1.8-0.1-2.4c0-1-0.1-1.2-0.8-1.2H494.4z M494.4,156.5h0.3c0.6,0,0.9-0.2,0.9-1.1v-0.3
		c0-0.6-0.1-1-0.8-1h-0.3V156.5z"/>
	<path class="st2" d="M499.5,157.5v3.6h-1.2v-8h1.7c1.2,0,1.9,0.5,1.9,1.9v0.3c0,1.2-0.5,1.5-0.8,1.7c0.5,0.2,0.7,0.6,0.7,1.6
		c0,0.7,0,2,0.1,2.5h-1.2c-0.1-0.5-0.1-1.8-0.1-2.4c0-1-0.1-1.2-0.8-1.2H499.5z M499.5,156.5h0.3c0.6,0,0.9-0.2,0.9-1.1v-0.3
		c0-0.6-0.1-1-0.8-1h-0.3V156.5z"/>
	<g>
		<path class="st2" d="M556.5,161.1v-6.6c-0.2,0-0.5,0-0.8,0v-0.9c0.5,0,0.9-0.3,1.1-0.5h0.9v8.1H556.5z"/>
		<path class="st2" d="M560.3,158.7v0.5c0,0.6,0.2,0.9,0.6,0.9c0.5,0,0.6-0.5,0.6-1c0-0.9-0.2-1.1-1-1.8c-0.9-0.7-1.3-1.1-1.3-2.3
			c0-1.1,0.3-2.1,1.8-2.1c1.5,0,1.7,1.1,1.7,1.9v0.4h-1.2v-0.4c0-0.6-0.1-0.9-0.5-0.9c-0.4,0-0.5,0.3-0.5,0.9c0,0.6,0.1,0.8,0.8,1.4
			c1.2,0.9,1.6,1.4,1.6,2.7c0,1.1-0.4,2.2-1.9,2.2c-1.5,0-1.8-0.9-1.8-2v-0.5H560.3z"/>
	</g>
	<g>
		<path class="st2" d="M626.6,161.1V161c0-1.6,0.5-2.3,1.4-3.7c0.7-1,0.9-1.4,0.9-2.2c0-0.7-0.1-1.1-0.5-1.1c-0.4,0-0.6,0.3-0.6,0.9
			v0.4h-1.2v-0.4c0-0.9,0.3-1.9,1.8-1.9c1.4,0,1.7,0.9,1.7,2c0,1.3-0.3,1.7-1,2.8c-0.5,0.8-1,1.5-1.1,2.2h2.3l-0.2,1.1H626.6z"/>
		<path class="st2" d="M632.4,158.7v0.5c0,0.6,0.2,0.9,0.6,0.9c0.5,0,0.6-0.5,0.6-1c0-0.9-0.2-1.1-1-1.8c-0.9-0.7-1.3-1.1-1.3-2.3
			c0-1.1,0.3-2.1,1.8-2.1c1.5,0,1.7,1.1,1.7,1.9v0.4h-1.2v-0.4c0-0.6-0.1-0.9-0.5-0.9c-0.4,0-0.5,0.3-0.5,0.9c0,0.6,0.1,0.8,0.8,1.4
			c1.2,0.9,1.6,1.4,1.6,2.7c0,1.1-0.4,2.2-1.9,2.2c-1.5,0-1.8-0.9-1.8-2v-0.5H632.4z"/>
	</g>
	<path class="st2" d="M697.6,159.2c0,1.1-0.1,1.9-1.6,1.9c-0.2,0-0.4,0-0.6-0.1v-1.1c0.1,0,0.2,0,0.4,0c0.4,0,0.6-0.1,0.6-0.7v-6.3
		h1.2V159.2z"/>
	<path class="st2" d="M702.1,155.6v2h1.9v0.9h-1.9v2h-0.9v-2h-1.9v-0.9h1.9v-2H702.1z"/>
	<path class="st2" d="M706.4,158.7v0.5c0,0.6,0.2,0.9,0.6,0.9c0.5,0,0.6-0.5,0.6-1c0-0.9-0.2-1.1-1-1.8c-0.9-0.7-1.3-1.1-1.3-2.3
		c0-1.1,0.3-2.1,1.8-2.1c1.5,0,1.7,1.1,1.7,1.9v0.4h-1.2v-0.4c0-0.6-0.1-0.9-0.5-0.9c-0.4,0-0.5,0.3-0.5,0.9c0,0.6,0.1,0.8,0.8,1.4
		c1.2,0.9,1.6,1.4,1.6,2.7c0,1.1-0.4,2.2-1.9,2.2c-1.5,0-1.8-0.9-1.8-2v-0.5H706.4z"/>
	<path class="st2" d="M774.7,159.2c0,1.1-0.1,1.9-1.6,1.9c-0.2,0-0.4,0-0.6-0.1v-1.1c0.1,0,0.2,0,0.4,0c0.4,0,0.6-0.1,0.6-0.7v-6.3
		h1.2V159.2z"/>
	<path class="st2" d="M841.9,161.1V161c0-1.6,0.5-2.3,1.4-3.7c0.7-1,0.9-1.4,0.9-2.2c0-0.7-0.1-1.1-0.5-1.1c-0.4,0-0.6,0.3-0.6,0.9
		v0.4h-1.2v-0.4c0-0.9,0.3-1.9,1.8-1.9c1.4,0,1.7,0.9,1.7,2c0,1.3-0.3,1.7-1,2.8c-0.5,0.8-1,1.5-1.1,2.2h2.3l-0.2,1.1H841.9z"/>
	<path class="st2" d="M848.5,159.2c0,1.1-0.1,1.9-1.6,1.9c-0.2,0-0.4,0-0.6-0.1v-1.1c0.1,0,0.2,0,0.4,0c0.4,0,0.6-0.1,0.6-0.7v-6.3
		h1.2V159.2z"/>
	<path class="st2" d="M913.4,155.2V155c0-1.1,0.4-2,1.8-2c1.1,0,1.7,0.6,1.7,1.9v0.3c0,0.9-0.3,1.3-0.7,1.5v0
		c0.6,0.2,0.9,0.7,0.9,1.7v0.7c0,1.2-0.5,2.1-1.9,2.1c-1.3,0-1.8-0.6-1.8-2v-0.3h1.1v0.4c0,0.5,0.2,0.9,0.7,0.9c0.5,0,0.7-0.3,0.7-1
		v-0.8c0-0.7-0.2-1-0.9-1h-0.3v-1.1h0.3c0.6,0,0.7-0.2,0.7-0.9v-0.5c0-0.5-0.1-0.8-0.5-0.8c-0.4,0-0.6,0.3-0.6,0.9v0.3H913.4z"/>
	<path class="st2" d="M920.2,159.2c0,1.1-0.1,1.9-1.6,1.9c-0.2,0-0.4,0-0.6-0.1v-1.1c0.1,0,0.2,0,0.4,0c0.4,0,0.6-0.1,0.6-0.7v-6.3
		h1.2V159.2z"/>
	<path class="st2" d="M201.5,187.1v-6.8c-0.2,0.1-0.7,0.2-0.9,0.2v-0.7c0.4-0.1,0.9-0.4,1.1-0.6h0.6v7.8H201.5z"/>
	<path class="st2" d="M269.1,180h-1.9c0,0.7-0.1,1.7-0.2,2.3c0.2-0.3,0.5-0.5,1-0.5c1,0,1.4,0.8,1.4,2.1v0.9c0,1.3-0.3,2.3-1.7,2.3
		c-1.3,0-1.6-0.9-1.6-1.9v-0.1h0.8v0.2c0,0.5,0.2,1.1,0.8,1.1c0.7,0,0.8-0.6,0.8-1.4v-1c0-0.9-0.1-1.4-0.8-1.4
		c-0.5,0-0.7,0.3-0.8,0.9l-0.8-0.1c0.1-1.1,0.3-3.3,0.3-4.1h2.8L269.1,180z"/>
	<path class="st2" d="M273.9,181.2v4c0,1.3-0.5,2-1.7,2c-1.1,0-1.6-0.7-1.6-2v-4c0-1.5,0.7-2,1.7-2
		C273.2,179.2,273.9,179.7,273.9,181.2z M271.5,181.1v4.1c0,0.8,0.2,1.1,0.8,1.1c0.5,0,0.8-0.3,0.8-1.2v-4.1c0-0.8-0.3-1.2-0.8-1.2
		C271.8,180,271.5,180.2,271.5,181.1z"/>
	<path class="st2" d="M275.1,187.1v-1.7h0.8v1.7H275.1z"/>
	<path class="st2" d="M280.5,181.2v4c0,1.3-0.5,2-1.7,2c-1.1,0-1.6-0.7-1.6-2v-4c0-1.5,0.7-2,1.7-2
		C279.8,179.2,280.5,179.7,280.5,181.2z M278.1,181.1v4.1c0,0.8,0.2,1.1,0.8,1.1c0.5,0,0.8-0.3,0.8-1.2v-4.1c0-0.8-0.3-1.2-0.8-1.2
		C278.4,180,278.1,180.2,278.1,181.1z"/>
	<path class="st2" d="M346.3,183.6v0.8h-3.1v-0.8H346.3z"/>
	<path class="st2" d="M417.9,183.6v0.8h-3.1v-0.8H417.9z"/>
	<path class="st2" d="M489.4,183.6v0.8h-3.1v-0.8H489.4z"/>
	<path class="st2" d="M553.7,187.1v-6.8c-0.2,0.1-0.7,0.2-0.9,0.2v-0.7c0.4-0.1,0.9-0.4,1.1-0.6h0.6v7.8H553.7z"/>
	<path class="st2" d="M558.5,181L558.5,181c0-0.4-0.1-1.1-0.7-1.1c-0.6,0-0.8,0.5-0.8,1.5v1.2c0.2-0.3,0.5-0.6,1.1-0.6
		c1,0,1.3,0.8,1.3,1.7v1.4c0,1.2-0.4,2.1-1.6,2.1c-1.3,0-1.6-1-1.6-2.1v-3.7c0-1.3,0.4-2.2,1.6-2.2c1.3,0,1.5,0.9,1.5,1.7v0.1H558.5
		z M558.5,185.2v-1.4c0-0.7-0.2-1.1-0.7-1.1c-0.7,0-0.8,0.6-0.8,1.3v1.2c0,0.6,0.2,1.2,0.8,1.2C558.3,186.4,558.5,186.1,558.5,185.2
		z"/>
	<path class="st2" d="M560.6,187.1v-1.7h0.8v1.7H560.6z"/>
	<path class="st2" d="M565.8,179.3v0.6c-1,1.9-1.7,4.3-2,7.2h-0.9c0.3-2.5,1.1-5.2,2-7h-2.3v-0.8H565.8z"/>
	<path class="st2" d="M632.4,183.6v0.8h-3.1v-0.8H632.4z"/>
	<path class="st2" d="M703.9,183.6v0.8h-3.1v-0.8H703.9z"/>
	<path class="st2" d="M768.3,187.1v-6.8c-0.2,0.1-0.7,0.2-0.9,0.2v-0.7c0.4-0.1,0.9-0.4,1.1-0.6h0.6v7.8H768.3z"/>
	<path class="st2" d="M773,181L773,181c0-0.4-0.1-1.1-0.7-1.1c-0.6,0-0.8,0.5-0.8,1.5v1.2c0.2-0.3,0.5-0.6,1.1-0.6
		c1,0,1.3,0.8,1.3,1.7v1.4c0,1.2-0.4,2.1-1.6,2.1c-1.3,0-1.6-1-1.6-2.1v-3.7c0-1.3,0.4-2.2,1.6-2.2c1.3,0,1.5,0.9,1.5,1.7v0.1H773z
		 M773.1,185.2v-1.4c0-0.7-0.2-1.1-0.7-1.1c-0.7,0-0.8,0.6-0.8,1.3v1.2c0,0.6,0.2,1.2,0.8,1.2C772.8,186.4,773.1,186.1,773.1,185.2z
		"/>
	<path class="st2" d="M775.1,187.1v-1.7h0.8v1.7H775.1z"/>
	<path class="st2" d="M780.4,179.3v0.6c-1,1.9-1.7,4.3-2,7.2h-0.9c0.3-2.5,1.1-5.2,2-7h-2.3v-0.8H780.4z"/>
	<path class="st2" d="M846.9,183.6v0.8h-3.1v-0.8H846.9z"/>
	<path class="st2" d="M918.5,183.6v0.8h-3.1v-0.8H918.5z"/>
	<path class="st2" d="M200.1,213.1V213c0-1.2,0.6-2.2,1.5-3.5c0.6-0.9,0.8-1.3,0.8-2.2c0-0.9-0.1-1.3-0.7-1.3
		c-0.5,0-0.7,0.4-0.7,1.1v0.4h-0.8V207c0-0.9,0.3-1.8,1.6-1.8c1.2,0,1.5,0.9,1.5,2c0,1.2-0.3,1.7-0.9,2.6c-0.7,1-1.2,1.9-1.3,2.5
		h2.4l-0.1,0.7H200.1z"/>
	<path class="st2" d="M269.3,205.3v0.6c-1,1.9-1.7,4.3-2,7.2h-0.9c0.3-2.5,1.1-5.2,2-7h-2.3v-0.8H269.3z"/>
	<path class="st2" d="M273.3,206h-1.9c0,0.7-0.1,1.7-0.2,2.3c0.2-0.3,0.5-0.5,1-0.5c1,0,1.4,0.8,1.4,2.1v0.9c0,1.3-0.3,2.3-1.7,2.3
		c-1.3,0-1.6-0.9-1.6-1.9v-0.1h0.8v0.2c0,0.5,0.2,1.1,0.8,1.1c0.7,0,0.8-0.6,0.8-1.4v-1c0-0.9-0.1-1.4-0.8-1.4
		c-0.5,0-0.7,0.3-0.8,0.9l-0.8-0.1c0.1-1.1,0.3-3.3,0.3-4.1h2.8L273.3,206z"/>
	<path class="st2" d="M274.7,213.1v-1.7h0.8v1.7H274.7z"/>
	<path class="st2" d="M280.1,207.2v4c0,1.3-0.5,2-1.7,2c-1.1,0-1.6-0.7-1.6-2v-4c0-1.5,0.7-2,1.7-2
		C279.4,205.2,280.1,205.7,280.1,207.2z M277.7,207.1v4.1c0,0.8,0.2,1.1,0.8,1.1c0.5,0,0.8-0.3,0.8-1.2v-4.1c0-0.8-0.3-1.2-0.8-1.2
		C278,206,277.7,206.2,277.7,207.1z"/>
	<path class="st2" d="M337.5,213.1V213c0-1.2,0.6-2.2,1.5-3.5c0.6-0.9,0.8-1.3,0.8-2.2c0-0.9-0.1-1.3-0.7-1.3
		c-0.5,0-0.7,0.4-0.7,1.1v0.4h-0.8V207c0-0.9,0.3-1.8,1.6-1.8c1.2,0,1.5,0.9,1.5,2c0,1.2-0.3,1.7-0.9,2.6c-0.7,1-1.2,1.9-1.3,2.5
		h2.4l-0.1,0.7H337.5z"/>
	<path class="st2" d="M345,206h-1.9c0,0.7-0.1,1.7-0.2,2.3c0.2-0.3,0.5-0.5,1-0.5c1,0,1.4,0.8,1.4,2.1v0.9c0,1.3-0.3,2.3-1.7,2.3
		c-1.3,0-1.6-0.9-1.6-1.9v-0.1h0.8v0.2c0,0.5,0.2,1.1,0.8,1.1c0.7,0,0.8-0.6,0.8-1.4v-1c0-0.9-0.1-1.4-0.8-1.4
		c-0.5,0-0.7,0.3-0.8,0.9l-0.8-0.1c0.1-1.1,0.3-3.3,0.3-4.1h2.8L345,206z"/>
	<path class="st2" d="M346.5,213.1v-1.7h0.8v1.7H346.5z"/>
	<path class="st2" d="M351.8,207.2v4c0,1.3-0.5,2-1.7,2c-1.1,0-1.6-0.7-1.6-2v-4c0-1.5,0.7-2,1.7-2
		C351.2,205.2,351.8,205.7,351.8,207.2z M349.4,207.1v4.1c0,0.8,0.2,1.1,0.8,1.1c0.5,0,0.8-0.3,0.8-1.2v-4.1c0-0.8-0.3-1.2-0.8-1.2
		C349.7,206,349.4,206.2,349.4,207.1z"/>
	<path class="st2" d="M417.9,209.6v0.8h-3.1v-0.8H417.9z"/>
	<path class="st2" d="M489.4,209.6v0.8h-3.1v-0.8H489.4z"/>
	<path class="st2" d="M555.2,213.1V211H553v-0.6l1.9-5.1h1.1v5h0.6l-0.1,0.7H556v2.1H555.2z M555.2,208.4c0-0.7,0-1.5,0-2.2h0
		c-0.4,1.4-0.9,2.8-1.4,4.1h1.4V208.4z"/>
	<path class="st2" d="M558.2,213.1v-6.8c-0.2,0.1-0.7,0.2-0.9,0.2v-0.7c0.4-0.1,0.9-0.4,1.1-0.6h0.6v7.8H558.2z"/>
	<path class="st2" d="M560.5,213.1v-1.7h0.8v1.7H560.5z"/>
	<path class="st2" d="M565.8,205.3v0.6c-1,1.9-1.7,4.3-2,7.2h-0.9c0.3-2.5,1.1-5.2,2-7h-2.3v-0.8H565.8z"/>
	<path class="st2" d="M625.9,211.3v-0.9c0-1,0.4-1.3,0.8-1.5c-0.4-0.2-0.7-0.7-0.7-1.5v-0.5c0-1.1,0.5-1.8,1.6-1.8
		c0.9,0,1.5,0.5,1.5,1.8v0.4c0,1-0.3,1.3-0.7,1.5c0.5,0.2,0.8,0.6,0.8,1.5v0.8c0,1.3-0.5,1.9-1.7,1.9
		C626.5,213.2,625.9,212.6,625.9,211.3z M628.4,211.3v-1c0-0.7-0.3-1.1-0.8-1.1s-0.8,0.3-0.8,1.1v1c0,0.7,0.2,1.1,0.8,1.1
		C628.2,212.4,628.4,212,628.4,211.3z M626.8,206.9v0.7c0,0.6,0.2,0.9,0.7,0.9c0.5,0,0.7-0.3,0.7-1v-0.6c0-0.5-0.1-1-0.7-1
		C627,205.9,626.8,206.3,626.8,206.9z"/>
	<path class="st2" d="M630.4,213.1v-1.7h0.8v1.7H630.4z"/>
	<path class="st2" d="M632.6,207.1v-0.2c0-0.7,0.2-1.8,1.5-1.8c1.1,0,1.5,0.7,1.5,1.8v0.4c0,0.9-0.3,1.3-0.7,1.5v0
		c0.6,0.2,0.9,0.6,0.9,1.6v0.7c0,1.2-0.4,2.1-1.7,2.1c-1.2,0-1.6-0.7-1.6-1.8v-0.2h0.8v0.2c0,0.6,0.2,1,0.8,1c0.6,0,0.8-0.4,0.8-1.3
		v-0.8c0-0.9-0.3-1.2-1-1.2h-0.3v-0.7h0.3c0.6,0,0.9-0.2,0.9-1.1v-0.4c0-0.6-0.1-1-0.7-1c-0.6,0-0.7,0.5-0.7,1v0.2H632.6z"/>
	<path class="st2" d="M697.4,211.3v-0.9c0-1,0.4-1.3,0.8-1.5c-0.4-0.2-0.7-0.7-0.7-1.5v-0.5c0-1.1,0.5-1.8,1.6-1.8
		c0.9,0,1.5,0.5,1.5,1.8v0.4c0,1-0.3,1.3-0.7,1.5c0.5,0.2,0.8,0.6,0.8,1.5v0.8c0,1.3-0.5,1.9-1.7,1.9
		C698,213.2,697.4,212.6,697.4,211.3z M699.9,211.3v-1c0-0.7-0.3-1.1-0.8-1.1s-0.8,0.3-0.8,1.1v1c0,0.7,0.2,1.1,0.8,1.1
		C699.7,212.4,699.9,212,699.9,211.3z M698.3,206.9v0.7c0,0.6,0.2,0.9,0.7,0.9c0.5,0,0.7-0.3,0.7-1v-0.6c0-0.5-0.1-1-0.7-1
		C698.5,205.9,698.3,206.3,698.3,206.9z"/>
	<path class="st2" d="M701.9,213.1v-1.7h0.8v1.7H701.9z"/>
	<path class="st2" d="M704.1,207.1v-0.2c0-0.7,0.2-1.8,1.5-1.8c1.1,0,1.5,0.7,1.5,1.8v0.4c0,0.9-0.3,1.3-0.7,1.5v0
		c0.6,0.2,0.9,0.6,0.9,1.6v0.7c0,1.2-0.4,2.1-1.7,2.1c-1.2,0-1.6-0.7-1.6-1.8v-0.2h0.8v0.2c0,0.6,0.2,1,0.8,1c0.6,0,0.8-0.4,0.8-1.3
		v-0.8c0-0.9-0.3-1.2-1-1.2h-0.3v-0.7h0.3c0.6,0,0.9-0.2,0.9-1.1v-0.4c0-0.6-0.1-1-0.7-1c-0.6,0-0.7,0.5-0.7,1v0.2H704.1z"/>
	<g>
		<path class="st2" d="M766.7,207.1v-0.2c0-0.7,0.2-1.8,1.5-1.8c1.1,0,1.5,0.7,1.5,1.8v0.4c0,0.9-0.3,1.3-0.7,1.5v0
			c0.6,0.2,0.9,0.6,0.9,1.6v0.7c0,1.2-0.4,2.1-1.7,2.1c-1.2,0-1.6-0.7-1.6-1.8v-0.2h0.8v0.2c0,0.6,0.2,1,0.8,1s0.8-0.4,0.8-1.3v-0.8
			c0-0.9-0.3-1.2-1-1.2h-0.3v-0.7h0.3c0.6,0,0.9-0.2,0.9-1.1v-0.4c0-0.6-0.1-1-0.7-1c-0.6,0-0.7,0.5-0.7,1v0.2H766.7z"/>
		<path class="st2" d="M774.4,207.2v4c0,1.3-0.5,2-1.7,2c-1.1,0-1.6-0.7-1.6-2v-4c0-1.5,0.7-2,1.7-2
			C773.8,205.2,774.4,205.7,774.4,207.2z M772,207.1v4.1c0,0.8,0.2,1.1,0.8,1.1c0.5,0,0.8-0.3,0.8-1.2v-4.1c0-0.8-0.3-1.2-0.8-1.2
			C772.3,206,772,206.2,772,207.1z"/>
		<path class="st2" d="M775.7,213.1v-1.7h0.8v1.7H775.7z"/>
		<path class="st2" d="M780.1,207L780.1,207c0-0.4-0.1-1.1-0.7-1.1c-0.6,0-0.8,0.5-0.8,1.5v1.2c0.2-0.3,0.5-0.6,1.1-0.6
			c1,0,1.3,0.8,1.3,1.7v1.4c0,1.2-0.4,2.1-1.6,2.1c-1.3,0-1.6-1-1.6-2.1v-3.7c0-1.3,0.4-2.2,1.6-2.2c1.3,0,1.5,0.9,1.5,1.7v0.1
			H780.1z M780.2,211.2v-1.4c0-0.7-0.2-1.1-0.7-1.1c-0.7,0-0.8,0.6-0.8,1.3v1.2c0,0.6,0.2,1.2,0.8,1.2
			C780,212.4,780.2,212.1,780.2,211.2z"/>
	</g>
	<path class="st2" d="M840.4,213.1V213c0-1.2,0.6-2.2,1.5-3.5c0.6-0.9,0.8-1.3,0.8-2.2c0-0.9-0.1-1.3-0.7-1.3
		c-0.5,0-0.7,0.4-0.7,1.1v0.4h-0.8V207c0-0.9,0.3-1.8,1.6-1.8c1.2,0,1.5,0.9,1.5,2c0,1.2-0.3,1.7-0.9,2.6c-0.7,1-1.2,1.9-1.3,2.5
		h2.4l-0.1,0.7H840.4z"/>
	<path class="st2" d="M844.9,213.1v-1.7h0.8v1.7H844.9z"/>
	<path class="st2" d="M846.9,211.3v-0.9c0-1,0.4-1.3,0.8-1.5c-0.4-0.2-0.7-0.7-0.7-1.5v-0.5c0-1.1,0.5-1.8,1.6-1.8
		c0.9,0,1.5,0.5,1.5,1.8v0.4c0,1-0.3,1.3-0.7,1.5c0.5,0.2,0.8,0.6,0.8,1.5v0.8c0,1.3-0.5,1.9-1.7,1.9
		C847.6,213.2,846.9,212.6,846.9,211.3z M849.4,211.3v-1c0-0.7-0.3-1.1-0.8-1.1s-0.8,0.3-0.8,1.1v1c0,0.7,0.2,1.1,0.8,1.1
		C849.2,212.4,849.4,212,849.4,211.3z M847.9,206.9v0.7c0,0.6,0.2,0.9,0.7,0.9c0.5,0,0.7-0.3,0.7-1v-0.6c0-0.5-0.1-1-0.7-1
		C848,205.9,847.9,206.3,847.9,206.9z"/>
	<path class="st2" d="M918.4,209.6v0.8h-3.1v-0.8H918.4z"/>
	<path class="st2" d="M200.2,233.1v-0.2c0-0.7,0.2-1.8,1.5-1.8c1.1,0,1.5,0.7,1.5,1.8v0.4c0,0.9-0.3,1.3-0.7,1.5v0
		c0.6,0.2,0.9,0.6,0.9,1.6v0.7c0,1.2-0.4,2.1-1.7,2.1c-1.2,0-1.6-0.7-1.6-1.8v-0.2h0.8v0.2c0,0.6,0.2,1,0.8,1c0.6,0,0.8-0.4,0.8-1.3
		v-0.8c0-0.9-0.3-1.2-1-1.2h-0.3v-0.7h0.3c0.6,0,0.9-0.2,0.9-1.1v-0.4c0-0.6-0.1-1-0.7-1c-0.6,0-0.7,0.5-0.7,1v0.2H200.2z"/>
	<path class="st2" d="M266.9,237.3v-0.9c0-1,0.4-1.3,0.8-1.5c-0.4-0.2-0.7-0.7-0.7-1.5v-0.5c0-1.1,0.5-1.8,1.6-1.8
		c0.9,0,1.5,0.5,1.5,1.8v0.4c0,1-0.3,1.3-0.7,1.5c0.5,0.2,0.8,0.6,0.8,1.5v0.8c0,1.3-0.5,1.9-1.7,1.9
		C267.6,239.2,266.9,238.6,266.9,237.3z M269.4,237.3v-1c0-0.7-0.3-1.1-0.8-1.1s-0.8,0.3-0.8,1.1v1c0,0.7,0.2,1.1,0.8,1.1
		C269.2,238.4,269.4,238,269.4,237.3z M267.9,232.9v0.7c0,0.6,0.2,0.9,0.7,0.9c0.5,0,0.7-0.3,0.7-1v-0.6c0-0.5-0.1-1-0.7-1
		C268,231.9,267.9,232.3,267.9,232.9z"/>
	<path class="st2" d="M274.4,231.3v0.6c-1,1.9-1.7,4.3-2,7.2h-0.9c0.3-2.5,1.1-5.2,2-7h-2.3v-0.8H274.4z"/>
	<path class="st2" d="M274.2,239.1v-1.7h0.8v1.7H274.2z"/>
	<path class="st2" d="M279.4,232h-1.9c0,0.7-0.1,1.7-0.2,2.3c0.2-0.3,0.5-0.5,1-0.5c1,0,1.4,0.8,1.4,2.1v0.9c0,1.3-0.3,2.3-1.7,2.3
		c-1.3,0-1.6-0.9-1.6-1.9v-0.1h0.8v0.2c0,0.5,0.2,1.1,0.8,1.1c0.7,0,0.8-0.6,0.8-1.4v-1c0-0.9-0.1-1.4-0.8-1.4
		c-0.5,0-0.7,0.3-0.8,0.9l-0.8-0.1c0.1-1.1,0.3-3.3,0.3-4.1h2.8L279.4,232z"/>
	<path class="st2" d="M340.6,232h-1.9c0,0.7-0.1,1.7-0.2,2.3c0.2-0.3,0.5-0.5,1-0.5c1,0,1.4,0.8,1.4,2.1v0.9c0,1.3-0.3,2.3-1.7,2.3
		c-1.3,0-1.6-0.9-1.6-1.9v-0.1h0.8v0.2c0,0.5,0.2,1.1,0.8,1.1c0.7,0,0.8-0.6,0.8-1.4v-1c0-0.9-0.1-1.4-0.8-1.4
		c-0.5,0-0.7,0.3-0.8,0.9l-0.8-0.1c0.1-1.1,0.3-3.3,0.3-4.1h2.8L340.6,232z"/>
	<path class="st2" d="M345.4,233.2v4c0,1.3-0.5,2-1.7,2c-1.1,0-1.6-0.7-1.6-2v-4c0-1.5,0.7-2,1.7-2
		C344.7,231.2,345.4,231.7,345.4,233.2z M343,233.1v4.1c0,0.8,0.2,1.1,0.8,1.1c0.5,0,0.8-0.3,0.8-1.2v-4.1c0-0.8-0.3-1.2-0.8-1.2
		C343.3,232,343,232.2,343,233.1z"/>
	<path class="st2" d="M346.6,239.1v-1.7h0.8v1.7H346.6z"/>
	<path class="st2" d="M352,233.2v4c0,1.3-0.5,2-1.7,2c-1.1,0-1.6-0.7-1.6-2v-4c0-1.5,0.7-2,1.7-2C351.3,231.2,352,231.7,352,233.2z
		 M349.6,233.1v4.1c0,0.8,0.2,1.1,0.8,1.1c0.5,0,0.8-0.3,0.8-1.2v-4.1c0-0.8-0.3-1.2-0.8-1.2C349.9,232,349.6,232.2,349.6,233.1z"/>
	<path class="st2" d="M410.5,239.1v-6.8c-0.2,0.1-0.7,0.2-0.9,0.2v-0.7c0.4-0.1,0.9-0.4,1.1-0.6h0.6v7.8H410.5z"/>
	<path class="st2" d="M412.7,239.1V239c0-1.2,0.6-2.2,1.5-3.5c0.6-0.9,0.8-1.3,0.8-2.2c0-0.9-0.1-1.3-0.7-1.3
		c-0.5,0-0.7,0.4-0.7,1.1v0.4h-0.8V233c0-0.9,0.3-1.8,1.6-1.8c1.2,0,1.5,0.9,1.5,2c0,1.2-0.3,1.7-0.9,2.6c-0.7,1-1.2,1.9-1.3,2.5
		h2.4l-0.1,0.7H412.7z"/>
	<path class="st2" d="M417.3,239.1v-1.7h0.8v1.7H417.3z"/>
	<path class="st2" d="M422.4,232h-1.9c0,0.7-0.1,1.7-0.2,2.3c0.2-0.3,0.5-0.5,1-0.5c1,0,1.4,0.8,1.4,2.1v0.9c0,1.3-0.3,2.3-1.7,2.3
		c-1.3,0-1.6-0.9-1.6-1.9v-0.1h0.8v0.2c0,0.5,0.2,1.1,0.8,1.1c0.7,0,0.8-0.6,0.8-1.4v-1c0-0.9-0.1-1.4-0.8-1.4
		c-0.5,0-0.7,0.3-0.8,0.9l-0.8-0.1c0.1-1.1,0.3-3.3,0.3-4.1h2.8L422.4,232z"/>
	<path class="st2" d="M480.8,239.1V239c0-1.2,0.6-2.2,1.5-3.5c0.6-0.9,0.8-1.3,0.8-2.2c0-0.9-0.1-1.3-0.7-1.3
		c-0.5,0-0.7,0.4-0.7,1.1v0.4h-0.8V233c0-0.9,0.3-1.8,1.6-1.8c1.2,0,1.5,0.9,1.5,2c0,1.2-0.3,1.7-0.9,2.6c-0.7,1-1.2,1.9-1.3,2.5
		h2.4l-0.1,0.7H480.8z"/>
	<path class="st2" d="M485.2,233.1v-0.2c0-0.7,0.2-1.8,1.5-1.8c1.1,0,1.5,0.7,1.5,1.8v0.4c0,0.9-0.3,1.3-0.7,1.5v0
		c0.6,0.2,0.9,0.6,0.9,1.6v0.7c0,1.2-0.4,2.1-1.7,2.1c-1.2,0-1.6-0.7-1.6-1.8v-0.2h0.8v0.2c0,0.6,0.2,1,0.8,1c0.6,0,0.8-0.4,0.8-1.3
		v-0.8c0-0.9-0.3-1.2-1-1.2h-0.3v-0.7h0.3c0.6,0,0.9-0.2,0.9-1.1v-0.4c0-0.6-0.1-1-0.7-1c-0.6,0-0.7,0.5-0.7,1v0.2H485.2z"/>
	<path class="st2" d="M489.6,239.1v-1.7h0.8v1.7H489.6z"/>
	<path class="st2" d="M493.6,239.1V237h-2.2v-0.6l1.9-5.1h1.1v5h0.6l-0.1,0.7h-0.5v2.1H493.6z M493.6,234.4c0-0.7,0-1.5,0-2.2h0
		c-0.4,1.4-0.9,2.8-1.4,4.1h1.4V234.4z"/>
	<path class="st2" d="M555.3,233L555.3,233c0-0.4-0.1-1.1-0.7-1.1c-0.6,0-0.8,0.5-0.8,1.5v1.2c0.2-0.3,0.5-0.6,1.1-0.6
		c1,0,1.3,0.8,1.3,1.7v1.4c0,1.2-0.4,2.1-1.6,2.1c-1.3,0-1.6-1-1.6-2.1v-3.7c0-1.3,0.4-2.2,1.6-2.2c1.3,0,1.5,0.9,1.5,1.7v0.1H555.3
		z M555.4,237.2v-1.4c0-0.7-0.2-1.1-0.7-1.1c-0.7,0-0.8,0.6-0.8,1.3v1.2c0,0.6,0.2,1.2,0.8,1.2C555.1,238.4,555.4,238.1,555.4,237.2
		z"/>
	<path class="st2" d="M558.1,239.1v-6.8c-0.2,0.1-0.7,0.2-0.9,0.2v-0.7c0.4-0.1,0.9-0.4,1.1-0.6h0.6v7.8H558.1z"/>
	<path class="st2" d="M560.4,239.1v-1.7h0.8v1.7H560.4z"/>
	<path class="st2" d="M564.9,233L564.9,233c0-0.4-0.1-1.1-0.7-1.1c-0.6,0-0.8,0.5-0.8,1.5v1.2c0.2-0.3,0.5-0.6,1.1-0.6
		c1,0,1.3,0.8,1.3,1.7v1.4c0,1.2-0.4,2.1-1.6,2.1c-1.3,0-1.6-1-1.6-2.1v-3.7c0-1.3,0.4-2.2,1.6-2.2c1.3,0,1.5,0.9,1.5,1.7v0.1H564.9
		z M564.9,237.2v-1.4c0-0.7-0.2-1.1-0.7-1.1c-0.7,0-0.8,0.6-0.8,1.3v1.2c0,0.6,0.2,1.2,0.8,1.2C564.7,238.4,564.9,238.1,564.9,237.2
		z"/>
	<path class="st2" d="M623.8,239.1V239c0-1.2,0.6-2.2,1.5-3.5c0.6-0.9,0.8-1.3,0.8-2.2c0-0.9-0.1-1.3-0.7-1.3
		c-0.5,0-0.7,0.4-0.7,1.1v0.4h-0.8V233c0-0.9,0.3-1.8,1.6-1.8c1.2,0,1.5,0.9,1.5,2c0,1.2-0.3,1.7-0.9,2.6c-0.7,1-1.2,1.9-1.3,2.5
		h2.4l-0.1,0.7H623.8z"/>
	<path class="st2" d="M628.2,239.1V239c0-1.2,0.6-2.2,1.5-3.5c0.6-0.9,0.8-1.3,0.8-2.2c0-0.9-0.1-1.3-0.7-1.3
		c-0.5,0-0.7,0.4-0.7,1.1v0.4h-0.8V233c0-0.9,0.3-1.8,1.6-1.8c1.2,0,1.5,0.9,1.5,2c0,1.2-0.3,1.7-0.9,2.6c-0.7,1-1.2,1.9-1.3,2.5
		h2.4l-0.1,0.7H628.2z"/>
	<path class="st2" d="M632.7,239.1v-1.7h0.8v1.7H632.7z"/>
	<path class="st2" d="M638,231.3v0.6c-1,1.9-1.7,4.3-2,7.2h-0.9c0.3-2.5,1.1-5.2,2-7h-2.3v-0.8H638z"/>
	<path class="st2" d="M696.7,239.1v-6.8c-0.2,0.1-0.7,0.2-0.9,0.2v-0.7c0.4-0.1,0.9-0.4,1.1-0.6h0.6v7.8H696.7z"/>
	<path class="st2" d="M699.9,237.4L699.9,237.4c0,0.8,0.2,1.1,0.7,1.1c0.6,0,0.8-0.4,0.8-1.6v-1.4c-0.2,0.4-0.5,0.6-1,0.6
		c-1,0-1.3-0.7-1.3-1.8V233c0-1.2,0.5-1.9,1.6-1.9c1,0,1.6,0.6,1.6,1.9v3.5c0,1.5-0.2,2.6-1.6,2.6c-1.2,0-1.5-0.8-1.5-1.7v0H699.9z
		 M699.8,233v1.2c0,0.5,0.1,1.1,0.7,1.1c0.7,0,0.8-0.6,0.8-1.4V233c0-0.7-0.2-1.1-0.8-1.1C700.1,231.9,699.8,232.2,699.8,233z"/>
	<path class="st2" d="M703.3,239.1v-1.7h0.8v1.7H703.3z"/>
	<path class="st2" d="M706.3,237.4L706.3,237.4c0,0.8,0.2,1.1,0.7,1.1c0.6,0,0.8-0.4,0.8-1.6v-1.4c-0.2,0.4-0.5,0.6-1,0.6
		c-1,0-1.3-0.7-1.3-1.8V233c0-1.2,0.5-1.9,1.6-1.9c1,0,1.6,0.6,1.6,1.9v3.5c0,1.5-0.2,2.6-1.6,2.6c-1.2,0-1.5-0.8-1.5-1.7v0H706.3z
		 M706.2,233v1.2c0,0.5,0.1,1.1,0.7,1.1c0.7,0,0.8-0.6,0.8-1.4V233c0-0.7-0.2-1.1-0.8-1.1C706.5,231.9,706.2,232.2,706.2,233z"/>
	<path class="st2" d="M769.7,239.1V237h-2.2v-0.6l1.9-5.1h1.1v5h0.6L771,237h-0.5v2.1H769.7z M769.7,234.4c0-0.7,0-1.5,0-2.2h0
		c-0.4,1.4-0.9,2.8-1.4,4.1h1.4V234.4z"/>
	<path class="st2" d="M772,239.1V239c0-1.2,0.6-2.2,1.5-3.5c0.6-0.9,0.8-1.3,0.8-2.2c0-0.9-0.1-1.3-0.7-1.3c-0.5,0-0.7,0.4-0.7,1.1
		v0.4H772V233c0-0.9,0.3-1.8,1.6-1.8c1.2,0,1.5,0.9,1.5,2c0,1.2-0.3,1.7-0.9,2.6c-0.7,1-1.2,1.9-1.3,2.5h2.4l-0.1,0.7H772z"/>
	<path class="st2" d="M776.5,239.1v-1.7h0.8v1.7H776.5z"/>
	<path class="st2" d="M778.9,239.1v-6.8c-0.2,0.1-0.7,0.2-0.9,0.2v-0.7c0.4-0.1,0.9-0.4,1.1-0.6h0.6v7.8H778.9z"/>
	<path class="st2" d="M844.4,231.3v0.6c-1,1.9-1.7,4.3-2,7.2h-0.9c0.3-2.5,1.1-5.2,2-7h-2.3v-0.8H844.4z"/>
	<path class="st2" d="M844.2,239.1v-1.7h0.8v1.7H844.2z"/>
	<path class="st2" d="M848.2,239.1V237H846v-0.6l1.9-5.1h1.1v5h0.6l-0.1,0.7H849v2.1H848.2z M848.2,234.4c0-0.7,0-1.5,0-2.2h0
		c-0.4,1.4-0.9,2.8-1.4,4.1h1.4V234.4z"/>
	<path class="st2" d="M915.2,233.2v4c0,1.3-0.5,2-1.7,2c-1.1,0-1.6-0.7-1.6-2v-4c0-1.5,0.7-2,1.7-2
		C914.6,231.2,915.2,231.7,915.2,233.2z M912.8,233.1v4.1c0,0.8,0.2,1.1,0.8,1.1c0.5,0,0.8-0.3,0.8-1.2v-4.1c0-0.8-0.3-1.2-0.8-1.2
		C913.1,232,912.8,232.2,912.8,233.1z"/>
	<path class="st2" d="M916.5,239.1v-1.7h0.8v1.7H916.5z"/>
	<path class="st2" d="M921.6,232h-1.9c0,0.7-0.1,1.7-0.2,2.3c0.2-0.3,0.5-0.5,1-0.5c1,0,1.4,0.8,1.4,2.1v0.9c0,1.3-0.3,2.3-1.7,2.3
		c-1.3,0-1.6-0.9-1.6-1.9v-0.1h0.8v0.2c0,0.5,0.2,1.1,0.8,1.1c0.7,0,0.8-0.6,0.8-1.4v-1c0-0.9-0.1-1.4-0.8-1.4
		c-0.5,0-0.7,0.3-0.8,0.9l-0.8-0.1c0.1-1.1,0.3-3.3,0.3-4.1h2.8L921.6,232z"/>
	<path class="st2" d="M202.2,265.1V263H200v-0.6l1.9-5.1h1.1v5h0.6l-0.1,0.7H203v2.1H202.2z M202.2,260.4c0-0.7,0-1.5,0-2.2h0
		c-0.4,1.4-0.9,2.8-1.4,4.1h1.4V260.4z"/>
	<path class="st2" d="M267.3,263.4L267.3,263.4c0,0.8,0.2,1.1,0.7,1.1c0.6,0,0.8-0.4,0.8-1.6v-1.4c-0.2,0.4-0.5,0.6-1,0.6
		c-1,0-1.3-0.7-1.3-1.8V259c0-1.2,0.5-1.9,1.6-1.9c1,0,1.6,0.6,1.6,1.9v3.5c0,1.5-0.2,2.6-1.6,2.6c-1.2,0-1.5-0.8-1.5-1.7v0H267.3z
		 M267.2,259v1.2c0,0.5,0.1,1.1,0.7,1.1c0.7,0,0.8-0.6,0.8-1.4V259c0-0.7-0.2-1.1-0.8-1.1C267.5,257.9,267.2,258.2,267.2,259z"/>
	<path class="st2" d="M270.8,259.1v-0.2c0-0.7,0.2-1.8,1.5-1.8c1.1,0,1.5,0.7,1.5,1.8v0.4c0,0.9-0.3,1.3-0.7,1.5v0
		c0.6,0.2,0.9,0.6,0.9,1.6v0.7c0,1.2-0.4,2.1-1.7,2.1c-1.2,0-1.6-0.7-1.6-1.8v-0.2h0.8v0.2c0,0.6,0.2,1,0.8,1c0.6,0,0.8-0.4,0.8-1.3
		v-0.8c0-0.9-0.3-1.2-1-1.2h-0.3v-0.7h0.3c0.6,0,0.9-0.2,0.9-1.1v-0.4c0-0.6-0.1-1-0.7-1c-0.6,0-0.7,0.5-0.7,1v0.2H270.8z"/>
	<path class="st2" d="M275.2,265.1v-1.7h0.8v1.7H275.2z"/>
	<path class="st2" d="M280.5,257.3v0.6c-1,1.9-1.7,4.3-2,7.2h-0.9c0.3-2.5,1.1-5.2,2-7h-2.3v-0.8H280.5z"/>
	<path class="st2" d="M340.2,259L340.2,259c0-0.4-0.1-1.1-0.7-1.1c-0.6,0-0.8,0.5-0.8,1.5v1.2c0.2-0.3,0.5-0.6,1.1-0.6
		c1,0,1.3,0.8,1.3,1.7v1.4c0,1.2-0.4,2.1-1.6,2.1c-1.3,0-1.6-1-1.6-2.1v-3.7c0-1.3,0.4-2.2,1.6-2.2c1.3,0,1.5,0.9,1.5,1.7v0.1H340.2
		z M340.3,263.2v-1.4c0-0.7-0.2-1.1-0.7-1.1c-0.7,0-0.8,0.6-0.8,1.3v1.2c0,0.6,0.2,1.2,0.8,1.2C340,264.4,340.3,264.1,340.3,263.2z"
		/>
	<path class="st2" d="M342.3,263.3v-0.9c0-1,0.4-1.3,0.8-1.5c-0.4-0.2-0.7-0.7-0.7-1.5v-0.5c0-1.1,0.5-1.8,1.6-1.8
		c0.9,0,1.5,0.5,1.5,1.8v0.4c0,1-0.3,1.3-0.7,1.5c0.5,0.2,0.8,0.6,0.8,1.5v0.8c0,1.3-0.5,1.9-1.7,1.9
		C342.9,265.2,342.3,264.6,342.3,263.3z M344.8,263.3v-1c0-0.7-0.3-1.1-0.8-1.1s-0.8,0.3-0.8,1.1v1c0,0.7,0.2,1.1,0.8,1.1
		C344.6,264.4,344.8,264,344.8,263.3z M343.2,258.9v0.7c0,0.6,0.2,0.9,0.7,0.9c0.5,0,0.7-0.3,0.7-1v-0.6c0-0.5-0.1-1-0.7-1
		C343.4,257.9,343.2,258.3,343.2,258.9z"/>
	<path class="st2" d="M346.8,265.1v-1.7h0.8v1.7H346.8z"/>
	<path class="st2" d="M352.1,257.3v0.6c-1,1.9-1.7,4.3-2,7.2h-0.9c0.3-2.5,1.1-5.2,2-7h-2.3v-0.8H352.1z"/>
	<path class="st2" d="M410,259.1v-0.2c0-0.7,0.2-1.8,1.5-1.8c1.1,0,1.5,0.7,1.5,1.8v0.4c0,0.9-0.3,1.3-0.7,1.5v0
		c0.6,0.2,0.9,0.6,0.9,1.6v0.7c0,1.2-0.4,2.1-1.7,2.1c-1.2,0-1.6-0.7-1.6-1.8v-0.2h0.8v0.2c0,0.6,0.2,1,0.8,1c0.6,0,0.8-0.4,0.8-1.3
		v-0.8c0-0.9-0.3-1.2-1-1.2H411v-0.7h0.3c0.6,0,0.9-0.2,0.9-1.1v-0.4c0-0.6-0.1-1-0.7-1c-0.6,0-0.7,0.5-0.7,1v0.2H410z"/>
	<path class="st2" d="M414.9,265.1v-6.8c-0.2,0.1-0.7,0.2-0.9,0.2v-0.7c0.4-0.1,0.9-0.4,1.1-0.6h0.6v7.8H414.9z"/>
	<path class="st2" d="M417.3,265.1v-1.7h0.8v1.7H417.3z"/>
	<path class="st2" d="M419.5,259.1v-0.2c0-0.7,0.2-1.8,1.5-1.8c1.1,0,1.5,0.7,1.5,1.8v0.4c0,0.9-0.3,1.3-0.7,1.5v0
		c0.6,0.2,0.9,0.6,0.9,1.6v0.7c0,1.2-0.4,2.1-1.7,2.1c-1.2,0-1.6-0.7-1.6-1.8v-0.2h0.8v0.2c0,0.6,0.2,1,0.8,1c0.6,0,0.8-0.4,0.8-1.3
		v-0.8c0-0.9-0.3-1.2-1-1.2h-0.3v-0.7h0.3c0.6,0,0.9-0.2,0.9-1.1v-0.4c0-0.6-0.1-1-0.7-1c-0.6,0-0.7,0.5-0.7,1v0.2H419.5z"/>
	<path class="st2" d="M484,258H482c0,0.7-0.1,1.7-0.2,2.3c0.2-0.3,0.5-0.5,1-0.5c1,0,1.4,0.8,1.4,2.1v0.9c0,1.3-0.3,2.3-1.7,2.3
		c-1.3,0-1.6-0.9-1.6-1.9v-0.1h0.8v0.2c0,0.5,0.2,1.1,0.8,1.1c0.7,0,0.8-0.6,0.8-1.4v-1c0-0.9-0.1-1.4-0.8-1.4
		c-0.5,0-0.7,0.3-0.8,0.9l-0.8-0.1c0.1-1.1,0.3-3.3,0.3-4.1h2.8L484,258z"/>
	<path class="st2" d="M485.2,265.1V265c0-1.2,0.6-2.2,1.5-3.5c0.6-0.9,0.8-1.3,0.8-2.2c0-0.9-0.1-1.3-0.7-1.3
		c-0.5,0-0.7,0.4-0.7,1.1v0.4h-0.8V259c0-0.9,0.3-1.8,1.6-1.8c1.2,0,1.5,0.9,1.5,2c0,1.2-0.3,1.7-0.9,2.6c-0.7,1-1.2,1.9-1.3,2.5
		h2.4l-0.1,0.7H485.2z"/>
	<path class="st2" d="M489.8,265.1v-1.7h0.8v1.7H489.8z"/>
	<path class="st2" d="M495,257.3v0.6c-1,1.9-1.7,4.3-2,7.2h-0.9c0.3-2.5,1.1-5.2,2-7h-2.3v-0.8H495z"/>
	<path class="st2" d="M555.5,257.3v0.6c-1,1.9-1.7,4.3-2,7.2h-0.9c0.3-2.5,1.1-5.2,2-7h-2.3v-0.8H555.5z"/>
	<path class="st2" d="M559.4,258h-1.9c0,0.7-0.1,1.7-0.2,2.3c0.2-0.3,0.5-0.5,1-0.5c1,0,1.4,0.8,1.4,2.1v0.9c0,1.3-0.3,2.3-1.7,2.3
		c-1.3,0-1.6-0.9-1.6-1.9v-0.1h0.8v0.2c0,0.5,0.2,1.1,0.8,1.1c0.7,0,0.8-0.6,0.8-1.4v-1c0-0.9-0.1-1.4-0.8-1.4
		c-0.5,0-0.7,0.3-0.8,0.9l-0.8-0.1c0.1-1.1,0.3-3.3,0.3-4.1h2.8L559.4,258z"/>
	<path class="st2" d="M560.9,265.1v-1.7h0.8v1.7H560.9z"/>
	<path class="st2" d="M562.9,265.1V265c0-1.2,0.6-2.2,1.5-3.5c0.6-0.9,0.8-1.3,0.8-2.2c0-0.9-0.1-1.3-0.7-1.3
		c-0.5,0-0.7,0.4-0.7,1.1v0.4h-0.8V259c0-0.9,0.3-1.8,1.6-1.8c1.2,0,1.5,0.9,1.5,2c0,1.2-0.3,1.7-0.9,2.6c-0.7,1-1.2,1.9-1.3,2.5
		h2.4l-0.1,0.7H562.9z"/>
	<path class="st2" d="M623.8,259.1v-0.2c0-0.7,0.2-1.8,1.5-1.8c1.1,0,1.5,0.7,1.5,1.8v0.4c0,0.9-0.3,1.3-0.7,1.5v0
		c0.6,0.2,0.9,0.6,0.9,1.6v0.7c0,1.2-0.4,2.1-1.7,2.1c-1.2,0-1.6-0.7-1.6-1.8v-0.2h0.8v0.2c0,0.6,0.2,1,0.8,1s0.8-0.4,0.8-1.3v-0.8
		c0-0.9-0.3-1.2-1-1.2h-0.3v-0.7h0.3c0.6,0,0.9-0.2,0.9-1.1v-0.4c0-0.6-0.1-1-0.7-1c-0.6,0-0.7,0.5-0.7,1v0.2H623.8z"/>
	<path class="st2" d="M628.2,263.3v-0.9c0-1,0.4-1.3,0.8-1.5c-0.4-0.2-0.7-0.7-0.7-1.5v-0.5c0-1.1,0.5-1.8,1.6-1.8
		c0.9,0,1.5,0.5,1.5,1.8v0.4c0,1-0.3,1.3-0.7,1.5c0.5,0.2,0.8,0.6,0.8,1.5v0.8c0,1.3-0.5,1.9-1.7,1.9
		C628.8,265.2,628.2,264.6,628.2,263.3z M630.6,263.3v-1c0-0.7-0.3-1.1-0.8-1.1s-0.8,0.3-0.8,1.1v1c0,0.7,0.2,1.1,0.8,1.1
		C630.4,264.4,630.6,264,630.6,263.3z M629.1,258.9v0.7c0,0.6,0.2,0.9,0.7,0.9c0.5,0,0.7-0.3,0.7-1v-0.6c0-0.5-0.1-1-0.7-1
		C629.3,257.9,629.1,258.3,629.1,258.9z"/>
	<path class="st2" d="M632.7,265.1v-1.7h0.8v1.7H632.7z"/>
	<path class="st2" d="M634.7,265.1V265c0-1.2,0.6-2.2,1.5-3.5c0.6-0.9,0.8-1.3,0.8-2.2c0-0.9-0.1-1.3-0.7-1.3
		c-0.5,0-0.7,0.4-0.7,1.1v0.4h-0.8V259c0-0.9,0.3-1.8,1.6-1.8c1.2,0,1.5,0.9,1.5,2c0,1.2-0.3,1.7-0.9,2.6c-0.7,1-1.2,1.9-1.3,2.5
		h2.4l-0.1,0.7H634.7z"/>
	<path class="st2" d="M698.7,259.1v-0.2c0-0.7,0.2-1.8,1.5-1.8c1.1,0,1.5,0.7,1.5,1.8v0.4c0,0.9-0.3,1.3-0.7,1.5v0
		c0.6,0.2,0.9,0.6,0.9,1.6v0.7c0,1.2-0.4,2.1-1.7,2.1c-1.2,0-1.6-0.7-1.6-1.8v-0.2h0.8v0.2c0,0.6,0.2,1,0.8,1s0.8-0.4,0.8-1.3v-0.8
		c0-0.9-0.3-1.2-1-1.2h-0.3v-0.7h0.3c0.6,0,0.9-0.2,0.9-1.1v-0.4c0-0.6-0.1-1-0.7-1c-0.6,0-0.7,0.5-0.7,1v0.2H698.7z"/>
	<path class="st2" d="M702.8,265.1V265c0-1.2,0.6-2.2,1.5-3.5c0.6-0.9,0.8-1.3,0.8-2.2c0-0.9-0.1-1.3-0.7-1.3
		c-0.5,0-0.7,0.4-0.7,1.1v0.4h-0.8V259c0-0.9,0.3-1.8,1.6-1.8c1.2,0,1.5,0.9,1.5,2c0,1.2-0.3,1.7-0.9,2.6c-0.7,1-1.2,1.9-1.3,2.5
		h2.4l-0.1,0.7H702.8z"/>
	<path class="st2" d="M770.6,258h-1.9c0,0.7-0.1,1.7-0.2,2.3c0.2-0.3,0.5-0.5,1-0.5c1,0,1.4,0.8,1.4,2.1v0.9c0,1.3-0.3,2.3-1.7,2.3
		c-1.3,0-1.6-0.9-1.6-1.9v-0.1h0.8v0.2c0,0.5,0.2,1.1,0.8,1.1c0.7,0,0.8-0.6,0.8-1.4v-1c0-0.9-0.1-1.4-0.8-1.4
		c-0.5,0-0.7,0.3-0.8,0.9l-0.8-0.1c0.1-1.1,0.3-3.3,0.3-4.1h2.8L770.6,258z"/>
	<path class="st2" d="M772.6,265.1v-6.8c-0.2,0.1-0.7,0.2-0.9,0.2v-0.7c0.4-0.1,0.9-0.4,1.1-0.6h0.6v7.8H772.6z"/>
	<path class="st2" d="M774.9,265.1v-1.7h0.8v1.7H774.9z"/>
	<path class="st2" d="M776.9,263.3v-0.9c0-1,0.4-1.3,0.8-1.5c-0.4-0.2-0.7-0.7-0.7-1.5v-0.5c0-1.1,0.5-1.8,1.6-1.8
		c0.9,0,1.5,0.5,1.5,1.8v0.4c0,1-0.3,1.3-0.7,1.5c0.5,0.2,0.8,0.6,0.8,1.5v0.8c0,1.3-0.5,1.9-1.7,1.9
		C777.6,265.2,776.9,264.6,776.9,263.3z M779.4,263.3v-1c0-0.7-0.3-1.1-0.8-1.1s-0.8,0.3-0.8,1.1v1c0,0.7,0.2,1.1,0.8,1.1
		C779.2,264.4,779.4,264,779.4,263.3z M777.9,258.9v0.7c0,0.6,0.2,0.9,0.7,0.9c0.5,0,0.7-0.3,0.7-1v-0.6c0-0.5-0.1-1-0.7-1
		C778,257.9,777.9,258.3,777.9,258.9z"/>
	<path class="st2" d="M839.7,265.1v-6.8c-0.2,0.1-0.7,0.2-0.9,0.2v-0.7c0.4-0.1,0.9-0.4,1.1-0.6h0.6v7.8H839.7z"/>
	<path class="st2" d="M842,259.1v-0.2c0-0.7,0.2-1.8,1.5-1.8c1.1,0,1.5,0.7,1.5,1.8v0.4c0,0.9-0.3,1.3-0.7,1.5v0
		c0.6,0.2,0.9,0.6,0.9,1.6v0.7c0,1.2-0.4,2.1-1.7,2.1c-1.2,0-1.6-0.7-1.6-1.8v-0.2h0.8v0.2c0,0.6,0.2,1,0.8,1s0.8-0.4,0.8-1.3v-0.8
		c0-0.9-0.3-1.2-1-1.2H843v-0.7h0.3c0.6,0,0.9-0.2,0.9-1.1v-0.4c0-0.6-0.1-1-0.7-1c-0.6,0-0.7,0.5-0.7,1v0.2H842z"/>
	<path class="st2" d="M846.4,265.1v-1.7h0.8v1.7H846.4z"/>
	<path class="st2" d="M848.4,265.1V265c0-1.2,0.6-2.2,1.5-3.5c0.6-0.9,0.8-1.3,0.8-2.2c0-0.9-0.1-1.3-0.7-1.3
		c-0.5,0-0.7,0.4-0.7,1.1v0.4h-0.8V259c0-0.9,0.3-1.8,1.6-1.8c1.2,0,1.5,0.9,1.5,2c0,1.2-0.3,1.7-0.9,2.6c-0.7,1-1.2,1.9-1.3,2.5
		h2.4l-0.1,0.7H848.4z"/>
	<path class="st2" d="M913.4,265.1v-6.8c-0.2,0.1-0.7,0.2-0.9,0.2v-0.7c0.4-0.1,0.9-0.4,1.1-0.6h0.6v7.8H913.4z"/>
	<path class="st2" d="M915.7,265.1v-1.7h0.8v1.7H915.7z"/>
	<path class="st2" d="M920.2,259L920.2,259c0-0.4-0.1-1.1-0.7-1.1c-0.6,0-0.8,0.5-0.8,1.5v1.2c0.2-0.3,0.5-0.6,1.1-0.6
		c1,0,1.3,0.8,1.3,1.7v1.4c0,1.2-0.4,2.1-1.6,2.1c-1.3,0-1.6-1-1.6-2.1v-3.7c0-1.3,0.4-2.2,1.6-2.2c1.3,0,1.5,0.9,1.5,1.7v0.1H920.2
		z M920.2,263.2v-1.4c0-0.7-0.2-1.1-0.7-1.1c-0.7,0-0.8,0.6-0.8,1.3v1.2c0,0.6,0.2,1.2,0.8,1.2C920,264.4,920.2,264.1,920.2,263.2z"
		/>
	<path class="st2" d="M203.2,284h-1.9c0,0.7-0.1,1.7-0.2,2.3c0.2-0.3,0.5-0.5,1-0.5c1,0,1.4,0.8,1.4,2.1v0.9c0,1.3-0.3,2.3-1.7,2.3
		c-1.3,0-1.6-0.9-1.6-1.9v-0.1h0.8v0.2c0,0.5,0.2,1.1,0.8,1.1c0.7,0,0.8-0.6,0.8-1.4v-1c0-0.9-0.1-1.4-0.8-1.4
		c-0.5,0-0.7,0.3-0.8,0.9l-0.8-0.1c0.1-1.1,0.3-3.3,0.3-4.1h2.8L203.2,284z"/>
	<path class="st2" d="M267.1,289.4L267.1,289.4c0,0.8,0.2,1.1,0.7,1.1c0.6,0,0.8-0.4,0.8-1.6v-1.4c-0.2,0.4-0.5,0.6-1,0.6
		c-1,0-1.3-0.7-1.3-1.8V285c0-1.2,0.5-1.9,1.6-1.9c1,0,1.6,0.6,1.6,1.9v3.5c0,1.5-0.2,2.6-1.6,2.6c-1.2,0-1.5-0.8-1.5-1.7v0H267.1z
		 M267,285v1.2c0,0.5,0.1,1.1,0.7,1.1c0.7,0,0.8-0.6,0.8-1.4V285c0-0.7-0.2-1.1-0.8-1.1C267.2,283.9,267,284.2,267,285z"/>
	<path class="st2" d="M273,285L273,285c0-0.4-0.1-1.1-0.7-1.1c-0.6,0-0.8,0.5-0.8,1.5v1.2c0.2-0.3,0.5-0.6,1.1-0.6
		c1,0,1.3,0.8,1.3,1.7v1.4c0,1.2-0.4,2.1-1.6,2.1c-1.3,0-1.6-1-1.6-2.1v-3.7c0-1.3,0.4-2.2,1.6-2.2c1.3,0,1.5,0.9,1.5,1.7v0.1H273z
		 M273.1,289.2v-1.4c0-0.7-0.2-1.1-0.7-1.1c-0.7,0-0.8,0.6-0.8,1.3v1.2c0,0.6,0.2,1.2,0.8,1.2C272.8,290.4,273.1,290.1,273.1,289.2z
		"/>
	<path class="st2" d="M275.1,291.1v-1.7h0.8v1.7H275.1z"/>
	<path class="st2" d="M278.1,289.4L278.1,289.4c0,0.8,0.2,1.1,0.7,1.1c0.6,0,0.8-0.4,0.8-1.6v-1.4c-0.2,0.4-0.5,0.6-1,0.6
		c-1,0-1.3-0.7-1.3-1.8V285c0-1.2,0.5-1.9,1.6-1.9c1,0,1.6,0.6,1.6,1.9v3.5c0,1.5-0.2,2.6-1.6,2.6c-1.2,0-1.5-0.8-1.5-1.7v0H278.1z
		 M278,285v1.2c0,0.5,0.1,1.1,0.7,1.1c0.7,0,0.8-0.6,0.8-1.4V285c0-0.7-0.2-1.1-0.8-1.1C278.2,283.9,278,284.2,278,285z"/>
	<path class="st2" d="M338.4,289.3v-0.9c0-1,0.4-1.3,0.8-1.5c-0.4-0.2-0.7-0.7-0.7-1.5v-0.5c0-1.1,0.5-1.8,1.6-1.8
		c0.9,0,1.5,0.5,1.5,1.8v0.4c0,1-0.3,1.3-0.7,1.5c0.5,0.2,0.8,0.6,0.8,1.5v0.8c0,1.3-0.5,1.9-1.7,1.9
		C339.1,291.2,338.4,290.6,338.4,289.3z M340.9,289.3v-1c0-0.7-0.3-1.1-0.8-1.1s-0.8,0.3-0.8,1.1v1c0,0.7,0.2,1.1,0.8,1.1
		C340.7,290.4,340.9,290,340.9,289.3z M339.4,284.9v0.7c0,0.6,0.2,0.9,0.7,0.9c0.5,0,0.7-0.3,0.7-1v-0.6c0-0.5-0.1-1-0.7-1
		C339.5,283.9,339.4,284.3,339.4,284.9z"/>
	<path class="st2" d="M343.6,291.1v-6.8c-0.2,0.1-0.7,0.2-0.9,0.2v-0.7c0.4-0.1,0.9-0.4,1.1-0.6h0.6v7.8H343.6z"/>
	<path class="st2" d="M345.9,291.1v-1.7h0.8v1.7H345.9z"/>
	<path class="st2" d="M347.9,291.1V291c0-1.2,0.6-2.2,1.5-3.5c0.6-0.9,0.8-1.3,0.8-2.2c0-0.9-0.1-1.3-0.7-1.3
		c-0.5,0-0.7,0.4-0.7,1.1v0.4H348V285c0-0.9,0.3-1.8,1.6-1.8c1.2,0,1.5,0.9,1.5,2c0,1.2-0.3,1.7-0.9,2.6c-0.7,1-1.2,1.9-1.3,2.5h2.4
		l-0.1,0.7H347.9z"/>
	<path class="st2" d="M412.1,284h-1.9c0,0.7-0.1,1.7-0.2,2.3c0.2-0.3,0.5-0.5,1-0.5c1,0,1.4,0.8,1.4,2.1v0.9c0,1.3-0.3,2.3-1.7,2.3
		c-1.3,0-1.6-0.9-1.6-1.9v-0.1h0.8v0.2c0,0.5,0.2,1.1,0.8,1.1c0.7,0,0.8-0.6,0.8-1.4v-1c0-0.9-0.1-1.4-0.8-1.4
		c-0.5,0-0.7,0.3-0.8,0.9l-0.8-0.1c0.1-1.1,0.3-3.3,0.3-4.1h2.8L412.1,284z"/>
	<path class="st2" d="M416.9,285.2v4c0,1.3-0.5,2-1.7,2c-1.1,0-1.6-0.7-1.6-2v-4c0-1.5,0.7-2,1.7-2
		C416.2,283.2,416.9,283.7,416.9,285.2z M414.5,285.1v4.1c0,0.8,0.2,1.1,0.8,1.1c0.5,0,0.8-0.3,0.8-1.2v-4.1c0-0.8-0.3-1.2-0.8-1.2
		C414.8,284,414.5,284.2,414.5,285.1z"/>
	<path class="st2" d="M418.2,291.1v-1.7h0.8v1.7H418.2z"/>
	<path class="st2" d="M423.5,285.2v4c0,1.3-0.5,2-1.7,2c-1.1,0-1.6-0.7-1.6-2v-4c0-1.5,0.7-2,1.7-2
		C422.9,283.2,423.5,283.7,423.5,285.2z M421.1,285.1v4.1c0,0.8,0.2,1.1,0.8,1.1c0.5,0,0.8-0.3,0.8-1.2v-4.1c0-0.8-0.3-1.2-0.8-1.2
		C421.4,284,421.1,284.2,421.1,285.1z"/>
	<path class="st2" d="M483.9,283.3v0.6c-1,1.9-1.7,4.3-2,7.2H481c0.3-2.5,1.1-5.2,2-7h-2.3v-0.8H483.9z"/>
	<path class="st2" d="M487.8,284h-1.9c0,0.7-0.1,1.7-0.2,2.3c0.2-0.3,0.5-0.5,1-0.5c1,0,1.4,0.8,1.4,2.1v0.9c0,1.3-0.3,2.3-1.7,2.3
		c-1.3,0-1.6-0.9-1.6-1.9v-0.1h0.8v0.2c0,0.5,0.2,1.1,0.8,1.1c0.7,0,0.8-0.6,0.8-1.4v-1c0-0.9-0.1-1.4-0.8-1.4
		c-0.5,0-0.7,0.3-0.8,0.9l-0.8-0.1c0.1-1.1,0.3-3.3,0.3-4.1h2.8L487.8,284z"/>
	<path class="st2" d="M489.3,291.1v-1.7h0.8v1.7H489.3z"/>
	<path class="st2" d="M494.6,285.2v4c0,1.3-0.5,2-1.7,2c-1.1,0-1.6-0.7-1.6-2v-4c0-1.5,0.7-2,1.7-2
		C494,283.2,494.6,283.7,494.6,285.2z M492.2,285.1v4.1c0,0.8,0.2,1.1,0.8,1.1c0.5,0,0.8-0.3,0.8-1.2v-4.1c0-0.8-0.3-1.2-0.8-1.2
		C492.5,284,492.2,284.2,492.2,285.1z"/>
	<path class="st2" d="M553,289.3v-0.9c0-1,0.4-1.3,0.8-1.5c-0.4-0.2-0.7-0.7-0.7-1.5v-0.5c0-1.1,0.5-1.8,1.6-1.8
		c0.9,0,1.5,0.5,1.5,1.8v0.4c0,1-0.3,1.3-0.7,1.5c0.5,0.2,0.8,0.6,0.8,1.5v0.8c0,1.3-0.5,1.9-1.7,1.9
		C553.7,291.2,553,290.6,553,289.3z M555.5,289.3v-1c0-0.7-0.3-1.1-0.8-1.1s-0.8,0.3-0.8,1.1v1c0,0.7,0.2,1.1,0.8,1.1
		C555.3,290.4,555.5,290,555.5,289.3z M554,284.9v0.7c0,0.6,0.2,0.9,0.7,0.9c0.5,0,0.7-0.3,0.7-1v-0.6c0-0.5-0.1-1-0.7-1
		C554.2,283.9,554,284.3,554,284.9z"/>
	<path class="st2" d="M559.6,291.1V289h-2.2v-0.6l1.9-5.1h1.1v5h0.6L561,289h-0.5v2.1H559.6z M559.6,286.4c0-0.7,0-1.5,0-2.2h0
		c-0.4,1.4-0.9,2.8-1.4,4.1h1.4V286.4z"/>
	<path class="st2" d="M562,291.1v-1.7h0.8v1.7H562z"/>
	<path class="st2" d="M564.5,291.1v-6.8c-0.2,0.1-0.7,0.2-0.9,0.2v-0.7c0.4-0.1,0.9-0.4,1.1-0.6h0.6v7.8H564.5z"/>
	<path class="st2" d="M626.8,284h-1.9c0,0.7-0.1,1.7-0.2,2.3c0.2-0.3,0.5-0.5,1-0.5c1,0,1.4,0.8,1.4,2.1v0.9c0,1.3-0.3,2.3-1.7,2.3
		c-1.3,0-1.6-0.9-1.6-1.9v-0.1h0.8v0.2c0,0.5,0.2,1.1,0.8,1.1c0.7,0,0.8-0.6,0.8-1.4v-1c0-0.9-0.1-1.4-0.8-1.4
		c-0.5,0-0.7,0.3-0.8,0.9l-0.8-0.1c0.1-1.1,0.3-3.3,0.3-4.1h2.8L626.8,284z"/>
	<path class="st2" d="M628.1,291.1V291c0-1.2,0.6-2.2,1.5-3.5c0.6-0.9,0.8-1.3,0.8-2.2c0-0.9-0.1-1.3-0.7-1.3
		c-0.5,0-0.7,0.4-0.7,1.1v0.4h-0.8V285c0-0.9,0.3-1.8,1.6-1.8c1.2,0,1.5,0.9,1.5,2c0,1.2-0.3,1.7-0.9,2.6c-0.7,1-1.2,1.9-1.3,2.5
		h2.4l-0.1,0.7H628.1z"/>
	<path class="st2" d="M632.7,291.1v-1.7h0.8v1.7H632.7z"/>
	<path class="st2" d="M634.7,291.1V291c0-1.2,0.6-2.2,1.5-3.5c0.6-0.9,0.8-1.3,0.8-2.2c0-0.9-0.1-1.3-0.7-1.3
		c-0.5,0-0.7,0.4-0.7,1.1v0.4h-0.8V285c0-0.9,0.3-1.8,1.6-1.8c1.2,0,1.5,0.9,1.5,2c0,1.2-0.3,1.7-0.9,2.6c-0.7,1-1.2,1.9-1.3,2.5
		h2.4l-0.1,0.7H634.7z"/>
	<path class="st2" d="M697.4,291.1V289h-2.2v-0.6l1.9-5.1h1.1v5h0.6l-0.1,0.7h-0.5v2.1H697.4z M697.4,286.4c0-0.7,0-1.5,0-2.2h0
		c-0.4,1.4-0.9,2.8-1.4,4.1h1.4V286.4z"/>
	<path class="st2" d="M699.9,285.1v-0.2c0-0.7,0.2-1.8,1.5-1.8c1.1,0,1.5,0.7,1.5,1.8v0.4c0,0.9-0.3,1.3-0.7,1.5v0
		c0.6,0.2,0.9,0.6,0.9,1.6v0.7c0,1.2-0.4,2.1-1.7,2.1c-1.2,0-1.6-0.7-1.6-1.8v-0.2h0.8v0.2c0,0.6,0.2,1,0.8,1c0.6,0,0.8-0.4,0.8-1.3
		v-0.8c0-0.9-0.3-1.2-1-1.2h-0.3v-0.7h0.3c0.6,0,0.9-0.2,0.9-1.1v-0.4c0-0.6-0.1-1-0.7-1c-0.6,0-0.7,0.5-0.7,1v0.2H699.9z"/>
	<path class="st2" d="M704.3,291.1v-1.7h0.8v1.7H704.3z"/>
	<path class="st2" d="M708.2,291.1V289H706v-0.6l1.9-5.1h1.1v5h0.6l-0.1,0.7H709v2.1H708.2z M708.2,286.4c0-0.7,0-1.5,0-2.2h0
		c-0.4,1.4-0.9,2.8-1.4,4.1h1.4V286.4z"/>
	<path class="st2" d="M769.9,284H768c0,0.7-0.1,1.7-0.2,2.3c0.2-0.3,0.5-0.5,1-0.5c1,0,1.4,0.8,1.4,2.1v0.9c0,1.3-0.3,2.3-1.7,2.3
		c-1.3,0-1.6-0.9-1.6-1.9v-0.1h0.8v0.2c0,0.5,0.2,1.1,0.8,1.1c0.7,0,0.8-0.6,0.8-1.4v-1c0-0.9-0.1-1.4-0.8-1.4
		c-0.5,0-0.7,0.3-0.8,0.9l-0.8-0.1c0.1-1.1,0.3-3.3,0.3-4.1h2.8L769.9,284z"/>
	<path class="st2" d="M772.1,289.4L772.1,289.4c0,0.8,0.2,1.1,0.7,1.1c0.6,0,0.8-0.4,0.8-1.6v-1.4c-0.2,0.4-0.5,0.6-1,0.6
		c-1,0-1.3-0.7-1.3-1.8V285c0-1.2,0.5-1.9,1.6-1.9c1,0,1.6,0.6,1.6,1.9v3.5c0,1.5-0.2,2.6-1.6,2.6c-1.2,0-1.5-0.8-1.5-1.7v0H772.1z
		 M772.1,285v1.2c0,0.5,0.1,1.1,0.7,1.1c0.7,0,0.8-0.6,0.8-1.4V285c0-0.7-0.2-1.1-0.8-1.1C772.3,283.9,772.1,284.2,772.1,285z"/>
	<path class="st2" d="M775.6,291.1v-1.7h0.8v1.7H775.6z"/>
	<path class="st2" d="M777.6,289.3v-0.9c0-1,0.4-1.3,0.8-1.5c-0.4-0.2-0.7-0.7-0.7-1.5v-0.5c0-1.1,0.5-1.8,1.6-1.8
		c0.9,0,1.5,0.5,1.5,1.8v0.4c0,1-0.3,1.3-0.7,1.5c0.5,0.2,0.8,0.6,0.8,1.5v0.8c0,1.3-0.5,1.9-1.7,1.9
		C778.2,291.2,777.6,290.6,777.6,289.3z M780.1,289.3v-1c0-0.7-0.3-1.1-0.8-1.1s-0.8,0.3-0.8,1.1v1c0,0.7,0.2,1.1,0.8,1.1
		C779.9,290.4,780.1,290,780.1,289.3z M778.5,284.9v0.7c0,0.6,0.2,0.9,0.7,0.9c0.5,0,0.7-0.3,0.7-1v-0.6c0-0.5-0.1-1-0.7-1
		C778.7,283.9,778.5,284.3,778.5,284.9z"/>
	<path class="st2" d="M839.7,291.1v-6.8c-0.2,0.1-0.7,0.2-0.9,0.2v-0.7c0.4-0.1,0.9-0.4,1.1-0.6h0.6v7.8H839.7z"/>
	<path class="st2" d="M842.9,289.4L842.9,289.4c0,0.8,0.2,1.1,0.7,1.1c0.6,0,0.8-0.4,0.8-1.6v-1.4c-0.2,0.4-0.5,0.6-1,0.6
		c-1,0-1.3-0.7-1.3-1.8V285c0-1.2,0.5-1.9,1.6-1.9c1,0,1.6,0.6,1.6,1.9v3.5c0,1.5-0.2,2.6-1.6,2.6c-1.2,0-1.5-0.8-1.5-1.7v0H842.9z
		 M842.8,285v1.2c0,0.5,0.1,1.1,0.7,1.1c0.7,0,0.8-0.6,0.8-1.4V285c0-0.7-0.2-1.1-0.8-1.1C843.1,283.9,842.8,284.2,842.8,285z"/>
	<path class="st2" d="M846.3,291.1v-1.7h0.8v1.7H846.3z"/>
	<path class="st2" d="M850.8,285L850.8,285c0-0.4-0.1-1.1-0.7-1.1c-0.6,0-0.8,0.5-0.8,1.5v1.2c0.2-0.3,0.5-0.6,1.1-0.6
		c1,0,1.3,0.8,1.3,1.7v1.4c0,1.2-0.4,2.1-1.6,2.1c-1.3,0-1.6-1-1.6-2.1v-3.7c0-1.3,0.4-2.2,1.6-2.2c1.3,0,1.5,0.9,1.5,1.7v0.1H850.8
		z M850.9,289.2v-1.4c0-0.7-0.2-1.1-0.7-1.1c-0.7,0-0.8,0.6-0.8,1.3v1.2c0,0.6,0.2,1.2,0.8,1.2C850.6,290.4,850.9,290.1,850.9,289.2
		z"/>
	<path class="st2" d="M912,285.1v-0.2c0-0.7,0.2-1.8,1.5-1.8c1.1,0,1.5,0.7,1.5,1.8v0.4c0,0.9-0.3,1.3-0.7,1.5v0
		c0.6,0.2,0.9,0.6,0.9,1.6v0.7c0,1.2-0.4,2.1-1.7,2.1c-1.2,0-1.6-0.7-1.6-1.8v-0.2h0.8v0.2c0,0.6,0.2,1,0.8,1s0.8-0.4,0.8-1.3v-0.8
		c0-0.9-0.3-1.2-1-1.2H913v-0.7h0.3c0.6,0,0.9-0.2,0.9-1.1v-0.4c0-0.6-0.1-1-0.7-1c-0.6,0-0.7,0.5-0.7,1v0.2H912z"/>
	<path class="st2" d="M916.4,291.1v-1.7h0.8v1.7H916.4z"/>
	<path class="st2" d="M921.6,284h-1.9c0,0.7-0.1,1.7-0.2,2.3c0.2-0.3,0.5-0.5,1-0.5c1,0,1.4,0.8,1.4,2.1v0.9c0,1.3-0.3,2.3-1.7,2.3
		c-1.3,0-1.6-0.9-1.6-1.9v-0.1h0.8v0.2c0,0.5,0.2,1.1,0.8,1.1c0.7,0,0.8-0.6,0.8-1.4v-1c0-0.9-0.1-1.4-0.8-1.4
		c-0.5,0-0.7,0.3-0.8,0.9l-0.8-0.1c0.1-1.1,0.3-3.3,0.3-4.1h2.8L921.6,284z"/>
	<path class="st2" d="M202.5,311L202.5,311c0-0.4-0.1-1.1-0.7-1.1c-0.6,0-0.8,0.5-0.8,1.5v1.2c0.2-0.3,0.5-0.6,1.1-0.6
		c1,0,1.3,0.8,1.3,1.7v1.4c0,1.2-0.4,2.1-1.6,2.1c-1.3,0-1.6-1-1.6-2.1v-3.7c0-1.3,0.4-2.2,1.6-2.2c1.3,0,1.5,0.9,1.5,1.7v0.1H202.5
		z M202.6,315.2v-1.4c0-0.7-0.2-1.1-0.7-1.1c-0.7,0-0.8,0.6-0.8,1.3v1.2c0,0.6,0.2,1.2,0.8,1.2C202.3,316.4,202.6,316.1,202.6,315.2
		z"/>
	<path class="st2" d="M267.1,315.4L267.1,315.4c0,0.8,0.2,1.1,0.7,1.1c0.6,0,0.8-0.4,0.8-1.6v-1.4c-0.2,0.4-0.5,0.6-1,0.6
		c-1,0-1.3-0.7-1.3-1.8V311c0-1.2,0.5-1.9,1.6-1.9c1,0,1.6,0.6,1.6,1.9v3.5c0,1.5-0.2,2.6-1.6,2.6c-1.2,0-1.5-0.8-1.5-1.7v0H267.1z
		 M267.1,311v1.2c0,0.5,0.1,1.1,0.7,1.1c0.7,0,0.8-0.6,0.8-1.4V311c0-0.7-0.2-1.1-0.8-1.1C267.3,309.9,267.1,310.2,267.1,311z"/>
	<path class="st2" d="M270.7,315.3v-0.9c0-1,0.4-1.3,0.8-1.5c-0.4-0.2-0.7-0.7-0.7-1.5V311c0-1.1,0.5-1.8,1.6-1.8
		c0.9,0,1.5,0.5,1.5,1.8v0.4c0,1-0.3,1.3-0.7,1.5c0.5,0.2,0.8,0.6,0.8,1.5v0.8c0,1.3-0.5,1.9-1.7,1.9
		C271.3,317.2,270.7,316.6,270.7,315.3z M273.1,315.3v-1c0-0.7-0.3-1.1-0.8-1.1s-0.8,0.3-0.8,1.1v1c0,0.7,0.2,1.1,0.8,1.1
		C272.9,316.4,273.1,316,273.1,315.3z M271.6,310.9v0.7c0,0.6,0.2,0.9,0.7,0.9c0.5,0,0.7-0.3,0.7-1v-0.6c0-0.5-0.1-1-0.7-1
		C271.8,309.9,271.6,310.3,271.6,310.9z"/>
	<path class="st2" d="M275.2,317.1v-1.7h0.8v1.7H275.2z"/>
	<path class="st2" d="M279.2,317.1V315H277v-0.6l1.9-5.1h1.1v5h0.6l-0.1,0.7H280v2.1H279.2z M279.2,312.4c0-0.7,0-1.5,0-2.2h0
		c-0.4,1.4-0.9,2.8-1.4,4.1h1.4V312.4z"/>
	<path class="st2" d="M338.6,315.3v-0.9c0-1,0.4-1.3,0.8-1.5c-0.4-0.2-0.7-0.7-0.7-1.5V311c0-1.1,0.5-1.8,1.6-1.8
		c0.9,0,1.5,0.5,1.5,1.8v0.4c0,1-0.3,1.3-0.7,1.5c0.5,0.2,0.8,0.6,0.8,1.5v0.8c0,1.3-0.5,1.9-1.7,1.9
		C339.2,317.2,338.6,316.6,338.6,315.3z M341,315.3v-1c0-0.7-0.3-1.1-0.8-1.1s-0.8,0.3-0.8,1.1v1c0,0.7,0.2,1.1,0.8,1.1
		C340.8,316.4,341,316,341,315.3z M339.5,310.9v0.7c0,0.6,0.2,0.9,0.7,0.9c0.5,0,0.7-0.3,0.7-1v-0.6c0-0.5-0.1-1-0.7-1
		C339.7,309.9,339.5,310.3,339.5,310.9z"/>
	<path class="st2" d="M344,315.4L344,315.4c0,0.8,0.2,1.1,0.7,1.1c0.6,0,0.8-0.4,0.8-1.6v-1.4c-0.2,0.4-0.5,0.6-1,0.6
		c-1,0-1.3-0.7-1.3-1.8V311c0-1.2,0.5-1.9,1.6-1.9c1,0,1.6,0.6,1.6,1.9v3.5c0,1.5-0.2,2.6-1.6,2.6c-1.2,0-1.5-0.8-1.5-1.7v0H344z
		 M343.9,311v1.2c0,0.5,0.1,1.1,0.7,1.1c0.7,0,0.8-0.6,0.8-1.4V311c0-0.7-0.2-1.1-0.8-1.1C344.2,309.9,343.9,310.2,343.9,311z"/>
	<path class="st2" d="M347.4,317.1v-1.7h0.8v1.7H347.4z"/>
	<path class="st2" d="M349.9,317.1v-6.8c-0.2,0.1-0.7,0.2-0.9,0.2v-0.7c0.4-0.1,0.9-0.4,1.1-0.6h0.6v7.8H349.9z"/>
	<path class="st2" d="M411.5,311L411.5,311c0-0.4-0.1-1.1-0.7-1.1c-0.6,0-0.8,0.5-0.8,1.5v1.2c0.2-0.3,0.5-0.6,1.1-0.6
		c1,0,1.3,0.8,1.3,1.7v1.4c0,1.2-0.4,2.1-1.6,2.1c-1.3,0-1.6-1-1.6-2.1v-3.7c0-1.3,0.4-2.2,1.6-2.2c1.3,0,1.5,0.9,1.5,1.7v0.1H411.5
		z M411.6,315.2v-1.4c0-0.7-0.2-1.1-0.7-1.1c-0.7,0-0.8,0.6-0.8,1.3v1.2c0,0.6,0.2,1.2,0.8,1.2C411.3,316.4,411.6,316.1,411.6,315.2
		z"/>
	<path class="st2" d="M416.7,310h-1.9c0,0.7-0.1,1.7-0.2,2.3c0.2-0.3,0.5-0.5,1-0.5c1,0,1.4,0.8,1.4,2.1v0.9c0,1.3-0.3,2.3-1.7,2.3
		c-1.3,0-1.6-0.9-1.6-1.9v-0.1h0.8v0.2c0,0.5,0.2,1.1,0.8,1.1c0.7,0,0.8-0.6,0.8-1.4v-1c0-0.9-0.1-1.4-0.8-1.4
		c-0.5,0-0.7,0.3-0.8,0.9l-0.8-0.1c0.1-1.1,0.3-3.3,0.3-4.1h2.8L416.7,310z"/>
	<path class="st2" d="M418.2,317.1v-1.7h0.8v1.7H418.2z"/>
	<path class="st2" d="M422.6,311L422.6,311c0-0.4-0.1-1.1-0.7-1.1c-0.6,0-0.8,0.5-0.8,1.5v1.2c0.2-0.3,0.5-0.6,1.1-0.6
		c1,0,1.3,0.8,1.3,1.7v1.4c0,1.2-0.4,2.1-1.6,2.1c-1.3,0-1.6-1-1.6-2.1v-3.7c0-1.3,0.4-2.2,1.6-2.2c1.3,0,1.5,0.9,1.5,1.7v0.1H422.6
		z M422.7,315.2v-1.4c0-0.7-0.2-1.1-0.7-1.1c-0.7,0-0.8,0.6-0.8,1.3v1.2c0,0.6,0.2,1.2,0.8,1.2C422.4,316.4,422.7,316.1,422.7,315.2
		z"/>
	<path class="st2" d="M480.7,315.3v-0.9c0-1,0.4-1.3,0.8-1.5c-0.4-0.2-0.7-0.7-0.7-1.5V311c0-1.1,0.5-1.8,1.6-1.8
		c0.9,0,1.5,0.5,1.5,1.8v0.4c0,1-0.3,1.3-0.7,1.5c0.5,0.2,0.8,0.6,0.8,1.5v0.8c0,1.3-0.5,1.9-1.7,1.9
		C481.3,317.2,480.7,316.6,480.7,315.3z M483.1,315.3v-1c0-0.7-0.3-1.1-0.8-1.1s-0.8,0.3-0.8,1.1v1c0,0.7,0.2,1.1,0.8,1.1
		C482.9,316.4,483.1,316,483.1,315.3z M481.6,310.9v0.7c0,0.6,0.2,0.9,0.7,0.9c0.5,0,0.7-0.3,0.7-1v-0.6c0-0.5-0.1-1-0.7-1
		C481.8,309.9,481.6,310.3,481.6,310.9z"/>
	<path class="st2" d="M485.2,315.3v-0.9c0-1,0.4-1.3,0.8-1.5c-0.4-0.2-0.7-0.7-0.7-1.5V311c0-1.1,0.5-1.8,1.6-1.8
		c0.9,0,1.5,0.5,1.5,1.8v0.4c0,1-0.3,1.3-0.7,1.5c0.5,0.2,0.8,0.6,0.8,1.5v0.8c0,1.3-0.5,1.9-1.7,1.9
		C485.8,317.2,485.2,316.6,485.2,315.3z M487.6,315.3v-1c0-0.7-0.3-1.1-0.8-1.1s-0.8,0.3-0.8,1.1v1c0,0.7,0.2,1.1,0.8,1.1
		C487.5,316.4,487.6,316,487.6,315.3z M486.1,310.9v0.7c0,0.6,0.2,0.9,0.7,0.9c0.5,0,0.7-0.3,0.7-1v-0.6c0-0.5-0.1-1-0.7-1
		C486.3,309.9,486.1,310.3,486.1,310.9z"/>
	<path class="st2" d="M489.7,317.1v-1.7h0.8v1.7H489.7z"/>
	<path class="st2" d="M491.7,317.1V317c0-1.2,0.6-2.2,1.5-3.5c0.6-0.9,0.8-1.3,0.8-2.2c0-0.9-0.1-1.3-0.7-1.3
		c-0.5,0-0.7,0.4-0.7,1.1v0.4h-0.8V311c0-0.9,0.3-1.8,1.6-1.8c1.2,0,1.5,0.9,1.5,2c0,1.2-0.3,1.7-0.9,2.6c-0.7,1-1.2,1.9-1.3,2.5
		h2.4l-0.1,0.7H491.7z"/>
	<path class="st2" d="M552.2,315.3v-0.9c0-1,0.4-1.3,0.8-1.5c-0.4-0.2-0.7-0.7-0.7-1.5V311c0-1.1,0.5-1.8,1.6-1.8
		c0.9,0,1.5,0.5,1.5,1.8v0.4c0,1-0.3,1.3-0.7,1.5c0.5,0.2,0.8,0.6,0.8,1.5v0.8c0,1.3-0.5,1.9-1.7,1.9
		C552.9,317.2,552.2,316.6,552.2,315.3z M554.7,315.3v-1c0-0.7-0.3-1.1-0.8-1.1s-0.8,0.3-0.8,1.1v1c0,0.7,0.2,1.1,0.8,1.1
		C554.5,316.4,554.7,316,554.7,315.3z M553.2,310.9v0.7c0,0.6,0.2,0.9,0.7,0.9c0.5,0,0.7-0.3,0.7-1v-0.6c0-0.5-0.1-1-0.7-1
		C553.4,309.9,553.2,310.3,553.2,310.9z"/>
	<path class="st2" d="M557.6,315.4L557.6,315.4c0,0.8,0.2,1.1,0.7,1.1c0.6,0,0.8-0.4,0.8-1.6v-1.4c-0.2,0.4-0.5,0.6-1,0.6
		c-1,0-1.3-0.7-1.3-1.8V311c0-1.2,0.5-1.9,1.6-1.9c1,0,1.6,0.6,1.6,1.9v3.5c0,1.5-0.2,2.6-1.6,2.6c-1.2,0-1.5-0.8-1.5-1.7v0H557.6z
		 M557.6,311v1.2c0,0.5,0.1,1.1,0.7,1.1c0.7,0,0.8-0.6,0.8-1.4V311c0-0.7-0.2-1.1-0.8-1.1C557.8,309.9,557.6,310.2,557.6,311z"/>
	<path class="st2" d="M561.1,317.1v-1.7h0.8v1.7H561.1z"/>
	<path class="st2" d="M563.1,315.3v-0.9c0-1,0.4-1.3,0.8-1.5c-0.4-0.2-0.7-0.7-0.7-1.5V311c0-1.1,0.5-1.8,1.6-1.8
		c0.9,0,1.5,0.5,1.5,1.8v0.4c0,1-0.3,1.3-0.7,1.5c0.5,0.2,0.8,0.6,0.8,1.5v0.8c0,1.3-0.5,1.9-1.7,1.9
		C563.8,317.2,563.1,316.6,563.1,315.3z M565.6,315.3v-1c0-0.7-0.3-1.1-0.8-1.1s-0.8,0.3-0.8,1.1v1c0,0.7,0.2,1.1,0.8,1.1
		C565.4,316.4,565.6,316,565.6,315.3z M564.1,310.9v0.7c0,0.6,0.2,0.9,0.7,0.9c0.5,0,0.7-0.3,0.7-1v-0.6c0-0.5-0.1-1-0.7-1
		C564.2,309.9,564.1,310.3,564.1,310.9z"/>
	<path class="st2" d="M626.1,311L626.1,311c0-0.4-0.1-1.1-0.7-1.1c-0.6,0-0.8,0.5-0.8,1.5v1.2c0.2-0.3,0.5-0.6,1.1-0.6
		c1,0,1.3,0.8,1.3,1.7v1.4c0,1.2-0.4,2.1-1.6,2.1c-1.3,0-1.6-1-1.6-2.1v-3.7c0-1.3,0.4-2.2,1.6-2.2c1.3,0,1.5,0.9,1.5,1.7v0.1H626.1
		z M626.2,315.2v-1.4c0-0.7-0.2-1.1-0.7-1.1c-0.7,0-0.8,0.6-0.8,1.3v1.2c0,0.6,0.2,1.2,0.8,1.2C625.9,316.4,626.2,316.1,626.2,315.2
		z"/>
	<path class="st2" d="M628.3,311.1V311c0-0.7,0.2-1.8,1.5-1.8c1.1,0,1.5,0.7,1.5,1.8v0.4c0,0.9-0.3,1.3-0.7,1.5v0
		c0.6,0.2,0.9,0.6,0.9,1.6v0.7c0,1.2-0.4,2.1-1.7,2.1c-1.2,0-1.6-0.7-1.6-1.8v-0.2h0.8v0.2c0,0.6,0.2,1,0.8,1c0.6,0,0.8-0.4,0.8-1.3
		v-0.8c0-0.9-0.3-1.2-1-1.2h-0.3v-0.7h0.3c0.6,0,0.9-0.2,0.9-1.1v-0.4c0-0.6-0.1-1-0.7-1c-0.6,0-0.7,0.5-0.7,1v0.2H628.3z"/>
	<path class="st2" d="M632.7,317.1v-1.7h0.8v1.7H632.7z"/>
	<path class="st2" d="M635.6,315.4L635.6,315.4c0,0.8,0.2,1.1,0.7,1.1c0.6,0,0.8-0.4,0.8-1.6v-1.4c-0.2,0.4-0.5,0.6-1,0.6
		c-1,0-1.3-0.7-1.3-1.8V311c0-1.2,0.5-1.9,1.6-1.9c1,0,1.6,0.6,1.6,1.9v3.5c0,1.5-0.2,2.6-1.6,2.6c-1.2,0-1.5-0.8-1.5-1.7v0H635.6z
		 M635.6,311v1.2c0,0.5,0.1,1.1,0.7,1.1c0.7,0,0.8-0.6,0.8-1.4V311c0-0.7-0.2-1.1-0.8-1.1C635.8,309.9,635.6,310.2,635.6,311z"/>
	<path class="st2" d="M698.2,310h-1.9c0,0.7-0.1,1.7-0.2,2.3c0.2-0.3,0.5-0.5,1-0.5c1,0,1.4,0.8,1.4,2.1v0.9c0,1.3-0.3,2.3-1.7,2.3
		c-1.3,0-1.6-0.9-1.6-1.9v-0.1h0.8v0.2c0,0.5,0.2,1.1,0.8,1.1c0.7,0,0.8-0.6,0.8-1.4v-1c0-0.9-0.1-1.4-0.8-1.4
		c-0.5,0-0.7,0.3-0.8,0.9l-0.8-0.1c0.1-1.1,0.3-3.3,0.3-4.1h2.8L698.2,310z"/>
	<path class="st2" d="M699.8,311.1V311c0-0.7,0.2-1.8,1.5-1.8c1.1,0,1.5,0.7,1.5,1.8v0.4c0,0.9-0.3,1.3-0.7,1.5v0
		c0.6,0.2,0.9,0.6,0.9,1.6v0.7c0,1.2-0.4,2.1-1.7,2.1c-1.2,0-1.6-0.7-1.6-1.8v-0.2h0.8v0.2c0,0.6,0.2,1,0.8,1c0.6,0,0.8-0.4,0.8-1.3
		v-0.8c0-0.9-0.3-1.2-1-1.2h-0.3v-0.7h0.3c0.6,0,0.9-0.2,0.9-1.1v-0.4c0-0.6-0.1-1-0.7-1c-0.6,0-0.7,0.5-0.7,1v0.2H699.8z"/>
	<path class="st2" d="M704.2,317.1v-1.7h0.8v1.7H704.2z"/>
	<path class="st2" d="M706.4,311.1V311c0-0.7,0.2-1.8,1.5-1.8c1.1,0,1.5,0.7,1.5,1.8v0.4c0,0.9-0.3,1.3-0.7,1.5v0
		c0.6,0.2,0.9,0.6,0.9,1.6v0.7c0,1.2-0.4,2.1-1.7,2.1c-1.2,0-1.6-0.7-1.6-1.8v-0.2h0.8v0.2c0,0.6,0.2,1,0.8,1s0.8-0.4,0.8-1.3v-0.8
		c0-0.9-0.3-1.2-1-1.2h-0.3v-0.7h0.3c0.6,0,0.9-0.2,0.9-1.1v-0.4c0-0.6-0.1-1-0.7-1c-0.6,0-0.7,0.5-0.7,1v0.2H706.4z"/>
	<path class="st2" d="M769.1,311L769.1,311c0-0.4-0.1-1.1-0.7-1.1c-0.6,0-0.8,0.5-0.8,1.5v1.2c0.2-0.3,0.5-0.6,1.1-0.6
		c1,0,1.3,0.8,1.3,1.7v1.4c0,1.2-0.4,2.1-1.6,2.1c-1.3,0-1.6-1-1.6-2.1v-3.7c0-1.3,0.4-2.2,1.6-2.2c1.3,0,1.5,0.9,1.5,1.7v0.1H769.1
		z M769.1,315.2v-1.4c0-0.7-0.2-1.1-0.7-1.1c-0.7,0-0.8,0.6-0.8,1.3v1.2c0,0.6,0.2,1.2,0.8,1.2C768.9,316.4,769.1,316.1,769.1,315.2
		z"/>
	<path class="st2" d="M773.6,311L773.6,311c0-0.4-0.1-1.1-0.7-1.1c-0.6,0-0.8,0.5-0.8,1.5v1.2c0.2-0.3,0.5-0.6,1.1-0.6
		c1,0,1.3,0.8,1.3,1.7v1.4c0,1.2-0.4,2.1-1.6,2.1c-1.3,0-1.6-1-1.6-2.1v-3.7c0-1.3,0.4-2.2,1.6-2.2c1.3,0,1.5,0.9,1.5,1.7v0.1H773.6
		z M773.6,315.2v-1.4c0-0.7-0.2-1.1-0.7-1.1c-0.7,0-0.8,0.6-0.8,1.3v1.2c0,0.6,0.2,1.2,0.8,1.2C773.4,316.4,773.6,316.1,773.6,315.2
		z"/>
	<path class="st2" d="M775.7,317.1v-1.7h0.8v1.7H775.7z"/>
	<path class="st2" d="M780.8,310h-1.9c0,0.7-0.1,1.7-0.2,2.3c0.2-0.3,0.5-0.5,1-0.5c1,0,1.4,0.8,1.4,2.1v0.9c0,1.3-0.3,2.3-1.7,2.3
		c-1.3,0-1.6-0.9-1.6-1.9v-0.1h0.8v0.2c0,0.5,0.2,1.1,0.8,1.1c0.7,0,0.8-0.6,0.8-1.4v-1c0-0.9-0.1-1.4-0.8-1.4
		c-0.5,0-0.7,0.3-0.8,0.9l-0.8-0.1c0.1-1.1,0.3-3.3,0.3-4.1h2.8L780.8,310z"/>
	<path class="st2" d="M838.2,317.1V317c0-1.2,0.6-2.2,1.5-3.5c0.6-0.9,0.8-1.3,0.8-2.2c0-0.9-0.1-1.3-0.7-1.3
		c-0.5,0-0.7,0.4-0.7,1.1v0.4h-0.8V311c0-0.9,0.3-1.8,1.6-1.8c1.2,0,1.5,0.9,1.5,2c0,1.2-0.3,1.7-0.9,2.6c-0.7,1-1.2,1.9-1.3,2.5
		h2.4l-0.1,0.7H838.2z"/>
	<path class="st2" d="M844.9,311L844.9,311c0-0.4-0.1-1.1-0.7-1.1c-0.6,0-0.8,0.5-0.8,1.5v1.2c0.2-0.3,0.5-0.6,1.1-0.6
		c1,0,1.3,0.8,1.3,1.7v1.4c0,1.2-0.4,2.1-1.6,2.1c-1.3,0-1.6-1-1.6-2.1v-3.7c0-1.3,0.4-2.2,1.6-2.2c1.3,0,1.5,0.9,1.5,1.7v0.1H844.9
		z M845,315.2v-1.4c0-0.7-0.2-1.1-0.7-1.1c-0.7,0-0.8,0.6-0.8,1.3v1.2c0,0.6,0.2,1.2,0.8,1.2C844.8,316.4,845,316.1,845,315.2z"/>
	<path class="st2" d="M847,317.1v-1.7h0.8v1.7H847z"/>
	<path class="st2" d="M849.2,311.1V311c0-0.7,0.2-1.8,1.5-1.8c1.1,0,1.5,0.7,1.5,1.8v0.4c0,0.9-0.3,1.3-0.7,1.5v0
		c0.6,0.2,0.9,0.6,0.9,1.6v0.7c0,1.2-0.4,2.1-1.7,2.1c-1.2,0-1.6-0.7-1.6-1.8v-0.2h0.8v0.2c0,0.6,0.2,1,0.8,1c0.6,0,0.8-0.4,0.8-1.3
		v-0.8c0-0.9-0.3-1.2-1-1.2h-0.3v-0.7h0.3c0.6,0,0.9-0.2,0.9-1.1v-0.4c0-0.6-0.1-1-0.7-1c-0.6,0-0.7,0.5-0.7,1v0.2H849.2z"/>
	<path class="st2" d="M914.4,311L914.4,311c0-0.4-0.1-1.1-0.7-1.1c-0.6,0-0.8,0.5-0.8,1.5v1.2c0.2-0.3,0.5-0.6,1.1-0.6
		c1,0,1.3,0.8,1.3,1.7v1.4c0,1.2-0.4,2.1-1.6,2.1c-1.3,0-1.6-1-1.6-2.1v-3.7c0-1.3,0.4-2.2,1.6-2.2c1.3,0,1.5,0.9,1.5,1.7v0.1H914.4
		z M914.5,315.2v-1.4c0-0.7-0.2-1.1-0.7-1.1c-0.7,0-0.8,0.6-0.8,1.3v1.2c0,0.6,0.2,1.2,0.8,1.2C914.2,316.4,914.5,316.1,914.5,315.2
		z"/>
	<path class="st2" d="M916.5,317.1v-1.7h0.8v1.7H916.5z"/>
	<path class="st2" d="M918.5,317.1V317c0-1.2,0.6-2.2,1.5-3.5c0.6-0.9,0.8-1.3,0.8-2.2c0-0.9-0.1-1.3-0.7-1.3
		c-0.5,0-0.7,0.4-0.7,1.1v0.4h-0.8V311c0-0.9,0.3-1.8,1.6-1.8c1.2,0,1.5,0.9,1.5,2c0,1.2-0.3,1.7-0.9,2.6c-0.7,1-1.2,1.9-1.3,2.5
		h2.4l-0.1,0.7H918.5z"/>
	<path class="st2" d="M203.4,335.3v0.6c-1,1.9-1.7,4.3-2,7.2h-0.9c0.3-2.5,1.1-5.2,2-7h-2.3v-0.8H203.4z"/>
	<path class="st2" d="M267.2,341.4L267.2,341.4c0,0.8,0.2,1.1,0.7,1.1c0.6,0,0.8-0.4,0.8-1.6v-1.4c-0.2,0.4-0.5,0.6-1,0.6
		c-1,0-1.3-0.7-1.3-1.8V337c0-1.2,0.5-1.9,1.6-1.9c1,0,1.6,0.6,1.6,1.9v3.5c0,1.5-0.2,2.6-1.6,2.6c-1.2,0-1.5-0.8-1.5-1.7v0H267.2z
		 M267.1,337v1.2c0,0.5,0.1,1.1,0.7,1.1c0.7,0,0.8-0.6,0.8-1.4V337c0-0.7-0.2-1.1-0.8-1.1C267.4,335.9,267.1,336.2,267.1,337z"/>
	<path class="st2" d="M271.6,341.4L271.6,341.4c0,0.8,0.2,1.1,0.7,1.1c0.6,0,0.8-0.4,0.8-1.6v-1.4c-0.2,0.4-0.5,0.6-1,0.6
		c-1,0-1.3-0.7-1.3-1.8V337c0-1.2,0.5-1.9,1.6-1.9c1,0,1.6,0.6,1.6,1.9v3.5c0,1.5-0.2,2.6-1.6,2.6c-1.2,0-1.5-0.8-1.5-1.7v0H271.6z
		 M271.5,337v1.2c0,0.5,0.1,1.1,0.7,1.1c0.7,0,0.8-0.6,0.8-1.4V337c0-0.7-0.2-1.1-0.8-1.1C271.8,335.9,271.5,336.2,271.5,337z"/>
	<path class="st2" d="M275,343.1v-1.7h0.8v1.7H275z"/>
	<path class="st2" d="M277,343.1V343c0-1.2,0.6-2.2,1.5-3.5c0.6-0.9,0.8-1.3,0.8-2.2c0-0.9-0.1-1.3-0.7-1.3c-0.5,0-0.7,0.4-0.7,1.1
		v0.4h-0.8V337c0-0.9,0.3-1.8,1.6-1.8c1.2,0,1.5,0.9,1.5,2c0,1.2-0.3,1.7-0.9,2.6c-0.7,1-1.2,1.9-1.3,2.5h2.4l-0.1,0.7H277z"/>
	<path class="st2" d="M338.6,341.4L338.6,341.4c0,0.8,0.2,1.1,0.7,1.1c0.6,0,0.8-0.4,0.8-1.6v-1.4c-0.2,0.4-0.5,0.6-1,0.6
		c-1,0-1.3-0.7-1.3-1.8V337c0-1.2,0.5-1.9,1.6-1.9c1,0,1.6,0.6,1.6,1.9v3.5c0,1.5-0.2,2.6-1.6,2.6c-1.2,0-1.5-0.8-1.5-1.7v0H338.6z
		 M338.5,337v1.2c0,0.5,0.1,1.1,0.7,1.1c0.7,0,0.8-0.6,0.8-1.4V337c0-0.7-0.2-1.1-0.8-1.1C338.8,335.9,338.5,336.2,338.5,337z"/>
	<path class="st2" d="M342.2,337.1V337c0-0.7,0.2-1.8,1.5-1.8c1.1,0,1.5,0.7,1.5,1.8v0.4c0,0.9-0.3,1.3-0.7,1.5v0
		c0.6,0.2,0.9,0.6,0.9,1.6v0.7c0,1.2-0.4,2.1-1.7,2.1c-1.2,0-1.6-0.7-1.6-1.8v-0.2h0.8v0.2c0,0.6,0.2,1,0.8,1c0.6,0,0.8-0.4,0.8-1.3
		v-0.8c0-0.9-0.3-1.2-1-1.2h-0.3v-0.7h0.3c0.6,0,0.9-0.2,0.9-1.1v-0.4c0-0.6-0.1-1-0.7-1c-0.6,0-0.7,0.5-0.7,1v0.2H342.2z"/>
	<path class="st2" d="M346.6,343.1v-1.7h0.8v1.7H346.6z"/>
	<path class="st2" d="M348.6,341.3v-0.9c0-1,0.4-1.3,0.8-1.5c-0.4-0.2-0.7-0.7-0.7-1.5V337c0-1.1,0.5-1.8,1.6-1.8
		c0.9,0,1.5,0.5,1.5,1.8v0.4c0,1-0.3,1.3-0.7,1.5c0.5,0.2,0.8,0.6,0.8,1.5v0.8c0,1.3-0.5,1.9-1.7,1.9
		C349.2,343.2,348.6,342.6,348.6,341.3z M351,341.3v-1c0-0.7-0.3-1.1-0.8-1.1s-0.8,0.3-0.8,1.1v1c0,0.7,0.2,1.1,0.8,1.1
		C350.9,342.4,351,342,351,341.3z M349.5,336.9v0.7c0,0.6,0.2,0.9,0.7,0.9c0.5,0,0.7-0.3,0.7-1v-0.6c0-0.5-0.1-1-0.7-1
		C349.7,335.9,349.5,336.3,349.5,336.9z"/>
	<path class="st2" d="M413,335.3v0.6c-1,1.9-1.7,4.3-2,7.2h-0.9c0.3-2.5,1.1-5.2,2-7h-2.3v-0.8H413z"/>
	<path class="st2" d="M417.3,335.3v0.6c-1,1.9-1.7,4.3-2,7.2h-0.9c0.3-2.5,1.1-5.2,2-7h-2.3v-0.8H417.3z"/>
	<path class="st2" d="M417.1,343.1v-1.7h0.8v1.7H417.1z"/>
	<path class="st2" d="M419.3,337.1V337c0-0.7,0.2-1.8,1.5-1.8c1.1,0,1.5,0.7,1.5,1.8v0.4c0,0.9-0.3,1.3-0.7,1.5v0
		c0.6,0.2,0.9,0.6,0.9,1.6v0.7c0,1.2-0.4,2.1-1.7,2.1c-1.2,0-1.6-0.7-1.6-1.8v-0.2h0.8v0.2c0,0.6,0.2,1,0.8,1c0.6,0,0.8-0.4,0.8-1.3
		v-0.8c0-0.9-0.3-1.2-1-1.2h-0.3v-0.7h0.3c0.6,0,0.9-0.2,0.9-1.1v-0.4c0-0.6-0.1-1-0.7-1c-0.6,0-0.7,0.5-0.7,1v0.2H419.3z"/>
	<path class="st2" d="M481.6,341.4L481.6,341.4c0,0.8,0.2,1.1,0.7,1.1c0.6,0,0.8-0.4,0.8-1.6v-1.4c-0.2,0.4-0.5,0.6-1,0.6
		c-1,0-1.3-0.7-1.3-1.8V337c0-1.2,0.5-1.9,1.6-1.9c1,0,1.6,0.6,1.6,1.9v3.5c0,1.5-0.2,2.6-1.6,2.6c-1.2,0-1.5-0.8-1.5-1.7v0H481.6z
		 M481.5,337v1.2c0,0.5,0.1,1.1,0.7,1.1c0.7,0,0.8-0.6,0.8-1.4V337c0-0.7-0.2-1.1-0.8-1.1C481.8,335.9,481.5,336.2,481.5,337z"/>
	<path class="st2" d="M487.3,343.1V341h-2.2v-0.6l1.9-5.1h1.1v5h0.6l-0.1,0.7h-0.5v2.1H487.3z M487.3,338.4c0-0.7,0-1.5,0-2.2h0
		c-0.4,1.4-0.9,2.8-1.4,4.1h1.4V338.4z"/>
	<path class="st2" d="M489.7,343.1v-1.7h0.8v1.7H489.7z"/>
	<path class="st2" d="M492.6,341.4L492.6,341.4c0,0.8,0.2,1.1,0.7,1.1c0.6,0,0.8-0.4,0.8-1.6v-1.4c-0.2,0.4-0.5,0.6-1,0.6
		c-1,0-1.3-0.7-1.3-1.8V337c0-1.2,0.5-1.9,1.6-1.9c1,0,1.6,0.6,1.6,1.9v3.5c0,1.5-0.2,2.6-1.6,2.6c-1.2,0-1.5-0.8-1.5-1.7v0H492.6z
		 M492.6,337v1.2c0,0.5,0.1,1.1,0.7,1.1c0.7,0,0.8-0.6,0.8-1.4V337c0-0.7-0.2-1.1-0.8-1.1C492.8,335.9,492.6,336.2,492.6,337z"/>
	<path class="st2" d="M553.2,341.4L553.2,341.4c0,0.8,0.2,1.1,0.7,1.1c0.6,0,0.8-0.4,0.8-1.6v-1.4c-0.2,0.4-0.5,0.6-1,0.6
		c-1,0-1.3-0.7-1.3-1.8V337c0-1.2,0.5-1.9,1.6-1.9c1,0,1.6,0.6,1.6,1.9v3.5c0,1.5-0.2,2.6-1.6,2.6c-1.2,0-1.5-0.8-1.5-1.7v0H553.2z
		 M553.2,337v1.2c0,0.5,0.1,1.1,0.7,1.1c0.7,0,0.8-0.6,0.8-1.4V337c0-0.7-0.2-1.1-0.8-1.1C553.4,335.9,553.2,336.2,553.2,337z"/>
	<path class="st2" d="M556.8,337.1V337c0-0.7,0.2-1.8,1.5-1.8c1.1,0,1.5,0.7,1.5,1.8v0.4c0,0.9-0.3,1.3-0.7,1.5v0
		c0.6,0.2,0.9,0.6,0.9,1.6v0.7c0,1.2-0.4,2.1-1.7,2.1c-1.2,0-1.6-0.7-1.6-1.8v-0.2h0.8v0.2c0,0.6,0.2,1,0.8,1c0.6,0,0.8-0.4,0.8-1.3
		v-0.8c0-0.9-0.3-1.2-1-1.2h-0.3v-0.7h0.3c0.6,0,0.9-0.2,0.9-1.1v-0.4c0-0.6-0.1-1-0.7-1c-0.6,0-0.7,0.5-0.7,1v0.2H556.8z"/>
	<path class="st2" d="M561.2,343.1v-1.7h0.8v1.7H561.2z"/>
	<path class="st2" d="M565.2,343.1V341H563v-0.6l1.9-5.1h1.1v5h0.6l-0.1,0.7H566v2.1H565.2z M565.2,338.4c0-0.7,0-1.5,0-2.2h0
		c-0.4,1.4-0.9,2.8-1.4,4.1h1.4V338.4z"/>
	<path class="st2" d="M627.8,335.3v0.6c-1,1.9-1.7,4.3-2,7.2h-0.9c0.3-2.5,1.1-5.2,2-7h-2.3v-0.8H627.8z"/>
	<path class="st2" d="M628.8,337.1V337c0-0.7,0.2-1.8,1.5-1.8c1.1,0,1.5,0.7,1.5,1.8v0.4c0,0.9-0.3,1.3-0.7,1.5v0
		c0.6,0.2,0.9,0.6,0.9,1.6v0.7c0,1.2-0.4,2.1-1.7,2.1c-1.2,0-1.6-0.7-1.6-1.8v-0.2h0.8v0.2c0,0.6,0.2,1,0.8,1s0.8-0.4,0.8-1.3v-0.8
		c0-0.9-0.3-1.2-1-1.2h-0.3v-0.7h0.3c0.6,0,0.9-0.2,0.9-1.1v-0.4c0-0.6-0.1-1-0.7-1c-0.6,0-0.7,0.5-0.7,1v0.2H628.8z"/>
	<path class="st2" d="M633.2,343.1v-1.7h0.8v1.7H633.2z"/>
	<path class="st2" d="M635.7,343.1v-6.8c-0.2,0.1-0.7,0.2-0.9,0.2v-0.7c0.4-0.1,0.9-0.4,1.1-0.6h0.6v7.8H635.7z"/>
	<path class="st2" d="M698.4,337L698.4,337c0-0.4-0.1-1.1-0.7-1.1c-0.6,0-0.8,0.5-0.8,1.5v1.2c0.2-0.3,0.5-0.6,1.1-0.6
		c1,0,1.3,0.8,1.3,1.7v1.4c0,1.2-0.4,2.1-1.6,2.1c-1.3,0-1.6-1-1.6-2.1v-3.7c0-1.3,0.4-2.2,1.6-2.2c1.3,0,1.5,0.9,1.5,1.7v0.1H698.4
		z M698.4,341.2v-1.4c0-0.7-0.2-1.1-0.7-1.1c-0.7,0-0.8,0.6-0.8,1.3v1.2c0,0.6,0.2,1.2,0.8,1.2C698.2,342.4,698.4,342.1,698.4,341.2
		z"/>
	<path class="st2" d="M701.1,343.1v-6.8c-0.2,0.1-0.7,0.2-0.9,0.2v-0.7c0.4-0.1,0.9-0.4,1.1-0.6h0.6v7.8H701.1z"/>
	<path class="st2" d="M703.5,343.1v-1.7h0.8v1.7H703.5z"/>
	<path class="st2" d="M706.4,341.4L706.4,341.4c0,0.8,0.2,1.1,0.7,1.1c0.6,0,0.8-0.4,0.8-1.6v-1.4c-0.2,0.4-0.5,0.6-1,0.6
		c-1,0-1.3-0.7-1.3-1.8V337c0-1.2,0.5-1.9,1.6-1.9c1,0,1.6,0.6,1.6,1.9v3.5c0,1.5-0.2,2.6-1.6,2.6c-1.2,0-1.5-0.8-1.5-1.7v0H706.4z
		 M706.4,337v1.2c0,0.5,0.1,1.1,0.7,1.1c0.7,0,0.8-0.6,0.8-1.4V337c0-0.7-0.2-1.1-0.8-1.1C706.6,335.9,706.4,336.2,706.4,337z"/>
	<path class="st2" d="M770.8,335.3v0.6c-1,1.9-1.7,4.3-2,7.2h-0.9c0.3-2.5,1.1-5.2,2-7h-2.3v-0.8H770.8z"/>
	<path class="st2" d="M771.7,343.1V343c0-1.2,0.6-2.2,1.5-3.5c0.6-0.9,0.8-1.3,0.8-2.2c0-0.9-0.1-1.3-0.7-1.3
		c-0.5,0-0.7,0.4-0.7,1.1v0.4h-0.8V337c0-0.9,0.3-1.8,1.6-1.8c1.2,0,1.5,0.9,1.5,2c0,1.2-0.3,1.7-0.9,2.6c-0.7,1-1.2,1.9-1.3,2.5
		h2.4l-0.1,0.7H771.7z"/>
	<path class="st2" d="M776.3,343.1v-1.7h0.8v1.7H776.3z"/>
	<path class="st2" d="M778.7,343.1v-6.8c-0.2,0.1-0.7,0.2-0.9,0.2v-0.7c0.4-0.1,0.9-0.4,1.1-0.6h0.6v7.8H778.7z"/>
	<path class="st2" d="M838.3,337.1V337c0-0.7,0.2-1.8,1.5-1.8c1.1,0,1.5,0.7,1.5,1.8v0.4c0,0.9-0.3,1.3-0.7,1.5v0
		c0.6,0.2,0.9,0.6,0.9,1.6v0.7c0,1.2-0.4,2.1-1.7,2.1c-1.2,0-1.6-0.7-1.6-1.8v-0.2h0.8v0.2c0,0.6,0.2,1,0.8,1c0.6,0,0.8-0.4,0.8-1.3
		v-0.8c0-0.9-0.3-1.2-1-1.2h-0.3v-0.7h0.3c0.6,0,0.9-0.2,0.9-1.1v-0.4c0-0.6-0.1-1-0.7-1c-0.6,0-0.7,0.5-0.7,1v0.2H838.3z"/>
	<path class="st2" d="M842.7,337.1V337c0-0.7,0.2-1.8,1.5-1.8c1.1,0,1.5,0.7,1.5,1.8v0.4c0,0.9-0.3,1.3-0.7,1.5v0
		c0.6,0.2,0.9,0.6,0.9,1.6v0.7c0,1.2-0.4,2.1-1.7,2.1c-1.2,0-1.6-0.7-1.6-1.8v-0.2h0.8v0.2c0,0.6,0.2,1,0.8,1c0.6,0,0.8-0.4,0.8-1.3
		v-0.8c0-0.9-0.3-1.2-1-1.2h-0.3v-0.7h0.3c0.6,0,0.9-0.2,0.9-1.1v-0.4c0-0.6-0.1-1-0.7-1c-0.6,0-0.7,0.5-0.7,1v0.2H842.7z"/>
	<path class="st2" d="M847.1,343.1v-1.7h0.8v1.7H847.1z"/>
	<path class="st2" d="M852.5,337.2v4c0,1.3-0.5,2-1.7,2c-1.1,0-1.6-0.7-1.6-2v-4c0-1.5,0.7-2,1.7-2
		C851.8,335.2,852.5,335.7,852.5,337.2z M850,337.1v4.1c0,0.8,0.2,1.1,0.8,1.1c0.5,0,0.8-0.3,0.8-1.2v-4.1c0-0.8-0.3-1.2-0.8-1.2
		C850.3,336,850,336.2,850,337.1z"/>
	<path class="st2" d="M912.9,341.4L912.9,341.4c0,0.8,0.2,1.1,0.7,1.1c0.6,0,0.8-0.4,0.8-1.6v-1.4c-0.2,0.4-0.5,0.6-1,0.6
		c-1,0-1.3-0.7-1.3-1.8V337c0-1.2,0.5-1.9,1.6-1.9c1,0,1.6,0.6,1.6,1.9v3.5c0,1.5-0.2,2.6-1.6,2.6c-1.2,0-1.5-0.8-1.5-1.7v0H912.9z
		 M912.9,337v1.2c0,0.5,0.1,1.1,0.7,1.1c0.7,0,0.8-0.6,0.8-1.4V337c0-0.7-0.2-1.1-0.8-1.1C913.1,335.9,912.9,336.2,912.9,337z"/>
	<path class="st2" d="M916.4,343.1v-1.7h0.8v1.7H916.4z"/>
	<path class="st2" d="M920.9,337L920.9,337c0-0.4-0.1-1.1-0.7-1.1c-0.6,0-0.8,0.5-0.8,1.5v1.2c0.2-0.3,0.5-0.6,1.1-0.6
		c1,0,1.3,0.8,1.3,1.7v1.4c0,1.2-0.4,2.1-1.6,2.1c-1.3,0-1.6-1-1.6-2.1v-3.7c0-1.3,0.4-2.2,1.6-2.2c1.3,0,1.5,0.9,1.5,1.7v0.1H920.9
		z M920.9,341.2v-1.4c0-0.7-0.2-1.1-0.7-1.1c-0.7,0-0.8,0.6-0.8,1.3v1.2c0,0.6,0.2,1.2,0.8,1.2C920.7,342.4,920.9,342.1,920.9,341.2
		z"/>
	<path class="st2" d="M200.1,367.3v-0.9c0-1,0.4-1.3,0.8-1.5c-0.4-0.2-0.7-0.7-0.7-1.5V363c0-1.1,0.5-1.8,1.6-1.8
		c0.9,0,1.5,0.5,1.5,1.8v0.4c0,1-0.3,1.3-0.7,1.5c0.5,0.2,0.8,0.6,0.8,1.5v0.8c0,1.3-0.5,1.9-1.7,1.9
		C200.7,369.2,200.1,368.6,200.1,367.3z M202.6,367.3v-1c0-0.7-0.3-1.1-0.8-1.1s-0.8,0.3-0.8,1.1v1c0,0.7,0.2,1.1,0.8,1.1
		C202.4,368.4,202.6,368,202.6,367.3z M201.1,362.9v0.7c0,0.6,0.2,0.9,0.7,0.9c0.5,0,0.7-0.3,0.7-1v-0.6c0-0.5-0.1-1-0.7-1
		C201.2,361.9,201.1,362.3,201.1,362.9z"/>
	<path class="st2" d="M267.1,367.4L267.1,367.4c0,0.8,0.2,1.1,0.7,1.1c0.6,0,0.8-0.4,0.8-1.6v-1.4c-0.2,0.4-0.5,0.6-1,0.6
		c-1,0-1.3-0.7-1.3-1.8V363c0-1.2,0.5-1.9,1.6-1.9c1,0,1.6,0.6,1.6,1.9v3.5c0,1.5-0.2,2.6-1.6,2.6c-1.2,0-1.5-0.8-1.5-1.7v0H267.1z
		 M267,363v1.2c0,0.5,0.1,1.1,0.7,1.1c0.7,0,0.8-0.6,0.8-1.4V363c0-0.7-0.2-1.1-0.8-1.1C267.3,361.9,267,362.2,267,363z"/>
	<path class="st2" d="M271.5,367.4L271.5,367.4c0,0.8,0.2,1.1,0.7,1.1c0.6,0,0.8-0.4,0.8-1.6v-1.4c-0.2,0.4-0.5,0.6-1,0.6
		c-1,0-1.3-0.7-1.3-1.8V363c0-1.2,0.5-1.9,1.6-1.9c1,0,1.6,0.6,1.6,1.9v3.5c0,1.5-0.2,2.6-1.6,2.6c-1.2,0-1.5-0.8-1.5-1.7v0H271.5z
		 M271.5,363v1.2c0,0.5,0.1,1.1,0.7,1.1c0.7,0,0.8-0.6,0.8-1.4V363c0-0.7-0.2-1.1-0.8-1.1C271.7,361.9,271.5,362.2,271.5,363z"/>
	<path class="st2" d="M275,369.1v-1.7h0.8v1.7H275z"/>
	<path class="st2" d="M279.5,363L279.5,363c0-0.4-0.1-1.1-0.7-1.1c-0.6,0-0.8,0.5-0.8,1.5v1.2c0.2-0.3,0.5-0.6,1.1-0.6
		c1,0,1.3,0.8,1.3,1.7v1.4c0,1.2-0.4,2.1-1.6,2.1c-1.3,0-1.6-1-1.6-2.1v-3.7c0-1.3,0.4-2.2,1.6-2.2c1.3,0,1.5,0.9,1.5,1.7v0.1H279.5
		z M279.5,367.2v-1.4c0-0.7-0.2-1.1-0.7-1.1c-0.7,0-0.8,0.6-0.8,1.3v1.2c0,0.6,0.2,1.2,0.8,1.2C279.3,368.4,279.5,368.1,279.5,367.2
		z"/>
	<path class="st2" d="M338.5,367.4L338.5,367.4c0,0.8,0.2,1.1,0.7,1.1c0.6,0,0.8-0.4,0.8-1.6v-1.4c-0.2,0.4-0.5,0.6-1,0.6
		c-1,0-1.3-0.7-1.3-1.8V363c0-1.2,0.5-1.9,1.6-1.9c1,0,1.6,0.6,1.6,1.9v3.5c0,1.5-0.2,2.6-1.6,2.6c-1.2,0-1.5-0.8-1.5-1.7v0H338.5z
		 M338.5,363v1.2c0,0.5,0.1,1.1,0.7,1.1c0.7,0,0.8-0.6,0.8-1.4V363c0-0.7-0.2-1.1-0.8-1.1C338.7,361.9,338.5,362.2,338.5,363z"/>
	<path class="st2" d="M344.5,363L344.5,363c0-0.4-0.1-1.1-0.7-1.1c-0.6,0-0.8,0.5-0.8,1.5v1.2c0.2-0.3,0.5-0.6,1.1-0.6
		c1,0,1.3,0.8,1.3,1.7v1.4c0,1.2-0.4,2.1-1.6,2.1c-1.3,0-1.6-1-1.6-2.1v-3.7c0-1.3,0.4-2.2,1.6-2.2c1.3,0,1.5,0.9,1.5,1.7v0.1H344.5
		z M344.5,367.2v-1.4c0-0.7-0.2-1.1-0.7-1.1c-0.7,0-0.8,0.6-0.8,1.3v1.2c0,0.6,0.2,1.2,0.8,1.2C344.3,368.4,344.5,368.1,344.5,367.2
		z"/>
	<path class="st2" d="M346.6,369.1v-1.7h0.8v1.7H346.6z"/>
	<path class="st2" d="M351.7,362h-1.9c0,0.7-0.1,1.7-0.2,2.3c0.2-0.3,0.5-0.5,1-0.5c1,0,1.4,0.8,1.4,2.1v0.9c0,1.3-0.3,2.3-1.7,2.3
		c-1.3,0-1.6-0.9-1.6-1.9v-0.1h0.8v0.2c0,0.5,0.2,1.1,0.8,1.1c0.7,0,0.8-0.6,0.8-1.4v-1c0-0.9-0.1-1.4-0.8-1.4
		c-0.5,0-0.7,0.3-0.8,0.9l-0.8-0.1c0.1-1.1,0.3-3.3,0.3-4.1h2.8L351.7,362z"/>
	<path class="st2" d="M409.1,367.3v-0.9c0-1,0.4-1.3,0.8-1.5c-0.4-0.2-0.7-0.7-0.7-1.5V363c0-1.1,0.5-1.8,1.6-1.8
		c0.9,0,1.5,0.5,1.5,1.8v0.4c0,1-0.3,1.3-0.7,1.5c0.5,0.2,0.8,0.6,0.8,1.5v0.8c0,1.3-0.5,1.9-1.7,1.9
		C409.7,369.2,409.1,368.6,409.1,367.3z M411.6,367.3v-1c0-0.7-0.3-1.1-0.8-1.1s-0.8,0.3-0.8,1.1v1c0,0.7,0.2,1.1,0.8,1.1
		C411.4,368.4,411.6,368,411.6,367.3z M410,362.9v0.7c0,0.6,0.2,0.9,0.7,0.9c0.5,0,0.7-0.3,0.7-1v-0.6c0-0.5-0.1-1-0.7-1
		C410.2,361.9,410,362.3,410,362.9z"/>
	<path class="st2" d="M416.6,362h-1.9c0,0.7-0.1,1.7-0.2,2.3c0.2-0.3,0.5-0.5,1-0.5c1,0,1.4,0.8,1.4,2.1v0.9c0,1.3-0.3,2.3-1.7,2.3
		c-1.3,0-1.6-0.9-1.6-1.9v-0.1h0.8v0.2c0,0.5,0.2,1.1,0.8,1.1c0.7,0,0.8-0.6,0.8-1.4v-1c0-0.9-0.1-1.4-0.8-1.4
		c-0.5,0-0.7,0.3-0.8,0.9l-0.8-0.1c0.1-1.1,0.3-3.3,0.3-4.1h2.8L416.6,362z"/>
	<path class="st2" d="M418.1,369.1v-1.7h0.8v1.7H418.1z"/>
	<path class="st2" d="M423.3,362h-1.9c0,0.7-0.1,1.7-0.2,2.3c0.2-0.3,0.5-0.5,1-0.5c1,0,1.4,0.8,1.4,2.1v0.9c0,1.3-0.3,2.3-1.7,2.3
		c-1.3,0-1.6-0.9-1.6-1.9v-0.1h0.8v0.2c0,0.5,0.2,1.1,0.8,1.1c0.7,0,0.8-0.6,0.8-1.4v-1c0-0.9-0.1-1.4-0.8-1.4
		c-0.5,0-0.7,0.3-0.8,0.9l-0.8-0.1c0.1-1.1,0.3-3.3,0.3-4.1h2.8L423.3,362z"/>
	<path class="st2" d="M482.4,367.4L482.4,367.4c0,0.8,0.2,1.1,0.7,1.1c0.6,0,0.8-0.4,0.8-1.6v-1.4c-0.2,0.4-0.5,0.6-1,0.6
		c-1,0-1.3-0.7-1.3-1.8V363c0-1.2,0.5-1.9,1.6-1.9c1,0,1.6,0.6,1.6,1.9v3.5c0,1.5-0.2,2.6-1.6,2.6c-1.2,0-1.5-0.8-1.5-1.7v0H482.4z
		 M482.3,363v1.2c0,0.5,0.1,1.1,0.7,1.1c0.7,0,0.8-0.6,0.8-1.4V363c0-0.7-0.2-1.1-0.8-1.1C482.6,361.9,482.3,362.2,482.3,363z"/>
	<path class="st2" d="M489,361.3v0.6c-1,1.9-1.7,4.3-2,7.2h-0.9c0.3-2.5,1.1-5.2,2-7h-2.3v-0.8H489z"/>
	<path class="st2" d="M488.8,369.1v-1.7h0.8v1.7H488.8z"/>
	<path class="st2" d="M491.8,367.4L491.8,367.4c0,0.8,0.2,1.1,0.7,1.1c0.6,0,0.8-0.4,0.8-1.6v-1.4c-0.2,0.4-0.5,0.6-1,0.6
		c-1,0-1.3-0.7-1.3-1.8V363c0-1.2,0.5-1.9,1.6-1.9c1,0,1.6,0.6,1.6,1.9v3.5c0,1.5-0.2,2.6-1.6,2.6c-1.2,0-1.5-0.8-1.5-1.7v0H491.8z
		 M491.7,363v1.2c0,0.5,0.1,1.1,0.7,1.1c0.7,0,0.8-0.6,0.8-1.4V363c0-0.7-0.2-1.1-0.8-1.1C492,361.9,491.7,362.2,491.7,363z"/>
	<path class="st2" d="M553.2,367.4L553.2,367.4c0,0.8,0.2,1.1,0.7,1.1c0.6,0,0.8-0.4,0.8-1.6v-1.4c-0.2,0.4-0.5,0.6-1,0.6
		c-1,0-1.3-0.7-1.3-1.8V363c0-1.2,0.5-1.9,1.6-1.9c1,0,1.6,0.6,1.6,1.9v3.5c0,1.5-0.2,2.6-1.6,2.6c-1.2,0-1.5-0.8-1.5-1.7v0H553.2z
		 M553.2,363v1.2c0,0.5,0.1,1.1,0.7,1.1c0.7,0,0.8-0.6,0.8-1.4V363c0-0.7-0.2-1.1-0.8-1.1C553.4,361.9,553.2,362.2,553.2,363z"/>
	<path class="st2" d="M559.9,362h-1.9c0,0.7-0.1,1.7-0.2,2.3c0.2-0.3,0.5-0.5,1-0.5c1,0,1.4,0.8,1.4,2.1v0.9c0,1.3-0.3,2.3-1.7,2.3
		c-1.3,0-1.6-0.9-1.6-1.9v-0.1h0.8v0.2c0,0.5,0.2,1.1,0.8,1.1c0.7,0,0.8-0.6,0.8-1.4v-1c0-0.9-0.1-1.4-0.8-1.4
		c-0.5,0-0.7,0.3-0.8,0.9l-0.8-0.1c0.1-1.1,0.3-3.3,0.3-4.1h2.8L559.9,362z"/>
	<path class="st2" d="M561.3,369.1v-1.7h0.8v1.7H561.3z"/>
	<path class="st2" d="M566.6,361.3v0.6c-1,1.9-1.7,4.3-2,7.2h-0.9c0.3-2.5,1.1-5.2,2-7h-2.3v-0.8H566.6z"/>
	<path class="st2" d="M623.7,367.3v-0.9c0-1,0.4-1.3,0.8-1.5c-0.4-0.2-0.7-0.7-0.7-1.5V363c0-1.1,0.5-1.8,1.6-1.8
		c0.9,0,1.5,0.5,1.5,1.8v0.4c0,1-0.3,1.3-0.7,1.5c0.5,0.2,0.8,0.6,0.8,1.5v0.8c0,1.3-0.5,1.9-1.7,1.9
		C624.3,369.2,623.7,368.6,623.7,367.3z M626.1,367.3v-1c0-0.7-0.3-1.1-0.8-1.1s-0.8,0.3-0.8,1.1v1c0,0.7,0.2,1.1,0.8,1.1
		C625.9,368.4,626.1,368,626.1,367.3z M624.6,362.9v0.7c0,0.6,0.2,0.9,0.7,0.9c0.5,0,0.7-0.3,0.7-1v-0.6c0-0.5-0.1-1-0.7-1
		C624.8,361.9,624.6,362.3,624.6,362.9z"/>
	<path class="st2" d="M631.5,363.2v4c0,1.3-0.5,2-1.7,2c-1.1,0-1.6-0.7-1.6-2v-4c0-1.5,0.7-2,1.7-2
		C630.9,361.2,631.5,361.7,631.5,363.2z M629.1,363.1v4.1c0,0.8,0.2,1.1,0.8,1.1c0.5,0,0.8-0.3,0.8-1.2v-4.1c0-0.8-0.3-1.2-0.8-1.2
		C629.4,362,629.1,362.2,629.1,363.1z"/>
	<path class="st2" d="M632.8,369.1v-1.7h0.8v1.7H632.8z"/>
	<path class="st2" d="M634.8,369.1V369c0-1.2,0.6-2.2,1.5-3.5c0.6-0.9,0.8-1.3,0.8-2.2c0-0.9-0.1-1.3-0.7-1.3
		c-0.5,0-0.7,0.4-0.7,1.1v0.4h-0.8V363c0-0.9,0.3-1.8,1.6-1.8c1.2,0,1.5,0.9,1.5,2c0,1.2-0.3,1.7-0.9,2.6c-0.7,1-1.2,1.9-1.3,2.5
		h2.4l-0.1,0.7H634.8z"/>
	<path class="st2" d="M697.6,363L697.6,363c0-0.4-0.1-1.1-0.7-1.1c-0.6,0-0.8,0.5-0.8,1.5v1.2c0.2-0.3,0.5-0.6,1.1-0.6
		c1,0,1.3,0.8,1.3,1.7v1.4c0,1.2-0.4,2.1-1.6,2.1c-1.3,0-1.6-1-1.6-2.1v-3.7c0-1.3,0.4-2.2,1.6-2.2c1.3,0,1.5,0.9,1.5,1.7v0.1H697.6
		z M697.6,367.2v-1.4c0-0.7-0.2-1.1-0.7-1.1c-0.7,0-0.8,0.6-0.8,1.3v1.2c0,0.6,0.2,1.2,0.8,1.2C697.4,368.4,697.6,368.1,697.6,367.2
		z"/>
	<path class="st2" d="M699.7,367.3v-0.9c0-1,0.4-1.3,0.8-1.5c-0.4-0.2-0.7-0.7-0.7-1.5V363c0-1.1,0.5-1.8,1.6-1.8
		c0.9,0,1.5,0.5,1.5,1.8v0.4c0,1-0.3,1.3-0.7,1.5c0.5,0.2,0.8,0.6,0.8,1.5v0.8c0,1.3-0.5,1.9-1.7,1.9
		C700.3,369.2,699.7,368.6,699.7,367.3z M702.1,367.3v-1c0-0.7-0.3-1.1-0.8-1.1s-0.8,0.3-0.8,1.1v1c0,0.7,0.2,1.1,0.8,1.1
		C702,368.4,702.1,368,702.1,367.3z M700.6,362.9v0.7c0,0.6,0.2,0.9,0.7,0.9c0.5,0,0.7-0.3,0.7-1v-0.6c0-0.5-0.1-1-0.7-1
		C700.8,361.9,700.6,362.3,700.6,362.9z"/>
	<path class="st2" d="M704.2,369.1v-1.7h0.8v1.7H704.2z"/>
	<path class="st2" d="M707.2,367.4L707.2,367.4c0,0.8,0.2,1.1,0.7,1.1c0.6,0,0.8-0.4,0.8-1.6v-1.4c-0.2,0.4-0.5,0.6-1,0.6
		c-1,0-1.3-0.7-1.3-1.8V363c0-1.2,0.5-1.9,1.6-1.9c1,0,1.6,0.6,1.6,1.9v3.5c0,1.5-0.2,2.6-1.6,2.6c-1.2,0-1.5-0.8-1.5-1.7v0H707.2z
		 M707.1,363v1.2c0,0.5,0.1,1.1,0.7,1.1c0.7,0,0.8-0.6,0.8-1.4V363c0-0.7-0.2-1.1-0.8-1.1C707.4,361.9,707.1,362.2,707.1,363z"/>
	<path class="st2" d="M770.1,361.3v0.6c-1,1.9-1.7,4.3-2,7.2h-0.9c0.3-2.5,1.1-5.2,2-7h-2.3v-0.8H770.1z"/>
	<path class="st2" d="M773.5,363L773.5,363c0-0.4-0.1-1.1-0.7-1.1c-0.6,0-0.8,0.5-0.8,1.5v1.2c0.2-0.3,0.5-0.6,1.1-0.6
		c1,0,1.3,0.8,1.3,1.7v1.4c0,1.2-0.4,2.1-1.6,2.1c-1.3,0-1.6-1-1.6-2.1v-3.7c0-1.3,0.4-2.2,1.6-2.2c1.3,0,1.5,0.9,1.5,1.7v0.1H773.5
		z M773.5,367.2v-1.4c0-0.7-0.2-1.1-0.7-1.1c-0.7,0-0.8,0.6-0.8,1.3v1.2c0,0.6,0.2,1.2,0.8,1.2C773.3,368.4,773.5,368.1,773.5,367.2
		z"/>
	<path class="st2" d="M775.6,369.1v-1.7h0.8v1.7H775.6z"/>
	<path class="st2" d="M780.8,361.3v0.6c-1,1.9-1.7,4.3-2,7.2h-0.9c0.3-2.5,1.1-5.2,2-7h-2.3v-0.8H780.8z"/>
	<path class="st2" d="M838.4,363.1V363c0-0.7,0.2-1.8,1.5-1.8c1.1,0,1.5,0.7,1.5,1.8v0.4c0,0.9-0.3,1.3-0.7,1.5v0
		c0.6,0.2,0.9,0.6,0.9,1.6v0.7c0,1.2-0.4,2.1-1.7,2.1c-1.2,0-1.6-0.7-1.6-1.8v-0.2h0.8v0.2c0,0.6,0.2,1,0.8,1c0.6,0,0.8-0.4,0.8-1.3
		v-0.8c0-0.9-0.3-1.2-1-1.2h-0.3v-0.7h0.3c0.6,0,0.9-0.2,0.9-1.1v-0.4c0-0.6-0.1-1-0.7-1c-0.6,0-0.7,0.5-0.7,1v0.2H838.4z"/>
	<path class="st2" d="M843.6,367.4L843.6,367.4c0,0.8,0.2,1.1,0.7,1.1c0.6,0,0.8-0.4,0.8-1.6v-1.4c-0.2,0.4-0.5,0.6-1,0.6
		c-1,0-1.3-0.7-1.3-1.8V363c0-1.2,0.5-1.9,1.6-1.9c1,0,1.6,0.6,1.6,1.9v3.5c0,1.5-0.2,2.6-1.6,2.6c-1.2,0-1.5-0.8-1.5-1.7v0H843.6z
		 M843.5,363v1.2c0,0.5,0.1,1.1,0.7,1.1c0.7,0,0.8-0.6,0.8-1.4V363c0-0.7-0.2-1.1-0.8-1.1C843.8,361.9,843.5,362.2,843.5,363z"/>
	<path class="st2" d="M847,369.1v-1.7h0.8v1.7H847z"/>
	<path class="st2" d="M852.2,362h-1.9c0,0.7-0.1,1.7-0.2,2.3c0.2-0.3,0.5-0.5,1-0.5c1,0,1.4,0.8,1.4,2.1v0.9c0,1.3-0.3,2.3-1.7,2.3
		c-1.3,0-1.6-0.9-1.6-1.9v-0.1h0.8v0.2c0,0.5,0.2,1.1,0.8,1.1c0.7,0,0.8-0.6,0.8-1.4v-1c0-0.9-0.1-1.4-0.8-1.4
		c-0.5,0-0.7,0.3-0.8,0.9l-0.8-0.1c0.1-1.1,0.3-3.3,0.3-4.1h2.8L852.2,362z"/>
	<path class="st2" d="M911.1,369.1v-6.8c-0.2,0.1-0.7,0.2-0.9,0.2v-0.7c0.4-0.1,0.9-0.4,1.1-0.6h0.6v7.8H911.1z"/>
	<path class="st2" d="M913.5,363.1V363c0-0.7,0.2-1.8,1.5-1.8c1.1,0,1.5,0.7,1.5,1.8v0.4c0,0.9-0.3,1.3-0.7,1.5v0
		c0.6,0.2,0.9,0.6,0.9,1.6v0.7c0,1.2-0.4,2.1-1.7,2.1c-1.2,0-1.6-0.7-1.6-1.8v-0.2h0.8v0.2c0,0.6,0.2,1,0.8,1s0.8-0.4,0.8-1.3v-0.8
		c0-0.9-0.3-1.2-1-1.2h-0.3v-0.7h0.3c0.6,0,0.9-0.2,0.9-1.1v-0.4c0-0.6-0.1-1-0.7-1c-0.6,0-0.7,0.5-0.7,1v0.2H913.5z"/>
	<path class="st2" d="M917.9,369.1v-1.7h0.8v1.7H917.9z"/>
	<path class="st2" d="M923,362h-1.9c0,0.7-0.1,1.7-0.2,2.3c0.2-0.3,0.5-0.5,1-0.5c1,0,1.4,0.8,1.4,2.1v0.9c0,1.3-0.3,2.3-1.7,2.3
		c-1.3,0-1.6-0.9-1.6-1.9v-0.1h0.8v0.2c0,0.5,0.2,1.1,0.8,1.1c0.7,0,0.8-0.6,0.8-1.4v-1c0-0.9-0.1-1.4-0.8-1.4
		c-0.5,0-0.7,0.3-0.8,0.9l-0.8-0.1c0.1-1.1,0.3-3.3,0.3-4.1h2.8L923,362z"/>
	<path class="st2" d="M201,393.4L201,393.4c0,0.8,0.2,1.1,0.7,1.1c0.6,0,0.8-0.4,0.8-1.6v-1.4c-0.2,0.4-0.5,0.6-1,0.6
		c-1,0-1.3-0.7-1.3-1.8V389c0-1.2,0.5-1.9,1.6-1.9c1,0,1.6,0.6,1.6,1.9v3.5c0,1.5-0.2,2.6-1.6,2.6c-1.2,0-1.5-0.8-1.5-1.7v0H201z
		 M201,389v1.2c0,0.5,0.1,1.1,0.7,1.1c0.7,0,0.8-0.6,0.8-1.4V389c0-0.7-0.2-1.1-0.8-1.1C201.2,387.9,201,388.2,201,389z"/>
	<path class="st2" d="M267.1,393.4L267.1,393.4c0,0.8,0.2,1.1,0.7,1.1c0.6,0,0.8-0.4,0.8-1.6v-1.4c-0.2,0.4-0.5,0.6-1,0.6
		c-1,0-1.3-0.7-1.3-1.8V389c0-1.2,0.5-1.9,1.6-1.9c1,0,1.6,0.6,1.6,1.9v3.5c0,1.5-0.2,2.6-1.6,2.6c-1.2,0-1.5-0.8-1.5-1.7v0H267.1z
		 M267,389v1.2c0,0.5,0.1,1.1,0.7,1.1c0.7,0,0.8-0.6,0.8-1.4V389c0-0.7-0.2-1.1-0.8-1.1C267.3,387.9,267,388.2,267,389z"/>
	<path class="st2" d="M271.5,393.4L271.5,393.4c0,0.8,0.2,1.1,0.7,1.1c0.6,0,0.8-0.4,0.8-1.6v-1.4c-0.2,0.4-0.5,0.6-1,0.6
		c-1,0-1.3-0.7-1.3-1.8V389c0-1.2,0.5-1.9,1.6-1.9c1,0,1.6,0.6,1.6,1.9v3.5c0,1.5-0.2,2.6-1.6,2.6c-1.2,0-1.5-0.8-1.5-1.7v0H271.5z
		 M271.5,389v1.2c0,0.5,0.1,1.1,0.7,1.1c0.7,0,0.8-0.6,0.8-1.4V389c0-0.7-0.2-1.1-0.8-1.1C271.7,387.9,271.5,388.2,271.5,389z"/>
	<path class="st2" d="M275,395.1v-1.7h0.8v1.7H275z"/>
	<path class="st2" d="M277,393.3v-0.9c0-1,0.4-1.3,0.8-1.5c-0.4-0.2-0.7-0.7-0.7-1.5V389c0-1.1,0.5-1.8,1.6-1.8
		c0.9,0,1.5,0.5,1.5,1.8v0.4c0,1-0.3,1.3-0.7,1.5c0.5,0.2,0.8,0.6,0.8,1.5v0.8c0,1.3-0.5,1.9-1.7,1.9
		C277.7,395.2,277,394.6,277,393.3z M279.5,393.3v-1c0-0.7-0.3-1.1-0.8-1.1s-0.8,0.3-0.8,1.1v1c0,0.7,0.2,1.1,0.8,1.1
		C279.3,394.4,279.5,394,279.5,393.3z M278,388.9v0.7c0,0.6,0.2,0.9,0.7,0.9c0.5,0,0.7-0.3,0.7-1v-0.6c0-0.5-0.1-1-0.7-1
		C278.2,387.9,278,388.3,278,388.9z"/>
	<path class="st2" d="M338.5,393.4L338.5,393.4c0,0.8,0.2,1.1,0.7,1.1c0.6,0,0.8-0.4,0.8-1.6v-1.4c-0.2,0.4-0.5,0.6-1,0.6
		c-1,0-1.3-0.7-1.3-1.8V389c0-1.2,0.5-1.9,1.6-1.9c1,0,1.6,0.6,1.6,1.9v3.5c0,1.5-0.2,2.6-1.6,2.6c-1.2,0-1.5-0.8-1.5-1.7v0H338.5z
		 M338.4,389v1.2c0,0.5,0.1,1.1,0.7,1.1c0.7,0,0.8-0.6,0.8-1.4V389c0-0.7-0.2-1.1-0.8-1.1C338.7,387.9,338.4,388.2,338.4,389z"/>
	<path class="st2" d="M342,393.3v-0.9c0-1,0.4-1.3,0.8-1.5c-0.4-0.2-0.7-0.7-0.7-1.5V389c0-1.1,0.5-1.8,1.6-1.8
		c0.9,0,1.5,0.5,1.5,1.8v0.4c0,1-0.3,1.3-0.7,1.5c0.5,0.2,0.8,0.6,0.8,1.5v0.8c0,1.3-0.5,1.9-1.7,1.9
		C342.7,395.2,342,394.6,342,393.3z M344.5,393.3v-1c0-0.7-0.3-1.1-0.8-1.1s-0.8,0.3-0.8,1.1v1c0,0.7,0.2,1.1,0.8,1.1
		C344.3,394.4,344.5,394,344.5,393.3z M343,388.9v0.7c0,0.6,0.2,0.9,0.7,0.9c0.5,0,0.7-0.3,0.7-1v-0.6c0-0.5-0.1-1-0.7-1
		C343.2,387.9,343,388.3,343,388.9z"/>
	<path class="st2" d="M346.6,395.1v-1.7h0.8v1.7H346.6z"/>
	<path class="st2" d="M351.9,389.2v4c0,1.3-0.5,2-1.7,2c-1.1,0-1.6-0.7-1.6-2v-4c0-1.5,0.7-2,1.7-2
		C351.3,387.2,351.9,387.7,351.9,389.2z M349.5,389.1v4.1c0,0.8,0.2,1.1,0.8,1.1c0.5,0,0.8-0.3,0.8-1.2v-4.1c0-0.8-0.3-1.2-0.8-1.2
		C349.8,388,349.5,388.2,349.5,389.1z"/>
	<path class="st2" d="M410.8,393.4L410.8,393.4c0,0.8,0.2,1.1,0.7,1.1c0.6,0,0.8-0.4,0.8-1.6v-1.4c-0.2,0.4-0.5,0.6-1,0.6
		c-1,0-1.3-0.7-1.3-1.8V389c0-1.2,0.5-1.9,1.6-1.9c1,0,1.6,0.6,1.6,1.9v3.5c0,1.5-0.2,2.6-1.6,2.6c-1.2,0-1.5-0.8-1.5-1.7v0H410.8z
		 M410.7,389v1.2c0,0.5,0.1,1.1,0.7,1.1c0.7,0,0.8-0.6,0.8-1.4V389c0-0.7-0.2-1.1-0.8-1.1C411,387.9,410.7,388.2,410.7,389z"/>
	<path class="st2" d="M414.9,395.1v-6.8c-0.2,0.1-0.7,0.2-0.9,0.2v-0.7c0.4-0.1,0.9-0.4,1.1-0.6h0.6v7.8H414.9z"/>
	<path class="st2" d="M417.3,395.1v-1.7h0.8v1.7H417.3z"/>
	<path class="st2" d="M422.6,389.2v4c0,1.3-0.5,2-1.7,2c-1.1,0-1.6-0.7-1.6-2v-4c0-1.5,0.7-2,1.7-2
		C422,387.2,422.6,387.7,422.6,389.2z M420.2,389.1v4.1c0,0.8,0.2,1.1,0.8,1.1c0.5,0,0.8-0.3,0.8-1.2v-4.1c0-0.8-0.3-1.2-0.8-1.2
		C420.5,388,420.2,388.2,420.2,389.1z"/>
	<path class="st2" d="M481.7,393.4L481.7,393.4c0,0.8,0.2,1.1,0.7,1.1c0.6,0,0.8-0.4,0.8-1.6v-1.4c-0.2,0.4-0.5,0.6-1,0.6
		c-1,0-1.3-0.7-1.3-1.8V389c0-1.2,0.5-1.9,1.6-1.9c1,0,1.6,0.6,1.6,1.9v3.5c0,1.5-0.2,2.6-1.6,2.6c-1.2,0-1.5-0.8-1.5-1.7v0H481.7z
		 M481.6,389v1.2c0,0.5,0.1,1.1,0.7,1.1c0.7,0,0.8-0.6,0.8-1.4V389c0-0.7-0.2-1.1-0.8-1.1C481.9,387.9,481.6,388.2,481.6,389z"/>
	<path class="st2" d="M486.1,393.4L486.1,393.4c0,0.8,0.2,1.1,0.7,1.1c0.6,0,0.8-0.4,0.8-1.6v-1.4c-0.2,0.4-0.5,0.6-1,0.6
		c-1,0-1.3-0.7-1.3-1.8V389c0-1.2,0.5-1.9,1.6-1.9c1,0,1.6,0.6,1.6,1.9v3.5c0,1.5-0.2,2.6-1.6,2.6c-1.2,0-1.5-0.8-1.5-1.7v0H486.1z
		 M486.1,389v1.2c0,0.5,0.1,1.1,0.7,1.1c0.7,0,0.8-0.6,0.8-1.4V389c0-0.7-0.2-1.1-0.8-1.1C486.3,387.9,486.1,388.2,486.1,389z"/>
	<path class="st2" d="M489.6,395.1v-1.7h0.8v1.7H489.6z"/>
	<path class="st2" d="M491.6,395.1V395c0-1.2,0.6-2.2,1.5-3.5c0.6-0.9,0.8-1.3,0.8-2.2c0-0.9-0.1-1.3-0.7-1.3
		c-0.5,0-0.7,0.4-0.7,1.1v0.4h-0.8V389c0-0.9,0.3-1.8,1.6-1.8c1.2,0,1.5,0.9,1.5,2c0,1.2-0.3,1.7-0.9,2.6c-0.7,1-1.2,1.9-1.3,2.5
		h2.4l-0.1,0.7H491.6z"/>
	<path class="st2" d="M553.9,393.4L553.9,393.4c0,0.8,0.2,1.1,0.7,1.1c0.6,0,0.8-0.4,0.8-1.6v-1.4c-0.2,0.4-0.5,0.6-1,0.6
		c-1,0-1.3-0.7-1.3-1.8V389c0-1.2,0.5-1.9,1.6-1.9c1,0,1.6,0.6,1.6,1.9v3.5c0,1.5-0.2,2.6-1.6,2.6c-1.2,0-1.5-0.8-1.5-1.7v0H553.9z
		 M553.9,389v1.2c0,0.5,0.1,1.1,0.7,1.1c0.7,0,0.8-0.6,0.8-1.4V389c0-0.7-0.2-1.1-0.8-1.1C554.1,387.9,553.9,388.2,553.9,389z"/>
	<path class="st2" d="M560.5,387.3v0.6c-1,1.9-1.7,4.3-2,7.2h-0.9c0.3-2.5,1.1-5.2,2-7h-2.3v-0.8H560.5z"/>
	<path class="st2" d="M560.4,395.1v-1.7h0.8v1.7H560.4z"/>
	<path class="st2" d="M562.4,395.1V395c0-1.2,0.6-2.2,1.5-3.5c0.6-0.9,0.8-1.3,0.8-2.2c0-0.9-0.1-1.3-0.7-1.3
		c-0.5,0-0.7,0.4-0.7,1.1v0.4h-0.8V389c0-0.9,0.3-1.8,1.6-1.8c1.2,0,1.5,0.9,1.5,2c0,1.2-0.3,1.7-0.9,2.6c-0.7,1-1.2,1.9-1.3,2.5
		h2.4l-0.1,0.7H562.4z"/>
	<path class="st2" d="M623.6,393.3v-0.9c0-1,0.4-1.3,0.8-1.5c-0.4-0.2-0.7-0.7-0.7-1.5V389c0-1.1,0.5-1.8,1.6-1.8
		c0.9,0,1.5,0.5,1.5,1.8v0.4c0,1-0.3,1.3-0.7,1.5c0.5,0.2,0.8,0.6,0.8,1.5v0.8c0,1.3-0.5,1.9-1.7,1.9
		C624.3,395.2,623.6,394.6,623.6,393.3z M626.1,393.3v-1c0-0.7-0.3-1.1-0.8-1.1s-0.8,0.3-0.8,1.1v1c0,0.7,0.2,1.1,0.8,1.1
		C625.9,394.4,626.1,394,626.1,393.3z M624.6,388.9v0.7c0,0.6,0.2,0.9,0.7,0.9c0.5,0,0.7-0.3,0.7-1v-0.6c0-0.5-0.1-1-0.7-1
		C624.8,387.9,624.6,388.3,624.6,388.9z"/>
	<path class="st2" d="M631.2,388h-1.9c0,0.7-0.1,1.7-0.2,2.3c0.2-0.3,0.5-0.5,1-0.5c1,0,1.4,0.8,1.4,2.1v0.9c0,1.3-0.3,2.3-1.7,2.3
		c-1.3,0-1.6-0.9-1.6-1.9v-0.1h0.8v0.2c0,0.5,0.2,1.1,0.8,1.1c0.7,0,0.8-0.6,0.8-1.4v-1c0-0.9-0.1-1.4-0.8-1.4
		c-0.5,0-0.7,0.3-0.8,0.9l-0.8-0.1c0.1-1.1,0.3-3.3,0.3-4.1h2.8L631.2,388z"/>
	<path class="st2" d="M632.7,395.1v-1.7h0.8v1.7H632.7z"/>
	<path class="st2" d="M637.8,388h-1.9c0,0.7-0.1,1.7-0.2,2.3c0.2-0.3,0.5-0.5,1-0.5c1,0,1.4,0.8,1.4,2.1v0.9c0,1.3-0.3,2.3-1.7,2.3
		c-1.3,0-1.6-0.9-1.6-1.9v-0.1h0.8v0.2c0,0.5,0.2,1.1,0.8,1.1c0.7,0,0.8-0.6,0.8-1.4v-1c0-0.9-0.1-1.4-0.8-1.4
		c-0.5,0-0.7,0.3-0.8,0.9l-0.8-0.1c0.1-1.1,0.3-3.3,0.3-4.1h2.8L637.8,388z"/>
	<path class="st2" d="M698.7,387.3v0.6c-1,1.9-1.7,4.3-2,7.2h-0.9c0.3-2.5,1.1-5.2,2-7h-2.3v-0.8H698.7z"/>
	<path class="st2" d="M701.2,395.1V393H699v-0.6l1.9-5.1h1.1v5h0.6l-0.1,0.7H702v2.1H701.2z M701.2,390.4c0-0.7,0-1.5,0-2.2h0
		c-0.4,1.4-0.9,2.8-1.4,4.1h1.4V390.4z"/>
	<path class="st2" d="M703.6,395.1v-1.7h0.8v1.7H703.6z"/>
	<path class="st2" d="M705.6,393.3v-0.9c0-1,0.4-1.3,0.8-1.5c-0.4-0.2-0.7-0.7-0.7-1.5V389c0-1.1,0.5-1.8,1.6-1.8
		c0.9,0,1.5,0.5,1.5,1.8v0.4c0,1-0.3,1.3-0.7,1.5c0.5,0.2,0.8,0.6,0.8,1.5v0.8c0,1.3-0.5,1.9-1.7,1.9
		C706.2,395.2,705.6,394.6,705.6,393.3z M708.1,393.3v-1c0-0.7-0.3-1.1-0.8-1.1s-0.8,0.3-0.8,1.1v1c0,0.7,0.2,1.1,0.8,1.1
		C707.9,394.4,708.1,394,708.1,393.3z M706.5,388.9v0.7c0,0.6,0.2,0.9,0.7,0.9c0.5,0,0.7-0.3,0.7-1v-0.6c0-0.5-0.1-1-0.7-1
		C706.7,387.9,706.5,388.3,706.5,388.9z"/>
	<path class="st2" d="M766.7,393.3v-0.9c0-1,0.4-1.3,0.8-1.5c-0.4-0.2-0.7-0.7-0.7-1.5V389c0-1.1,0.5-1.8,1.6-1.8
		c0.9,0,1.5,0.5,1.5,1.8v0.4c0,1-0.3,1.3-0.7,1.5c0.5,0.2,0.8,0.6,0.8,1.5v0.8c0,1.3-0.5,1.9-1.7,1.9
		C767.3,395.2,766.7,394.6,766.7,393.3z M769.1,393.3v-1c0-0.7-0.3-1.1-0.8-1.1s-0.8,0.3-0.8,1.1v1c0,0.7,0.2,1.1,0.8,1.1
		C768.9,394.4,769.1,394,769.1,393.3z M767.6,388.9v0.7c0,0.6,0.2,0.9,0.7,0.9c0.5,0,0.7-0.3,0.7-1v-0.6c0-0.5-0.1-1-0.7-1
		C767.8,387.9,767.6,388.3,767.6,388.9z"/>
	<path class="st2" d="M774.5,389.2v4c0,1.3-0.5,2-1.7,2c-1.1,0-1.6-0.7-1.6-2v-4c0-1.5,0.7-2,1.7-2
		C773.9,387.2,774.5,387.7,774.5,389.2z M772.1,389.1v4.1c0,0.8,0.2,1.1,0.8,1.1c0.5,0,0.8-0.3,0.8-1.2v-4.1c0-0.8-0.3-1.2-0.8-1.2
		C772.4,388,772.1,388.2,772.1,389.1z"/>
	<path class="st2" d="M775.8,395.1v-1.7h0.8v1.7H775.8z"/>
	<path class="st2" d="M780.2,389L780.2,389c0-0.4-0.1-1.1-0.7-1.1c-0.6,0-0.8,0.5-0.8,1.5v1.2c0.2-0.3,0.5-0.6,1.1-0.6
		c1,0,1.3,0.8,1.3,1.7v1.4c0,1.2-0.4,2.1-1.6,2.1c-1.3,0-1.6-1-1.6-2.1v-3.7c0-1.3,0.4-2.2,1.6-2.2c1.3,0,1.5,0.9,1.5,1.7v0.1H780.2
		z M780.3,393.2v-1.4c0-0.7-0.2-1.1-0.7-1.1c-0.7,0-0.8,0.6-0.8,1.3v1.2c0,0.6,0.2,1.2,0.8,1.2C780,394.4,780.3,394.1,780.3,393.2z"
		/>
	<path class="st2" d="M840.5,395.1V393h-2.2v-0.6l1.9-5.1h1.1v5h0.6l-0.1,0.7h-0.5v2.1H840.5z M840.5,390.4c0-0.7,0-1.5,0-2.2h0
		c-0.4,1.4-0.9,2.8-1.4,4.1h1.4V390.4z"/>
	<path class="st2" d="M845.9,388h-1.9c0,0.7-0.1,1.7-0.2,2.3c0.2-0.3,0.5-0.5,1-0.5c1,0,1.4,0.8,1.4,2.1v0.9c0,1.3-0.3,2.3-1.7,2.3
		c-1.3,0-1.6-0.9-1.6-1.9v-0.1h0.8v0.2c0,0.5,0.2,1.1,0.8,1.1c0.7,0,0.8-0.6,0.8-1.4v-1c0-0.9-0.1-1.4-0.8-1.4
		c-0.5,0-0.7,0.3-0.8,0.9l-0.8-0.1c0.1-1.1,0.3-3.3,0.3-4.1h2.8L845.9,388z"/>
	<path class="st2" d="M847.4,395.1v-1.7h0.8v1.7H847.4z"/>
	<path class="st2" d="M852.6,387.3v0.6c-1,1.9-1.7,4.3-2,7.2h-0.9c0.3-2.5,1.1-5.2,2-7h-2.3v-0.8H852.6z"/>
	<path class="st2" d="M911.9,395.1v-6.8c-0.2,0.1-0.7,0.2-0.9,0.2v-0.7c0.4-0.1,0.9-0.4,1.1-0.6h0.6v7.8H911.9z"/>
	<path class="st2" d="M917.3,387.3v0.6c-1,1.9-1.7,4.3-2,7.2h-0.9c0.3-2.5,1.1-5.2,2-7h-2.3v-0.8H917.3z"/>
	<path class="st2" d="M917.1,395.1v-1.7h0.8v1.7H917.1z"/>
	<path class="st2" d="M919.2,393.3v-0.9c0-1,0.4-1.3,0.8-1.5c-0.4-0.2-0.7-0.7-0.7-1.5V389c0-1.1,0.5-1.8,1.6-1.8
		c0.9,0,1.5,0.5,1.5,1.8v0.4c0,1-0.3,1.3-0.7,1.5c0.5,0.2,0.8,0.6,0.8,1.5v0.8c0,1.3-0.5,1.9-1.7,1.9
		C919.8,395.2,919.2,394.6,919.2,393.3z M921.6,393.3v-1c0-0.7-0.3-1.1-0.8-1.1s-0.8,0.3-0.8,1.1v1c0,0.7,0.2,1.1,0.8,1.1
		C921.5,394.4,921.6,394,921.6,393.3z M920.1,388.9v0.7c0,0.6,0.2,0.9,0.7,0.9c0.5,0,0.7-0.3,0.7-1v-0.6c0-0.5-0.1-1-0.7-1
		C920.3,387.9,920.1,388.3,920.1,388.9z"/>
	<path class="st2" d="M199.2,421.1v-6.8c-0.2,0.1-0.7,0.2-0.9,0.2v-0.7c0.4-0.1,0.9-0.4,1.1-0.6h0.6v7.8H199.2z"/>
	<path class="st2" d="M204.9,415.2v4c0,1.3-0.5,2-1.7,2c-1.1,0-1.6-0.7-1.6-2v-4c0-1.5,0.7-2,1.7-2
		C204.2,413.2,204.9,413.7,204.9,415.2z M202.5,415.1v4.1c0,0.8,0.2,1.1,0.8,1.1c0.5,0,0.8-0.3,0.8-1.2v-4.1c0-0.8-0.3-1.2-0.8-1.2
		C202.8,414,202.5,414.2,202.5,415.1z"/>
	<path class="st2" d="M267.1,419.4L267.1,419.4c0,0.8,0.2,1.1,0.7,1.1c0.6,0,0.8-0.4,0.8-1.6v-1.4c-0.2,0.4-0.5,0.6-1,0.6
		c-1,0-1.3-0.7-1.3-1.8V415c0-1.2,0.5-1.9,1.6-1.9c1,0,1.6,0.6,1.6,1.9v3.5c0,1.5-0.2,2.6-1.6,2.6c-1.2,0-1.5-0.8-1.5-1.7v0H267.1z
		 M267.1,415v1.2c0,0.5,0.1,1.1,0.7,1.1c0.7,0,0.8-0.6,0.8-1.4V415c0-0.7-0.2-1.1-0.8-1.1C267.3,413.9,267.1,414.2,267.1,415z"/>
	<path class="st2" d="M271.6,419.4L271.6,419.4c0,0.8,0.2,1.1,0.7,1.1c0.6,0,0.8-0.4,0.8-1.6v-1.4c-0.2,0.4-0.5,0.6-1,0.6
		c-1,0-1.3-0.7-1.3-1.8V415c0-1.2,0.5-1.9,1.6-1.9c1,0,1.6,0.6,1.6,1.9v3.5c0,1.5-0.2,2.6-1.6,2.6c-1.2,0-1.5-0.8-1.5-1.7v0H271.6z
		 M271.5,415v1.2c0,0.5,0.1,1.1,0.7,1.1c0.7,0,0.8-0.6,0.8-1.4V415c0-0.7-0.2-1.1-0.8-1.1C271.8,413.9,271.5,414.2,271.5,415z"/>
	<path class="st2" d="M275,421.1v-1.7h0.8v1.7H275z"/>
	<path class="st2" d="M278,419.4L278,419.4c0,0.8,0.2,1.1,0.7,1.1c0.6,0,0.8-0.4,0.8-1.6v-1.4c-0.2,0.4-0.5,0.6-1,0.6
		c-1,0-1.3-0.7-1.3-1.8V415c0-1.2,0.5-1.9,1.6-1.9c1,0,1.6,0.6,1.6,1.9v3.5c0,1.5-0.2,2.6-1.6,2.6c-1.2,0-1.5-0.8-1.5-1.7v0H278z
		 M277.9,415v1.2c0,0.5,0.1,1.1,0.7,1.1c0.7,0,0.8-0.6,0.8-1.4V415c0-0.7-0.2-1.1-0.8-1.1C278.2,413.9,277.9,414.2,277.9,415z"/>
	<path class="st2" d="M338.5,419.4L338.5,419.4c0,0.8,0.2,1.1,0.7,1.1c0.6,0,0.8-0.4,0.8-1.6v-1.4c-0.2,0.4-0.5,0.6-1,0.6
		c-1,0-1.3-0.7-1.3-1.8V415c0-1.2,0.5-1.9,1.6-1.9c1,0,1.6,0.6,1.6,1.9v3.5c0,1.5-0.2,2.6-1.6,2.6c-1.2,0-1.5-0.8-1.5-1.7v0H338.5z
		 M338.5,415v1.2c0,0.5,0.1,1.1,0.7,1.1c0.7,0,0.8-0.6,0.8-1.4V415c0-0.7-0.2-1.1-0.8-1.1C338.7,413.9,338.5,414.2,338.5,415z"/>
	<path class="st2" d="M342.1,419.3v-0.9c0-1,0.4-1.3,0.8-1.5c-0.4-0.2-0.7-0.7-0.7-1.5V415c0-1.1,0.5-1.8,1.6-1.8
		c0.9,0,1.5,0.5,1.5,1.8v0.4c0,1-0.3,1.3-0.7,1.5c0.5,0.2,0.8,0.6,0.8,1.5v0.8c0,1.3-0.5,1.9-1.7,1.9
		C342.7,421.2,342.1,420.6,342.1,419.3z M344.6,419.3v-1c0-0.7-0.3-1.1-0.8-1.1s-0.8,0.3-0.8,1.1v1c0,0.7,0.2,1.1,0.8,1.1
		C344.4,420.4,344.6,420,344.6,419.3z M343,414.9v0.7c0,0.6,0.2,0.9,0.7,0.9c0.5,0,0.7-0.3,0.7-1v-0.6c0-0.5-0.1-1-0.7-1
		C343.2,413.9,343,414.3,343,414.9z"/>
	<path class="st2" d="M346.6,421.1v-1.7h0.8v1.7H346.6z"/>
	<path class="st2" d="M349.6,419.4L349.6,419.4c0,0.8,0.2,1.1,0.7,1.1c0.6,0,0.8-0.4,0.8-1.6v-1.4c-0.2,0.4-0.5,0.6-1,0.6
		c-1,0-1.3-0.7-1.3-1.8V415c0-1.2,0.5-1.9,1.6-1.9c1,0,1.6,0.6,1.6,1.9v3.5c0,1.5-0.2,2.6-1.6,2.6c-1.2,0-1.5-0.8-1.5-1.7v0H349.6z
		 M349.5,415v1.2c0,0.5,0.1,1.1,0.7,1.1c0.7,0,0.8-0.6,0.8-1.4V415c0-0.7-0.2-1.1-0.8-1.1C349.8,413.9,349.5,414.2,349.5,415z"/>
	<path class="st2" d="M410,419.4L410,419.4c0,0.8,0.2,1.1,0.7,1.1c0.6,0,0.8-0.4,0.8-1.6v-1.4c-0.2,0.4-0.5,0.6-1,0.6
		c-1,0-1.3-0.7-1.3-1.8V415c0-1.2,0.5-1.9,1.6-1.9c1,0,1.6,0.6,1.6,1.9v3.5c0,1.5-0.2,2.6-1.6,2.6c-1.2,0-1.5-0.8-1.5-1.7v0H410z
		 M409.9,415v1.2c0,0.5,0.1,1.1,0.7,1.1c0.7,0,0.8-0.6,0.8-1.4V415c0-0.7-0.2-1.1-0.8-1.1C410.2,413.9,409.9,414.2,409.9,415z"/>
	<path class="st2" d="M415.7,421.1V419h-2.2v-0.6l1.9-5.1h1.1v5h0.6L417,419h-0.5v2.1H415.7z M415.7,416.4c0-0.7,0-1.5,0-2.2h0
		c-0.4,1.4-0.9,2.8-1.4,4.1h1.4V416.4z"/>
	<path class="st2" d="M418.1,421.1v-1.7h0.8v1.7H418.1z"/>
	<path class="st2" d="M423.2,414h-1.9c0,0.7-0.1,1.7-0.2,2.3c0.2-0.3,0.5-0.5,1-0.5c1,0,1.4,0.8,1.4,2.1v0.9c0,1.3-0.3,2.3-1.7,2.3
		c-1.3,0-1.6-0.9-1.6-1.9v-0.1h0.8v0.2c0,0.5,0.2,1.1,0.8,1.1c0.7,0,0.8-0.6,0.8-1.4v-1c0-0.9-0.1-1.4-0.8-1.4
		c-0.5,0-0.7,0.3-0.8,0.9l-0.8-0.1c0.1-1.1,0.3-3.3,0.3-4.1h2.8L423.2,414z"/>
	<path class="st2" d="M481.8,419.4L481.8,419.4c0,0.8,0.2,1.1,0.7,1.1c0.6,0,0.8-0.4,0.8-1.6v-1.4c-0.2,0.4-0.5,0.6-1,0.6
		c-1,0-1.3-0.7-1.3-1.8V415c0-1.2,0.5-1.9,1.6-1.9c1,0,1.6,0.6,1.6,1.9v3.5c0,1.5-0.2,2.6-1.6,2.6c-1.2,0-1.5-0.8-1.5-1.7v0H481.8z
		 M481.8,415v1.2c0,0.5,0.1,1.1,0.7,1.1c0.7,0,0.8-0.6,0.8-1.4V415c0-0.7-0.2-1.1-0.8-1.1C482,413.9,481.8,414.2,481.8,415z"/>
	<path class="st2" d="M486.3,419.4L486.3,419.4c0,0.8,0.2,1.1,0.7,1.1c0.6,0,0.8-0.4,0.8-1.6v-1.4c-0.2,0.4-0.5,0.6-1,0.6
		c-1,0-1.3-0.7-1.3-1.8V415c0-1.2,0.5-1.9,1.6-1.9c1,0,1.6,0.6,1.6,1.9v3.5c0,1.5-0.2,2.6-1.6,2.6c-1.2,0-1.5-0.8-1.5-1.7v0H486.3z
		 M486.2,415v1.2c0,0.5,0.1,1.1,0.7,1.1c0.7,0,0.8-0.6,0.8-1.4V415c0-0.7-0.2-1.1-0.8-1.1C486.5,413.9,486.2,414.2,486.2,415z"/>
	<path class="st2" d="M489.7,421.1v-1.7h0.8v1.7H489.7z"/>
	<path class="st2" d="M495,413.3v0.6c-1,1.9-1.7,4.3-2,7.2h-0.9c0.3-2.5,1.1-5.2,2-7h-2.3v-0.8H495z"/>
	<path class="st2" d="M553.1,419.4L553.1,419.4c0,0.8,0.2,1.1,0.7,1.1c0.6,0,0.8-0.4,0.8-1.6v-1.4c-0.2,0.4-0.5,0.6-1,0.6
		c-1,0-1.3-0.7-1.3-1.8V415c0-1.2,0.5-1.9,1.6-1.9c1,0,1.6,0.6,1.6,1.9v3.5c0,1.5-0.2,2.6-1.6,2.6c-1.2,0-1.5-0.8-1.5-1.7v0H553.1z
		 M553,415v1.2c0,0.5,0.1,1.1,0.7,1.1c0.7,0,0.8-0.6,0.8-1.4V415c0-0.7-0.2-1.1-0.8-1.1C553.3,413.9,553,414.2,553,415z"/>
	<path class="st2" d="M556.7,419.3v-0.9c0-1,0.4-1.3,0.8-1.5c-0.4-0.2-0.7-0.7-0.7-1.5V415c0-1.1,0.5-1.8,1.6-1.8
		c0.9,0,1.5,0.5,1.5,1.8v0.4c0,1-0.3,1.3-0.7,1.5c0.5,0.2,0.8,0.6,0.8,1.5v0.8c0,1.3-0.5,1.9-1.7,1.9
		C557.3,421.2,556.7,420.6,556.7,419.3z M559.1,419.3v-1c0-0.7-0.3-1.1-0.8-1.1s-0.8,0.3-0.8,1.1v1c0,0.7,0.2,1.1,0.8,1.1
		C558.9,420.4,559.1,420,559.1,419.3z M557.6,414.9v0.7c0,0.6,0.2,0.9,0.7,0.9c0.5,0,0.7-0.3,0.7-1v-0.6c0-0.5-0.1-1-0.7-1
		C557.8,413.9,557.6,414.3,557.6,414.9z"/>
	<path class="st2" d="M561.2,421.1v-1.7h0.8v1.7H561.2z"/>
	<path class="st2" d="M563.2,421.1V421c0-1.2,0.6-2.2,1.5-3.5c0.6-0.9,0.8-1.3,0.8-2.2c0-0.9-0.1-1.3-0.7-1.3
		c-0.5,0-0.7,0.4-0.7,1.1v0.4h-0.8V415c0-0.9,0.3-1.8,1.6-1.8c1.2,0,1.5,0.9,1.5,2c0,1.2-0.3,1.7-0.9,2.6c-0.7,1-1.2,1.9-1.3,2.5
		h2.4l-0.1,0.7H563.2z"/>
	<path class="st2" d="M623.7,419.3v-0.9c0-1,0.4-1.3,0.8-1.5c-0.4-0.2-0.7-0.7-0.7-1.5V415c0-1.1,0.5-1.8,1.6-1.8
		c0.9,0,1.5,0.5,1.5,1.8v0.4c0,1-0.3,1.3-0.7,1.5c0.5,0.2,0.8,0.6,0.8,1.5v0.8c0,1.3-0.5,1.9-1.7,1.9
		C624.4,421.2,623.7,420.6,623.7,419.3z M626.2,419.3v-1c0-0.7-0.3-1.1-0.8-1.1s-0.8,0.3-0.8,1.1v1c0,0.7,0.2,1.1,0.8,1.1
		C626,420.4,626.2,420,626.2,419.3z M624.7,414.9v0.7c0,0.6,0.2,0.9,0.7,0.9c0.5,0,0.7-0.3,0.7-1v-0.6c0-0.5-0.1-1-0.7-1
		C624.8,413.9,624.7,414.3,624.7,414.9z"/>
	<path class="st2" d="M629.1,419.4L629.1,419.4c0,0.8,0.2,1.1,0.7,1.1c0.6,0,0.8-0.4,0.8-1.6v-1.4c-0.2,0.4-0.5,0.6-1,0.6
		c-1,0-1.3-0.7-1.3-1.8V415c0-1.2,0.5-1.9,1.6-1.9c1,0,1.6,0.6,1.6,1.9v3.5c0,1.5-0.2,2.6-1.6,2.6c-1.2,0-1.5-0.8-1.5-1.7v0H629.1z
		 M629.1,415v1.2c0,0.5,0.1,1.1,0.7,1.1c0.7,0,0.8-0.6,0.8-1.4V415c0-0.7-0.2-1.1-0.8-1.1C629.3,413.9,629.1,414.2,629.1,415z"/>
	<path class="st2" d="M632.6,421.1v-1.7h0.8v1.7H632.6z"/>
	<path class="st2" d="M637.7,414h-1.9c0,0.7-0.1,1.7-0.2,2.3c0.2-0.3,0.5-0.5,1-0.5c1,0,1.4,0.8,1.4,2.1v0.9c0,1.3-0.3,2.3-1.7,2.3
		c-1.3,0-1.6-0.9-1.6-1.9v-0.1h0.8v0.2c0,0.5,0.2,1.1,0.8,1.1c0.7,0,0.8-0.6,0.8-1.4v-1c0-0.9-0.1-1.4-0.8-1.4
		c-0.5,0-0.7,0.3-0.8,0.9l-0.8-0.1c0.1-1.1,0.3-3.3,0.3-4.1h2.8L637.7,414z"/>
	<path class="st2" d="M698.4,413.3v0.6c-1,1.9-1.7,4.3-2,7.2h-0.9c0.3-2.5,1.1-5.2,2-7h-2.3v-0.8H698.4z"/>
	<path class="st2" d="M700.4,419.4L700.4,419.4c0,0.8,0.2,1.1,0.7,1.1c0.6,0,0.8-0.4,0.8-1.6v-1.4c-0.2,0.4-0.5,0.6-1,0.6
		c-1,0-1.3-0.7-1.3-1.8V415c0-1.2,0.5-1.9,1.6-1.9c1,0,1.6,0.6,1.6,1.9v3.5c0,1.5-0.2,2.6-1.6,2.6c-1.2,0-1.5-0.8-1.5-1.7v0H700.4z
		 M700.3,415v1.2c0,0.5,0.1,1.1,0.7,1.1c0.7,0,0.8-0.6,0.8-1.4V415c0-0.7-0.2-1.1-0.8-1.1C700.6,413.9,700.3,414.2,700.3,415z"/>
	<path class="st2" d="M703.8,421.1v-1.7h0.8v1.7H703.8z"/>
	<path class="st2" d="M709,414h-1.9c0,0.7-0.1,1.7-0.2,2.3c0.2-0.3,0.5-0.5,1-0.5c1,0,1.4,0.8,1.4,2.1v0.9c0,1.3-0.3,2.3-1.7,2.3
		c-1.3,0-1.6-0.9-1.6-1.9v-0.1h0.8v0.2c0,0.5,0.2,1.1,0.8,1.1c0.7,0,0.8-0.6,0.8-1.4v-1c0-0.9-0.1-1.4-0.8-1.4
		c-0.5,0-0.7,0.3-0.8,0.9l-0.8-0.1c0.1-1.1,0.3-3.3,0.3-4.1h2.8L709,414z"/>
	<path class="st2" d="M766.7,419.3v-0.9c0-1,0.4-1.3,0.8-1.5c-0.4-0.2-0.7-0.7-0.7-1.5V415c0-1.1,0.5-1.8,1.6-1.8
		c0.9,0,1.5,0.5,1.5,1.8v0.4c0,1-0.3,1.3-0.7,1.5c0.5,0.2,0.8,0.6,0.8,1.5v0.8c0,1.3-0.5,1.9-1.7,1.9
		C767.3,421.2,766.7,420.6,766.7,419.3z M769.2,419.3v-1c0-0.7-0.3-1.1-0.8-1.1s-0.8,0.3-0.8,1.1v1c0,0.7,0.2,1.1,0.8,1.1
		C769,420.4,769.2,420,769.2,419.3z M767.6,414.9v0.7c0,0.6,0.2,0.9,0.7,0.9c0.5,0,0.7-0.3,0.7-1v-0.6c0-0.5-0.1-1-0.7-1
		C767.8,413.9,767.6,414.3,767.6,414.9z"/>
	<path class="st2" d="M771.3,415.1V415c0-0.7,0.2-1.8,1.5-1.8c1.1,0,1.5,0.7,1.5,1.8v0.4c0,0.9-0.3,1.3-0.7,1.5v0
		c0.6,0.2,0.9,0.6,0.9,1.6v0.7c0,1.2-0.4,2.1-1.7,2.1c-1.2,0-1.6-0.7-1.6-1.8v-0.2h0.8v0.2c0,0.6,0.2,1,0.8,1c0.6,0,0.8-0.4,0.8-1.3
		v-0.8c0-0.9-0.3-1.2-1-1.2h-0.3v-0.7h0.3c0.6,0,0.9-0.2,0.9-1.1v-0.4c0-0.6-0.1-1-0.7-1c-0.6,0-0.7,0.5-0.7,1v0.2H771.3z"/>
	<path class="st2" d="M775.7,421.1v-1.7h0.8v1.7H775.7z"/>
	<path class="st2" d="M778.7,419.4L778.7,419.4c0,0.8,0.2,1.1,0.7,1.1c0.6,0,0.8-0.4,0.8-1.6v-1.4c-0.2,0.4-0.5,0.6-1,0.6
		c-1,0-1.3-0.7-1.3-1.8V415c0-1.2,0.5-1.9,1.6-1.9c1,0,1.6,0.6,1.6,1.9v3.5c0,1.5-0.2,2.6-1.6,2.6c-1.2,0-1.5-0.8-1.5-1.7v0H778.7z
		 M778.6,415v1.2c0,0.5,0.1,1.1,0.7,1.1c0.7,0,0.8-0.6,0.8-1.4V415c0-0.7-0.2-1.1-0.8-1.1C778.9,413.9,778.6,414.2,778.6,415z"/>
	<path class="st2" d="M842,414h-1.9c0,0.7-0.1,1.7-0.2,2.3c0.2-0.3,0.5-0.5,1-0.5c1,0,1.4,0.8,1.4,2.1v0.9c0,1.3-0.3,2.3-1.7,2.3
		c-1.3,0-1.6-0.9-1.6-1.9v-0.1h0.8v0.2c0,0.5,0.2,1.1,0.8,1.1c0.7,0,0.8-0.6,0.8-1.4v-1c0-0.9-0.1-1.4-0.8-1.4
		c-0.5,0-0.7,0.3-0.8,0.9l-0.8-0.1c0.1-1.1,0.3-3.3,0.3-4.1h2.8L842,414z"/>
	<path class="st2" d="M844,421.1v-6.8c-0.2,0.1-0.7,0.2-0.9,0.2v-0.7c0.4-0.1,0.9-0.4,1.1-0.6h0.6v7.8H844z"/>
	<path class="st2" d="M846.4,421.1v-1.7h0.8v1.7H846.4z"/>
	<path class="st2" d="M851.5,414h-1.9c0,0.7-0.1,1.7-0.2,2.3c0.2-0.3,0.5-0.5,1-0.5c1,0,1.4,0.8,1.4,2.1v0.9c0,1.3-0.3,2.3-1.7,2.3
		c-1.3,0-1.6-0.9-1.6-1.9v-0.1h0.8v0.2c0,0.5,0.2,1.1,0.8,1.1c0.7,0,0.8-0.6,0.8-1.4v-1c0-0.9-0.1-1.4-0.8-1.4
		c-0.5,0-0.7,0.3-0.8,0.9l-0.8-0.1c0.1-1.1,0.3-3.3,0.3-4.1h2.8L851.5,414z"/>
	<path class="st2" d="M909.7,421.1V421c0-1.2,0.6-2.2,1.5-3.5c0.6-0.9,0.8-1.3,0.8-2.2c0-0.9-0.1-1.3-0.7-1.3
		c-0.5,0-0.7,0.4-0.7,1.1v0.4h-0.8V415c0-0.9,0.3-1.8,1.6-1.8c1.2,0,1.5,0.9,1.5,2c0,1.2-0.3,1.7-0.9,2.6c-0.7,1-1.2,1.9-1.3,2.5
		h2.4l-0.1,0.7H909.7z"/>
	<path class="st2" d="M914,421.1V421c0-1.2,0.6-2.2,1.5-3.5c0.6-0.9,0.8-1.3,0.8-2.2c0-0.9-0.1-1.3-0.7-1.3c-0.5,0-0.7,0.4-0.7,1.1
		v0.4h-0.8V415c0-0.9,0.3-1.8,1.6-1.8c1.2,0,1.5,0.9,1.5,2c0,1.2-0.3,1.7-0.9,2.6c-0.7,1-1.2,1.9-1.3,2.5h2.4l-0.1,0.7H914z"/>
	<path class="st2" d="M918.5,421.1v-1.7h0.8v1.7H918.5z"/>
	<path class="st2" d="M923.7,414h-1.9c0,0.7-0.1,1.7-0.2,2.3c0.2-0.3,0.5-0.5,1-0.5c1,0,1.4,0.8,1.4,2.1v0.9c0,1.3-0.3,2.3-1.7,2.3
		c-1.3,0-1.6-0.9-1.6-1.9v-0.1h0.8v0.2c0,0.5,0.2,1.1,0.8,1.1c0.7,0,0.8-0.6,0.8-1.4v-1c0-0.9-0.1-1.4-0.8-1.4
		c-0.5,0-0.7,0.3-0.8,0.9l-0.8-0.1c0.1-1.1,0.3-3.3,0.3-4.1h2.8L923.7,414z"/>
</g>
</svg>
