<?xml version="1.0" encoding="utf-8"?>
<!-- Generator: Adobe Illustrator 23.0.1, SVG Export Plug-In . SVG Version: 6.00 Build 0)  -->
<svg version="1.1" xmlns="http://www.w3.org/2000/svg" xmlns:xlink="http://www.w3.org/1999/xlink" x="0px" y="0px" width="1116px"
	 height="576px" viewBox="0 0 1116 576" style="enable-background:new 0 0 1116 576;" xml:space="preserve">
<style type="text/css">
	.st0{fill:#BCBEC0;}
	.st1{fill:#EC008C;}
	.st2{fill:none;stroke:#F15A29;stroke-width:0.5;stroke-miterlimit:10;}
	.st3{fill:#594A42;}
	.st4{fill:#1B130E;}
	.st5{fill:#EF4136;}
</style>
<g id="board">
	<path class="st0" d="M1089,104.2l23.4-13.5c2.2-1.3,3.6-3.7,3.6-6.2V45c0-24.8-20.2-45-45-45H529.3c-2.6,0-4.9,1.4-6.2,3.6
		L509.6,27c-3.2,5.6-9.2,9-15.6,9h-69.4c-6.4,0-12.4-3.4-15.6-9L395.5,3.6c-1.3-2.2-3.7-3.6-6.2-3.6H45C20.2,0,0,20.2,0,45v486
		c0,24.8,20.2,45,45,45h1026c24.8,0,45-20.2,45-45V224.5c0-2.6-1.4-4.9-3.6-6.2l-23.4-13.5c-5.6-3.2-9-9.2-9-15.6v-69.4
		C1080,113.4,1083.4,107.4,1089,104.2z"/>
</g>
<g id="magnet_holes">
	<circle class="st1" cx="45" cy="45" r="8.9"/>
	<circle class="st1" cx="45" cy="531" r="8.9"/>
	<circle class="st1" cx="1071" cy="531" r="8.9"/>
	<circle class="st1" cx="1071" cy="45" r="8.9"/>
</g>
<g id="finger_cut_paths">
	<path class="st2" d="M656.5,199.4c0.1,2.6,0.7,5.6,1.9,8.1c4.1,8.1,8.3,10,13.6,14.6l1.5,1.2c6.2,5.1,9.1,7.1,18.1,8.5
		c2.4,0.4,5.2,0.1,7.5-0.5"/>
	<path class="st2" d="M713.6,212.1c-0.1-2.6-0.7-5.5-1.9-7.9c-4.1-8.1-5.5-8.8-11.4-13.2l-3.7-2.7c-6.3-4.6-9.1-7.1-18.1-8.5
		c-1.5-0.2-3.1-0.2-4.7-0.1"/>
	<path class="st2" d="M563.8,69.3c-1.5-1.7-3.4-3.3-5.4-4.3c-8.1-4.2-12-5.3-19.6-3.8c-4.2,0.8-8.2,6.2-8.6,10.7
		c-0.7,8.1-0.7,12.2,0,20.3c0.4,4.5,4.4,9.9,8.6,10.7c7.6,1.5,11.5,0.4,19.6-3.8c2-1,3.9-2.6,5.4-4.3"/>
	<path class="st2" d="M864.4,57.4c-1.1-0.9-2.3-1.8-3.5-2.4c-8.1-4.2-12-5.3-19.6-3.8c-4.2,0.8-8.2,6.2-8.6,10.7
		c-0.7,8.1-0.7,12.2,0,20.3c0.4,4.5,4.4,9.9,8.6,10.7c7.6,1.5,11.5,0.4,19.6-3.8c1.2-0.6,2.4-1.5,3.5-2.4"/>
	<path class="st2" d="M900.4,158.9c-1.1-0.9-2.3-1.8-3.5-2.4c-8.1-4.2-12-5.3-19.6-3.8c-4.2,0.8-8.2,6.2-8.6,10.7
		c-0.7,8.1-0.7,12.2,0,20.3c0.4,4.5,4.4,9.9,8.6,10.7c7.6,1.5,11.5,0.4,19.6-3.8c1.2-0.6,2.4-1.5,3.5-2.4"/>
	<path class="st2" d="M828.4,260.3c-1.1-0.9-2.3-1.8-3.5-2.4c-8.1-4.2-12-5.3-19.6-3.8c-4.2,0.8-8.2,6.2-8.6,10.7
		c-0.7,8.1-0.7,12.2,0,20.3c0.4,4.5,4.4,9.9,8.6,10.7c7.6,1.5,11.5,0.4,19.6-3.8c1.2-0.6,2.4-1.5,3.5-2.4"/>
	<path class="st2" d="M84.3,109.9c1.8-1.5,3.6-3.6,4.7-5.8c4.2-8.1,5.3-12,3.8-19.6c-0.8-4.2-6.2-8.2-10.7-8.6
		c-8.1-0.7-12.2-0.7-20.3,0c-4.5,0.4-9.9,4.4-10.7,8.6c-1.5,7.6-0.4,11.5,3.8,19.6c1.1,2.2,2.9,4.2,4.7,5.8"/>
	<path class="st2" d="M164.6,41.7c-1.5-1.8-3.6-3.6-5.8-4.7c-8.1-4.2-12-5.3-19.6-3.8c-4.2,0.8-8.2,6.2-8.6,10.7
		c-0.7,8.1-0.7,12.2,0,20.3c0.4,4.5,4.4,9.9,8.6,10.7c7.6,1.5,11.5,0.4,19.6-3.8c2.2-1.1,4.2-2.9,5.8-4.7"/>
	<path class="st2" d="M164.6,93.7c-1.5-1.8-3.6-3.6-5.8-4.7c-8.1-4.2-12-5.3-19.6-3.8c-4.2,0.8-8.2,6.2-8.6,10.7
		c-0.7,8.1-0.7,12.2,0,20.3c0.4,4.5,4.4,9.9,8.6,10.7c7.6,1.5,11.5,0.4,19.6-3.8c2.2-1.1,4.2-2.9,5.8-4.7"/>
	<path class="st2" d="M164.6,145.7c-1.5-1.8-3.6-3.6-5.8-4.7c-8.1-4.2-12-5.3-19.6-3.8c-4.2,0.8-8.2,6.2-8.6,10.7
		c-0.7,8.1-0.7,12.2,0,20.3c0.4,4.5,4.4,9.9,8.6,10.7c7.6,1.5,11.5,0.4,19.6-3.8c2.2-1.1,4.2-2.9,5.8-4.7"/>
	<path class="st2" d="M164.6,197.7c-1.5-1.8-3.6-3.6-5.8-4.7c-8.1-4.2-12-5.3-19.6-3.8c-4.2,0.8-8.2,6.2-8.6,10.7
		c-0.7,8.1-0.7,12.2,0,20.3c0.4,4.5,4.4,9.9,8.6,10.7c7.6,1.5,11.5,0.4,19.6-3.8c2.2-1.1,4.2-2.9,5.8-4.7"/>
	<path class="st2" d="M164.6,249.7c-1.5-1.8-3.6-3.6-5.8-4.7c-8.1-4.2-12-5.3-19.6-3.8c-4.2,0.8-8.2,6.2-8.6,10.7
		c-0.7,8.1-0.7,12.2,0,20.3c0.4,4.5,4.4,9.9,8.6,10.7c7.6,1.5,11.5,0.4,19.6-3.8c2.2-1.1,4.2-2.9,5.8-4.7"/>
	<path class="st2" d="M164.6,301.7c-1.5-1.8-3.6-3.6-5.8-4.7c-8.1-4.2-12-5.3-19.6-3.8c-4.2,0.8-8.2,6.2-8.6,10.7
		c-0.7,8.1-0.7,12.2,0,20.3c0.4,4.5,4.4,9.9,8.6,10.7c7.6,1.5,11.5,0.4,19.6-3.8c2.2-1.1,4.2-2.9,5.8-4.7"/>
	<path class="st2" d="M164.6,353.7c-1.5-1.8-3.6-3.6-5.8-4.7c-8.1-4.2-12-5.3-19.6-3.8c-4.2,0.8-8.2,6.2-8.6,10.7
		c-0.7,8.1-0.7,12.2,0,20.3c0.4,4.5,4.4,9.9,8.6,10.7c7.6,1.5,11.5,0.4,19.6-3.8c2.2-1.1,4.2-2.9,5.8-4.7"/>
	<path class="st2" d="M164.6,405.7c-1.5-1.8-3.6-3.6-5.8-4.7c-8.1-4.2-12-5.3-19.6-3.8c-4.2,0.8-8.2,6.2-8.6,10.7
		c-0.7,8.1-0.7,12.2,0,20.3c0.4,4.5,4.4,9.9,8.6,10.7c7.6,1.5,11.5,0.4,19.6-3.8c2.2-1.1,4.2-2.9,5.8-4.7"/>
	<path class="st2" d="M164.6,457.7c-1.5-1.8-3.6-3.6-5.8-4.7c-8.1-4.2-12-5.3-19.6-3.8c-4.2,0.8-8.2,6.2-8.6,10.7
		c-0.7,8.1-0.7,12.2,0,20.3c0.4,4.5,4.4,9.9,8.6,10.7c7.6,1.5,11.5,0.4,19.6-3.8c2.2-1.1,4.2-2.9,5.8-4.7"/>
	<path class="st2" d="M164.6,509.7c-1.5-1.8-3.6-3.6-5.8-4.7c-8.1-4.2-12-5.3-19.6-3.8c-4.2,0.8-8.2,6.2-8.6,10.7
		c-0.7,8.1-0.7,12.2,0,20.3c0.4,4.5,4.4,9.9,8.6,10.7c7.6,1.5,11.5,0.4,19.6-3.8c2.2-1.1,4.2-2.9,5.8-4.7"/>
	<path class="st2" d="M983.9,373.2c-2.8,0.1-5.6,0.5-8.2,1.3c-2,0.6-3.8,1.2-5.4,1.8"/>
	<path class="st2" d="M1014.6,417.8c0.4-1,0.7-2.1,1.1-3.3c1-3.2,1.4-6.8,1.3-10.2"/>
	<path class="st2" d="M946,403.2c0.3,4.6,2,9.4,4.6,12.6c8.7,10.4,13.4,15.1,23.8,23.8c2.6,2.2,6.3,3.7,10.2,4.4"/>
	<path class="st2" d="M775.9,118.5c1.5,1.8,3.6,3.6,5.8,4.7c8.1,4.2,12,5.3,19.6,3.8c4.2-0.8,8.2-6.2,8.6-10.7
		c0.7-8.1,0.7-12.2,0-20.3c-0.4-4.5-4.4-9.9-8.6-10.7c-7.6-1.5-11.5-0.4-19.6,3.8c-2.2,1.1-4.2,2.9-5.8,4.7"/>
	<path class="st2" d="M87,445.2c0.8-0.9,1.5-2,2-3c3.6-6.9,4.3-10.7,4.3-16.6l0-9.6c0.1-5.6-0.8-9.4-4.3-16.2
		c-1.1-2.2-2.9-4.2-4.7-5.7"/>
	<path class="st2" d="M59.6,394.1c-1.8,1.5-3.6,3.6-4.7,5.7c-3.5,6.8-4.3,10.6-4.3,16.2l0,9.6c0.1,5.6,0.7,9.6,4.3,16.6
		c0.5,1.1,1.2,2.1,2,3"/>
</g>
<g id="widgets">
	
		<rect x="288.5" y="-38.2" transform="matrix(-1.836970e-16 1 -1 -1.836970e-16 412.6992 -200.7051)" class="st3" width="36.4" height="288.4"/>
	
		<rect x="324.5" y="-22.2" transform="matrix(-1.836970e-16 1 -1 -1.836970e-16 500.6992 -184.7051)" class="st3" width="36.4" height="360.4"/>
	
		<rect x="360.5" y="-6.2" transform="matrix(-1.836970e-16 1 -1 -1.836970e-16 588.6997 -168.7046)" class="st3" width="36.4" height="432.4"/>
	
		<rect x="396.5" y="9.8" transform="matrix(-1.836970e-16 1 -1 -1.836970e-16 676.6997 -152.7046)" class="st3" width="36.4" height="504.4"/>
	
		<rect x="432.5" y="25.8" transform="matrix(-1.836970e-16 1 -1 -1.836970e-16 764.6992 -136.7051)" class="st3" width="36.4" height="576.4"/>
	
		<rect x="468.5" y="41.8" transform="matrix(-1.836970e-16 1 -1 -1.836970e-16 852.7002 -120.7041)" class="st3" width="36.4" height="648.4"/>
	
		<rect x="504.5" y="57.8" transform="matrix(-1.836970e-16 1 -1 -1.836970e-16 940.7002 -104.7041)" class="st3" width="36.4" height="720.4"/>
	
		<rect x="540.5" y="73.8" transform="matrix(-1.836970e-16 1 -1 -1.836970e-16 1028.7002 -88.7041)" class="st3" width="36.4" height="792.4"/>
	
		<rect x="576.5" y="89.8" transform="matrix(-1.836970e-16 1 -1 -1.836970e-16 1116.7002 -72.7041)" class="st3" width="36.4" height="864.4"/>
	
		<rect x="252.5" y="-54.2" transform="matrix(-1.836970e-16 1 -1 -1.836970e-16 324.6992 -216.7051)" class="st3" width="36.4" height="216.4"/>
	
		<rect x="-72.2" y="215.8" transform="matrix(-1.836970e-16 1 -1 -1.836970e-16 323.998 179.998)" class="st3" width="288.4" height="72.4"/>
	<path class="st3" d="M896.1,209.7c-1.3,0-2.5-0.7-3.2-1.8c-0.7-1.1-0.8-2.5-0.2-3.7c4.7-9.6,7-20,7-30.7c0-10.7-2.4-21.1-7-30.7
		c-0.6-1.2-0.5-2.6,0.2-3.7c0.7-1.1,1.9-1.8,3.2-1.8H978c1.3,0,2.5,0.7,3.2,1.8c0.7,1.1,0.8,2.5,0.2,3.7c-4.7,9.6-7,20-7,30.7
		c0,10.7,2.4,21.1,7,30.7c0.6,1.2,0.5,2.6-0.2,3.7c-0.7,1.1-1.9,1.8-3.2,1.8H896.1z"/>
	<path class="st3" d="M860.1,108.2c-1.3,0-2.5-0.7-3.2-1.8c-0.7-1.1-0.8-2.5-0.2-3.7c4.7-9.6,7-20,7-30.7s-2.4-21.1-7-30.7
		c-0.6-1.2-0.5-2.6,0.2-3.7c0.7-1.1,1.9-1.8,3.2-1.8H1014c1.3,0,2.5,0.7,3.2,1.8c0.7,1.1,0.8,2.5,0.2,3.7c-4.7,9.6-7,20-7,30.7
		s2.4,21.1,7,30.7c0.6,1.2,0.5,2.6-0.2,3.7c-0.7,1.1-1.9,1.8-3.2,1.8H860.1z"/>
	<path class="st3" d="M824.1,311.1c-1.3,0-2.5-0.7-3.2-1.8c-0.7-1.1-0.8-2.5-0.2-3.7c4.7-9.6,7-20,7-30.7c0-10.8-2.4-21.1-7-30.7
		c-0.6-1.2-0.5-2.6,0.2-3.7c0.7-1.1,1.9-1.8,3.2-1.8H1050c1.3,0,2.5,0.7,3.2,1.8c0.7,1.1,0.8,2.5,0.2,3.7c-4.7,9.6-7,20-7,30.7
		c0,10.7,2.4,21.1,7,30.7c0.6,1.2,0.5,2.6-0.2,3.7c-0.7,1.1-1.9,1.8-3.2,1.8H824.1z"/>
	<polygon class="st3" points="705.6,180.2 705.6,108.2 561.6,108.2 561.6,35.8 778,35.8 778,180.2 	"/>
	<path class="st3" d="M72,510.8c-19.7,0-35.6-16-35.6-35.6s16-35.6,35.6-35.6c19.7,0,35.6,16,35.6,35.6S91.7,510.8,72,510.8z"/>
	<path class="st3" d="M937.2,406.6c-19.7,0-35.6-16-35.6-35.6s16-35.6,35.6-35.6c19.7,0,35.6,16,35.6,35.6S956.9,406.6,937.2,406.6z
		"/>
	<path class="st3" d="M1017.3,406.6c-19.7,0-35.6-16-35.6-35.6s16-35.6,35.6-35.6c19.7,0,35.6,16,35.6,35.6
		S1036.9,406.6,1017.3,406.6z"/>
	<path class="st3" d="M1017.3,486.8c-19.7,0-35.6-16-35.6-35.6s16-35.6,35.6-35.6c19.7,0,35.6,16,35.6,35.6
		S1036.9,486.8,1017.3,486.8z"/>
	<path class="st3" d="M731.4,276.2c-19.7,0-35.6-16-35.6-35.6s16-35.6,35.6-35.6c19.7,0,35.6,16,35.6,35.6S751,276.2,731.4,276.2z"
		/>
	<path class="st3" d="M642,204.9c-19.7,0-35.6-16-35.6-35.6s16-35.6,35.6-35.6c19.7,0,35.6,16,35.6,35.6S661.7,204.9,642,204.9z"/>
</g>
<g id="engrave_vector">
	<g>
		<path class="st4" d="M337.3,58.1c-0.6,0.1-3.3,0.6-3.6-0.1c-0.1-0.3,0-1,0-1.3c0-1.7,0-3.4,0-5.1c0-0.8,0-1.6,0-2.3
			c0-0.3-0.1-0.9,0-1.2c0.5-1.1,2,0.3,2.5,0.6c1.3,0.8,2.7,1.6,4,2.3c0.7-3.8,5.4-4.6,8.3-2.5c1.5,1.1,2.2,2.9,2.4,4.8
			c0.1,1,0.1,1.9,0,2.9c-0.1,0.5-0.2,1-0.3,1.5c-0.1,0.2-0.2,1.3-0.5,1.4c-0.3,0.2-1.3-0.2-1.6-0.3c-0.5-0.1-0.9-0.3-1.4-0.5
			c-0.6-0.3-0.3-0.5-0.2-1.1c0.1-0.5,0.3-1,0.4-1.5c0.2-1.5,0.1-3.7-1.7-4.1c-2.1-0.5-2.8,1.8-2.5,3.5c0.1,0.6,0.3,1-0.4,1.2
			c-0.3,0.1-0.1,0.1-0.5,0c-1-0.4-1.9-1.1-2.8-1.6c-0.7-0.4-1.4-0.8-2-1.2C337.3,54.9,337.3,56.5,337.3,58.1z"/>
	</g>
	<g>
		<path class="st4" d="M204.1,49.9c0.6-0.1,3.3-0.6,3.6,0.1c0.1,0.3,0,1,0,1.3c0,1.7,0,3.4,0,5.1c0,0.8,0,1.6,0,2.3
			c0,0.3,0.1,0.9,0,1.2c-0.5,1.1-2-0.3-2.5-0.6c-1.3-0.8-2.7-1.6-4-2.3c-0.7,3.8-5.4,4.6-8.3,2.5c-1.5-1.1-2.2-2.9-2.4-4.8
			c-0.1-1-0.1-1.9,0-2.9c0.1-0.5,0.2-1,0.3-1.5c0.1-0.2,0.2-1.3,0.5-1.4c0.3-0.2,1.3,0.2,1.6,0.3c0.5,0.1,0.9,0.3,1.4,0.5
			c0.6,0.3,0.3,0.5,0.2,1.1c-0.1,0.5-0.3,1-0.4,1.5c-0.2,1.5-0.1,3.7,1.7,4.1c2.1,0.5,2.8-1.8,2.5-3.5c-0.1-0.6-0.3-1,0.4-1.2
			c0.3-0.1,0.1-0.1,0.5,0c1,0.4,1.9,1.1,2.8,1.6c0.7,0.4,1.4,0.8,2,1.2C204.1,53.1,204.1,51.5,204.1,49.9z"/>
	</g>
	<g>
		<path class="st4" d="M416.3,99.6c0.9-0.2,1.9-0.3,2.8-0.1c1.1,0.2,0.5,0.3,0.7,1.1c0.1,0.4-0.1,0.2,0.4,0.3c0.5,0.1,1.1,0,1.6,0
			c0.1,0,0.7-0.1,0.9,0c0.4,0.4,0.2,2.4,0.2,2.9c0,0.2,0,0.9-0.2,1c-0.1,0-0.3,0-0.4,0c-0.5,0.1-1.1,0-1.6,0c-0.7,0-0.9-0.2-0.9,0.5
			c0,0.9,0,1.8,0,2.6c0,1.1,0,2.1,0,3.2c0,0.4,0.1,1.1-0.1,1.4c-0.6,0.8-2.1-0.3-2.7-0.6c-1.9-0.9-3.8-1.8-5.7-2.6
			c-1.7-0.8-3.4-1.6-5.1-2.4c-0.2-0.1-0.9-0.3-1-0.5c-0.3-0.5,0.9-3.5,1.4-3.6c0.5,0,1.5,0.7,1.9,0.8c1.1,0.5,2.1,1,3.2,1.4
			c1.5,0.7,3,1.4,4.5,2.1c0-0.5,0.2-2.1-0.1-2.4c-0.2-0.2-1.3,0-1.6,0c-0.8,0-1,0.2-1.1-0.7c-0.1-0.5-0.1-1.1-0.1-1.6
			c0-0.3,0-1.5,0.2-1.6c0.2-0.1,1,0,1.2,0c0.2,0,1.3,0.1,1.4,0C416.5,100.8,416.3,99.9,416.3,99.6z"/>
	</g>
	<g>
		<path class="st4" d="M197.1,112.4c-0.9,0.2-1.9,0.3-2.8,0.1c-1.1-0.2-0.5-0.3-0.7-1.1c-0.1-0.4,0.1-0.2-0.4-0.3
			c-0.5-0.1-1.1,0-1.6,0c-0.1,0-0.7,0.1-0.9,0c-0.4-0.4-0.2-2.4-0.2-2.9c0-0.2,0-0.9,0.2-1c0.1,0,0.3,0,0.4,0c0.5-0.1,1.1,0,1.6,0
			c0.7,0,0.9,0.2,0.9-0.5c0-0.9,0-1.8,0-2.6c0-1.1,0-2.1,0-3.2c0-0.4-0.1-1.1,0.1-1.4c0.6-0.8,2.1,0.3,2.7,0.6
			c1.9,0.9,3.8,1.8,5.7,2.6c1.7,0.8,3.4,1.6,5.1,2.4c0.2,0.1,0.9,0.3,1,0.5c0.3,0.5-0.9,3.5-1.4,3.6c-0.5,0-1.5-0.7-1.9-0.8
			c-1.1-0.5-2.1-1-3.2-1.4c-1.5-0.7-3-1.4-4.5-2.1c0,0.5-0.2,2.1,0.1,2.4c0.2,0.2,1.3,0,1.6,0c0.8,0,1-0.2,1.1,0.7
			c0.1,0.5,0.1,1.1,0.1,1.6c0,0.3,0,1.5-0.2,1.6c-0.2,0.1-1,0-1.2,0c-0.2,0-1.3-0.1-1.4,0C197,111.2,197.1,112.1,197.1,112.4z"/>
	</g>
	<g>
		<path class="st4" d="M477.7,153.7c0.8-0.2,1.6-0.3,2.5-0.2c0.2,0,1,0,1.1,0.2c0,0.1,0,0.2,0,0.2c0.1,0.3,0,0.9,0,1.2
			c0,0.6,0,1.2,0,1.8c0,0.3-0.2,1.6,0,1.8c0.2,0.2,1.1,0,1.3,0c0.4,0,0.8,0,1.1,0c-0.6-2.8,1.2-5.7,4.1-6.1c3.2-0.5,5.9,1.2,6.7,4.3
			c0.4,1.4,0.4,2.9,0.2,4.3c-0.1,0.7-0.2,1.4-0.4,2.1c-0.1,0.4-0.1,0.7-0.6,0.7c-0.3,0-0.8-0.1-1.1-0.2c-0.5-0.1-1.5-0.3-1.9-0.6
			c-0.3-0.3-0.2,0.2-0.1-0.5c0-0.2,0.1-0.4,0.2-0.5c0.1-0.4,0.2-0.8,0.3-1.2c0.2-1.2,0.2-3.2-1-3.9c-1.1-0.7-2.5-0.1-2.9,1.1
			c-0.2,0.6-0.2,1.3-0.1,1.9c0,0.3,0.1,0.7,0.2,1c0.1,0.3,0.4,0.8,0.4,1.1c-0.2,1-1.8,0.5-2.5,0.5c-1.7-0.1-3.5-0.1-5.2-0.2
			c-0.5,0-2,0.1-2.2-0.2c-0.2-0.3,0-1.4,0-1.8c0-1,0-1.9,0-2.9C477.7,156.3,477.7,155,477.7,153.7z"/>
	</g>
	<g>
		<path class="st4" d="M207.7,162.3c-0.8,0.2-1.6,0.3-2.5,0.2c-0.2,0-1,0-1.1-0.2c0-0.1,0-0.2,0-0.2c-0.1-0.3,0-0.9,0-1.2
			c0-0.6,0-1.2,0-1.8c0-0.3,0.2-1.6,0-1.8c-0.2-0.2-1.1,0-1.3,0c-0.4,0-0.8,0-1.1,0c0.6,2.8-1.2,5.7-4.1,6.1
			c-3.2,0.5-5.9-1.2-6.7-4.3c-0.4-1.4-0.4-2.9-0.2-4.3c0.1-0.7,0.2-1.4,0.4-2.1c0.1-0.4,0.1-0.7,0.6-0.7c0.3,0,0.8,0.1,1.1,0.2
			c0.5,0.1,1.5,0.3,1.9,0.6c0.3,0.3,0.2-0.2,0.1,0.5c0,0.2-0.1,0.4-0.2,0.5c-0.1,0.4-0.2,0.8-0.3,1.2c-0.2,1.2-0.2,3.2,1,3.9
			c1.1,0.7,2.5,0.1,2.9-1.1c0.2-0.6,0.2-1.3,0.1-1.9c0-0.3-0.1-0.7-0.2-1c-0.1-0.3-0.4-0.8-0.4-1.1c0.2-1,1.8-0.5,2.5-0.5
			c1.7,0.1,3.5,0.1,5.2,0.2c0.5,0,2-0.1,2.2,0.2c0.2,0.3,0,1.4,0,1.8c0,1,0,1.9,0,2.9C207.7,159.7,207.7,161,207.7,162.3z"/>
	</g>
	<g>
		<path class="st4" d="M547.9,206.4c0.5-0.5,1.5-0.6,2.2-0.5c0.3,0,0.9,0,1.2,0.2c0.4,0.2,0.3,0.9,0.4,1.3c0.4,1.7,1.5,3.4,3.3,4
			c0,0,0,0,0-0.1c-1.2-0.9-1-3.1-0.7-4.3c0.4-1.5,1.5-2.5,2.9-3c3.1-1.1,6.8,0.2,8,3.4c0.9,2.7,0.3,6.2-2.3,7.7
			c-2.7,1.5-6.5,1.1-9.2-0.1C550.2,213.5,548.3,210.1,547.9,206.4z M557.4,209.7c0,2.8,5.1,2.7,4.9,0
			C562.1,207.1,557.4,207.1,557.4,209.7z"/>
	</g>
	<g>
		<path class="st4" d="M209.6,213.6c-0.5,0.5-1.5,0.6-2.2,0.5c-0.3,0-0.9,0-1.2-0.2c-0.4-0.2-0.3-0.9-0.4-1.3
			c-0.4-1.7-1.5-3.4-3.3-4c0,0,0,0,0,0.1c1.2,0.9,1,3.1,0.7,4.3c-0.4,1.5-1.5,2.5-2.9,3c-3.1,1.1-6.8-0.2-8-3.4
			c-0.9-2.7-0.3-6.2,2.3-7.7c2.7-1.5,6.5-1.1,9.2,0.1C207.3,206.5,209.3,209.9,209.6,213.6z M200.1,210.3c0-2.8-5.1-2.7-4.9,0
			C195.4,212.9,200.1,212.9,200.1,210.3z"/>
	</g>
	<g>
		<path class="st4" d="M625.3,267.8c-0.7,0.2-3.3,0.6-3.6-0.1c-0.2-0.4,0-1.4,0-1.8c0-2.1,0-4.2,0-6.4c0-0.9,0-1.7,0-2.6
			c0-0.5-0.1-0.8,0.5-1c0.7-0.2,1.9,0.6,2.5,0.9c3.9,1.6,7.8,3.2,11.7,4.8c0.7,0.3,1.3,0.5,2,0.8c0.1,0.1,0.7,0.2,0.8,0.3
			c0.2,0.3-0.6,2.1-0.8,2.4c-0.2,0.3-0.5,1.2-0.8,1.2c-0.4,0-1.1-0.4-1.4-0.6c-3.6-1.5-7.2-2.9-10.8-4.4
			C625.3,263.4,625.3,265.6,625.3,267.8z"/>
	</g>
	<g>
		<path class="st4" d="M204.1,256.2c0.7-0.2,3.3-0.6,3.6,0.1c0.2,0.4,0,1.4,0,1.8c0,2.1,0,4.2,0,6.4c0,0.9,0,1.7,0,2.6
			c0,0.5,0.1,0.8-0.5,1c-0.7,0.2-1.9-0.6-2.5-0.9c-3.9-1.6-7.8-3.2-11.7-4.8c-0.7-0.3-1.3-0.5-2-0.8c-0.1-0.1-0.7-0.2-0.8-0.3
			c-0.2-0.3,0.6-2.1,0.8-2.4c0.2-0.3,0.5-1.2,0.8-1.2c0.4,0,1.1,0.4,1.4,0.6c3.6,1.5,7.2,2.9,10.8,4.4
			C204.1,260.6,204.1,258.4,204.1,256.2z"/>
	</g>
	<g>
		<path class="st4" d="M696.8,308.9c1.4,0,2.7,0.7,3.5,1.9c1.2-2.1,3.7-3.1,6-2.4c2.4,0.8,3.4,3.5,3.4,5.8c0,2.3-0.9,4.9-3.2,5.8
			c-2.3,0.9-4.9-0.1-6.2-2.3c-2.1,3.1-6.5,2-7.7-1.2C691.3,313.4,692.9,308.9,696.8,308.9z M696.7,315.8c0.8,0,1.8-0.6,2-1.4
			c0.1-0.8-1-1.6-1.7-1.7C694.8,312.4,694.6,315.8,696.7,315.8z M704.4,312.2c-1,0-2.3,0.9-2.4,2c-0.1,1,1.2,2.1,2.1,2.2
			C706.9,316.6,707.2,312.2,704.4,312.2z"/>
	</g>
	<g>
		<path class="st4" d="M204.6,319.6c-1.4,0-2.7-0.7-3.5-1.9c-1.2,2.1-3.7,3.1-6,2.4c-2.4-0.8-3.4-3.5-3.4-5.8c0-2.3,0.9-4.9,3.2-5.8
			c2.3-0.9,4.9,0.1,6.2,2.3c2.1-3.1,6.5-2,7.7,1.2C210.1,315.1,208.5,319.6,204.6,319.6z M197,316.3c1,0,2.3-0.9,2.4-2
			c0.1-1-1.2-2.1-2.1-2.2C194.5,311.9,194.2,316.3,197,316.3z M204.7,312.7c-0.8,0-1.8,0.6-2,1.4c-0.1,0.8,1,1.6,1.7,1.7
			C206.6,316.1,206.8,312.7,204.7,312.7z"/>
	</g>
	<g>
		<path class="st4" d="M783.2,369.8c-0.5,0.5-1.5,0.6-2.2,0.5c-0.3,0-0.9,0-1.2-0.2c-0.4-0.2-0.3-0.9-0.4-1.3
			c-0.4-1.7-1.5-3.4-3.3-4c0,0,0,0,0,0.1c1.2,0.9,1,3.1,0.7,4.3c-0.4,1.5-1.5,2.5-2.9,3c-3.1,1.1-6.8-0.2-8-3.4
			c-0.9-2.7-0.3-6.2,2.3-7.7c2.7-1.5,6.6-1.1,9.3,0.1C780.9,362.8,782.9,366.1,783.2,369.8z M773.7,366.5c0-2.8-5.1-2.7-4.9,0
			C769,369.1,773.7,369.2,773.7,366.5z"/>
	</g>
	<g>
		<path class="st4" d="M190.2,362.7c0.5-0.5,1.5-0.6,2.2-0.5c0.3,0,0.9,0,1.2,0.2c0.4,0.2,0.3,0.9,0.4,1.3c0.4,1.7,1.5,3.4,3.3,4
			c0,0,0,0,0-0.1c-1.2-0.9-1-3.1-0.7-4.3c0.4-1.5,1.5-2.5,2.9-3c3.1-1.1,6.8,0.2,8,3.4c0.9,2.7,0.3,6.2-2.3,7.7
			c-2.7,1.5-6.6,1.1-9.3-0.1C192.5,369.7,190.5,366.4,190.2,362.7z M199.7,366c0,2.8,5.1,2.7,4.9,0
			C204.4,363.3,199.7,363.3,199.7,366z"/>
	</g>
	<g>
		<path class="st4" d="M844,428.6c-0.7,0.5-1.6,0.9-2.4,1.2c-0.5,0.2-0.7,0.3-0.9,0c-0.5-0.6-0.7-1.7-1-2.4c-0.4-1-0.9-2.1-1.3-3.1
			c-0.2-0.5-0.5-1-0.6-1.5c-0.1-0.8-0.1-0.9,0.5-0.9c0.8,0,1.6,0,2.5,0c2.2,0,4.5,0,6.7,0c0.6,0,1.5,0.2,2.1,0c0.1,0,0.2,0,0.3,0
			c0.1-0.1,0-1,0-1.1c0-0.5-0.1-1.1,0-1.6c0-0.1,0-0.3,0-0.3c0.2-0.2,1.2-0.2,1.4-0.2c0.4,0,2-0.1,2.2,0.2c0.1,0.1,0,0.5,0,0.6
			c0,2,0,4.1,0,6.1c0,0.9,0,1.9,0,2.8c0,0.1,0.1,0.5,0,0.6c-0.2,0.4-1.6,0.3-2,0.3c-0.3,0-1.4,0-1.6-0.2c-0.1-0.1,0-0.3,0-0.4
			c-0.1-0.6,0-1.2,0-1.8c0-1,0.1-0.9-0.9-0.9c-2,0-4,0-6,0C843.3,426.9,843.6,427.7,844,428.6z"/>
		<path class="st4" d="M837.5,412.2c0-3.2,2.3-5.3,5.3-5.9c2.9-0.6,6.6-0.5,9,1.5c2.2,1.9,2.6,5.6,0.9,8c-1.9,2.6-5.7,3-8.7,2.6
			C840.5,418,837.5,416,837.5,412.2z M841.1,412.3c0,2,3.2,2,4.5,2c1.3,0,4.5-0.1,4.5-2c0-1.9-3-2-4.3-2
			C844.5,410.3,841.1,410.3,841.1,412.3z"/>
	</g>
	<g>
		<path class="st4" d="M201.4,407.4c0.7-0.5,1.6-0.9,2.4-1.2c0.5-0.2,0.7-0.3,0.9,0c0.5,0.6,0.7,1.7,1,2.4c0.4,1,0.9,2.1,1.3,3.1
			c0.2,0.5,0.5,1,0.6,1.5c0.1,0.8,0.1,0.9-0.5,0.9c-0.8,0-1.6,0-2.5,0c-2.2,0-4.5,0-6.7,0c-0.6,0-1.5-0.2-2.1,0c-0.1,0-0.2,0-0.3,0
			c-0.1,0.1,0,1,0,1.1c0,0.5,0.1,1.1,0,1.6c0,0.1,0,0.3,0,0.3c-0.2,0.2-1.2,0.2-1.4,0.2c-0.4,0-2,0.1-2.2-0.2c-0.1-0.1,0-0.5,0-0.6
			c0-2,0-4.1,0-6.1c0-0.9,0-1.9,0-2.8c0-0.1-0.1-0.5,0-0.6c0.2-0.4,1.6-0.3,2-0.3c0.3,0,1.4,0,1.6,0.2c0.1,0.1,0,0.3,0,0.4
			c0.1,0.6,0,1.2,0,1.8c0,1-0.1,0.9,0.9,0.9c2,0,4,0,6,0C202.1,409.1,201.8,408.3,201.4,407.4z"/>
		<path class="st4" d="M207.9,423.8c0,3.2-2.3,5.3-5.3,5.9c-2.9,0.6-6.6,0.5-9-1.5c-2.2-1.9-2.6-5.6-0.9-8c1.9-2.6,5.7-3,8.7-2.6
			C204.9,418,207.9,420,207.9,423.8z M204.3,423.7c0-2-3.2-2-4.5-2c-1.3,0-4.5,0.1-4.5,2c0,1.9,3,2,4.3,2
			C200.9,425.7,204.3,425.7,204.3,423.7z"/>
	</g>
	<g>
		<path class="st4" d="M916,479.1c-0.7,0.5-1.6,0.9-2.4,1.2c-0.5,0.2-0.7,0.3-0.9,0c-0.5-0.6-0.7-1.7-1-2.4c-0.4-1-0.9-2.1-1.3-3.1
			c-0.2-0.5-0.5-1-0.6-1.5c-0.1-0.8-0.1-0.9,0.5-0.9c0.8,0,1.6,0,2.5,0c2.2,0,4.5,0,6.7,0c0.6,0,1.5,0.2,2.1,0c0.1,0,0.2,0,0.3,0
			c0.1-0.1,0-1,0-1.1c0-0.5-0.1-1.1,0-1.6c0-0.1,0-0.3,0-0.3c0.2-0.2,1.2-0.2,1.4-0.2c0.4,0,2-0.1,2.2,0.2c0.1,0.1,0,0.5,0,0.6
			c0,2,0,4.1,0,6.1c0,0.9,0,1.9,0,2.8c0,0.1,0.1,0.5,0,0.6c-0.2,0.4-1.6,0.3-2,0.3c-0.3,0-1.4,0-1.6-0.2c-0.1-0.1,0-0.3,0-0.4
			c-0.1-0.6,0-1.2,0-1.8c0-1,0.1-0.9-0.9-0.9c-2,0-4,0-6,0C915.3,477.4,915.6,478.3,916,479.1z"/>
		<path class="st4" d="M916,469.1c-0.7,0.5-1.6,0.9-2.4,1.2c-0.5,0.2-0.7,0.3-0.9,0c-0.5-0.6-0.7-1.7-1-2.4c-0.4-1-0.9-2.1-1.3-3.1
			c-0.2-0.5-0.5-1-0.6-1.5c-0.1-0.8-0.1-0.9,0.5-0.9c0.8,0,1.6,0,2.5,0c2.2,0,4.5,0,6.7,0c0.6,0,1.5,0.2,2.1,0c0.1,0,0.2,0,0.3,0
			c0.1-0.1,0-1,0-1.1c0-0.5-0.1-1.1,0-1.6c0-0.1,0-0.3,0-0.3c0.2-0.2,1.2-0.2,1.4-0.2c0.4,0,2-0.1,2.2,0.2c0.1,0.1,0,0.5,0,0.6
			c0,2,0,4.1,0,6.1c0,0.9,0,1.9,0,2.8c0,0.1,0.1,0.5,0,0.6c-0.2,0.4-1.6,0.3-2,0.3c-0.3,0-1.4,0-1.6-0.2c-0.1-0.1,0-0.3,0-0.4
			c-0.1-0.6,0-1.2,0-1.8c0-1,0.1-0.9-0.9-0.9c-2,0-4,0-6,0C915.3,467.4,915.6,468.3,916,469.1z"/>
	</g>
	<g>
		<path class="st4" d="M201.4,460.9c0.7-0.5,1.6-0.9,2.4-1.2c0.5-0.2,0.7-0.3,0.9,0c0.5,0.6,0.7,1.7,1,2.4c0.4,1,0.9,2.1,1.3,3.1
			c0.2,0.5,0.5,1,0.6,1.5c0.1,0.8,0.1,0.9-0.5,0.9c-0.8,0-1.6,0-2.5,0c-2.2,0-4.5,0-6.7,0c-0.6,0-1.5-0.2-2.1,0c-0.1,0-0.2,0-0.3,0
			c-0.1,0.1,0,1,0,1.1c0,0.5,0.1,1.1,0,1.6c0,0.1,0,0.3,0,0.3c-0.2,0.2-1.2,0.2-1.4,0.2c-0.4,0-2,0.1-2.2-0.2c-0.1-0.1,0-0.5,0-0.6
			c0-2,0-4.1,0-6.1c0-0.9,0-1.9,0-2.8c0-0.1-0.1-0.5,0-0.6c0.2-0.4,1.6-0.3,2-0.3c0.3,0,1.4,0,1.6,0.2c0.1,0.1,0,0.3,0,0.4
			c0.1,0.6,0,1.2,0,1.8c0,1-0.1,0.9,0.9,0.9c2,0,4,0,6,0C202.1,462.6,201.8,461.7,201.4,460.9z"/>
		<path class="st4" d="M201.4,470.9c0.7-0.5,1.6-0.9,2.4-1.2c0.5-0.2,0.7-0.3,0.9,0c0.5,0.6,0.7,1.7,1,2.4c0.4,1,0.9,2.1,1.3,3.1
			c0.2,0.5,0.5,1,0.6,1.5c0.1,0.8,0.1,0.9-0.5,0.9c-0.8,0-1.6,0-2.5,0c-2.2,0-4.5,0-6.7,0c-0.6,0-1.5-0.2-2.1,0c-0.1,0-0.2,0-0.3,0
			c-0.1,0.1,0,1,0,1.1c0,0.5,0.1,1.1,0,1.6c0,0.1,0,0.3,0,0.3c-0.2,0.2-1.2,0.2-1.4,0.2c-0.4,0-2,0.1-2.2-0.2c-0.1-0.1,0-0.5,0-0.6
			c0-2,0-4.1,0-6.1c0-0.9,0-1.9,0-2.8c0-0.1-0.1-0.5,0-0.6c0.2-0.4,1.6-0.3,2-0.3c0.3,0,1.4,0,1.6,0.2c0.1,0.1,0,0.3,0,0.4
			c0.1,0.6,0,1.2,0,1.8c0,1-0.1,0.9,0.9,0.9c2,0,4,0,6,0C202.1,472.6,201.8,471.7,201.4,470.9z"/>
	</g>
	<g>
		<path class="st4" d="M988,532.5c-0.7,0.5-1.6,0.9-2.4,1.2c-0.5,0.2-0.7,0.3-0.9,0c-0.5-0.6-0.7-1.7-1-2.4c-0.4-1-0.9-2.1-1.3-3.1
			c-0.2-0.5-0.5-1-0.6-1.5c-0.1-0.8-0.1-0.9,0.5-0.9c0.8,0,1.6,0,2.5,0c2.2,0,4.5,0,6.7,0c0.6,0,1.5,0.2,2.1,0c0.1,0,0.2,0,0.3,0
			c0.1-0.1,0-1,0-1.1c0-0.5-0.1-1.1,0-1.6c0-0.1,0-0.3,0-0.3c0.2-0.2,1.2-0.2,1.4-0.2c0.4,0,2-0.1,2.2,0.2c0.1,0.1,0,0.5,0,0.6
			c0,2,0,4.1,0,6.1c0,0.9,0,1.9,0,2.8c0,0.1,0.1,0.5,0,0.6c-0.2,0.4-1.6,0.3-2,0.3c-0.3,0-1.4,0-1.6-0.2c-0.1-0.1,0-0.3,0-0.4
			c-0.1-0.6,0-1.2,0-1.8c0-1,0.1-0.9-0.9-0.9c-2,0-4,0-6,0C987.3,530.7,987.7,531.6,988,532.5z"/>
		<path class="st4" d="M997.4,521.2c-0.4,0.2-0.5,0.3-0.9,0.1c-0.5-0.2-0.9-0.7-1.3-1c-1.2-0.9-2.3-1.8-3.5-2.7
			c-1.2-0.9-2.6-2.1-4.1-2.5c-1.1-0.3-2.1,0-2.4,1.2c-0.3,1.3,0.3,2.7,0.9,3.8c-0.6,0.3-1.2,0.5-1.9,0.7c-0.3,0.1-0.7,0.2-1.1,0.2
			c-0.4,0.1-0.4,0.1-0.7-0.2c-0.7-0.7-0.9-2.4-1-3.3c-0.2-2.3,0.3-5.2,2.6-6.4c3.5-1.7,7,1.4,9.6,3.3c0-0.7,0-1.4,0-2.1
			c0-0.4-0.2-1.8,0-2.1c0.3-0.4,3.4-0.4,3.6,0c0.2,0.3,0,1.1,0,1.4C997.4,515,997.4,518.1,997.4,521.2z"/>
	</g>
	<g>
		<path class="st4" d="M201.4,511.5c0.7-0.5,1.6-0.9,2.4-1.2c0.5-0.2,0.7-0.3,0.9,0c0.5,0.6,0.7,1.7,1,2.4c0.4,1,0.9,2.1,1.3,3.1
			c0.2,0.5,0.5,1,0.6,1.5c0.1,0.8,0.1,0.9-0.5,0.9c-0.8,0-1.6,0-2.5,0c-2.2,0-4.5,0-6.7,0c-0.6,0-1.5-0.2-2.1,0c-0.1,0-0.2,0-0.3,0
			c-0.1,0.1,0,1,0,1.1c0,0.5,0.1,1.1,0,1.6c0,0.1,0,0.3,0,0.3c-0.2,0.2-1.2,0.2-1.4,0.2c-0.4,0-2,0.1-2.2-0.2c-0.1-0.1,0-0.5,0-0.6
			c0-2,0-4.1,0-6.1c0-0.9,0-1.9,0-2.8c0-0.1-0.1-0.5,0-0.6c0.2-0.4,1.6-0.3,2-0.3c0.3,0,1.4,0,1.6,0.2c0.1,0.1,0,0.3,0,0.4
			c0.1,0.6,0,1.2,0,1.8c0,1-0.1,0.9,0.9,0.9c2,0,4,0,6,0C202.1,513.3,201.8,512.4,201.4,511.5z"/>
		<path class="st4" d="M192,522.8c0.4-0.2,0.5-0.3,0.9-0.1c0.5,0.2,0.9,0.7,1.3,1c1.2,0.9,2.3,1.8,3.5,2.7c1.2,0.9,2.6,2.1,4.1,2.5
			c1.1,0.3,2.1,0,2.4-1.2c0.3-1.3-0.3-2.7-0.9-3.8c0.6-0.3,1.2-0.5,1.9-0.7c0.3-0.1,0.7-0.2,1.1-0.2c0.4-0.1,0.4-0.1,0.7,0.2
			c0.7,0.7,0.9,2.4,1,3.3c0.2,2.3-0.3,5.2-2.6,6.4c-3.5,1.7-7-1.4-9.6-3.3c0,0.7,0,1.4,0,2.1c0,0.4,0.2,1.8,0,2.1
			c-0.3,0.4-3.4,0.4-3.6,0c-0.2-0.3,0-1.1,0-1.4C192,529,192,525.9,192,522.8z"/>
	</g>
	<g>
		<path class="st4" d="M72.2,229.8c0.7-0.5,1.6-0.9,2.4-1.2c0.5-0.2,0.7-0.3,0.9,0c0.5,0.5,0.7,1.7,1,2.4c0.4,1,0.9,2.1,1.3,3.1
			c0.2,0.4,0.5,0.9,0.6,1.4c0.1,0.8,0.1,0.9-0.5,0.9c-0.8,0-1.6,0-2.4,0c-2.3,0-4.5,0-6.8,0c-0.6,0-1.5-0.2-2.1,0
			c-0.1,0-0.2,0-0.3,0c-0.1,0.1,0,0.9,0,1.1c0,0.5,0,1,0,1.5c0,0.1,0,0.4,0,0.4c-0.1,0.2-1,0.2-1.3,0.2c-0.4,0-2.1,0.2-2.3-0.2
			c-0.1-0.1,0-0.4,0-0.5c0-2,0-4.1,0-6.1c0-0.9,0-1.9,0-2.8c0-0.1-0.1-0.5,0-0.6c0.2-0.4,1.2-0.3,1.6-0.3c0.4,0,1.4-0.1,1.8,0.2
			c0.3,0.2,0.1,0,0.2,0.3c0.1,0.5,0,1.2,0,1.7c0,1-0.2,1.1,0.7,1.1c2,0,4,0,6,0C72.9,231.5,72.6,230.6,72.2,229.8z"/>
		<path class="st4" d="M67.9,275.3c-0.9,0.2-1.9,0.3-2.8,0.1c-1.1-0.2-0.5-0.3-0.7-1.1c-0.1-0.4,0.1-0.2-0.4-0.3
			c-0.5-0.1-1.1,0-1.6,0c-0.1,0-0.7,0.1-0.8,0c-0.4-0.4-0.2-2.4-0.2-2.9c0-0.2,0-0.9,0.2-1c0.1,0,0.3,0,0.4,0c0.5-0.1,1.1,0,1.6,0
			c0.7,0,0.8,0.2,0.8-0.5c0-0.9,0-1.8,0-2.6c0-1.1,0-2.1,0-3.2c0-0.4-0.1-1.1,0.1-1.4c0.6-0.8,2.1,0.3,2.7,0.6
			c1.9,0.9,3.8,1.8,5.6,2.6c1.7,0.8,3.4,1.6,5.1,2.4c0.2,0.1,0.9,0.3,1,0.5c0.3,0.5-0.9,3.5-1.4,3.6c-0.5,0-1.4-0.7-1.9-0.8
			c-1-0.5-2.1-1-3.1-1.4c-1.5-0.7-3-1.4-4.5-2.1c0,0.5-0.2,2.1,0.1,2.4c0.2,0.2,1.3,0,1.6,0c0.8,0,1-0.2,1.1,0.7
			c0.1,0.5,0.1,1.1,0.1,1.6c0,0.3,0.1,1.5-0.2,1.6c-0.2,0.1-1,0-1.2,0c-0.2,0-1.3-0.1-1.4,0C67.8,274.2,67.9,275.1,67.9,275.3z"/>
	</g>
	<path class="st4" d="M75.5,248.8c-0.6-0.9-1.6-2.2-2.6-2.7c-0.5-0.2-0.6,0.1-1,0.5c-0.8,0.8-1.5,1.5-2.3,2.3c-0.7-0.7-1.3-1.3-2-2
		c-0.2-0.2-0.7-0.9-0.9-0.9c-0.4-0.1-1.3,0.9-1.6,1.2c-0.3,0.3-1.3,1.3-1.3,1.6c0.1,0.3,0.7,0.7,0.9,0.9c0.7,0.7,1.4,1.4,2,2
		c-0.6,0.6-1.3,1.3-1.9,1.9c-0.2,0.2-0.9,0.7-0.9,0.9c-0.1,0.4,0.9,1.3,1.2,1.6c0.3,0.3,1.3,1.3,1.6,1.3c0.2,0,0.7-0.7,0.9-0.9
		c0.7-0.7,1.3-1.3,2-2c0.4,0.4,0.8,0.8,1.2,1.2c0.4,0.4,1,1.2,1.5,1.5c0.3,0.2,0.2,0.2,0.6-0.1c0.6-0.4,1.1-0.9,1.6-1.5
		c0.2-0.3,0.9-0.9,0.8-1.2c-0.1-0.2-0.4-0.4-0.6-0.6c-0.6-0.6-1.2-1.2-1.8-1.8c-0.4-0.4-0.5-0.3-0.3-0.7c0.3-0.6,1.1-1.1,1.6-1.6
		C74.7,249.6,75.1,249.2,75.5,248.8z"/>
	<g>
		<path class="st4" d="M932.9,169.3c-0.1-0.6-0.6-3.3,0.1-3.6c0.3-0.1,1,0,1.3,0c1.7,0,3.4,0,5.1,0c0.8,0,1.6,0,2.3,0
			c0.3,0,0.9-0.1,1.2,0c1.1,0.5-0.3,2-0.6,2.5c-0.8,1.3-1.6,2.7-2.3,4c3.8,0.7,4.6,5.4,2.5,8.3c-1.1,1.5-2.9,2.2-4.8,2.4
			c-1,0.1-1.9,0.1-2.9,0c-0.5-0.1-1-0.2-1.5-0.3c-0.2-0.1-1.3-0.2-1.4-0.5c-0.2-0.3,0.2-1.3,0.3-1.6c0.1-0.5,0.3-0.9,0.5-1.4
			c0.3-0.6,0.5-0.3,1.1-0.2c0.5,0.1,1,0.3,1.5,0.4c1.5,0.2,3.7,0.1,4.1-1.7c0.5-2.1-1.8-2.8-3.5-2.5c-0.6,0.1-1,0.3-1.2-0.4
			c-0.1-0.3-0.1-0.1,0-0.5c0.4-1,1.1-1.9,1.6-2.8c0.4-0.7,0.8-1.4,1.2-2C936.1,169.3,934.5,169.3,932.9,169.3z"/>
	</g>
	<g>
		<path class="st4" d="M943.4,74.8c0.2,0.9,0.3,1.9,0.1,2.8c-0.2,1.1-0.3,0.5-1.1,0.7c-0.4,0.1-0.2-0.1-0.3,0.4
			c-0.1,0.5,0,1.1,0,1.6c0,0.1,0.1,0.7,0,0.9c-0.4,0.4-2.4,0.2-2.9,0.2c-0.2,0-0.9,0-1-0.2c0-0.1,0-0.3,0-0.4c-0.1-0.5,0-1.1,0-1.6
			c0-0.7,0.2-0.9-0.5-0.9c-0.9,0-1.8,0-2.6,0c-1.1,0-2.1,0-3.2,0c-0.4,0-1.1,0.1-1.4-0.1c-0.8-0.6,0.3-2.1,0.6-2.7
			c0.9-1.9,1.8-3.8,2.6-5.7c0.8-1.7,1.6-3.4,2.4-5.1c0.1-0.2,0.3-0.9,0.5-1c0.5-0.3,3.5,0.9,3.6,1.4c0,0.5-0.7,1.5-0.8,1.9
			c-0.5,1.1-1,2.1-1.4,3.2c-0.7,1.5-1.4,3-2.1,4.5c0.5,0,2.1,0.2,2.4-0.1c0.2-0.2,0-1.3,0-1.6c0-0.8-0.2-1,0.7-1.1
			c0.5-0.1,1.1-0.1,1.6-0.1c0.3,0,1.5,0,1.6,0.2c0.1,0.2,0,1,0,1.2c0,0.2-0.1,1.3,0,1.4C942.2,74.9,943.1,74.8,943.4,74.8z"/>
	</g>
	<g>
		<path class="st4" d="M941.3,267.1c0.2,0.8,0.3,1.6,0.2,2.5c0,0.2,0,1-0.2,1.1c-0.1,0-0.2,0-0.2,0c-0.3,0.1-0.9,0-1.2,0
			c-0.6,0-1.2,0-1.8,0c-0.3,0-1.6-0.2-1.8,0c-0.2,0.2,0,1.1,0,1.3c0,0.4,0,0.8,0,1.1c2.8-0.6,5.7,1.3,6.1,4.1
			c0.5,3.2-1.2,5.9-4.3,6.7c-1.4,0.4-2.9,0.4-4.3,0.2c-0.7-0.1-1.4-0.2-2.1-0.4c-0.4-0.1-0.7-0.1-0.7-0.6c0-0.3,0.1-0.8,0.2-1.1
			c0.1-0.5,0.3-1.5,0.6-1.9c0.3-0.3-0.2-0.2,0.5-0.1c0.2,0,0.4,0.1,0.5,0.2c0.4,0.1,0.8,0.2,1.2,0.3c1.2,0.2,3.2,0.2,3.9-1
			c0.7-1.1,0.1-2.5-1.1-2.9c-0.6-0.2-1.3-0.2-1.9-0.1c-0.3,0-0.7,0.1-1,0.2c-0.3,0.1-0.8,0.4-1.1,0.4c-1-0.2-0.5-1.8-0.5-2.5
			c0.1-1.7,0.1-3.5,0.2-5.2c0-0.5-0.1-2,0.2-2.2c0.3-0.2,1.4,0,1.8,0c1,0,1.9,0,2.9,0C938.7,267.1,940,267.1,941.3,267.1z"/>
	</g>
	<g>
		<path class="st4" d="M961.8,387c0.3,0.3-0.4,0.9-0.6,0.9c-0.3,0-0.8-0.5-1.1-0.6c-1.1-0.6-2.3-1.3-3.4-1.9
			c-0.1-0.1-0.6-0.5-0.8-0.3c-0.1,0.2,0.4,0.6,0.5,0.7c0.9,1,1.9,1.9,2.8,2.9c0.2,0.2,0.7,0.5,0.7,0.7c0.1,0.4-0.4,0.9-0.7,0.7
			c-0.2-0.1-0.4-0.4-0.5-0.6c-0.5-0.5-0.9-1-1.4-1.5c-0.8-0.9-1.7-1.7-2.4-2.6c-0.3-0.4-0.5-0.6-0.2-1.1c0.3-0.5,0.7-0.8,1.3-0.6
			c1,0.4,2,1.1,3,1.7C959.8,385.9,960.9,386.3,961.8,387z"/>
		<path class="st4" d="M956.8,393c-1.3,1.2-3.3-0.7-4.1-1.6c-1.1-1.2-2.5-2.8-0.9-4.1c1.5-1.4,3,0.2,4,1.5
			C956.5,389.7,958.1,391.8,956.8,393z M953.4,390.4c0.4,0.5,1.7,2.2,2.6,2c0.7-0.2,0.1-1.2-0.2-1.6c-0.5-0.7-1-1.4-1.6-2
			c-0.3-0.3-0.7-0.9-1.3-0.8C951.3,388.2,953,390,953.4,390.4z"/>
		<path class="st4" d="M952.1,396.4c-1.5,0.9-3.1-1.3-3.7-2.4c-0.8-1.4-1.9-3.2-0.1-4.2c1.8-1,2.9,0.8,3.6,2.2
			C952.4,393.1,953.6,395.5,952.1,396.4z M949.2,393.2c0.3,0.5,1.3,2.5,2.1,2.4c0.8-0.1,0.3-1.2,0.1-1.6c-0.3-0.8-0.8-1.5-1.2-2.3
			c-0.2-0.4-0.6-1-1.1-1.1C947.7,390.6,948.9,392.8,949.2,393.2z"/>
		<path class="st4" d="M944.2,397.8c-0.4-1.2-0.9-2.4-1.2-3.6c-0.3-1.1,0.2-2,1.3-2.4c0.4-0.2,1.5-0.7,1.9-0.6
			c0.2,0.1,0.4,0.6,0.4,0.8c0,0.3-0.3,0.4-0.3,0.6c-0.1,0.5,0.5,1.3,0.6,1.7c0.3,0.8,0.5,1.6,0.8,2.5c0,0.1,0.1,0.4,0.1,0.4
			c0.3,0.3,0.6,0,0.7,0.6c0.1,0.7-1,0.8-1.6,1C945.8,399.2,944.7,399.1,944.2,397.8z M944.1,393.8c0.3,1,0.7,1.9,1,2.9
			c0.1,0.4,0.3,1.1,0.7,1.3c0.5,0.2,0.8-0.1,0.8-0.5c-0.1-1.1-0.8-2.3-1.1-3.3c-0.1-0.3-0.2-0.9-0.4-1.2
			C944.7,392.6,943.9,393.2,944.1,393.8z"/>
		<path class="st4" d="M941.1,400.2c-1.8,0.2-2.3-2.4-2.5-3.7c-0.3-1.6-0.5-3.7,1.6-3.9c2-0.3,2.3,1.8,2.5,3.4
			C942.7,397.2,942.9,400,941.1,400.2z M939.7,396.1c0.1,0.6,0.2,2.9,1.1,3.1c0.8,0.1,0.7-1.6,0.7-2c0-0.7,0-3.2-0.9-3.4
			C939.2,393.4,939.6,395.5,939.7,396.1z"/>
		<path class="st4" d="M935.2,400.4c-1.8-0.1-1.8-2.8-1.8-4.1c0.1-1.6,0.2-3.7,2.3-3.5c2,0.1,1.9,2.2,1.8,3.8
			C937.4,397.8,937,400.5,935.2,400.4z M934.7,396.1c0,0.6-0.4,2.9,0.5,3.2c0.8,0.3,1-1.4,1-1.8c0.1-0.7,0.7-3.1-0.2-3.6
			C934.8,393.3,934.7,395.5,934.7,396.1z"/>
		<path class="st4" d="M927.3,397.5c0.2-0.7,0.5-1.3,0.7-2c0.2-0.5,0.4-1,0.5-1.5c0.1-0.3,0.4-0.8,0.4-1c0-0.6-1-0.3-0.9-1
			c0.1-1.1,0.9-0.6,1.6-0.4c0.5,0.2,1.9,0.4,2,1c0,0.3-0.2,0.8-0.5,0.8c-0.3,0.1-0.7-0.4-1-0.2c-0.3,0.2-0.6,1.7-0.7,2.1
			c-0.2,0.7-0.9,1.8-0.9,2.5c0,0.4,0.3,0.5,0.2,0.9c-0.1,0.6-0.4,0.4-0.8,0.3c-0.3-0.1-1.2-0.2-1.3-0.5c-0.1-0.1,0.1-0.5,0.2-0.6
			C926.8,397.6,927.2,397.6,927.3,397.5z"/>
		<path class="st4" d="M921.6,393.8c0.6-1.1,1.2-2.3,1.9-3.3c0.6-1,1.6-1.2,2.6-0.6c0.4,0.2,1.4,0.6,1.7,1c0.1,0.2,0,0.7-0.3,0.9
			c-0.2,0.2-0.5,0-0.7,0.2c-0.4,0.3-0.7,1.2-1,1.7c-0.4,0.7-0.9,1.4-1.3,2.2c-0.1,0.1-0.2,0.3-0.2,0.4c0,0.4,0.4,0.5,0,1
			c-0.5,0.6-1.3-0.3-1.9-0.6C921.5,395.9,920.9,395,921.6,393.8z M924.5,391.1c-0.5,0.9-1,1.8-1.6,2.7c-0.2,0.4-0.6,0.9-0.5,1.4
			c0.2,0.5,0.6,0.6,0.9,0.3c0.7-0.8,1.2-2.1,1.8-3c0.1-0.3,0.6-0.8,0.6-1.1C925.8,390.7,924.9,390.6,924.5,391.1z"/>
		<path class="st4" d="M917.7,393c-1.3-1.2,0.3-3.3,1.1-4.3c1-1.2,2.5-2.8,4-1.4c1.5,1.4,0.1,3-1,4.1C921,392.3,919,394.2,917.7,393
			z M919.8,389.3c-0.4,0.5-2,2-1.6,2.8c0.3,0.7,1.2-0.1,1.6-0.4c0.6-0.5,1.2-1.2,1.8-1.9c0.3-0.3,0.8-0.8,0.7-1.3
			C921.8,387,920.2,388.9,919.8,389.3z"/>
		<path class="st4" d="M916.8,383.9c0.6-0.5,1.4-1.4,2.1-0.8c0.6,0.6,1.3,1.5,1.7,2.3c0.4,0.5,0.1,0.6-0.4,1
			c-0.8,0.6-1.7,1.3-2.5,1.9c-0.8,0.6-1.5,1.2-2.3,1.7c-0.1,0.1-0.3,0.3-0.5,0.3c-0.2,0-0.7-0.7-0.7-0.9c0.1-0.4,1.3-1.1,1.6-1.3
			c0.8-0.6,1.7-1.3,2.5-1.9c0.1-0.1,0.6-0.3,0.6-0.5c0.2-0.3-0.3-0.9-0.6-1.1c-0.6-0.5-0.4,0.1-1,0.2
			C917.3,384.9,916.4,384.1,916.8,383.9z"/>
	</g>
	<g>
		<path class="st4" d="M912.7,354.8c-0.3-0.3,0.4-0.9,0.6-0.9c0.3,0,0.8,0.5,1.1,0.6c1.1,0.6,2.3,1.3,3.4,1.9
			c0.1,0.1,0.6,0.5,0.8,0.3c0.1-0.2-0.4-0.6-0.5-0.7c-0.9-1-1.9-1.9-2.8-2.9c-0.2-0.2-0.7-0.5-0.7-0.7c-0.1-0.4,0.4-0.9,0.7-0.7
			c0.2,0.1,0.4,0.4,0.5,0.6c0.5,0.5,0.9,1,1.4,1.5c0.8,0.9,1.7,1.7,2.4,2.6c0.3,0.4,0.5,0.6,0.2,1.1c-0.3,0.5-0.7,0.8-1.3,0.6
			c-1-0.4-2-1.1-3-1.7C914.6,355.9,913.5,355.4,912.7,354.8z"/>
		<path class="st4" d="M917.7,348.8c1.3-1.2,3.3,0.7,4.1,1.6c1.1,1.2,2.5,2.8,0.9,4.1c-1.5,1.4-3-0.2-4-1.5
			C918,352.1,916.4,350,917.7,348.8z M921.1,351.4c-0.4-0.5-1.7-2.2-2.6-2c-0.7,0.2-0.1,1.2,0.2,1.6c0.5,0.7,1,1.4,1.6,2
			c0.3,0.3,0.7,0.9,1.3,0.8C923.1,353.6,921.4,351.8,921.1,351.4z"/>
		<path class="st4" d="M922.4,345.4c1.5-0.9,3.1,1.3,3.7,2.4c0.8,1.4,1.9,3.2,0.1,4.2c-1.8,1-2.9-0.8-3.6-2.2
			C922,348.7,920.9,346.3,922.4,345.4z M925.2,348.6c-0.3-0.5-1.3-2.5-2.1-2.4c-0.8,0.1-0.3,1.2-0.1,1.6c0.3,0.8,0.8,1.5,1.2,2.3
			c0.2,0.4,0.6,1,1.1,1.1C926.8,351.2,925.5,349.1,925.2,348.6z"/>
		<path class="st4" d="M930.2,344c0.4,1.2,0.9,2.4,1.2,3.6c0.3,1.1-0.2,2-1.3,2.4c-0.4,0.2-1.5,0.7-1.9,0.6
			c-0.2-0.1-0.4-0.6-0.4-0.8c0-0.3,0.3-0.4,0.3-0.6c0.1-0.5-0.5-1.3-0.6-1.7c-0.3-0.8-0.5-1.6-0.8-2.5c0-0.1-0.1-0.4-0.1-0.4
			c-0.3-0.3-0.6,0-0.7-0.6c-0.1-0.7,1-0.8,1.6-1C928.6,342.6,929.8,342.7,930.2,344z M930.3,348c-0.3-1-0.7-1.9-1-2.9
			c-0.1-0.4-0.3-1.1-0.7-1.3c-0.5-0.2-0.8,0.1-0.8,0.5c0.1,1.1,0.8,2.3,1.1,3.3c0.1,0.3,0.2,0.9,0.4,1.2
			C929.8,349.2,930.5,348.6,930.3,348z"/>
		<path class="st4" d="M933.4,341.6c1.8-0.2,2.3,2.4,2.5,3.7c0.3,1.6,0.5,3.7-1.6,3.9c-2,0.3-2.3-1.8-2.5-3.4
			C931.7,344.6,931.6,341.9,933.4,341.6z M934.7,345.7c-0.1-0.6-0.2-2.9-1.1-3.1c-0.8-0.1-0.7,1.6-0.7,2c0,0.7,0,3.2,0.9,3.4
			C935.2,348.4,934.8,346.3,934.7,345.7z"/>
		<path class="st4" d="M939.2,341.4c1.8,0.1,1.8,2.8,1.8,4.1c-0.1,1.6-0.2,3.7-2.3,3.5c-2-0.1-1.9-2.2-1.8-3.8
			C937,344,937.4,341.3,939.2,341.4z M939.8,345.7c0-0.6,0.4-2.9-0.5-3.2c-0.8-0.3-1,1.4-1,1.8c-0.1,0.7-0.7,3.1,0.2,3.6
			C939.7,348.5,939.7,346.3,939.8,345.7z"/>
		<path class="st4" d="M947.2,344.4c-0.2,0.7-0.5,1.3-0.7,2c-0.2,0.5-0.4,1-0.5,1.5c-0.1,0.3-0.4,0.8-0.4,1c0,0.6,1,0.3,0.9,1
			c-0.1,1.1-0.9,0.6-1.6,0.4c-0.5-0.2-1.9-0.4-2-1c0-0.3,0.2-0.8,0.5-0.8c0.3-0.1,0.7,0.4,1,0.2c0.3-0.2,0.6-1.7,0.7-2.1
			c0.2-0.7,0.9-1.8,0.9-2.5c0-0.4-0.3-0.5-0.2-0.9c0.1-0.6,0.4-0.4,0.8-0.3c0.3,0.1,1.2,0.2,1.3,0.5c0.1,0.1-0.1,0.5-0.2,0.6
			C947.7,344.2,947.2,344.2,947.2,344.4z"/>
		<path class="st4" d="M952.9,348c-0.6,1.1-1.2,2.3-1.9,3.3c-0.6,1-1.6,1.2-2.6,0.6c-0.4-0.2-1.4-0.6-1.7-1c-0.1-0.2,0-0.7,0.3-0.9
			c0.2-0.2,0.5,0,0.7-0.2c0.4-0.3,0.7-1.2,1-1.7c0.4-0.7,0.9-1.4,1.3-2.2c0.1-0.1,0.2-0.3,0.2-0.4c0-0.4-0.4-0.5,0-1
			c0.5-0.6,1.3,0.3,1.9,0.6C952.9,345.9,953.6,346.8,952.9,348z M949.9,350.7c0.5-0.9,1-1.8,1.6-2.7c0.2-0.4,0.6-0.9,0.5-1.4
			c-0.2-0.5-0.6-0.6-0.9-0.3c-0.7,0.8-1.2,2.1-1.8,3c-0.1,0.3-0.6,0.8-0.6,1.1C948.6,351.1,949.6,351.2,949.9,350.7z"/>
		<path class="st4" d="M956.8,348.8c1.3,1.2-0.3,3.3-1.1,4.3c-1,1.2-2.5,2.8-4,1.4c-1.5-1.4-0.1-3,1-4.1
			C953.5,349.5,955.4,347.6,956.8,348.8z M954.6,352.5c0.4-0.5,2-2,1.6-2.8c-0.3-0.7-1.2,0.1-1.6,0.4c-0.6,0.5-1.2,1.2-1.8,1.9
			c-0.3,0.3-0.8,0.8-0.7,1.3C952.6,354.8,954.3,352.9,954.6,352.5z"/>
		<path class="st4" d="M957.7,357.9c-0.6,0.5-1.4,1.4-2.1,0.8c-0.6-0.6-1.3-1.5-1.7-2.3c-0.4-0.5-0.1-0.6,0.4-1
			c0.8-0.6,1.7-1.3,2.5-1.9c0.8-0.6,1.5-1.2,2.3-1.7c0.1-0.1,0.3-0.3,0.5-0.3c0.2,0,0.7,0.7,0.7,0.9c-0.1,0.4-1.3,1.1-1.6,1.3
			c-0.8,0.6-1.7,1.3-2.5,1.9c-0.1,0.1-0.6,0.3-0.6,0.5c-0.2,0.3,0.3,0.9,0.6,1.1c0.6,0.5,0.4-0.1,1-0.2
			C957.2,356.9,958,357.7,957.7,357.9z"/>
	</g>
	<g>
		<path class="st4" d="M926.2,359.4c0.4,0.4,1.5,0.6,2,0.8c1.6,0.6,3.1,1.2,4.7,1.9c0.7,0.3,1.9,0.5,2.5,1c0.4,0.4,0.5,2.7,0.5,3.4
			c-0.1,0.6-0.7,0.4-1.3,0.4c-0.8,0-1.6-0.1-2.4-0.3c-1.6-0.3-3.5-0.8-4.9-1.6c-0.8-0.5-0.7-1.3-0.8-2.2
			C926.4,362.6,926,359.4,926.2,359.4z M937.3,371.6c0.8,0.8,1.6,1.6,2.6,2.2c0.7,0.5,1.7,0.6,2.4,1.1c0.3,0.2,0.3,0.1,0.3,0.4
			c0,0.6-0.6,1.5-0.8,2c-0.6,1.4-1.1,2.9-1.7,4.3c-1-2.5-1.9-5.1-2.8-7.6c-0.9,2.4-1.7,4.9-2.5,7.4c-0.4-1-0.8-1.9-1.2-2.9
			c-0.3-0.6-0.5-1.3-0.8-1.9c-0.2-0.4-0.3-1.2-0.7-1.4c0.1,0.1-0.6,1.8-0.6,2c-0.4,1.2-0.6,2.4-1.1,3.5c-1-1.6-2-3.3-2.8-5
			c0.7-0.1,1.3-0.1,2-0.2c1.2-0.2,2.3-0.6,3.4-1C934.6,373.8,936.1,372.9,937.3,371.6z M936.6,379.3c0.2-0.5,0.7-1.3,0.7-1.9
			c0.4,1.1,0.8,2.3,1.2,3.4c0.1,0.3,1.4,3.9,1.5,3.9c0.3,0,1.2-2.8,1.3-3.1c0.1-0.3,0.9-3.1,1.2-3.1c0.4,1.5,0.8,3,1.2,4.5
			c0.2,0.6,0.4,0.7-0.3,1c-1.3,0.5-2.9,0.8-4.3,0.9c-3.1,0.4-6.6-0.1-9.4-1.6c-1-0.5-1.1-1.1-1.3-2.2c-0.1-0.3-0.2-1.6-0.4-1.7
			c0.3,0.2,0.7,1,0.9,1.3c0.6,0.9,1.1,1.9,1.7,2.9c0.2-0.7,0.4-1.4,0.6-2.1c0.1-0.5,0.7-3,1-3c0.2,0,1.1,2.5,1.2,2.8
			c0.4,1.1,0.9,2.2,1.4,3.3c0-0.4,0.3-0.8,0.4-1.2c0.2-0.6,0.4-1.2,0.6-1.8C936.2,380.8,936.3,380,936.6,379.3z M929.5,357.9
			c3.2,1.6,6.9,1.8,10.4,1.4c1.7-0.2,3.3-0.6,4.9-1.3c0.2-0.1,0.6-0.4,0.9-0.3c0.3,0.1,0.1,0,0.2,0.2c0.1,0.4-0.3,1.4-0.7,1.6
			c-0.9,0.7-2.4,1-3.4,1.4c-0.9,0.3-1.7,0.7-2.6,1c-0.6,0.3-0.6,0.2-0.7,0.8c-0.1,0.8-0.2,1.7-0.2,2.5c0,0.8-0.3,1.7-0.2,2.4
			c0,0.4,0,0.3,0.3,0.5c0.5,0.2,0.4,0,0.5,0.6c0.4,1.7,2,3.5,3.8,2.1c0.6-0.5,0.9-1.1,1.1-1.9c0.2-0.8-0.1-1.7,1-1.7
			c0,1.6,0,3.2,0.1,4.8c0,0.4,0.3,2.1,0,2.3c-0.3,0.2-1.6-0.4-1.9-0.4c-0.6-0.2-1.2-0.5-1.8-0.8c-1.1-0.6-2-1.3-2.8-2.2
			c-0.2-0.2-0.7-1.2-0.8-1.2c-0.3-0.1-0.7,0.6-0.8,0.9c-0.8,1-1.8,1.7-2.9,2.3c-0.6,0.3-1.1,0.5-1.7,0.7c-0.5,0.2-1.2,0.5-1.8,0.5
			c0-1.8,0-3.7,0-5.5c0-0.3-0.2-1.1-0.1-1.3c0.5-0.7,0.9,0.5,0.9,0.8c0.1,1.3,0.6,2.8,2.1,3.1c1.4,0.3,2.4-1,2.7-2.2
			c0.1-0.3,0-0.8,0.3-1c0.2-0.2,0.6,0,0.7-0.2c0.1-0.1,0.1-0.3,0.1-0.5c0-1-0.1-2.1-0.2-3.1c0-0.5,0.1-1.8-0.2-2.2
			c-0.1-0.2-0.5-0.3-0.7-0.3c-1.5-0.7-3.1-1.2-4.7-1.8c-0.7-0.3-1.8-0.5-2.2-1.2c-0.1-0.2-0.2-0.9-0.1-1.1
			C928.9,357.6,929,357.7,929.5,357.9z M948.9,359.4c0.3,0-0.1,3.2-0.2,3.4c-0.1,0.8,0.1,1.6-0.7,2.1c-1.4,0.9-3.2,1.4-4.8,1.7
			c-0.6,0.1-3.8,0.9-4.1,0.3c-0.2-0.3,0.1-1.3,0.1-1.6c0.1-0.5,0-1.5,0.3-2c0.3-0.6,1.8-0.9,2.4-1.2c1.6-0.7,3.2-1.3,4.9-2
			C947.3,359.9,948.2,359.4,948.9,359.4z M943.4,375.4c0.9,0.2,1.7,0.3,2.6,0.4c0.3,0,0.9-0.1,1,0.2c0.1,0.3-0.8,1.6-1,2
			c-0.5,1.1-1,2.1-1.5,3.2c-0.3-0.9-0.5-1.8-0.8-2.6c-0.3-1-0.9-2.2-0.9-3.2C943,375.3,943.2,375.3,943.4,375.4z M946.7,379.1
			c-0.2,0.7-0.2,1.4-0.3,2.1c0,0.4,0,1.2-0.3,1.6c-0.3,0.4-1.2,0.6-1.6,0.8C945.2,382.1,945.9,380.7,946.7,379.1z"/>
	</g>
	<g>
		<path class="st4" d="M1041,388.2c-0.9-0.6-1.8-1.2-2.8-1.7c-0.7-0.4-1.4-0.9-2.1-1.3c-0.3-0.2-0.9-0.4-1.2-0.7
			c-0.2-0.3,0.1-1.1,0.6-1.1c0.4,0,1.1,0.7,1.4,0.9c0.3,0.2,1.1,0.9,1.4,0.8c0.3-0.1,0.8-1.1,0.7-1.4c-0.2-0.4-1.1-0.7-1.5-0.9
			c-0.3-0.2-1.2-0.5-1.2-0.9c0-0.5,0.5-0.8,0.8-0.7c0.4,0.1,0.9,0.6,1.3,0.8c1.3,0.8,2.6,1.7,4,2.5c0.2,0.1,0.7,0.3,0.7,0.6
			c0,0.1-0.3,0.6-0.4,0.7c-0.3,0.2-0.2,0.1-0.5,0c-0.6-0.2-1.2-1.1-1.8-1.1c-0.4,0-1.1,1-0.9,1.4c0.2,0.4,1.3,0.8,1.7,1.1
			c0.3,0.2,0.4,0.2,0.4,0.5C1041.7,387.7,1041.2,388.4,1041,388.2z"/>
		<path class="st4" d="M1032.5,388.2c-0.4-0.4-0.7-0.5-0.5-0.9c0.2-0.5,1-1,1.4-1.4c0.2-0.3,0.7-1,1-1.1c0.3-0.1,0.4,0.1,0.7,0.3
			c1,0.9,2,1.9,3,2.8c0.4,0.4,0.9,0.8,1.3,1.3c0.1,0.1,0.6,0.4,0.6,0.7c0,0.3-0.7,0.8-0.9,1c-0.5,0.5-0.9,1.1-1.4,1.5
			c-0.3,0.2-0.7,0.3-0.9-0.2c-0.1-0.5,0.7-1,1-1.3c0.3-0.4,0.7-0.6,0.5-1c-0.2-0.4-0.8-0.9-1.2-0.7c-0.4,0.2-0.6,1-1,1.1
			c-0.2,0.1-0.5-0.1-0.6-0.3c-0.2-0.3-0.1-0.3,0.2-0.6c0.3-0.4,1-0.8,0.8-1.3c-0.2-0.4-1.1-1.2-1.5-1.4c-0.5-0.3-0.7,0.2-1.1,0.6
			C1033.7,387.3,1032.8,388.5,1032.5,388.2z"/>
		<path class="st4" d="M1031.8,387.9c0.9,1.2,1.4,2.9,2.1,4.2c0.3,0.6,0.8,1.3,1,1.9c0.2,0.6-0.8,1.5-1.4,1.2
			c-0.4-0.2-0.8-0.8-1.2-1.2c-0.7-0.7-1.4-1.4-2.2-2.2c-0.4-0.4-1.2-0.9-1.5-1.5c-0.2-0.3-0.3-0.4,0-0.7c0.3-0.4,0.6-0.3,0.9-0.1
			c0.3,0.3,0.5,0.7,0.9,0.6c0.2,0,0.9-0.5,1-0.7c0.1-0.4-0.6-0.8-0.6-1.2C1030.9,388.1,1031.5,387.5,1031.8,387.9z M1031.8,390.7
			c-0.3,0.2-0.7,0.4-0.6,0.7c0,0.2,0.4,0.5,0.6,0.6c0.4,0.4,0.7,0.8,1.1,1.2c0.1,0.1,0.4,0.6,0.6,0.7c0.7,0.2-0.3-1.3-0.4-1.5
			C1032.8,392.2,1032.1,390.4,1031.8,390.7z"/>
		<path class="st4" d="M1025.2,393.8c-0.3-0.7-1.1-1.7-0.3-2.2c0.7-0.5,1.8-0.9,2.6-1.2c0.6-0.2,0.6,0.1,0.9,0.6
			c0.4,1,0.9,1.9,1.3,2.9c0.4,0.9,0.8,1.7,1.2,2.6c0.1,0.1,0.2,0.4,0.2,0.6c-0.1,0.2-0.8,0.5-1,0.5c-0.4-0.2-0.7-1.5-0.9-1.8
			c-0.4-1-0.9-1.9-1.3-2.9c-0.1-0.2-0.2-0.6-0.3-0.7c-0.3-0.2-0.9,0.1-1.2,0.3c-0.6,0.4,0,0.4,0,1
			C1026.3,393.6,1025.4,394.2,1025.2,393.8z"/>
		<path class="st4" d="M1023.2,398.6c-0.2-0.7-0.3-1.4-0.5-2c-0.1-0.5-0.2-1.1-0.4-1.6c-0.1-0.3-0.1-0.9-0.3-1.1
			c-0.4-0.5-1,0.3-1.3-0.4c-0.4-1,0.6-1,1.4-1.1c0.5-0.1,0.9-0.2,1.4-0.3c0.4-0.1,0.5-0.1,0.6,0.2c0.6,1.2-0.7,0.6-0.9,1.3
			c-0.2,0.4,0.4,1.8,0.5,2.2c0.2,0.7,0.2,1.9,0.6,2.5c0.2,0.3,0.5,0.2,0.6,0.6c0.2,0.5-0.1,0.6-0.5,0.7c-0.3,0.1-1.2,0.5-1.5,0.3
			c-0.1-0.1-0.2-0.5-0.2-0.6C1022.8,399,1023.2,398.8,1023.2,398.6z"/>
		<path class="st4" d="M1016.4,400.3c0-1.2-0.1-2.4-0.1-3.7c0-0.8-0.1-1.6-0.1-2.4c0-0.2-0.2-0.9,0-1.1c0.1-0.2,0.6-0.2,0.8-0.2
			c0.3,0.1,0.2,0.2,0.3,0.5c0.3,0.6,0.6,1.3,0.9,2c0.1,0.3,0.5,1.5,0.8,1.7c0.4,0.2,0.2-0.7,0.2-1c0-0.8-0.1-1.7-0.1-2.5
			c0-0.5,0.1-1,0.8-0.8c0.7,0.2,0.4,2.5,0.5,3.2c0,0.9,0.1,1.7,0.1,2.6c0,0.4,0.2,1.1,0.1,1.5c-0.2,0.5-0.9,0.4-1.1,0.1
			c-0.3-0.4-0.5-1.1-0.7-1.5c-0.3-0.6-0.6-1.7-1-2.2c-0.5-0.4-0.3,0.5-0.2,0.9c0,0.9,0.1,1.8,0.1,2.6c0,0.3,0.1,0.4-0.2,0.6
			C1017.2,400.6,1016.5,400.5,1016.4,400.3z"/>
		<path class="st4" d="M1013.3,396.7c-0.4-0.1-1.5,0-1.8-0.3c-0.4-0.3-0.1-1.1,0-1.6c0.1-0.6,0.1-1.7,0.3-2.2
			c0.1-0.3,0.2-0.3,0.6-0.2c0.4,0.1,0.4,0.8,0.6,0.8c0.1,0,0.7-0.6,1-0.6c0.8-0.1,1.5,0.3,1.7,1c0.2,0.8-0.1,1.8-0.2,2.6
			c-0.2,1-0.2,2-0.5,2.9c-0.3,1.3-1.3,1.1-2.3,1c-0.9-0.1-2.2-0.3-1.7-1.6c0.1-0.4,0.5-0.6,1-0.3c0.4,0.3,0,0.6,0.5,0.9
			c0.3,0.2,1.1,0.2,1.3-0.1c0.2-0.2,0.2-0.7,0.2-1c0.2-1,0.4-2.1,0.5-3.1c0.2-1.4-1.4-1.5-1.6-0.2c-0.1,0.6-0.2,0.8,0.4,1
			c0.3,0.1,0.4,0,0.5,0.3C1013.7,396.2,1013.5,396.7,1013.3,396.7z"/>
		<path class="st4" d="M1005,396.5c0.3-0.6,0.6-1.3,0.9-1.9c0.2-0.5,0.4-1,0.7-1.5c0.1-0.3,0.4-0.7,0.5-1c0-0.6-0.9-0.4-0.8-1.1
			c0.2-1.1,1-0.5,1.6-0.2c0.5,0.2,1.9,0.6,1.9,1.1c0,0.3-0.3,0.7-0.6,0.8c-0.3,0-0.7-0.4-1-0.3c-0.3,0.2-0.8,1.7-0.9,2
			c-0.3,0.7-1,1.7-1.1,2.4c0,0.3,0.2,0.5,0.2,0.9c-0.1,0.6-0.5,0.4-0.9,0.2c-0.2-0.1-1.1-0.3-1.3-0.6c-0.1-0.1,0.1-0.5,0.2-0.6
			C1004.5,396.6,1005,396.6,1005,396.5z"/>
		<path class="st4" d="M999.7,392.3c0.7-1,1.4-2.1,2.2-3.1c0.7-0.9,1.7-1,2.7-0.4c0.4,0.2,1.4,0.8,1.6,1.2c0.1,0.2-0.2,0.7-0.4,0.8
			c-0.2,0.1-0.5,0-0.7,0.1c-0.4,0.3-0.8,1.2-1.1,1.6c-0.5,0.7-1,1.3-1.4,2c-0.1,0.1-0.2,0.3-0.3,0.4c-0.1,0.4,0.3,0.5,0,0.9
			c-0.5,0.7-1.2-0.2-1.7-0.6C999.5,394.5,998.8,393.5,999.7,392.3z M1002.9,389.9c-0.6,0.8-1.2,1.7-1.8,2.5
			c-0.2,0.3-0.6,0.8-0.6,1.2c0,0.5,0.5,0.8,0.8,0.5c0.8-0.7,1.4-1.9,2-2.8c0.2-0.3,0.7-0.7,0.8-1.1
			C1004.2,389.7,1003.2,389.4,1002.9,389.9z"/>
		<path class="st4" d="M995.9,391.2c-1.2-1.3,0.6-3.3,1.4-4.2c1.1-1.1,2.7-2.6,4.1-1.1c1.4,1.5-0.1,3-1.3,4
			C999.2,390.8,997.1,392.5,995.9,391.2z M998.3,387.7c-0.5,0.4-2.1,1.8-1.9,2.6c0.2,0.7,1.3,0,1.6-0.2c0.7-0.5,1.3-1.1,1.9-1.7
			c0.3-0.3,0.9-0.8,0.8-1.3C1000.5,385.6,998.7,387.3,998.3,387.7z"/>
		<path class="st4" d="M995.8,382c0.6-0.4,1.5-1.3,2.2-0.6c0.6,0.6,1.1,1.6,1.5,2.4c0.3,0.6,0,0.6-0.5,1c-0.9,0.6-1.8,1.1-2.7,1.7
			c-0.8,0.5-1.6,1.1-2.4,1.5c-0.1,0.1-0.4,0.3-0.5,0.3c-0.2,0-0.6-0.7-0.6-0.9c0.1-0.4,1.4-0.9,1.7-1.1c0.9-0.6,1.8-1.1,2.7-1.7
			c0.1-0.1,0.6-0.3,0.7-0.4c0.2-0.3-0.2-0.9-0.5-1.2c-0.5-0.5-0.4,0.1-1,0.1C996.2,383,995.4,382.2,995.8,382z"/>
	</g>
	<g>
		<path class="st4" d="M993.6,353.6c0.9,0.6,1.8,1.2,2.8,1.7c0.7,0.4,1.4,0.9,2.1,1.3c0.3,0.2,0.9,0.4,1.2,0.7
			c0.2,0.3-0.1,1.1-0.6,1.1c-0.4,0-1.1-0.7-1.4-0.9c-0.3-0.2-1.1-0.9-1.4-0.8c-0.3,0.1-0.8,1.1-0.7,1.4c0.2,0.4,1.1,0.7,1.5,0.9
			c0.3,0.2,1.2,0.5,1.2,0.9c0,0.5-0.5,0.8-0.8,0.7c-0.4-0.1-0.9-0.6-1.3-0.8c-1.3-0.8-2.6-1.7-4-2.5c-0.2-0.1-0.7-0.3-0.7-0.6
			c0-0.1,0.3-0.6,0.4-0.7c0.3-0.2,0.2-0.1,0.5,0c0.6,0.2,1.2,1.1,1.8,1.1c0.4,0,1.1-1,0.9-1.4c-0.2-0.4-1.3-0.8-1.7-1.1
			c-0.3-0.2-0.4-0.2-0.4-0.5C992.9,354.1,993.3,353.4,993.6,353.6z"/>
		<path class="st4" d="M1002,353.7c0.4,0.4,0.7,0.5,0.5,0.9c-0.2,0.5-1,1-1.4,1.4c-0.2,0.3-0.7,1-1,1.1c-0.3,0.1-0.4-0.1-0.7-0.3
			c-1-0.9-2-1.9-3-2.8c-0.4-0.4-0.9-0.8-1.3-1.3c-0.1-0.1-0.6-0.4-0.6-0.7c0-0.3,0.7-0.8,0.9-1c0.5-0.5,0.9-1.1,1.4-1.5
			c0.3-0.2,0.7-0.3,0.9,0.2c0.1,0.5-0.7,1-1,1.3c-0.3,0.3-0.7,0.6-0.5,1c0.2,0.4,0.8,0.9,1.2,0.7c0.4-0.2,0.6-1,1-1.1
			c0.2-0.1,0.5,0.1,0.6,0.3c0.2,0.3,0.1,0.4-0.2,0.6c-0.3,0.4-1,0.8-0.8,1.3c0.2,0.4,1.1,1.2,1.5,1.4c0.5,0.3,0.7-0.2,1.1-0.6
			C1000.9,354.6,1001.7,353.4,1002,353.7z"/>
		<path class="st4" d="M1002.8,353.9c-0.9-1.2-1.4-2.9-2.1-4.2c-0.3-0.6-0.8-1.3-1-1.9c-0.2-0.6,0.8-1.5,1.4-1.2
			c0.4,0.2,0.8,0.8,1.2,1.2c0.7,0.7,1.4,1.4,2.2,2.2c0.4,0.4,1.2,0.9,1.5,1.5c0.2,0.3,0.3,0.4,0,0.7c-0.3,0.4-0.6,0.3-0.9,0.1
			c-0.3-0.3-0.5-0.7-0.9-0.6c-0.2,0-0.9,0.5-1,0.7c-0.1,0.4,0.6,0.8,0.6,1.2C1003.7,353.7,1003.1,354.3,1002.8,353.9z M1002.8,351.2
			c0.3-0.2,0.7-0.4,0.6-0.7c0-0.2-0.4-0.5-0.6-0.6c-0.4-0.4-0.7-0.8-1.1-1.2c-0.1-0.1-0.4-0.6-0.6-0.7c-0.7-0.2,0.3,1.3,0.4,1.5
			C1001.7,349.6,1002.5,351.4,1002.8,351.2z"/>
		<path class="st4" d="M1009.4,348c0.3,0.7,1.1,1.7,0.3,2.2c-0.7,0.5-1.8,0.9-2.6,1.2c-0.6,0.2-0.6-0.1-0.9-0.6
			c-0.4-1-0.9-1.9-1.3-2.9c-0.4-0.9-0.8-1.7-1.2-2.6c-0.1-0.1-0.2-0.4-0.2-0.6c0.1-0.2,0.8-0.5,1-0.5c0.4,0.2,0.7,1.5,0.9,1.8
			c0.4,1,0.9,1.9,1.3,2.9c0.1,0.2,0.2,0.6,0.3,0.7c0.3,0.2,0.9-0.1,1.2-0.3c0.6-0.4,0-0.4,0-1C1008.3,348.3,1009.2,347.6,1009.4,348
			z"/>
		<path class="st4" d="M1011.4,343.2c0.2,0.7,0.3,1.4,0.5,2c0.1,0.5,0.2,1.1,0.4,1.6c0.1,0.3,0.1,0.9,0.3,1.1c0.4,0.5,1-0.3,1.3,0.4
			c0.4,1-0.6,1-1.4,1.1c-0.5,0.1-0.9,0.2-1.4,0.3c-0.4,0.1-0.5,0.1-0.6-0.2c-0.6-1.2,0.7-0.6,0.9-1.3c0.2-0.4-0.4-1.8-0.5-2.2
			c-0.2-0.7-0.2-1.9-0.6-2.5c-0.2-0.3-0.5-0.2-0.6-0.6c-0.2-0.5,0.1-0.6,0.5-0.7c0.3-0.1,1.2-0.5,1.5-0.3c0.1,0.1,0.2,0.5,0.2,0.6
			C1011.8,342.8,1011.4,343,1011.4,343.2z"/>
		<path class="st4" d="M1018.1,341.6c0,1.2,0.1,2.4,0.1,3.7c0,0.8,0.1,1.6,0.1,2.4c0,0.2,0.2,0.9,0,1.1c-0.1,0.2-0.6,0.2-0.8,0.2
			c-0.3-0.1-0.2-0.2-0.3-0.5c-0.3-0.6-0.6-1.3-0.9-2c-0.1-0.3-0.5-1.5-0.8-1.7c-0.4-0.2-0.2,0.7-0.2,1c0,0.8,0.1,1.7,0.1,2.5
			c0,0.5-0.1,1-0.8,0.8c-0.7-0.2-0.4-2.5-0.5-3.2c0-0.9-0.1-1.7-0.1-2.6c0-0.4-0.2-1.1-0.1-1.5c0.2-0.5,0.9-0.4,1.1-0.1
			c0.3,0.4,0.5,1.1,0.7,1.5c0.3,0.6,0.6,1.7,1,2.2c0.5,0.4,0.3-0.5,0.2-0.9c0-0.9-0.1-1.8-0.1-2.6c0-0.3-0.1-0.4,0.2-0.6
			C1017.4,341.3,1018.1,341.3,1018.1,341.6z"/>
		<path class="st4" d="M1021.3,345.2c0.4,0.1,1.5,0,1.8,0.3c0.4,0.3,0.1,1.1,0,1.6c-0.1,0.6-0.1,1.7-0.3,2.2
			c-0.1,0.3-0.2,0.3-0.6,0.2c-0.4-0.1-0.4-0.8-0.6-0.8c-0.1,0-0.7,0.6-1,0.6c-0.8,0.1-1.5-0.3-1.7-1c-0.2-0.8,0.1-1.8,0.2-2.6
			c0.2-1,0.2-2,0.5-2.9c0.3-1.3,1.3-1.1,2.3-1c0.9,0.1,2.2,0.3,1.7,1.6c-0.1,0.4-0.5,0.6-1,0.3c-0.4-0.3,0-0.6-0.5-0.9
			c-0.3-0.2-1.1-0.2-1.3,0.1c-0.2,0.2-0.2,0.7-0.2,1c-0.2,1-0.4,2.1-0.5,3.1c-0.2,1.4,1.4,1.5,1.6,0.2c0.1-0.6,0.2-0.8-0.4-1
			c-0.3-0.1-0.4,0-0.5-0.3C1020.9,345.6,1021,345.1,1021.3,345.2z"/>
		<path class="st4" d="M1029.5,345.3c-0.3,0.6-0.6,1.3-0.9,1.9c-0.2,0.5-0.4,1-0.7,1.5c-0.1,0.3-0.4,0.7-0.5,1
			c0,0.6,0.9,0.4,0.8,1.1c-0.2,1.1-1,0.5-1.6,0.2c-0.5-0.2-1.9-0.6-1.9-1.1c0-0.3,0.3-0.7,0.6-0.8c0.3,0,0.7,0.4,1,0.3
			c0.3-0.2,0.8-1.7,0.9-2c0.3-0.7,1-1.7,1.1-2.4c0-0.3-0.2-0.5-0.2-0.9c0.1-0.6,0.5-0.4,0.9-0.2c0.2,0.1,1.1,0.3,1.3,0.6
			c0.1,0.1-0.1,0.5-0.2,0.6C1030.1,345.3,1029.6,345.2,1029.5,345.3z"/>
		<path class="st4" d="M1034.9,349.5c-0.7,1-1.4,2.1-2.2,3.1c-0.7,0.9-1.7,1-2.7,0.4c-0.4-0.2-1.4-0.8-1.6-1.2
			c-0.1-0.2,0.2-0.7,0.4-0.8c0.2-0.1,0.5,0,0.7-0.1c0.4-0.3,0.8-1.2,1.1-1.6c0.5-0.7,1-1.3,1.4-2c0.1-0.1,0.2-0.3,0.3-0.4
			c0.1-0.4-0.3-0.5,0-0.9c0.5-0.7,1.2,0.2,1.7,0.6C1035.1,347.3,1035.8,348.3,1034.9,349.5z M1031.7,351.9c0.6-0.8,1.2-1.7,1.8-2.5
			c0.2-0.3,0.6-0.8,0.6-1.2c0-0.5-0.5-0.8-0.8-0.5c-0.8,0.7-1.4,1.9-2,2.8c-0.2,0.3-0.7,0.7-0.8,1.1
			C1030.4,352.1,1031.3,352.4,1031.7,351.9z"/>
		<path class="st4" d="M1038.7,350.6c1.2,1.3-0.6,3.3-1.4,4.2c-1.1,1.1-2.7,2.6-4.1,1.1c-1.4-1.5,0.1-3,1.3-4
			C1035.4,351,1037.5,349.3,1038.7,350.6z M1036.2,354.1c0.5-0.4,2.1-1.8,1.9-2.6c-0.2-0.7-1.2,0-1.6,0.2c-0.7,0.5-1.3,1.1-1.9,1.7
			c-0.3,0.3-0.9,0.8-0.8,1.3C1034.1,356.2,1035.8,354.5,1036.2,354.1z"/>
		<path class="st4" d="M1038.8,359.8c-0.6,0.4-1.5,1.3-2.2,0.6c-0.6-0.6-1.1-1.6-1.5-2.4c-0.3-0.6,0-0.6,0.5-1
			c0.9-0.6,1.8-1.1,2.7-1.7c0.8-0.5,1.6-1.1,2.4-1.5c0.1-0.1,0.4-0.3,0.5-0.3c0.2,0,0.6,0.7,0.6,0.9c-0.1,0.4-1.4,0.9-1.7,1.1
			c-0.9,0.6-1.8,1.1-2.7,1.7c-0.1,0.1-0.6,0.3-0.7,0.4c-0.2,0.3,0.2,0.9,0.5,1.2c0.5,0.5,0.4-0.1,1-0.1
			C1038.4,358.8,1039.2,359.6,1038.8,359.8z"/>
	</g>
	<g>
		<path class="st4" d="M1005.9,357.8c0.6,0,1.2,0.3,1.8,0.4c0.8,0.2,1.6,0.3,2.4,0.5c0.7,0.1,1.5,0.1,2.2,0.2c0.3,0,1.1,0.1,1.2,0.3
			c0.3,0.4,0.1,1.8,0.1,2.2c0,0.6,0.1,1.2,0.1,1.9c-0.9,0-1.5-0.3-2.4,0c-0.7,0.3-1.3,0.8-1.6,1.6c-0.5,1.5,0,3.1,1.5,3.8
			c0.7,0.3,1.4,0.3,2.1,0c0.7-0.2,0.7-0.4,0.8,0.2c0.2,1,0.2,2.1,0.3,3.2c-1.5,0-3.2-0.5-4.6-0.9c-0.8-0.2-1.6-0.5-2.4-0.9
			c-0.8-0.4-0.8-1-0.9-1.8C1006.5,367.3,1005.5,357.8,1005.9,357.8z M1007.3,371.3c0.8,0.3,1.6,0.7,2.4,1c0.3,0.1,0.5,0.1,0.6,0.4
			c0,0.2-0.1,0.5-0.2,0.7c-0.4,1.1-0.8,2.1-1.1,3.3c-0.4-0.7-0.7-1.3-0.9-2C1008,374.3,1007.2,371.3,1007.3,371.3z M1010.9,374.6
			c0.6,0.6,0.9,2.1,1.2,2.9c0.1,0.3,0.9,2,0.7,2.2c-0.1,0.2-1.4-0.3-1.5-0.3c-0.5-0.2-1.1-0.4-1.3-1c-0.2-0.5,0-1.1,0.1-1.5
			C1010.3,376.2,1010.5,375.3,1010.9,374.6z M1012,372.8c0.5,0.1,3.5,0.2,3.6,0.6c0.1,0.3-0.6,1.3-0.7,1.5c-0.4,0.8-0.8,1.7-1.2,2.5
			c-0.4,0.8-0.5,0.6-0.8-0.2c-0.6-1.5-1.1-3-1.6-4.5C1011.5,372.8,1011.8,372.8,1012,372.8z M1011.3,380.6c2.2,0.4,4.3,0.8,6.6,0.7
			c2.1,0,4.1-0.4,6.2-0.7c-0.7,0.7-1.3,1.5-2.1,2.1c-1,0.8-2.6,2-4,2.1c-1.2,0.1-2.8-0.8-3.8-1.5
			C1013.3,382.8,1011.6,381.7,1011.3,380.6z M1015.5,375.9c0.3-0.5,0.4-0.1,0.5,0.2c0.3,0.6,0.5,1.3,0.8,1.9
			c0.3,0.7,0.6,1.5,0.8,2.2c-1.3,0-2.7-0.1-4-0.2c0-0.5,0.5-1.2,0.7-1.6C1014.8,377.6,1015.1,376.7,1015.5,375.9z M1017.3,357.4
			c0.8,0,1.8-0.1,2.6,0.1c0.4,0.1,0.3,0,0.4,0.4c0.2,1-0.1,2.3-0.2,3.3c-0.1,2.1-0.3,4.3-0.4,6.4c-0.1,1.3-0.1,2.6-0.3,3.9
			c-0.2,0.9-1.1,0.7-1.8,0.7c-0.2,0-1.6,0-1.8-0.2c-0.1-0.1-0.1-0.4-0.1-0.6c-0.2-2.1-0.5-4.1-0.7-6.2c-0.2-2-0.2-4-0.4-6
			c-0.1-0.5-0.4-1.3,0-1.6C1015.1,357.2,1016.7,357.4,1017.3,357.4z M1018.7,373.3c0.3,0,1.1-0.3,1.1,0.1c0,0.2-0.4,0.9-0.5,1.1
			c-0.5,1.1-0.9,2.2-1.4,3.3c-0.4-0.9-0.8-1.8-1.2-2.7c-0.1-0.2-0.7-1.4-0.6-1.6C1016.3,373,1018.3,373.3,1018.7,373.3z
			 M1020.1,375.6c0.2,0,0.6,1,0.6,1.2c0.4,0.8,0.7,1.6,1.1,2.5c0.2,0.4,0.3,0.5,0,0.7c-0.6,0.4-1.9,0.3-2.7,0.3
			c-0.6,0-0.9,0.2-0.8-0.5c0.2-0.7,0.5-1.3,0.8-1.9C1019.4,377.1,1019.8,376.4,1020.1,375.6z M1024.1,372.8
			c-0.6,1.6-1.2,3.2-1.8,4.9c-0.7-1.5-1.4-3-2.1-4.5c0.5,0,1-0.1,1.5-0.1C1021.9,373,1024.1,372.5,1024.1,372.8z M1029.2,361.5
			c-0.1,1.7-0.2,3.3-0.3,5c-0.1,0.9,0,2.6-0.6,3.4c-0.7,0.9-2.6,1.1-3.6,1.3c-0.8,0.2-1.6,0.4-2.4,0.5c-0.3,0.1-1.3,0.4-1.6,0.2
			c-0.3-0.2,0,0.3-0.1-0.3c0-0.3,0-0.8,0.1-1.2c0-0.3-0.1-1.8,0.1-2c0,0,1.6,0.4,1.9,0.4c0.7-0.1,1.4-0.5,1.8-1
			c2-2.3-0.7-5.9-3.4-4.5c0-1.2,0.1-2.3,0.2-3.5c0-0.5-0.1-0.7,0.3-0.9c0.3-0.2,1.1-0.1,1.5-0.1c1-0.1,2.1-0.2,3.1-0.4
			c0.7-0.1,1.3-0.2,2-0.4c0.1,0,0.8-0.4,0.9-0.3C1029.5,358,1029.2,361.1,1029.2,361.5z M1024.3,375c0.5,0.8,0.9,1.4,1.2,2.3
			c0.4,1.9-1.3,2.1-2.7,2.4c-0.1-0.1,0.3-1.1,0.3-1.3C1023.5,377.3,1023.9,376.2,1024.3,375z M1028.1,371.5
			c-0.2,0.2-0.2,0.6-0.2,0.8c-0.1,0.4-0.3,0.9-0.4,1.3c-0.3,1-0.6,2-0.9,3c-0.2,0-0.5-1-0.6-1.2c-0.3-0.8-0.9-1.7-1-2.5
			c-0.1-0.7,0.7-0.8,1.2-0.9C1026.4,372,1028.1,371.2,1028.1,371.5z"/>
	</g>
	<g>
		<path class="st4" d="M1031,471.3c-0.8-0.9-0.9-2.1,0-3c0.4-0.4,1-1,1.4-1.2c0.6-0.2,1.5,1.4,1.9,1.8c0.9,1.1,1.9,2.2,2.8,3.4
			c0.2,0.3,0.3,0.4,0,0.7c-0.4,0.4-1,0.9-1.5,1.2c-1.2,0.7-2.5-0.2-2.7-1.5c-0.1-0.4,0.1-0.5-0.3-0.7
			C1032,471.8,1031.5,471.9,1031,471.3z M1032,470.6c0.4,0.5,1.5,0.8,1.9,0.1c0.2-0.4-0.3-0.8-0.6-1.1c-0.3-0.3-0.5-0.9-0.9-0.8
			C1031.5,469,1031.6,470.1,1032,470.6z M1034.4,471.3c-1.5,1.1,0.7,2.9,1.3,1.7C1035.9,472.6,1034.7,471.1,1034.4,471.3z"/>
		<path class="st4" d="M1026.7,473.5c-0.4-0.7-1.2-1.6-0.4-2.2c0.7-0.5,1.7-1,2.5-1.3c0.6-0.3,0.6,0,0.9,0.5c0.5,0.9,1,1.9,1.5,2.8
			c0.4,0.8,0.9,1.7,1.3,2.5c0.1,0.1,0.3,0.4,0.2,0.5c0,0.2-0.8,0.6-1,0.5c-0.4-0.1-0.8-1.4-1-1.8c-0.5-0.9-1-1.9-1.5-2.8
			c-0.1-0.2-0.2-0.6-0.4-0.7c-0.3-0.2-0.9,0.1-1.2,0.4c-0.5,0.5,0.1,0.4,0.1,1C1027.8,473.2,1026.9,473.9,1026.7,473.5z"/>
		<path class="st4" d="M1025,478.5c-0.2-0.7-0.4-1.3-0.6-2c-0.2-0.5-0.3-1-0.5-1.6c-0.1-0.3-0.1-0.8-0.3-1.1c-0.4-0.5-1,0.3-1.3-0.3
			c-0.6-0.9,0.4-1,1.1-1.2c0.5-0.2,1.8-0.8,2.2-0.4c0.2,0.2,0.3,0.8,0.1,1c-0.2,0.2-0.8,0.1-0.9,0.5c-0.1,0.4,0.5,1.7,0.6,2.1
			c0.2,0.7,0.3,1.9,0.8,2.6c0.2,0.3,0.5,0.2,0.7,0.5c0.3,0.5-0.1,0.6-0.5,0.8c-0.3,0.1-1.1,0.5-1.4,0.4c-0.1-0.1-0.3-0.5-0.3-0.6
			C1024.7,478.9,1025.1,478.6,1025,478.5z"/>
		<path class="st4" d="M1017.8,473.2c1.1-0.1,2.2-0.3,3.3-0.4c0.5,0,0.5-0.1,0.6,0.4c0.1,0.3,0.1,0.7,0,1.1c-0.3,1.1-1,2.3-1.4,3.3
			c-0.2,0.5-0.5,1-0.6,1.5c-0.1,0.4-0.2,0.3,0.2,0.4c0.5,0.1,3-0.8,2.5,0.5c-0.2,0.6-2.4,0.5-3,0.6c-0.3,0-0.8,0.2-1-0.1
			c-0.2-0.2-0.1-0.8,0-1c0.2-1.1,0.9-2.3,1.4-3.3c0.2-0.5,0.7-1.2,0.7-1.8c0-0.4,0-0.3-0.4-0.3c-0.6,0-1.5,0.4-2.1,0.2
			C1017.7,474.3,1017.5,473.3,1017.8,473.2z"/>
		<path class="st4" d="M1013.5,472.9c1.1,0.1,2.2,0.1,3.3,0.3c0.5,0.1,0.5,0,0.5,0.5c0,0.4,0,0.8-0.2,1.1c-0.5,1-1.4,2-2,3
			c-0.3,0.4-0.7,0.9-0.9,1.4c-0.2,0.4-0.3,0.3,0.2,0.4c0.5,0.2,3.1-0.2,2.4,0.9c-0.3,0.5-2.4,0-3.1,0c-0.3,0-0.8,0-1-0.3
			c-0.1-0.2,0.1-0.8,0.2-1c0.5-1,1.4-2,2-3c0.3-0.4,0.9-1.1,1.1-1.6c0.1-0.4,0.1-0.3-0.4-0.4c-0.5-0.1-1.7,0.1-2.1-0.2
			c-0.2-0.2-0.1-0.1-0.2-0.4C1013.2,473.6,1013.2,472.9,1013.5,472.9z"/>
		<path class="st4" d="M1012.9,473.2c-0.4,1.5-1.4,3-2.1,4.3c-0.3,0.6-0.5,1.4-0.9,1.9c-0.4,0.5-1.7,0.2-1.8-0.4
			c-0.1-0.4,0.1-1.2,0.2-1.6c0.1-1,0.3-2.1,0.4-3.1c0.1-0.6,0.1-1.4,0.2-2c0.1-0.4,0.1-0.4,0.5-0.4c0.5,0,0.6,0.3,0.7,0.7
			c0,0.4-0.3,0.8,0.1,1.1c0.1,0.1,1,0.4,1.2,0.3c0.3-0.2,0.3-0.9,0.6-1.1C1012.2,472.5,1013.1,472.7,1012.9,473.2z M1010.8,474.8
			c-0.3-0.1-0.7-0.3-1,0c-0.1,0.2-0.1,0.6-0.1,0.8c-0.1,0.5-0.2,1.1-0.3,1.6c0,0.2-0.2,0.7-0.2,0.9c0.3,0.6,0.8-1,0.9-1.3
			C1010.2,476.6,1011.2,474.9,1010.8,474.8z"/>
		<path class="st4" d="M1005.2,469.9c0.1-0.3,0.7,0.1,0.9,0.2c0.2,0.2,0.3,0.2,0.3,0.5c0,0.6-0.2,1.4-0.3,2c-0.1,0.5-0.1,1-0.3,1.5
			c-0.2,0.4-0.2,0.4-0.6,0.5c-0.2,0-0.3-0.1-0.5,0c-0.2,0.1-0.2,0.3-0.3,0.4c-0.3,0.5-0.7,1-0.3,1.4c0.4,0.4,0.7,0.4,1,0
			c0.8-1.1,1.4-2.6,2-3.8c0.2-0.3,0.4-1.1,0.7-1.3c0.3-0.2,1.1,0.1,1.1,0.5c0,0.2-0.4,0.7-0.5,0.9c-0.4,0.7-0.7,1.4-1.1,2.1
			c-0.4,0.7-0.7,1.4-1.1,2.1c-0.2,0.3-0.4,1-0.6,1.2c-0.5,0.4-2.4-0.8-2.9-1.2c-0.7-0.5-0.1-1.3,0.2-1.9c0.1-0.2,0.2-0.6,0.4-0.8
			c0.4-0.4,0.9-0.2,1.2-0.5c0.3-0.3,0.3-1.4,0.4-1.8C1005,471.3,1004.9,470.4,1005.2,469.9z"/>
		<path class="st4" d="M998.3,471.4c0.8-1,1.6-2,2.4-3c0.8-0.9,1.8-0.9,2.7-0.2c0.3,0.3,1.4,0.9,1.5,1.3c0.1,0.2-0.2,0.7-0.4,0.8
			c-0.2,0.1-0.5,0-0.7,0.1c-0.4,0.2-0.9,1.1-1.2,1.5c-0.5,0.6-1.1,1.3-1.6,1.9c-0.1,0.1-0.3,0.2-0.3,0.4c-0.1,0.4,0.2,0.5-0.1,0.9
			c-0.5,0.7-1.2-0.3-1.7-0.7C998,473.5,997.3,472.5,998.3,471.4z M1001.6,469.2c-0.6,0.8-1.3,1.6-1.9,2.4c-0.3,0.3-0.7,0.7-0.7,1.2
			c0,0.5,0.4,0.8,0.8,0.5c0.8-0.6,1.5-1.8,2.1-2.6c0.2-0.3,0.7-0.7,0.9-1C1003,469,1002,468.7,1001.6,469.2z"/>
	</g>
	<g>
		<path class="st4" d="M1003.6,431.1c0.8,0.9,0.9,2.1,0,3c-0.4,0.4-1,1-1.4,1.2c-0.6,0.2-1.5-1.4-1.9-1.8c-0.9-1.1-1.9-2.2-2.7-3.4
			c-0.2-0.3-0.3-0.4,0-0.7c0.4-0.4,1-0.9,1.5-1.2c1.2-0.7,2.5,0.2,2.7,1.5c0.1,0.4-0.1,0.5,0.3,0.7
			C1002.6,430.6,1003.1,430.4,1003.6,431.1z M1000.1,431c1.5-1.1-0.7-2.9-1.3-1.7C998.7,429.7,999.8,431.3,1000.1,431z
			 M1002.6,431.8c-0.4-0.5-1.5-0.8-1.9-0.1c-0.2,0.4,0.3,0.8,0.6,1.1c0.3,0.3,0.5,0.9,0.9,0.8C1003.1,433.4,1003,432.3,1002.6,431.8
			z"/>
		<path class="st4" d="M1007.9,428.9c0.4,0.7,1.2,1.6,0.4,2.2c-0.7,0.5-1.7,1-2.5,1.3c-0.6,0.3-0.6,0-0.9-0.5
			c-0.5-0.9-1-1.9-1.5-2.8c-0.4-0.8-0.9-1.7-1.3-2.5c-0.1-0.1-0.3-0.4-0.2-0.5c0-0.2,0.8-0.6,1-0.5c0.4,0.1,0.8,1.4,1,1.8
			c0.5,0.9,1,1.9,1.5,2.8c0.1,0.2,0.2,0.6,0.4,0.7c0.3,0.2,0.9-0.1,1.2-0.4c0.5-0.5-0.1-0.4-0.1-1
			C1006.8,429.2,1007.7,428.5,1007.9,428.9z"/>
		<path class="st4" d="M1009.5,423.9c0.2,0.7,0.4,1.3,0.6,2c0.2,0.5,0.3,1,0.5,1.6c0.1,0.3,0.1,0.8,0.3,1.1c0.4,0.5,1-0.3,1.3,0.3
			c0.6,0.9-0.4,1-1.1,1.2c-0.5,0.2-1.8,0.8-2.2,0.4c-0.2-0.2-0.3-0.8-0.1-1c0.2-0.2,0.8-0.1,0.9-0.5c0.1-0.4-0.5-1.7-0.6-2.1
			c-0.2-0.7-0.3-1.9-0.8-2.6c-0.2-0.3-0.5-0.2-0.7-0.5c-0.3-0.5,0.1-0.6,0.5-0.8c0.3-0.1,1.1-0.5,1.4-0.4c0.1,0.1,0.3,0.5,0.3,0.6
			C1009.9,423.5,1009.5,423.8,1009.5,423.9z"/>
		<path class="st4" d="M1016.8,429.1c-1.1,0.1-2.2,0.3-3.3,0.4c-0.5,0-0.5,0.1-0.6-0.4c-0.1-0.3-0.1-0.7,0-1.1
			c0.3-1.1,1-2.3,1.4-3.3c0.2-0.5,0.5-1,0.6-1.5c0.1-0.4,0.2-0.3-0.2-0.4c-0.5-0.1-3,0.8-2.5-0.5c0.2-0.6,2.4-0.5,3-0.6
			c0.3,0,0.8-0.2,1,0.1c0.2,0.2,0.1,0.8,0,1c-0.2,1.1-0.9,2.3-1.4,3.3c-0.2,0.5-0.7,1.2-0.7,1.8c0,0.4,0,0.3,0.4,0.3
			c0.6,0,1.5-0.4,2.1-0.2C1016.9,428,1017.1,429.1,1016.8,429.1z"/>
		<path class="st4" d="M1021.1,429.5c-1.1-0.1-2.2-0.1-3.3-0.3c-0.5-0.1-0.5,0-0.5-0.5c0-0.3,0-0.7,0.2-1c0.5-1.1,1.4-2.1,2-3
			c0.3-0.4,0.7-0.9,0.9-1.4c0.1-0.3,0.3-0.3,0-0.4c-0.4-0.3-3.2,0.3-2.5-1c0.3-0.5,2.3,0,2.9,0c0.2,0,1,0,1.1,0.1
			c0.2,0.2-0.1,0.9-0.2,1.2c-0.5,1-1.3,2-2,2.9c-0.3,0.4-0.9,1.1-1.1,1.6c-0.1,0.4-0.1,0.3,0.4,0.4c0.5,0.1,1.6-0.1,2.1,0.2
			c0.2,0.2,0.1,0.1,0.2,0.4C1021.4,428.8,1021.4,429.5,1021.1,429.5z"/>
		<path class="st4" d="M1021.6,429.2c0.5-1.5,1.4-2.9,2.1-4.3c0.3-0.6,0.5-1.4,0.9-1.9c0.4-0.5,1.7-0.2,1.8,0.4
			c0.1,0.4-0.1,1.2-0.2,1.6c-0.1,1-0.3,2.1-0.4,3.1c-0.1,0.6-0.1,1.4-0.2,2c-0.1,0.4-0.1,0.4-0.5,0.4c-0.5,0-0.6-0.3-0.7-0.7
			c0-0.4,0.3-0.8-0.1-1.1c-0.1-0.1-1-0.4-1.2-0.3c-0.3,0.2-0.3,0.9-0.6,1.1C1022.4,429.8,1021.5,429.7,1021.6,429.2z M1023.8,427.6
			c0.3,0.1,0.7,0.3,1,0c0.1-0.2,0.1-0.6,0.1-0.8c0.1-0.5,0.2-1.1,0.3-1.6c0-0.2,0.2-0.7,0.2-0.9c-0.3-0.6-0.8,1-0.9,1.3
			C1024.3,425.8,1023.4,427.4,1023.8,427.6z"/>
		<path class="st4" d="M1029.4,432.5c-0.1,0.3-0.7-0.1-0.9-0.2c-0.2-0.2-0.3-0.2-0.3-0.5c0-0.6,0.2-1.4,0.3-2c0.1-0.5,0.1-1,0.3-1.5
			c0.2-0.4,0.2-0.4,0.6-0.5c0.2,0,0.3,0.1,0.5,0c0.2-0.1,0.2-0.3,0.3-0.4c0.3-0.5,0.7-1,0.3-1.4c-0.4-0.4-0.7-0.4-1,0
			c-0.8,1.1-1.4,2.6-2,3.8c-0.2,0.3-0.4,1.1-0.7,1.3c-0.3,0.2-1.1-0.1-1.1-0.5c0-0.2,0.4-0.7,0.5-0.9c0.4-0.7,0.7-1.4,1.1-2.1
			c0.4-0.7,0.7-1.4,1.1-2.1c0.2-0.3,0.4-1,0.6-1.2c0.5-0.4,2.4,0.8,2.9,1.2c0.7,0.5,0.1,1.3-0.2,1.9c-0.1,0.2-0.2,0.6-0.4,0.8
			c-0.4,0.4-0.9,0.2-1.2,0.5c-0.3,0.3-0.3,1.4-0.4,1.8C1029.6,431.1,1029.7,432,1029.4,432.5z"/>
		<path class="st4" d="M1036.3,431c-0.8,1-1.6,2-2.4,3c-0.8,0.9-1.8,0.9-2.7,0.2c-0.3-0.3-1.4-0.9-1.5-1.3c-0.1-0.2,0.2-0.7,0.4-0.8
			c0.2-0.1,0.5,0,0.7-0.1c0.4-0.2,0.9-1.1,1.2-1.5c0.5-0.6,1.1-1.3,1.6-1.9c0.1-0.1,0.3-0.2,0.3-0.4c0.1-0.4-0.2-0.5,0.1-0.9
			c0.5-0.7,1.2,0.3,1.7,0.7C1036.6,428.9,1037.2,429.8,1036.3,431z M1033,433.2c0.6-0.8,1.3-1.6,1.9-2.4c0.3-0.3,0.7-0.7,0.7-1.2
			c0-0.5-0.4-0.8-0.8-0.5c-0.8,0.6-1.5,1.8-2.1,2.6c-0.2,0.3-0.7,0.7-0.9,1C1031.6,433.3,1032.5,433.7,1033,433.2z"/>
	</g>
	<g>
		<path class="st4" d="M1020.2,437.5c0.2,0,0.6,0.5,0.8,0.6c0.5,0.4,0.9,0.9,1.4,1.4c0.5,0.6,0.7,0.6,0.6,1.4
			c-0.1,0.5-0.2,1-0.3,1.4c-0.1,0.4-0.1,1.4-0.4,1.7c-0.5,0.5-2,0.8-2.6,1c0.3,0.2,1.5,0.7,1.5,1.1c0.1,0.7-1.8,1.3-1,2
			c0.9,0.7,1.1-1,1.9-1.1c0.6-0.1,0.8,1,1.2,1.4c0.1-0.3,0.2-0.7,0.3-1c0.1-0.5,0.1-1.1,0.3-1.5c0.3-0.5,1.2-0.7,1.8-0.9
			c0.4-0.1,1.6-0.7,1.9-0.6c0.2,0.1,0.6,0.5,0.8,0.7c0.3,0.2,0.5,0.4,0.8,0.6c0.3,0.3,0.6,0.6,0.9,0.9c0.1,0.1,0.4,0.3,0.5,0.4
			c0.3,0.6-0.2,1.8-0.3,2.4c-0.1,0.5-0.2,1.3-0.6,1.6c-0.5,0.4-1.6,0.6-2.3,0.8c-0.3,0.1-0.9,0.4-1.2,0.4c-0.2,0-0.5-0.3-0.7-0.5
			c-0.3-0.3-1.1-1.4-1.6-1.4c0,0,0.1,1.4,0.1,1.5c-0.1,0.5,0.1,0.3-0.4,0.4c-0.6,0.1-2.2-0.9-1.9,0.4c0.1,0.6,1.2,0.5,1.7,0.8
			c0.4,0.2,0.3,0,0.2,0.4c-0.1,0.5-0.5,1-0.8,1.5c0.6-0.2,1.2-0.5,1.9-0.7c0.2-0.1,0.7-0.4,0.9-0.3c0.2,0.1,0.6,0.6,0.7,0.8
			c0.6,0.6,1.7,1.2,2.1,1.9c0.2,0.5-0.1,1.3-0.2,1.8c-0.1,0.6-0.1,1.3-0.4,1.8c-0.3,0.9-2.3,1.2-3.1,1.4c-1.1,0.3-1.5-0.5-2.2-1.2
			c-0.4-0.4-1.2-0.9-1.3-1.4c-0.1-0.4,0.6-2.7,0.5-2.7c-0.2-0.1-1,0.7-1.3,0.8c-0.4,0-0.5-0.1-0.6-0.5c-0.1-0.3-0.2-1.1-0.5-1.3
			c-0.2-0.1-0.7,0-0.8,0.2c-0.3,0.5,0.5,1.3,0.4,1.9c-0.1,0.4-0.4,0.3-0.8,0.4c-0.1,0-1,0.1-1,0c0.1,0.6,1.3,1.3,1.7,1.8
			c0.3,0.5,0.2,0.8,0,1.4c-0.1,0.6-0.3,1.3-0.4,1.9c-0.2,0.8-0.3,0.9-1.1,1.2c-0.8,0.3-2.1,1-2.9,0.6c-0.7-0.3-1.3-1.2-2-1.8
			c-0.8-0.6-0.7-0.6-0.4-1.6c0.2-0.8,0.1-1.9,0.5-2.6c0.2-0.4,0.7-0.5,1-0.6c0.5-0.2,1.2-0.6,1.7-0.6c-0.3-0.4-1.5-0.6-1.6-1.2
			c0-0.5,1.3-1,1.2-1.6c0-0.2-0.6-0.6-0.7-0.6c-0.3,0.1-0.8,0.9-1,1.1c-0.4,0.4-0.4,0.4-0.8,0c-0.3-0.3-0.5-0.7-0.7-1.1
			c-0.2,0.6-0.3,2.5-0.8,2.9c-0.4,0.3-1.3,0.4-1.9,0.6c-0.6,0.2-1.3,0.7-1.8,0.4c-0.3-0.1-0.6-0.5-0.9-0.7c-0.5-0.4-1.6-1.1-1.8-1.7
			c-0.1-0.3,0-0.9,0.1-1.2c0.1-0.8,0.1-1.8,0.5-2.4c0.3-0.6,1-0.7,1.6-0.9c0.5-0.2,1.6-0.8,2.2-0.7c0.4,0.1,0.8,0.6,1,0.8
			c0.1,0.1,0.8,0.9,1,0.9c0.2,0,0,0,0.1-0.2c0.2-0.4-0.2-1.1,0-1.5c0.3-0.4,1,0,1.5,0c0.2,0,0.4,0.1,0.6,0c0.2-0.1,0.4-0.8,0.2-1
			c-0.3-0.4-1.5,0-1.8-0.5c-0.3-0.3,0.3-1.5,0.6-1.8c-0.7,0.2-1.8,0.8-2.6,0.7c-0.5,0-0.8-0.5-1.2-0.8c-0.5-0.5-1.1-0.8-1.5-1.3
			c-0.6-0.7-0.1-1.8,0.1-2.6c0.1-0.4,0.2-0.8,0.3-1.2c0.2-0.4,0.1-0.3,0.4-0.5c0.7-0.4,2.2-1,3-1c0.5,0,0.6,0.1,1,0.5
			c0.3,0.3,0.6,0.5,0.9,0.8c0.3,0.3,1.1,0.9,1.2,1.2c0.1,0.3-0.1,0.8-0.1,1c-0.1,0.4-0.1,0.7-0.2,1.1c-0.1,0.3-0.3,0.6,0,0.7
			c0.4,0.1,1-0.9,1.5-0.7c0.4,0.2,0.7,1.6,0.8,2c0.2-0.2,0.7-0.1,0.9-0.3c0.2-0.2,0-0.2,0-0.4c0-0.4-0.3-0.9-0.4-1.3
			c-0.1-0.6,0-0.6,0.6-0.7c0.4,0,0.8-0.1,1.2-0.1c-0.6-0.6-1.4-1.2-1.9-1.8c-0.5-0.7,0-1.9,0.2-2.6c0.2-0.7,0.2-1.3,0.8-1.6
			C1018,438.2,1019.2,438,1020.2,437.5z M1016.6,448.5c-0.4,0.4-0.8,0.8-1.2,1.2c-0.6,0.6-0.9,0.7-0.7,1.5c0.2,0.6,0.2,1.8,0.7,2.3
			c0.5,0.4,1.6,0.6,2.3,0.7c0.7,0.1,0.9-0.4,1.4-0.9c0.3-0.2,1.1-0.7,1.2-1.1c0.1-0.2-0.2-0.7-0.2-0.9c-0.1-0.5-0.2-1.2-0.5-1.7
			C1018.9,448.9,1017.4,448.9,1016.6,448.5z"/>
	</g>
	<g>
		<path class="st4" d="M748.4,262.5c-0.8-0.9-1.8-1.8-2.6-2.8c-0.7-0.9-0.6-1.9,0.2-2.7c0.3-0.3,1.1-1.2,1.5-1.3
			c0.2,0,0.6,0.3,0.7,0.6c0.1,0.3-0.1,0.5,0,0.7c0.2,0.5,1,1.1,1.3,1.4c0.6,0.6,1.1,1.3,1.7,1.9c0.1,0.1,0.2,0.3,0.3,0.3
			c0.4,0.2,0.5-0.1,0.9,0.2c0.6,0.6-0.5,1.2-1,1.6C750.4,263.1,749.3,263.5,748.4,262.5z M746.7,258.8c0.7,0.8,1.4,1.5,2.1,2.3
			c0.3,0.3,0.6,0.8,1,0.9c0.5,0.1,0.9-0.3,0.7-0.7c-0.5-0.9-1.6-1.8-2.3-2.5c-0.2-0.3-0.6-0.8-0.9-1
			C746.8,257.5,746.3,258.3,746.7,258.8z"/>
		<path class="st4" d="M744.5,261.6c-0.3,0.2,0.6,1.2,0.6,1.4c-0.2,0.9-1-0.3-1.1-0.5c-0.3-0.4-0.5-0.4-0.3,0.1c0.2,0.7,0.7,1.4,1,2
			c0.2,0.4,0.8,1.2,0.8,1.6c0,0.5-0.6,0.7-0.9,0.3c-0.3-0.3-0.4-0.9-0.6-1.3c-0.4-0.8-0.7-1.5-1.1-2.3c-0.3-0.5-1.5-2.5-1.2-3
			c0.5-0.7,1,0.4,1.3,0.7c0.6,0.7,0.6,0.1,0.3-0.5c-0.2-0.4-0.6-1.3,0.2-1.3c0.4,0,0.5,0.4,0.7,0.7c0.9,1.3,1.9,2.6,2.8,3.8
			c0.2,0.3,0.8,0.8,0.9,1.2c0.1,0.3-0.2,0.7-0.6,0.7c-0.3,0-0.3,0-0.4-0.2C746.7,264.8,744.7,261.5,744.5,261.6z"/>
		<path class="st4" d="M740.7,260.9c0.5,1.5,0.6,3.2,0.9,4.7c0.1,0.6,0.4,1.4,0.4,2c0,0.6-1.2,1.1-1.7,0.7c-0.3-0.3-0.6-1-0.8-1.4
			c-0.5-0.9-1-1.8-1.5-2.8c-0.3-0.6-0.7-1.2-1-1.8c-0.1-0.4-0.2-0.4,0.2-0.6c0.4-0.3,0.7-0.2,0.9,0.2c0.3,0.3,0.2,0.8,0.7,0.9
			c0.2,0,1-0.3,1.1-0.5c0.2-0.3-0.3-0.9-0.2-1.2C739.7,260.8,740.5,260.4,740.7,260.9z M739.9,263.5c-0.3,0.1-0.8,0.2-0.8,0.5
			c0,0.2,0.3,0.6,0.4,0.8c0.2,0.5,0.5,1,0.7,1.4c0.1,0.2,0.2,0.7,0.4,0.8c0.6,0.3,0-1.3,0-1.6C740.5,265.3,740.3,263.3,739.9,263.5z
			"/>
		<path class="st4" d="M732.5,262.8c0-0.3,0.6-0.3,0.8-0.3c0.3,0,0.4,0,0.6,0.3c0.4,0.5,0.7,1.3,1,1.9c0.2,0.5,0.5,0.9,0.6,1.4
			c0.1,0.4,0,0.4-0.3,0.7c-0.3,0.3-0.4,0.2-0.4,0.7c0,0.5,0,1.3,0.5,1.4c0.5,0.1,0.9-0.1,0.9-0.6c0-1.4-0.4-3-0.6-4.3
			c-0.1-0.4-0.3-1.1-0.2-1.5c0.1-0.4,0.9-0.6,1.2-0.2c0.1,0.2,0.1,0.8,0.1,1c0.1,0.8,0.2,1.5,0.3,2.3c0.1,0.8,0.2,1.6,0.3,2.4
			c0,0.3,0.3,1,0.2,1.3c-0.1,0.4-0.7,0.4-1.1,0.4c-0.6,0.1-1.4,0.3-2,0.3c-0.9,0-0.8-0.9-0.9-1.6c0-0.3-0.1-0.7-0.1-1
			c0-0.5,0.5-0.6,0.6-1.1c0.1-0.5-0.5-1.3-0.7-1.8C733.1,264.1,732.5,263.3,732.5,262.8z"/>
		<path class="st4" d="M727.7,269.7c0-0.4,0-0.6,0.3-0.7c0.4-0.1,1.2,0.1,1.6,0.1c0.5,0,0.8,0.1,1-0.5c0.1-0.4,0.1-1,0.1-1.5
			c0-0.4,0.1-0.6-0.3-0.8c-0.4-0.2-1.2,0-1.7-0.1c-0.4-0.1-0.5-0.3-0.4-0.7c0.1-0.5,0.4-0.4,0.9-0.3c0.3,0,1,0.2,1.3,0.1
			c0.4-0.2,0.3-0.7,0.3-1.1c0-0.3-0.1-1.1,0.1-1.4c0.1-0.2,0.8-0.4,1.1-0.1c0.3,0.3,0,1.6,0,2c-0.1,1.2-0.1,2.4-0.2,3.5
			c-0.1,1,0,1.9-1.3,1.9C730.2,270,727.6,270.1,727.7,269.7z"/>
		<path class="st4" d="M725.9,262.2c-0.5,1.5-1.6,2.9-2.3,4.2c-0.3,0.6-0.6,1.3-1,1.8c-0.4,0.5-1.7,0.1-1.8-0.5
			c-0.1-0.4,0.2-1.2,0.3-1.6c0.2-1,0.4-2.1,0.5-3.1c0.1-0.6,0.1-1.4,0.3-2c0.1-0.4,0.1-0.4,0.5-0.4c0.5,0,0.6,0.3,0.6,0.7
			c0,0.4-0.3,0.8,0,1.1c0.1,0.1,1,0.4,1.2,0.4c0.4-0.2,0.3-0.9,0.6-1.1C725.2,261.6,726.1,261.8,725.9,262.2z M723.6,263.8
			c-0.3-0.1-0.7-0.4-1-0.1c-0.1,0.1-0.1,0.6-0.2,0.8c-0.1,0.5-0.2,1-0.3,1.6c0,0.2-0.3,0.7-0.2,0.9c0.2,0.6,0.9-1,1-1.2
			C723,265.5,724.1,263.9,723.6,263.8z"/>
		<path class="st4" d="M717.3,260.2c0.4-0.6,0.8-1.9,1.7-1.5c0.8,0.3,1.7,1,2.5,1.5c0.5,0.4,0.3,0.5,0,1.1c-0.5,0.9-1.1,1.8-1.6,2.7
			c-0.5,0.8-0.9,1.7-1.5,2.4c-0.1,0.1-0.2,0.4-0.4,0.5c-0.2,0.1-0.9-0.4-0.9-0.5c-0.1-0.4,0.8-1.5,1-1.8c0.5-0.9,1.1-1.8,1.6-2.7
			c0.1-0.2,0.4-0.5,0.4-0.7c0-0.4-0.6-0.7-1-0.8c-0.7-0.2-0.3,0.3-0.8,0.6C718.1,261,717.1,260.6,717.3,260.2z"/>
		<path class="st4" d="M714.5,256.2c0.3-0.4,0.5-0.7,0.9-0.5c0.5,0.2,1,0.9,1.5,1.3c0.3,0.2,1,0.7,1.1,1c0.1,0.3-0.1,0.4-0.3,0.7
			c-0.9,1-1.8,2-2.7,3c-0.4,0.5-0.8,0.9-1.2,1.4c-0.1,0.1-0.4,0.6-0.7,0.6c-0.3,0-0.8-0.7-1-0.8c-0.5-0.4-1.2-0.9-1.6-1.4
			c-0.2-0.3-0.3-0.7,0.2-0.9c0.4-0.2,1,0.7,1.4,1c0.4,0.3,0.6,0.7,1,0.5c0.4-0.2,0.9-0.9,0.7-1.2c-0.2-0.4-1-0.6-1.1-1
			c-0.1-0.2,0-0.5,0.3-0.6c0.3-0.2,0.3-0.1,0.6,0.2c0.4,0.3,0.8,1,1.3,0.8c0.4-0.2,1.2-1.1,1.4-1.5c0.3-0.5-0.2-0.7-0.6-1.1
			C715.4,257.4,714.2,256.5,714.5,256.2z"/>
	</g>
	<g>
		<path class="st4" d="M714.4,218.6c0.8,0.9,1.8,1.8,2.6,2.8c0.7,0.9,0.6,1.9-0.2,2.7c-0.3,0.3-1.1,1.2-1.5,1.3
			c-0.2,0-0.6-0.3-0.7-0.6c-0.1-0.3,0.1-0.5,0-0.7c-0.2-0.5-1-1.1-1.3-1.4c-0.6-0.6-1.1-1.3-1.7-1.9c-0.1-0.1-0.2-0.3-0.3-0.3
			c-0.4-0.2-0.5,0.1-0.9-0.2c-0.6-0.6,0.5-1.2,1-1.6C712.3,218,713.4,217.5,714.4,218.6z M716,222.2c-0.7-0.8-1.4-1.5-2.1-2.3
			c-0.3-0.3-0.6-0.8-1-0.9c-0.5-0.1-0.9,0.3-0.7,0.7c0.5,0.9,1.6,1.8,2.3,2.5c0.2,0.3,0.6,0.8,0.9,1
			C716,223.6,716.5,222.7,716,222.2z"/>
		<path class="st4" d="M718.2,219.4c0.3-0.2-0.6-1.2-0.6-1.4c0.2-0.9,1,0.3,1.1,0.5c0.3,0.4,0.5,0.4,0.3-0.1c-0.2-0.7-0.7-1.4-1-2
			c-0.2-0.4-0.8-1.2-0.8-1.6c0-0.5,0.6-0.7,0.9-0.3c0.3,0.3,0.4,0.9,0.6,1.3c0.4,0.8,0.7,1.5,1.1,2.3c0.3,0.5,1.5,2.5,1.2,3
			c-0.5,0.7-1-0.4-1.3-0.7c-0.6-0.7-0.6-0.1-0.3,0.5c0.2,0.4,0.6,1.3-0.2,1.3c-0.4,0-0.5-0.4-0.7-0.7c-0.9-1.3-1.9-2.6-2.8-3.8
			c-0.2-0.3-0.8-0.8-0.9-1.2c-0.1-0.3,0.2-0.7,0.6-0.7c0.3,0,0.3,0,0.4,0.2C716.1,216.3,718,219.6,718.2,219.4z"/>
		<path class="st4" d="M722,220.2c-0.5-1.5-0.6-3.2-0.9-4.7c-0.1-0.6-0.4-1.4-0.4-2c0-0.6,1.2-1.1,1.7-0.7c0.3,0.3,0.6,1,0.8,1.4
			c0.5,0.9,1,1.8,1.5,2.8c0.3,0.6,0.7,1.2,1,1.8c0.1,0.4,0.2,0.4-0.2,0.6c-0.4,0.3-0.7,0.2-0.9-0.2c-0.3-0.3-0.2-0.8-0.7-0.9
			c-0.2,0-1,0.3-1.1,0.5c-0.2,0.3,0.3,0.9,0.2,1.2C723,220.2,722.2,220.6,722,220.2z M722.8,217.6c0.3-0.1,0.8-0.2,0.8-0.5
			c0-0.2-0.3-0.6-0.4-0.8c-0.2-0.5-0.5-1-0.7-1.4c-0.1-0.2-0.2-0.7-0.4-0.8c-0.6-0.3,0,1.3,0,1.6
			C722.2,215.8,722.4,217.7,722.8,217.6z"/>
		<path class="st4" d="M730.3,218.3c0,0.3-0.6,0.3-0.8,0.3c-0.3,0-0.4,0-0.6-0.3c-0.4-0.5-0.7-1.3-1-1.9c-0.2-0.5-0.5-0.9-0.6-1.4
			c-0.1-0.4,0-0.4,0.3-0.7c0.3-0.3,0.4-0.2,0.4-0.7c0-0.5,0-1.3-0.5-1.4c-0.5-0.1-0.9,0.1-0.9,0.6c0,1.4,0.4,3,0.6,4.3
			c0.1,0.4,0.3,1.1,0.2,1.5c-0.1,0.4-0.9,0.6-1.2,0.2c-0.1-0.2-0.1-0.8-0.1-1c-0.1-0.8-0.2-1.5-0.3-2.3c-0.1-0.8-0.2-1.6-0.3-2.4
			c0-0.3-0.3-1-0.2-1.3c0.1-0.4,0.7-0.4,1.1-0.4c0.6-0.1,1.4-0.3,2-0.3c0.9,0,0.8,0.9,0.9,1.6c0,0.3,0.1,0.7,0.1,1
			c0,0.5-0.5,0.6-0.6,1.1c-0.1,0.5,0.5,1.3,0.7,1.8C729.6,217,730.2,217.7,730.3,218.3z"/>
		<path class="st4" d="M735.1,211.4c0,0.4,0,0.6-0.3,0.7c-0.4,0.1-1.2-0.1-1.6-0.1c-0.5,0-0.8-0.1-1,0.5c-0.1,0.4-0.1,1-0.1,1.5
			c0,0.4-0.1,0.6,0.3,0.8c0.4,0.2,1.2,0,1.7,0.1c0.4,0.1,0.5,0.3,0.4,0.7c-0.1,0.5-0.4,0.4-0.9,0.3c-0.3,0-1-0.2-1.3-0.1
			c-0.4,0.2-0.3,0.7-0.3,1.1c0,0.3,0.1,1.1-0.1,1.4c-0.1,0.2-0.8,0.4-1.1,0.1c-0.3-0.3,0-1.6,0-2c0.1-1.2,0.1-2.4,0.2-3.5
			c0.1-1,0-1.9,1.3-1.9C732.6,211,735.1,211,735.1,211.4z"/>
		<path class="st4" d="M736.8,218.8c0.5-1.5,1.6-2.9,2.3-4.2c0.3-0.6,0.6-1.3,1-1.8c0.4-0.5,1.7-0.1,1.8,0.5
			c0.1,0.4-0.2,1.2-0.3,1.6c-0.2,1-0.4,2.1-0.5,3.1c-0.1,0.6-0.1,1.4-0.3,2c-0.1,0.4-0.1,0.4-0.5,0.4c-0.5,0-0.6-0.3-0.6-0.7
			c0-0.4,0.3-0.8,0-1.1c-0.1-0.1-1-0.4-1.2-0.4c-0.4,0.2-0.3,0.9-0.6,1.1C737.5,219.5,736.7,219.3,736.8,218.8z M739.1,217.3
			c0.3,0.1,0.7,0.4,1,0.1c0.1-0.1,0.1-0.6,0.2-0.8c0.1-0.5,0.2-1,0.3-1.6c0-0.2,0.3-0.7,0.2-0.9c-0.2-0.6-0.9,1-1,1.2
			C739.7,215.5,738.7,217.1,739.1,217.3z"/>
		<path class="st4" d="M745.4,220.8c-0.4,0.6-0.8,1.9-1.7,1.5c-0.8-0.3-1.7-1-2.5-1.5c-0.5-0.4-0.3-0.5,0-1.1
			c0.5-0.9,1.1-1.8,1.6-2.7c0.5-0.8,0.9-1.7,1.5-2.4c0.1-0.1,0.2-0.4,0.4-0.5c0.2-0.1,0.9,0.4,0.9,0.5c0.1,0.4-0.8,1.5-1,1.8
			c-0.5,0.9-1.1,1.8-1.6,2.7c-0.1,0.2-0.4,0.5-0.4,0.7c0,0.4,0.6,0.7,1,0.8c0.7,0.2,0.3-0.3,0.8-0.6
			C744.6,220.1,745.6,220.4,745.4,220.8z"/>
		<path class="st4" d="M748.2,224.8c-0.3,0.4-0.5,0.7-0.9,0.5c-0.5-0.2-1-0.9-1.5-1.3c-0.3-0.2-1-0.7-1.1-1
			c-0.1-0.3,0.1-0.4,0.3-0.7c0.9-1,1.8-2,2.7-3c0.4-0.5,0.8-0.9,1.2-1.4c0.1-0.1,0.4-0.6,0.7-0.6c0.3,0,0.8,0.7,1,0.8
			c0.5,0.4,1.2,0.9,1.6,1.4c0.2,0.3,0.3,0.7-0.2,0.9c-0.4,0.2-1-0.7-1.4-1c-0.4-0.3-0.6-0.7-1-0.5c-0.4,0.2-0.9,0.9-0.7,1.2
			c0.2,0.4,1,0.6,1.1,1c0.1,0.2,0,0.5-0.3,0.6c-0.3,0.2-0.3,0.1-0.6-0.2c-0.4-0.3-0.8-1-1.3-0.8c-0.4,0.2-1.2,1.1-1.4,1.5
			c-0.3,0.5,0.2,0.7,0.6,1.1C747.3,223.7,748.5,224.5,748.2,224.8z"/>
	</g>
	<path class="st4" d="M738.7,242.4c-3.2,1.1-6.6,1.4-9.9,1c-1.5-0.2-3-0.5-4.4-1.1c-0.7-0.3-1.5-0.6-2.1-1c-0.6-0.3-1.2-0.9-1.8-1.2
		c-0.1,1.5,0.2,3.1,0.3,4.7c0.1,1.4,1.2,2.2,2.4,2.9c2.4,1.5,5.5,2.2,8.4,2.2c2.8,0,5.9-0.5,8.4-1.9c0.6-0.3,1.1-0.7,1.6-1.1
		c0.7-0.5,0.7-0.8,0.8-1.7c0.1-1.6,0.3-3.2,0.3-4.8C741.1,241.1,740,241.9,738.7,242.4z"/>
	<path class="st4" d="M742.4,237.9c-0.2-1.8-0.3-3.5-0.6-5.3c-2,3.2-7.1,3.9-10.5,3.8c-3.5,0-8.2-0.7-10.3-3.8
		c-0.4,1.3-0.3,2.8-0.5,4.1c-0.1,0.7-0.2,1,0.3,1.5c0.4,0.4,0.9,0.8,1.4,1.1c2.1,1.3,4.6,2,7.1,2.3c2.5,0.3,5.1,0.1,7.6-0.5
		c1.1-0.3,2.2-0.7,3.2-1.2C740.8,239.5,742.5,238.8,742.4,237.9z"/>
	<path class="st4" d="M721.1,248.5c0.2,1,0.2,2.1,0.7,3c0.5,0.9,1.3,1.6,2.1,2.1c2.1,1.2,4.7,1.8,7.1,1.8c2.4,0,4.8-0.3,7-1.4
		c2.2-1,3.4-2.6,3.5-5.1C735.6,252.7,727,252.6,721.1,248.5z"/>
	<path class="st4" d="M722.7,232.6c-0.7-1.9,1.1-2.8,2.6-3.4c1.9-0.8,4.1-1,6.2-1c2.2,0,9.9,0.6,8.6,4.4c0.9-0.5,1.5-1.8,1.3-2.8
		c-0.3-1.2-1.4-2-2.4-2.5c-2.3-1.2-5.1-1.6-7.7-1.6c-2.6,0-5.5,0.4-7.7,1.8c-0.9,0.6-1.9,1.3-2,2.5
		C721.3,231,721.8,232.2,722.7,232.6z"/>
	<path class="st4" d="M734.7,230.3c-0.5,0.1-1.7,0.2-2,0.7c-0.3,0.8,1.3,1,1.8,1c0.5,0,2.2-0.1,2.2-0.8
		C736.7,230.5,735.1,230.4,734.7,230.3z"/>
	<g>
		<path class="st4" d="M662.1,190.6c-0.9-0.8-1.7-1.6-2.6-2.4c-0.6-0.6-1.2-1.1-1.8-1.7c-0.2-0.2-0.7-0.5-0.8-0.8
			c-0.1-0.2,0.1-0.6,0.4-0.7c0.3-0.1,0.3-0.1,0.6,0c0.6,0.2,1.3,0.5,1.9,0.7c0.4,0.2,1.4,0.7,1.9,0.7c0.5-0.1-0.2-0.5-0.4-0.7
			c-0.6-0.6-1.2-1.1-1.8-1.7c-0.4-0.4-0.8-0.8,0-1.2c0.6-0.3,2.1,1.5,2.5,2c0.6,0.6,1.3,1.2,1.9,1.7c0.3,0.3,0.9,0.7,1.1,1
			c0.2,0.5-0.3,0.9-0.8,0.8c-0.5-0.1-1-0.4-1.5-0.6c-0.6-0.2-1.6-0.8-2.3-0.9c-0.7,0,0,0.4,0.3,0.7c0.7,0.6,1.4,1.2,2,1.9
			c0.2,0.2,0.3,0.2,0.3,0.5C662.8,190.3,662.3,190.8,662.1,190.6z"/>
		<path class="st4" d="M657.5,194.2c-1-1.4-2-2.7-2.9-4.1c-0.3-0.4-1.1-1.1-1.2-1.7c-0.1-0.3,0.1-0.5,0.4-0.6
			c0.2-0.1,0.2-0.1,0.4-0.1c0.1,0,0.2,0.4,0.3,0.4c0.1-0.1,0-0.4,0.1-0.5c0.1-0.3,0.2-0.6,0.4-0.8c0.7-0.7,1.5-0.5,2.1,0.1
			c0.5,0.5,1,1.2,1.4,1.8c0.6,0.8,1.2,1.6,1.8,2.4c0.4,0.5,0.7,1-0.1,1.3c-0.6,0.2-0.8-0.5-1.1-0.9c-0.6-0.8-1.2-1.6-1.8-2.5
			c-0.4-0.5-0.9-1.6-1.7-1.2c-1,0.6,0,1.7,0.5,2.3c0.6,0.9,1.3,1.8,1.9,2.6c0.1,0.1,0.4,0.4,0.4,0.6
			C658.5,193.8,657.8,194.5,657.5,194.2z"/>
		<path class="st4" d="M650.2,192c-0.3-0.7-1.1-1.7-0.3-2.2c0.7-0.5,1.8-0.9,2.6-1.2c0.6-0.2,0.6,0,0.9,0.6c0.4,1,0.9,1.9,1.3,2.9
			c0.4,0.9,0.8,1.7,1.2,2.6c0.1,0.1,0.2,0.4,0.2,0.6c-0.1,0.2-0.8,0.5-1,0.5c-0.4-0.2-0.7-1.5-0.9-1.8c-0.4-1-0.9-1.9-1.3-2.9
			c-0.1-0.2-0.2-0.6-0.3-0.7c-0.3-0.2-0.9,0.1-1.2,0.3c-0.6,0.4,0,0.4,0,1C651.2,191.8,650.3,192.4,650.2,192z"/>
		<path class="st4" d="M645.5,193.2c-0.2-0.7-0.7-1.9,0.2-2.3c0.8-0.3,1.9-0.5,2.8-0.6c0.6-0.1,0.6,0.2,0.7,0.8c0.2,1,0.5,2,0.7,3.1
			c0.2,0.9,0.5,1.8,0.6,2.8c0,0.1,0.2,0.4,0.1,0.6c-0.1,0.2-0.9,0.4-1.1,0.3c-0.4-0.2-0.4-1.6-0.5-2c-0.2-1-0.5-2.1-0.7-3.1
			c0-0.2-0.1-0.6-0.2-0.8c-0.2-0.3-0.9-0.1-1.3,0.1c-0.6,0.3,0,0.4-0.2,1C646.6,193.2,645.6,193.6,645.5,193.2z"/>
		<path class="st4" d="M638.5,198.4c0.1-1.3,0.1-2.6,0.2-3.9c0-0.8,0.1-1.6,0.1-2.4c0-0.4-0.1-0.8,0.3-1c1.4-0.6,0.7,2.6,0.7,3.1
			c0,0.3-0.3,1.6-0.1,1.9c0.2,0.3,0.6-1.2,0.7-1.4c0.5-0.8,0.7,0.4,0.8,0.9c0.2,0.6,0.3,0.9,0.4,0.2c0.1-0.8,0.1-1.7,0.1-2.5
			c0-0.4-0.1-1.4,0.1-1.8c0.2-0.4,1-0.2,1.1,0.1c0.1,0.4-0.1,1.2-0.1,1.7c-0.1,1.6-0.1,3.3-0.3,4.9c0,0.5-0.5,1-1,0.4
			c-0.5-0.5-0.3-1.6-0.8-2.2c-0.4-0.5-0.7,0.7-0.9,1.1c-0.1,0.2-0.3,0.8-0.5,0.9C639.3,198.6,638.5,198.8,638.5,198.4z"/>
		<path class="st4" d="M638.5,191.3c-0.4,1.5-1.3,3-1.9,4.4c-0.2,0.6-0.4,1.4-0.8,1.9c-0.4,0.5-1.7,0.3-1.8-0.3
			c-0.1-0.4,0.1-1.2,0.1-1.6c0.1-1,0.2-2.1,0.3-3.1c0.1-0.6,0-1.4,0.2-2c0.1-0.4,0.1-0.4,0.5-0.4c0.5,0,0.7,0.2,0.7,0.7
			c0,0.4-0.3,0.8,0.1,1.1c0.1,0.1,1,0.4,1.2,0.3c0.3-0.2,0.3-0.9,0.5-1.2C637.8,190.7,638.6,190.8,638.5,191.3z M636.4,193.1
			c-0.4-0.1-0.7-0.3-1,0c-0.1,0.2-0.1,0.6-0.1,0.8c-0.1,0.5-0.1,1.1-0.2,1.6c0,0.2-0.2,0.7-0.1,0.9c0.3,0.6,0.8-1.1,0.9-1.3
			C636,194.9,636.9,193.2,636.4,193.1z"/>
		<path class="st4" d="M630.8,192.7c-0.4-0.2-1.4-0.5-1.7-0.8c-0.3-0.4,0.3-1.1,0.5-1.5c0.3-0.5,0.5-1.6,1-2c0.2-0.2,0.3-0.2,0.6,0
			c0.3,0.2,0.1,0.8,0.3,0.9c0.1,0,0.3-0.2,0.4-0.2c0.4-0.1,0.6-0.1,1,0c0.8,0.2,1.2,0.9,1.1,1.7c-0.1,0.8-0.7,1.6-1,2.3
			c-0.4,0.8-0.7,1.7-1.2,2.5c-0.6,1.1-1.5,0.7-2.5,0.3c-0.8-0.4-2.2-1.2-1.1-2.2c0.2-0.2,0.7-0.1,1,0.1c0.3,0.4-0.2,0.6,0.2,1
			c0.3,0.3,1,0.5,1.4,0.2c0.2-0.2,0.3-0.6,0.4-0.8c0.4-0.9,0.9-1.9,1.3-2.8c0.6-1.3-0.9-1.9-1.5-0.7c-0.3,0.6-0.4,0.7,0.1,1.1
			c0.3,0.2,0.4,0.1,0.4,0.5C631.3,192.4,631.1,192.9,630.8,192.7z"/>
		<path class="st4" d="M624.8,191.7c0.4-0.6,0.8-1.1,1.3-1.7c0.3-0.4,0.6-0.9,1-1.3c0.2-0.2,0.6-0.6,0.7-0.9
			c0.2-0.6-0.8-0.6-0.6-1.2c0.4-1.1,1.1-0.3,1.6,0.1c0.4,0.3,1.7,0.9,1.6,1.5c-0.1,0.3-0.5,0.7-0.7,0.6c-0.3,0-0.6-0.6-0.9-0.5
			c-0.4,0.1-1.1,1.5-1.3,1.8c-0.4,0.6-1.4,1.4-1.6,2.2c-0.1,0.3,0.1,0.5,0,0.9c-0.2,0.5-0.5,0.3-0.9,0.1c-0.2-0.2-1.1-0.6-1.1-0.9
			c0-0.1,0.2-0.5,0.3-0.6C624.3,191.7,624.7,191.8,624.8,191.7z"/>
		<path class="st4" d="M622.9,184.2c0.6-0.6,1.4-1,2.2-0.7c0.6,0.2,1.3,1,1.5,1.6c0.3,1.1-0.8,1.9-1.5,2.6c-0.7,0.7-1.4,1.3-2.1,2
			c-0.9,0.8-1.6,0.5-2.3-0.2c-0.5-0.5-1.8-1.4-1.1-2.2c0.4-0.4,1.5-1.3,1.8-0.4c0.2,0.5-0.2,0.4-0.5,0.8c-0.3,0.4,0,0.6,0.4,1
			c0.8,0.6,1.4-0.3,1.9-0.9c0.5-0.5,2-1.5,2.2-2.2c0.1-0.3-0.2-0.7-0.5-0.9c-0.6-0.3-0.7,0.3-1.2,0.4
			C623.3,185.2,622.5,184.6,622.9,184.2z"/>
	</g>
	<g>
		<path class="st4" d="M622,147.8c0.9,0.8,1.7,1.6,2.6,2.4c0.6,0.6,1.2,1.1,1.8,1.7c0.2,0.2,0.7,0.5,0.8,0.8
			c0.1,0.2-0.1,0.6-0.4,0.7c-0.3,0.1-0.3,0.1-0.6,0c-0.6-0.2-1.3-0.5-1.9-0.7c-0.4-0.2-1.4-0.7-1.9-0.7c-0.5,0.1,0.2,0.5,0.4,0.7
			c0.6,0.6,1.2,1.1,1.8,1.7c0.4,0.4,0.8,0.8,0,1.2c-0.6,0.3-2.1-1.5-2.5-2c-0.6-0.6-1.3-1.2-1.9-1.7c-0.3-0.3-0.9-0.7-1.1-1
			c-0.2-0.5,0.3-0.9,0.8-0.8c0.5,0.1,1,0.4,1.5,0.6c0.6,0.2,1.6,0.8,2.3,0.9c0.7,0,0-0.4-0.3-0.7c-0.7-0.6-1.4-1.2-2-1.9
			c-0.2-0.2-0.3-0.2-0.3-0.5C621.2,148.1,621.8,147.6,622,147.8z"/>
		<path class="st4" d="M626.6,144.3c1,1.4,2,2.7,2.9,4.1c0.3,0.4,1.1,1.1,1.2,1.7c0.1,0.3-0.1,0.5-0.4,0.6c-0.2,0.1-0.2,0.1-0.4,0.1
			c-0.1,0-0.2-0.4-0.3-0.4c-0.1,0.1,0,0.4-0.1,0.5c-0.1,0.3-0.2,0.6-0.4,0.8c-0.7,0.7-1.5,0.5-2.1-0.1c-0.5-0.5-1-1.2-1.4-1.8
			c-0.6-0.8-1.2-1.6-1.8-2.4c-0.4-0.5-0.7-1,0.1-1.3c0.6-0.2,0.8,0.5,1.1,0.9c0.6,0.8,1.2,1.6,1.8,2.5c0.4,0.5,0.9,1.6,1.7,1.2
			c1-0.6,0-1.7-0.5-2.3c-0.6-0.9-1.3-1.8-1.9-2.6c-0.1-0.1-0.4-0.4-0.4-0.6C625.5,144.7,626.3,143.9,626.6,144.3z"/>
		<path class="st4" d="M633.9,146.4c0.3,0.7,1.1,1.7,0.3,2.2c-0.7,0.5-1.8,0.9-2.6,1.2c-0.6,0.2-0.6,0-0.9-0.6
			c-0.4-1-0.9-1.9-1.3-2.9c-0.4-0.9-0.8-1.7-1.2-2.6c-0.1-0.1-0.2-0.4-0.2-0.6c0.1-0.2,0.8-0.5,1-0.5c0.4,0.2,0.7,1.5,0.9,1.8
			c0.4,1,0.9,1.9,1.3,2.9c0.1,0.2,0.2,0.6,0.3,0.7c0.3,0.2,0.9-0.1,1.2-0.3c0.6-0.4,0-0.4,0-1C632.8,146.7,633.7,146,633.9,146.4z"
			/>
		<path class="st4" d="M638.5,145.3c0.2,0.7,0.7,1.9-0.2,2.3c-0.8,0.3-1.9,0.5-2.8,0.6c-0.6,0.1-0.6-0.2-0.7-0.8
			c-0.2-1-0.5-2-0.7-3.1c-0.2-0.9-0.5-1.8-0.6-2.8c0-0.1-0.2-0.4-0.1-0.6c0.1-0.2,0.9-0.4,1.1-0.3c0.4,0.2,0.4,1.6,0.5,2
			c0.2,1,0.5,2.1,0.7,3.1c0,0.2,0.1,0.6,0.2,0.8c0.2,0.3,0.9,0.1,1.3-0.1c0.6-0.3,0-0.4,0.2-1C637.4,145.3,638.4,144.8,638.5,145.3z
			"/>
		<path class="st4" d="M645.6,140.1c-0.1,1.3-0.1,2.6-0.2,3.9c0,0.8-0.1,1.6-0.1,2.4c0,0.4,0.1,0.8-0.3,1c-1.4,0.6-0.7-2.6-0.7-3.1
			c0-0.3,0.3-1.6,0.1-1.9c-0.2-0.3-0.6,1.2-0.7,1.4c-0.5,0.8-0.7-0.4-0.8-0.9c-0.2-0.6-0.3-0.9-0.4-0.2c-0.1,0.8-0.1,1.7-0.1,2.5
			c0,0.4,0.1,1.4-0.1,1.8c-0.2,0.4-1,0.2-1.1-0.1c-0.1-0.4,0.1-1.2,0.1-1.7c0.1-1.6,0.1-3.3,0.3-4.9c0-0.5,0.5-1,1-0.4
			c0.5,0.5,0.3,1.6,0.8,2.2c0.4,0.5,0.7-0.7,0.9-1.1c0.1-0.2,0.3-0.8,0.5-0.9C644.8,139.8,645.6,139.6,645.6,140.1z"/>
		<path class="st4" d="M645.5,147.1c0.4-1.5,1.3-3,1.9-4.4c0.2-0.6,0.4-1.4,0.8-1.9c0.4-0.5,1.7-0.3,1.8,0.3
			c0.1,0.4-0.1,1.2-0.1,1.6c-0.1,1-0.2,2.1-0.3,3.1c-0.1,0.6,0,1.4-0.2,2c-0.1,0.4-0.1,0.4-0.5,0.4c-0.5,0-0.7-0.2-0.7-0.7
			c0-0.4,0.3-0.8-0.1-1.1c-0.1-0.1-1-0.4-1.2-0.3c-0.3,0.2-0.3,0.9-0.5,1.2C646.3,147.7,645.4,147.6,645.5,147.1z M647.6,145.4
			c0.4,0.1,0.7,0.3,1,0c0.1-0.2,0.1-0.6,0.1-0.8c0.1-0.5,0.1-1.1,0.2-1.6c0-0.2,0.2-0.7,0.1-0.9c-0.3-0.6-0.8,1.1-0.9,1.3
			C648.1,143.6,647.2,145.3,647.6,145.4z"/>
		<path class="st4" d="M653.2,145.7c0.4,0.2,1.4,0.5,1.7,0.8c0.3,0.4-0.3,1.1-0.5,1.5c-0.3,0.5-0.5,1.6-1,2c-0.2,0.2-0.3,0.2-0.6,0
			c-0.3-0.2-0.1-0.8-0.3-0.9c-0.1,0-0.3,0.2-0.4,0.2c-0.4,0.1-0.6,0.1-1,0c-0.8-0.2-1.2-0.9-1.1-1.7c0.1-0.8,0.7-1.6,1-2.3
			c0.4-0.8,0.7-1.7,1.2-2.5c0.6-1.1,1.5-0.7,2.5-0.3c0.8,0.4,2.2,1.2,1.1,2.2c-0.2,0.2-0.7,0.1-1-0.1c-0.3-0.4,0.2-0.6-0.2-1
			c-0.3-0.3-1-0.5-1.4-0.2c-0.2,0.2-0.3,0.6-0.4,0.8c-0.4,0.9-0.9,1.9-1.3,2.8c-0.6,1.3,0.9,1.9,1.5,0.7c0.3-0.6,0.4-0.7-0.1-1.1
			c-0.3-0.2-0.4-0.1-0.4-0.5C652.8,146.1,653,145.6,653.2,145.7z"/>
		<path class="st4" d="M659.3,146.7c-0.4,0.6-0.8,1.1-1.3,1.7c-0.3,0.4-0.6,0.9-1,1.3c-0.2,0.2-0.6,0.6-0.7,0.9
			c-0.2,0.6,0.8,0.6,0.6,1.2c-0.4,1.1-1.1,0.3-1.6-0.1c-0.4-0.3-1.7-0.9-1.6-1.5c0.1-0.3,0.5-0.7,0.7-0.6c0.3,0,0.6,0.6,0.9,0.5
			c0.4-0.1,1.1-1.5,1.3-1.8c0.4-0.6,1.4-1.4,1.6-2.2c0.1-0.3-0.1-0.5,0-0.9c0.2-0.5,0.5-0.3,0.9-0.1c0.2,0.2,1.1,0.6,1.1,0.9
			c0,0.1-0.2,0.5-0.3,0.6C659.8,146.8,659.4,146.6,659.3,146.7z"/>
		<path class="st4" d="M661.2,154.2c-0.6,0.6-1.4,1-2.2,0.7c-0.6-0.2-1.3-1-1.5-1.6c-0.3-1.1,0.8-1.9,1.5-2.6c0.7-0.7,1.4-1.3,2.1-2
			c0.9-0.8,1.6-0.5,2.3,0.2c0.5,0.5,1.8,1.4,1.1,2.2c-0.4,0.4-1.5,1.3-1.8,0.4c-0.2-0.5,0.2-0.4,0.5-0.8c0.3-0.4,0-0.6-0.4-1
			c-0.8-0.6-1.4,0.3-1.9,0.9c-0.5,0.5-2,1.5-2.2,2.2c-0.1,0.3,0.2,0.7,0.5,0.9c0.6,0.3,0.7-0.3,1.2-0.4
			C660.8,153.2,661.6,153.9,661.2,154.2z"/>
	</g>
	<g>
		<path class="st4" d="M649.5,156.1c0.8,0.4,1.4,1.1,2,1.7c0.4,0.4,0.7,0.8,1.1,1.2c0.3,0.3,0.8,0.4,1,0.7c0.4,0.4,0.4,1.9-0.2,2.1
			c-0.4,0.2-1.4-0.9-1.9-1.2c-1.2-0.7-3.4-1.2-4.1,0.5c-0.3,0.8-0.2,1.8,0,2.6c0.2,0.5,0.4,1,0.7,1.5c0.1,0.1,0.7,1,0.5,1
			c-0.2-0.2-0.5-0.2-0.8-0.3c-0.4-0.2-0.8-0.6-1.1-0.9c-0.7-0.8-1.2-1.6-1.6-2.6c-0.2-0.5-0.8-1.5-0.5-2c0.1-0.2,0.6-0.5,0.8-0.6
			c0.2-0.2,0.9-0.8,0.9-1.2c0.1-0.4,0-0.1-0.2-0.4c-0.1-0.2-0.4-0.4-0.6-0.6c-0.1-0.1-0.2-0.5-0.5-0.3c-0.2,0.2-0.1,0.7-0.1,0.9
			c0,0.2,0.2,0.1,0.1,0.4c-0.1,0.3-0.7,0.6-0.9,0.7c-0.9,0.6-0.3,1.6-0.3,2.6c-0.7,0-1.4-0.2-2.1-0.2c-0.8,0-1.7,0.2-2.4,0.6
			c-1.5,0.7-2.8,2-3.5,3.4c-1.5,2.8-1.4,6.6,0.4,9.2c2,2.8,5.5,4,8.8,3c3.2-1,5.3-4.1,5.6-7.4c0.2-2-0.2-4.1-1.1-5.9
			c-0.3-0.6-1.5-1.8-1.2-2.5c0.2-0.4,0.2,0,0.5-0.2c0.2-0.1,0.7-0.6,0.5-0.8c2.2-0.2,3.6,3.6,4.1,5.2c0.8,2.6,0.9,5.5,0.2,8.1
			c-1.5,5-6.3,8.5-11.5,8.3c-5.2-0.1-9.9-3.5-11.7-8.3c-1.9-4.9-0.7-10.7,3.1-14.3c2.2-2.1,5.1-3.4,8.1-3.9c0.8-0.1,1.7-0.2,2.5-0.2
			c0.6,0,1.3,0.2,1.9,0.1C647.1,156,648.3,155.5,649.5,156.1z M630.5,169.2c-0.5,0.5,0.2,1.6,0.9,1.1
			C632,169.8,631.1,168.7,630.5,169.2z M630.8,171.5c-0.4,0-0.2,1.5,0.6,1C632.1,172,631.5,171.3,630.8,171.5z M630.8,167.2
			c-0.1,0.4-0.2,0.7,0.1,0.9c0.4,0.3,0.6,0.1,0.8-0.2C632.3,167,630.8,167,630.8,167.2z M631.6,164.8c-0.2,0-0.5,0.7-0.5,0.9
			c0.1,0.2,0.9,0.5,1,0.4c0.1-0.1,0.1-0.4,0.2-0.5c0.1-0.4,0.1-0.3-0.1-0.5C632.2,165,631.8,164.9,631.6,164.8z M631.5,173.5
			c-0.7,0.3-0.2,1.7,0.6,1c0.2-0.2,0.3-0.1,0.2-0.4C632.2,173.6,631.8,173.4,631.5,173.5z M632.8,175.2c-0.5,0.3-1.3,0.6-0.5,1.2
			c0.2,0.2,0.4,0.2,0.7-0.1C633.4,176,633,175.7,632.8,175.2z M632.6,162.9c-0.4,0.4-0.8,1.4,0.2,1.3
			C634,164,632.8,162.8,632.6,162.9z M633.7,161.5c-0.2,0.3-0.2,0.6,0.1,0.9c0.4,0.3,0.2,0.2,0.5,0
			C635.1,161.7,634.1,160.9,633.7,161.5z M634,177c-0.5,0.2-0.9,1.2,0,1.2C634.9,178.1,634.5,177.2,634,177z M635.5,178.3
			c-0.4,0.5-0.8,0.7-0.3,1.1c0.6,0.5,0.7,0.1,1.1-0.6C636.1,178.7,635.7,178.3,635.5,178.3z M635.3,160c-0.7,0.5,0.3,1.3,0.7,0.7
			C636.4,160.2,635.8,159.5,635.3,160z M637.8,158.8c-0.1-0.4-0.6-0.2-0.8,0c-0.3,0.3-0.2,0.1-0.2,0.4c0,0.1,0.3,0.6,0.4,0.7
			c0.1,0,0.8-0.4,0.8-0.5C638.1,159.3,637.9,158.9,637.8,158.8z M637.1,179.7c-0.1,0.2-0.4,0.4-0.3,0.6c0.1,0.3,0.8,0.4,1,0.2
			C638.5,180,637.4,179.1,637.1,179.7z M639.6,157.7c-0.2,0-0.7,0.1-0.8,0.2c-0.2,0.2-0.1,0.4,0.1,0.7c0.2,0.4,0.3,0.6,0.7,0.2
			c0.3-0.2,0.2-0.1,0.3-0.4C639.8,158.4,639.7,157.7,639.6,157.7z M639.1,180.3c-0.1,0-0.4,0.9-0.4,1c0,0.1,0.7,0.2,0.7,0.2
			c0.1,0,0.2,0.1,0.2,0.1c0,0,0.3-0.7,0.3-0.8C639.9,180.5,639.5,180.3,639.1,180.3z M641.7,157.2c-0.2,0-0.9,0.1-1,0.2
			c-0.1,0.1,0.2,0.9,0.3,1C641.7,158.9,642.1,157.7,641.7,157.2z M641.2,180.8c-0.4,0-0.6,1.5,0.4,1.2c0.3-0.1,0.4-0.4,0.3-0.7
			C641.8,180.8,641.5,181.2,641.2,180.8z M643.5,157.2c-0.9,0-0.8,1.1,0,1.1C644.2,158.3,644.2,157.2,643.5,157.2z M643.9,180.8
			c-0.2,0-0.7,0.1-0.8,0.3c-0.3,0.4,0.1,0.8,0.4,0.9C644.4,182.1,644.1,181.3,643.9,180.8z M645.8,180.3c-0.5,0-0.8,0.1-0.9,0.6
			c0,0.4,0.2,0.7,0.5,0.7c0.4,0,0.7-0.3,0.7-0.6C646.2,180.9,645.9,180.5,645.8,180.3z M647.6,179.2c-0.2,0-0.5,0.3-0.6,0.4
			c-0.3,0.3-0.3,0.2-0.1,0.6c0.3,0.6,0.8,0.3,1.3-0.1C647.9,179.8,647.8,179.6,647.6,179.2z M647.8,156.8c-0.8,0.1-0.4,1.1,0,1.4
			c0.4,0.4,1.5,0.7,2,0.3C650.9,157.6,648.4,156.7,647.8,156.8z M649.4,178.2c-1-0.7-1.1,1.1-0.4,1.2c0.2,0,0.7-0.5,0.7-0.7
			C649.8,178.5,649.6,178.4,649.4,178.2z M650.2,162.2c-0.3,0-0.5,0.8-0.4,1c0.2,0.6,0.4,0.4,0.8,0.2c0.3-0.3,0.3-0.2,0.2-0.5
			C650.7,162.8,650.3,162.2,650.2,162.2z M650.3,176.3c-0.5,0-0.7,1.6,0.3,1.2C651.3,177.3,651,176.3,650.3,176.3z M651.3,164.2
			c-0.5,0.2-0.5,0.2-0.4,0.6c0.1,0.5,0.3,0.6,0.7,0.5C652.3,165,651.7,163.7,651.3,164.2z M651.3,174.5c-0.1,0.2-0.4,0.8-0.2,1
			c0.2,0.4,0.8,0.3,1,0C652.5,174.8,651.8,174.6,651.3,174.5z M652.5,166c-0.7,0-1,0.4-0.7,1c0.3,0.6,0.6,0.1,1.2,0.1
			C652.8,166.7,652.7,166.2,652.5,166z M652,172.6c-0.8,0.4,0.1,1.5,0.7,1.1C653.2,173.4,652.8,172.2,652,172.6z M652.2,170.8
			c-0.1,0.5-0.1,0.5,0.2,0.6c0.3,0.2,0.6,0.2,0.7-0.1C653.5,170.5,652.2,170,652.2,170.8z M652.5,168.3c-0.3,0-0.6,1.6,0.4,1
			c0.2-0.1,0.3-0.3,0.3-0.6C653.2,168.2,652.9,168.3,652.5,168.3z"/>
	</g>
	<g>
		<path class="st5" d="M706.7,74.6c0.5,0.7,0.9,1.6,1.2,2.4c0.2,0.5,0.3,0.7,0,0.9c-0.5,0.5-1.7,0.7-2.4,1c-1,0.4-2.1,0.9-3.1,1.3
			c-0.4,0.2-0.9,0.5-1.4,0.6c-0.8,0.1-0.9,0.1-0.9-0.5c0-0.8,0-1.6,0-2.4c0-2.3,0-4.5,0-6.8c0-0.6,0.2-1.5,0-2.1c0-0.1,0-0.2,0-0.3
			c-0.1-0.1-0.9,0-1.1,0c-0.5,0-1,0-1.5,0c-0.1,0-0.4,0-0.4,0c-0.2-0.1-0.2-1-0.2-1.3c0-0.4-0.2-2.1,0.2-2.3c0.1-0.1,0.4,0,0.5,0
			c2,0,4.1,0,6.1,0c0.9,0,1.9,0,2.8,0c0.1,0,0.5-0.1,0.6,0c0.4,0.2,0.3,1.2,0.3,1.6c0,0.4,0.1,1.4-0.2,1.8c-0.2,0.3,0,0.1-0.3,0.2
			c-0.5,0.1-1.2,0-1.7,0c-1,0-1.1-0.2-1.1,0.7c0,2,0,4,0,6C704.9,75.2,705.8,74.9,706.7,74.6z"/>
		<path class="st5" d="M674.3,65.2c0.2,0.4,0.3,0.5,0.1,0.9c-0.2,0.5-0.7,0.9-1,1.3c-0.9,1.2-1.8,2.3-2.7,3.5
			c-0.9,1.2-2.1,2.6-2.5,4.1c-0.3,1.1,0,2.1,1.2,2.4c1.3,0.3,2.7-0.3,3.8-0.9c0.3,0.6,0.5,1.2,0.7,1.9c0.1,0.3,0.2,0.7,0.2,1.1
			c0.1,0.4,0.1,0.4-0.2,0.7c-0.7,0.7-2.4,0.9-3.3,0.9c-2.3,0.2-5.2-0.2-6.4-2.6c-1.7-3.5,1.4-7,3.3-9.6c-0.7,0-1.4,0-2.1,0
			c-0.4,0-1.8,0.2-2.1,0c-0.4-0.3-0.4-3.3,0-3.6c0.3-0.2,1.1,0,1.4,0C668.1,65.2,671.2,65.2,674.3,65.2z"/>
		<path class="st5" d="M642.4,77.2c0.1,0.6,0.6,3.2-0.1,3.6c-0.3,0.1-1,0-1.3,0c-1.7,0-3.4,0-5.1,0c-0.8,0-1.6,0-2.3,0
			c-0.3,0-0.9,0.1-1.2,0c-1.1-0.5,0.3-2,0.6-2.5c0.8-1.3,1.6-2.7,2.3-4c-3.8-0.7-4.7-5.4-2.5-8.2c1.1-1.5,3-2.2,4.8-2.4
			c1-0.1,1.9-0.1,2.9,0c0.5,0.1,1,0.2,1.5,0.3c0.2,0.1,1.3,0.2,1.4,0.5c0.2,0.3-0.2,1.3-0.3,1.6c-0.1,0.5-0.3,0.9-0.5,1.4
			c-0.3,0.6-0.5,0.3-1.1,0.2c-0.5-0.1-1-0.3-1.5-0.4c-1.5-0.2-3.7-0.1-4.1,1.7c-0.5,2.1,1.8,2.7,3.5,2.5c0.6-0.1,1-0.3,1.2,0.4
			c0.1,0.3,0.1,0.1,0,0.5c-0.4,1-1.1,1.9-1.6,2.8c-0.4,0.7-0.8,1.4-1.2,2C639.2,77.2,640.8,77.2,642.4,77.2z"/>
	</g>
	<g>
		<path class="st5" d="M688.9,72c0.7-0.7,1.3-1.3,2-2c0.2-0.2,0.9-0.7,0.9-0.9c0.1-0.4-0.9-1.3-1.2-1.6c-0.3-0.3-1.3-1.3-1.6-1.3
			c-0.3,0.1-0.7,0.7-0.9,0.9c-0.7,0.7-1.3,1.3-2,2c-0.6-0.6-1.3-1.3-1.9-1.9c-0.2-0.2-0.7-0.9-0.9-0.9c-0.4-0.1-1.3,0.9-1.6,1.2
			c-0.3,0.3-1.3,1.3-1.3,1.6c0,0.2,0.7,0.7,0.9,0.9c0.7,0.7,1.3,1.3,2,2c-0.4,0.4-0.9,0.9-1.3,1.3c-0.4,0.4-1.4,1.1-1.5,1.5
			c-0.1,0.5,2.2,3,2.8,2.9c0.3,0,1.1-1.1,1.3-1.3c0.3-0.3,1.2-1.5,1.6-1.6c0.3,0,0.9,0.8,1.1,1c0.5,0.5,1.1,1.4,1.7,1.7
			c0.4,0.2,0.5,0,0.9-0.3c0.7-0.6,1.3-1.2,1.9-1.9c0.4-0.5,0.3-0.4,0-0.8c-0.3-0.4-0.7-0.7-1-1C690,73.1,689.5,72.6,688.9,72z"/>
		<path class="st5" d="M658.9,69.1c-0.7-0.9-1.4-1.7-2.3-2.4c-0.7-0.6-0.6-0.4-1.2,0.1c-0.8,0.8-1.6,1.6-2.4,2.4
			c-0.6-0.6-1.3-1.3-1.9-1.9c-0.2-0.2-0.7-0.9-0.9-0.9c-0.4-0.1-1.3,0.9-1.6,1.2c-0.3,0.3-1.3,1.3-1.3,1.6c0,0.2,0.7,0.7,0.9,0.9
			c0.7,0.7,1.3,1.3,2,2c-0.4,0.4-0.9,0.9-1.3,1.3c-0.4,0.4-1.4,1.1-1.5,1.5c-0.1,0.5,2.2,3,2.8,2.9c0.3,0,1.1-1.1,1.3-1.3
			c0.3-0.3,1.2-1.5,1.6-1.6c0.3,0,0.9,0.8,1.1,1c0.5,0.5,1.1,1.4,1.7,1.7c0.4,0.2,0.5,0,0.9-0.3c0.7-0.6,1.3-1.2,1.9-1.9
			c0.4-0.5,0.3-0.4,0-0.8c-0.3-0.4-0.7-0.7-1-1c-0.5-0.5-1.1-1.1-1.6-1.6C656.9,71,657.9,70.1,658.9,69.1z"/>
	</g>
	<g>
		<path class="st4" d="M93.1,493.3c-0.6-0.5-1.8-0.1-2.5,0c-1.2,0.1-2.5-0.2-3-1.4c-0.5-1.1,0.6-2.6,1.7-2.9
			c0.8-0.2,2.3,0.7,1.3,1.4c-0.4,0.3-0.3,0.1-0.7-0.1c-0.5-0.2-1.1,0.2-1.2,0.7c-0.3,1.2,1.6,1,2.2,0.9c1-0.1,2.2-0.4,3,0.5
			c1,1,0.4,2.3-0.6,3c-0.6,0.5-1.2,0.6-1.8,0.2c-0.5-0.3-0.6-0.6-0.1-1c0.5-0.3,0.6,0.2,1.2,0.1C93.2,494.6,93.6,493.7,93.1,493.3z"
			/>
		<path class="st4" d="M87.7,499.9c-0.6-0.9-1.3-1.8-1.9-2.6c-0.5-0.7-1-1.3-1.4-2c-0.2-0.3-0.7-0.7-0.8-1.1c-0.1-0.4,0.5-1,0.9-0.8
			c0.3,0.2,0.8,1,1,1.3c0.2,0.3,0.7,1.2,1.1,1.2c0.4,0,1.2-0.7,1.1-1.1c-0.1-0.4-0.8-1.1-1-1.4c-0.2-0.3-0.9-0.9-0.8-1.3
			c0.1-0.4,0.8-0.6,1-0.4c0.4,0.3,0.6,0.9,0.9,1.2c0.9,1.3,1.9,2.5,2.8,3.8c0.2,0.2,0.6,0.6,0.5,0.9c0,0.1-0.5,0.4-0.6,0.5
			c-0.3,0.1-0.3,0-0.5-0.2c-0.5-0.4-0.7-1.5-1.3-1.7c-0.4-0.2-1.4,0.5-1.4,1c0.1,0.5,0.9,1.2,1.2,1.6c0.2,0.3,0.3,0.3,0.2,0.6
			C88.5,499.7,87.9,500.2,87.7,499.9z"/>
		<path class="st4" d="M83.3,494.5c0.7,1.4,0.9,3.1,1.3,4.6c0.2,0.6,0.5,1.4,0.6,2c0,0.6-1.1,1.3-1.6,0.9c-0.4-0.3-0.7-1-0.9-1.3
			c-0.6-0.9-1.2-1.7-1.8-2.6c-0.4-0.5-0.9-1.1-1.1-1.7c-0.2-0.3-0.2-0.4,0.1-0.6c0.4-0.3,0.7-0.2,0.9,0.1c0.3,0.3,0.3,0.8,0.8,0.8
			c0.2,0,1-0.4,1.1-0.6c0.1-0.4-0.4-0.9-0.3-1.2C82.3,494.5,83,494,83.3,494.5z M82.7,497.1c-0.3,0.2-0.8,0.2-0.8,0.6
			c0,0.2,0.3,0.6,0.4,0.7c0.3,0.5,0.6,0.9,0.8,1.4c0.1,0.2,0.3,0.7,0.5,0.8c0.6,0.3-0.1-1.3-0.2-1.6
			C83.5,498.8,83.1,496.9,82.7,497.1z"/>
		<path class="st4" d="M76.6,502.5c-0.3-1.2-0.7-2.5-0.9-3.7c-0.2-1.2,0.4-2,1.5-2.3c0.4-0.1,1.6-0.6,2-0.4c0.1,0.1,0.3,0.7,0.3,0.8
			c-0.1,0.3-0.3,0.3-0.4,0.6c-0.1,0.5,0.3,1.4,0.5,1.9c0.2,0.8,0.4,1.7,0.6,2.5c0,0.1,0,0.3,0.1,0.4c0.3,0.3,0.5,0.1,0.6,0.6
			c0.2,0.8-1.1,0.8-1.7,0.9C78,504,76.9,503.9,76.6,502.5z M76.8,498.5c0.2,1,0.5,2,0.7,3c0.1,0.4,0.2,1.1,0.6,1.3
			c0.5,0.3,0.8,0,0.8-0.4c0-1.1-0.6-2.4-0.8-3.4c-0.1-0.3-0.1-0.9-0.3-1.2C77.5,497.4,76.7,497.9,76.8,498.5z"/>
		<path class="st4" d="M73.2,504.6c-1.8,0.1-2.1-2.6-2.2-3.9c-0.1-1.6-0.2-3.7,1.9-3.8c2-0.1,2.1,2,2.2,3.6
			C75.1,501.8,75,504.5,73.2,504.6z M72.2,500.5c0,0.6,0,3,0.8,3.2c0.8,0.2,0.8-1.5,0.8-1.9c0-0.7,0.3-3.1-0.6-3.5
			C72,497.7,72.2,499.9,72.2,500.5z"/>
		<path class="st4" d="M68.6,499.8c-0.3-0.1-0.3,1.3-0.5,1.5c-0.7,0.6-0.5-0.9-0.5-1.1c0-0.6-0.1-0.6-0.3-0.2
			c-0.3,0.7-0.4,1.5-0.5,2.2c-0.1,0.4-0.2,1.4-0.4,1.7c-0.3,0.4-0.9,0.1-0.9-0.3c0-0.4,0.3-1,0.4-1.5c0.2-0.8,0.4-1.6,0.7-2.5
			c0.2-0.6,0.4-2.8,1.1-3c0.9-0.2,0.5,1,0.5,1.5c0.1,1,0.4,0.2,0.6-0.3c0.1-0.2,0.1-0.7,0.3-0.8c0.1-0.1,0.6-0.1,0.8,0
			c0.2,0.2,0.1,0.8,0.1,1.1c-0.1,1.6-0.2,3.2-0.3,4.8c0,0.4,0.1,1-0.1,1.3c-0.1,0.3-0.5,0.4-0.9,0.2c-0.3-0.1-0.2-0.1-0.3-0.4
			C68.3,503.6,69,499.8,68.6,499.8z"/>
		<path class="st4" d="M59.5,501.9c-1.6-0.8-0.7-3.3-0.2-4.4c0.7-1.5,1.6-3.4,3.5-2.5c1.8,0.9,0.8,2.9,0.1,4.3
			C62.4,500.4,61.1,502.6,59.5,501.9z M60.5,497.7c-0.3,0.6-1.3,2.5-0.8,3.1c0.5,0.6,1.2-0.4,1.4-0.8c0.5-0.7,0.8-1.5,1.2-2.3
			c0.2-0.4,0.5-1,0.3-1.5C61.8,495,60.8,497.2,60.5,497.7z"/>
		<path class="st4" d="M57.2,491.8c0.2-0.2,0.7,0.2,0.8,0.3c0.2,0.2,0.3,0.3,0.2,0.6c-0.1,0.6-0.4,1.4-0.6,2c-0.2,0.5-0.3,1-0.6,1.4
			c-0.2,0.4-0.3,0.4-0.7,0.4c-0.4,0-0.5-0.2-0.9,0.2c-0.4,0.4-0.9,1-0.6,1.4c0.3,0.4,0.7,0.5,1,0.2c1-0.9,1.7-2.4,2.5-3.4
			c0.2-0.3,0.6-1.1,0.9-1.3c0.3-0.2,1,0.2,1,0.6c0,0.2-0.5,0.7-0.6,0.9c-0.4,0.6-0.9,1.2-1.3,1.8c-0.5,0.7-1,1.3-1.5,2
			c-0.2,0.3-0.5,1-0.9,1.2c-0.5,0.3-2.2-1.2-2.6-1.6c-0.6-0.6,0-1.1,0.4-1.7c0.2-0.2,0.3-0.5,0.6-0.8c0.5-0.5,0.9-0.1,1.3-0.4
			c0.4-0.2,0.5-1.3,0.7-1.7C56.8,493.2,56.9,492.2,57.2,491.8z"/>
		<path class="st4" d="M52.7,490c0.9-0.8,2-1,3-0.1c0.4,0.3,1.1,0.9,1.3,1.4c0.3,0.6-1.3,1.6-1.7,2c-1.1,1-2.1,2-3.2,2.9
			c-0.3,0.3-0.3,0.3-0.7,0.1c-0.5-0.3-1-1-1.3-1.5c-0.8-1.2,0-2.5,1.4-2.8c0.4-0.1,0.5,0,0.7-0.4C52.3,491,52.1,490.5,52.7,490z
			 M52.9,493.4c-1.2-1.4-2.8,0.8-1.6,1.4C51.6,494.9,53.1,493.7,52.9,493.4z M53.5,490.9c-0.5,0.4-0.7,1.5,0,1.9
			c0.4,0.2,0.8-0.3,1.1-0.6c0.3-0.3,0.8-0.6,0.7-1C55.1,490.3,53.9,490.4,53.5,490.9z"/>
	</g>
	<g>
		<path class="st4" d="M50.9,457c0.6,0.5,1.8,0.1,2.5,0c1.2-0.1,2.5,0.2,3,1.4c0.5,1.1-0.6,2.6-1.7,2.9c-0.8,0.2-2.3-0.7-1.3-1.4
			c0.4-0.3,0.3-0.1,0.7,0.1c0.5,0.2,1.1-0.2,1.2-0.7c0.3-1.2-1.6-1-2.2-0.9c-1,0.1-2.2,0.4-3-0.5c-1-1-0.4-2.3,0.6-3
			c0.6-0.5,1.2-0.6,1.8-0.2c0.5,0.3,0.6,0.6,0.1,1c-0.5,0.3-0.6-0.2-1.2-0.1C50.8,455.7,50.4,456.5,50.9,457z"/>
		<path class="st4" d="M56.3,450.3c0.6,0.9,1.3,1.8,1.9,2.6c0.5,0.7,1,1.3,1.4,2c0.2,0.3,0.7,0.7,0.8,1.1c0.1,0.4-0.5,1-0.9,0.8
			c-0.3-0.2-0.8-1-1-1.3c-0.2-0.3-0.7-1.2-1.1-1.2c-0.4,0-1.2,0.7-1.1,1.1c0.1,0.4,0.8,1.1,1,1.4c0.2,0.3,0.9,0.9,0.8,1.3
			c-0.1,0.4-0.8,0.6-1,0.4c-0.4-0.3-0.6-0.9-0.9-1.2c-0.9-1.3-1.9-2.5-2.8-3.8c-0.2-0.2-0.6-0.6-0.5-0.9c0-0.1,0.5-0.4,0.6-0.5
			c0.3-0.1,0.3,0,0.5,0.2c0.5,0.4,0.7,1.5,1.3,1.7c0.4,0.2,1.4-0.5,1.4-1c-0.1-0.5-0.9-1.2-1.2-1.6c-0.2-0.3-0.3-0.3-0.2-0.6
			C55.5,450.5,56.1,450.1,56.3,450.3z"/>
		<path class="st4" d="M60.7,455.8c-0.7-1.4-0.9-3.1-1.3-4.6c-0.2-0.6-0.5-1.4-0.6-2c0-0.6,1.1-1.3,1.6-0.9c0.4,0.3,0.7,1,0.9,1.3
			c0.6,0.9,1.2,1.7,1.8,2.6c0.4,0.5,0.9,1.1,1.1,1.7c0.2,0.3,0.2,0.4-0.1,0.6c-0.4,0.3-0.7,0.2-0.9-0.1c-0.3-0.3-0.3-0.8-0.8-0.8
			c-0.2,0-1,0.4-1.1,0.6c-0.1,0.4,0.4,0.9,0.3,1.2C61.7,455.8,61,456.2,60.7,455.8z M61.3,453.1c0.3-0.2,0.8-0.2,0.8-0.6
			c0-0.2-0.3-0.6-0.4-0.7c-0.3-0.5-0.6-0.9-0.8-1.4c-0.1-0.2-0.3-0.7-0.5-0.8c-0.6-0.3,0.1,1.3,0.2,1.6
			C60.5,451.4,60.9,453.3,61.3,453.1z"/>
		<path class="st4" d="M67.4,447.7c0.3,1.2,0.7,2.5,0.9,3.7c0.2,1.2-0.4,2-1.5,2.3c-0.4,0.1-1.6,0.6-2,0.4c-0.1-0.1-0.3-0.7-0.3-0.8
			c0.1-0.3,0.3-0.3,0.4-0.6c0.1-0.5-0.3-1.4-0.5-1.9c-0.2-0.8-0.4-1.7-0.6-2.5c0-0.1,0-0.3-0.1-0.4c-0.3-0.3-0.5-0.1-0.6-0.6
			c-0.2-0.8,1.1-0.8,1.7-0.9C66,446.2,67.1,446.4,67.4,447.7z M67.2,451.7c-0.2-1-0.5-2-0.7-3c-0.1-0.4-0.2-1.1-0.6-1.3
			c-0.5-0.3-0.8,0-0.8,0.4c0,1.1,0.6,2.4,0.8,3.4c0.1,0.3,0.1,0.9,0.3,1.2C66.5,452.9,67.3,452.3,67.2,451.7z"/>
		<path class="st4" d="M70.8,445.6c1.8-0.1,2.1,2.6,2.2,3.9c0.1,1.6,0.2,3.7-1.9,3.8c-2,0.1-2.1-2-2.2-3.6
			C68.9,448.4,69,445.7,70.8,445.6z M71.8,449.8c0-0.6,0-3-0.8-3.2c-0.8-0.2-0.8,1.5-0.8,1.9c0,0.7-0.3,3.1,0.6,3.5
			C72,452.6,71.8,450.4,71.8,449.8z"/>
		<path class="st4" d="M75.4,450.5c0.3,0.1,0.3-1.3,0.5-1.5c0.7-0.6,0.5,0.9,0.5,1.1c0,0.6,0.1,0.6,0.3,0.2c0.3-0.7,0.4-1.5,0.5-2.2
			c0.1-0.4,0.2-1.4,0.4-1.7c0.3-0.4,0.9-0.1,0.9,0.3c0,0.4-0.3,1-0.4,1.5c-0.2,0.8-0.4,1.6-0.7,2.5c-0.2,0.6-0.4,2.8-1.1,3
			c-0.9,0.2-0.5-1-0.5-1.5c-0.1-1-0.4-0.2-0.6,0.3c-0.1,0.2-0.1,0.7-0.3,0.8c-0.1,0.1-0.6,0.1-0.8,0c-0.2-0.2-0.1-0.8-0.1-1.1
			c0.1-1.6,0.2-3.2,0.3-4.8c0-0.4-0.1-1,0.1-1.3c0.1-0.3,0.5-0.4,0.9-0.2c0.3,0.1,0.2,0.1,0.3,0.4C75.7,446.6,75.1,450.4,75.4,450.5
			z"/>
		<path class="st4" d="M84.5,448.4c1.6,0.8,0.7,3.3,0.2,4.4c-0.7,1.5-1.6,3.4-3.5,2.5c-1.8-0.9-0.8-2.9-0.1-4.3
			C81.6,449.8,82.9,447.6,84.5,448.4z M83.5,452.5c0.3-0.6,1.3-2.5,0.8-3.1c-0.5-0.6-1.2,0.4-1.4,0.8c-0.5,0.7-0.8,1.5-1.2,2.3
			c-0.2,0.4-0.5,1-0.3,1.5C82.2,455.3,83.2,453,83.5,452.5z"/>
		<path class="st4" d="M86.8,458.5c-0.2,0.2-0.7-0.2-0.8-0.3c-0.2-0.2-0.3-0.3-0.2-0.6c0.1-0.6,0.4-1.4,0.6-2c0.2-0.5,0.3-1,0.6-1.4
			c0.2-0.4,0.3-0.4,0.7-0.4c0.4,0,0.5,0.2,0.9-0.2c0.4-0.4,0.9-0.9,0.6-1.4c-0.3-0.4-0.7-0.5-1-0.2c-1,0.9-1.7,2.4-2.5,3.4
			c-0.2,0.3-0.6,1.1-0.9,1.3c-0.3,0.2-1-0.2-1-0.6c0-0.2,0.5-0.7,0.6-0.9c0.4-0.6,0.9-1.2,1.3-1.8c0.5-0.7,1-1.3,1.5-2
			c0.2-0.3,0.5-1,0.9-1.2c0.5-0.3,2.2,1.2,2.6,1.6c0.6,0.6,0,1.1-0.4,1.7c-0.2,0.2-0.3,0.5-0.6,0.8c-0.5,0.5-0.9,0.1-1.3,0.4
			c-0.4,0.2-0.5,1.3-0.7,1.7C87.2,457.1,87.1,458,86.8,458.5z"/>
		<path class="st4" d="M91.3,460.3c-0.9,0.8-2,1-3,0.1c-0.4-0.3-1.1-0.9-1.3-1.4c-0.3-0.6,1.3-1.6,1.7-2c1.1-1,2.1-2,3.2-2.9
			c0.3-0.3,0.3-0.3,0.7-0.1c0.5,0.3,1,1,1.3,1.5c0.8,1.2,0,2.5-1.4,2.8c-0.4,0.1-0.5,0-0.7,0.4C91.7,459.3,91.9,459.7,91.3,460.3z
			 M90.5,459.4c0.5-0.4,0.7-1.5,0-1.9c-0.4-0.2-0.8,0.3-1.1,0.6c-0.3,0.3-0.8,0.6-0.7,1C88.9,459.9,90.1,459.8,90.5,459.4z
			 M91.1,456.9c1.2,1.4,2.8-0.8,1.6-1.4C92.4,455.3,90.9,456.6,91.1,456.9z"/>
	</g>
	<g>
		<path class="st4" d="M72.1,461c5.8,0,11,3.9,12.9,9.3c2,5.5,0.3,12-4.2,15.8c-4.4,3.8-10.9,4.3-15.9,1.2c-5-3.1-7.4-9.2-6.3-15
			C59.9,465.9,65.5,461,72.1,461z M80.1,484.3c4.2-3.9,5.2-10.3,2.4-15.3c-2.6-4.7-8.2-7.1-13.4-5.6c1,0,2,0.1,2.9,0.4
			c-2,1.4,0.8,4.4,2.3,2.5c0.1,0.6,0.5,1.2,1,1.5c-1.9,1.5-1.8,4.5,0,6c1.9,1.5,4.7,0.8,5.7-1.4C82.4,476.2,82.4,480.8,80.1,484.3z"
			/>
	</g>
</g>
</svg>
