<?xml version="1.0" encoding="utf-8"?>
<!-- Generator: Adobe Illustrator 23.0.1, SVG Export Plug-In . SVG Version: 6.00 Build 0)  -->
<svg version="1.1" xmlns="http://www.w3.org/2000/svg" xmlns:xlink="http://www.w3.org/1999/xlink" x="0px" y="0px" width="1116px"
	 height="576px" viewBox="0 0 1116 576" style="enable-background:new 0 0 1116 576;" xml:space="preserve">
<style type="text/css">
	.st0{fill:#BCBEC0;}
	.st1{fill:#EC008C;}
	.st2{fill:#808285;}
</style>
<g id="Layer_9">
	<path class="st0" d="M0,531c0,24.8,20.2,45,45,45h1026c24.8,0,45-20.2,45-45V45c0-24.8-20.2-45-45-45H45C20.2,0,0,20.2,0,45V531z"
		/>
	<circle class="st1" cx="45" cy="45" r="8.9"/>
	<circle class="st1" cx="45" cy="531" r="8.9"/>
	<circle class="st1" cx="1071" cy="531" r="8.9"/>
	<circle class="st1" cx="1071" cy="45" r="8.9"/>
</g>
<g id="Probability_table">
	<g>
		<circle class="st2" cx="117.3" cy="117.3" r="72.3"/>
		<circle class="st2" cx="117.3" cy="458.7" r="72.3"/>
		<circle class="st2" cx="117.3" cy="288" r="72.3"/>
	</g>
	<g>
		<circle class="st2" cx="998.7" cy="117.3" r="72.3"/>
		<circle class="st2" cx="998.7" cy="458.7" r="72.3"/>
		<circle class="st2" cx="998.7" cy="288" r="72.3"/>
	</g>
	<g>
		<circle class="st2" cx="822.4" cy="117.3" r="72.3"/>
		<circle class="st2" cx="822.4" cy="458.7" r="72.3"/>
		<circle class="st2" cx="822.4" cy="288" r="72.3"/>
	</g>
	<g>
		<circle class="st2" cx="646.1" cy="117.3" r="72.3"/>
		<circle class="st2" cx="646.1" cy="458.7" r="72.3"/>
		<circle class="st2" cx="646.1" cy="288" r="72.3"/>
	</g>
	<g>
		<circle class="st2" cx="469.9" cy="117.3" r="72.3"/>
		<circle class="st2" cx="469.9" cy="458.7" r="72.3"/>
		<circle class="st2" cx="469.9" cy="288" r="72.3"/>
	</g>
	<g>
		<circle class="st2" cx="293.6" cy="117.3" r="72.3"/>
		<circle class="st2" cx="293.6" cy="458.7" r="72.3"/>
		<circle class="st2" cx="293.6" cy="288" r="72.3"/>
	</g>
</g>
</svg>
