<?xml version="1.0" encoding="utf-8"?>
<!-- Generator: Adobe Illustrator 23.0.1, SVG Export Plug-In . SVG Version: 6.00 Build 0)  -->
<svg version="1.1" id="Layer_1" xmlns="http://www.w3.org/2000/svg" xmlns:xlink="http://www.w3.org/1999/xlink" x="0px" y="0px"
	 width="158.4px" height="64.8px" viewBox="0 0 158.4 64.8" style="enable-background:new 0 0 158.4 64.8;" xml:space="preserve">
<style type="text/css">
	.st0{fill:#C49A6C;}
	.st1{fill:#3C2415;}
	.st2{fill:none;stroke:#231F20;stroke-width:0.75;stroke-miterlimit:10;}
</style>
<path class="st0" d="M153.8,30v-8.7c0-2.6-2.2-4.7-4.9-4.7c-0.3,0-0.5,0-0.8,0.1c-1.9,0.3-3.7,1-5.1,1.9c-0.1-0.2-0.2-0.4-0.3-0.5
	c-1.2-1.8-4.2-3.2-8.1-3.9c-1.6-0.3-3.4-0.4-5.2-0.4c-1.8,0-3.6,0.2-5.2,0.4c-3.9,0.7-6.9,2.1-8.1,3.9c-0.1,0.2-0.2,0.3-0.3,0.5
	c-1.5-1-3.2-1.7-5.1-1.9c-0.3,0-0.5-0.1-0.8-0.1c-2.7,0-4.9,2.1-4.9,4.7V30c-0.9,0.1-1.7,0.3-2.6,0.4l0,0v11.2l0,0
	c1.5,0.3,3.1,0.5,4.7,0.7c4.1,7.4,10.5,12.6,22.3,17.4c11.8-4.8,18.2-10,22.3-17.4c1.6-0.2,3.2-0.5,4.7-0.7l0,0V30.4l0,0
	C155.6,30.3,154.7,30.1,153.8,30z"/>
<g>
	<path class="st1" d="M109.1,39l-2.2-0.3l-0.5,1l-1.7-0.2l3.1-5.7l1.7,0.2l1.5,6.3l-1.7-0.2L109.1,39z M108.8,37.8l-0.4-2.1l-1,1.9
		L108.8,37.8z"/>
	<path class="st1" d="M116.7,36.8c-0.3-0.5-0.7-0.7-1.3-0.8c-0.2,0-0.5,0-0.7,0.1c-0.2,0.1-0.4,0.2-0.5,0.3
		c-0.2,0.1-0.3,0.3-0.4,0.5c-0.1,0.2-0.2,0.4-0.2,0.6c0,0.2,0,0.5,0.1,0.7c0.1,0.2,0.2,0.4,0.3,0.6s0.3,0.3,0.5,0.4
		c0.2,0.1,0.4,0.2,0.6,0.2c0.5,0,1-0.1,1.4-0.5l-0.2,1.8l-0.2,0c-0.2,0.1-0.5,0.1-0.7,0.1c-0.2,0-0.4,0-0.6,0
		c-0.4,0-0.8-0.2-1.2-0.3c-0.4-0.2-0.7-0.4-0.9-0.8c-0.3-0.3-0.5-0.7-0.6-1.1c-0.1-0.4-0.2-0.8-0.1-1.3s0.2-0.9,0.4-1.2
		c0.2-0.4,0.5-0.7,0.8-0.9c0.3-0.3,0.7-0.4,1.1-0.6s0.8-0.2,1.2-0.1c0.2,0,0.5,0.1,0.7,0.1c0.2,0.1,0.5,0.2,0.7,0.3L116.7,36.8z"/>
	<path class="st1" d="M120.3,36.4l-0.3,4.7l-1.6-0.1l0.3-4.7l-1.3-0.1l0.1-1.3l4.1,0.3l-0.1,1.3L120.3,36.4z"/>
	<path class="st1" d="M124.3,35.2l-0.2,6l-1.6-0.1l0.2-6L124.3,35.2z"/>
	<path class="st1" d="M126.9,35.3l1.4,3.7l1.5-3.7l1.7,0l-2.6,6l-1.2,0l-2.5-6.1L126.9,35.3z"/>
	<path class="st1" d="M135.9,40.2l-2.2,0.1l-0.3,1.1l-1.7,0.1l2.1-6.1l1.7-0.1l2.5,6l-1.7,0.1L135.9,40.2z M135.4,39l-0.8-2l-0.6,2
		L135.4,39z"/>
	<path class="st1" d="M140.8,36.2l0.3,4.7l-1.6,0.1l-0.3-4.7l-1.3,0.1l-0.1-1.3l4.1-0.3l0.1,1.3L140.8,36.2z"/>
	<path class="st1" d="M146.5,35.7l-1.9,0.2l0.1,1l1.8-0.2l0.1,1.3l-1.8,0.2l0.1,1l1.9-0.2l0.1,1.3l-3.4,0.3l-0.6-6l3.4-0.3
		L146.5,35.7z"/>
	<path class="st1" d="M147.8,34.3l2.3-0.3c0.4-0.1,0.8,0,1.2,0.1s0.7,0.3,1,0.5c0.3,0.2,0.6,0.5,0.8,0.9c0.2,0.3,0.3,0.7,0.4,1.1
		c0.1,0.4,0,0.8-0.1,1.2c-0.1,0.4-0.3,0.7-0.5,1c-0.2,0.3-0.5,0.6-0.8,0.8c-0.3,0.2-0.7,0.3-1.1,0.4l-2.3,0.3L147.8,34.3z M150,38.7
		l0.4,0c0.3,0,0.5-0.1,0.7-0.2c0.2-0.1,0.4-0.3,0.5-0.4c0.1-0.2,0.2-0.4,0.3-0.6s0.1-0.4,0-0.7c0-0.2-0.1-0.5-0.2-0.6
		s-0.2-0.4-0.4-0.5c-0.2-0.1-0.4-0.2-0.6-0.3s-0.5-0.1-0.7,0l-0.4,0L150,38.7z"/>
</g>
<g>
	<path class="st1" d="M129.4,43.8c-6.1,0-12-0.3-17.8-0.9c3.5,5.1,8.7,9.1,17.8,12.9c9.1-3.8,14.3-7.8,17.8-12.9
		C141.5,43.5,135.6,43.8,129.4,43.8z"/>
</g>
<g>
	<line class="st2" x1="109.6" y1="28.8" x2="109.6" y2="20.3"/>
	<line class="st2" x1="113.8" y1="28.4" x2="113.8" y2="21.6"/>
	<line class="st2" x1="111.7" y1="28.6" x2="111.7" y2="20.6"/>
	<line class="st2" x1="115.9" y1="28.2" x2="115.9" y2="23.5"/>
	<line class="st2" x1="143" y1="28.2" x2="143" y2="23.6"/>
	<line class="st2" x1="147.2" y1="28.6" x2="147.2" y2="20.6"/>
	<line class="st2" x1="145.1" y1="28.4" x2="145.1" y2="21.6"/>
	<line class="st2" x1="149.3" y1="28.8" x2="149.3" y2="20.3"/>
</g>
<path class="st2" d="M106,31.1c7.5,1.2,15.3,1.8,23.4,1.8c8.1,0,16-0.6,23.4-1.8"/>
<g>
	<path class="st1" d="M138.4,22.2c0.2,0.2,0.3,0.3,0.3,0.3c0.1,0,0.1-0.2,0.2-0.5l0.3-0.6l-0.8-0.2l-1-0.2c0.1,0.2,0.2,0.3,0.3,0.4
		C138,21.7,138.2,22,138.4,22.2z"/>
	<path class="st1" d="M134.6,21.3c0.3,0,0.7-0.1,1.1-0.1l1-0.1l0.2-0.5l0.1-0.4l-0.6-0.5c-0.4-0.3-0.6-0.4-0.7-0.3
		c-0.1,0-0.2,0.2-0.5,0.4c-0.3,0.2-0.4,0.4-0.4,0.4c0,0,0.1,0.1,0.2,0.1c0.2,0.1,0.2,0.3-0.1,0.5C134.6,21.1,134.5,21.2,134.6,21.3z
		"/>
	<path class="st1" d="M137.5,25c0,0.2-0.1,0.4-0.1,0.7c-0.1,0.2-0.1,0.3-0.1,0.5c0,0.2,0,0.2,0.1,0.2l1,0.2l1,0.2l0.6-0.5
		c0.1-0.1,0.2-0.2,0.3-0.3c0.1-0.1,0.2-0.2,0.3-0.3c-0.3,0-0.5,0-0.8,0c-0.6,0-1.1-0.2-1.5-0.4L137.5,25z"/>
	<path class="st1" d="M129.2,28.8c1.5-0.4,2.2-0.6,2.3-0.6c-0.1-0.2-0.3-0.4-0.3-0.5c-0.1-0.2-0.1-0.3-0.2-0.5l-0.6-1.1l0.7,0.3
		l0.8,0.3c0.1,0,0.1-0.1,0.2-0.3l0.2-0.3c0.1,0.1,0.2,0.3,0.3,0.4c0.1,0.1,0.2,0.3,0.3,0.3c0.4,0.5,0.6,0.7,0.8,0.7
		c1.8-0.4,2.8-0.6,3.1-0.8c0-0.1-0.5-0.4-1.2-1l-1.2-1c0.1,0,0.2-0.2,0.4-0.5c0.2-0.3,0.4-0.5,0.4-0.5c0.1,0,0.3,0.1,0.7,0.4
		l0.6,0.4l0.9-0.4c0.4-0.2,0.7-0.3,0.7-0.3c0.1,0,0.1,0.1,0.2,0.3c0.1,0.2,0.1,0.2,0.2,0.2c0.3-0.4,0.6-0.8,0.9-1.4l-0.6,0.1
		c-0.4,0.1-0.7,0.1-0.7,0.1c-0.1,0-0.2-0.2-0.4-0.5c-0.2-0.2-0.3-0.4-0.4-0.4c-0.1,0-0.3,0-0.5,0.2c-0.5,0.2-0.8,0.3-0.9,0.4
		c-0.1,0-0.2,0-0.3-0.2c-0.2-0.5-0.3-0.8-0.3-0.8c-0.1-0.1-0.3-0.1-0.7-0.1l-0.9-0.1c-0.1-0.2-0.1-0.5,0-0.9c0.1-0.4,0.2-0.8,0.3-1
		c0.2-0.4,0.3-0.6,0.2-0.7c-3.9,0.9-5.9,1.4-6,1.5c0.1,1.2,0.3,2.5,0.5,4C129.1,27.4,129.2,28.7,129.2,28.8z M134.7,26
		c0.3,0.2,0.2,0.4-0.1,0.5c-0.1,0.1-0.2,0.2-0.4,0.3c-0.2,0.1-0.3,0.1-0.4,0c-0.1-0.4,0.1-0.8,0.6-1C134.4,25.8,134.5,25.9,134.7,26
		z M133,23.7c0.1-0.4,0.1-0.7,0.1-0.7c0-0.1,0.2-0.1,0.4-0.2l0.5-0.2l0.6,0.7c-0.1,0-0.6,0.4-1.6,1.1C133,24.2,133,23.9,133,23.7z"
		/>
	<path class="st1" d="M122.9,22.8c0.4,1.2,1,2.8,1.7,4.8c0.1,0,0.7-0.1,1.9-0.4c1.2-0.3,1.7-0.5,1.8-0.5c0,0-0.1-0.7-0.2-2.1
		c-0.2-1.3-0.3-2.7-0.5-4c-0.2-1.3-0.3-2-0.3-1.9c-0.8,0.2-1.6,0.4-2.6,0.6c-0.4,0.1-0.8,0.2-1.2,0.4c-0.4,0.1-0.9,0.3-1.4,0.3
		c0,0.1,0,0.2,0,0.3C122.2,20.8,122.4,21.6,122.9,22.8z"/>
	<path class="st1" d="M125.2,32l-1.3-3.8c-1.9-5.5-2.8-8.3-2.7-8.4c0.2-0.2,0.2-0.4,0.1-0.7c-0.1-0.3-0.3-0.4-0.6-0.5
		c-0.2-0.1-0.5,0-0.7,0.1c-0.2,0.2-0.3,0.4-0.3,0.7c0,0.3,0.2,0.5,0.5,0.6c0.2,0,1.2,2.8,3,8.3c0.5,1.3,0.9,2.5,1.2,3.5L125.2,32z"
		/>
</g>
<path class="st0" d="M94.7,26.8V9.7c0-1.5-1.2-2.7-2.7-2.7h-1.5H58.3h-1.5c-1.5,0-2.7,1.2-2.7,2.7v17.2h0.5c2.1,0,3.8,1.7,3.8,3.8
	v0.6c0,1.3-0.7,2.6-1.8,3.2c-0.5,0.3-1.2,0.8-2.3,2.3c2.1,8.9,6.1,14.6,20.1,23.1c14-8.5,18.1-14.2,20.1-23.1
	c-1.1-1.4-1.7-1.9-2.3-2.3c-1.1-0.7-1.8-1.9-1.8-3.2v-0.6c0-2.1,1.7-3.8,3.8-3.8H94.7z"/>
<g>
	<path class="st1" d="M64.6,15.6l-0.8,4.6l1.9,0.3l-0.2,1.3L62,21.2l1.1-5.9L64.6,15.6z"/>
	<path class="st1" d="M70.7,17.7l-1.9-0.2l-0.1,1l1.8,0.2L70.3,20l-1.8-0.2l-0.1,1l1.9,0.2l-0.1,1.3L66.8,22l0.6-6l3.4,0.3
		L70.7,17.7z"/>
	<path class="st1" d="M73.1,16.4l1.5,3.7l1.4-3.7l1.7,0l-2.5,6.1l-1.2,0l-2.6-6L73.1,16.4z"/>
	<path class="st1" d="M82,17.3l-1.9,0.2l0.1,1l1.8-0.2l0.1,1.3l-1.8,0.2l0.1,1l1.9-0.2l0.1,1.3l-3.4,0.3l-0.6-6l3.4-0.3L82,17.3z"/>
	<path class="st1" d="M84.7,15.5l0.9,4.6l1.8-0.3l0.2,1.3l-3.4,0.6l-1.1-5.9L84.7,15.5z"/>
</g>
<path class="st1" d="M91.1,23.9v-1.2c-5,1.4-10.6,2.2-16.7,2.2c-6.1,0-11.8-0.8-16.7-2.2v1.2c2.5,1.2,4.2,3.7,4.2,6.7v0.6
	c0,2.6-1.3,5-3.5,6.3c0,0-0.1,0.1-0.2,0.1c1.8,6.3,5.2,11,16.2,17.9c10.9-6.9,14.4-11.6,16.2-17.9c-0.1-0.1-0.1-0.1-0.2-0.1
	c-2.2-1.3-3.5-3.7-3.5-6.3v-0.6C86.9,27.7,88.6,25.1,91.1,23.9z M81,43.9c-0.4,0.9-1,1.6-1.7,2.3c-0.7,0.6-1.6,1.1-2.6,1.4
	c-1,0.3-2.1,0.5-3.2,0.5c-0.5,0-1,0-1.5,0c-0.4,0-0.9-0.1-1.3-0.2s-0.9-0.2-1.3-0.3C69,47.3,68.5,47.2,68,47c0-0.7,0.2-1.4,0.4-2.1
	s0.5-1.3,0.8-1.9c0.7,0.2,1.4,0.4,2,0.6c0.7,0.2,1.3,0.2,2.1,0.2c1.1,0,2-0.2,2.6-0.7c0.6-0.4,1-1.1,1-2c0-0.4-0.1-0.7-0.3-1
	c-0.2-0.3-0.4-0.5-0.7-0.7c-0.3-0.2-0.6-0.3-1-0.4c-0.4-0.1-0.7-0.2-1.1-0.2c-0.3,0-0.6,0-0.9,0c-0.3,0-0.7,0.1-1.1,0.2L71.2,38
	l3.4-6H69c-0.2-0.7-0.3-1.4-0.3-2.1c0-0.7,0.1-1.4,0.3-2.1h11.8l0.5,0.8l-4,6.9c1.3,0.2,2.4,0.8,3.1,1.8c0.7,0.9,1.1,2.1,1.1,3.6
	C81.7,42,81.5,43,81,43.9z"/>
<g>
	<line class="st2" x1="58.7" y1="11.2" x2="58.7" y2="10.5"/>
	<line class="st2" x1="62.9" y1="12.4" x2="62.9" y2="10.5"/>
	<line class="st2" x1="67.1" y1="13.1" x2="67.1" y2="10.5"/>
	<line class="st2" x1="71.2" y1="13.5" x2="71.2" y2="10.5"/>
	<line class="st2" x1="60.8" y1="11.8" x2="60.8" y2="10.5"/>
	<line class="st2" x1="65" y1="12.8" x2="65" y2="10.5"/>
	<line class="st2" x1="69.2" y1="13.3" x2="69.2" y2="10.5"/>
	<line class="st2" x1="73.3" y1="13.6" x2="73.3" y2="10.5"/>
	<line class="st2" x1="75.4" y1="13.6" x2="75.4" y2="10.5"/>
	<line class="st2" x1="79.6" y1="13.4" x2="79.6" y2="10.5"/>
	<line class="st2" x1="83.8" y1="12.8" x2="83.8" y2="10.5"/>
	<line class="st2" x1="88" y1="11.8" x2="88" y2="10.5"/>
	<line class="st2" x1="77.5" y1="13.5" x2="77.5" y2="10.5"/>
	<line class="st2" x1="81.7" y1="13.1" x2="81.7" y2="10.5"/>
	<line class="st2" x1="85.9" y1="12.4" x2="85.9" y2="10.5"/>
	<line class="st2" x1="90" y1="11.2" x2="90" y2="10.5"/>
</g>
<g>
	<path class="st2" d="M57.6,11.1c4.3,1.6,10,2.8,16.7,2.8c6.7,0,12.5-1.2,16.7-2.8"/>
</g>
<path class="st0" d="M24.3,59.6c3.9-2.7,9.1-4.7,15-5.6c3.1-0.5,5.4-3.2,5.4-6.4V36.8V8.7C39.3,5.8,32.1,4,24.3,4
	C16.5,4,9.4,5.8,4,8.7v28.1v10.7c0,3.1,2.3,5.9,5.4,6.4C15.2,54.9,20.4,56.9,24.3,59.6z"/>
<g>
	<path class="st1" d="M14.5,15.6l-0.8,4.6l1.9,0.3l-0.2,1.3l-3.4-0.6l1.1-5.9L14.5,15.6z"/>
	<path class="st1" d="M20.6,17.7l-1.9-0.2l-0.1,1l1.8,0.2L20.3,20l-1.8-0.2l-0.1,1l1.9,0.2l-0.1,1.3L16.7,22l0.6-6l3.4,0.3
		L20.6,17.7z"/>
	<path class="st1" d="M23,16.4l1.5,3.7l1.4-3.7l1.7,0l-2.5,6.1l-1.2,0l-2.6-6L23,16.4z"/>
	<path class="st1" d="M31.9,17.3l-1.9,0.2l0.1,1l1.8-0.2l0.1,1.3l-1.8,0.2l0.1,1l1.9-0.2l0.1,1.3L29,22.3l-0.6-6l3.4-0.3L31.9,17.3z
		"/>
	<path class="st1" d="M34.6,15.5l0.9,4.6l1.8-0.3l0.2,1.3l-3.4,0.6l-1.1-5.9L34.6,15.5z"/>
</g>
<path class="st1" d="M24.3,24.9c-6.1,0-11.8-0.8-16.7-2.2v23.1c0,2.4,1.7,4.5,4.1,4.9c4.7,0.9,9,2.5,12.7,4.6
	c3.7-2.1,8-3.7,12.7-4.6c2.4-0.5,4.1-2.5,4.1-4.9V22.7C36.1,24.1,30.5,24.9,24.3,24.9z M30.9,47.2H17.8l-0.3-0.8l5.2-6.8
	c0.9-1.2,1.6-2.2,2-3c0.4-0.8,0.7-1.6,0.7-2.2c0-0.6-0.2-1.1-0.7-1.4c-0.4-0.4-1-0.5-1.8-0.5c-0.7,0-1.4,0.1-2.1,0.4
	c-0.6,0.3-1.2,0.5-1.7,0.8c-0.3-0.7-0.6-1.4-0.8-2.1c-0.2-0.7-0.4-1.4-0.4-2.1c0.7-0.4,1.5-0.7,2.4-1s2-0.4,3.2-0.4
	c1,0,1.9,0.1,2.7,0.3c0.8,0.2,1.6,0.6,2.2,1.1c0.6,0.5,1.1,1.1,1.5,1.8c0.3,0.7,0.5,1.6,0.5,2.6c0,0.7-0.1,1.4-0.3,2
	c-0.2,0.6-0.4,1.2-0.7,1.8c-0.3,0.6-0.6,1.1-0.9,1.6c-0.3,0.5-0.7,1-1,1.5l-1.7,2.3h5.1c0.2,0.8,0.3,1.5,0.3,2.1
	C31.2,45.6,31.1,46.3,30.9,47.2z"/>
<g>
	<line class="st2" x1="8.7" y1="11.1" x2="8.7" y2="10.5"/>
	<line class="st2" x1="12.9" y1="12.3" x2="12.9" y2="9.1"/>
	<line class="st2" x1="17" y1="13.1" x2="17" y2="8.2"/>
	<line class="st2" x1="21.2" y1="13.5" x2="21.2" y2="7.7"/>
	<line class="st2" x1="10.8" y1="11.8" x2="10.8" y2="9.7"/>
	<line class="st2" x1="14.9" y1="12.7" x2="14.9" y2="8.6"/>
	<line class="st2" x1="19.1" y1="13.3" x2="19.1" y2="7.9"/>
	<line class="st2" x1="23.3" y1="13.5" x2="23.3" y2="7.6"/>
	<line class="st2" x1="25.4" y1="13.5" x2="25.4" y2="7.6"/>
	<line class="st2" x1="29.6" y1="13.3" x2="29.6" y2="7.9"/>
	<line class="st2" x1="33.7" y1="12.7" x2="33.7" y2="8.6"/>
	<line class="st2" x1="37.9" y1="11.8" x2="37.9" y2="9.7"/>
	<line class="st2" x1="27.5" y1="13.5" x2="27.5" y2="7.7"/>
	<line class="st2" x1="31.6" y1="13.1" x2="31.6" y2="8.2"/>
	<line class="st2" x1="35.8" y1="12.3" x2="35.8" y2="9.1"/>
	<line class="st2" x1="40" y1="11.1" x2="40" y2="10.5"/>
</g>
<g>
	<path class="st2" d="M7.6,11.1c4.3,1.6,10,2.8,16.7,2.8c6.7,0,12.5-1.2,16.7-2.8"/>
</g>
</svg>
